<svg width="76" height="66" fill="none" xmlns="http://www.w3.org/2000/svg"><rect width="76" height="66" rx="20" fill="#fff"/><path fill-rule="evenodd" clip-rule="evenodd" d="M38.024 24.224c-5.563 0-11.126.01-16.69-.015-.601-.002-.76.138-.757.751.025 6.073.013 12.147.016 18.22 0 2.06.854 2.911 2.902 2.912 2.162 0 4.324.003 6.486-.003.569-.001 1.047.113 1.04.807-.008.688-.48.797-1.05.795-2.332-.01-4.664.003-6.997-.006-2.137-.009-3.872-1.617-3.935-3.755-.066-2.233-.028-4.47-.029-6.704-.003-5.66-.007-11.32-.001-16.98.002-2.123 1.081-3.598 2.97-4.121.452-.125.912-.123 1.372-.123 9.766-.002 19.532-.003 29.298 0 2.79 0 4.372 1.576 4.373 4.359.004 7.652-.04 15.305.023 22.957.024 2.962-2.258 4.549-4.395 4.382-.99-.077-1.99-.024-2.987-.009-.582.01-1.044-.142-1.037-.813.007-.682.495-.797 1.064-.79.996.012 1.992.004 2.988.003 1.841-.001 2.76-.906 2.772-2.758.011-1.846.002-3.692.002-5.539 0-4.3-.01-8.6.013-12.9.003-.54-.124-.686-.678-.684-5.588.023-11.175.014-16.763.014Zm-.004-1.606c4.976 0 9.952.007 14.929-.007.813-.002 1.634.117 2.442-.081.092-.918.069-1.837.01-2.754-.064-.996-.597-1.67-1.504-2.029-.45-.178-.946-.173-1.432-.173-9.637 0-19.274 0-28.911.004-.338 0-.678.034-1.013.08-1 .14-1.733.9-1.886 1.91-.121.799-.003 1.603-.076 2.398-.053.575.17.666.691.664 5.583-.02 11.167-.012 16.75-.012Z" fill="#0974D9"/><path fill-rule="evenodd" clip-rule="evenodd" d="M47.29 41.35c0 1.02-.006 2.04.001 3.059.008 1.053-.168 2.064-.609 3.028-.14.306-.242.63-.345.95-.208.647-.323 1.22.49 1.617.47.228.618.797.647 1.317.033.581.027 1.166.003 1.748-.022.545-.26.953-.878.926-.598-.026-.745-.443-.732-.965.009-.388-.037-.781.01-1.164.082-.67-.213-.807-.83-.802-3.277.027-6.554.028-9.831-.001-.644-.006-.883.19-.82.83.044.431.004.872.003 1.309-.001.493-.24.787-.738.798-.49.01-.78-.256-.79-.751a45.545 45.545 0 0 1 .012-2.184 1.382 1.382 0 0 1 .778-1.231c.48-.234.457-.526.366-.933-.244-1.08-.694-2.06-1.437-2.88-.688-.762-.986-1.649-.966-2.651.03-1.478-.136-2.965.084-4.432.195-1.297 1.123-2.062 2.41-2.017.555.02.621-.173.61-.646a72.492 72.492 0 0 1 .005-3.932c.037-1.117.825-1.987 1.83-2.134 1.041-.153 1.997.454 2.386 1.48.091.24.092.472.093.711.005.874.019 1.748-.005 2.622-.01.351.086.502.444.428a.161.161 0 0 1 .072 0c.927.264 1.832.152 2.786.08.902-.068 1.831.097 2.791-.038 1.215-.171 2.124.9 2.154 2.29.026 1.189.005 2.379.006 3.568Zm-11-4.156c0 1.482-.014 2.964.006 4.446.008.557-.143 1.017-.743 1.03-.636.012-.842-.457-.836-1.044.01-.826-.003-1.652.004-2.478.002-.266-.063-.499-.323-.59-.277-.097-.564-.12-.823.095-.29.241-.362.547-.36.907.01 1.24.03 2.479-.005 3.717-.019.7.196 1.266.65 1.787a7.453 7.453 0 0 1 1.787 3.898c.08.558.278.587.716.584 2.454-.019 4.908-.027 7.362-.008.546.005.878-.029.911-.722.035-.716.299-1.407.6-2.071.177-.392.339-.79.372-1.238.193-2.571.04-5.146.08-7.718.006-.38-.104-.766-.599-.733-.477.03-.54.404-.538.795.002.364.027.732-.014 1.092-.055.495-.337.826-.865.78-.471-.04-.733-.325-.706-.834.017-.34-.005-.68.004-1.02.011-.435-.099-.813-.604-.81-.471.004-.565.373-.56.774.005.364.018.73-.005 1.093-.031.51-.326.822-.834.804-.467-.016-.745-.32-.766-.8-.018-.411-.006-.825-.004-1.238 0-.369-.162-.62-.542-.638-.388-.019-.572.255-.601.596-.035.41-.02.826-.008 1.239.014.503-.244.787-.716.836-.492.05-.76-.26-.862-.709-.042-.185-.02-.387-.02-.58 0-1.944-.003-3.888.002-5.832 0-.393-.044-.773-.528-.793-.52-.023-.608.379-.63.792-.009.145-.002.291-.002.437v4.154ZM39.18 29.207c-.56-.027-.912-.459-.77-.937.172-.581.515-1.087.874-1.565.194-.258.51-.33.85-.191.305.123.455.346.5.649.05.34-.77 1.82-1.093 1.964-.128.058-.279.063-.36.08ZM31.612 33.144c-.121 0-.243-.007-.363.001-.589.038-1.06-.158-1.046-.805.013-.584.465-.803 1.015-.806.34-.002.68-.015 1.019.005.527.03.914.304.899.843-.015.54-.39.796-.941.763-.194-.011-.389-.002-.583-.002Z" fill="#0974D9"/><path fill-rule="evenodd" clip-rule="evenodd" d="M42.088 33.144c-.17 0-.34-.004-.51 0-.54.013-.92-.206-.93-.778-.009-.575.401-.791.91-.827.363-.025.73-.029 1.093 0 .53.042.943.234.91.883-.034.632-.461.723-.963.722h-.51ZM40.042 30.063c.01-.255.101-.471.327-.605.435-.257.874-.51 1.316-.756.426-.237.746-.044.992.295.254.35.187.717-.128.973-.466.38-.99.694-1.56.887-.478.16-.966-.279-.947-.794ZM31.005 29.6c-.013-.723.53-1.152 1.021-.928.5.227.982.512 1.43.83.353.251.452.631.17 1.016-.254.349-.594.496-1.005.277-.424-.226-.834-.478-1.253-.714-.258-.146-.352-.377-.363-.48ZM36.106 27.11c0-.17.001-.34 0-.51-.006-.536.208-.905.785-.914.586-.01.79.393.826.9.024.34.014.68.003 1.02-.017.535-.185.977-.816.983-.637.006-.813-.413-.799-.97.004-.169 0-.339 0-.509ZM35.394 28.256c.023.498-.128.774-.451.894-.303.112-.643.116-.87-.167-.361-.45-.668-.948-.856-1.492-.138-.395-.015-.764.413-.964.404-.188.728-.04.949.284.335.494.658 1.003.815 1.445ZM32.04 20.872c-2.354 0-4.708-.016-7.062.012-.612.007-1.051-.194-1.048-.8.004-.569.462-.796 1.02-.796 4.707.003 9.415.002 14.124.001.577 0 1.052.199 1.041.841-.01.6-.443.757-1.013.752-2.354-.023-4.708-.01-7.062-.01ZM48.035 20.873c-.566.07-.942-.225-.935-.796.006-.54.428-.796.954-.782.506.014.91.205.913.802.003.595-.35.805-.932.776ZM44.936 20.873c-.516.06-.862-.186-.934-.732-.064-.481.383-.866.957-.847.512.017.924.212.923.8-.002.574-.359.807-.946.78ZM51.167 20.87c-.581.046-.93-.174-.936-.761-.006-.591.387-.794.901-.816.568-.023 1.038.371.967.844-.078.519-.387.82-.932.732Z" fill="#0974D9"/></svg>