<svg width="318" height="70" viewBox="0 0 318 70" fill="none" xmlns="http://www.w3.org/2000/svg">
<path d="M37.625 45.1562V55.5312C37.5208 55.5729 36.8542 55.8021 35.625 56.2188C34.4167 56.6354 32.8646 57.0417 30.9688 57.4375C29.0729 57.8333 27.0312 58.0312 24.8438 58.0312C21.2604 58.0312 18.0833 57.4167 15.3125 56.1875C12.5417 54.9375 10.1979 53.25 8.28125 51.125C6.38542 49 4.94792 46.5938 3.96875 43.9062C2.98958 41.1979 2.5 38.375 2.5 35.4375C2.5 31.0208 3.4375 27.1354 5.3125 23.7812C7.1875 20.4062 9.80208 17.7708 13.1562 15.875C16.5312 13.9792 20.4479 13.0312 24.9062 13.0312C26.9896 13.0312 28.9792 13.25 30.875 13.6875C32.7917 14.125 35.0417 14.7396 37.625 15.5312V25.5625H33.7812L32.8438 19.75C32.7604 19.3958 32.6042 19.0833 32.375 18.8125C32.1458 18.5417 31.9375 18.3646 31.75 18.2812L31.5 18.1562C30.9583 17.9062 30.1458 17.5938 29.0625 17.2188C27.9792 16.8229 26.6979 16.625 25.2188 16.625C22.3229 16.625 19.7083 17.3438 17.375 18.7812C15.0625 20.1979 13.2292 22.3021 11.875 25.0938C10.5208 27.8854 9.84375 31.3333 9.84375 35.4375C9.84375 41.3958 11.2812 46.0625 14.1562 49.4375C17.0312 52.8125 21 54.5 26.0625 54.5C27.5625 54.5 28.7812 54.3229 29.7188 53.9688C30.6562 53.6146 31.1562 53.4271 31.2188 53.4062C31.8854 53.1562 32.2917 52.7292 32.4375 52.125L33.9062 45.1562H37.625ZM72.75 41.625C72.75 44.6458 72.125 47.3854 70.875 49.8438C69.625 52.2812 67.8542 54.2188 65.5625 55.6562C63.2917 57.0729 60.5938 57.7812 57.4688 57.7812C54.3646 57.7812 51.6771 57.0729 49.4062 55.6562C47.1354 54.2396 45.3854 52.3125 44.1562 49.875C42.9271 47.4375 42.3125 44.6875 42.3125 41.625C42.3125 38.5833 42.9271 35.8333 44.1562 33.375C45.4062 30.9167 47.1771 28.9688 49.4688 27.5312C51.7812 26.0938 54.5104 25.375 57.6562 25.375C60.8438 25.375 63.5625 26.1042 65.8125 27.5625C68.0625 29.0208 69.7812 30.9792 70.9688 33.4375C72.1562 35.8958 72.75 38.625 72.75 41.625ZM66.0938 41.5625C66.0938 39.2292 65.7812 37.0521 65.1562 35.0312C64.5521 33.0104 63.6146 31.375 62.3438 30.125C61.0938 28.875 59.5104 28.25 57.5938 28.25C55.6146 28.25 53.9896 28.875 52.7188 30.125C51.4688 31.375 50.5417 33.0104 49.9375 35.0312C49.3333 37.0521 49.0312 39.2292 49.0312 41.5625C49.0312 43.875 49.3333 46.0521 49.9375 48.0938C50.5625 50.1146 51.5 51.75 52.75 53C54.0208 54.25 55.6146 54.875 57.5312 54.875C59.4896 54.875 61.0938 54.25 62.3438 53C63.6146 51.75 64.5521 50.1146 65.1562 48.0938C65.7812 46.0729 66.0938 43.8958 66.0938 41.5625ZM109.375 57H99.3125V53.5938C97.8542 54.7188 96.3021 55.6979 94.6562 56.5312C93.0104 57.3646 91.2604 57.7812 89.4062 57.7812C87.2604 57.7812 85.4062 57.3333 83.8438 56.4375C82.3021 55.5208 81.0312 54.3125 80.0312 52.8125C79.0521 51.3125 78.3229 49.6562 77.8438 47.8438C77.3646 46.0312 77.125 44.2188 77.125 42.4062C77.125 39.5104 77.7188 36.7708 78.9062 34.1875C80.0938 31.5833 81.8958 29.4688 84.3125 27.8438C86.7292 26.1979 89.7708 25.375 93.4375 25.375C94.4583 25.375 95.5625 25.4792 96.75 25.6875C97.9583 25.875 98.8125 26.0312 99.3125 26.1562V14.4375H94.4688V12.3125L102.719 9.84375H105.281V52.9062C105.281 53.7812 105.729 54.25 106.625 54.3125L109.375 54.5V57ZM99.3125 51.1875V29.4062C98.7708 29.2188 97.9583 29.0208 96.875 28.8125C95.8125 28.5833 94.8125 28.4688 93.875 28.4688C90.7083 28.4688 88.1771 29.6458 86.2812 32C84.3854 34.3333 83.4375 37.4375 83.4375 41.3125C83.4375 44.7917 84.25 47.6771 85.875 49.9688C87.5 52.2604 89.7812 53.4062 92.7188 53.4062C94.0104 53.4062 95.2188 53.1667 96.3438 52.6875C97.4896 52.1875 98.4792 51.6875 99.3125 51.1875ZM140.25 53.8125C138.458 54.9167 136.521 55.8542 134.438 56.625C132.375 57.3958 130.26 57.7812 128.094 57.7812C125.51 57.7812 123.083 57.2083 120.812 56.0625C118.562 54.8958 116.74 53.1354 115.344 50.7812C113.948 48.4271 113.25 45.4688 113.25 41.9062C113.25 38.5729 113.896 35.6667 115.188 33.1875C116.479 30.7083 118.26 28.7917 120.531 27.4375C122.802 26.0625 125.385 25.375 128.281 25.375C132.26 25.375 135.25 26.6146 137.25 29.0938C139.25 31.5521 140.25 34.6875 140.25 38.5C140.25 38.7083 140.25 38.9896 140.25 39.3438C140.25 39.6771 140.229 39.9896 140.188 40.2812H119.438C119.438 41.9062 119.604 43.5312 119.938 45.1562C120.292 46.7604 120.875 48.2188 121.688 49.5312C122.5 50.8438 123.594 51.8958 124.969 52.6875C126.344 53.4792 128.062 53.875 130.125 53.875C131.958 53.875 133.74 53.4583 135.469 52.625C137.219 51.7708 138.812 50.8646 140.25 49.9062V53.8125ZM133.844 37.4062V36C133.844 33.8958 133.333 32.125 132.312 30.6875C131.312 29.25 129.75 28.5312 127.625 28.5312C125.521 28.5312 123.729 29.3229 122.25 30.9062C120.771 32.4896 119.948 34.6562 119.781 37.4062H133.844ZM165.719 47.7188C165.719 50.8646 164.635 53.3333 162.469 55.125C160.302 56.8958 157.312 57.7812 153.5 57.7812C151.542 57.7812 149.729 57.5729 148.062 57.1562C146.417 56.7604 145.271 56.4271 144.625 56.1562V47.6562H147.875L148.656 53.0938C149.302 53.5104 150.094 53.9167 151.031 54.3125C151.99 54.6875 153.094 54.875 154.344 54.875C156.177 54.875 157.594 54.3646 158.594 53.3438C159.594 52.3229 160.094 51.1771 160.094 49.9062C160.094 48.2188 159.49 46.9479 158.281 46.0938C157.073 45.2188 155.354 44.25 153.125 43.1875L152.281 42.7812C149.948 41.6771 148.156 40.5312 146.906 39.3438C145.677 38.1354 145.062 36.5729 145.062 34.6562C145.062 31.8021 146.062 29.5417 148.062 27.875C150.062 26.2083 152.906 25.375 156.594 25.375C158.469 25.375 160.135 25.5521 161.594 25.9062C163.073 26.2396 164.135 26.5521 164.781 26.8438V34.4062H161.438L160.938 29.9375C160.479 29.5833 159.802 29.25 158.906 28.9375C158.01 28.625 157.062 28.4688 156.062 28.4688C154.312 28.4688 153.01 28.875 152.156 29.6875C151.302 30.4792 150.875 31.5 150.875 32.75C150.875 34.1875 151.385 35.3333 152.406 36.1875C153.448 37.0208 155.323 38.0521 158.031 39.2812C160.26 40.3021 162.094 41.4479 163.531 42.7188C164.99 43.9688 165.719 45.6354 165.719 47.7188Z" fill="#108AFF"/>
<path d="M177.696 34.6C177.696 30.1627 178.614 26.216 180.448 22.76C182.326 19.2613 184.886 16.5307 188.128 14.568C191.414 12.6053 195.083 11.624 199.136 11.624C204.256 11.624 208.566 12.8187 212.064 15.208C215.563 17.5973 218.123 20.9467 219.744 25.256H216.416C215.136 21.8427 213.003 19.1547 210.016 17.192C207.072 15.1867 203.446 14.184 199.136 14.184C195.68 14.184 192.544 15.016 189.728 16.68C186.912 18.3013 184.694 20.6693 183.072 23.784C181.451 26.856 180.64 30.4613 180.64 34.6C180.64 38.696 181.451 42.28 183.072 45.352C184.694 48.3813 186.912 50.728 189.728 52.392C192.544 54.056 195.68 54.888 199.136 54.888C203.446 54.888 207.072 53.9067 210.016 51.944C213.003 49.9387 215.136 47.2293 216.416 43.816H219.744C218.123 48.1253 215.563 51.4747 212.064 53.864C208.566 56.2533 204.256 57.448 199.136 57.448C195.083 57.448 191.414 56.488 188.128 54.568C184.886 52.6053 182.326 49.896 180.448 46.44C178.614 42.9413 177.696 38.9947 177.696 34.6ZM231.618 9.64V57H228.738V9.64H231.618ZM271.552 22.248V57H268.672V49.448C267.69 52.0933 266.048 54.12 263.744 55.528C261.482 56.8933 258.88 57.576 255.936 57.576C251.797 57.576 248.405 56.3173 245.76 53.8C243.157 51.24 241.856 47.464 241.856 42.472V22.248H244.672V42.28C244.672 46.4187 245.717 49.5973 247.808 51.816C249.898 53.992 252.736 55.08 256.32 55.08C260.074 55.08 263.061 53.8853 265.28 51.496C267.541 49.1067 268.672 45.5653 268.672 40.872V22.248H271.552ZM313.347 37.288C313.347 38.824 313.304 39.976 313.219 40.744H283.203C283.288 43.8587 283.971 46.4827 285.251 48.616C286.531 50.7493 288.216 52.3493 290.307 53.416C292.397 54.4827 294.68 55.016 297.155 55.016C300.568 55.016 303.427 54.184 305.731 52.52C308.035 50.8133 309.485 48.5093 310.083 45.608H313.091C312.408 49.1493 310.659 52.0293 307.843 54.248C305.027 56.424 301.464 57.512 297.155 57.512C293.912 57.512 291.011 56.7867 288.451 55.336C285.891 53.8853 283.885 51.816 282.435 49.128C280.984 46.3973 280.259 43.2187 280.259 39.592C280.259 35.9653 280.963 32.808 282.371 30.12C283.821 27.432 285.827 25.384 288.387 23.976C290.947 22.5253 293.869 21.8 297.155 21.8C300.483 21.8 303.363 22.5253 305.795 23.976C308.269 25.384 310.147 27.2827 311.427 29.672C312.707 32.0187 313.347 34.5573 313.347 37.288ZM310.467 38.376C310.595 35.304 310.04 32.7013 308.803 30.568C307.608 28.4347 305.965 26.856 303.875 25.832C301.784 24.7653 299.523 24.232 297.091 24.232C294.659 24.232 292.397 24.7653 290.307 25.832C288.259 26.856 286.573 28.4347 285.251 30.568C283.971 32.7013 283.288 35.304 283.203 38.376H310.467Z" fill="#1E1E1E"/>
</svg>
