<svg width="15" height="16" viewBox="0 0 15 16" fill="none" xmlns="http://www.w3.org/2000/svg">
<path d="M2.8125 5.96753H2.5C1.91074 5.96753 1.61612 5.96753 1.43306 6.15059C1.25 6.33365 1.25 6.62828 1.25 7.21753V12.53C1.25 13.1193 1.25 13.4139 1.43306 13.597C1.61612 13.78 1.91074 13.78 2.5 13.78H2.8125C3.40176 13.78 3.69638 13.78 3.87944 13.597C4.0625 13.4139 4.0625 13.1193 4.0625 12.53V7.21753C4.0625 6.62828 4.0625 6.33365 3.87944 6.15059C3.69638 5.96753 3.40176 5.96753 2.8125 5.96753Z" stroke="#787878"/>
<path d="M4.0625 2.68628C4.0625 3.46293 3.4329 4.09253 2.65625 4.09253C1.8796 4.09253 1.25 3.46293 1.25 2.68628C1.25 1.90963 1.8796 1.28003 2.65625 1.28003C3.4329 1.28003 4.0625 1.90963 4.0625 2.68628Z" stroke="#787878"/>
<path d="M7.70375 5.96753H7.1875C6.59825 5.96753 6.30362 5.96753 6.12056 6.15059C5.9375 6.33365 5.9375 6.62828 5.9375 7.21753V12.53C5.9375 13.1193 5.9375 13.4139 6.12056 13.597C6.30362 13.78 6.59825 13.78 7.1875 13.78H7.5C8.08925 13.78 8.38387 13.78 8.56694 13.597C8.75 13.4139 8.75 13.1193 8.75 12.53L8.75006 10.3426C8.75006 9.30709 9.08006 8.46759 10.0549 8.46759C10.5423 8.46759 10.9375 8.88734 10.9375 9.40509V12.2176C10.9375 12.8068 10.9375 13.1015 11.1206 13.2845C11.3036 13.4676 11.5983 13.4676 12.1875 13.4676H12.4992C13.0883 13.4676 13.3829 13.4676 13.5659 13.2846C13.749 13.1016 13.7491 12.807 13.7492 12.2179L13.7501 8.78015C13.7501 7.2269 12.2728 5.96768 10.8105 5.96768C9.97806 5.96768 9.23544 6.37572 8.75006 7.01378C8.75 6.61997 8.75 6.42309 8.6645 6.2769C8.61031 6.18432 8.53319 6.10724 8.44063 6.05307C8.29444 5.96753 8.09756 5.96753 7.70375 5.96753Z" stroke="#787878" stroke-linejoin="round"/>
</svg>
