<svg width="16" height="16" viewBox="0 0 16 16" fill="none" xmlns="http://www.w3.org/2000/svg">
<path d="M1.58325 3.15503L5.90389 5.60792C7.48244 6.50409 8.18406 6.50409 9.76263 5.60792L14.0833 3.15503" stroke="#787878" stroke-width="1.5" stroke-linejoin="round"/>
<path d="M6.89575 12.2175C6.60431 12.2137 6.31251 12.2082 6.02002 12.2008C4.05221 12.1513 3.0683 12.1266 2.36135 11.4165C1.6544 10.7065 1.63396 9.74797 1.59311 7.8309C1.57997 7.21447 1.57996 6.60172 1.5931 5.9853C1.63396 4.06824 1.65439 3.1097 2.36135 2.39965C3.0683 1.68959 4.05221 1.66486 6.02001 1.61539C7.23281 1.5849 8.43369 1.58491 9.6465 1.6154C11.6143 1.66487 12.5982 1.6896 13.3051 2.39966C14.0121 3.10971 14.0326 4.06824 14.0734 5.9853C14.0794 6.2691 14.0827 6.40284 14.0832 6.59253" stroke="#787878" stroke-linecap="round" stroke-linejoin="round"/>
<path d="M12.2083 10.655C12.2083 11.1728 11.7885 11.5925 11.2708 11.5925C10.753 11.5925 10.3333 11.1728 10.3333 10.655C10.3333 10.1373 10.753 9.71753 11.2708 9.71753C11.7885 9.71753 12.2083 10.1373 12.2083 10.655ZM12.2083 10.655V10.9675C12.2083 11.4853 12.628 11.905 13.1458 11.905C13.6635 11.905 14.0833 11.4853 14.0833 10.9675V10.655C14.0833 9.10172 12.8241 7.84253 11.2708 7.84253C9.71744 7.84253 8.45825 9.10172 8.45825 10.655C8.45825 12.2083 9.71744 13.4675 11.2708 13.4675" stroke="#787878" stroke-linecap="round" stroke-linejoin="round"/>
</svg>
