<svg width="18" height="18" viewBox="0 0 18 18" fill="none" xmlns="http://www.w3.org/2000/svg">
<path d="M9.16659 15.6134C13.0786 15.6134 16.2499 12.4421 16.2499 8.53011C16.2499 4.61809 13.0786 1.44678 9.16659 1.44678C5.25457 1.44678 2.08325 4.61809 2.08325 8.53011C2.08325 12.4421 5.25457 15.6134 9.16659 15.6134Z" stroke="#787878"/>
<path d="M16.2498 9.42556C15.5934 9.30246 14.9182 9.23828 14.2291 9.23828C10.4378 9.23828 7.06584 11.1809 4.9165 14.1966" stroke="#787878" stroke-linejoin="round"/>
<path d="M14.1249 3.57178C11.9082 6.16953 8.57718 7.82178 4.85257 7.82178C3.89968 7.82178 2.97255 7.71361 2.08325 7.50919" stroke="#787878" stroke-linejoin="round"/>
<path d="M11.0207 15.6134C11.1982 14.7534 11.2914 13.8629 11.2914 12.9505C11.2914 8.47669 9.04905 4.52543 5.62476 2.15503" stroke="#787878" stroke-linejoin="round"/>
</svg>
