<svg width="18" height="18" viewBox="0 0 18 18" fill="none" xmlns="http://www.w3.org/2000/svg">
<path fill-rule="evenodd" clip-rule="evenodd" d="M4.71212 7.34953C4.01954 7.34953 3.875 7.48546 3.875 8.13656V9.31714C3.875 9.96831 4.01954 10.1042 4.71212 10.1042H6.38636V14.8264C6.38636 15.4775 6.5309 15.6134 7.22348 15.6134H8.89772C9.59033 15.6134 9.73483 15.4775 9.73483 14.8264V10.1042H11.6147C12.14 10.1042 12.2754 10.0082 12.4197 9.53339L12.7785 8.35281C13.0256 7.53944 12.8733 7.34953 11.9735 7.34953H9.73483V5.38197C9.73483 4.9473 10.1096 4.59492 10.5719 4.59492H12.9546C13.6471 4.59492 13.7917 4.45903 13.7917 3.80789V2.23381C13.7917 1.58267 13.6471 1.44678 12.9546 1.44678H10.5719C8.26029 1.44678 6.38636 3.20862 6.38636 5.38197V7.34953H4.71212Z" stroke="#787878" stroke-width="1.0625" stroke-linejoin="round"/>
</svg>
