<svg width="30" height="51" viewBox="0 0 30 51" fill="none" xmlns="http://www.w3.org/2000/svg">
<path d="M29.5295 36.1689C29.0932 35.7392 28.4386 35.7392 28.0023 36.0973L16.0023 47.2703V1.07432C16.0023 0.501351 15.4932 0 14.9114 0C14.3295 0 13.8204 0.501351 13.8204 1.07432V47.3419L1.82044 36.3122C1.38408 35.8824 0.656808 35.9541 0.293171 36.3838C-0.143192 36.8135 -0.070465 37.5297 0.365899 37.8878L14.1841 50.5649C14.2568 50.6365 14.4023 50.7081 14.475 50.7797C14.6204 50.8514 14.6932 50.8513 14.8386 50.8513C14.9841 50.8513 15.0568 50.8514 15.2023 50.7797C15.2023 50.7797 15.2023 50.7797 15.275 50.7797C15.4204 50.7081 15.4932 50.6365 15.5659 50.5649L29.3841 37.673C29.8932 37.2432 29.9659 36.5986 29.5295 36.1689Z" fill="#108AFF"/>
</svg>
