<svg width="16" height="16" viewBox="0 0 16 16" fill="none" xmlns="http://www.w3.org/2000/svg">
<path d="M2.229 7.53003C2.229 4.73107 2.229 3.33159 3.09853 2.46205C3.96806 1.59253 5.36754 1.59253 8.1665 1.59253C10.9654 1.59253 12.3649 1.59253 13.2345 2.46205C14.104 3.33159 14.104 4.73107 14.104 7.53003C14.104 10.329 14.104 11.7285 13.2345 12.598C12.3649 13.4675 10.9654 13.4675 8.1665 13.4675C5.36754 13.4675 3.96806 13.4675 3.09853 12.598C2.229 11.7285 2.229 10.329 2.229 7.53003Z" stroke="#787878" stroke-linejoin="round"/>
<path d="M10.979 7.53003C10.979 9.08334 9.71982 10.3425 8.1665 10.3425C6.6132 10.3425 5.354 9.08334 5.354 7.53003C5.354 5.97673 6.6132 4.71753 8.1665 4.71753C9.71982 4.71753 10.979 5.97673 10.979 7.53003Z" stroke="#787878"/>
<path d="M11.6089 4.09253H11.6033" stroke="#787878" stroke-width="1.5" stroke-linecap="round" stroke-linejoin="round"/>
</svg>
