<svg width="16" height="16" viewBox="0 0 16 16" fill="none" xmlns="http://www.w3.org/2000/svg">
<path d="M1.58325 7.53003H5.09888M4.95825 3.15503H2.83325C2.244 3.15503 1.94937 3.15503 1.76631 3.33809C1.58325 3.52115 1.58325 3.81577 1.58325 4.40503V10.655C1.58325 11.2443 1.58325 11.5389 1.76631 11.722C1.94937 11.905 2.244 11.905 2.83325 11.905H4.95825C6.2009 11.905 7.20825 10.9257 7.20825 9.71753C7.20825 8.5094 6.2009 7.53003 4.95825 7.53003C6.2009 7.53003 7.20825 6.55065 7.20825 5.34253C7.20825 4.1344 6.2009 3.15503 4.95825 3.15503Z" stroke="#787878" stroke-width="1.5" stroke-linecap="round" stroke-linejoin="round"/>
<path d="M12.8333 4.40503H10.3333M9.08325 8.78003H14.0833C14.0833 7.50422 12.9639 6.28003 11.5833 6.28003C10.2026 6.28003 9.08325 7.50422 9.08325 8.78003ZM9.08325 8.78003V9.40503C9.08325 10.7857 10.2026 11.905 11.5833 11.905C12.5086 11.905 13.3166 11.4023 13.7488 10.655" stroke="#787878" stroke-width="1.5" stroke-linecap="round" stroke-linejoin="round"/>
</svg>
