<svg width="18" height="18" viewBox="0 0 18 18" fill="none" xmlns="http://www.w3.org/2000/svg">
<path d="M9.33333 14.5509C10.6152 14.5509 11.8444 14.4243 12.9837 14.1921C14.4066 13.902 15.1182 13.757 15.7674 12.9222C16.4167 12.0874 16.4167 11.1292 16.4167 9.21259V7.84763C16.4167 5.93104 16.4167 4.97277 15.7674 4.138C15.1182 3.30323 14.4066 3.1582 12.9837 2.86813C11.8444 2.63591 10.6152 2.50928 9.33333 2.50928C8.05146 2.50928 6.82221 2.63591 5.68298 2.86813C4.26001 3.1582 3.54852 3.30323 2.89926 4.138C2.25 4.97277 2.25 5.93104 2.25 7.84763V9.21259C2.25 11.1292 2.25 12.0874 2.89926 12.9222C3.54852 13.757 4.26001 13.902 5.68298 14.1921C6.82221 14.4243 8.05146 14.5509 9.33333 14.5509Z" stroke="#787878" stroke-width="1.0625"/>
<path d="M12.1397 8.75158C12.0346 9.18069 11.4753 9.48889 10.3567 10.1054C9.14002 10.7757 8.5317 11.111 8.03899 10.9818C7.8721 10.9381 7.71839 10.8611 7.58933 10.7568C7.20825 10.4488 7.20825 9.80913 7.20825 8.52995C7.20825 7.25077 7.20825 6.61116 7.58933 6.30307C7.71839 6.19872 7.8721 6.12182 8.03899 6.07808C8.5317 5.94893 9.14002 6.28414 10.3567 6.95456C11.4753 7.57101 12.0346 7.8792 12.1397 8.30831C12.1755 8.45437 12.1755 8.60553 12.1397 8.75158Z" stroke="#787878" stroke-width="1.0625" stroke-linejoin="round"/>
</svg>
