<svg width="71" height="62" viewBox="0 0 71 62" fill="none" xmlns="http://www.w3.org/2000/svg">
<path d="M23.9924 7.60364C15.0685 7.60364 7.81055 14.8642 7.81055 23.7855C7.81055 32.7093 15.0711 39.9698 23.9924 39.9698C32.9187 39.9698 40.1792 32.7093 40.1792 23.7855C40.1792 14.8642 32.9187 7.60364 23.9924 7.60364ZM23.9924 36.0913C17.2081 36.0913 11.689 30.5747 11.689 23.7855C11.689 17.0013 17.2081 11.4821 23.9924 11.4821C30.7791 11.4821 36.3007 17.0013 36.3007 23.7855C36.2982 30.5722 30.7791 36.0913 23.9924 36.0913Z" fill="#333333"/>
<path d="M70.363 54.5181C70.1816 52.7792 69.3348 51.2091 67.9765 50.1053L45.6253 31.9402C46.5855 29.3948 47.1374 26.658 47.1374 23.785C47.1374 11.0256 36.7545 0.642578 23.9925 0.642578C11.233 0.642578 0.852539 11.023 0.852539 23.785C0.852539 36.547 11.233 46.93 23.9925 46.93C29.1235 46.93 33.8538 45.2314 37.6945 42.3937L59.7054 60.2842C60.8873 61.2418 62.3313 61.7534 63.8308 61.7534C64.0576 61.7534 64.2845 61.7384 64.5163 61.7157C66.2577 61.5367 67.8253 60.6874 68.9266 59.3316C70.0329 57.9707 70.5395 56.262 70.363 54.5181ZM4.73104 23.785C4.73104 13.1652 13.3726 4.52108 23.9925 4.52108C34.6149 4.52108 43.2589 13.1626 43.2589 23.785C43.2589 34.4074 34.6174 43.0515 23.9925 43.0515C13.3701 43.0515 4.73104 34.4074 4.73104 23.785ZM65.915 56.8845C65.4639 57.4389 64.8263 57.7843 64.1131 57.8599C63.4074 57.9304 62.7068 57.7238 62.1499 57.2727L40.6556 39.803C41.8955 38.5127 42.9767 37.0813 43.894 35.5364L65.5269 53.1195C66.0813 53.5706 66.4266 54.2132 66.4997 54.9239C66.5753 55.6295 66.3686 56.3276 65.915 56.8845Z" fill="#333333"/>
</svg>
