<svg width="26" height="24" viewBox="0 0 26 24" fill="none" xmlns="http://www.w3.org/2000/svg">
<path d="M6.33333 13.4286C5.59708 13.4286 5 14.0683 5 14.8571C5 15.646 5.59708 16.2857 6.33333 16.2857C7.06958 16.2857 7.66667 15.646 7.66667 14.8571C7.66667 14.0683 7.06958 13.4286 6.33333 13.4286ZM12.7771 9.09464L13.4538 6.92009C13.5021 6.76607 13.5863 6.63661 13.6588 6.49911C13.4617 6.37589 13.2446 6.28571 13 6.28571C12.2637 6.28571 11.6667 6.92545 11.6667 7.71429C11.6667 8.41875 12.1513 8.97723 12.7771 9.09464ZM8.33333 8.42857C7.59708 8.42857 7 9.0683 7 9.85714C7 10.646 7.59708 11.2857 8.33333 11.2857C9.06958 11.2857 9.66667 10.646 9.66667 9.85714C9.66667 9.0683 9.06958 8.42857 8.33333 8.42857ZM13 2C6.3725 2 1 7.75625 1 14.8571C1 17.2143 1.59375 19.4223 2.6275 21.3214C2.86125 21.7509 3.30667 22 3.77083 22H22.2292C22.6933 22 23.1388 21.7509 23.3725 21.3214C24.4063 19.4223 25 17.2143 25 14.8571C25 7.75625 19.6275 2 13 2ZM21.8446 19.8571H4.15542C3.39833 18.3228 3 16.6036 3 14.8571C3 8.94911 7.48583 4.14286 13 4.14286C18.5142 4.14286 23 8.94911 23 14.8571C23 16.6036 22.6017 18.3228 21.8446 19.8571ZM18.3333 14.8571C18.3333 15.646 18.9304 16.2857 19.6667 16.2857C20.4029 16.2857 21 15.646 21 14.8571C21 14.0683 20.4029 13.4286 19.6667 13.4286C18.9304 13.4286 18.3333 14.0683 18.3333 14.8571ZM15.9829 6.69777C15.4529 6.50893 14.8929 6.81473 14.7171 7.375L12.8279 13.4469C11.4371 13.5438 10.3333 14.7705 10.3333 16.2857C10.3333 16.8089 10.4742 17.2924 10.7033 17.7143H15.2971C15.5263 17.2924 15.6671 16.8089 15.6671 16.2857C15.6671 15.4174 15.2979 14.6491 14.7275 14.125L16.6167 8.05312C16.7904 7.49196 16.5067 6.88482 15.9829 6.69777ZM19 9.85714C19 9.15179 18.5142 8.59241 17.8867 8.47634C17.8838 8.48571 17.8838 8.49554 17.8808 8.50536L17.0683 11.1165C17.2504 11.2165 17.4479 11.2862 17.6667 11.2862C18.4029 11.2857 19 10.646 19 9.85714Z" stroke="#108AFF"/>
</svg>
