<svg width="26" height="26" viewBox="0 0 26 26" fill="none" xmlns="http://www.w3.org/2000/svg">
<path d="M3 22.4286L1 1H25L23 22.4286L13 25L3 22.4286Z" stroke="#108AFF" stroke-width="1.5"/>
<path d="M17.5 14.3881L17.9924 12.6418H19.414L18.7393 9.9928L19.5831 7L22 16H20.2177L19.8047 14.3881H17.5Z" fill="#108AFF"/>
<path d="M15.7865 16L18.625 7L16.7432 7.00001L14.8015 12.816L13.4207 7.00002H11.9743L10.4917 12.816L9.44617 10.1658L8.5 13.8923L9.46064 16H11.3126L12.6523 10.7843L13.9297 16H15.7865Z" fill="#108AFF"/>
<path d="M5.60096 12.9105H6.63982C6.95451 12.9105 7.23472 12.8604 7.48047 12.7602L7.74913 11.5795L8.5 8.2799C8.44279 8.15055 8.37747 8.02825 8.30405 7.91302C7.91852 7.30433 7.35446 7 6.61186 7H4V16H5.60096V12.9105ZM6.97605 9.07054C7.12663 9.28672 7.20192 9.57601 7.20192 9.93843C7.20192 10.3036 7.1357 10.5933 7.00327 10.8074C6.85809 11.0452 6.59077 11.1642 6.20132 11.1642H5.60096V8.74625H6.20573C6.5687 8.74625 6.82547 8.85435 6.97605 9.07054Z" fill="#108AFF"/>
</svg>
