<svg width="144" height="130" viewBox="0 0 144 130" fill="none" xmlns="http://www.w3.org/2000/svg">
<path d="M105.702 129.027C47.9166 129.027 0.907227 86.8848 0.907227 35.0864C0.907227 -16.712 47.9176 -58.8545 105.702 -58.8545C163.486 -58.8545 210.495 -16.7129 210.495 35.0864C210.495 86.8858 163.484 129.027 105.702 129.027ZM105.702 -53.0872C51.4647 -53.0872 7.34089 -13.5333 7.34089 35.0864C7.34089 83.7052 51.4647 123.259 105.702 123.259C159.937 123.259 204.062 83.7052 204.062 35.0864C204.062 -13.5333 159.937 -53.0872 105.702 -53.0872Z" fill="#F6C2D3" fill-opacity="0.3"/>
<path d="M105.702 108.528C60.5273 108.528 23.7764 75.5822 23.7764 35.0865C23.7764 -5.40913 60.5273 -38.3547 105.702 -38.3547C150.875 -38.3547 187.627 -5.40913 187.627 35.0865C187.627 75.5822 150.875 108.528 105.702 108.528ZM105.702 -32.5874C64.0743 -32.5874 30.209 -2.22947 30.209 35.0856C30.209 72.4006 64.0743 102.759 105.702 102.759C147.328 102.759 181.194 72.4006 181.194 35.0856C181.193 -2.22947 147.327 -32.5874 105.702 -32.5874Z" fill="#F6C2D3" fill-opacity="0.3"/>
<path d="M105.702 87.5606C73.4244 87.5606 47.1641 64.021 47.1641 35.0856C47.1641 6.15023 73.4234 -17.3894 105.702 -17.3894C137.98 -17.3894 164.238 6.15118 164.238 35.0856C164.238 64.02 137.979 87.5606 105.702 87.5606ZM105.702 -11.6211C76.9704 -11.6211 53.5977 9.33085 53.5977 35.0856C53.5977 60.8404 76.9715 81.7924 105.702 81.7924C134.432 81.7924 157.805 60.8404 157.805 35.0856C157.805 9.33085 134.431 -11.6211 105.702 -11.6211Z" fill="#F6C2D3" fill-opacity="0.3"/>
<path d="M105.702 67.9932C85.4605 67.9932 68.9932 53.2314 68.9932 35.0866C68.9932 16.9417 85.4605 2.17993 105.702 2.17993C125.943 2.17993 142.409 16.9417 142.409 35.0866C142.409 53.2314 125.942 67.9932 105.702 67.9932ZM105.702 7.94724C89.0085 7.94724 75.4268 20.1224 75.4268 35.0866C75.4268 50.0508 89.0085 62.2259 105.702 62.2259C122.395 62.2259 135.976 50.0508 135.976 35.0866C135.976 20.1224 122.395 7.94724 105.702 7.94724Z" fill="#F6C2D3" fill-opacity="0.3"/>
</svg>
