<?xml version="1.0" encoding="utf-8"?>
<!-- Generator: Adobe Illustrator 28.0.0, SVG Export Plug-In . SVG Version: 6.00 Build 0)  -->
<svg version="1.1" id="Layer_1" xmlns="http://www.w3.org/2000/svg" xmlns:xlink="http://www.w3.org/1999/xlink" x="0px" y="0px"
	 viewBox="0 0 903.4 1080" style="enable-background:new 0 0 903.4 1080;" xml:space="preserve">
<style type="text/css">
	.st0{fill:#FFFFFF;}
	.st1{fill:url(#SVGID_1_);}
	.st2{fill:#08203E;}
	.st3{fill:#557C93;}
	.st4{fill:url(#SVGID_00000128464107139451268960000008869516597671384220_);}
	.st5{fill:#43413F;}
	.st6{fill:#BCBEC0;}
	.st7{fill:url(#SVGID_00000134251809601414626300000001666427874352715183_);}
	.st8{fill:url(#SVGID_00000016070392656324509570000001205372864792108165_);}
	.st9{fill:url(#SVGID_00000031207381143690818960000005102378465155205538_);}
	.st10{fill:url(#SVGID_00000019637895157480140840000006687774662285257877_);}
	.st11{fill:url(#SVGID_00000140705384478737482680000001343028453182829484_);}
</style>
<linearGradient id="SVGID_1_" gradientUnits="userSpaceOnUse" x1="458.4074" y1="976.2166" x2="458.4074" y2="66.4905">
	<stop  offset="0" style="stop-color:#557C93"/>
	<stop  offset="1" style="stop-color:#08203E"/>
</linearGradient>
<path class="st1" d="M816.4,826.7v6.6v15.8v53.3c0,40.7-33,73.8-73.8,73.8h-69.1H667V826.7H816.4z M572.5,826.7v149.5h-24H305.3
	h-41.2h-89.9c-40.7,0-73.8-33-73.8-73.8V140.3c0-40.7,33-73.8,73.8-73.8h568.4c40.7,0,73.8,33,73.8,73.8v254.2v174.1v139.8v24H667
	V582.9h-94.4v149.5H423.1v94.3H572.5z M212.1,289.9h436.3v-84.5H212.1V289.9z M212.1,471.1h274.2v-84.5H212.1V471.1z M378,567.9
	H212.1v84.5H378V567.9z"/>
</svg>
