<svg width="145" height="115" viewBox="0 0 145 115" fill="none" xmlns="http://www.w3.org/2000/svg">
<path d="M39.7944 187.882C-17.9907 187.882 -65 145.739 -65 93.9409C-65 42.1425 -17.9896 0 39.7944 0C97.5783 0 144.588 42.1416 144.588 93.9409C144.588 145.74 97.5773 187.882 39.7944 187.882ZM39.7944 5.76731C-14.4426 5.76731 -58.5663 45.3212 -58.5663 93.9409C-58.5663 142.56 -14.4426 182.114 39.7944 182.114C94.0302 182.114 138.155 142.56 138.155 93.9409C138.155 45.3212 94.0302 5.76731 39.7944 5.76731Z" fill="#F6C2D3" fill-opacity="0.3"/>
<path d="M39.7944 167.382C-5.37992 167.382 -42.1309 134.437 -42.1309 93.941C-42.1309 53.4454 -5.37992 20.4998 39.7944 20.4998C84.9676 20.4998 121.72 53.4454 121.72 93.941C121.72 134.437 84.9676 167.382 39.7944 167.382ZM39.7944 26.2671C-1.83289 26.2671 -35.6982 56.625 -35.6982 93.9401C-35.6982 131.255 -1.83289 161.613 39.7944 161.613C81.4206 161.613 115.287 131.255 115.287 93.9401C115.286 56.625 81.4195 26.2671 39.7944 26.2671Z" fill="#F6C2D3" fill-opacity="0.3"/>
<path d="M39.7945 146.415C7.5172 146.415 -18.7432 122.875 -18.7432 93.9401C-18.7432 65.0047 7.51614 41.4651 39.7945 41.4651C72.073 41.4651 98.3311 65.0057 98.3311 93.9401C98.3311 122.875 72.0719 146.415 39.7945 146.415ZM39.7945 47.2333C11.0632 47.2333 -12.3095 68.1853 -12.3095 93.9401C-12.3095 119.695 11.0642 140.647 39.7945 140.647C68.5249 140.647 91.8975 119.695 91.8975 93.9401C91.8975 68.1853 68.5238 47.2333 39.7945 47.2333Z" fill="#F6C2D3" fill-opacity="0.3"/>
<path d="M39.7944 126.848C19.5532 126.848 3.08594 112.086 3.08594 93.9411C3.08594 75.7962 19.5532 61.0344 39.7944 61.0344C60.0356 61.0344 76.5019 75.7962 76.5019 93.9411C76.5019 112.086 60.0345 126.848 39.7944 126.848ZM39.7944 66.8017C23.1013 66.8017 9.51954 78.9769 9.51954 93.9411C9.51954 108.905 23.1013 121.08 39.7944 121.08C56.4875 121.08 70.0692 108.905 70.0692 93.9411C70.0692 78.9769 56.4875 66.8017 39.7944 66.8017Z" fill="#F6C2D3" fill-opacity="0.3"/>
</svg>
