<svg width="48" height="48" viewBox="0 0 48 48" fill="none" xmlns="http://www.w3.org/2000/svg">
<rect width="48" height="48" fill="#00BCD4"/>
<g filter="url(#filter0_d_726_66)">
<path d="M26.6789 23.9741C26.6789 22.4293 25.4796 21.1769 24 21.1769C22.5206 21.1769 21.3211 22.4293 21.3211 23.9741C21.3211 25.519 22.5206 26.7714 24 26.7714C25.4796 26.7714 26.6789 25.519 26.6789 23.9741Z" fill="#C7F3FF"/>
<path fill-rule="evenodd" clip-rule="evenodd" d="M32.7004 18.7809C33.2661 16.3805 33.9772 11.9293 31.4704 10.4202C28.9753 8.91764 25.7284 11.7968 24.0139 13.525C22.3044 11.814 18.9663 8.94716 16.4616 10.4611C13.9675 11.9686 14.7366 16.3461 15.3149 18.7615C12.9883 19.4515 9 20.9377 9 23.9741C9 27.0018 12.9842 28.6187 15.297 29.308C14.7166 31.7368 13.986 36.0518 16.4833 37.5559C18.9973 39.0696 22.325 36.271 24.0554 34.5239C25.7809 36.2623 28.9966 39.0791 31.4922 37.5708C33.9956 36.0576 33.3436 31.666 32.7653 29.2365C35.0073 28.5457 39 26.964 39 23.9741C39 20.9668 34.9903 19.4686 32.7004 18.7809ZM32.4162 27.949C32.0365 26.694 31.524 25.3594 30.8971 23.9807C31.4955 22.6346 31.9881 21.3172 32.3572 20.0702C34.0359 20.5784 37.7185 21.7399 37.7185 23.9741C37.7185 26.2292 34.1846 27.4017 32.4162 27.949ZM30.85 36.4126C28.988 37.538 26.2221 34.8442 24.9478 33.564C25.7932 32.5986 26.638 31.4762 27.4625 30.2299C28.9129 30.0956 30.283 29.8759 31.5256 29.576C31.9326 31.2944 32.7202 35.2821 30.85 36.4126ZM17.1236 36.3966C15.2614 35.2754 16.1126 31.425 16.5396 29.6359C17.7683 29.9197 19.1286 30.1239 20.5824 30.247C21.4123 31.4665 22.2816 32.5875 23.1576 33.5692C22.0753 34.6624 18.9945 37.5229 17.1236 36.3966ZM10.2815 23.9741C10.2815 21.7104 13.9421 20.5574 15.659 20.0505C16.0345 21.3255 16.527 22.6586 17.1212 24.0066C16.5193 25.3748 16.0198 26.7291 15.6409 28.019C14.0037 27.5298 10.2815 26.2391 10.2815 23.9741ZM17.1037 11.6192C18.9735 10.4891 21.8747 13.2414 23.1159 14.4801C22.2444 15.4574 21.3831 16.5699 20.5603 17.7823C19.1494 17.9189 17.7987 18.1382 16.5571 18.432C16.0913 16.4838 15.2359 12.7481 17.1037 11.6192ZM28.3793 19.2369C29.3365 19.363 30.2536 19.5308 31.1147 19.7361C30.8562 20.6013 30.534 21.506 30.1545 22.4334C29.6044 21.3435 29.0139 20.2756 28.3793 19.2369ZM24.0143 15.4364C24.6054 16.105 25.1974 16.8517 25.7798 17.6617C24.5985 17.6035 23.4153 17.6032 22.234 17.6609C22.8169 16.8584 23.414 16.1128 24.0143 15.4364ZM17.8565 22.4325C17.4833 21.5082 17.164 20.5995 16.9032 19.7219C17.7592 19.5219 18.672 19.3584 19.623 19.2344C18.9866 20.2708 18.3971 21.3384 17.8565 22.4325ZM19.6503 28.8092C18.6679 28.6947 17.7413 28.5396 16.8856 28.3451C17.1504 27.452 17.4768 26.5238 17.858 25.5797C18.406 26.6851 19.0045 27.763 19.6503 28.8092ZM24.0498 32.6062C23.4424 31.9218 22.8365 31.1649 22.2448 30.3507C23.4328 30.3994 24.6231 30.3995 25.811 30.3442C25.2268 31.1732 24.6369 31.9312 24.0498 32.6062ZM30.1667 25.5316C30.5677 26.4859 30.9057 27.4092 31.1742 28.2872C30.3043 28.4944 29.3652 28.6613 28.3757 28.7853C29.015 27.7269 29.6149 26.6423 30.1667 25.5316ZM26.7473 28.9475C24.9301 29.083 23.1016 29.0816 21.2838 28.9586C20.2509 27.3831 19.3314 25.7263 18.5377 24.0062C19.3276 22.2897 20.2404 20.6362 21.2684 19.0632C23.0875 18.9196 24.9178 18.9192 26.7369 19.064C27.7561 20.6369 28.6675 22.2862 29.4757 23.9872C28.6771 25.7029 27.7595 27.3598 26.7473 28.9475ZM30.8303 11.5794C32.7006 12.7058 31.8681 16.7063 31.4595 18.4458C30.2149 18.146 28.8633 17.9228 27.4483 17.7841C26.6239 16.5585 25.7698 15.444 24.9124 14.4794C26.1695 13.214 28.9781 10.464 30.8303 11.5794Z" fill="#C7F3FF"/>
</g>
<defs>
<filter id="filter0_d_726_66" x="5" y="10" width="38" height="36" filterUnits="userSpaceOnUse" color-interpolation-filters="sRGB">
<feFlood flood-opacity="0" result="BackgroundImageFix"/>
<feColorMatrix in="SourceAlpha" type="matrix" values="0 0 0 0 0 0 0 0 0 0 0 0 0 0 0 0 0 0 127 0" result="hardAlpha"/>
<feOffset dy="4"/>
<feGaussianBlur stdDeviation="2"/>
<feComposite in2="hardAlpha" operator="out"/>
<feColorMatrix type="matrix" values="0 0 0 0 0 0 0 0 0 0 0 0 0 0 0 0 0 0 0.25 0"/>
<feBlend mode="normal" in2="BackgroundImageFix" result="effect1_dropShadow_726_66"/>
<feBlend mode="normal" in="SourceGraphic" in2="effect1_dropShadow_726_66" result="shape"/>
</filter>
</defs>
</svg>
