<svg width="48" height="48" viewBox="0 0 48 48" fill="none" xmlns="http://www.w3.org/2000/svg">
<rect width="48" height="48" fill="#DEDEDE"/>
<g clip-path="url(#clip0_776_212)">
<g filter="url(#filter0_d_776_212)">
<path d="M23.5 24C23.5 21.9289 25.2349 20.25 27.375 20.25C29.5151 20.25 31.25 21.9289 31.25 24C31.25 26.0711 29.5151 27.75 27.375 27.75C25.2349 27.75 23.5 26.0711 23.5 24Z" fill="#1ABCFE"/>
</g>
<g filter="url(#filter1_d_776_212)">
<path d="M15.75 31.5C15.75 29.4289 17.4849 27.75 19.625 27.75H23.5V31.5C23.5 33.571 21.7651 35.25 19.625 35.25C17.4849 35.25 15.75 33.571 15.75 31.5Z" fill="#0ACF83"/>
</g>
<g filter="url(#filter2_d_776_212)">
<path d="M23.5 12.75V20.25H27.375C29.5151 20.25 31.25 18.5711 31.25 16.5C31.25 14.4289 29.5151 12.75 27.375 12.75H23.5Z" fill="#FF7262"/>
</g>
<g filter="url(#filter3_d_776_212)">
<path d="M15.75 16.5C15.75 18.5711 17.4849 20.25 19.625 20.25H23.5V12.75H19.625C17.4849 12.75 15.75 14.4289 15.75 16.5Z" fill="#F24E1E"/>
</g>
<g filter="url(#filter4_d_776_212)">
<path d="M15.75 24C15.75 26.0711 17.4849 27.75 19.625 27.75H23.5V20.25H19.625C17.4849 20.25 15.75 21.9289 15.75 24Z" fill="#A259FF"/>
</g>
</g>
<defs>
<filter id="filter0_d_776_212" x="19.5" y="20.25" width="15.75" height="15.5" filterUnits="userSpaceOnUse" color-interpolation-filters="sRGB">
<feFlood flood-opacity="0" result="BackgroundImageFix"/>
<feColorMatrix in="SourceAlpha" type="matrix" values="0 0 0 0 0 0 0 0 0 0 0 0 0 0 0 0 0 0 127 0" result="hardAlpha"/>
<feOffset dy="4"/>
<feGaussianBlur stdDeviation="2"/>
<feComposite in2="hardAlpha" operator="out"/>
<feColorMatrix type="matrix" values="0 0 0 0 0 0 0 0 0 0 0 0 0 0 0 0 0 0 0.25 0"/>
<feBlend mode="normal" in2="BackgroundImageFix" result="effect1_dropShadow_776_212"/>
<feBlend mode="normal" in="SourceGraphic" in2="effect1_dropShadow_776_212" result="shape"/>
</filter>
<filter id="filter1_d_776_212" x="11.75" y="27.75" width="15.75" height="15.5" filterUnits="userSpaceOnUse" color-interpolation-filters="sRGB">
<feFlood flood-opacity="0" result="BackgroundImageFix"/>
<feColorMatrix in="SourceAlpha" type="matrix" values="0 0 0 0 0 0 0 0 0 0 0 0 0 0 0 0 0 0 127 0" result="hardAlpha"/>
<feOffset dy="4"/>
<feGaussianBlur stdDeviation="2"/>
<feComposite in2="hardAlpha" operator="out"/>
<feColorMatrix type="matrix" values="0 0 0 0 0 0 0 0 0 0 0 0 0 0 0 0 0 0 0.25 0"/>
<feBlend mode="normal" in2="BackgroundImageFix" result="effect1_dropShadow_776_212"/>
<feBlend mode="normal" in="SourceGraphic" in2="effect1_dropShadow_776_212" result="shape"/>
</filter>
<filter id="filter2_d_776_212" x="19.5" y="12.75" width="15.75" height="15.5" filterUnits="userSpaceOnUse" color-interpolation-filters="sRGB">
<feFlood flood-opacity="0" result="BackgroundImageFix"/>
<feColorMatrix in="SourceAlpha" type="matrix" values="0 0 0 0 0 0 0 0 0 0 0 0 0 0 0 0 0 0 127 0" result="hardAlpha"/>
<feOffset dy="4"/>
<feGaussianBlur stdDeviation="2"/>
<feComposite in2="hardAlpha" operator="out"/>
<feColorMatrix type="matrix" values="0 0 0 0 0 0 0 0 0 0 0 0 0 0 0 0 0 0 0.25 0"/>
<feBlend mode="normal" in2="BackgroundImageFix" result="effect1_dropShadow_776_212"/>
<feBlend mode="normal" in="SourceGraphic" in2="effect1_dropShadow_776_212" result="shape"/>
</filter>
<filter id="filter3_d_776_212" x="11.75" y="12.75" width="15.75" height="15.5" filterUnits="userSpaceOnUse" color-interpolation-filters="sRGB">
<feFlood flood-opacity="0" result="BackgroundImageFix"/>
<feColorMatrix in="SourceAlpha" type="matrix" values="0 0 0 0 0 0 0 0 0 0 0 0 0 0 0 0 0 0 127 0" result="hardAlpha"/>
<feOffset dy="4"/>
<feGaussianBlur stdDeviation="2"/>
<feComposite in2="hardAlpha" operator="out"/>
<feColorMatrix type="matrix" values="0 0 0 0 0 0 0 0 0 0 0 0 0 0 0 0 0 0 0.25 0"/>
<feBlend mode="normal" in2="BackgroundImageFix" result="effect1_dropShadow_776_212"/>
<feBlend mode="normal" in="SourceGraphic" in2="effect1_dropShadow_776_212" result="shape"/>
</filter>
<filter id="filter4_d_776_212" x="11.75" y="20.25" width="15.75" height="15.5" filterUnits="userSpaceOnUse" color-interpolation-filters="sRGB">
<feFlood flood-opacity="0" result="BackgroundImageFix"/>
<feColorMatrix in="SourceAlpha" type="matrix" values="0 0 0 0 0 0 0 0 0 0 0 0 0 0 0 0 0 0 127 0" result="hardAlpha"/>
<feOffset dy="4"/>
<feGaussianBlur stdDeviation="2"/>
<feComposite in2="hardAlpha" operator="out"/>
<feColorMatrix type="matrix" values="0 0 0 0 0 0 0 0 0 0 0 0 0 0 0 0 0 0 0.25 0"/>
<feBlend mode="normal" in2="BackgroundImageFix" result="effect1_dropShadow_776_212"/>
<feBlend mode="normal" in="SourceGraphic" in2="effect1_dropShadow_776_212" result="shape"/>
</filter>
<clipPath id="clip0_776_212">
<rect width="31" height="30" fill="white" transform="translate(8 9)"/>
</clipPath>
</defs>
</svg>
