<svg width="48" height="48" viewBox="0 0 48 48" fill="none" xmlns="http://www.w3.org/2000/svg">
<rect width="48" height="48" fill="#C8FAFF"/>
<g filter="url(#filter0_d_740_51)">
<path d="M15.75 20.6667C16.7833 16.2222 19.3667 14 23.5 14C29.7 14 30.475 19 33.575 19.8333C35.6417 20.3889 37.45 19.5556 39 17.3333C37.9667 21.7778 35.3833 24 31.25 24C25.05 24 24.275 19 21.175 18.1667C19.1083 17.6111 17.3 18.4444 15.75 20.6667ZM8 30.6667C9.03333 26.2222 11.6167 24 15.75 24C21.95 24 22.725 29 25.825 29.8333C27.8917 30.3889 29.7 29.5556 31.25 27.3333C30.2167 31.7778 27.6333 34 23.5 34C17.3 34 16.525 29 13.425 28.1667C11.3583 27.6111 9.55 28.4444 8 30.6667Z" fill="#44A8B3"/>
</g>
<defs>
<filter id="filter0_d_740_51" x="4" y="14" width="39" height="28" filterUnits="userSpaceOnUse" color-interpolation-filters="sRGB">
<feFlood flood-opacity="0" result="BackgroundImageFix"/>
<feColorMatrix in="SourceAlpha" type="matrix" values="0 0 0 0 0 0 0 0 0 0 0 0 0 0 0 0 0 0 127 0" result="hardAlpha"/>
<feOffset dy="4"/>
<feGaussianBlur stdDeviation="2"/>
<feComposite in2="hardAlpha" operator="out"/>
<feColorMatrix type="matrix" values="0 0 0 0 0 0 0 0 0 0 0 0 0 0 0 0 0 0 0.25 0"/>
<feBlend mode="normal" in2="BackgroundImageFix" result="effect1_dropShadow_740_51"/>
<feBlend mode="normal" in="SourceGraphic" in2="effect1_dropShadow_740_51" result="shape"/>
</filter>
</defs>
</svg>
