<svg width="48" height="48" viewBox="0 0 48 48" fill="none" xmlns="http://www.w3.org/2000/svg">
<rect width="48" height="48" fill="#6AAB20"/>
<g filter="url(#filter0_d_726_60)">
<path fill-rule="evenodd" clip-rule="evenodd" d="M27.6002 15.6272H26.4003V14.5023H27.6002M21.6005 15.6272H20.4006V14.5023H21.6005M28.2362 12.4326L29.8081 10.959C30.0361 10.7452 30.0361 10.3853 29.8081 10.1603C29.5681 9.94657 29.1842 9.94657 28.9562 10.1603L27.1803 11.8251C26.2204 11.3864 25.1403 11.1276 24.0004 11.1276C22.8484 11.1276 21.7686 11.3864 20.8086 11.8363L19.0207 10.1603C18.7927 9.94657 18.4087 9.94657 18.1807 10.1603C17.9408 10.3853 17.9408 10.7452 18.1807 10.959L19.7527 12.4326C17.9648 13.67 16.8009 15.6272 16.8009 17.8769H31.2003C31.2003 15.6272 30 13.6586 28.2362 12.4326ZM34.2001 19.002C33.7228 19.002 33.265 19.1797 32.9274 19.4962C32.5899 19.8126 32.4003 20.2418 32.4003 20.6893V28.5635C32.4003 29.011 32.5899 29.4401 32.9274 29.7565C33.265 30.073 33.7228 30.2507 34.2001 30.2507C34.6775 30.2507 35.1353 30.073 35.4728 29.7565C35.8104 29.4401 36 29.011 36 28.5635V20.6893C36 20.2418 35.8104 19.8126 35.4728 19.4962C35.1353 19.1797 34.6775 19.002 34.2001 19.002ZM13.7999 19.002C13.3225 19.002 12.8647 19.1797 12.5272 19.4962C12.1896 19.8126 12 20.2418 12 20.6893V28.5635C12 29.011 12.1896 29.4401 12.5272 29.7565C12.8647 30.073 13.3225 30.2507 13.7999 30.2507C14.2772 30.2507 14.735 30.073 15.0726 29.7565C15.4101 29.4401 15.5997 29.011 15.5997 28.5635V20.6893C15.5997 20.2418 15.4101 19.8126 15.0726 19.4962C14.735 19.1797 14.2772 19.002 13.7999 19.002ZM16.7997 30.2507C16.7997 30.3985 16.8308 30.5447 16.8911 30.6812C16.9514 30.8177 17.0398 30.9417 17.1512 31.0461C17.2626 31.1506 17.3949 31.2335 17.5405 31.29C17.6861 31.3465 17.8421 31.3756 17.9997 31.3756H19.1996V35.3127C19.1996 35.7602 19.3892 36.1894 19.7268 36.5058C20.0643 36.8222 20.5221 37 20.9995 37C21.4768 37 21.9346 36.8222 22.2722 36.5058C22.6097 36.1894 22.7993 35.7602 22.7993 35.3127V31.3756H25.1991V35.3127C25.1991 35.7602 25.3888 36.1894 25.7263 36.5058C26.0639 36.8222 26.5217 37 26.999 37C27.4764 37 27.9342 36.8222 28.2717 36.5058C28.6092 36.1894 28.7989 35.7602 28.7989 35.3127V31.3756H29.9988C30.1564 31.3756 30.3124 31.3465 30.458 31.29C30.6036 31.2335 30.7359 31.1506 30.8473 31.0461C30.9587 30.9417 31.0471 30.8177 31.1074 30.6812C31.1677 30.5447 31.1987 30.3985 31.1987 30.2507V19.002H16.7994L16.7997 30.2507Z" fill="#DCEDC8"/>
</g>
<defs>
<filter id="filter0_d_726_60" x="8" y="10" width="32" height="35" filterUnits="userSpaceOnUse" color-interpolation-filters="sRGB">
<feFlood flood-opacity="0" result="BackgroundImageFix"/>
<feColorMatrix in="SourceAlpha" type="matrix" values="0 0 0 0 0 0 0 0 0 0 0 0 0 0 0 0 0 0 127 0" result="hardAlpha"/>
<feOffset dy="4"/>
<feGaussianBlur stdDeviation="2"/>
<feComposite in2="hardAlpha" operator="out"/>
<feColorMatrix type="matrix" values="0 0 0 0 0 0 0 0 0 0 0 0 0 0 0 0 0 0 0.25 0"/>
<feBlend mode="normal" in2="BackgroundImageFix" result="effect1_dropShadow_726_60"/>
<feBlend mode="normal" in="SourceGraphic" in2="effect1_dropShadow_726_60" result="shape"/>
</filter>
</defs>
</svg>
