<svg width="48" height="48" viewBox="0 0 48 48" fill="none" xmlns="http://www.w3.org/2000/svg">
<rect width="48" height="48" fill="#8892BF"/>
<g filter="url(#filter0_d_726_72)">
<path d="M21.1588 15H23.6788L22.9666 18.7863H25.2311C26.4728 18.8129 27.398 19.0904 28.0068 19.6189C28.6277 20.1474 28.8103 21.1521 28.5546 22.6321L27.3311 29.2334H24.7745L25.9433 22.9295C26.0649 22.2686 26.0284 21.7995 25.8337 21.522C25.639 21.2445 25.219 21.1057 24.5736 21.1057L22.5466 21.0859L21.0492 29.2334H18.5291L21.1588 15Z" fill="white"/>
<path fill-rule="evenodd" clip-rule="evenodd" d="M9.61138 18.7864H14.5054C15.9419 18.7995 16.9828 19.2491 17.6281 20.1344C18.2735 21.0197 18.4864 22.229 18.2673 23.7622C18.1822 24.4627 17.9934 25.1498 17.7012 25.8238C17.421 26.4978 17.0317 27.1056 16.5324 27.6476C15.9236 28.3347 15.2724 28.7708 14.5785 28.956C13.8845 29.1411 13.1661 29.2335 12.4236 29.2335H10.2323L9.53833 33H7L9.61138 18.7864ZM10.6523 26.9934L11.7443 21.0661H12.1132C12.2472 21.0661 12.3871 21.0594 12.5332 21.0463C13.5073 21.0332 14.3166 21.1323 14.962 21.3437C15.6194 21.555 15.8385 22.3547 15.6194 23.7423C15.3517 25.3944 14.8279 26.3591 14.0489 26.6366C13.2699 26.901 12.2958 27.0263 11.1271 27.0132H10.8714C10.7984 27.0132 10.7253 27.0065 10.6523 26.9934Z" fill="white"/>
<path fill-rule="evenodd" clip-rule="evenodd" d="M36.1548 18.7864H31.2608L28.6494 33H31.1877L31.8817 29.2335H34.073C34.8155 29.2335 35.5339 29.1411 36.2279 28.956C36.9218 28.7708 37.573 28.3347 38.1818 27.6476C38.6811 27.1056 39.0704 26.4978 39.3505 25.8238C39.6427 25.1498 39.8315 24.4627 39.9167 23.7622C40.1358 22.229 39.9229 21.0197 39.2775 20.1344C38.6322 19.2491 37.5913 18.7995 36.1548 18.7864ZM33.3937 21.0661L32.3017 26.9934C32.3747 27.0065 32.4478 27.0132 32.5208 27.0132H32.7765C33.9452 27.0263 34.9192 26.901 35.6983 26.6366C36.4773 26.3591 37.001 25.3944 37.2688 23.7423C37.4879 22.3547 37.2688 21.555 36.6113 21.3437C35.966 21.1323 35.1566 21.0332 34.1826 21.0463C34.0365 21.0594 33.8966 21.0661 33.7626 21.0661H33.3937Z" fill="white"/>
</g>
<defs>
<filter id="filter0_d_726_72" x="3" y="15" width="41" height="26" filterUnits="userSpaceOnUse" color-interpolation-filters="sRGB">
<feFlood flood-opacity="0" result="BackgroundImageFix"/>
<feColorMatrix in="SourceAlpha" type="matrix" values="0 0 0 0 0 0 0 0 0 0 0 0 0 0 0 0 0 0 127 0" result="hardAlpha"/>
<feOffset dy="4"/>
<feGaussianBlur stdDeviation="2"/>
<feComposite in2="hardAlpha" operator="out"/>
<feColorMatrix type="matrix" values="0 0 0 0 0 0 0 0 0 0 0 0 0 0 0 0 0 0 0.25 0"/>
<feBlend mode="normal" in2="BackgroundImageFix" result="effect1_dropShadow_726_72"/>
<feBlend mode="normal" in="SourceGraphic" in2="effect1_dropShadow_726_72" result="shape"/>
</filter>
</defs>
</svg>
