<svg width="48" height="48" viewBox="0 0 48 48" fill="none" xmlns="http://www.w3.org/2000/svg">
<rect width="48" height="48" fill="#DFEEFF"/>
<g filter="url(#filter0_d_740_107)">
<path d="M20.5512 11.1335C13.5449 8.75421 9.53787 10.9196 9.82248 17.2914C9.85298 17.9038 10.0565 19.1742 10.4083 20.7511C10.7602 22.3278 11.2552 24.1792 11.8638 25.8416C12.4725 27.5039 13.1752 28.9698 14.0517 29.8251C14.4899 30.2528 15.0096 30.5414 15.5804 30.517C16.1512 30.4927 16.6941 30.1574 17.1824 29.5681C18.3472 28.1612 19.3023 27.1464 19.4892 26.9488C19.9926 27.2207 20.484 27.3919 21.1808 27.3994C20.578 28.1855 20.482 28.4419 19.4839 28.589C18.3844 28.7512 17.3411 29.1579 17.899 30.1418C18.2997 30.8485 21.2914 31.5792 23.0227 29.924C23.0545 34.8577 22.8966 38.892 27.3251 38.1676C30.9257 37.5787 30.712 35.002 31.3712 29.5879C34.6995 30.2753 38.0647 28.0172 36.9277 26.9487C36.3461 26.3561 34.363 27.576 32.8635 26.8102C35.2353 23.5799 38.1392 15.442 36.47 12.8436C34.0954 9.8748 30.2426 9.12407 26.2628 10.4021C23.7254 9.82131 21.9262 10.2013 20.5512 11.1335ZM27.6724 10.8862C32.133 9.94074 36.417 12.1037 36.1765 15.1861C35.8564 19.2866 34.3514 22.7717 32.3775 26.0194C32.3293 25.96 32.2809 25.9034 32.231 25.8415C33.4188 23.6375 32.7029 22.1862 32.6704 20.3161C32.6546 19.4062 33.0617 17.4492 32.9244 17.0529C32.197 14.9541 31.2594 12.645 27.6724 10.8862ZM24.1482 10.9753C28.4147 11.1194 30.7935 13.8074 32.0024 16.8466C28.9519 16.5604 28.0544 18.0742 28.6246 20.3655C29.0293 21.7901 29.6538 23.1244 30.3822 24.3291C30.8015 24.9912 30.6862 25.2403 31.8377 26.7113C30.8083 27.0048 30.5898 27.7609 30.6017 28.7177C30.5486 29.4279 30.0956 33.2633 29.8694 34.5791C29.5285 36.6841 28.4605 37.0742 27.1506 37.3468C23.7441 37.8777 23.8755 35.4414 23.8823 28.3523C23.8116 27.3459 22.9473 26.585 22.0518 26.7708C22.5202 24.6375 24.2099 23.1536 23.1686 18.7547C22.6047 16.523 20.3832 16.5997 18.2987 17.707C18.6825 13.5519 20.4917 10.9451 24.1482 10.9753ZM17.3375 22.5204C17.117 24.1041 17.7355 25.573 18.7839 26.4742C18.2347 27.1182 17.3289 27.9919 16.9327 28.5575C15.368 30.7908 14.3595 29.6288 12.6509 25.5449C10.8558 19.4456 9.50471 15.3268 11.946 12.3988C13.8493 10.5454 16.6832 10.8266 19.8 11.7562C19.0184 12.5242 18.4943 13.4708 18.1431 14.4053C16.9187 17.9879 17.7356 19.752 17.3375 22.5204ZM31.7004 25.0705C30.8406 23.4716 29.683 21.2944 29.4393 20.1679C29.0117 18.3534 29.4845 17.3924 32.1123 17.7067C32.0967 18.5351 31.8717 19.216 31.8377 20.2865C31.8318 21.8503 32.4149 23.8179 31.7004 25.0705ZM21.2282 26.5531C19.4106 26.5502 17.8636 24.7786 18.1615 22.6389C18.343 21.3995 18.3352 20.092 18.2439 18.7543C19.5818 17.7823 22.0527 17.1189 22.3541 18.9324C23.3216 23.3635 21.9325 23.8395 21.2282 26.5531ZM31.3341 18.28C31.2835 17.8591 29.8738 18.0568 29.9244 18.4777C30.0442 18.924 30.899 19.2221 31.3186 18.3934C31.3333 18.3644 31.337 18.3105 31.3341 18.28ZM21.8687 18.9622C22.42 18.3123 20.5134 17.9698 20.4133 18.557C20.3532 18.8964 21.1812 19.7148 21.8687 18.9622ZM36.0574 27.6801C34.5608 29.0602 32.1433 29.0457 31.4439 28.698C31.451 28.0747 31.4288 27.6132 32.3227 27.4528C33.0025 27.9718 34.2002 28.0723 36.0574 27.6801ZM18.674 29.6965C18.9808 29.4856 20.0159 29.3846 20.657 29.0818C21.1712 28.8389 21.4784 28.3319 21.9659 27.7766C22.4267 27.1637 23.3119 28.042 22.9581 28.7278C21.7188 30.5168 19.5017 30.1778 18.674 29.6965ZM9.61422 20.9586C7.10017 10.8679 12.6177 7.72481 20.4456 10.2602C22.0048 9.33431 23.9614 9.08538 26.3293 9.53708C30.5135 8.2957 34.8285 9.16215 37.2911 12.5977C38.6404 14.9976 37.31 21.0183 34.2415 26.2483C36.3378 26.1467 36.4246 25.5613 37.4542 26.3078C39.4685 28.3429 35.5152 30.9119 31.9927 30.5673C31.9684 30.6935 31.9482 30.835 31.9284 30.9933C31.8498 33.9315 31.4454 35.7423 30.5607 37.0063C29.6665 38.2839 28.3236 38.6906 27.2654 38.9181C22.9612 39.5975 22.3661 35.9581 22.3455 31.3697C20.4754 32.238 17.9854 31.6399 17.2787 30.6961C15.7818 31.8729 14.4428 31.3497 13.4878 30.4584C11.7283 28.6525 10.7001 25.4122 9.61422 20.9586Z" fill="#0DA8E8"/>
</g>
<defs>
<filter id="filter0_d_740_107" x="5" y="9" width="37" height="38" filterUnits="userSpaceOnUse" color-interpolation-filters="sRGB">
<feFlood flood-opacity="0" result="BackgroundImageFix"/>
<feColorMatrix in="SourceAlpha" type="matrix" values="0 0 0 0 0 0 0 0 0 0 0 0 0 0 0 0 0 0 127 0" result="hardAlpha"/>
<feOffset dy="4"/>
<feGaussianBlur stdDeviation="2"/>
<feComposite in2="hardAlpha" operator="out"/>
<feColorMatrix type="matrix" values="0 0 0 0 0 0 0 0 0 0 0 0 0 0 0 0 0 0 0.25 0"/>
<feBlend mode="normal" in2="BackgroundImageFix" result="effect1_dropShadow_740_107"/>
<feBlend mode="normal" in="SourceGraphic" in2="effect1_dropShadow_740_107" result="shape"/>
</filter>
</defs>
</svg>
