<svg width="48" height="48" viewBox="0 0 48 48" fill="none" xmlns="http://www.w3.org/2000/svg">
<g clip-path="url(#clip0_740_112)">
<rect width="48" height="48" fill="#DFFFF8"/>
<g filter="url(#filter0_d_740_112)">
<path d="M24.0258 7.48105C19.5001 10.9277 15.2981 17.312 13.9914 22.1883C14.6166 23.0738 15.2456 24.7051 15.5126 25.6777C15.2378 24.8435 14.4898 23.9414 13.6558 22.8854L12.8495 24.6971C13.8881 26.0597 14.5196 28.396 14.5196 28.396C14.2405 27.5441 13.4798 26.6448 12.5457 25.4596C12.079 26.6983 11.8924 27.5336 12.0612 27.7374C13.1449 29.3286 13.9227 32.644 14.047 33.6714C13.9122 36.7086 14.2392 39.869 15.2405 42L15.5721 41.8703C11.7484 31.9951 20.4034 14.333 31.7825 7.63499C25.4354 12.202 17.7307 24.7103 15.8283 33.2851C17.2601 30.1464 21.8851 28.7965 21.8851 28.7965C21.8851 28.7965 24.1549 26.7881 26.806 23.9188C24.0808 24.3478 22.001 24.7352 20.0998 25.4083C20.0998 25.4083 24.2741 23.5838 27.8545 22.7571C32.7794 17.1895 38.1451 9.27848 32.7417 5.8176C30.212 4.13271 26.8946 5.23111 24.0258 7.48105Z" fill="#26A2C1"/>
</g>
</g>
<defs>
<filter id="filter0_d_740_112" x="8" y="5" width="31" height="45" filterUnits="userSpaceOnUse" color-interpolation-filters="sRGB">
<feFlood flood-opacity="0" result="BackgroundImageFix"/>
<feColorMatrix in="SourceAlpha" type="matrix" values="0 0 0 0 0 0 0 0 0 0 0 0 0 0 0 0 0 0 127 0" result="hardAlpha"/>
<feOffset dy="4"/>
<feGaussianBlur stdDeviation="2"/>
<feComposite in2="hardAlpha" operator="out"/>
<feColorMatrix type="matrix" values="0 0 0 0 0 0 0 0 0 0 0 0 0 0 0 0 0 0 0.25 0"/>
<feBlend mode="normal" in2="BackgroundImageFix" result="effect1_dropShadow_740_112"/>
<feBlend mode="normal" in="SourceGraphic" in2="effect1_dropShadow_740_112" result="shape"/>
</filter>
<clipPath id="clip0_740_112">
<rect width="48" height="48" fill="white"/>
</clipPath>
</defs>
</svg>
