<svg width="48" height="48" viewBox="0 0 48 48" fill="none" xmlns="http://www.w3.org/2000/svg">
<rect width="48" height="48" fill="#FFC192"/>
<g filter="url(#filter0_d_726_70)">
<path d="M29.8711 35.1332C26.9241 37.1836 22.872 37.3943 18.7953 35.2899C15.4945 33.5985 12.7557 30.6377 11 27.2549C11.8427 28.1006 12.8259 28.7775 13.8793 29.3692C18.0894 31.7458 22.2985 31.5831 25.2607 29.3753C21.047 25.4844 17.4609 20.4032 14.7924 16.2591C14.2303 15.5824 13.809 14.7365 13.3876 13.9753C16.6181 17.5278 21.7449 22.0103 23.5705 23.2797C19.7085 18.3735 16.2671 12.2839 16.4072 12.4527C22.5172 19.896 28.206 24.1254 28.206 24.1254C28.3942 24.2531 28.5394 24.3596 28.6562 24.4547C28.7794 24.0775 28.8874 23.6858 28.9783 23.2797C29.9615 18.9659 28.8381 14.0597 26.3798 10C32.068 14.1445 35.4394 21.9259 34.0344 28.4391C33.9977 28.6148 33.958 28.7882 33.915 28.9586C36.7238 33.1879 36.0007 37.7435 35.6496 36.8978C34.1259 33.3065 31.3051 34.4047 29.8711 35.1332Z" fill="url(#paint0_linear_726_70)"/>
</g>
<defs>
<filter id="filter0_d_726_70" x="7" y="10" width="33" height="35" filterUnits="userSpaceOnUse" color-interpolation-filters="sRGB">
<feFlood flood-opacity="0" result="BackgroundImageFix"/>
<feColorMatrix in="SourceAlpha" type="matrix" values="0 0 0 0 0 0 0 0 0 0 0 0 0 0 0 0 0 0 127 0" result="hardAlpha"/>
<feOffset dy="4"/>
<feGaussianBlur stdDeviation="2"/>
<feComposite in2="hardAlpha" operator="out"/>
<feColorMatrix type="matrix" values="0 0 0 0 0 0 0 0 0 0 0 0 0 0 0 0 0 0 0.25 0"/>
<feBlend mode="normal" in2="BackgroundImageFix" result="effect1_dropShadow_726_70"/>
<feBlend mode="normal" in="SourceGraphic" in2="effect1_dropShadow_726_70" result="shape"/>
</filter>
<linearGradient id="paint0_linear_726_70" x1="23.5092" y1="10" x2="23.5092" y2="37.0014" gradientUnits="userSpaceOnUse">
<stop stop-color="#F88A36"/>
<stop offset="1" stop-color="#FD2020"/>
</linearGradient>
</defs>
</svg>
