<svg width="48" height="48" viewBox="0 0 48 48" fill="none" xmlns="http://www.w3.org/2000/svg">
<rect width="48" height="48" fill="#DFFFF6"/>
<g filter="url(#filter0_d_740_91)">
<path d="M16.6897 24.4746C16.3787 24.9348 15.9205 25.3068 15.6799 25.8502C15.1774 26.8124 15.3719 28.8956 15.0549 28.8992C14.6848 29.0567 14.1016 28.1107 13.8529 27.5468C13.2234 26.1205 13.1064 23.8239 13.6604 22.1823C14.4274 20.0166 14.4752 20.1299 13.42 19.1102C12.4444 17.8459 11.9801 15.7951 11.3525 14.3419C10.3903 12.4416 8.12227 10.8445 9.33309 10.124C9.76868 9.79991 11.2316 10.4424 12.3192 11.0792C13.0876 11.529 13.5901 12.0064 13.7565 12.0039C15.5917 11.9595 16.3094 12.0303 19.286 13.6086C22.0574 15.2772 24.3234 17.6525 25.8734 20.486C26.2584 21.673 28.1168 25.5391 29.3832 27.501C29.7103 27.9174 30.9731 28.1409 31.547 28.372C32.917 28.7806 33.1833 28.98 35.1052 30.2978C35.4465 30.527 36.4955 31.0295 36.5477 31.4437C34.8567 31.4 33.5653 31.5497 32.461 31.9938C32.1472 32.12 31.6468 32.1233 31.5956 32.4983C31.8675 32.7607 31.6203 33.1431 33.0379 34.3781C34.4801 35.5266 35.1769 35.6211 36.9327 36.533C38.6151 37.5681 38.637 37.8895 39 38V37.9542C38.6427 37.2056 38.6635 37.3123 38.0384 36.7162C35.7723 34.0163 34.1088 34.2014 33.4226 32.9109C35.2642 32.2816 36.2189 32.5059 37.9424 31.948V31.7646C36.773 30.1176 33.4331 27.6725 30.4372 26.8023C28.5219 23.5587 27.7202 21.2519 26.7388 19.3856C24.6761 16.0645 19.228 10.5859 14.2854 10.9493C13.9626 10.8206 13.6267 10.444 13.3238 10.2616C12.1178 9.53508 9.02442 7.95487 8.13116 10.0324C7.56714 11.3437 8.97408 12.6234 9.47726 13.2877C9.83049 13.7538 10.2827 14.2764 10.535 14.8006C10.7821 15.3688 10.7113 15.7898 11.9775 18.5603C12.9136 20.3574 13.0883 19.8301 13.2756 20.486C12.9787 20.8821 12.9618 21.4971 12.795 21.999C11.445 25.9922 13.5629 30.7109 15.6317 29.931C16.6919 29.5213 16.3355 27.9366 16.7702 26.88C17.3886 27.9085 17.58 29.2396 20.3919 31.2606C20.8915 31.6203 21.4268 32.2752 22.0651 32.4819C21.4043 32.0752 20.8365 31.4622 20.2958 30.8021C19.4196 29.6678 18.6453 28.4263 17.9399 27.134C16.784 25.088 17.0302 24.7001 16.6897 24.4746ZM15.09 15.1153C14.7623 14.4281 14.6366 14.586 14.2895 14.2471C13.941 14.241 13.6874 14.2907 13.4268 14.3449C13.4125 14.353 13.4161 14.3697 13.4279 14.3903C13.5941 14.716 13.9341 14.9255 14.1397 15.206L14.615 16.1574C14.9678 15.9329 15.0935 15.5649 15.09 15.1153Z" fill="#39ADB5"/>
</g>
<defs>
<filter id="filter0_d_740_91" x="4" y="9" width="39" height="37" filterUnits="userSpaceOnUse" color-interpolation-filters="sRGB">
<feFlood flood-opacity="0" result="BackgroundImageFix"/>
<feColorMatrix in="SourceAlpha" type="matrix" values="0 0 0 0 0 0 0 0 0 0 0 0 0 0 0 0 0 0 127 0" result="hardAlpha"/>
<feOffset dy="4"/>
<feGaussianBlur stdDeviation="2"/>
<feComposite in2="hardAlpha" operator="out"/>
<feColorMatrix type="matrix" values="0 0 0 0 0 0 0 0 0 0 0 0 0 0 0 0 0 0 0.25 0"/>
<feBlend mode="normal" in2="BackgroundImageFix" result="effect1_dropShadow_740_91"/>
<feBlend mode="normal" in="SourceGraphic" in2="effect1_dropShadow_740_91" result="shape"/>
</filter>
</defs>
</svg>
