<svg width="48" height="48" viewBox="0 0 48 48" fill="none" xmlns="http://www.w3.org/2000/svg">
<rect width="48" height="48" fill="#3F690F"/>
<g filter="url(#filter0_d_726_121)">
<path d="M25.2627 8.33073C24.4983 7.88876 23.5018 7.89075 22.7367 8.33073C18.9049 10.5047 15.0732 12.6792 11.2408 14.8522C10.4951 15.2555 9.99207 16.0788 10.0001 16.9334V30.0684C9.99471 30.9397 10.5236 31.7709 11.2886 32.1687C12.3894 32.7708 13.4589 33.434 14.5796 33.996C15.8741 34.6499 17.4937 34.7945 18.8041 34.1126C19.8677 33.5473 20.3401 32.2902 20.3388 31.1349C20.3474 26.7999 20.3401 22.4649 20.3421 18.13C20.3674 17.9373 20.2267 17.7314 20.0223 17.736C19.5326 17.7281 19.0423 17.7314 18.5526 17.7347C18.3676 17.7167 18.187 17.8747 18.201 18.0659C18.1944 22.3729 18.2023 26.6812 18.197 30.9889C18.2077 31.5848 17.8161 32.1575 17.2575 32.3587C15.9674 32.8236 12.2852 30.3656 12.2852 30.3656C12.1501 30.3013 12.0643 30.1506 12.0775 30.001C12.0775 25.6674 12.0782 21.3336 12.0775 17.0007C12.0589 16.826 12.1637 16.6687 12.3197 16.5974C16.1388 14.4363 19.9559 12.2697 23.7751 10.1073C23.9077 10.0163 24.0926 10.0166 24.225 10.108C28.0441 12.2697 31.8619 14.4343 35.6816 16.5955C35.8382 16.6667 35.9384 16.8267 35.9225 17.0007C35.9218 21.3337 35.9238 25.6674 35.9212 30.0003C35.9325 30.1537 35.8555 30.3023 35.7161 30.3696C31.9327 32.519 28.1062 34.5991 24.357 36.8109C24.1934 36.9074 24.0081 37.0167 23.8248 36.9104C22.8389 36.3497 21.8649 35.7672 20.8822 35.2012C20.7754 35.1326 20.6394 35.1032 20.5279 35.1799C20.0873 35.4186 19.673 35.6119 19.167 35.8178C18.4564 36.107 18.57 36.2253 19.2108 36.6091C20.36 37.2777 21.5112 37.9437 22.6603 38.613C23.4168 39.0983 24.4333 39.1329 25.2142 38.6843C29.0466 36.5131 32.8777 34.3393 36.7108 32.1682C37.4738 31.7682 38.0053 30.9402 37.9999 30.0683V16.9334C38.0073 16.0961 37.5235 15.2875 36.8003 14.8782C32.9553 12.6937 29.1084 10.5139 25.2627 8.33073Z" fill="#8CC84B"/>
<path d="M31.0451 18.1926C29.541 17.3653 27.7516 17.3213 26.0801 17.4294C24.8726 17.552 23.6025 17.8946 22.7227 18.7845C21.8204 19.6791 21.624 21.1237 22.0526 22.2916C22.3598 23.1168 23.1329 23.6535 23.9323 23.9373C24.9622 24.3111 26.0439 24.4266 27.1259 24.5422C28.1128 24.6477 29.1 24.7532 30.0486 25.0546C30.436 25.1867 30.8873 25.3886 31.006 25.822C31.1155 26.3352 30.9954 26.9319 30.59 27.2885C29.3024 28.3362 25.7208 28.1757 24.4486 27.3511C23.9343 26.9998 23.7127 26.3779 23.6225 25.7853C23.6125 25.6006 23.4679 25.4312 23.2729 25.4452C22.7845 25.4393 22.2961 25.4406 21.8078 25.4446C21.6373 25.4299 21.4602 25.5545 21.4508 25.7333C21.3505 28.4477 23.7753 29.631 26.0503 29.8916C27.3501 30.0188 28.6784 30.0116 29.9583 29.7248C30.9205 29.4996 31.8851 29.0849 32.5474 28.323C33.3642 27.3971 33.5247 26.0186 33.1584 24.8653C32.8784 24.0048 32.0782 23.4527 31.2601 23.1688C30.1477 22.7766 28.8293 22.5658 27.8218 22.4672C26.3573 22.3238 24.6169 22.3823 24.2024 21.393C24.0372 20.875 24.1778 20.2317 24.6409 19.9131C25.8661 19.0587 28.3597 19.1721 29.6285 19.8104C30.2112 20.1104 30.5488 20.7264 30.6881 21.3483C30.714 21.531 30.8335 21.7216 31.0392 21.7136C31.5242 21.7235 32.0093 21.7163 32.4942 21.7169C32.6608 21.729 32.8433 21.6322 32.8758 21.4569C32.8552 20.1571 32.2096 18.8266 31.0451 18.1926Z" fill="#8CC84B"/>
</g>
<defs>
<filter id="filter0_d_726_121" x="6" y="8" width="36" height="39" filterUnits="userSpaceOnUse" color-interpolation-filters="sRGB">
<feFlood flood-opacity="0" result="BackgroundImageFix"/>
<feColorMatrix in="SourceAlpha" type="matrix" values="0 0 0 0 0 0 0 0 0 0 0 0 0 0 0 0 0 0 127 0" result="hardAlpha"/>
<feOffset dy="4"/>
<feGaussianBlur stdDeviation="2"/>
<feComposite in2="hardAlpha" operator="out"/>
<feColorMatrix type="matrix" values="0 0 0 0 0 0 0 0 0 0 0 0 0 0 0 0 0 0 0.25 0"/>
<feBlend mode="normal" in2="BackgroundImageFix" result="effect1_dropShadow_726_121"/>
<feBlend mode="normal" in="SourceGraphic" in2="effect1_dropShadow_726_121" result="shape"/>
</filter>
</defs>
</svg>
