<svg width="48" height="48" viewBox="0 0 48 48" fill="none" xmlns="http://www.w3.org/2000/svg">
<rect width="48" height="48" fill="#E3F6FF"/>
<g filter="url(#filter0_d_726_190)">
<path d="M23.7159 15.5866C31.209 10.3836 27.3634 7 27.3634 7C27.9356 12.3788 21.172 13.6489 19.359 17.345C18.1218 19.8672 20.2061 22.0756 23.7135 24.859C23.4034 24.2425 22.9252 23.6435 22.441 23.0371C20.7898 20.9687 19.0696 18.814 23.7159 15.5866Z" fill="#E76F00"/>
<path d="M24.9122 26C24.9122 26 27.1665 24.3732 25.3812 22.5653C19.3296 16.4322 32 13.6489 32 13.6489C24.2642 16.9822 25.419 18.9607 27.3634 21.3643C29.4452 23.9417 24.9122 26 24.9122 26Z" fill="#E76F00"/>
<path d="M31.3042 31.2682C38.1726 28.0838 34.9969 25.0235 32.7803 25.4358C32.237 25.5367 31.9948 25.6241 31.9948 25.6241C31.9948 25.6241 32.1965 25.3422 32.5817 25.2202C36.9668 23.8447 40.3393 29.2771 31.1661 31.4287C31.1661 31.4288 31.2724 31.344 31.3042 31.2682Z" fill="#5382A1"/>
<path d="M17.0122 27.2377C12.7148 26.7257 19.3684 25.3156 19.3684 25.3156C19.3684 25.3156 16.7845 25.1602 13.6067 26.5307C9.84899 28.1525 22.9016 28.8901 29.6582 27.3046C30.3607 26.8767 31.3316 26.5057 31.3316 26.5057C31.3316 26.5057 28.5667 26.9463 25.8131 27.1535C22.4438 27.4054 18.8267 27.4545 17.0122 27.2377Z" fill="#5382A1"/>
<path d="M18.6471 30.2784C16.2508 30.0572 17.8199 29.0209 17.8199 29.0209C11.6189 30.8572 21.27 32.9396 29.9349 30.6789C29.0138 30.3892 28.4281 29.8594 28.4281 29.8594C24.1934 30.5869 21.7461 30.5636 18.6471 30.2784Z" fill="#5382A1"/>
<path d="M19.6913 33.5685C17.2967 33.3229 18.6957 32.597 18.6957 32.597C13.0667 34.0004 22.1195 36.8996 29.2862 34.1591C28.1123 33.7518 27.2719 33.2816 27.2719 33.2816C24.0749 33.8215 22.5923 33.8638 19.6913 33.5685Z" fill="#5382A1"/>
<path d="M34.681 35.2421C34.681 35.2421 35.7163 36.0032 33.5408 36.592C29.4041 37.7101 16.3235 38.0478 12.6898 36.6366C11.3836 36.1296 13.8331 35.426 14.6037 35.2783C15.4073 35.1229 15.8665 35.1518 15.8665 35.1518C14.4138 34.2388 6.47705 36.9446 11.835 37.7196C26.4469 39.8338 38.4711 36.7675 34.681 35.2421Z" fill="#5382A1"/>
<path d="M37 36.9051C36.7602 39.6884 26.6362 40.2739 20.0433 39.8973C15.7424 39.6512 14.8804 39.0362 14.8678 39.0272C18.9841 39.6328 25.9242 39.743 31.5514 38.7982C36.5391 37.9602 37 36.9051 37 36.9051Z" fill="#5382A1"/>
</g>
<defs>
<filter id="filter0_d_726_190" x="6" y="7" width="35" height="41" filterUnits="userSpaceOnUse" color-interpolation-filters="sRGB">
<feFlood flood-opacity="0" result="BackgroundImageFix"/>
<feColorMatrix in="SourceAlpha" type="matrix" values="0 0 0 0 0 0 0 0 0 0 0 0 0 0 0 0 0 0 127 0" result="hardAlpha"/>
<feOffset dy="4"/>
<feGaussianBlur stdDeviation="2"/>
<feComposite in2="hardAlpha" operator="out"/>
<feColorMatrix type="matrix" values="0 0 0 0 0 0 0 0 0 0 0 0 0 0 0 0 0 0 0.25 0"/>
<feBlend mode="normal" in2="BackgroundImageFix" result="effect1_dropShadow_726_190"/>
<feBlend mode="normal" in="SourceGraphic" in2="effect1_dropShadow_726_190" result="shape"/>
</filter>
</defs>
</svg>
