<svg width="48" height="48" viewBox="0 0 48 48" fill="none" xmlns="http://www.w3.org/2000/svg">
<rect width="48" height="48" fill="#C7F3FF"/>
<g filter="url(#filter0_d_726_124)">
<path d="M10.2688 28.9375H11.8239C11.8293 28.938 11.8348 28.938 11.8402 28.9375C12.7282 28.9806 13.6043 28.7197 14.324 28.1977C15.0437 27.6757 15.5639 26.924 15.7987 26.0665C16.221 24.7978 16.5672 23.7302 16.8717 22.833L16.8826 22.8004C17.5488 21.9241 18.2756 21.0956 19.0576 20.3209H19.0721C20.1179 23.326 20.5221 28.6892 23.5779 28.6892C23.7012 28.6892 23.8299 28.6892 23.9549 28.6801C23.8299 28.6928 23.7103 28.7073 23.5924 28.7073H26.0121C25.847 28.7051 25.6825 28.6868 25.5209 28.6529C25.4228 28.6328 25.326 28.6067 25.2309 28.575C25.3261 28.6044 25.4229 28.628 25.5209 28.6457C25.6829 28.6759 25.8474 28.6905 26.0121 28.6892C26.4014 28.7023 26.7905 28.6577 27.1667 28.5569C26.7914 28.6638 26.4022 28.7139 26.0121 28.7055H28.4499H29.3453C29.2352 28.7053 29.1258 28.6882 29.0209 28.6548C29.1251 28.681 29.2325 28.6926 29.3399 28.6892C31.6961 28.6892 34.0759 24.7017 38.0091 18.0915H36.4703V18.1332H36.1875C34.7375 20.5547 33.7225 22.6246 32.8634 24.2776C33.7207 22.6227 34.7375 20.5547 36.1875 18.1332H33.8313C33.7533 18.1332 33.6772 18.1223 33.6011 18.1332C32.7282 18.0939 31.8679 18.3525 31.1614 18.8666C30.4549 19.3808 29.9443 20.1198 29.7133 20.9625C28.7762 23.7737 28.2125 25.6007 27.6688 26.7625C27.4239 26.986 27.168 27.1971 26.9021 27.3951C26.7692 27.4941 26.6356 27.5884 26.5015 27.6778C26.6105 27.8024 26.7267 27.9204 26.8495 28.0313C27.0266 28.1959 27.2254 28.3356 27.4404 28.4463C27.2205 28.3365 27.0168 28.1968 26.835 28.0313C26.7124 27.9201 26.5962 27.8021 26.487 27.6778C26.6211 27.589 26.7534 27.4966 26.8876 27.3951C26.1517 25.8635 25.7258 23.2626 24.9337 21.2326C25.7258 23.2571 26.1535 25.8599 26.8876 27.3951C27.1425 27.2041 27.3981 26.9933 27.6543 26.7625C26.5921 23.7737 26.2188 18.3344 23.1375 18.3344L21.9249 18.3181C22.1171 18.3181 22.2983 18.3688 22.4687 18.3688C22.2874 18.3688 22.1062 18.3181 21.9249 18.3181C21.9086 18.3181 21.8923 18.3181 21.8742 18.3181C21.8905 18.3181 21.9068 18.3181 21.9249 18.3181H17.0584H16.975C14.3197 18.3054 10.6603 22.9744 9.0127 28.9375H10.2688ZM29.764 28.3611L29.7423 28.372L29.7096 28.3883L29.7676 28.3611H29.764ZM29.4414 28.4952C29.4468 28.4943 29.4523 28.4943 29.4577 28.4952H29.4432L29.4106 28.5061L29.4414 28.4952ZM29.1586 28.5877L29.2112 28.5732H29.2384L29.2674 28.5623L29.2982 28.5533L29.3236 28.5442H29.3L29.2692 28.5533L29.2384 28.5641H29.2112L29.1586 28.5786V28.5877ZM16.3551 18.5501C16.3009 18.5589 16.2488 18.5773 16.2011 18.6044L16.2319 18.5936L16.1086 18.6461L16.0434 18.6769L16.3551 18.5501ZM16.8318 18.3906C16.8265 18.3973 16.8204 18.4034 16.8137 18.4087L16.685 18.4413H16.6705L16.6343 18.4522C16.6461 18.4473 16.6582 18.4449 16.6705 18.4413C16.6753 18.4416 16.6802 18.4416 16.685 18.4413L16.8155 18.4069C16.8155 18.4069 16.8246 18.3906 16.8318 18.3906C16.8432 18.3827 16.8571 18.376 16.8699 18.3706C16.8572 18.3706 16.8445 18.3906 16.8336 18.3924L16.8318 18.3906ZM16.888 18.3906L16.8699 18.3996C16.8753 18.3946 16.8814 18.3903 16.888 18.3869C16.9 18.3809 16.9129 18.3767 16.9261 18.3742C16.9138 18.377 16.9016 18.3807 16.8898 18.3851L16.888 18.3906ZM17.4263 18.3416C17.3701 18.3416 17.3139 18.3525 17.2559 18.3561C17.2641 18.359 17.272 18.3626 17.2795 18.367C17.265 18.367 17.2505 18.3561 17.236 18.3561H17.2559H17.2451H17.1581H17.1381C17.1267 18.3575 17.1151 18.3575 17.1037 18.3561C17.0971 18.3545 17.0903 18.3545 17.0838 18.3561H17.0475C17.0596 18.3573 17.0717 18.3573 17.0838 18.3561H17.1037C17.1151 18.3575 17.1267 18.3575 17.1381 18.3561C17.1447 18.3577 17.1515 18.3577 17.1581 18.3561H17.2288C17.2958 18.3561 17.3593 18.3561 17.4245 18.3561L17.4263 18.3416ZM17.5822 18.4069C17.5387 18.396 17.4934 18.3869 17.4481 18.3797C17.4934 18.3797 17.5387 18.396 17.5822 18.4069ZM18.5428 19.1319C18.4213 18.9264 18.2663 18.7426 18.0843 18.5881C18.2637 18.7437 18.4167 18.9273 18.5374 19.1319H18.5428ZM24.6056 28.5677C24.7198 28.5387 24.8358 28.5043 24.9518 28.4662C24.8268 28.4971 24.7126 28.5315 24.5984 28.5605L24.6056 28.5677ZM27.5818 28.3865L27.5618 28.3974L27.5836 28.3865H27.5818ZM28.1763 27.9008C28.3097 28.1279 28.485 28.3278 28.6928 28.4898C28.4833 28.3313 28.3071 28.133 28.1744 27.9062L28.1763 27.9008ZM28.6131 28.6946C28.6281 28.6964 28.6433 28.6964 28.6584 28.6946C28.6406 28.6946 28.6229 28.6922 28.6058 28.6874L28.6131 28.6946ZM28.7943 28.6747H28.7418H28.7273H28.7399H28.7943Z" fill="#26A2C1"/>
</g>
<defs>
<filter id="filter0_d_726_124" x="5.0127" y="18.0915" width="36.9964" height="18.8506" filterUnits="userSpaceOnUse" color-interpolation-filters="sRGB">
<feFlood flood-opacity="0" result="BackgroundImageFix"/>
<feColorMatrix in="SourceAlpha" type="matrix" values="0 0 0 0 0 0 0 0 0 0 0 0 0 0 0 0 0 0 127 0" result="hardAlpha"/>
<feOffset dy="4"/>
<feGaussianBlur stdDeviation="2"/>
<feComposite in2="hardAlpha" operator="out"/>
<feColorMatrix type="matrix" values="0 0 0 0 0 0 0 0 0 0 0 0 0 0 0 0 0 0 0.25 0"/>
<feBlend mode="normal" in2="BackgroundImageFix" result="effect1_dropShadow_726_124"/>
<feBlend mode="normal" in="SourceGraphic" in2="effect1_dropShadow_726_124" result="shape"/>
</filter>
</defs>
</svg>
