<svg width="48" height="48" viewBox="0 0 48 48" fill="none" xmlns="http://www.w3.org/2000/svg">
<rect width="48" height="48" fill="#DD0031"/>
<g filter="url(#filter0_d_726_68)">
<path d="M12.9237 37H26.1016C24.4023 32.8976 23.6571 28.4628 23.9224 24.0304C24.0986 21.7862 25.0017 19.6606 26.4947 17.9758C27.9877 16.2911 29.9892 15.139 32.1959 14.6941C32.9595 14.5891 33.7369 14.6621 34.4676 14.9073C35.1983 15.1525 35.8623 15.5634 36.4079 16.1078L37 15.2071C35.835 14.0483 34.45 13.1343 32.9264 12.519C31.4028 11.9036 29.7715 11.5992 28.1286 11.6239C25.8561 11.9191 23.6974 12.7927 21.8592 14.161C20.0209 15.5292 18.5645 17.3463 17.6294 19.4384C15.6385 22.8891 14.2169 26.6381 13.4194 30.5412C12.9145 32.6545 12.7473 34.8344 12.9237 37ZM10.297 30.2384L12.8736 30.4429L12.4281 33.0638L10 32.7571L10.297 30.2384ZM14.3605 24.6861L15.0529 22.717L12.7752 21.8086L12.0327 23.9301L14.3605 24.6861ZM17.5793 17.9245L18.9177 16.3103L17.182 15.1531L15.7954 16.7172L17.5793 17.9245ZM21.097 11.6663L22.2869 13.1301L23.9224 12.1658L22.7286 10.8081L21.097 11.6663ZM26.8943 10L27.1913 11.4638L29.2221 11.4136L29.0292 10.1022L26.8943 10ZM33.7793 11.5641L33.7214 12.4724L35.1081 13.2304L35.4051 12.7752L33.7793 11.5641ZM33.4823 15.4501V16.2081L34.8207 16.3643V15.7529L33.4823 15.4501ZM29.2221 16.1059L29.8643 17.3189L30.8074 16.5571L30.6145 15.7491L29.2221 16.1059ZM27.1913 17.6699L28.1826 19.1839L27.5886 20.2446L26.1499 18.6304L27.1913 17.6699ZM25.2087 21.8607L24.5646 23.1721L26.2501 24.6359L26.6455 22.9696L25.2087 21.8607ZM24.5164 26.4526L24.418 28.2192L26.4989 29.1276L26.3929 27.4613L24.5164 26.4526ZM25.1104 32.7109L25.606 34.5276L28.2308 34.6857L27.2896 32.7109H25.1104Z" fill="#F8FAFB"/>
</g>
<defs>
<filter id="filter0_d_726_68" x="6" y="10" width="35" height="35" filterUnits="userSpaceOnUse" color-interpolation-filters="sRGB">
<feFlood flood-opacity="0" result="BackgroundImageFix"/>
<feColorMatrix in="SourceAlpha" type="matrix" values="0 0 0 0 0 0 0 0 0 0 0 0 0 0 0 0 0 0 127 0" result="hardAlpha"/>
<feOffset dy="4"/>
<feGaussianBlur stdDeviation="2"/>
<feComposite in2="hardAlpha" operator="out"/>
<feColorMatrix type="matrix" values="0 0 0 0 0 0 0 0 0 0 0 0 0 0 0 0 0 0 0.25 0"/>
<feBlend mode="normal" in2="BackgroundImageFix" result="effect1_dropShadow_726_68"/>
<feBlend mode="normal" in="SourceGraphic" in2="effect1_dropShadow_726_68" result="shape"/>
</filter>
</defs>
</svg>
