<svg width="48" height="48" viewBox="0 0 48 48" fill="none" xmlns="http://www.w3.org/2000/svg">
<rect width="48" height="48" fill="#FFE6DF"/>
<g filter="url(#filter0_d_740_102)">
<path d="M23.6446 24.6378C24.5688 24.3474 25.5003 24.0728 26.439 23.8137C26.5626 24.1496 26.7282 25.9884 26.6938 26.3993C25.6663 25.8778 24.6503 25.2886 23.6446 24.6378ZM23.0398 24.787C24.3433 25.5039 25.6188 26.1763 26.6744 26.6309C25.4796 27.4238 24.0521 28.1163 22.4423 28.7303C22.7992 27.4463 23.0478 26.3547 23.0398 24.787ZM19.6876 26.0189C19.7644 25.9679 22.3823 25.0424 22.4018 25.0602C22.4809 26.3529 22.2381 27.4235 21.8042 28.6767C20.7994 27.9381 20.0987 27.0498 19.6876 26.0189ZM16.676 30.6352C17.5412 29.2703 18.3523 27.8464 18.9639 26.3481C18.9795 26.2731 19.1278 26.2125 19.1682 26.2359C19.6504 27.4023 20.5021 28.3716 21.4803 29.0882C19.9849 29.6483 18.2848 30.1636 16.676 30.6352ZM18.1587 26.6061C17.5124 27.9089 16.6695 29.2684 15.6868 30.6684C15.1541 29.8009 15.0458 28.8553 15.3051 27.8421C16.0992 27.4647 17.075 27.0473 18.1587 26.6061ZM26.7294 26.9221C26.7275 28.1882 26.6009 29.5047 26.3796 30.8557C25.0965 30.5303 23.8471 29.9617 22.621 29.2256C24.0654 28.5524 25.5705 27.7553 26.7294 26.9221ZM14.4226 28.2563C14.1805 29.3167 14.3612 30.204 14.946 31.1276C13.3021 31.5863 11.6374 32.0286 9.95341 32.4556C9.92319 31.9809 10.8501 29.7553 14.4226 28.2563ZM20.327 33.3245C21.0786 32.0471 21.7253 30.7808 22.1582 29.537C23.4665 30.2261 24.8664 30.7219 26.3489 31.0459C24.7347 31.7888 22.6284 32.5525 20.327 33.3245ZM21.3665 29.7726C20.7717 31.1231 20.0423 32.4288 19.2115 33.6998C17.9418 33.0347 16.9455 32.2632 16.1928 31.397C17.9024 30.9986 19.6277 30.4542 21.3665 29.7726ZM24.9946 35.4831C23.1779 35.1896 21.5175 34.7229 20.0185 34.0777C20.636 33.805 24.3662 32.3243 26.2792 31.3399C26.01 32.5528 25.54 33.9781 24.9946 35.4831ZM14.9453 31.6963C13.7875 33.2589 12.4676 34.8888 11.9791 35.5993C10.7512 34.6792 10.0453 33.7128 9.94368 32.7708C11.4876 32.4315 13.1704 32.0705 14.9453 31.6963ZM12.4203 35.8967L12.229 35.7767C13.1656 34.5424 14.3599 33.2185 15.582 31.9178C16.7239 33.1798 18.0243 33.7578 18.3402 33.9845C16.3779 34.6342 14.4045 35.2715 12.4203 35.8967ZM17.1772 37.7669C17.1297 37.7758 16.9636 37.7362 16.9636 37.7158C17.9614 36.5959 18.8563 35.5143 19.5465 34.5091C21.1093 35.0611 22.8487 35.4664 24.8504 35.654C22.0901 36.5184 19.2657 37.2033 17.1772 37.7669ZM18.6683 34.5315C17.8063 35.7816 16.891 37.1039 16.5656 37.6315C15.094 37.2188 13.5556 36.6571 12.7042 36.0622C14.736 35.5645 16.7262 35.0554 18.6683 34.5315ZM24.8584 35.8584C24.4461 36.992 23.7769 38.7254 23.657 38.7728C21.5315 38.5107 19.5496 38.2166 17.7384 37.8843C19.9069 37.4825 22.7628 36.8159 24.8584 35.8584ZM21.0873 9.23377C21.2941 10.8273 21.765 11.7221 21.7408 11.8676C20.1756 11.5689 18.4708 11.3146 16.6745 11.0835C18.0352 10.372 19.518 9.76375 21.0873 9.23377ZM18.875 13.5331L19.305 13.5957C20.108 13.1491 21.0024 12.7032 21.9564 12.2579C19.8896 12.0827 17.8436 11.7288 16.2948 11.2673L18.875 13.5331ZM16.1 11.4103C16.1 11.4103 17.8055 13.3493 17.8013 13.3519C16.6533 13.166 15.6483 12.9736 14.893 12.7315C14.9024 12.2166 15.5633 11.7657 16.1 11.4103ZM20.1609 13.717C20.7962 13.393 21.481 12.9467 22.0602 12.4886C22.3968 13.1253 22.7314 13.7171 23.0158 14.1489C21.8992 13.9838 20.4339 13.7742 20.1609 13.717ZM23.7598 14.2411C22.6695 12.4755 21.7044 10.7197 21.2048 9C18.7362 9.7196 16.4619 10.5307 14.6933 11.58C13.734 12.2158 13.8707 12.4773 14.516 13.0302C20.8684 17.4979 20.5692 22.8896 11.415 29.7681C7.1847 33.0326 8.99406 35.2877 13.1295 37.1541C16.0288 38.3762 21.6154 39.0669 23.8944 38.9949C26.5306 34.8648 28.1545 29.3363 27.2133 23.6637C31.2782 22.567 35.2307 21.6771 39 21.1247C36.293 16.7569 30.5475 15.1976 23.7598 14.2411ZM15.3356 13.2676C15.8296 13.4216 16.6168 13.6138 17.4452 13.8114C17.7125 14.5001 17.9861 15.3528 18.262 16.2687C17.5431 15.1316 16.5336 14.0951 15.3356 13.2676ZM21.673 14.5748C20.5906 15.1304 19.5904 15.7382 18.8163 16.4896C18.5493 15.5914 18.1993 14.7233 17.7748 13.888C17.7748 13.8867 17.7762 13.8867 17.7803 13.8855L17.7817 13.8855C17.9988 13.9084 20.2033 14.3405 21.673 14.5748ZM22.4577 17.6576C21.273 17.3147 20.2057 17.0347 19.298 16.7947C19.9063 16.1326 20.8916 15.4021 22.0863 14.6335C22.4735 15.5883 22.5706 16.6062 22.4577 17.6576ZM22.4283 14.6782C23.986 14.8935 25.5652 15.1644 27.1643 15.4862C25.5268 16.1807 24.1083 16.8798 23.0329 17.5861C23.0384 16.5136 22.8323 15.5466 22.4283 14.6782ZM26.1395 19.1652C25.3031 18.7236 24.4254 18.3375 23.5118 17.9997C24.6447 17.2301 26.0595 16.44 27.7074 15.633C27.6043 16.5602 26.9999 17.8645 26.1395 19.1652ZM28.083 15.6879C29.8133 16.0775 31.5358 16.6118 33.249 17.3219C31.1684 17.7309 29.0145 18.3232 26.9828 19.095C27.5904 17.945 27.9452 16.8092 28.083 15.6879ZM19.1877 20.6217C19.2983 19.7941 19.2477 18.759 19.0844 17.5785C20.007 17.7423 20.9558 18.0097 21.9313 18.3508C21.0198 19.0492 20.1049 19.8142 19.1877 20.6217ZM29.6719 22.3055C29.0279 21.3955 28.1829 20.5338 27.0512 19.7409C28.9027 18.9637 31.0744 18.245 33.5939 17.59C32.5667 19.0729 31.0524 20.713 29.6719 22.3055ZM33.9743 17.6819C35.517 18.4026 37.0191 19.499 38.482 20.9447C35.6275 21.1461 32.9505 21.5756 30.3058 22.1676C31.6586 21.0533 33.2084 19.4514 33.9743 17.6819ZM21.7288 21.5817C22.2459 20.6966 22.6497 19.7471 22.8935 18.7066C23.6479 19.003 24.4435 19.3705 25.2696 19.7907C24.0631 20.3331 22.8846 20.9337 21.7288 21.5817ZM22.2643 18.8237C21.9752 19.9753 21.47 21.0825 20.7403 22.1434C20.3175 21.7267 19.8382 21.3909 19.2966 21.1438C20.1703 20.3652 21.1598 19.5919 22.2643 18.8237ZM26.2149 20.309C27.3323 20.967 28.3304 21.6717 29.1734 22.437C26.8211 23.0108 24.4691 23.7016 22.2039 24.4772C23.812 23.148 25.1892 21.7495 26.2149 20.309ZM21.1049 22.5809C22.2994 21.9091 23.6574 21.2312 25.1782 20.5483C24.1413 21.9342 22.9574 23.3002 21.6744 24.653C21.6732 23.9421 21.4774 23.2521 21.1049 22.5809ZM17.7063 24.2221C18.1939 23.5504 18.593 22.7964 18.9015 21.9532C19.2946 22.1189 19.6714 22.3472 20.021 22.6069C19.1298 23.2104 18.3201 23.7695 17.7063 24.2221ZM20.5686 23.1544C20.9004 23.4445 21.275 24.1936 21.3295 24.7871C19.3024 25.4943 17.5618 26.1606 16.278 26.7619C17.9794 25.6243 19.4759 24.4377 20.5686 23.1544ZM16.87 25.2696C17.0557 25.0487 17.092 25.0168 17.3657 24.8368C18.1015 24.3518 19.7818 23.3101 19.8014 23.328C18.5958 24.6724 17.1634 25.8154 15.485 26.7402C15.4278 26.7405 16.4882 25.7808 16.87 25.2696Z" fill="#F6251F"/>
</g>
<defs>
<filter id="filter0_d_740_102" x="5" y="9" width="38" height="38" filterUnits="userSpaceOnUse" color-interpolation-filters="sRGB">
<feFlood flood-opacity="0" result="BackgroundImageFix"/>
<feColorMatrix in="SourceAlpha" type="matrix" values="0 0 0 0 0 0 0 0 0 0 0 0 0 0 0 0 0 0 127 0" result="hardAlpha"/>
<feOffset dy="4"/>
<feGaussianBlur stdDeviation="2"/>
<feComposite in2="hardAlpha" operator="out"/>
<feColorMatrix type="matrix" values="0 0 0 0 0 0 0 0 0 0 0 0 0 0 0 0 0 0 0.25 0"/>
<feBlend mode="normal" in2="BackgroundImageFix" result="effect1_dropShadow_740_102"/>
<feBlend mode="normal" in="SourceGraphic" in2="effect1_dropShadow_740_102" result="shape"/>
</filter>
</defs>
</svg>
