<svg width="38" height="40" viewBox="0 0 38 40" fill="none" xmlns="http://www.w3.org/2000/svg">
<path fill-rule="evenodd" clip-rule="evenodd" d="M23.0574 3.94204H34.0367V14.9188H23.0574V3.94204ZM32.2504 5.21861H27.0751C26.9398 5.21861 26.8113 5.27223 26.7135 5.3684L24.4854 7.59643C24.3884 7.6926 24.3356 7.82196 24.3356 7.95728V13.1316C24.3356 13.4133 24.5612 13.6423 24.8463 13.6423H32.2495C32.5312 13.6423 32.7567 13.4133 32.7567 13.1316V5.73009C32.7576 5.4484 32.5321 5.21861 32.2504 5.21861ZM26.762 10.9113H28.493L28.5415 11.0074C28.6283 11.1861 28.8087 11.29 28.9968 11.29C29.0734 11.29 29.1534 11.2721 29.2266 11.2355C29.4768 11.1096 29.5815 10.8032 29.4521 10.5504L28.0828 7.81175C27.996 7.63814 27.819 7.5292 27.6275 7.5292C27.4326 7.5292 27.2556 7.63814 27.1688 7.81175L25.7994 10.5504C25.6743 10.8032 25.779 11.1096 26.0292 11.2355C26.2828 11.3623 26.5883 11.2593 26.7143 11.0074L26.762 10.9113ZM30.0674 8.03983V10.7793C30.0674 11.061 30.2972 11.29 30.5781 11.29C30.8597 11.29 31.0887 11.061 31.0887 10.7793V8.03983C31.0887 7.75813 30.8589 7.5292 30.5781 7.5292C30.2972 7.53005 30.0674 7.75813 30.0674 8.03983ZM27.9824 9.89085L27.6275 9.18278L27.2726 9.89085H27.9824ZM11.1291 26.6582C13.7495 24.6412 16.0575 22.208 18.0107 19.4158L18.1707 20.1715C18.2192 20.4115 18.4345 20.5766 18.6711 20.5766C18.7026 20.5766 18.7409 20.5732 18.7757 20.5655C19.0506 20.5077 19.2277 20.237 19.1681 19.9613L18.7613 18.0269C18.706 17.7511 18.4345 17.5741 18.1562 17.632L16.2235 18.0388C15.9452 18.0966 15.7716 18.3681 15.8269 18.6439C15.8856 18.9196 16.1571 19.0966 16.432 19.0379L17.1307 18.8915C13.0754 24.6599 7.45599 28.7807 0.411033 31.1457C0.143805 31.2351 0.000828822 31.5244 0.0910397 31.7925C0.16423 32.0053 0.362523 32.1406 0.574434 32.1406C0.629752 32.1406 0.682517 32.1321 0.737835 32.1134C4.62967 30.807 8.12661 28.9713 11.1291 26.6582ZM4.68243 39.9992V35.081H0.0246582V39.9992H4.68243ZM13.4125 39.9992H8.75894V30.7662H13.4125V39.9992ZM22.1433 39.9992H17.4898V25.9552H22.1433V39.9992ZM30.8742 21.8319H26.2207V40H30.8742V21.8319ZM25.1569 5.51988C25.1569 5.23734 24.9271 5.00926 24.6463 5.00926H24.6182C24.3331 5.00926 24.1076 5.23734 24.1076 5.51988C24.1076 5.80158 24.3331 6.03051 24.6182 6.03051H24.6463C24.9271 6.03051 25.1569 5.80073 25.1569 5.51988ZM22.0387 6.61773V8.91981H19.6268C19.3451 8.91981 19.1162 9.14874 19.1162 9.43044C19.1162 9.71213 19.3459 9.94107 19.6268 9.94107H22.0387V12.2431H19.6268C19.3451 12.2431 19.1162 12.4712 19.1162 12.7538C19.1162 13.0355 19.3459 13.2644 19.6268 13.2644H22.0387V15.4295C22.0387 15.7112 22.2642 15.9401 22.5459 15.9401H24.7109V18.3502C24.7109 18.6319 24.9407 18.8609 25.2216 18.8609C25.5033 18.8609 25.7322 18.6319 25.7322 18.3502V15.9401H28.0368V18.3502C28.0368 18.6319 28.2666 18.8609 28.5475 18.8609C28.8292 18.8609 29.0547 18.6319 29.0547 18.3502V15.9401H31.3593V18.3502C31.3593 18.6319 31.5891 18.8609 31.8699 18.8609C32.1516 18.8609 32.3806 18.6319 32.3806 18.3502V15.9401H34.5456C34.8273 15.9401 35.0563 15.7112 35.0563 15.4295V13.2644H37.4647C37.7464 13.2644 37.9753 13.0355 37.9753 12.7538C37.9753 12.4712 37.7456 12.2431 37.4647 12.2431H35.0563V9.94107H37.4647C37.7464 9.94107 37.9753 9.71213 37.9753 9.43044C37.9753 9.14874 37.7456 8.91981 37.4647 8.91981H35.0563V6.61773H37.4647C37.7464 6.61773 37.9753 6.3888 37.9753 6.1071C37.9753 5.82541 37.7456 5.59648 37.4647 5.59648H35.0563V3.43142C35.0563 3.14972 34.8265 2.92079 34.5456 2.92079H32.3806V0.510628C32.3806 0.228931 32.1508 0 31.8699 0C31.5882 0 31.3593 0.228931 31.3593 0.510628V2.92079H29.0547V0.510628C29.0547 0.228931 28.8292 0 28.5475 0C28.2624 0 28.0368 0.228931 28.0368 0.510628V2.92079H25.7322V0.510628C25.7322 0.228931 25.5024 0 25.2216 0C24.9399 0 24.7109 0.228931 24.7109 0.510628V2.92079H22.5459C22.2642 2.92079 22.0387 3.14972 22.0387 3.43142V5.59648H19.6268C19.3451 5.59648 19.1162 5.82541 19.1162 6.1071C19.1162 6.38965 19.3459 6.61773 19.6268 6.61773H22.0387Z" fill="white"/>
</svg>
