<svg width="78" height="76" viewBox="0 0 78 76" fill="none" xmlns="http://www.w3.org/2000/svg">
<g filter="url(#filter0_i_810_132)">
<path d="M33.2932 13C40.2834 13.0245 46.4438 17.3617 48.7739 23.9472C48.9905 24.5563 49.2194 24.6831 49.8612 24.589C55.4207 23.7674 61.6587 27.1398 64.0787 32.1883C64.3853 32.8301 63.9438 32.9078 63.6086 33.1122C56.8228 37.1837 50.037 41.247 43.2471 45.3144C34.0331 50.833 24.8191 56.3516 15.6092 61.8824C15.0655 62.2094 14.5668 62.3198 13.9209 62.1849C7.47034 60.8359 2.31557 55.4768 1.27317 48.9362C0.300265 42.8412 1.90679 37.5434 6.40341 33.2553C9.05233 30.7249 12.2695 29.3187 15.9567 29.1511C16.7007 29.1184 16.8846 28.9017 16.9378 28.1741C17.4855 20.5911 23.4579 14.2509 30.9877 13.1676C31.7562 13.0572 32.5206 13.0164 33.2932 13Z" stroke="#121212" stroke-width="2"/>
<path d="M20.4572 62.3605C23.9359 60.0999 27.3084 57.9007 30.6849 55.7055C41.6853 48.5559 52.6898 41.4103 63.6738 34.2402C64.3319 33.811 64.6712 33.7538 65.1372 34.4692C65.869 35.5933 66.7029 36.6521 67.5245 37.7149C67.8311 38.1155 67.9047 38.4589 67.7371 38.9617C65.2231 46.5487 62.7377 54.1439 60.24 61.7351C60.1174 62.103 60.0806 62.4831 59.496 62.479C54.4353 62.4545 49.3786 62.4668 44.1257 62.4668C45.299 61.0156 46.3741 59.6829 47.58 58.195C46.28 58.195 45.1804 58.1991 44.0808 58.195C43.717 58.195 43.5248 58.4607 43.3082 58.6774C42.2045 59.7974 41.1007 60.9175 40.0052 62.0457C39.7599 62.2992 39.5187 62.4749 39.1263 62.4749C33.0027 62.4627 26.8832 62.4627 20.7596 62.4627C20.7106 62.4668 20.6615 62.4341 20.4572 62.3605ZM54.4843 49.7332C53.5278 49.7209 52.6775 49.3652 52.0561 49.8762C50.9402 50.7919 49.9509 51.8588 48.9085 52.8644C48.9535 52.9462 48.9944 53.0239 49.0393 53.1056C49.8569 53.1056 50.6745 53.1056 51.492 53.1056C51.6719 53.1056 51.8191 53.0238 51.9335 52.8808C52.7388 51.8833 53.5441 50.89 54.4843 49.7332ZM55.7516 46.1277C56.5814 46.2748 57.354 46.4792 57.8977 45.6003C58.2901 44.9626 58.8338 44.4149 59.4061 43.7036C57.3131 43.5115 56.9002 45.3346 55.7516 46.1277ZM62.7091 39.5217C61.7321 39.6484 61.3642 40.5028 60.5997 41.1364C61.9978 41.2672 62.1041 40.0981 62.7091 39.5217Z" stroke="#121212"/>
<path d="M76.9999 50.3872C76.9754 57.5491 71.0521 63.0104 63.9107 62.4831C63.2934 62.4381 63.4855 62.152 63.5632 61.8249C64.5647 57.5491 65.5622 53.2732 66.5637 48.9973C67.2913 45.8864 68.0353 42.7797 68.7425 39.6648C68.8733 39.0925 69.0123 38.9412 69.6214 39.1906C74.0444 41.0056 77.0163 45.4818 76.9999 50.3872Z" stroke="#121212" stroke-width="2"/>
<path d="M62.7095 39.5219C62.1045 40.0941 61.9983 41.2674 60.6002 41.1366C61.3646 40.507 61.7326 39.6486 62.7095 39.5219Z" fill="black"/>
</g>
<defs>
<filter id="filter0_i_810_132" x="0.000244141" y="0" width="77.9997" height="80" filterUnits="userSpaceOnUse" color-interpolation-filters="sRGB">
<feFlood flood-opacity="0" result="BackgroundImageFix"/>
<feBlend mode="normal" in="SourceGraphic" in2="BackgroundImageFix" result="shape"/>
<feColorMatrix in="SourceAlpha" type="matrix" values="0 0 0 0 0 0 0 0 0 0 0 0 0 0 0 0 0 0 127 0" result="hardAlpha"/>
<feOffset dy="4"/>
<feGaussianBlur stdDeviation="2"/>
<feComposite in2="hardAlpha" operator="arithmetic" k2="-1" k3="1"/>
<feColorMatrix type="matrix" values="0 0 0 0 0 0 0 0 0 0 0 0 0 0 0 0 0 0 0.25 0"/>
<feBlend mode="normal" in2="shape" result="effect1_innerShadow_810_132"/>
</filter>
</defs>
</svg>
