<svg width="78" height="76" viewBox="0 0 78 76" fill="none" xmlns="http://www.w3.org/2000/svg">
<g filter="url(#filter0_i_810_108)">
<path d="M70.9126 34.6172C70.7277 34.6172 70.5477 34.6554 70.3885 34.7455L65.3497 37.6554C65.0236 37.8433 64.8254 38.1981 64.8254 38.5756V44.3847C64.8254 44.762 65.0236 45.1163 65.3497 45.3047L66.6656 46.0643C67.305 46.3794 67.5407 46.3745 67.8316 46.3745C68.7782 46.3745 69.3187 45.8001 69.3187 44.802V39.0676C69.3187 38.9866 69.2485 38.9286 69.169 38.9286H68.5378C68.4569 38.9286 68.388 38.9866 68.388 39.0676V44.802C68.388 45.2443 67.9271 45.6893 67.1792 45.3154L65.8098 44.5131C65.7613 44.4867 65.7241 44.4402 65.7241 44.3847V38.5754C65.7241 38.5204 65.7608 38.4644 65.8098 38.4364L70.8378 35.5374C70.8606 35.5242 70.8864 35.5172 70.9127 35.5172C70.939 35.5172 70.9649 35.5242 70.9876 35.5374L76.0158 38.4366C76.0637 38.4654 76.1014 38.5188 76.1014 38.5757V44.3849C76.1014 44.4403 76.0735 44.4971 76.0265 44.5239L70.9876 47.4231C70.9444 47.4488 70.885 47.4488 70.8378 47.4231L69.5434 46.6528C69.5237 46.6422 69.5016 46.6366 69.4792 46.6366C69.4568 46.6366 69.4347 46.6422 69.415 46.6528C69.0577 46.8554 68.9905 46.8788 68.6554 46.9951C68.5729 47.024 68.4475 47.0687 68.6982 47.2092L70.3885 48.204C70.5479 48.2959 70.7288 48.3439 70.9128 48.3431C71.0968 48.3443 71.2777 48.2963 71.4369 48.2041L76.4758 45.3048C76.8019 45.1152 77 44.7621 77 44.3849V38.5756C77 38.1982 76.8019 37.844 76.4758 37.6557L71.4369 34.7458C71.279 34.6555 71.0977 34.6172 70.9126 34.6172Z" stroke="#121212" stroke-width="0.6"/>
<path d="M72.2607 38.7681C70.8258 38.7681 69.9713 39.3787 69.9713 40.3943C69.9713 41.4958 70.8194 41.7985 72.1966 41.9347C73.8441 42.096 73.9724 42.3379 73.9724 42.6622C73.9724 43.2247 73.5239 43.4646 72.4641 43.4646C71.1323 43.4646 70.8397 43.1321 70.7417 42.4697C70.7301 42.3986 70.6752 42.3412 70.6025 42.3412H69.9499C69.8696 42.3412 69.8002 42.4105 69.8002 42.4911C69.8002 43.3391 70.2614 44.3418 72.4641 44.3418C74.0585 44.3418 74.9781 43.716 74.9781 42.6194C74.9781 41.5325 74.2353 41.2406 72.6886 41.0362C71.1259 40.8293 70.9769 40.7281 70.9769 40.3622C70.9769 40.06 71.1033 39.6559 72.2607 39.6559C73.2947 39.6559 73.6768 39.8789 73.8334 40.5761C73.847 40.6416 73.9047 40.6937 73.9724 40.6937H74.6251C74.6653 40.6937 74.7042 40.6691 74.732 40.6402C74.7594 40.6094 74.7787 40.5748 74.7749 40.5333C74.6738 39.3328 73.8732 38.7681 72.2607 38.7681Z" stroke="#121212" stroke-width="0.6"/>
<path d="M41.2894 27.0001C41.2331 27.0001 41.1778 27.0148 41.1289 27.0427C41.0803 27.0712 41.0399 27.1118 41.0118 27.1606C40.9836 27.2094 40.9687 27.2646 40.9684 27.3209V35.5051C40.9684 35.5854 40.9311 35.6574 40.8615 35.6976C40.8274 35.7175 40.7886 35.728 40.7492 35.728C40.7097 35.728 40.671 35.7175 40.6368 35.6976L39.2995 34.9274C39.202 34.871 39.0913 34.8413 38.9786 34.8413C38.8659 34.8413 38.7552 34.871 38.6576 34.9274L33.3193 38.0084C33.1197 38.1237 32.9984 38.3451 32.9984 38.5755V44.7377C32.9984 44.9678 33.1199 45.1787 33.3193 45.2939L38.6576 48.375C38.7551 48.4316 38.8659 48.4614 38.9786 48.4614C39.0913 48.4614 39.202 48.4316 39.2995 48.375L44.6379 45.2939C44.7357 45.2377 44.8168 45.1566 44.8732 45.0589C44.9296 44.9612 44.9591 44.8504 44.9589 44.7377V29.3751C44.9588 29.2597 44.928 29.1464 44.8698 29.0467C44.8115 28.9471 44.7279 28.8647 44.6274 28.808L41.4499 27.032C41.4001 27.0042 41.3448 26.9993 41.2894 27.0001ZM6.94817 34.6921C6.84647 34.6961 6.75071 34.7139 6.65941 34.7669L1.32087 37.848C1.22308 37.9042 1.14189 37.9852 1.08554 38.0829C1.02919 38.1806 0.999676 38.2915 1 38.4042L1.01071 46.6742C1.01071 46.7891 1.07004 46.896 1.17114 46.9522C1.21962 46.9814 1.2751 46.9968 1.33165 46.9968C1.38821 46.9968 1.44369 46.9814 1.49216 46.9522L4.6588 45.1336C4.85938 45.0144 4.99038 44.8071 4.99038 44.5772V40.7152C4.99038 40.4847 5.11156 40.2733 5.3114 40.1588L6.65927 39.3779C6.75672 39.3212 6.86756 39.2916 6.98029 39.2922C7.09032 39.2922 7.20332 39.3197 7.30116 39.3779L8.64917 40.1588C8.74706 40.2149 8.82832 40.296 8.88471 40.3937C8.9411 40.4914 8.97059 40.6023 8.97019 40.7152V44.5771C8.97019 44.8069 9.10253 45.0157 9.30177 45.1335L12.4684 46.9522C12.5169 46.9814 12.5724 46.9968 12.6289 46.9968C12.6855 46.9968 12.741 46.9814 12.7894 46.9522C12.8382 46.924 12.8787 46.8834 12.9069 46.8346C12.9351 46.7858 12.95 46.7304 12.95 46.674L12.9604 38.4042C12.9611 38.2914 12.9317 38.1804 12.8753 38.0827C12.8189 37.9849 12.7375 37.9039 12.6395 37.848L7.30116 34.7669C7.2109 34.7139 7.11485 34.6962 7.0124 34.6921H6.94817ZM54.9189 34.7669C54.8074 34.7669 54.6981 34.7951 54.598 34.8525L49.2596 37.9336C49.1619 37.9899 49.0807 38.0709 49.0243 38.1686C48.968 38.2663 48.9384 38.3771 48.9386 38.4899V44.652C48.9386 44.8838 49.0692 45.0938 49.2702 45.2084L54.5659 48.2253C54.7614 48.3368 55.0002 48.3453 55.1971 48.2357L58.4066 46.4492C58.5084 46.3927 58.5773 46.2872 58.5777 46.1712C58.5782 46.1147 58.5637 46.0591 58.5354 46.0102C58.5072 45.9613 58.4664 45.9208 58.4173 45.893L53.0468 42.8118C52.9462 42.7544 52.8756 42.6383 52.8756 42.5229V40.5974C52.8756 40.4822 52.947 40.3766 53.0468 40.3192L54.7156 39.3563C54.7644 39.3281 54.8198 39.3132 54.8762 39.3132C54.9325 39.3132 54.9879 39.3281 55.0367 39.3563L56.7054 40.3192C56.7543 40.3473 56.7949 40.3878 56.8231 40.4366C56.8513 40.4855 56.8661 40.5409 56.866 40.5973V42.1164C56.8658 42.1728 56.8806 42.2282 56.9088 42.277C56.9369 42.3259 56.9775 42.3664 57.0264 42.3945C57.1265 42.4523 57.2475 42.4525 57.3473 42.3945L60.5462 40.5333C60.6438 40.4769 60.7248 40.3957 60.7812 40.2981C60.8375 40.2004 60.8672 40.0897 60.8672 39.9769V38.49C60.8672 38.2603 60.7453 38.049 60.5462 37.9336L55.2399 34.8525C55.1424 34.7961 55.0316 34.7664 54.9189 34.7669ZM38.9571 39.3672C38.9851 39.3672 39.0178 39.374 39.0428 39.3884L40.8722 40.4475C40.9219 40.4762 40.9579 40.5293 40.9579 40.5866V42.7048C40.9579 42.7623 40.9222 42.8153 40.8722 42.844L39.0428 43.9031C39.0183 43.917 38.9907 43.9244 38.9625 43.9244C38.9344 43.9244 38.9067 43.917 38.8823 43.9031L37.053 42.844C37.0032 42.8151 36.9673 42.7623 36.9673 42.7048V40.5866C36.9673 40.5292 37.0033 40.4765 37.053 40.4475L38.8823 39.3886C38.9048 39.3746 38.9306 39.3671 38.9571 39.3672Z" stroke="#121212" stroke-width="1.4"/>
<path d="M22.9847 34.7349C22.8735 34.7349 22.7635 34.7631 22.6639 34.8205L17.3255 37.8909C17.1258 38.0059 17.0045 38.2277 17.0045 38.4579V44.62C17.0045 44.8505 17.1259 45.061 17.3255 45.1764L22.6639 48.2574C22.7613 48.314 22.8721 48.3439 22.9848 48.3439C23.0975 48.3439 23.2083 48.314 23.3058 48.2574L28.6441 45.1764C28.7419 45.1201 28.823 45.039 28.8794 44.9413C28.9357 44.8436 28.9653 44.7328 28.965 44.62V38.4579C28.965 38.2274 28.8437 38.0059 28.6441 37.8909L23.3058 34.8205C23.2082 34.7642 23.0974 34.7346 22.9847 34.7349ZM54.9082 40.2338C54.8869 40.2338 54.8633 40.2338 54.8441 40.2445L53.8171 40.8436C53.7979 40.8543 53.7819 40.8698 53.7706 40.8885C53.7594 40.9073 53.7532 40.9288 53.7529 40.9507V42.1274C53.7529 42.1717 53.7784 42.2123 53.8171 42.2345L54.8441 42.8228C54.8826 42.8451 54.9236 42.8451 54.9617 42.8228L55.9887 42.2343C56.0078 42.2236 56.0237 42.2081 56.035 42.1894C56.0463 42.1706 56.0524 42.1493 56.0529 42.1274V40.9505C56.0524 40.9287 56.0463 40.9073 56.035 40.8885C56.0237 40.8698 56.0078 40.8543 55.9887 40.8436L54.9617 40.2444C54.9427 40.2332 54.9296 40.2338 54.9082 40.2338Z" stroke="#121212" stroke-width="1.4"/>
</g>
<defs>
<filter id="filter0_i_810_108" x="0.300003" y="0" width="77" height="80" filterUnits="userSpaceOnUse" color-interpolation-filters="sRGB">
<feFlood flood-opacity="0" result="BackgroundImageFix"/>
<feBlend mode="normal" in="SourceGraphic" in2="BackgroundImageFix" result="shape"/>
<feColorMatrix in="SourceAlpha" type="matrix" values="0 0 0 0 0 0 0 0 0 0 0 0 0 0 0 0 0 0 127 0" result="hardAlpha"/>
<feOffset dy="4"/>
<feGaussianBlur stdDeviation="2"/>
<feComposite in2="hardAlpha" operator="arithmetic" k2="-1" k3="1"/>
<feColorMatrix type="matrix" values="0 0 0 0 0 0 0 0 0 0 0 0 0 0 0 0 0 0 0.25 0"/>
<feBlend mode="normal" in2="shape" result="effect1_innerShadow_810_108"/>
</filter>
</defs>
</svg>
