<svg width="156" height="148" viewBox="0 0 156 148" fill="none" xmlns="http://www.w3.org/2000/svg">
<mask id="path-1-outside-1_316_6038" maskUnits="userSpaceOnUse" x="0" y="0" width="156" height="148" fill="black">
<rect fill="white" width="156" height="148"/>
<path d="M135.2 55.095C135.283 55.0919 135.365 55.0919 135.448 55.0888C136.083 55.0737 136.714 55.0279 137.339 54.9517V83.5906H132.439V54.9576C133.238 55.0489 134.057 55.0975 134.89 55.0975C134.991 55.0978 135.096 55.0978 135.2 55.095ZM57.5442 27.3103L58.7058 18.8958L61.0288 2H42.564L33.134 27.3103H57.5442ZM32.0673 40.8133C32.0673 45.9203 37.8321 50.2402 44.6542 50.2402C51.473 50.2402 57.2344 45.9203 57.2344 40.8133V32.1677H32.0673V40.8133ZM86.9711 27.3103L85.9077 19.5555L85.3191 15.2967L85.1507 14.0626L83.4926 2.0003H83.4866H65.9752L63.5602 19.5558L62.4908 27.3106H86.9685L86.9711 27.3103ZM74.7216 50.2402C81.5435 50.2402 87.3081 45.9203 87.3081 40.8133V32.1677H62.1318V40.8133C62.1318 45.9203 67.8965 50.2402 74.7216 50.2402ZM14.3965 50.2371C14.4577 50.2371 14.5193 50.2402 14.5803 50.2402C21.4024 50.2402 27.1669 45.9203 27.1669 40.8133V32.1677H2V40.8133C2 43.3849 3.46497 45.887 6.01773 47.6773C8.25191 49.24 11.1235 50.1457 14.1115 50.2309C14.2097 50.2309 14.3045 50.234 14.3965 50.2371ZM37.3418 2H20.4675C17.556 2 15.08 3.50771 13.8476 6.03393L3.45872 27.3103H27.9087L37.3418 2ZM117.4 40.8133V32.1677H92.2268V40.8133C92.2268 45.9203 97.9916 50.2402 104.814 50.2402C111.636 50.2402 117.4 45.9203 117.4 40.8133ZM90.0022 13.3966L91.9145 27.3103H116.334L106.895 2H88.439H88.4298L89.855 12.3235L90.0022 13.3966ZM146.009 27.3103L135.62 6.03423C134.388 3.508 131.908 2.0003 128.991 2.0003H112.119L121.559 27.3106L146.009 27.3103ZM147.468 40.8133V32.1677H122.3V40.8133C122.3 45.9203 128.065 50.2402 134.89 50.2402C134.951 50.2402 135.01 50.2371 135.071 50.2371C135.163 50.2343 135.255 50.2309 135.347 50.2309C138.341 50.1457 141.215 49.24 143.447 47.6773C146.003 45.887 147.468 43.3852 147.468 40.8133ZM93.1064 134.056C92.0892 132.18 91.5097 130.034 91.5097 127.757C91.5097 126.517 91.6813 125.313 92.0031 124.173C92.5118 122.371 93.3943 120.72 94.5622 119.313H64.2791V69.92C64.2791 68.5779 63.1734 67.4899 61.8204 67.4899H29.3995C28.0464 67.4899 26.9497 68.5782 26.9497 69.92V119.313H17.0292V54.9579C16.2294 55.0492 15.4111 55.0978 14.5806 55.0978C14.4765 55.0978 14.3753 55.0978 14.2712 55.095C14.1853 55.0919 14.0996 55.0919 14.0106 55.0888C13.3795 55.0737 12.7512 55.0279 12.129 54.9517V119.312H8.74837C7.39673 119.312 6.29972 120.401 6.29972 121.741V136.488C6.29972 137.829 7.39704 138.917 8.74837 138.917H97.6025C95.7269 137.698 94.173 136.026 93.1064 134.056ZM122.518 83.591V69.9206C122.518 68.577 121.421 67.4888 120.069 67.4888H75.1568C73.8022 67.4888 72.7051 68.577 72.7051 69.9206V92.5831C72.7051 93.9267 73.8024 95.012 75.1568 95.012H90.6212L89.9284 92.5315L89.9224 92.504L89.2817 90.2088H86.7962C86.4957 90.2088 86.1986 90.1906 85.9074 90.154H77.6051V72.3494H117.618V83.591H122.518ZM101.313 127.758C101.313 129.748 102.946 131.368 104.953 131.368H146.73C148.083 131.368 149.179 132.456 149.179 133.798C149.179 135.14 148.082 136.228 146.73 136.228H142.192C142.469 136.996 142.621 137.823 142.621 138.684C142.621 142.718 139.312 146 135.245 146C131.178 146 127.869 142.718 127.869 138.684C127.869 137.823 128.021 136.996 128.298 136.228H120.022C120.299 136.996 120.45 137.823 120.45 138.684C120.45 142.718 117.141 146 113.074 146C109.007 146 105.699 142.718 105.699 138.684C105.699 137.823 105.851 136.996 106.127 136.228H104.951C100.243 136.228 96.4121 132.428 96.4121 127.758C96.4121 123.906 99.0234 120.65 102.583 119.629L94.7665 91.6375C94.7635 91.6284 94.7606 91.6192 94.7572 91.6071L94.7053 91.4186C94.702 91.4035 94.6989 91.3882 94.696 91.3761L93.0104 85.345H86.7953C85.4406 85.345 84.3436 84.2568 84.3436 82.9161C84.3436 81.5724 85.4409 80.4843 86.7953 80.4843H94.8736C95.974 80.4843 96.9421 81.2139 97.2366 82.2658L98.9651 88.4551H148.979C150.594 88.4551 152.071 89.1997 153.03 90.501C153.99 91.8172 154.25 93.4406 153.753 94.9665L144.795 122.414C144.467 123.414 143.533 124.092 142.472 124.095L137.525 124.11C137.372 124.14 137.214 124.156 137.052 124.156H122.411L105.733 124.207C105.729 124.207 105.727 124.207 105.727 124.207C105.723 124.207 105.72 124.207 105.72 124.207C105.653 124.207 105.588 124.204 105.524 124.198C105.457 124.195 105.392 124.186 105.325 124.174C105.296 124.17 105.267 124.162 105.239 124.156H104.952C102.945 124.156 101.313 125.772 101.313 127.758ZM131.927 114.428C131.927 115.768 133.024 116.856 134.375 116.856C135.73 116.856 136.827 115.768 136.827 114.428V98.2277C136.827 96.8841 135.73 95.796 134.375 95.796C133.024 95.796 131.927 96.8841 131.927 98.2277V114.428ZM122.353 114.428C122.353 115.768 123.45 116.856 124.804 116.856C126.156 116.856 127.253 115.768 127.253 114.428V98.2277C127.253 96.8841 126.156 95.796 124.804 95.796C123.45 95.796 122.353 96.8841 122.353 98.2277V114.428ZM112.779 114.428C112.779 115.768 113.876 116.856 115.23 116.856C116.582 116.856 117.679 115.768 117.679 114.428V98.2277C117.679 96.8841 116.582 95.796 115.23 95.796C113.876 95.796 112.779 96.8841 112.779 98.2277V114.428Z"/>
</mask>
<path d="M135.2 55.095C135.283 55.0919 135.365 55.0919 135.448 55.0888C136.083 55.0737 136.714 55.0279 137.339 54.9517V83.5906H132.439V54.9576C133.238 55.0489 134.057 55.0975 134.89 55.0975C134.991 55.0978 135.096 55.0978 135.2 55.095ZM57.5442 27.3103L58.7058 18.8958L61.0288 2H42.564L33.134 27.3103H57.5442ZM32.0673 40.8133C32.0673 45.9203 37.8321 50.2402 44.6542 50.2402C51.473 50.2402 57.2344 45.9203 57.2344 40.8133V32.1677H32.0673V40.8133ZM86.9711 27.3103L85.9077 19.5555L85.3191 15.2967L85.1507 14.0626L83.4926 2.0003H83.4866H65.9752L63.5602 19.5558L62.4908 27.3106H86.9685L86.9711 27.3103ZM74.7216 50.2402C81.5435 50.2402 87.3081 45.9203 87.3081 40.8133V32.1677H62.1318V40.8133C62.1318 45.9203 67.8965 50.2402 74.7216 50.2402ZM14.3965 50.2371C14.4577 50.2371 14.5193 50.2402 14.5803 50.2402C21.4024 50.2402 27.1669 45.9203 27.1669 40.8133V32.1677H2V40.8133C2 43.3849 3.46497 45.887 6.01773 47.6773C8.25191 49.24 11.1235 50.1457 14.1115 50.2309C14.2097 50.2309 14.3045 50.234 14.3965 50.2371ZM37.3418 2H20.4675C17.556 2 15.08 3.50771 13.8476 6.03393L3.45872 27.3103H27.9087L37.3418 2ZM117.4 40.8133V32.1677H92.2268V40.8133C92.2268 45.9203 97.9916 50.2402 104.814 50.2402C111.636 50.2402 117.4 45.9203 117.4 40.8133ZM90.0022 13.3966L91.9145 27.3103H116.334L106.895 2H88.439H88.4298L89.855 12.3235L90.0022 13.3966ZM146.009 27.3103L135.62 6.03423C134.388 3.508 131.908 2.0003 128.991 2.0003H112.119L121.559 27.3106L146.009 27.3103ZM147.468 40.8133V32.1677H122.3V40.8133C122.3 45.9203 128.065 50.2402 134.89 50.2402C134.951 50.2402 135.01 50.2371 135.071 50.2371C135.163 50.2343 135.255 50.2309 135.347 50.2309C138.341 50.1457 141.215 49.24 143.447 47.6773C146.003 45.887 147.468 43.3852 147.468 40.8133ZM93.1064 134.056C92.0892 132.18 91.5097 130.034 91.5097 127.757C91.5097 126.517 91.6813 125.313 92.0031 124.173C92.5118 122.371 93.3943 120.72 94.5622 119.313H64.2791V69.92C64.2791 68.5779 63.1734 67.4899 61.8204 67.4899H29.3995C28.0464 67.4899 26.9497 68.5782 26.9497 69.92V119.313H17.0292V54.9579C16.2294 55.0492 15.4111 55.0978 14.5806 55.0978C14.4765 55.0978 14.3753 55.0978 14.2712 55.095C14.1853 55.0919 14.0996 55.0919 14.0106 55.0888C13.3795 55.0737 12.7512 55.0279 12.129 54.9517V119.312H8.74837C7.39673 119.312 6.29972 120.401 6.29972 121.741V136.488C6.29972 137.829 7.39704 138.917 8.74837 138.917H97.6025C95.7269 137.698 94.173 136.026 93.1064 134.056ZM122.518 83.591V69.9206C122.518 68.577 121.421 67.4888 120.069 67.4888H75.1568C73.8022 67.4888 72.7051 68.577 72.7051 69.9206V92.5831C72.7051 93.9267 73.8024 95.012 75.1568 95.012H90.6212L89.9284 92.5315L89.9224 92.504L89.2817 90.2088H86.7962C86.4957 90.2088 86.1986 90.1906 85.9074 90.154H77.6051V72.3494H117.618V83.591H122.518ZM101.313 127.758C101.313 129.748 102.946 131.368 104.953 131.368H146.73C148.083 131.368 149.179 132.456 149.179 133.798C149.179 135.14 148.082 136.228 146.73 136.228H142.192C142.469 136.996 142.621 137.823 142.621 138.684C142.621 142.718 139.312 146 135.245 146C131.178 146 127.869 142.718 127.869 138.684C127.869 137.823 128.021 136.996 128.298 136.228H120.022C120.299 136.996 120.45 137.823 120.45 138.684C120.45 142.718 117.141 146 113.074 146C109.007 146 105.699 142.718 105.699 138.684C105.699 137.823 105.851 136.996 106.127 136.228H104.951C100.243 136.228 96.4121 132.428 96.4121 127.758C96.4121 123.906 99.0234 120.65 102.583 119.629L94.7665 91.6375C94.7635 91.6284 94.7606 91.6192 94.7572 91.6071L94.7053 91.4186C94.702 91.4035 94.6989 91.3882 94.696 91.3761L93.0104 85.345H86.7953C85.4406 85.345 84.3436 84.2568 84.3436 82.9161C84.3436 81.5724 85.4409 80.4843 86.7953 80.4843H94.8736C95.974 80.4843 96.9421 81.2139 97.2366 82.2658L98.9651 88.4551H148.979C150.594 88.4551 152.071 89.1997 153.03 90.501C153.99 91.8172 154.25 93.4406 153.753 94.9665L144.795 122.414C144.467 123.414 143.533 124.092 142.472 124.095L137.525 124.11C137.372 124.14 137.214 124.156 137.052 124.156H122.411L105.733 124.207C105.729 124.207 105.727 124.207 105.727 124.207C105.723 124.207 105.72 124.207 105.72 124.207C105.653 124.207 105.588 124.204 105.524 124.198C105.457 124.195 105.392 124.186 105.325 124.174C105.296 124.17 105.267 124.162 105.239 124.156H104.952C102.945 124.156 101.313 125.772 101.313 127.758ZM131.927 114.428C131.927 115.768 133.024 116.856 134.375 116.856C135.73 116.856 136.827 115.768 136.827 114.428V98.2277C136.827 96.8841 135.73 95.796 134.375 95.796C133.024 95.796 131.927 96.8841 131.927 98.2277V114.428ZM122.353 114.428C122.353 115.768 123.45 116.856 124.804 116.856C126.156 116.856 127.253 115.768 127.253 114.428V98.2277C127.253 96.8841 126.156 95.796 124.804 95.796C123.45 95.796 122.353 96.8841 122.353 98.2277V114.428ZM112.779 114.428C112.779 115.768 113.876 116.856 115.23 116.856C116.582 116.856 117.679 115.768 117.679 114.428V98.2277C117.679 96.8841 116.582 95.796 115.23 95.796C113.876 95.796 112.779 96.8841 112.779 98.2277V114.428Z" stroke="white" stroke-width="4" mask="url(#path-1-outside-1_316_6038)"/>
</svg>
