<svg width="78" height="76" viewBox="0 0 78 76" fill="none" xmlns="http://www.w3.org/2000/svg">
<g filter="url(#filter0_i_810_169)">
<path d="M13.1283 74.7115C10.8964 74.7115 8.63522 74.7115 6.40338 74.7115C6.40338 74.3297 6.37402 73.9186 6.43275 73.5368C6.60895 72.0098 6.96134 70.5121 6.22718 69.0438C6.16845 68.897 6.19782 68.7207 6.16846 68.5446C6.46212 65.6373 6.72553 62.7298 7.75335 59.9987C8.45814 58.1487 9.9567 56.5044 10.779 54.713C10.3963 54.713 10.5431 54.331 10.3963 54.1255C10.7487 53.3913 11.9242 53.0685 12.4235 52.4224C13.9212 50.543 14.8894 48.2228 16.5632 46.4902C17.4442 47.2831 19.03 48.3403 19.9404 49.1332C22.1135 51.042 24.0516 53.5088 25.2263 56.1811C27.0176 60.2924 26.813 64.2277 25.051 68.3977C24.6105 69.4549 23.9351 70.3653 23.5827 71.4812C22.5255 72.3915 21.7326 73.5074 21.0572 74.7408C19.9412 74.7408 18.8253 74.7408 17.68 74.7408C16.0355 72.832 14.5966 70.747 13.3632 68.5446C13.2751 68.5739 13.2164 68.6033 13.1283 68.6033C13.1283 70.6296 13.1283 72.6558 13.1283 74.7115Z" stroke="black"/>
<path d="M67.0448 74.7098C53.1252 74.7098 39.2055 74.7098 25.2859 74.7098C25.2272 74.4161 25.4034 74.1812 25.4915 73.9169C26.3725 71.6557 27.1653 69.3651 27.5765 66.9864C28.3694 62.464 27.4003 58.2353 24.9041 54.3589C24.3756 53.5367 23.7295 52.8612 23.1128 52.0683C23.7589 51.9509 24.3462 51.9803 24.9041 51.9509C26.1669 51.9215 27.4003 51.9215 28.6337 51.6279C29.1035 51.6866 29.5146 51.4223 29.9258 51.2461C30.2194 51.3342 30.6012 51.158 30.8655 51.481C30.8655 51.5398 30.8655 51.5691 30.8655 51.6279C30.3075 53.3311 29.7789 55.0343 29.221 56.7376C28.6924 58.3821 28.2225 59.9973 28.9273 61.7886C29.3384 62.8164 29.6615 63.9617 29.6615 65.107C30.0726 67.5738 30.2194 70.0699 30.1607 72.801C31.3647 71.4501 32.3632 70.3048 33.4204 69.1008C33.6553 69.7469 33.8609 70.2755 34.0077 70.8041C34.1839 71.362 34.3894 71.3914 34.8006 71.0096C35.7403 70.0993 36.5919 69.1008 37.3848 68.0436C37.8547 67.4563 38.0309 66.6047 38.8531 66.311C39.646 67.0745 40.5857 67.5738 41.5842 67.9849C41.6136 68.1611 41.6136 68.3373 41.6723 68.4841C42.6414 70.2461 43.6692 71.9493 44.8145 73.682C45.1963 73.1827 45.255 72.6541 45.4606 72.1549C46.2241 70.2461 46.8995 68.2786 47.3106 66.2523C48.1329 66.6047 48.9258 66.9864 49.6599 67.4857C49.8361 69.3357 50.7171 70.9215 51.4806 72.566C51.7156 73.124 51.9505 72.6541 52.068 72.3898C52.391 71.6263 52.6553 70.8334 52.8609 70.0112C53.0664 69.2183 53.0664 68.3373 53.5363 67.6325C54.0942 68.0436 54.6522 68.4548 55.1808 68.8953C55.68 69.3064 55.9443 69.1008 56.0324 68.5722C56.2674 67.2507 56.5316 65.9586 56.561 64.6078C56.884 64.5784 56.9428 65.0776 57.1483 65.0189C58.0587 64.8133 58.2055 65.6062 58.646 66.0467C58.8516 66.2523 59.0278 66.4578 59.2333 66.6634C59.3802 66.8102 59.5564 67.0452 59.7913 66.8983C60.0262 66.7515 59.85 66.5459 59.8207 66.3697C59.6738 65.6356 59.5857 64.8721 59.4095 64.1673C59.1159 63.0807 59.0278 61.9354 58.4404 60.9076C58.1468 59.8798 57.8825 58.8813 57.5888 57.8535C57.7944 57.8535 57.9706 57.9416 58.0881 58.1178C59.3508 60.056 60.9953 61.7005 62.493 63.4625C62.6398 63.6387 62.7573 63.9323 62.9922 63.8149C63.2565 63.6974 63.1684 63.3744 63.0803 63.1394C62.8454 62.4347 62.5224 61.7299 62.3168 61.0251C61.935 59.7917 61.2009 58.7051 60.8191 57.5011C60.7604 57.3249 60.5255 57.0606 60.7898 56.9138C61.054 56.767 61.2596 57.0313 61.4065 57.2368C62.3168 58.4996 63.5796 59.3806 64.7542 60.379C64.9891 60.5552 65.1653 60.4965 65.3709 60.4084C65.4884 60.7608 65.6352 61.0838 65.7233 61.4362C66.7805 65.7824 66.8686 70.2461 67.0448 74.7098Z" stroke="black"/>
<path d="M67.0447 74.7107C66.8685 70.247 66.8098 65.7833 65.6939 61.4371C65.6058 61.0847 65.4589 60.7617 65.3415 60.4093C65.2827 60.2918 65.2534 60.2037 65.1946 60.0863C65.1946 59.8807 65.224 59.6751 65.0185 59.5577C64.343 56.3861 63.8144 53.1558 62.5811 50.1311C64.02 49.7787 63.8144 48.7509 63.5208 47.723C63.5208 47.6643 63.5208 47.6056 63.5208 47.5468C65.1066 47.2826 65.8701 48.4866 66.7511 49.3969C69.6583 52.4216 71.5671 56.0924 73.0355 59.9981C74.1514 62.9935 75.2379 66.0183 75.884 69.1898C76.2364 71.0399 76.7062 72.8606 76.9999 74.74C73.6521 74.7107 70.3338 74.7107 67.0447 74.7107Z" stroke="black"/>
<path d="M28.6337 51.6289C27.4004 51.9226 26.167 51.9226 24.9042 51.952C24.3169 51.952 23.7296 51.952 23.1129 52.0694C23.7296 52.8623 24.405 53.5378 24.9042 54.36C27.4004 58.2364 28.3694 62.4651 27.5766 66.9875C27.1654 69.3368 26.3725 71.6568 25.4916 73.918C25.4035 74.1823 25.1979 74.4172 25.286 74.7109C24.5518 74.7109 23.8177 74.7109 23.0835 74.7109C23.1129 74.4172 22.4366 73.8886 22.5834 73.6537C23.0533 72.9195 23.1129 72.1266 23.0835 71.3044C23.4065 70.2178 24.6106 69.4249 25.0511 68.3677C26.813 64.1977 26.6368 60.0864 24.8749 56.0045C23.7002 53.3322 21.8795 51.1591 19.7064 49.2503C18.796 48.4574 17.915 47.6351 17.0047 46.8422C16.2705 46.02 15.3014 45.8438 14.2736 45.8438C14.2149 44.4048 13.7744 43.054 13.5395 41.6444C13.0402 38.5022 12.7759 35.3306 12.7759 32.1297C12.6878 31.6892 13.1283 31.5424 13.2752 31.2194C14.3617 28.8113 15.83 26.6382 17.0047 24.2596C17.269 23.7016 17.4452 23.0555 18.0619 22.7031C18.0619 23.2611 17.915 23.8191 17.7682 24.3476C16.8579 27.4898 16.5642 30.6908 16.8872 33.8917C17.3571 38.0911 18.5611 42.1436 20.4699 45.9612C21.1453 47.2827 21.2922 47.3121 22.2025 46.1374C22.7605 45.4033 23.2597 44.581 23.8177 43.7588C24.5518 45.7263 25.5796 47.4589 26.7249 49.1328C27.3416 49.9844 28.1639 50.6892 28.6337 51.6289Z" stroke="black"/>
<path d="M1 74.7115C1.2643 70.0423 1.58733 65.4024 2.64451 60.8212C2.67388 60.6744 2.76198 60.4982 2.82071 60.3514C3.08501 60.5276 3.17311 59.7347 3.5255 60.2339C3.90727 60.7625 4.46522 60.645 4.93508 60.3808C5.22875 60.2339 5.52241 60.1165 5.75734 60.3808C6.08037 60.7331 6.90177 60.7919 7.31289 60.8212C6.46127 63.3467 6.7843 66.3125 6.43191 68.9554C5.75648 71.0111 4.20092 72.7146 3.1731 74.6821C2.46831 74.7115 1.73416 74.7115 1 74.7115Z" stroke="black"/>
<path d="M3.20239 74.7104C4.20085 72.7428 4.31831 70.511 4.99374 68.4554C5.34613 68.3673 5.69852 68.1617 5.93345 68.6609C5.99219 68.7784 6.10966 68.5728 6.19776 68.5435C6.19776 68.7197 6.16839 68.8959 6.25649 69.0427C6.99064 70.511 6.63825 72.038 6.46205 73.5357C6.40332 73.9175 6.43269 74.3286 6.43269 74.7104C5.31677 74.7104 4.25958 74.7104 3.20239 74.7104Z" stroke="black"/>
<path d="M13.1284 74.7119C13.1284 72.6563 13.1284 70.63 13.1284 68.5744C13.2165 68.545 13.2753 68.5156 13.3634 68.5156C14.6261 70.7181 16.0357 72.8031 17.6802 74.7119C16.1531 74.7119 14.6555 74.7119 13.1284 74.7119Z" stroke="black"/>
<path d="M23.5533 71.4805C23.5827 72.3027 23.6121 73.0956 23.1422 73.8298C22.9954 74.0647 23.0835 74.4171 23.0541 74.7401C22.3787 74.7401 21.7033 74.7401 21.0278 74.7401C21.7033 73.5067 22.4961 72.3908 23.5533 71.4805Z" stroke="black"/>
<path d="M65.1646 14.9501C70.3624 19.2082 73.0348 27.049 70.568 33.7739C69.5989 36.4462 68.1306 38.7074 65.7519 40.352C65.4876 40.5282 65.2233 40.6456 64.959 40.7924C64.2543 40.9393 63.5788 41.1448 63.109 41.7615C62.8153 42.0846 62.3161 41.8496 62.0224 42.1433C61.7581 42.2314 61.6407 42.7013 61.2295 42.4663C60.6422 42.4663 60.0549 42.437 59.4969 42.5251C59.262 42.5544 59.027 42.76 58.8508 42.4957C58.6159 42.1727 58.9977 42.0552 59.1445 41.9377C60.9359 40.117 62.1105 37.9733 62.6097 35.4772C62.874 34.2144 63.0502 32.9517 62.8153 31.6595C62.5804 30.3968 62.5216 30.3087 61.2295 30.1912C58.6747 29.9563 56.0904 29.9856 53.5062 30.015C53.2713 30.015 53.0363 30.0444 52.8014 30.0444C53.9467 31.3952 55.2975 32.2762 56.9127 32.8048C57.5587 33.0104 58.2048 33.1572 58.8215 33.4215C60.0549 33.8914 61.2882 34.3319 62.0811 35.4772C58.8508 36.9455 55.5618 38.1495 51.9204 37.7677C50.4227 37.6209 48.8957 37.3272 47.6917 36.2407C47.9266 34.9192 48.8369 33.9207 49.483 32.8048C49.7473 32.335 49.8354 31.9532 49.6592 31.4246C49.3362 30.573 49.1893 29.6626 48.8957 28.7816C48.602 27.8713 48.4846 26.8728 47.721 26.1387C48.4846 24.083 49.806 22.4972 51.5093 21.1758C55.092 18.4153 58.7627 15.8017 62.8153 13.7461C63.6376 14.1572 64.4304 14.4509 65.1646 14.9501Z" stroke="#121212"/>
<path d="M62.7573 13.659C58.7048 15.7146 55.034 18.3282 51.4513 21.0887C49.7187 22.4102 48.3972 23.9959 47.6631 26.0516C46.7234 25.7873 45.7836 25.8754 44.8439 26.0222C44.6971 25.6992 44.3741 25.3761 44.8733 25.0531C45.0495 24.9357 45.0201 24.7007 44.9907 24.4952C45.1376 24.4364 45.1669 24.2896 45.1669 24.1428C45.49 23.9959 45.5193 23.7316 45.49 23.438H45.4606C45.6074 23.4086 45.6368 23.3499 45.49 23.2618C45.6368 22.4395 45.813 21.6173 45.9011 20.795C46.1067 18.0933 45.4312 15.6559 43.6105 13.5709C42.2009 11.9851 40.4096 11.2803 38.354 11.0454C38.1484 10.6343 37.8841 10.7811 37.6198 10.9279C37.6785 10.9573 37.7666 11.016 37.8254 11.0454C37.6198 11.0748 37.4436 11.1041 37.238 11.1041C37.0325 10.7517 36.4158 11.2216 36.3864 10.7224C36.2983 9.75328 35.5348 9.43026 34.83 9.1366C34.4482 8.9604 34.1546 8.78419 34.0371 8.37306C38.0016 7.63891 42.0247 7.60954 46.0186 7.58017C46.4297 8.10876 47.0757 7.96194 47.6043 8.05004C49.8655 8.49054 51.9506 8.2556 53.5657 6.37616C53.83 6.0825 54.0943 6.17059 54.4173 6.17059C55.7975 6.25869 57.119 6.52299 58.4699 6.75792C60.966 7.43334 62.0819 9.31279 62.6399 11.6621C62.6693 12.3669 62.6986 13.0129 62.7573 13.659Z" stroke="black" stroke-width="0.4"/>
<path d="M61.1127 42.379C61.5239 42.614 61.612 42.1441 61.9056 42.056C61.7588 42.4671 62.0818 42.7608 62.1993 43.0545C62.7866 44.5228 63.0509 46.0498 63.5501 47.5475C63.5501 47.6062 63.5208 47.665 63.5501 47.7237C63.8438 48.7515 64.0493 49.75 62.6104 50.1317C62.1699 50.0436 61.7294 50.1317 61.3183 50.2198C59.4682 50.6897 57.5888 51.1596 55.7387 51.6294C55.4744 51.6882 55.0045 51.5707 55.0339 52.0112C55.0339 52.3636 55.445 52.3929 55.7387 52.5104C57.6769 53.3327 59.4682 54.4192 60.9659 55.9169C62.2874 57.209 63.5795 58.4718 65.0772 59.5877C65.0772 59.7933 65.0478 59.9988 65.2534 60.1163C65.3121 60.2338 65.3415 60.3218 65.4002 60.4393C65.1946 60.5274 65.0184 60.6155 64.7835 60.41C63.6089 59.4115 62.3461 58.5599 61.4357 57.2678C61.2889 57.0622 61.1127 56.7979 60.8191 56.9447C60.5548 57.0916 60.7897 57.3559 60.8484 57.5321C61.2302 58.7361 61.9643 59.8226 62.3461 61.056C62.581 61.7608 62.8747 62.4656 63.1096 63.1704C63.1977 63.4053 63.2858 63.699 63.0215 63.8458C62.7866 63.9633 62.6691 63.6402 62.5223 63.4934C61.0246 61.7314 59.3801 60.0869 58.1174 58.1487C57.9999 57.9725 57.8237 57.8845 57.6181 57.8845C57.6769 57.5614 57.2364 57.4146 57.3538 57.0328C57.5594 56.4749 57.1189 56.4161 56.7665 56.3868C54.8871 56.2106 53.037 55.7994 51.2163 55.3883C49.4837 54.6248 47.8098 53.7732 45.9891 53.1858C47.0756 52.7747 47.0756 52.8041 46.6351 51.7469C45.6367 49.3095 44.3739 47.0189 43.258 44.6402C42.9937 44.0529 42.4064 43.495 43.3167 42.937C43.3461 42.9076 43.3167 42.8195 43.3461 42.7608C44.1977 42.6433 44.6676 41.9092 45.4898 41.498C44.9025 42.3203 45.5192 42.5259 45.9597 42.8489C46.6058 43.3481 47.428 43.2013 48.1328 43.3775C49.3662 43.6712 50.629 43.9355 51.9211 44.0236C52.1854 44.0236 52.3028 44.2879 52.5671 44.3172C54.5053 44.4934 56.4728 44.6696 58.411 44.9339C60.6429 45.2569 61.5239 44.9045 61.1127 42.379Z" stroke="#121212"/>
<path d="M58.4406 6.84543C57.0897 6.63987 55.7389 6.3462 54.388 6.2581C54.065 6.22874 53.8007 6.17001 53.5364 6.46367C51.9212 8.34312 49.8362 8.57805 47.575 8.13755C47.0464 8.02009 46.4004 8.19629 45.9893 7.6677C44.844 6.72798 43.5225 6.11128 42.1423 5.70016C38.5596 4.64297 34.8594 4.31993 31.1299 4.34929C30.7481 4.34929 30.337 4.40803 29.9846 4.1731C31.8934 3.46831 33.8022 2.64606 35.8285 2.46986C36.7389 2.38176 37.6199 2.02937 38.5889 2.29366C39.1175 2.44049 39.558 2 40.116 2C41.9367 2 43.728 2.26429 45.5194 2.55796C47.0464 2.79289 48.5735 2.88099 50.0418 2.1762C50.1886 2.11747 50.3355 2.02936 50.5117 2.11746C52.6848 3.32148 55.0928 4.08501 57.0897 5.61206C57.5889 5.96446 58.0588 6.3462 58.4406 6.84543Z" stroke="black"/>
<path d="M7.01924 61.6126C6.60811 61.5833 6.10976 60.7608 5.78673 60.4084C5.5518 60.1441 5.25814 60.2322 4.96447 60.4084C4.49461 60.6727 3.93666 60.7902 3.5549 60.2616C3.2025 59.7918 3.11439 60.5553 2.8501 60.3791C3.78982 56.2384 5.81609 52.6557 8.72336 49.5723C9.48688 48.75 10.3385 48.0159 11.0727 47.1642C11.9243 46.1658 12.9815 45.7253 14.2736 45.8428C15.3014 45.8428 16.2705 45.9896 17.0047 46.8412C15.3308 48.5738 14.0965 50.7765 12.5988 52.6559C12.0996 53.2726 11.3076 53.5367 10.9552 54.3003C10.8377 54.3884 10.8075 55.1227 10.8369 55.2989C10.044 55.7687 9.86777 56.2092 9.36854 56.914C8.48755 58.2061 7.72403 60.2324 7.01924 61.6126Z" stroke="black"/>
<path d="M29.9552 4.14453C30.3076 4.37946 30.7187 4.32072 31.1005 4.32072C34.83 4.29136 38.5302 4.64374 42.1128 5.67156C43.5224 6.08269 44.8145 6.72875 45.9598 7.63911C41.9366 7.66848 37.9428 7.69785 33.9784 8.432C33.2736 8.49074 32.656 8.75481 31.9806 8.90164C30.9821 9.13657 28.9265 10.4287 27.8693 10.5168C27.605 8.57861 28.2813 7.25736 26.6074 6.87559C26.1376 6.75813 25.6677 6.72877 25.2566 6.49384C24.5518 5.87714 24.5518 5.87713 25.4621 5.43664C26.9305 4.79058 28.4575 4.43819 29.9552 4.14453Z" stroke="black"/>
<path d="M25.2857 6.49414C25.6968 6.75844 26.1667 6.7878 26.6365 6.8759C28.3104 7.25766 28.7215 7.78625 28.9858 9.69506V9.6657C28.9271 9.72443 28.8684 9.78317 28.8097 9.87127C26.8715 10.9872 25.3437 12.7489 23.6111 14.1879C23.1119 14.3934 22.6714 14.2466 22.2896 14.6284C21.3793 14.8927 20.3808 15.8911 19.5879 16.3316C18.8244 16.2435 18.5013 15.6562 18.1783 15.0689C18.0021 14.7458 17.8847 14.3934 17.4148 14.4522C19.4411 11.5743 21.8498 8.57914 24.992 6.81716C25.1389 6.7878 25.2563 6.6997 25.2857 6.49414Z" stroke="black"/>
<path d="M19.8239 16.0955C20.6168 15.655 21.0867 14.8034 21.997 14.5391C20.6168 17.0939 19.2366 19.6488 18.2088 22.3505C18.0619 22.4092 18.0326 22.5267 18.0619 22.6735V22.7029C17.4452 23.0553 17.269 23.7307 17.0047 24.2593C15.8595 26.6086 14.3618 28.8111 13.2752 31.2191C13.1284 31.5421 12.6879 31.689 12.776 32.1295C12.6292 29.3691 13.2165 26.6967 14.0094 24.0538C14.3324 22.9672 14.8316 21.9687 15.3015 20.9703C16.7992 19.3551 18.15 17.5638 19.8239 16.0955Z" stroke="black"/>
<path d="M19.8238 16.0947C18.15 17.5631 16.8285 19.3544 15.3308 20.9989C14.949 19.9417 15.2721 18.9433 15.5951 18.0035C16.065 16.6527 16.7991 15.4193 17.6507 14.274C18.1206 14.2153 18.2381 14.5677 18.4143 14.8907C18.7373 15.4193 19.0603 16.0066 19.8238 16.0947Z" stroke="black"/>
<path d="M62.7573 13.6589C62.728 13.0128 62.6693 12.3668 62.6399 11.7207C63.7852 12.1906 64.8424 12.7191 64.8717 14.1875C64.8717 14.393 64.9892 14.628 65.0479 14.8335C64.3138 14.3343 63.5209 14.0406 62.7573 13.6589Z" stroke="#121212"/>
<path d="M2.40967 37.2104C2.40967 36.1826 2.40967 35.1548 2.40967 34.127C2.43903 34.127 2.4684 34.127 2.4684 34.127C2.4684 35.1841 2.4684 36.212 2.4684 37.2692C2.43904 37.2692 2.40967 37.2398 2.40967 37.2104Z" fill="#FBFBFB"/>
<path d="M62.9922 41.6449C63.462 41.0282 64.1375 40.8226 64.8423 40.6758C64.3137 41.1456 63.6676 41.4393 62.9922 41.6449Z" fill="#0F304E"/>
<path d="M6.9319 60.7624C7.63669 59.3822 8.25338 57.9433 9.10501 56.6511C9.57487 55.9463 9.98599 55.1241 10.7789 54.6836C9.92726 56.4749 9.07564 58.2663 8.40022 60.1164C7.3724 62.8474 6.4914 65.6079 6.16838 68.5151C6.08028 68.5445 5.99218 68.7501 5.90408 68.6326C5.66915 68.1627 5.31675 68.3389 4.96436 68.427C5.34612 65.8134 6.08028 63.2879 6.9319 60.7624Z" stroke="black"/>
<path d="M10.7791 54.6825C10.7497 54.5063 10.8084 54.3889 10.9553 54.3008C11.1021 54.5063 10.9553 54.5944 10.7791 54.6825Z" fill="#010102"/>
<path d="M18.2085 22.3502C19.2364 19.6485 20.6166 17.0936 21.9968 14.5388C22.3786 14.1864 22.7016 13.7752 23.2008 13.5697C26.2549 12.953 29.309 13.1292 32.3631 13.4522C32.0694 13.9221 31.717 14.3626 31.5408 14.9205C30.6599 17.9452 31.0122 20.7938 32.9504 23.3487C33.7727 24.4352 34.8299 25.2575 35.8577 26.1091C36.2395 26.9901 35.4172 27.225 34.9767 27.5774C32.3925 29.6624 31.394 32.4816 30.9535 35.6238C30.6011 37.7675 30.6011 39.8819 31.5115 41.9375C33.0385 45.4027 32.598 48.5156 29.8963 51.2466C29.4852 51.4228 29.0741 51.6578 28.6042 51.6284C28.1343 50.6593 27.3415 49.9545 26.7248 49.1029C25.5795 47.429 24.5517 45.7258 23.8175 43.7289C23.2595 44.5805 22.7897 45.3734 22.2024 46.1075C21.292 47.3116 21.1452 47.2822 20.4697 45.9313C18.5609 42.1137 17.3276 38.0905 16.8871 33.8618C16.5347 30.6609 16.8577 27.4306 17.768 24.3177C17.9149 23.7891 18.0617 23.2312 18.0617 22.6732V22.6439C18.0911 22.5558 18.1498 22.4677 18.2085 22.3502Z" stroke="black"/>
<path d="M49.6893 67.4866C48.9257 67.0167 48.1622 66.6056 47.34 66.2532C45.7542 64.2857 44.4033 62.2007 43.7279 59.5577C43.4049 62.5824 42.5826 65.3135 41.6135 67.9858C40.5857 67.6041 39.6754 67.0755 38.8825 66.3119C38.3245 63.434 37.003 60.7617 36.5038 57.7076C35.7403 59.7926 35.1236 61.7602 33.9489 63.669C33.4791 61.9364 33.0973 60.4093 32.6862 58.8529C32.2457 56.7092 31.8052 54.5361 31.3941 52.3923C31.3353 52.0399 31.2179 51.7463 30.8655 51.5994C30.8655 51.5407 30.8655 51.5113 30.8655 51.4526C32.8037 51.3351 34.6537 52.0399 36.5625 52.1868C38.3539 52.3336 40.1452 52.686 41.9366 52.7741C42.2009 52.8328 42.4945 52.9209 42.7588 52.9796C42.9938 53.332 43.4049 53.4201 43.7279 53.5963C45.7542 54.6241 47.8098 55.5345 49.5718 57.0322C50.5996 57.8838 51.4219 58.7354 51.2163 60.2625C51.0695 61.349 51.2163 62.4943 51.0401 63.6102C50.8933 64.7849 50.4822 65.9008 50.1298 67.0461C50.071 67.281 49.9536 67.4572 49.6893 67.4866Z" stroke="#121212"/>
<path d="M41.9366 52.8043C40.1159 52.7162 38.3539 52.3638 36.5626 52.217C34.6537 52.0701 32.8037 51.3653 30.8655 51.4828C30.6012 51.1598 30.2488 51.336 29.9258 51.2479C32.6275 48.5168 33.0386 45.3746 31.5409 41.9388C30.6306 39.8831 30.6306 37.7687 30.983 35.625C31.2179 35.6544 31.1592 36.2123 31.3941 36.0068C31.7759 35.6837 32.0402 35.4488 32.187 36.1242C32.2751 36.5647 33.0092 36.3592 32.9505 36.8878C32.8624 37.7981 33.5085 37.71 34.0371 37.71C34.3014 37.71 34.6831 37.5338 34.83 37.7688C35.2411 38.4442 36.0046 38.7085 36.4745 39.2958C36.915 39.8831 37.3848 40.0006 37.9428 39.472C38.1483 39.7069 38.3833 39.9419 38.442 40.2942C38.3245 40.5879 38.0309 40.8228 38.119 41.2046C38.3833 42.3499 38.6476 43.4952 39.1174 44.5817C40.1746 46.9898 41.4667 49.3391 42.1128 51.9233C42.1422 52.2463 42.3477 52.5694 41.9366 52.8043Z" stroke="#121212"/>
<path d="M32.6568 58.8836C33.0679 60.4106 33.4497 61.9377 33.9196 63.6996C35.0942 61.7615 35.7109 59.8233 36.4744 57.7383C36.9737 60.7924 38.2951 63.4647 38.8531 66.3426C38.0308 66.6363 37.8253 67.4585 37.3554 68.0752C36.5625 69.1324 35.7109 70.1309 34.7712 71.0412C34.3601 71.4523 34.1251 71.423 33.9783 70.8356C33.8315 70.3071 33.6259 69.7785 33.391 69.1324C32.3338 70.3364 31.306 71.4817 30.1313 72.8325C30.2194 70.0721 30.0726 67.6053 29.6321 65.1386C30.4543 64.1989 30.7774 62.9948 31.306 61.9083C31.8052 60.9098 31.9814 59.7645 32.6568 58.8836Z" stroke="#121212"/>
<path d="M51.0696 63.6116C51.2458 62.4956 51.099 61.3797 51.2458 60.2638C51.4514 58.7367 50.6291 57.8851 49.6013 57.0335C47.8393 55.5652 45.7837 54.6255 43.7574 53.5976C43.405 53.4214 43.0233 53.3334 42.7883 52.981C42.8471 52.9222 42.9058 52.8341 42.9645 52.7754C43.082 52.7754 43.1701 52.7754 43.2876 52.7754C43.4638 53.0103 43.7281 52.9222 43.963 52.9222C44.6384 52.9222 45.3138 52.9516 45.9599 53.0984C47.7512 53.6857 49.4545 54.5374 51.1871 55.3009C51.1284 56.1819 51.7744 56.7105 52.2149 57.3272C53.2427 58.7955 54.1825 60.3519 55.3865 61.7028C55.6801 62.4663 56.3556 62.9655 56.6199 63.729C56.6199 63.8465 56.6199 63.9346 56.6199 64.0521C56.6199 64.2283 56.6199 64.4044 56.6199 64.5806C56.5611 65.9315 56.3262 67.2236 56.0913 68.5451C56.0032 69.0737 55.7389 69.2792 55.2396 68.8681C54.7111 68.4276 54.1531 68.0165 53.5951 67.6054C53.0665 66.9299 52.6848 66.1664 52.2149 65.4323C51.8038 64.8743 51.7744 64.0227 51.0696 63.6116Z" stroke="#121212"/>
<path d="M41.5842 67.9867C42.524 65.3144 43.3462 62.5833 43.6986 59.5586C44.374 62.2016 45.7249 64.2866 47.3107 66.2541C46.8995 68.2804 46.2241 70.2479 45.4606 72.1567C45.255 72.6266 45.2256 73.1846 44.8145 73.6838C43.6692 71.9512 42.612 70.2479 41.6723 68.486C41.6136 68.3391 41.6136 68.1629 41.5842 67.9867Z" stroke="#121212"/>
<path d="M32.6569 58.8824C31.9815 59.7634 31.776 60.8793 31.3061 61.8778C30.7775 62.9643 30.4545 64.1683 29.6322 65.108C29.6322 63.9334 29.3092 62.8175 28.8981 61.7897C28.1933 59.9983 28.6631 58.4125 29.1917 56.7386C29.7497 55.0354 30.2783 53.3322 30.8362 51.6289C31.1886 51.7757 31.3061 52.0694 31.3648 52.4218C31.8053 54.5655 32.2458 56.7386 32.6569 58.8824Z" stroke="#121212"/>
<path d="M55.3865 61.7593C54.1824 60.4084 53.2427 58.852 52.2149 57.3837C51.7744 56.767 51.1284 56.2384 51.1871 55.3574C53.0372 55.7686 54.8579 56.2091 56.7373 56.3559C57.0897 56.3852 57.5302 56.444 57.3246 57.0019C57.2072 57.3543 57.6183 57.5305 57.5889 57.8536C57.8826 58.8814 58.1469 59.8798 58.4406 60.9077C57.7945 62.1998 57.7945 62.1998 56.2968 61.7886C56.0032 61.7299 55.7095 61.7593 55.3865 61.7593Z" stroke="#121212"/>
<path d="M55.3865 61.7598C55.6801 61.7598 56.0032 61.7304 56.2968 61.8185C57.7945 62.2003 57.7945 62.2296 58.4406 60.9375C59.0279 61.936 59.1454 63.0813 59.4097 64.1972C59.5859 64.9313 59.6739 65.6655 59.8208 66.3996C59.8501 66.5758 60.0264 66.7814 59.7914 66.9282C59.5565 67.0751 59.3803 66.8695 59.2335 66.6933C59.0279 66.4877 58.8517 66.2822 58.6461 66.0766C58.235 65.6361 58.0588 64.8432 57.1485 65.0488C56.9429 65.1075 56.8842 64.6083 56.5611 64.6377C56.5611 64.4615 56.5611 64.2853 56.5611 64.1091C56.6786 64.1091 56.7961 64.0797 56.7961 63.9622C56.7961 63.8154 56.6786 63.8154 56.5611 63.8154C56.3849 62.9931 55.6801 62.4939 55.3865 61.7598Z" stroke="#121212"/>
<path d="M65.0186 59.5589C63.5503 58.4723 62.2288 57.1802 60.9073 55.8881C59.3803 54.3904 57.6183 53.3039 55.6801 52.4816C55.4158 52.3642 54.9753 52.3348 54.9753 51.9824C54.9753 51.5419 55.4158 51.6887 55.6801 51.6006C57.5302 51.1308 59.4097 50.6609 61.2597 50.1911C61.7002 50.0736 62.1113 50.0149 62.5518 50.103C63.8146 53.1571 64.3432 56.3873 65.0186 59.5589Z" stroke="#121212"/>
<path d="M65.1947 60.0872C64.9892 59.9697 64.9892 59.7642 65.0185 59.5586C65.2241 59.6761 65.1947 59.8816 65.1947 60.0872Z" fill="#002342"/>
<path d="M51.8624 44.0224C51.8624 43.0239 52.4204 42.2898 52.949 41.5262C53.5069 40.6746 53.4482 40.4984 52.391 40.3516C50.4528 40.0873 48.5147 39.9992 46.5471 40.3516C47.2813 39.6468 48.221 39.265 49.1607 38.8539C49.3957 38.7658 49.7187 38.7658 49.7774 38.5015C49.8361 38.1785 49.4838 38.0904 49.2488 37.9435C48.6615 37.5911 48.0742 37.2681 47.5456 36.8864C47.2519 36.6514 46.8408 36.299 47.6337 36.1522C48.8377 37.2388 50.3354 37.503 51.8624 37.6792C55.5039 38.061 58.7929 36.857 62.0232 35.3887C62.17 35.3887 62.3462 35.3887 62.493 35.418C61.9938 37.9142 60.8191 40.0579 59.0278 41.8786C58.881 42.0255 58.4992 42.1429 58.7341 42.4366C58.9103 42.7009 59.1453 42.4953 59.3802 42.466C59.9675 42.3779 60.5549 42.4366 61.1128 42.4072C61.5239 44.9327 60.6429 45.2558 58.3524 44.9621C56.4142 44.6978 54.476 44.5216 52.5085 44.3454C52.2442 44.2867 52.1267 44.0224 51.8624 44.0224ZM52.5966 43.993C52.5379 43.993 52.5085 43.9636 52.4791 43.9636C52.4791 43.993 52.4791 44.0224 52.5085 44.0224C52.5379 43.993 52.5672 43.993 52.5966 43.993Z" stroke="#121212"/>
<path d="M62.6977 35.478C62.5509 35.478 62.1104 35.3914 61.9636 35.362C61.1707 34.2167 59.9079 34.0391 58.7039 33.5692C58.0872 33.3343 57.4411 33.1875 56.7951 32.9819C55.1799 32.4533 53.5354 31.2507 52.3901 29.8999C52.6251 29.8999 53.1537 29.8999 53.3886 29.8999C55.9728 29.8999 58.5277 29.8705 61.1119 30.0761C62.404 30.1935 62.5802 30.2508 62.8152 31.5136C62.9914 32.8644 62.962 34.2153 62.6977 35.478Z" stroke="#121212"/>
<path d="M35.8579 26.1092C38.5596 27.2839 41.1438 26.814 43.6987 25.61C44.2273 25.3751 44.5796 24.9346 44.9614 24.5234C44.9614 24.729 45.0201 24.9639 44.8439 25.0814C44.3741 25.4044 44.6677 25.7275 44.8146 26.0505C43.2582 26.6084 41.7605 27.2545 40.3803 28.1942C36.915 30.5435 35.6816 35.2128 37.5611 38.9717C37.6492 39.1772 37.7666 39.3534 37.8841 39.5296C37.3262 40.0582 36.8563 39.9407 36.4158 39.3534C35.9753 38.7661 35.1824 38.5018 34.7713 37.8264C34.6245 37.5914 34.2427 37.797 33.9784 37.7676C33.4498 37.7383 32.8037 37.8264 32.8918 36.9454C32.9506 36.4168 32.2164 36.6224 32.1283 36.1819C31.9815 35.5064 31.7172 35.7414 31.3354 36.0644C31.1005 36.27 31.1592 35.712 30.9243 35.6826C31.3354 32.5404 32.3633 29.7213 34.9475 27.6363C35.4173 27.2251 36.269 26.9902 35.8579 26.1092Z" stroke="#121212" stroke-width="0.4"/>
<path d="M37.2666 11.1033C35.3872 11.3089 33.7141 12.1605 32.3339 13.4526C29.2798 13.1296 26.2257 12.9534 23.1716 13.5701C24.9042 12.1312 26.8424 11.0152 28.7806 9.89933C28.8393 9.8406 28.8981 9.78186 28.9568 9.69376V9.72314C30.014 9.63504 30.895 9.04771 31.9228 8.84215C32.5982 8.69532 33.6252 7.93178 34.33 7.87305C34.4474 8.28418 34.976 8.66595 35.3578 8.84215C36.0626 9.16518 36.8848 9.25326 36.9729 10.2224C37.0317 10.7216 37.061 10.7509 37.2666 11.1033ZM35.8579 11.1621C35.8872 11.1621 35.8872 11.1327 35.9166 11.1327C35.8872 11.1034 35.8872 11.1033 35.8579 11.1033C35.8285 11.1033 35.8285 11.1327 35.7991 11.1327C35.8285 11.1327 35.8579 11.1621 35.8579 11.1621Z" stroke="black" stroke-width="0.4"/>
<path d="M38.4412 11.1044C38.2297 11.1044 37.8714 11.1028 37.66 11.1028C37.5895 11.0693 37.4838 10.8436 37.4133 10.8101C37.7305 10.6762 38.2297 10.6356 38.4412 11.1044Z" fill="#010102"/>
<path d="M45.1375 24.2009C45.1962 23.9366 45.2549 23.7017 45.4605 23.4961C45.4899 23.7898 45.4605 24.0541 45.1375 24.2009Z" fill="#004F70"/>
<path d="M44.9614 24.5243C45.0202 24.4068 45.0789 24.2893 45.1376 24.1719C45.1083 24.3187 45.1083 24.4655 44.9614 24.5243Z" fill="#004F70"/>
<path d="M45.4312 23.4965C45.4312 23.4378 45.4605 23.379 45.4605 23.3203C45.6074 23.4084 45.578 23.4671 45.4312 23.4965Z" fill="#004F70"/>
<path d="M40.762 42.2324C41.5549 42.5848 42.4065 42.8785 43.2875 42.761C43.2875 42.8198 43.2875 42.9079 43.2581 42.9372C42.3477 43.4658 42.9351 44.0531 43.1994 44.6405C44.3447 46.9898 45.578 49.3097 46.5765 51.7471C47.017 52.8043 47.017 52.8043 45.9304 53.1861C45.255 53.0392 44.6089 52.9805 43.9335 53.0099C43.7867 52.5694 43.5518 52.6281 43.2581 52.863C43.1406 52.863 43.0525 52.863 42.9351 52.863C42.8763 52.2757 42.1128 51.8058 42.7295 51.1304C42.7589 51.1011 42.7295 50.9836 42.6708 50.8955C42.0247 49.5446 42.4358 47.9295 41.5842 46.6374C41.5842 46.608 41.5842 46.5786 41.5842 46.5493C41.2318 45.404 40.9088 44.2587 40.527 43.1134C40.3802 42.6729 40.4683 42.4674 40.762 42.2324Z" stroke="#121212"/>
<path d="M18.2086 22.3516C18.1498 22.469 18.1205 22.5571 18.0617 22.6746C18.0324 22.5278 18.0617 22.4103 18.2086 22.3516Z" fill="#019389"/>
<path d="M40.7621 42.2311C40.4978 42.466 40.3803 42.7009 40.5271 43.0827C40.9382 44.1986 41.2613 45.3733 41.5843 46.5186C41.5843 46.5479 41.5843 46.5773 41.5843 46.6067C42.4359 47.8988 42.0542 49.5139 42.6709 50.8648C42.7002 50.9235 42.759 51.0703 42.7296 51.0997C42.1129 51.7751 42.8764 52.245 42.9352 52.8323C42.8764 52.8911 42.8177 52.9792 42.759 53.0379C42.4947 52.9792 42.201 52.8911 41.9367 52.8323C42.3478 52.5974 42.1423 52.2744 42.0836 51.9513C41.4375 49.3671 40.1454 47.0178 39.0882 44.6098C38.6183 43.5232 38.354 42.3779 38.0897 41.2326C38.0016 40.8215 38.2953 40.6159 38.4128 40.3223C39.1763 40.939 39.793 41.7906 40.7621 42.2311Z" stroke="#121212"/>
<path d="M43.2874 52.8333C43.581 52.5984 43.8453 52.5396 43.9628 52.9801C43.7278 52.9801 43.4636 53.0682 43.2874 52.8333Z" fill="#262626"/>
<path d="M56.6199 63.7871C56.7373 63.7871 56.8548 63.8165 56.8548 63.9339C56.8548 64.0808 56.7373 64.0808 56.6199 64.0808C56.6199 63.9927 56.6199 63.8752 56.6199 63.7871Z" fill="#002342"/>
<path d="M52.5967 43.9942C52.538 43.9942 52.538 44.0236 52.5086 44.0236C52.5086 44.0236 52.5086 43.9942 52.4792 43.9648C52.538 43.9648 52.5674 43.9648 52.5967 43.9942Z" fill="#FBFBFB"/>
<path d="M32.6863 20.5007C31.776 16.2426 34.9769 12.8361 39.2644 13.5115C39.4993 13.5409 39.7049 13.5996 39.9104 13.629C39.7342 13.9227 39.3231 13.629 39.1469 13.952C39.3525 14.2751 39.8811 13.9227 39.9398 14.4513C38.0016 14.0695 36.2984 14.4513 34.8888 15.9196C33.5967 17.2998 33.4205 18.9443 33.5967 20.7063C33.2149 20.5594 33.3911 20.1777 33.2443 19.9134C33.1268 19.7372 33.2443 19.3848 32.9506 19.4142C32.5688 19.4729 32.8625 19.7666 32.8625 19.9428C32.8331 20.0896 32.8919 20.3245 32.6863 20.5007Z" stroke="#121212" stroke-width="0.4"/>
<path d="M42.9057 15.2729C45.8717 17.7396 44.9613 22.9668 41.6136 24.4352C41.5549 24.1709 42.289 23.8772 41.5842 23.6423C43.1406 22.4676 44.1097 21.0287 43.9629 18.973C43.8454 17.6222 43.17 16.565 42.289 15.6253C42.4652 15.4491 42.5827 15.2141 42.9057 15.2729Z" stroke="#121212" stroke-width="0.4"/>
<path d="M39.9103 25.0224C38.2658 25.2867 36.7387 25.0224 35.3585 24.0827C35.2998 23.9065 35.2998 23.7009 35.0355 23.8771C34.7125 23.7303 34.4775 23.4953 34.272 23.231C34.4775 23.1429 34.7125 23.0842 34.918 22.9961C35.3879 23.1723 35.5641 23.6422 36.034 23.8771C37.1792 24.4057 38.3833 24.3763 39.5873 24.5231C39.0881 24.9343 38.442 24.5525 37.8547 24.8168C38.5595 25.0224 39.2642 24.6406 39.9103 25.0224Z" stroke="#121212" stroke-width="0.4"/>
<path d="M34.9181 22.9967C34.7125 23.0848 34.4776 23.1435 34.272 23.2316C33.4204 22.5268 33.0093 21.5283 32.6863 20.5005C32.8918 20.3243 32.8331 20.1188 32.8331 19.8838C32.8331 19.7076 32.5394 19.414 32.9212 19.3552C33.2442 19.3259 33.1268 19.6783 33.2149 19.8545C33.3617 20.0894 33.1855 20.5005 33.5673 20.6473C33.8316 21.5283 34.2721 22.3212 34.9181 22.9967Z" stroke="#121212" stroke-width="0.4"/>
<path d="M42.9057 15.2735C42.612 15.2148 42.4652 15.4791 42.2596 15.6259C41.5255 15.156 40.85 14.51 39.9103 14.4219C39.881 13.8933 39.323 14.2457 39.1174 13.9226C39.2936 13.629 39.7341 13.8933 39.881 13.5996C39.9397 13.629 39.9984 13.629 40.0572 13.6583C40.1746 13.9814 40.4389 13.9226 40.6738 13.8933C41.6136 14.0695 42.3184 14.5393 42.9057 15.2735Z" stroke="#121212" stroke-width="0.4"/>
<path d="M39.9104 25.0229C39.2937 24.6411 38.5595 25.0229 37.8547 24.7879C38.4421 24.5236 39.0881 24.9348 39.5874 24.4943C39.7636 24.4943 39.9691 24.4943 40.1159 24.3474C40.7033 24.2887 41.2906 24.23 41.5843 23.6133C42.2891 23.8482 41.5843 24.1419 41.6136 24.4062C41.4962 24.5824 41.32 24.553 41.1438 24.5236C40.7326 24.553 40.3215 24.5236 40.1159 24.9641C40.0278 24.9935 39.9691 24.9935 39.9104 25.0229Z" stroke="#121212" stroke-width="0.4"/>
<path d="M40.0864 24.9932C40.292 24.5527 40.7325 24.5527 41.1142 24.5527C40.9087 24.9639 40.4388 24.8758 40.0864 24.9932Z" stroke="#121212" stroke-width="0.4"/>
<path d="M40.7031 13.8931C40.4682 13.8931 40.2039 13.9519 40.0864 13.6582C40.292 13.7169 40.5563 13.6582 40.7031 13.8931Z" fill="#010102"/>
<path d="M35.0356 23.848C35.2999 23.6718 35.2999 23.9068 35.3587 24.0536C35.2412 23.9949 35.1237 23.9361 35.0356 23.848Z" fill="#0F304E"/>
<path d="M35.8578 11.1623C35.8284 11.1329 35.8284 11.1329 35.7991 11.1036C35.8284 11.1036 35.8578 11.0742 35.8578 11.0742C35.8872 11.0742 35.8872 11.1036 35.9165 11.1036C35.9165 11.1623 35.8872 11.1623 35.8578 11.1623Z" fill="#006F8B"/>
<path d="M40.0865 24.3769C39.9397 24.5237 39.7635 24.5237 39.5579 24.5237C38.3539 24.4063 37.1793 24.4063 36.0046 23.8777C35.5054 23.6427 35.3292 23.1729 34.8887 22.9967C34.2427 22.3212 33.8022 21.5284 33.5672 20.6474C33.3617 18.8854 33.5379 17.2409 34.8593 15.8607C36.2689 14.363 37.9722 14.0106 39.9103 14.3924C40.8501 14.4805 41.4961 15.1265 42.2596 15.5964C43.1406 16.5655 43.8454 17.5933 43.9335 18.9441C44.1097 20.9998 43.1406 22.4387 41.5548 23.6134C41.085 23.8777 40.5858 24.1126 40.0865 24.3769ZM34.6538 19.4727C34.6244 21.6752 36.5332 23.584 38.7651 23.6134C40.9088 23.6427 42.9938 21.6752 42.9938 19.5608C42.9938 16.8298 41.085 15.4202 39 15.3908C36.6507 15.3614 34.6831 17.1821 34.6538 19.4727Z" stroke="#121212" stroke-width="0.4"/>
<path d="M40.0864 24.3767C40.5857 24.1418 41.0555 23.8775 41.5547 23.6426C41.2611 24.2299 40.6738 24.318 40.0864 24.3767Z" stroke="#121212" stroke-width="0.4"/>
<path d="M34.6538 19.4729C34.6832 17.1823 36.6214 15.3616 39 15.391C41.085 15.4203 42.9645 16.8299 42.9938 19.561C42.9938 21.6754 40.9382 23.6723 38.7651 23.6135C36.5333 23.5842 34.6538 21.6754 34.6538 19.4729ZM41.4374 19.326C41.4374 17.8577 40.3803 16.8006 38.8532 16.7712C37.4436 16.7418 36.2396 17.9458 36.2396 19.3554C36.2396 20.6769 37.5317 21.9397 38.8238 21.9397C40.1159 21.9397 41.4081 20.6475 41.4374 19.326Z" fill="#FBFBFB"/>
<path d="M41.4374 19.3269C41.4374 20.6483 40.1453 21.9405 38.7944 21.9405C37.473 21.9405 36.2102 20.6777 36.2102 19.3562C36.2102 17.9467 37.4142 16.7426 38.8238 16.772C40.3802 16.8014 41.4374 17.8585 41.4374 19.3269ZM41.1144 19.1507C41.085 18.3284 40.7032 17.9173 40.0865 17.8879C39.4111 17.8586 39.323 18.4459 39.323 18.9745C39.323 19.5324 39.4699 20.1491 40.1453 20.0904C40.7032 20.0317 41.085 19.5912 41.1144 19.1507Z" fill="#010102"/>
<path d="M41.1143 19.1506C41.0555 19.5911 40.6738 20.0315 40.1746 20.0609C39.4991 20.1196 39.3523 19.5029 39.3523 18.945C39.3523 18.4458 39.4404 17.8291 40.1158 17.8584C40.7032 17.8878 41.1143 18.3283 41.1143 19.1506Z" fill="#FBFBFB"/>
</g>
<defs>
<filter id="filter0_i_810_169" x="0.470894" y="0" width="77.114" height="80" filterUnits="userSpaceOnUse" color-interpolation-filters="sRGB">
<feFlood flood-opacity="0" result="BackgroundImageFix"/>
<feBlend mode="normal" in="SourceGraphic" in2="BackgroundImageFix" result="shape"/>
<feColorMatrix in="SourceAlpha" type="matrix" values="0 0 0 0 0 0 0 0 0 0 0 0 0 0 0 0 0 0 127 0" result="hardAlpha"/>
<feOffset dy="4"/>
<feGaussianBlur stdDeviation="2"/>
<feComposite in2="hardAlpha" operator="arithmetic" k2="-1" k3="1"/>
<feColorMatrix type="matrix" values="0 0 0 0 0 0 0 0 0 0 0 0 0 0 0 0 0 0 0.25 0"/>
<feBlend mode="normal" in2="shape" result="effect1_innerShadow_810_169"/>
</filter>
</defs>
</svg>
