<svg width="40" height="40" viewBox="0 0 40 40" fill="none" xmlns="http://www.w3.org/2000/svg">
<path fill-rule="evenodd" clip-rule="evenodd" d="M33.0652 16.7948C32.0205 25.4083 27.6091 31.9806 20 35.0951C12.3909 31.9806 7.9795 25.4083 6.93483 16.7948C8.6592 16.7468 10.2968 16.0281 11.4996 14.7915C12.7023 13.5549 13.3753 11.898 13.3754 10.1729H26.625C26.6251 11.898 27.2981 13.5549 28.5008 14.7915C29.7036 16.0281 31.3412 16.7468 33.0656 16.7948H33.0652ZM4.07792 31.8443C4.40053 31.8443 4.7159 31.9399 4.98414 32.1192C5.25239 32.2984 5.46146 32.5531 5.58492 32.8512C5.70838 33.1493 5.74068 33.4772 5.67774 33.7936C5.6148 34.1101 5.45945 34.4007 5.23133 34.6288C5.0032 34.8569 4.71256 35.0123 4.39614 35.0752C4.07973 35.1382 3.75175 35.1059 3.4537 34.9824C3.15564 34.859 2.90089 34.6499 2.72165 34.3816C2.54242 34.1134 2.44675 33.798 2.44675 33.4754C2.44675 33.0428 2.61861 32.6279 2.92451 32.322C3.23041 32.0161 3.6453 31.8443 4.07792 31.8443ZM7.9 7.04233C8.22262 7.04233 8.53798 6.94667 8.80623 6.76743C9.07447 6.5882 9.28354 6.33344 9.407 6.03539C9.53046 5.73733 9.56276 5.40936 9.49983 5.09294C9.43689 4.77653 9.28153 4.48588 9.05341 4.25776C8.82529 4.02964 8.53464 3.87428 8.21823 3.81134C7.90181 3.7484 7.57384 3.78071 7.27578 3.90417C6.97772 4.02762 6.72297 4.23669 6.54374 4.50494C6.3645 4.77318 6.26883 5.08855 6.26883 5.41117C6.26883 5.84378 6.44069 6.25867 6.74659 6.56458C7.05249 6.87048 7.46739 7.04233 7.9 7.04233ZM32.1 7.04233C31.7774 7.04233 31.462 6.94667 31.1938 6.76743C30.9255 6.5882 30.7165 6.33344 30.593 6.03539C30.4695 5.73733 30.4372 5.40936 30.5002 5.09294C30.5631 4.77653 30.7185 4.48588 30.9466 4.25776C31.1747 4.02964 31.4654 3.87428 31.7818 3.81134C32.0982 3.7484 32.4262 3.78071 32.7242 3.90417C33.0223 4.02762 33.277 4.23669 33.4563 4.50494C33.6355 4.77318 33.7312 5.08855 33.7312 5.41117C33.7311 5.84377 33.5593 6.25865 33.2534 6.56455C32.9475 6.87045 32.5326 7.04231 32.1 7.04233ZM1.63117 18.4091C1.30855 18.4091 0.993184 18.5047 0.72494 18.684C0.456696 18.8632 0.247625 19.118 0.124166 19.416C0.000706842 19.7141 -0.0315958 20.0421 0.0313431 20.3585C0.094282 20.6749 0.249636 20.9655 0.477758 21.1937C0.705881 21.4218 0.996527 21.5771 1.31294 21.6401C1.62936 21.703 1.95733 21.6707 2.25539 21.5473C2.55344 21.4238 2.8082 21.2147 2.98743 20.9465C3.16667 20.6782 3.26233 20.3629 3.26233 20.0403C3.26233 19.6076 3.09048 19.1927 2.78458 18.8868C2.47867 18.5809 2.06378 18.4091 1.63117 18.4091ZM38.3688 18.4091C38.6914 18.4091 39.0068 18.5047 39.2751 18.684C39.5433 18.8632 39.7524 19.118 39.8758 19.416C39.9993 19.7141 40.0316 20.0421 39.9687 20.3585C39.9057 20.6749 39.7504 20.9655 39.5222 21.1937C39.2941 21.4218 39.0035 21.5771 38.6871 21.6401C38.3706 21.703 38.0427 21.6707 37.7446 21.5473C37.4466 21.4238 37.1918 21.2147 37.0126 20.9465C36.8333 20.6782 36.7377 20.3629 36.7377 20.0403C36.7377 19.6076 36.9096 19.1928 37.2155 18.8869C37.5213 18.581 37.9362 18.4091 38.3688 18.4091ZM35.9221 31.8443C35.5995 31.8443 35.2841 31.9399 35.0159 32.1192C34.7476 32.2984 34.5385 32.5531 34.4151 32.8512C34.2916 33.1493 34.2593 33.4772 34.3223 33.7936C34.3852 34.1101 34.5406 34.4007 34.7687 34.6288C34.9968 34.8569 35.2874 35.0123 35.6039 35.0752C35.9203 35.1382 36.2482 35.1059 36.5463 34.9824C36.8444 34.859 37.0991 34.6499 37.2783 34.3816C37.4576 34.1134 37.5533 33.798 37.5533 33.4754C37.5532 33.0428 37.3814 32.6279 37.0755 32.322C36.7696 32.0161 36.3547 31.8443 35.9221 31.8443ZM28.8378 36.7377C28.5151 36.7377 28.1998 36.8333 27.9315 37.0126C27.6633 37.1918 27.4542 37.4466 27.3308 37.7446C27.2073 38.0427 27.175 38.3706 27.2379 38.6871C27.3009 39.0035 27.4562 39.2941 27.6843 39.5222C27.9125 39.7504 28.2031 39.9057 28.5195 39.9687C28.8359 40.0316 29.1639 39.9993 29.462 39.8758C29.76 39.7524 30.0148 39.5433 30.194 39.2751C30.3733 39.0068 30.4689 38.6914 30.4689 38.3688C30.4689 37.9362 30.2971 37.5213 29.9912 37.2154C29.6853 36.9095 29.2704 36.7377 28.8378 36.7377ZM11.1622 36.7377C11.4848 36.7377 11.8002 36.8333 12.0684 37.0125C12.3367 37.1918 12.5458 37.4465 12.6692 37.7446C12.7927 38.0426 12.825 38.3706 12.7621 38.687C12.6992 39.0034 12.5438 39.2941 12.3157 39.5222C12.0876 39.7503 11.7969 39.9057 11.4805 39.9687C11.1641 40.0316 10.8361 39.9993 10.5381 39.8758C10.24 39.7524 9.98523 39.5433 9.80599 39.2751C9.62675 39.0068 9.53108 38.6915 9.53108 38.3688C9.53108 37.9362 9.70293 37.5214 10.0088 37.2155C10.3147 36.9096 10.7296 36.7377 11.1622 36.7377ZM32.6 7.99467C32.2697 8.05821 31.9303 8.05821 31.6 7.99467V10.3269L28.5953 13.3317C28.784 13.6092 28.997 13.8694 29.2318 14.1093L32.449 10.8917C32.4969 10.8451 32.535 10.7894 32.5609 10.7278C32.5869 10.6663 32.6002 10.6001 32.6001 10.5333L32.6 7.99467ZM8.4 7.99467C8.0697 8.05825 7.7303 8.05825 7.4 7.99467V10.5339C7.39988 10.6007 7.4132 10.6669 7.43915 10.7284C7.46511 10.79 7.50317 10.8457 7.55108 10.8923L10.7683 14.1095C11.0031 13.8697 11.2161 13.6095 11.4048 13.3319L8.4 10.3269V7.99467ZM4.21458 19.5403H6.37558C6.44642 19.8765 6.52281 20.2099 6.60475 20.5403H4.21458C4.27821 20.21 4.27821 19.8705 4.21458 19.5403ZM3.57783 30.8917C3.90814 30.8281 4.24753 30.8281 4.57783 30.8917V28.5597L8.14392 24.9936C7.9957 24.6679 7.85433 24.3379 7.71983 24.0036L3.72892 27.9946C3.68101 28.0411 3.64295 28.0969 3.617 28.1584C3.59105 28.22 3.57773 28.2861 3.57783 28.3529V30.8917ZM10.6623 35.7851C10.9925 35.7215 11.332 35.7215 11.6623 35.7851V33.4531L13.153 31.9623C12.9064 31.7365 12.666 31.5055 12.4319 31.2693L10.8133 32.888C10.7654 32.9346 10.7273 32.9903 10.7014 33.0518C10.6754 33.1134 10.6621 33.1795 10.6623 33.2463V35.7857V35.7851ZM28.3378 35.7851C28.6681 35.7215 29.0075 35.7215 29.3378 35.7851V33.2461C29.3379 33.1793 29.3246 33.1131 29.2986 33.0516C29.2727 32.99 29.2346 32.9343 29.1868 32.8878L27.5681 31.2691C27.3341 31.5053 27.0937 31.7363 26.847 31.9621L28.3378 33.4528V35.7852V35.7851ZM35.4221 30.8917C35.7524 30.8281 36.0918 30.8281 36.4221 30.8917V28.3527C36.4222 28.2859 36.4089 28.2197 36.3829 28.1582C36.357 28.0966 36.319 28.0409 36.2711 27.9943L32.28 24.0036C32.1455 24.3378 32.0042 24.6678 31.856 24.9936L35.4221 28.5597V30.8917ZM35.7854 20.5399H33.3953C33.4774 20.2096 33.5538 19.8763 33.6244 19.5399H35.7854C35.7218 19.8702 35.7218 20.2096 35.7854 20.5399ZM14.3047 9.17292V5.69533C14.3047 4.18484 14.9047 2.73621 15.9728 1.66812C17.0409 0.600042 18.4895 0 20 0C21.5105 0 22.9591 0.600042 24.0272 1.66812C25.0953 2.73621 25.6953 4.18484 25.6953 5.69533V9.17292H23.2109V5.69533C23.2109 4.84375 22.8726 4.02704 22.2705 3.42487C21.6683 2.82271 20.8516 2.48442 20 2.48442C19.1484 2.48442 18.3317 2.82271 17.7295 3.42487C17.1274 4.02704 16.7891 4.84375 16.7891 5.69533V9.17292H14.3047ZM21.5494 20.0493L19.3657 22.2326L18.4506 21.3175C18.3564 21.2258 18.2299 21.1749 18.0985 21.1758C17.967 21.1767 17.8413 21.2293 17.7483 21.3222C17.6554 21.4152 17.6028 21.5409 17.6019 21.6724C17.601 21.8038 17.6518 21.9303 17.7435 22.0245L19.0122 23.2931C19.1059 23.3868 19.2331 23.4395 19.3657 23.4395C19.4983 23.4395 19.6254 23.3868 19.7192 23.2931L22.2565 20.7558C22.304 20.7096 22.3418 20.6545 22.3677 20.5935C22.3937 20.5326 22.4073 20.4671 22.4077 20.4009C22.4082 20.3347 22.3955 20.269 22.3703 20.2077C22.3452 20.1465 22.3081 20.0908 22.2613 20.044C22.2145 19.9971 22.1588 19.9601 22.0975 19.9349C22.0362 19.9098 21.9706 19.8971 21.9043 19.8975C21.8381 19.898 21.7726 19.9116 21.7117 19.9376C21.6508 19.9636 21.5956 20.0014 21.5494 20.0488V20.0493ZM20 18.1197C19.2975 18.1197 18.6108 18.328 18.0268 18.7182C17.4427 19.1085 16.9874 19.6632 16.7186 20.3122C16.4498 20.9612 16.3795 21.6754 16.5165 22.3643C16.6535 23.0533 16.9918 23.6862 17.4885 24.1829C17.9853 24.6796 18.6181 25.0179 19.3071 25.1549C19.9961 25.292 20.7102 25.2216 21.3592 24.9528C22.0082 24.684 22.5629 24.2287 22.9532 23.6447C23.3434 23.0606 23.5518 22.3739 23.5518 21.6714C23.5518 21.205 23.4599 20.7431 23.2815 20.3122C23.103 19.8812 22.8414 19.4897 22.5115 19.1599C22.1817 18.8301 21.7902 18.5684 21.3592 18.39C20.9283 18.2115 20.4664 18.1196 20 18.1197ZM16.7814 18.453C16.1449 19.0896 15.7114 19.9006 15.5357 20.7835C15.3601 21.6665 15.4503 22.5816 15.7948 23.4134C16.1393 24.2451 16.7227 24.9559 17.4712 25.4561C18.2197 25.9562 19.0997 26.2232 20 26.2232C20.9002 26.2232 21.7802 25.9562 22.5287 25.4561C23.2772 24.9559 23.8606 24.2451 24.2051 23.4134C24.5496 22.5816 24.6398 21.6665 24.4642 20.7835C24.2886 19.9006 23.8551 19.0896 23.2185 18.453C22.7958 18.0303 22.2941 17.695 21.7418 17.4663C21.1896 17.2375 20.5977 17.1198 20 17.1198C19.4022 17.1198 18.8103 17.2375 18.2581 17.4663C17.7058 17.695 17.2041 18.0303 16.7814 18.453ZM21.7283 13.4927C21.66 13.4788 21.5895 13.4794 21.5214 13.4943C21.4533 13.5092 21.389 13.5382 21.3328 13.5794C21.2765 13.6206 21.2295 13.673 21.1947 13.7335C21.1599 13.7939 21.1381 13.8609 21.1307 13.9302C21.1013 14.2093 20.9698 14.4676 20.7615 14.6555C20.5531 14.8435 20.2826 14.9477 20.002 14.9482C19.7215 14.9487 19.4506 14.8455 19.2416 14.6583C19.0326 14.4711 18.9001 14.2133 18.8698 13.9343C18.8632 13.8645 18.842 13.7968 18.8075 13.7357C18.773 13.6746 18.7259 13.6214 18.6695 13.5797C18.613 13.538 18.5484 13.5087 18.4799 13.4937C18.4113 13.4787 18.3404 13.4784 18.2717 13.4927C17.2655 13.7035 16.3075 14.1002 15.4467 14.6622C15.3873 14.7 15.3366 14.75 15.2979 14.8087C15.2592 14.8675 15.2332 14.9338 15.2218 15.0032C15.2104 15.0727 15.2138 15.1437 15.2317 15.2118C15.2496 15.2799 15.2816 15.3434 15.3258 15.3983C15.5024 15.6166 15.592 15.8927 15.5772 16.1732C15.5624 16.4537 15.4444 16.7189 15.2457 16.9175C15.0471 17.1161 14.782 17.2342 14.5015 17.249C14.221 17.2638 13.9449 17.1742 13.7265 16.9976C13.6722 16.9536 13.6093 16.9214 13.5418 16.9033C13.4743 16.8852 13.4037 16.8814 13.3347 16.8922C13.2656 16.9031 13.1996 16.9283 13.141 16.9663C13.0823 17.0043 13.0322 17.0542 12.9941 17.1128C12.4305 17.9751 12.0326 18.935 11.8209 19.9432C11.807 20.0115 11.8075 20.082 11.8224 20.1501C11.8373 20.2182 11.8663 20.2825 11.9075 20.3387C11.9487 20.395 12.0012 20.4421 12.0616 20.4769C12.122 20.5117 12.1891 20.5334 12.2584 20.5408C12.5375 20.5702 12.7958 20.7017 12.9837 20.91C13.1716 21.1184 13.2759 21.3889 13.2764 21.6695C13.2769 21.95 13.1736 22.2209 12.9865 22.4299C12.7993 22.639 12.5414 22.7714 12.2625 22.8018C12.1926 22.8083 12.1249 22.8295 12.0638 22.8641C12.0027 22.8986 11.9496 22.9456 11.9079 23.002C11.8662 23.0585 11.8369 23.1231 11.8219 23.1916C11.8069 23.2602 11.8066 23.3311 11.8208 23.3998C12.0317 24.406 12.4283 25.364 12.9903 26.2248C13.0282 26.2842 13.0781 26.3349 13.1369 26.3736C13.1957 26.4123 13.2619 26.4383 13.3314 26.4497C13.4008 26.4611 13.4719 26.4577 13.54 26.4398C13.608 26.4219 13.6716 26.3899 13.7264 26.3457C13.9448 26.1691 14.2209 26.0795 14.5014 26.0943C14.7819 26.1091 15.047 26.2271 15.2457 26.4258C15.4443 26.6244 15.5624 26.8895 15.5772 27.17C15.592 27.4505 15.5024 27.7266 15.3258 27.945C15.2817 27.9993 15.2496 28.0622 15.2315 28.1297C15.2133 28.1972 15.2096 28.2678 15.2204 28.3368C15.2313 28.4059 15.2565 28.4719 15.2945 28.5305C15.3325 28.5892 15.3824 28.6393 15.4409 28.6774C16.3034 29.2408 17.2634 29.6385 18.2717 29.85C18.34 29.8639 18.4105 29.8634 18.4786 29.8485C18.5467 29.8336 18.611 29.8046 18.6673 29.7634C18.7235 29.7223 18.7706 29.6698 18.8054 29.6093C18.8402 29.5489 18.862 29.4818 18.8693 29.4125C18.8987 29.1335 19.0302 28.8751 19.2385 28.6872C19.4469 28.4993 19.7174 28.395 19.998 28.3945C20.2785 28.394 20.5494 28.4973 20.7584 28.6845C20.9675 28.8716 21.0999 29.1295 21.1303 29.4084C21.1368 29.4783 21.158 29.546 21.1925 29.6071C21.227 29.6682 21.2741 29.7213 21.3305 29.763C21.387 29.8047 21.4516 29.834 21.5201 29.849C21.5887 29.864 21.6596 29.8644 21.7283 29.8501C22.7345 29.6392 23.6925 29.2426 24.5533 28.6806C24.6127 28.6427 24.6634 28.5928 24.7021 28.534C24.7408 28.4753 24.7668 28.409 24.7782 28.3395C24.7896 28.2701 24.7862 28.199 24.7683 28.1309C24.7504 28.0629 24.7184 27.9994 24.6743 27.9445C24.4975 27.7261 24.4079 27.45 24.4226 27.1694C24.4374 26.8889 24.5555 26.6237 24.7541 26.425C24.9528 26.2264 25.218 26.1083 25.4985 26.0935C25.7791 26.0788 26.0552 26.1684 26.2736 26.3452C26.3279 26.3892 26.3908 26.4213 26.4583 26.4394C26.5258 26.4576 26.5964 26.4613 26.6654 26.4505C26.7344 26.4396 26.8004 26.4144 26.8591 26.3764C26.9178 26.3384 26.9678 26.2885 27.006 26.23C27.5694 25.3677 27.9671 24.408 28.1788 23.4C28.1928 23.3317 28.1922 23.2612 28.1773 23.1931C28.1624 23.1249 28.1334 23.0607 28.0922 23.0044C28.0511 22.9482 27.9986 22.9011 27.9381 22.8663C27.8777 22.8315 27.8107 22.8097 27.7413 22.8023C27.4623 22.773 27.204 22.6415 27.0161 22.4331C26.8281 22.2247 26.7239 21.9543 26.7234 21.6737C26.7229 21.3931 26.8262 21.1222 27.0134 20.9132C27.2005 20.7042 27.4584 20.5718 27.7373 20.5414C27.8072 20.5349 27.8749 20.5136 27.936 20.4791C27.9971 20.4446 28.0502 20.3976 28.0919 20.3412C28.1336 20.2847 28.1629 20.2201 28.1779 20.1515C28.1929 20.083 28.1933 20.012 28.179 19.9433C27.9681 18.9372 27.5715 17.9792 27.0096 17.1183C26.9717 17.059 26.9218 17.0083 26.863 16.9696C26.8042 16.9309 26.738 16.9049 26.6685 16.8935C26.5991 16.8821 26.528 16.8855 26.4599 16.9034C26.3919 16.9213 26.3283 16.9534 26.2735 16.9975C26.0551 17.1742 25.779 17.2639 25.4984 17.2491C25.2179 17.2344 24.9527 17.1163 24.754 16.9176C24.5554 16.719 24.4373 16.4538 24.4225 16.1732C24.4078 15.8927 24.4974 15.6166 24.6742 15.3982C24.7182 15.3439 24.7503 15.2809 24.7684 15.2134C24.7865 15.1459 24.7903 15.0753 24.7794 15.0063C24.7685 14.9372 24.7433 14.8713 24.7053 14.8126C24.6673 14.7539 24.6175 14.7039 24.5589 14.6657C23.6966 14.102 22.7367 13.7042 21.7285 13.4926L21.7283 13.4927ZM22.8157 14.8693C22.5466 14.7576 22.2711 14.6622 21.9907 14.5834C21.8351 14.9849 21.5617 15.3299 21.2065 15.5732C20.8513 15.8165 20.4308 15.9467 20.0003 15.9467C19.5697 15.9467 19.1492 15.8165 18.794 15.5732C18.4388 15.3299 18.1654 14.9849 18.0098 14.5834C17.4471 14.7416 16.9052 14.9663 16.3956 15.2526C16.5692 15.6464 16.6197 16.0835 16.5404 16.5065C16.4612 16.9295 16.2559 17.3187 15.9516 17.623C15.6473 17.9273 15.258 18.1325 14.835 18.2117C14.412 18.2909 13.9749 18.2403 13.5811 18.0667C13.2947 18.5763 13.0701 19.1182 12.9118 19.6809C13.3133 19.8365 13.6583 20.1099 13.9016 20.4651C14.1449 20.8203 14.2751 21.2408 14.2751 21.6713C14.2751 22.1019 14.1449 22.5224 13.9016 22.8776C13.6583 23.2328 13.3133 23.5062 12.9118 23.6618C13.0701 24.2245 13.2947 24.7664 13.5811 25.276C13.9749 25.1024 14.412 25.0519 14.835 25.1311C15.258 25.2103 15.6472 25.4155 15.9515 25.7198C16.2558 26.0242 16.461 26.4134 16.5402 26.8364C16.6194 27.2594 16.5689 27.6965 16.3953 28.0903C16.9049 28.3766 17.4468 28.6012 18.0096 28.7594C18.1652 28.358 18.4385 28.0129 18.7937 27.7696C19.149 27.5263 19.5694 27.3961 20 27.3961C20.4306 27.3961 20.851 27.5263 21.2063 27.7696C21.5615 28.0129 21.8348 28.358 21.9904 28.7594C22.5531 28.6012 23.095 28.3766 23.6047 28.0903C23.4311 27.6965 23.3806 27.2594 23.4598 26.8364C23.539 26.4134 23.7442 26.0242 24.0485 25.7198C24.3528 25.4155 24.742 25.2103 25.165 25.1311C25.588 25.0519 26.0251 25.1024 26.4189 25.276C26.7053 24.7664 26.93 24.2245 27.0882 23.6618C26.6867 23.5062 26.3417 23.2328 26.0984 22.8776C25.8551 22.5224 25.7249 22.1019 25.7249 21.6713C25.7249 21.2408 25.8551 20.8203 26.0984 20.4651C26.3417 20.1099 26.6867 19.8365 27.0882 19.6809C26.93 19.1182 26.7054 18.5763 26.419 18.0667C26.0252 18.2402 25.5881 18.2907 25.1652 18.2115C24.7422 18.1322 24.353 17.927 24.0487 17.6227C23.7444 17.3184 23.5392 16.9293 23.46 16.5063C23.3807 16.0833 23.4312 15.6462 23.6047 15.2524C23.3496 15.1091 23.0861 14.9811 22.8157 14.8691V14.8693Z" fill="white"/>
</svg>
