<svg width="36" height="40" viewBox="0 0 36 40" fill="none" xmlns="http://www.w3.org/2000/svg">
<path d="M23.7554 34.08V39.4422C23.7554 39.7494 23.5049 40 23.1976 40H20.521C20.2138 40 19.9632 39.7494 19.9632 39.4422V34.08C19.9632 33.7728 20.2138 33.5222 20.521 33.5222H23.1976C23.5049 33.5222 23.7554 33.7728 23.7554 34.08ZM3.3311 23.108H0.654449C0.347277 23.108 0.0966797 23.3586 0.0966797 23.6658V39.4422C0.0966797 39.7494 0.347277 40 0.654449 40H3.3311C3.63827 40 3.88887 39.7494 3.88887 39.4422V23.6658C3.88887 23.3586 3.63827 23.108 3.3311 23.108ZM28.0977 3.13163L28.9664 1.62693C29.1424 1.32303 29.0387 0.933944 28.7348 0.757928C28.4309 0.581912 28.0419 0.685578 27.8658 0.989482L26.9971 2.49418C26.8211 2.79809 26.9247 3.18717 27.2287 3.36319C27.5325 3.5392 27.9216 3.43554 28.0977 3.13163ZM26.0937 3.01235C26.4457 3.01235 26.7311 2.72693 26.7311 2.3749V0.63745C26.7311 0.285418 26.4457 0 26.0937 0C25.7416 0 25.4562 0.285418 25.4562 0.63745V2.3749C25.4562 2.72693 25.7416 3.01235 26.0937 3.01235ZM25.2082 17.6579C24.4642 18.1124 23.5899 18.3744 22.6543 18.3744C19.9446 18.3744 17.7478 16.1778 17.7478 13.468C17.7478 10.7583 19.9445 8.56167 22.6543 8.56167C22.7702 8.56167 22.8852 8.56574 22.9991 8.57371L23.2955 4.83108C22.9012 4.80183 22.5021 4.79952 22.1006 4.82566L21.6585 3.17586L18.3705 4.05689L18.8126 5.70669C17.7822 6.21546 16.8845 6.9149 16.1523 7.74885L14.6725 6.8945L12.9704 9.84247L14.4502 10.6968C14.0941 11.7479 13.9371 12.875 14.0117 14.0218L12.3621 14.4638L13.2431 17.7518L14.8928 17.3098C15.4015 18.3402 16.101 19.238 16.935 19.9701L16.0807 21.4498L19.0286 23.1519L19.883 21.6721C20.9341 22.0282 22.0612 22.1853 23.208 22.1105L23.65 23.7602L26.938 22.8791L26.496 21.2295C26.8316 21.0637 27.1531 20.8778 27.4594 20.6736L25.2082 17.6579ZM34.1954 10.479C33.9706 9.35211 33.5274 8.30398 32.9113 7.38096L34.1195 6.17267L31.7125 3.76566L30.5042 4.97394C30.0388 4.66327 29.5415 4.39657 29.0183 4.1796L27.582 7.64725C29.3599 8.38446 30.6105 10.1367 30.6105 12.1811C30.6105 14.1271 29.4775 15.8083 27.8352 16.6014L29.2486 20.0832C29.6878 19.8859 30.1077 19.6531 30.5043 19.3883L31.7125 20.5965L34.1195 18.1895L32.9113 16.9812C33.5272 16.058 33.9706 15.01 34.1953 13.8829H35.9033V10.479L34.1954 10.479ZM24.0897 3.13163C24.2657 3.43554 24.6548 3.5392 24.9588 3.36319C25.2627 3.18717 25.3663 2.79809 25.1903 2.49418L24.3215 0.989482C24.1455 0.685578 23.7564 0.581912 23.4525 0.757928C23.1486 0.933944 23.045 1.32303 23.221 1.62693L24.0897 3.13163ZM25.3079 7.98797L27.1062 4.72008L24.701 4.30765L25.3079 7.98797ZM22.3903 27.646L21.3145 24.4856C21.2018 24.1528 20.8405 23.9744 20.5078 24.0872C20.1749 24.1999 19.9966 24.5611 20.1093 24.8939L20.6503 26.4829L4.14329 16.9527C3.83939 16.7781 3.45142 16.8829 3.27676 17.1869C3.1021 17.4908 3.20696 17.8788 3.51086 18.0534L20.0148 27.5819L18.3714 27.9073C18.0262 27.9747 17.8011 28.3091 17.8685 28.6543C17.9358 28.9994 18.2703 29.2246 18.6155 29.1572L21.9193 28.5031C22.311 28.4267 22.534 28.0145 22.3903 27.646ZM16.5756 30.0509H13.8988C13.5917 30.0509 13.3411 30.3015 13.3411 30.6087V39.4422C13.3411 39.7494 13.5917 40 13.8988 40H16.5755C16.8827 40 17.1333 39.7494 17.1333 39.4422V30.6087C17.1333 30.3015 16.8827 30.0509 16.5756 30.0509ZM9.95333 26.5794H7.27668C6.96951 26.5794 6.71891 26.8299 6.71891 27.1371V39.4422C6.71891 39.7494 6.96951 40 7.27668 40H9.95333C10.2605 40 10.5111 39.7494 10.5111 39.4422V27.1371C10.5111 26.83 10.2605 26.5794 9.95333 26.5794Z" fill="white"/>
</svg>
