<svg width="40" height="40" viewBox="0 0 40 40" fill="none" xmlns="http://www.w3.org/2000/svg">
<path d="M28.2419 10.6306C25.5878 8.25628 22.1596 7.16343 18.5884 7.56024C12.7729 8.20424 8.18679 12.9139 7.6859 18.7489C7.21754 24.2132 10.392 29.3131 15.4464 31.3167V35.4474C15.4464 37.9583 17.489 40.0009 20 40.0009C22.5109 40.0009 24.5535 37.9583 24.5535 35.4474V31.3167C29.2436 29.4562 32.3596 24.9027 32.3596 19.8353C32.3596 16.3225 30.8569 12.9659 28.2419 10.6241V10.6306ZM23.6883 30.2564C23.4281 30.3474 23.2525 30.5946 23.2525 30.8678V31.5509H16.7474V30.8678C16.7474 30.5946 16.5718 30.3474 16.3116 30.2564C11.5629 28.5781 8.55107 23.8879 8.98041 18.8595C9.42926 13.636 13.5274 9.42719 18.7315 8.84824C19.1608 8.80271 19.5901 8.77669 20.013 8.77669C22.7386 8.77669 25.3146 9.75244 27.3702 11.5934C29.712 13.688 31.0586 16.6933 31.0586 19.8353C31.0586 24.5059 28.0988 28.6886 23.6883 30.2499V30.2564Z" fill="white"/>
<path d="M20.6504 6.1798V3.11592C21.2229 2.86222 21.6262 2.29628 21.6262 1.62626C21.6262 0.728566 20.8976 0 19.9999 0C19.1022 0 18.3737 0.728566 18.3737 1.62626C18.3737 2.28978 18.777 2.86222 19.3494 3.11592V6.1798H20.6504Z" fill="white"/>
<path d="M38.2141 18.2148C37.5505 18.2148 36.9781 18.6182 36.7244 19.1906H33.6605V20.4916H36.7244C36.9781 21.0641 37.544 21.4674 38.2141 21.4674C39.1118 21.4674 39.8403 20.7388 39.8403 19.8411C39.8403 18.9434 39.1118 18.2148 38.2141 18.2148Z" fill="white"/>
<path d="M6.33934 19.1906H3.27547C3.02177 18.6182 2.45583 18.2148 1.78581 18.2148C0.888112 18.2148 0.159546 18.9434 0.159546 19.8411C0.159546 20.7388 0.888112 21.4674 1.78581 21.4674C2.44932 21.4674 3.02177 21.0641 3.27547 20.4916H6.33934V19.1906Z" fill="white"/>
<path d="M32.288 31.2052L30.1218 29.0391L29.2046 29.9563L31.3708 32.1225C31.1431 32.7079 31.2602 33.3909 31.7351 33.8658C32.3725 34.5033 33.4003 34.5033 34.0378 33.8658C34.6753 33.2283 34.6753 32.2005 34.0378 31.563C33.5695 31.0947 32.8799 30.9711 32.2945 31.1987L32.288 31.2052Z" fill="white"/>
<path d="M8.27127 5.81015C7.63377 5.17266 6.60597 5.17266 5.96848 5.81015C5.33098 6.44765 5.33098 7.47545 5.96848 8.11294C6.43684 8.5813 7.12638 8.7049 7.71183 8.47722L9.87801 10.6434L10.7952 9.72619L8.62904 7.56001C8.85672 6.97456 8.73963 6.29153 8.26476 5.81666L8.27127 5.81015Z" fill="white"/>
<path d="M30.1218 10.6434L32.288 8.47722C32.8735 8.7049 33.5565 8.58781 34.0314 8.11294C34.6689 7.47545 34.6689 6.44765 34.0314 5.81015C33.3939 5.17266 32.3661 5.17266 31.7286 5.81015C31.2602 6.27852 31.1366 6.96805 31.3643 7.55351L29.1981 9.71969L30.1153 10.6369L30.1218 10.6434Z" fill="white"/>
<path d="M9.87801 29.0391L7.71183 31.2052C7.12638 30.9776 6.44335 31.0947 5.96848 31.5695C5.33098 32.207 5.33098 33.2348 5.96848 33.8723C6.60597 34.5098 7.63377 34.5098 8.27127 33.8723C8.73963 33.404 8.86322 32.7144 8.63555 32.129L10.8017 29.9628L9.88452 29.0456L9.87801 29.0391Z" fill="white"/>
<path d="M17.5932 18.2148L17.1638 20.1664H18.2827L17.8534 18.2148H17.5932Z" fill="white"/>
<path d="M25.2039 13.9863H14.7959C13.3583 13.9863 12.1938 15.1507 12.1938 16.5883V23.0934C12.1938 24.531 13.3583 25.6954 14.7959 25.6954H25.2039C26.6416 25.6954 27.806 24.531 27.806 23.0934V16.5883C27.806 15.1507 26.6416 13.9863 25.2039 13.9863ZM18.8615 22.7681L18.5753 21.4671H16.871L16.5848 22.7681H15.2512L16.4416 17.421C16.5067 17.1218 16.7734 16.9136 17.0791 16.9136H18.3802C18.6859 16.9136 18.9461 17.1283 19.0176 17.421L20.2081 22.7681H18.8745H18.8615ZM24.7486 18.2146H23.7728V21.4671H24.7486V22.7681H21.4961V21.4671H22.4718V18.2146H21.4961V16.9136H24.7486V18.2146Z" fill="white"/>
</svg>
