<svg width="40" height="38" viewBox="0 0 40 38" fill="none" xmlns="http://www.w3.org/2000/svg">
<path d="M23.3224 25.457L20.5607 28.219C20.3187 28.0604 20.0298 27.9674 19.7188 27.9674C18.8693 27.9674 18.1805 28.6561 18.1805 29.5058C18.1805 30.3554 18.8692 31.0442 19.7188 31.0442C20.5685 31.0442 21.2573 30.3556 21.2573 29.5058C21.2573 29.2358 21.1872 28.9825 21.0652 28.7619L24.0632 25.7638V21.5312C23.8123 21.5372 23.5648 21.5418 23.3224 21.5435V25.457ZM20.6458 29.5058C20.6458 30.0179 20.2307 30.4327 19.7188 30.4327C19.2071 30.4327 18.792 30.0179 18.792 29.5058C18.792 28.994 19.2071 28.5789 19.7188 28.5789C20.2307 28.5789 20.6458 28.994 20.6458 29.5058Z" fill="white"/>
<path d="M20.7783 24.3694H16.617L15.0238 25.9625C14.7977 25.8315 14.5357 25.7554 14.2555 25.7554C14.0892 25.7554 13.9296 25.7827 13.7795 25.8314V26.4994C13.9189 26.4158 14.0812 26.3667 14.2555 26.3667C14.7675 26.3667 15.1826 26.7818 15.1826 27.2938C15.1826 27.8057 14.7675 28.2207 14.2555 28.2207C14.0812 28.2207 13.9189 28.1717 13.7795 28.0882V28.756C13.9296 28.8048 14.0892 28.832 14.2555 28.832C15.105 28.832 15.7939 28.1434 15.7939 27.2938C15.7939 26.9932 15.7062 26.7134 15.5571 26.4765L16.9237 25.11H21.5186V21.5019C21.2653 21.4862 21.0179 21.4658 20.778 21.4395V24.3694H20.7783Z" fill="white"/>
<path d="M38.4617 18.6538C38.1918 18.6538 37.9384 18.7237 37.7179 18.8459L34.7195 15.8478H32.5007C32.286 15.2985 31.9865 14.739 31.6155 14.1939H33.3113L35.0524 12.4528C35.2895 12.6021 35.5693 12.6897 35.8701 12.6897C36.7195 12.6897 37.4083 12.001 37.4083 11.1512C37.4083 10.3018 36.7197 9.61298 35.8701 9.61298C35.0203 9.61298 34.3315 10.3016 34.3315 11.1512C34.3315 11.4314 34.4077 11.6932 34.5384 11.9195L33.0046 13.4533H31.0571C29.8555 11.9986 28.1459 10.7462 26.1793 10.2222V9.14264H29.0753L30.6684 7.54978C30.8945 7.68069 31.1565 7.75666 31.4367 7.75666C32.2861 7.75666 32.9752 7.06804 32.9752 6.21829C32.9752 5.36884 32.2863 4.67992 31.4367 4.67992C30.5872 4.67992 29.8984 5.36869 29.8984 6.21829C29.8984 6.51891 29.986 6.79851 30.1351 7.03546L28.7685 8.40189H25.4387V10.0617C25.0388 9.99565 24.6307 9.95833 24.2151 9.95833C24.0626 9.95833 23.911 9.961 23.7602 9.96603V6.20378L26.522 3.44217C26.7639 3.60078 27.0529 3.69378 27.3639 3.69378C28.2133 3.69378 28.9024 3.0053 28.9024 2.15541C28.9022 1.30581 28.2132 0.617188 27.3637 0.617188C26.5143 0.617188 25.8255 1.30581 25.8255 2.15556C25.8255 2.42553 25.8955 2.67891 26.0176 2.89927L23.0193 5.89723V10.0122C22.4404 10.0633 21.8789 10.1508 21.3405 10.2714V7.86951L18.8827 5.41179C19.0007 5.19409 19.0678 4.94485 19.0678 4.67992C19.0678 3.83047 18.3784 3.1414 17.5288 3.1414C16.6797 3.1414 15.9906 3.83032 15.9906 4.67992C15.9906 5.52937 16.6795 6.21829 17.5288 6.21829C17.8448 6.21829 18.1385 6.12262 18.3832 5.95913L20.6002 8.1762V10.4618C18.7183 11.0111 17.1894 11.9738 16.3217 13.1686C16.8811 14.8727 17.1622 17.0427 17.1781 19.7667C18.6909 21.0418 21.1594 21.1984 24.215 21.1121C29.0043 20.9766 32.8902 20.7857 32.8902 17.7056C32.8902 17.4574 32.8623 17.1982 32.8135 16.9327C32.7924 16.8189 32.7675 16.7042 32.7381 16.5881H34.4127L37.1747 19.3501C37.0163 19.5921 36.9233 19.8809 36.9233 20.1919C36.9233 21.0416 37.6119 21.7302 38.4615 21.7302C39.3113 21.7302 40 21.0418 40 20.1919C40 19.3423 39.3114 18.6538 38.4617 18.6538ZM34.943 11.1512C34.943 10.6393 35.3583 10.2243 35.8701 10.2243C36.3823 10.2243 36.7968 10.6393 36.7968 11.1512C36.7968 11.6632 36.3823 12.0783 35.8701 12.0783C35.3583 12.0783 34.943 11.6632 34.943 11.1512ZM30.5095 6.21829C30.5095 5.70649 30.9246 5.29139 31.4365 5.29139C31.9485 5.29139 32.3636 5.70649 32.3636 6.21829C32.3636 6.73039 31.9485 7.14519 31.4365 7.14519C30.9246 7.14519 30.5095 6.73039 30.5095 6.21829ZM26.4367 2.15556C26.4367 1.64375 26.8518 1.22851 27.3637 1.22851C27.8757 1.22851 28.2908 1.64375 28.2908 2.15556C28.2908 2.66751 27.8757 3.08261 27.3637 3.08261C26.8518 3.08261 26.4367 2.66751 26.4367 2.15556ZM17.529 5.60682C17.017 5.60682 16.6019 5.19187 16.6019 4.67992C16.6019 4.16797 17.017 3.75287 17.529 3.75287C18.0409 3.75287 18.456 4.16797 18.456 4.67992C18.456 5.19202 18.0409 5.60682 17.529 5.60682ZM25.9952 12.8714H27.1047V18.3656H25.9952V12.8714ZM23.7541 17.1176H21.5579L21.1043 18.3656H19.9278L22.0675 12.8714H23.2407L25.4406 18.3656H24.2339L23.7541 17.1176ZM38.4617 21.1189C37.95 21.1189 37.5346 20.7041 37.5346 20.1919C37.5346 19.6802 37.95 19.2648 38.4617 19.2648C38.9739 19.2648 39.3887 19.6802 39.3887 20.1919C39.3886 20.7043 38.9739 21.1189 38.4617 21.1189Z" fill="white"/>
<path d="M25.3385 21.4931C25.9201 23.1149 27.2628 26.5305 28.2094 26.3776C28.978 26.2537 29.2848 24.9448 29.0064 23.3965C28.9925 23.3197 28.9772 23.2424 28.9605 23.1645C29.1015 23.1768 29.245 23.1837 29.3909 23.1837C29.8076 23.1837 30.1965 23.0542 30.5494 22.8396C30.571 22.8265 30.5922 22.8125 30.6135 22.7989V24.6544L32.2067 26.2476C32.0759 26.4739 31.9999 26.7357 31.9999 27.0159C31.9999 27.8653 32.6886 28.5541 33.5382 28.5541C34.3879 28.5541 35.0767 27.8655 35.0767 27.0159C35.0767 26.1661 34.3881 25.4774 33.5382 25.4774C33.2374 25.4774 32.9578 25.565 32.7207 25.7143L31.354 24.3479V22.1481C32.0159 21.3927 32.4467 20.3764 32.5431 19.6328C31.5043 21.1216 28.7194 21.3776 25.3385 21.4931ZM33.5382 26.089C34.0501 26.089 34.4652 26.5041 34.4652 27.016C34.4652 27.5278 34.0501 27.9429 33.5382 27.9429C33.0265 27.9429 32.6111 27.5278 32.6111 27.016C32.6111 26.5041 33.0264 26.089 33.5382 26.089Z" fill="white"/>
<path d="M21.8989 16.1911H23.3981L22.6412 14.1523L21.8989 16.1911Z" fill="white"/>
<path d="M8.54204 22.1827H9.22859V35.551C9.22859 36.5626 10.0486 37.382 11.0597 37.382C12.0708 37.382 12.8912 36.5626 12.8912 35.551V13.3369C13.404 14.3884 13.9269 16.4029 13.922 19.989C13.922 20.8059 13.8957 21.7027 13.8379 22.6877C13.7994 23.3406 14.298 23.9016 14.9514 23.9398C14.9751 23.9411 14.9985 23.9419 15.0218 23.9419C15.6445 23.9417 16.1664 23.4561 16.2034 22.8263C16.2635 21.7994 16.2915 20.8565 16.2915 19.9892C16.2896 16.6337 15.8811 14.4115 15.2731 12.8741C14.6723 11.3432 13.8135 10.4789 13.0169 10.0838C12.511 9.82894 12.0671 9.77148 11.7995 9.76807C11.7818 9.76733 11.7642 9.76526 11.7463 9.76526H7.81314C7.81388 9.79769 7.81432 9.83575 7.81447 9.88477C7.8121 10.4648 7.74827 12.1809 7.01359 14.1459L6.19346 13.8006C6.8615 11.9902 6.92785 10.3961 6.92592 9.88492C6.92592 9.8316 6.92533 9.79295 6.92459 9.76541H6.02464C5.9537 9.76541 5.88469 9.77281 5.81746 9.7851V9.78643C5.3603 9.83797 4.96357 10.0172 4.61674 10.2464C4.20697 10.5202 3.85362 10.8773 3.54811 11.2992C2.94271 12.1414 2.52273 13.2608 2.52051 14.5338C2.51903 15.4869 2.76812 16.5197 3.34567 17.5104C3.92189 18.5026 4.81562 19.4463 6.06684 20.283C6.26899 20.4183 6.49809 20.4834 6.72452 20.4834C7.10659 20.4834 7.48171 20.2987 7.71021 19.9572C8.07407 19.4134 7.92835 18.6775 7.38426 18.3137C6.38065 17.6412 5.76444 16.956 5.39422 16.3196C5.02532 15.6816 4.8913 15.0866 4.88997 14.5338C4.88937 14.0177 5.01377 13.5362 5.20377 13.1374C5.39096 12.7395 5.65071 12.43 5.85433 12.273C5.91742 12.2224 5.97118 12.1904 6.01235 12.1695L6.0396 12.5041C5.88484 12.6233 5.64745 12.8903 5.47182 13.2633C5.28404 13.6572 5.18556 14.0957 5.18585 14.5335C5.18689 14.8248 5.2285 15.1084 5.31084 15.3886L5.83923 14.1337L10.4283 16.0661L7.96271 21.9212L3.37381 19.9886L3.88635 18.7716C3.58054 18.4153 3.31324 18.0444 3.08918 17.6591C2.52169 16.6851 2.2227 15.604 2.22447 14.5333C2.22625 13.3058 2.61114 12.0956 3.30746 11.1264C3.64378 10.6615 4.02882 10.2833 4.45191 10.0001C4.87353 9.72172 5.36045 9.54549 5.79302 9.48729L5.79317 9.48981C5.8687 9.47752 5.94556 9.46952 6.02464 9.46952H8.19121C7.4084 9.30247 6.05929 9.04687 5.18881 9.05901C4.96386 9.06212 4.77031 9.08271 4.6274 9.12787C3.68969 9.42406 1.07321 11.2011 0.110621 16.4584C-0.613101 20.4114 2.36783 23.5057 4.58401 24.0426V20.9805L4.88019 21.1052V35.5512C4.88019 36.5628 5.70017 37.3822 6.71134 37.3822C7.49341 37.3822 8.15937 36.8908 8.42164 36.2003C8.49835 35.9983 8.54234 35.7801 8.54234 35.5512V22.1827H8.54204Z" fill="white"/>
<path d="M8.88552 8.92191C10.7258 8.92191 12.2176 7.4301 12.2176 5.58986C12.2176 3.74962 10.7258 2.25781 8.88552 2.25781C7.04528 2.25781 5.55347 3.74962 5.55347 5.58986C5.55347 7.4301 7.04528 8.92191 8.88552 8.92191Z" fill="white"/>
<path d="M6.06372 15.6797L6.19731 15.3622L9.30264 16.669L9.16905 16.9865L6.06372 15.6797Z" fill="white"/>
<path d="M5.79004 16.3203L5.92329 16.0029L9.02875 17.3063L8.8955 17.6238L5.79004 16.3203Z" fill="white"/>
</svg>
