<svg width="40" height="40" viewBox="0 0 40 40" fill="none" xmlns="http://www.w3.org/2000/svg">
<path d="M22.7652 33.5586C22.4201 32.9546 22.1534 32.3191 21.9651 31.6602L19.9176 31.3621C19.9019 31.3621 19.8784 31.3542 19.8627 31.3464C19.5097 31.2679 19.2587 30.9542 19.2508 30.5933V28.2399C19.2508 27.9026 19.4705 27.6202 19.7764 27.5103C19.8549 27.4711 20.4746 27.3927 20.5687 27.377L21.9416 27.1652C22.1298 26.4984 22.3809 25.863 22.726 25.2589L21.4866 23.6037C21.4709 23.5802 21.463 23.5488 21.4473 23.5174C21.2669 23.2193 21.3297 22.8349 21.565 22.5917L23.2359 20.9208C23.5183 20.6698 23.9263 20.6149 24.24 20.8424L24.6401 21.1326L25.9031 22.0583C26.4993 21.7131 27.1426 21.4621 27.8015 21.2581C27.8643 20.8267 28.029 19.6578 28.0918 19.2107C28.1467 18.8263 28.484 18.5517 28.8606 18.5517H31.2218C31.5984 18.5517 31.92 18.8263 31.9827 19.2028L32.2965 21.2425C32.6574 21.3444 33.0261 21.4699 33.3791 21.6112V6.96514H0V31.8955C0 33.0958 0.980584 34.0685 2.18082 34.0685H22.3887L22.7652 33.5586ZM24.2479 9.3813L29.4411 13.5311C30.0922 14.0175 30.0922 15.0922 29.4411 15.5786L24.2714 19.7127C24.0361 19.8932 23.7458 19.9951 23.4477 19.9951C22.2397 20.0265 21.667 18.3948 22.6319 17.6653L26.5228 14.5509L22.6084 11.4209C21.2826 10.307 22.8829 8.32227 24.2479 9.3813ZM10.7394 17.6653C12.0651 18.7714 10.4805 20.7561 9.09982 19.7127L3.92234 15.5786C3.27907 15.0922 3.27123 14.0175 3.92234 13.5311L9.11551 9.37346C10.4883 8.33012 12.073 10.307 10.7551 11.4209L6.84056 14.5509L10.7394 17.6653ZM13.4379 19.1009C13.3203 18.7714 13.3438 18.4105 13.4928 18.0967L17.5172 9.82061C18.3173 8.29089 20.5923 9.39699 19.8706 10.9738L15.8462 19.2421C15.3913 20.2776 13.7674 20.1834 13.4379 19.1009ZM33.3712 2.88591C33.3712 1.68568 32.3907 0.712937 31.1983 0.712937H2.18082C0.980584 0.705093 0 1.68568 0 2.88591V6.0787H33.3712V2.88591ZM3.22416 4.87062C1.27084 4.8157 1.26299 1.9524 3.22416 1.90533C5.17749 1.96024 5.16964 4.8157 3.22416 4.87062ZM7.25632 4.87062C5.303 4.8157 5.303 1.9524 7.25632 1.90533C9.20965 1.96024 9.2018 4.8157 7.25632 4.87062ZM11.2885 4.87062C9.33516 4.8157 9.33516 1.9524 11.2885 1.90533C13.2418 1.96024 13.234 4.8157 11.2885 4.87062ZM28.4526 4.87062H23.1967C22.373 4.87062 21.7141 4.20382 21.7141 3.38797C21.7141 2.57213 22.3809 1.90533 23.1967 1.90533H28.4526C30.406 1.96024 30.406 4.8157 28.4526 4.87062ZM37.3956 31.1581C37.4426 30.9777 37.5838 30.8443 37.7643 30.8208L40 30.4992V28.3419L37.7721 28.0046C37.5917 27.9732 37.4426 27.8398 37.4034 27.6594C36.5954 24.396 35.5599 26.2474 37.8819 23.1487L36.3601 21.6268L34.5479 22.9526C34.2028 23.2036 33.8655 22.8271 33.5595 22.6937C33.0025 22.3956 32.3985 22.1917 31.7866 22.0348C31.6062 21.9955 31.4728 21.8543 31.4493 21.6661L31.112 19.4382H28.9547C28.8763 19.9951 28.7115 21.1169 28.6331 21.6739C28.5782 22.0897 28.0918 22.074 27.7858 22.1917C27.1896 22.3799 26.6327 22.6388 26.1071 22.9683C25.8639 23.1409 25.5815 22.9526 25.3854 22.7879L23.7929 21.6112L22.2632 23.1409L23.6203 24.953C23.7223 25.102 23.738 25.2982 23.6439 25.455C23.2281 26.1297 22.9378 26.8828 22.7496 27.6516C22.7103 27.832 22.5613 27.9653 22.3809 27.9967C21.8553 28.0752 20.6707 28.2556 20.153 28.334V30.4913L22.3965 30.813C22.577 30.8365 22.726 30.9699 22.7652 31.1503C22.9221 31.8014 23.1967 32.4839 23.5183 33.0487C23.6595 33.2919 23.8792 33.5743 23.6674 33.841L22.9771 34.7745C22.9692 34.7824 22.3338 35.6531 22.3338 35.6531L23.8557 37.175C26.8915 34.8922 25.103 35.8335 28.2957 36.6808C28.4683 36.72 28.6017 36.869 28.6331 37.0495L28.9547 39.2852H31.112L31.4493 37.0573C31.4728 36.8769 31.6062 36.7278 31.7866 36.6886C35.05 35.8728 33.2065 34.8373 36.2973 37.1671L37.8192 35.6453L36.4856 33.8332C36.3758 33.6841 36.3679 33.488 36.4699 33.3311C36.9014 32.6721 37.2073 31.9347 37.3956 31.1581ZM30.0765 33.7233C27.6839 33.7233 25.7305 31.7779 25.7305 29.3774C25.9737 23.6115 34.1949 23.6115 34.4303 29.3774C34.4303 31.77 32.477 33.7233 30.0765 33.7233ZM29.041 3.38797C29.041 3.71745 28.7743 3.98417 28.4526 3.98417H23.1967C22.8672 3.98417 22.6005 3.71745 22.6005 3.38797C22.6005 3.0585 22.8672 2.79962 23.1967 2.79962H28.4526C28.7743 2.79962 29.041 3.0585 29.041 3.38797ZM3.81251 3.38797C3.79682 4.17244 2.64366 4.16459 2.62797 3.38797C2.64366 2.61135 3.79682 2.61135 3.81251 3.38797ZM7.84468 3.38797C7.82899 4.16459 6.68366 4.16459 6.66797 3.38797C6.67582 2.61135 7.82899 2.61135 7.84468 3.38797ZM11.8768 3.38797C11.8611 4.16459 10.7158 4.16459 10.7001 3.38797C10.708 2.61135 11.8611 2.61135 11.8768 3.38797ZM10.2059 10.7227L5.85997 14.2058C5.75015 14.2921 5.68739 14.4176 5.68739 14.5509C5.68739 14.6843 5.75015 14.8177 5.85997 14.8961L10.1902 18.3556C10.6138 18.6929 10.1118 19.3519 9.66464 19.0146L4.48715 14.8726C4.38517 14.7941 4.33026 14.6765 4.33026 14.5431C4.33026 14.4176 4.38517 14.2999 4.48715 14.2136L9.68033 10.0638C10.1118 9.73431 10.6295 10.3697 10.2059 10.7227ZM23.1653 10.7227C22.7417 10.3854 23.2595 9.72647 23.6909 10.0716L28.8841 14.2215C28.9861 14.2999 29.041 14.4176 29.041 14.5509C29.041 14.6765 28.9861 14.7941 28.8841 14.8804L23.7145 19.0224C23.4164 19.2577 22.9927 19.0067 23.0398 18.6459C23.0477 18.536 23.1104 18.4341 23.1889 18.3635L27.5191 14.904C27.6289 14.8177 27.6917 14.6921 27.6917 14.5588C27.6917 14.4254 27.6289 14.2921 27.5191 14.2136L23.1653 10.7227ZM19.0704 10.5815L15.0461 18.8577C14.8029 19.3362 14.0577 18.991 14.293 18.489L18.3173 10.2128C18.5683 9.72647 19.3136 10.0873 19.0704 10.5815Z" fill="white"/>
</svg>
