<svg width="76" height="76" viewBox="0 0 76 76" fill="none" xmlns="http://www.w3.org/2000/svg">
<g filter="url(#filter0_i_810_289)">
<path d="M15.0107 26.7196C15.0854 26.7196 15.1459 26.6591 15.1459 26.5844C15.1459 26.5097 15.0854 26.4492 15.0107 26.4492C14.936 26.4492 14.8755 26.5097 14.8755 26.5844C14.8755 26.6591 14.936 26.7196 15.0107 26.7196Z" fill="#D9D9D9" stroke="#121212"/>
<path d="M16.904 24.2846C19.518 24.2846 21.6371 22.1655 21.6371 19.5515C21.6371 16.9375 19.518 14.8184 16.904 14.8184C14.29 14.8184 12.1709 16.9375 12.1709 19.5515C12.1709 22.1655 14.29 24.2846 16.904 24.2846Z" fill="#121212"/>
<path d="M6.4911 55.658C10.076 55.658 12.9822 52.7518 12.9822 49.1669C12.9822 45.5819 10.076 42.6758 6.4911 42.6758C2.90616 42.6758 0 45.5819 0 49.1669C0 52.7518 2.90616 55.658 6.4911 55.658Z" fill="#121212"/>
<path d="M39.3523 33.21C42.5638 33.21 45.1673 30.6065 45.1673 27.395C45.1673 24.1835 42.5638 21.5801 39.3523 21.5801C36.1408 21.5801 33.5374 24.1835 33.5374 27.395C33.5374 30.6065 36.1408 33.21 39.3523 33.21Z" fill="#121212" stroke="#121212" stroke-width="2"/>
<path d="M39.3523 33.21C42.5638 33.21 45.1673 30.6065 45.1673 27.395C45.1673 24.1835 42.5638 21.5801 39.3523 21.5801C36.1408 21.5801 33.5374 24.1835 33.5374 27.395C33.5374 30.6065 36.1408 33.21 39.3523 33.21Z" fill="#121212" stroke="#121212" stroke-width="2"/>
<path d="M39.3523 33.21C42.5638 33.21 45.1673 30.6065 45.1673 27.395C45.1673 24.1835 42.5638 21.5801 39.3523 21.5801C36.1408 21.5801 33.5374 24.1835 33.5374 27.395C33.5374 30.6065 36.1408 33.21 39.3523 33.21Z" fill="#121212" stroke="#121212" stroke-width="2"/>
<path d="M46.3844 71.6156C50.7909 71.6156 54.363 68.0434 54.363 63.6369C54.363 59.2304 50.7909 55.6583 46.3844 55.6583C41.9779 55.6583 38.4057 59.2304 38.4057 63.6369C38.4057 68.0434 41.9779 71.6156 46.3844 71.6156Z" fill="#121212"/>
<path d="M71.5373 12.9253C74.002 12.9253 75.9999 10.9273 75.9999 8.46263C75.9999 5.99799 74.002 4 71.5373 4C69.0727 4 67.0747 5.99799 67.0747 8.46263C67.0747 10.9273 69.0727 12.9253 71.5373 12.9253Z" fill="#121212"/>
<path d="M45.573 57.1477L39.8933 26.8559L70.3204 9.14062" stroke="#121212" stroke-width="2"/>
<path d="M15.4163 22.6631L7.03198 49.4389L46.6548 63.503L71.943 8.19336L17.1743 19.5528L37.5943 28.0724L11.2242 45.9229" stroke="#121212" stroke-width="2"/>
</g>
<defs>
<filter id="filter0_i_810_289" x="0" y="0" width="76" height="80" filterUnits="userSpaceOnUse" color-interpolation-filters="sRGB">
<feFlood flood-opacity="0" result="BackgroundImageFix"/>
<feBlend mode="normal" in="SourceGraphic" in2="BackgroundImageFix" result="shape"/>
<feColorMatrix in="SourceAlpha" type="matrix" values="0 0 0 0 0 0 0 0 0 0 0 0 0 0 0 0 0 0 127 0" result="hardAlpha"/>
<feOffset dy="4"/>
<feGaussianBlur stdDeviation="2"/>
<feComposite in2="hardAlpha" operator="arithmetic" k2="-1" k3="1"/>
<feColorMatrix type="matrix" values="0 0 0 0 0 0 0 0 0 0 0 0 0 0 0 0 0 0 0.25 0"/>
<feBlend mode="normal" in2="shape" result="effect1_innerShadow_810_289"/>
</filter>
</defs>
</svg>
