<svg width="76" height="76" viewBox="0 0 76 76" fill="none" xmlns="http://www.w3.org/2000/svg">
<g filter="url(#filter0_i_810_252)">
<mask id="mask0_810_252" style="mask-type:luminance" maskUnits="userSpaceOnUse" x="0" y="0" width="76" height="76">
<path d="M76 0H0V76H76V0Z" fill="white"/>
</mask>
<g mask="url(#mask0_810_252)">
<path d="M46.3072 65.1611C44.8035 63.2095 43.7428 60.9538 43.1988 58.5508C40.0963 59.3375 36.8561 59.4128 33.7204 58.771C30.5847 58.1293 27.6346 56.7871 25.0905 54.8449C22.5465 52.9026 20.4744 50.4104 19.029 47.5546C17.5837 44.6989 16.8024 41.5533 16.7438 38.3532C16.7257 38.0911 16.7257 37.828 16.7438 37.5659C16.8505 32.077 19.0785 26.8426 22.9605 22.9606C26.8425 19.0786 32.0769 16.8506 37.5658 16.7439C37.8279 16.7258 38.0909 16.7258 38.353 16.7439C43.842 16.8471 49.0778 19.0717 52.9623 22.9511C56.8468 26.8306 59.0783 32.0635 59.1886 37.5523C59.1999 37.6832 59.2044 37.8146 59.2022 37.946C59.2785 37.9347 59.3558 37.9302 59.4329 37.9325C59.4415 35.7249 60.325 33.6107 61.8898 32.0535C63.4547 30.4963 65.5731 29.6231 67.7807 29.6254C67.8534 29.6231 67.9261 29.6277 67.9979 29.639C66.6791 24.9196 64.2634 20.5788 60.9478 16.9706L69.3445 8.57394C70.1985 9.05582 71.1875 9.24298 72.1586 9.10649C73.1296 8.97 74.0287 8.51746 74.7168 7.81882C75.4049 7.12018 75.8438 6.21434 75.9655 5.24132C76.0872 4.2683 75.885 3.28227 75.3903 2.43565C74.8955 1.58903 74.1356 0.928958 73.2281 0.557458C72.3206 0.185959 71.3159 0.12372 70.3695 0.380361C69.4231 0.637002 68.5875 1.19823 67.992 1.9773C67.3965 2.75638 67.0742 3.70991 67.0749 4.69052C67.0725 5.34296 67.2163 5.98764 67.4957 6.57725L67.4982 6.58156L59.0303 15.0494C55.4072 11.7039 51.0421 9.26555 46.2936 7.93462C46.3049 8.00643 46.3094 8.07914 46.3072 8.1518C46.3089 8.9999 46.1761 9.84289 45.9136 10.6493C45.3828 12.3416 44.3258 13.8203 42.8964 14.87C41.4669 15.9198 39.7397 16.4859 37.9662 16.4859C36.1927 16.4859 34.4655 15.9198 33.036 14.87C31.6066 13.8203 30.5495 12.3416 30.0188 10.6493C29.7563 9.8429 29.6235 8.9999 29.6252 8.1518C29.6229 8.07914 29.6275 8.00643 29.6388 7.93462C24.9048 9.25532 20.5513 11.6795 16.9354 15.0082L16.9338 15.0065L8.57245 6.6587C9.05505 5.80486 9.24294 4.81582 9.10707 3.84449C8.97119 2.87317 8.51912 1.97365 7.82074 1.28502C7.12237 0.596388 6.21658 0.157 5.24344 0.0347877C4.2703 -0.0874246 3.284 0.114347 2.43703 0.608904C1.59006 1.10346 0.929605 1.86326 0.557768 2.77083C0.185931 3.6784 0.123426 4.68318 0.379918 5.62984C0.63641 6.57649 1.19761 7.41228 1.97676 8.008C2.7559 8.60371 3.7096 8.92616 4.69038 8.9255C5.34457 8.92994 5.99072 8.78118 6.57712 8.49114L15.0064 16.9204L15.0145 16.9285C11.6825 20.5458 9.25607 24.9018 7.93448 29.6389C8.0063 29.6276 8.07901 29.6231 8.15166 29.6253C8.99976 29.6236 9.84276 29.7564 10.6492 30.019C12.3415 30.5496 13.8202 31.6066 14.8701 33.0361C15.9199 34.4655 16.486 36.1928 16.486 37.9663C16.486 39.7399 15.9199 41.4671 14.8701 42.8966C13.8202 44.326 12.3415 45.383 10.6492 45.9137C9.84276 46.1762 8.99976 46.3091 8.15166 46.3073C8.07901 46.3096 8.0063 46.305 7.93448 46.2938C9.26497 51.0407 11.7022 55.4045 15.0461 59.0269L6.65856 67.4279C5.80474 66.9453 4.81572 66.7575 3.84441 66.8933C2.8731 67.0292 1.9736 67.4813 1.28499 68.1797C0.596371 68.878 0.156994 69.7838 0.034786 70.7569C-0.0874219 71.73 0.114346 72.7163 0.608895 73.5633C1.10344 74.4102 1.86323 75.0707 2.77078 75.4425C3.67833 75.8143 4.68309 75.8768 5.62973 75.6204C6.57637 75.3639 7.41215 74.8027 8.00786 74.0236C8.60356 73.2444 8.92602 72.2908 8.92536 71.31C8.92978 70.6558 8.78103 70.0097 8.491 69.4233L16.961 60.9533L16.9683 60.9459C20.5769 64.2625 24.9185 66.6789 29.6388 67.998C29.6275 67.9262 29.6229 67.8535 29.6252 67.7808C29.6224 66.9282 29.7553 66.0806 30.0188 65.2697C30.5494 63.5764 31.6071 62.0969 33.0376 61.047C34.4681 59.997 36.1967 59.4316 37.9712 59.4331C39.7457 59.4346 41.4733 60.003 42.902 61.0554C44.3307 62.1078 45.3859 63.5891 45.9136 65.2833C46.1761 66.0898 46.3089 66.9328 46.3072 67.7808C46.3095 67.8535 46.3049 67.9262 46.2936 67.998C46.9859 67.808 47.6646 67.6044 48.3297 67.3601C47.59 66.6901 46.9131 65.9541 46.3072 65.1611Z" stroke="#121212" stroke-width="2"/>
<path d="M37.9594 13.7721C39.0727 13.7734 40.1615 13.4444 41.0877 12.8267C42.014 12.209 42.7362 11.3304 43.1629 10.302C43.5896 9.27368 43.7016 8.14187 43.4847 7.04984C43.2678 5.95782 42.7318 4.95469 41.9446 4.16743C41.1573 3.38017 40.1542 2.84419 39.0622 2.62731C37.9701 2.41044 36.8383 2.52243 35.81 2.94911C34.7816 3.37579 33.903 4.09797 33.2853 5.02425C32.6676 5.95053 32.3386 7.03925 32.3399 8.1526C32.3436 9.64183 32.9369 11.069 33.9899 12.1221C35.043 13.1751 36.4702 13.7684 37.9594 13.7721Z" stroke="#121212" stroke-width="2"/>
<path d="M37.9594 62.1484C36.8472 62.1498 35.7604 62.4807 34.8362 63.0995C33.912 63.7182 33.1919 64.597 32.7669 65.6248C32.3419 66.6526 32.231 67.7832 32.4483 68.874C32.6657 69.9648 33.2014 70.9667 33.9878 71.7531C34.7742 72.5395 35.7761 73.0752 36.8669 73.2925C37.9576 73.5099 39.0883 73.399 40.1161 72.974C41.1439 72.549 42.0227 71.8289 42.6414 70.9047C43.2602 69.9805 43.5911 68.8937 43.5925 67.7815C43.5923 66.2876 42.9988 64.8549 41.9424 63.7985C40.886 62.7421 39.4533 62.1486 37.9594 62.1484Z" stroke="#121212" stroke-width="2"/>
<path d="M13.7712 37.9593C13.7698 36.8466 13.4385 35.7592 12.8192 34.8347C12.1999 33.9102 11.3203 33.1901 10.2917 32.7655C9.26313 32.3409 8.13174 32.2309 7.04061 32.4493C5.94948 32.6677 4.94762 33.2047 4.16172 33.9925C3.37582 34.7803 2.84118 35.7835 2.62541 36.8751C2.40963 37.9668 2.52241 39.0979 2.94949 40.1255C3.37657 41.153 4.09877 42.0309 5.02475 42.648C5.95073 43.2651 7.03891 43.5937 8.15168 43.5924C9.64349 43.5894 11.0731 42.9945 12.1267 41.9384C13.1803 40.8822 13.7718 39.4511 13.7712 37.9593Z" stroke="#121212" stroke-width="2"/>
<path d="M71.3099 67.0749C70.6575 67.0725 70.0128 67.2162 69.4232 67.4956L68.188 66.2604C69.9553 64.9492 71.3939 63.2453 72.3902 61.2831C73.3866 59.3209 73.9134 57.1541 73.9292 54.9535C73.945 52.7529 73.4493 50.5787 72.4812 48.6024C71.5132 46.6261 70.0992 44.9017 68.3508 43.5653C69.4333 43.454 70.4602 43.0312 71.3073 42.3483C72.1544 41.6653 72.7853 40.7514 73.1237 39.7172C73.462 38.683 73.4933 37.5729 73.2137 36.5213C72.9341 35.4697 72.3556 34.5218 71.5483 33.7922C70.741 33.0626 69.7395 32.5827 68.6651 32.4107C67.5906 32.2386 66.4894 32.3817 65.4946 32.8227C64.4998 33.2636 63.6542 33.9835 63.0602 34.8952C62.4662 35.8069 62.1492 36.8713 62.1477 37.9594C62.1453 39.0507 62.4665 40.1182 63.0707 41.027C61.9725 40.7643 60.8472 40.6322 59.718 40.6334C59.4872 40.6334 59.2565 40.6334 59.0257 40.647C58.8357 40.6605 58.6321 40.6741 58.4421 40.6877C57.6915 40.758 56.9474 40.8851 56.216 41.0677C52.8471 41.9296 49.9109 43.9965 47.9632 46.8773C46.3529 49.2214 45.4958 52.001 45.5064 54.845V54.8857C45.5044 55.8296 45.5999 56.7712 45.7914 57.6955C46.2226 59.8037 47.1271 61.7865 48.4365 63.4942C49.746 65.2018 51.4262 66.5897 53.3504 67.5531C55.2747 68.5166 57.3926 69.0303 59.5443 69.0556C61.6961 69.0809 63.8255 68.6171 65.7718 67.6993L67.4278 69.3552C67.0408 70.0181 66.8392 70.773 66.8442 71.5406C66.8442 72.4238 67.1061 73.2872 67.5968 74.0216C68.0875 74.756 68.7849 75.3284 69.6009 75.6664C70.4169 76.0044 71.3148 76.0928 72.1811 75.9205C73.0474 75.7482 73.8431 75.3229 74.4676 74.6983C75.0922 74.0738 75.5175 73.2781 75.6898 72.4118C75.8621 71.5455 75.7737 70.6476 75.4357 69.8316C75.0977 69.0156 74.5253 68.3182 73.7909 67.8275C73.0565 67.3368 72.1931 67.0749 71.3099 67.0749ZM54.5329 61.3875C54.3539 61.3912 54.176 61.3581 54.0103 61.2904C53.8445 61.2227 53.6944 61.1218 53.5691 60.9939C53.4433 60.8683 53.3435 60.7191 53.2754 60.5549C53.2072 60.3907 53.1722 60.2147 53.1722 60.0369C53.1722 59.8592 53.2072 59.6831 53.2754 59.5189C53.3435 59.3547 53.4433 59.2056 53.5691 59.08L57.8041 54.845L53.5691 50.61C53.3153 50.3562 53.1728 50.012 53.1728 49.6531C53.1728 49.2942 53.3153 48.9499 53.5691 48.6961C53.8229 48.4423 54.1672 48.2998 54.5261 48.2998C54.885 48.2998 55.2292 48.4423 55.483 48.6961L59.718 52.9311L63.953 48.6961C64.2068 48.4423 64.551 48.2998 64.9099 48.2998C65.2688 48.2998 65.6131 48.4423 65.8669 48.6961C66.1207 48.9499 66.2632 49.2942 66.2632 49.6531C66.2632 50.012 66.1207 50.3562 65.8669 50.61L61.6319 54.845L65.8669 59.08C65.9927 59.2056 66.0925 59.3547 66.1606 59.5189C66.2288 59.6831 66.2638 59.8592 66.2638 60.0369C66.2638 60.2147 66.2288 60.3907 66.1606 60.5549C66.0925 60.7191 65.9927 60.8683 65.8669 60.9939C65.6122 61.246 65.2683 61.3875 64.9099 61.3875C64.5515 61.3875 64.2076 61.246 63.953 60.9939L59.718 56.7589L55.483 60.9939C55.3596 61.1205 55.2118 61.2207 55.0484 61.2884C54.8851 61.3561 54.7097 61.3898 54.5329 61.3875Z" stroke="#121212" stroke-width="2"/>
<path d="M32.2856 55.5912C30.5952 53.0062 29.4285 50.1147 28.8515 47.0805C25.8121 46.4992 22.9161 45.3279 20.3272 43.6328C21.2334 46.4294 22.7897 48.9713 24.8684 51.05C26.9471 53.1287 29.489 54.685 32.2856 55.5912Z" stroke="#121212" stroke-width="2"/>
<path d="M37.9594 56.4884C40.2805 56.4884 42.7781 53.095 44.1761 47.5977C42.116 47.8802 40.0388 48.0208 37.9594 48.0184C35.8845 48.0208 33.8118 47.8802 31.7562 47.5977C33.1543 53.095 35.6519 56.4884 37.9594 56.4884Z" stroke="#121212" stroke-width="2"/>
<path d="M56.4603 38.244H56.4738V38.1082C56.4845 38.0592 56.4891 38.0091 56.4874 37.9589C56.4874 35.6378 53.094 33.1403 47.5967 31.7422C47.8793 33.8023 48.0199 35.8795 48.0175 37.9589C48.0184 39.6051 47.9278 41.25 47.746 42.8862C50.1224 40.5038 53.1573 38.8871 56.4603 38.244Z" stroke="#121212" stroke-width="2"/>
<path d="M55.5916 32.2865C54.6853 29.49 53.129 26.9481 51.0503 24.8694C48.9716 22.7907 46.4297 21.2344 43.6332 20.3281C45.3282 22.917 46.4995 25.813 47.0809 28.8524C50.1151 29.4294 53.0066 30.5962 55.5916 32.2865Z" stroke="#121212" stroke-width="2"/>
<path d="M45.3027 37.9605C45.3134 35.6824 45.1317 33.4076 44.7598 31.1601C40.2551 30.4362 35.6637 30.4362 31.159 31.1601C30.435 35.6648 30.435 40.2562 31.159 44.7609C35.6637 45.4849 40.2551 45.4849 44.7598 44.7609C45.1317 42.5134 45.3134 40.2385 45.3027 37.9605Z" stroke="#121212" stroke-width="2"/>
<path d="M28.3221 44.1757C27.7611 40.0502 27.7611 35.8677 28.3221 31.7422C22.8248 33.1403 19.4449 35.6378 19.4449 37.9589C19.4449 40.28 22.8248 42.7776 28.3221 44.1757Z" stroke="#121212" stroke-width="2"/>
<path d="M20.3408 32.2866C22.9258 30.5962 25.8173 29.4295 28.8515 28.8525C29.4285 25.8183 30.5953 22.9268 32.2856 20.3418C29.4927 21.2478 26.9541 22.8026 24.8778 24.8788C22.8016 26.955 21.2468 29.4936 20.3408 32.2866Z" stroke="#121212" stroke-width="2"/>
<path d="M44.1761 28.3225C42.778 22.8252 40.2805 19.4453 37.9594 19.4453C35.6519 19.4453 33.1543 22.8252 31.7563 28.3225C35.8772 27.7614 40.0552 27.7614 44.1761 28.3225Z" stroke="#121212" stroke-width="2"/>
</g>
</g>
<defs>
<filter id="filter0_i_810_252" x="0" y="0" width="76" height="80" filterUnits="userSpaceOnUse" color-interpolation-filters="sRGB">
<feFlood flood-opacity="0" result="BackgroundImageFix"/>
<feBlend mode="normal" in="SourceGraphic" in2="BackgroundImageFix" result="shape"/>
<feColorMatrix in="SourceAlpha" type="matrix" values="0 0 0 0 0 0 0 0 0 0 0 0 0 0 0 0 0 0 127 0" result="hardAlpha"/>
<feOffset dy="4"/>
<feGaussianBlur stdDeviation="2"/>
<feComposite in2="hardAlpha" operator="arithmetic" k2="-1" k3="1"/>
<feColorMatrix type="matrix" values="0 0 0 0 0 0 0 0 0 0 0 0 0 0 0 0 0 0 0.25 0"/>
<feBlend mode="normal" in2="shape" result="effect1_innerShadow_810_252"/>
</filter>
</defs>
</svg>
