<svg width="40" height="40" viewBox="0 0 40 40" fill="none" xmlns="http://www.w3.org/2000/svg">
<path d="M38.3238 13.8301C38.8696 13.8301 39.3179 14.2687 39.3179 14.8145C39.3179 15.3603 38.8696 15.8086 38.3238 15.8086C37.8169 15.8086 37.3881 15.4285 37.3394 14.9314C37.3491 14.8925 37.3491 14.8535 37.3491 14.8145C37.3491 14.7755 37.3491 14.7463 37.3394 14.7073C37.3978 14.2199 37.8169 13.8301 38.3238 13.8301Z" fill="white"/>
<path d="M33.3919 27.6602C33.9377 27.6602 34.386 28.0988 34.386 28.6543C34.386 29.2001 33.9377 29.6485 33.3919 29.6485C32.846 29.6485 32.3977 29.2001 32.3977 28.6543C32.3977 28.4009 32.4952 28.1572 32.6609 27.9818C32.6706 27.972 32.6804 27.9623 32.6901 27.9526C32.8655 27.7771 33.119 27.6602 33.3919 27.6602Z" fill="white"/>
<path d="M32.9827 0C33.5285 0 33.9768 0.448343 33.9768 0.994152C33.9768 1.53996 33.5285 1.9883 32.9827 1.9883C32.7098 1.9883 32.4564 1.88109 32.2809 1.69591C32.0957 1.52047 31.9885 1.26706 31.9885 0.994152C31.9885 0.448343 32.4369 0 32.9827 0Z" fill="white"/>
<path d="M27.8169 33.1976V33.4412C27.8169 33.8993 27.4368 34.2795 26.9787 34.2795H25.5265H14.4933H13.0313C12.5732 34.2795 12.1931 33.8993 12.1931 33.4412V33.1976C12.1931 32.7395 12.5732 32.3594 13.0313 32.3594H13.119C13.1483 32.3691 13.1775 32.3691 13.2165 32.3691C13.2457 32.3691 13.2847 32.3691 13.314 32.3594H26.696C26.7253 32.3691 26.7545 32.3691 26.7935 32.3691C26.8227 32.3691 26.8617 32.3691 26.891 32.3594H26.9787C27.4368 32.3594 27.8169 32.7395 27.8169 33.1976Z" fill="white"/>
<path d="M20.0001 5.51562C25.1268 5.51562 29.3081 9.68716 29.3081 14.8236C29.3081 19.9601 25.1366 24.1316 20.0001 24.1316C14.8637 24.1316 10.6921 19.9503 10.6921 14.8236C10.6921 9.68716 14.8734 5.51562 20.0001 5.51562ZM25.7896 10.3207C25.7896 10.0575 25.5752 9.84311 25.312 9.84311H24.0645C24.0352 9.83336 24.006 9.83336 23.967 9.83336C23.9378 9.83336 23.8988 9.83336 23.8695 9.84311H22.6317C22.3686 9.84311 22.1541 10.0575 22.1541 10.3207C22.1541 10.5839 22.3686 10.7983 22.6317 10.7983H23.4894V18.8295H22.6317C22.3686 18.8295 22.1541 19.0439 22.1541 19.307C22.1541 19.5702 22.3686 19.7846 22.6317 19.7846H23.967H25.3023C25.5654 19.7846 25.7799 19.58 25.7896 19.307C25.7896 19.0439 25.5752 18.8295 25.312 18.8295H24.4446V10.7983H25.3023C25.5654 10.7983 25.7799 10.5839 25.7896 10.3207ZM20.7701 19.7846C21.0235 19.7262 21.1795 19.463 21.1112 19.2096L20.2048 15.6423V15.6326C20.2048 15.5449 20.1853 15.4669 20.1463 15.3987L18.9962 10.886C18.8403 10.2817 18.2945 9.8626 17.6707 9.8626C17.0567 9.8626 16.5109 10.2817 16.3452 10.886L15.1658 15.5351L14.2302 19.1998C14.1619 19.4532 14.3179 19.7067 14.5713 19.7749C14.8247 19.8431 15.0781 19.6872 15.1463 19.4338L15.9943 16.1102H19.3569L20.2048 19.4338C20.2535 19.6482 20.4485 19.7944 20.6629 19.7944C20.6921 19.7944 20.7311 19.7846 20.7701 19.7846Z" fill="white"/>
<path d="M25.0489 35.2441V36.2188C25.0489 36.7451 24.6201 37.174 24.0938 37.174H22.9339C22.9047 37.1642 22.8754 37.1642 22.8364 37.1642C22.7975 37.1642 22.7682 37.1642 22.739 37.174H17.2614C17.2322 37.1642 17.2029 37.1642 17.1639 37.1642C17.1347 37.1642 17.0957 37.1642 17.0665 37.174H15.9261C15.3998 37.174 14.9709 36.7451 14.9709 36.2188V35.2441H25.0489Z" fill="white"/>
<path d="M17.6902 38.1191H22.3101C22.0859 39.1913 21.1307 40.0002 20.0001 40.0002C18.8695 40.0002 17.9144 39.1913 17.6902 38.1191Z" fill="white"/>
<path d="M18.0801 11.1205L19.1035 15.1556H16.2283L17.2517 11.1205C17.3004 10.9353 17.4758 10.8086 17.661 10.8086C17.8657 10.8086 18.0314 10.945 18.0801 11.1205Z" fill="white"/>
<path d="M8.01174 0.994152C8.01174 1.24756 7.91428 1.47173 7.76808 1.64717C7.74858 1.65692 7.73884 1.66667 7.71934 1.68616C7.69985 1.70565 7.6901 1.7154 7.68036 1.73489C7.50492 1.89084 7.271 1.9883 7.01759 1.9883C6.47178 1.9883 6.02344 1.53996 6.02344 0.994152C6.02344 0.448343 6.47178 0 7.01759 0C7.5634 0 8.01174 0.448343 8.01174 0.994152Z" fill="white"/>
<path d="M7.34915 27.9818C7.5051 28.1572 7.60256 28.3911 7.60256 28.6543C7.60256 29.2001 7.15422 29.6485 6.60841 29.6485C6.0626 29.6485 5.61426 29.2001 5.61426 28.6543C5.61426 28.1085 6.0626 27.6602 6.60841 27.6602C6.86182 27.6602 7.09574 27.7576 7.27118 27.9136C7.29067 27.9428 7.31991 27.9623 7.34915 27.9818Z" fill="white"/>
<path d="M2.66093 14.7073C2.65118 14.7463 2.65118 14.7755 2.65118 14.8145C2.65118 14.8535 2.66093 14.8925 2.66093 14.9217C2.6122 15.4188 2.18335 15.8086 1.67653 15.8086C1.13072 15.8086 0.682373 15.37 0.682373 14.8242C0.682373 14.2784 1.13072 13.8301 1.67653 13.8301C2.18335 13.8301 2.6122 14.2102 2.66093 14.7073Z" fill="white"/>
<path d="M9.73688 14.8148C9.73688 20.4776 14.347 25.078 20 25.078C25.6531 25.078 30.2632 20.4873 30.2632 14.8246C30.2632 9.16179 25.6531 4.56141 20 4.56141C14.347 4.56141 9.73688 9.15205 9.73688 14.8148ZM32.7486 14.4444C32.7486 14.5517 32.7486 14.6491 32.7583 14.7563C32.7583 14.7758 32.7486 14.7953 32.7486 14.8148V14.8733C32.7388 16.1598 32.5439 17.4269 32.1735 18.6257C31.6472 20.3314 30.7603 21.8908 29.5517 23.2651C29.308 23.5478 29.0644 23.8402 28.8499 24.1326C28.8207 24.1618 28.8012 24.191 28.7817 24.2203C27.271 26.2963 26.423 28.7914 26.3256 31.4035H13.6843C13.577 28.8402 12.7193 26.345 11.2086 24.2203C11.1989 24.2008 11.1794 24.1715 11.1599 24.152C10.9162 23.8109 10.6531 23.4893 10.3802 23.1676C9.23006 21.8421 8.37236 20.3119 7.84604 18.6355C7.46593 17.4074 7.271 16.1209 7.271 14.8148C7.271 11.2573 8.694 7.95322 11.2866 5.51657C11.3353 5.46784 11.3841 5.42885 11.4328 5.38012C13.9961 3.04094 17.3295 1.87135 20.8188 2.09552C23.7915 2.27096 26.462 3.44055 28.5186 5.27291C28.5381 5.31189 28.5673 5.34113 28.5965 5.38012C28.6355 5.41911 28.6843 5.44834 28.7232 5.46784C31.1404 7.70955 32.6511 10.8869 32.7486 14.4444Z" fill="white"/>
<path d="M33.7039 14.3379H36.4524C36.4134 14.4938 36.3939 14.6595 36.3939 14.8252C36.3939 14.9909 36.4134 15.1469 36.4524 15.2931H33.7136C33.7234 15.0104 33.7234 14.718 33.7136 14.4256C33.7039 14.3964 33.7039 14.3671 33.7039 14.3379Z" fill="white"/>
<path d="M29.8246 24.416L32.3977 26.9891C32.1248 27.1548 31.8909 27.3887 31.7252 27.6616L29.2593 25.1957C29.4445 24.9326 29.6296 24.6694 29.8246 24.416Z" fill="white"/>
<path d="M31.9884 2.6608L29.6297 5.01947C29.4056 4.7953 29.1716 4.58087 28.928 4.3762L31.3159 1.98828C31.4816 2.26119 31.7155 2.4951 31.9884 2.6608Z" fill="white"/>
<path d="M8.68423 1.97852L11.1111 4.39567C10.9454 4.53212 10.7895 4.67832 10.6336 4.82452C10.5556 4.89275 10.4776 4.97072 10.4094 5.04869L8.01172 2.65103C8.29437 2.48534 8.51854 2.25142 8.68423 1.97852Z" fill="white"/>
<path d="M10.7214 25.2153L8.27505 27.6616C8.10936 27.3887 7.87544 27.1548 7.60254 26.9891L10.1659 24.4258C10.3608 24.6792 10.5558 24.9424 10.7214 25.2153Z" fill="white"/>
<path d="M3.55762 14.3379H6.32565C6.3159 14.4938 6.3159 14.6595 6.3159 14.8155C6.3159 14.9714 6.3159 15.1371 6.32565 15.2931H3.55762C3.5966 15.1371 3.6161 14.9812 3.6161 14.8155C3.6161 14.6498 3.5966 14.4938 3.55762 14.3379Z" fill="white"/>
</svg>
