<svg width="40" height="38" viewBox="0 0 40 38" fill="none" xmlns="http://www.w3.org/2000/svg">
<path fill-rule="evenodd" clip-rule="evenodd" d="M13.8487 15.8988L15.1084 14.0187H24.882L26.1519 15.8988H20.9058L20.817 15.013H19.1833L19.0945 15.8988H13.8487ZM34.2328 0.839378L35.2662 2.02101C35.4039 2.17821 35.6006 2.24693 35.8074 2.21757L37.3529 1.98117C37.53 1.95181 37.6975 2.00117 37.8351 2.10949C37.9728 2.22749 38.0417 2.3851 38.0514 2.56198L38.0813 4.1269C38.0908 4.33395 38.1891 4.52067 38.3763 4.62923L39.7052 5.43629C39.8625 5.53462 39.9612 5.67254 39.9904 5.84958C40.0203 6.02695 39.9809 6.19415 39.8625 6.3316L38.8883 7.55259C38.7601 7.71963 38.7208 7.92652 38.7897 8.12308L39.2919 9.59952C39.3508 9.77688 39.3312 9.94409 39.2423 10.1017C39.1538 10.2591 39.0161 10.3575 38.8387 10.3868L37.3033 10.6919C37.0965 10.7313 36.9393 10.8695 36.8605 11.066L36.2895 12.5228C36.2304 12.6903 36.1026 12.8082 35.9355 12.8674C35.7679 12.9361 35.6004 12.9164 35.4431 12.8378L34.0751 12.08C33.888 11.9816 33.6716 11.9816 33.4844 12.08L32.1162 12.8378C31.9586 12.9164 31.7913 12.9362 31.6242 12.8674C31.4567 12.8083 31.3289 12.6903 31.2698 12.5228L30.6989 11.066C30.6202 10.8695 30.4625 10.7313 30.256 10.6919L28.7206 10.3868C28.5433 10.3575 28.4056 10.259 28.3171 10.1017C28.2286 9.94401 28.2089 9.7768 28.2679 9.59952L28.7698 8.12308C28.8386 7.92652 28.7993 7.71963 28.6714 7.55259L27.687 6.3316C27.5789 6.19407 27.5395 6.02687 27.5691 5.84958C27.5986 5.67254 27.6969 5.53454 27.8542 5.43629L29.1831 4.62923C29.3699 4.52067 29.4686 4.33395 29.4785 4.1269L29.5079 2.56198C29.5179 2.3851 29.5866 2.22741 29.7246 2.10949C29.8623 2.00117 30.0298 1.95181 30.2068 1.98117L31.752 2.21757C31.9586 2.24693 32.1556 2.17821 32.2935 2.02101L33.3272 0.839378C33.4452 0.711535 33.6024 0.632812 33.7795 0.632812C33.9571 0.632812 34.1147 0.711535 34.2328 0.839378ZM36.1324 13.8614V16.7946L33.7797 14.7962L31.4274 16.7946V13.8614C31.8211 13.9598 32.2348 13.9106 32.5991 13.7135L33.7797 13.0643L34.9611 13.7135C35.3254 13.9107 35.7387 13.9599 36.1324 13.8614ZM33.7797 3.22144C35.837 3.22144 37.5105 4.88476 37.5105 6.94217C37.5105 8.99926 35.837 10.6724 33.7797 10.6724C31.7229 10.6724 30.0497 8.99926 30.0497 6.94217C30.0498 4.88476 31.7229 3.22144 33.7797 3.22144ZM33.7797 4.41243L34.5773 5.92823L36.2605 6.21367L35.0595 7.44386L35.3154 9.12703L33.7797 8.36917L32.2443 9.12703L32.5003 7.44386L31.2997 6.21367L32.9829 5.92823L33.7797 4.41243ZM0.501773 29.9447H1.91917C2.26366 29.9447 2.58855 30.0922 2.81463 30.3186C2.90359 30.4072 2.98224 30.5055 3.04128 30.6136C3.11992 30.3974 3.30704 30.22 3.53361 30.1512C4.70484 29.8066 5.7187 27.6117 6.07271 26.5192C5.69902 24.9739 7.09642 24.4623 7.89364 25.8105C8.44493 26.7358 8.45485 27.9661 7.87396 29.5511H11.0037C11.3879 29.5511 11.7124 29.7086 11.9587 29.9939C12.1949 30.2892 12.2933 30.6334 12.2245 31.0075L11.191 36.8147C11.132 37.11 10.8858 37.3267 10.5806 37.3267H4.05506C3.60201 37.3267 3.21824 37.0412 3.06088 36.6475C3.00192 36.7755 2.92319 36.8934 2.81463 36.992C2.58855 37.228 2.26366 37.3661 1.91917 37.3661H0.501773C0.226086 37.3661 2.12179e-08 37.1494 2.12179e-08 36.8736V30.4466C-7.99808e-05 30.1708 0.226086 29.9447 0.501773 29.9447ZM33.4353 18.4677C33.4353 18.1925 33.6618 17.9659 33.9375 17.9659C34.2132 17.9659 34.4397 18.1925 34.4397 18.4677V30.4266C34.4397 31.5193 33.9865 32.5035 33.2779 33.2221C32.5597 33.9403 31.5655 34.3834 30.4824 34.3834H15.4529L16.319 35.4662C16.4862 35.6728 16.4468 35.9877 16.2403 36.165C16.0236 36.3322 15.709 36.3028 15.5415 36.0859L14.0553 34.2356C13.9668 34.1472 13.9172 34.0195 13.9172 33.8812C13.9172 33.7533 13.9668 33.6257 14.0553 33.5366L15.5415 31.6862C15.709 31.47 16.0236 31.4405 16.2403 31.6075C16.4468 31.7752 16.4862 32.0897 16.319 32.3066L15.4529 33.3892H30.4824C31.2898 33.3892 32.028 33.0545 32.5692 32.5133C33.1009 31.9817 33.4353 31.2434 33.4353 30.4265V18.4677ZM23.3961 4.53043C23.2286 4.31418 23.2582 3.99914 23.4748 3.83201C23.6912 3.65465 24.0062 3.69385 24.1732 3.91057L25.6598 5.76094C25.7484 5.8495 25.7975 5.96767 25.7975 6.10567C25.7975 6.24319 25.7484 6.36128 25.6598 6.46008L24.1732 8.30045C24.0062 8.51685 23.6912 8.55621 23.4748 8.37917C23.2582 8.21164 23.2286 7.897 23.3961 7.68043L24.2622 6.60744H9.23231C8.42533 6.60744 7.68675 6.94233 7.14562 7.47338C6.61433 8.015 6.2796 8.75326 6.2796 9.56032V21.5192C6.2796 21.7945 6.05303 22.021 5.77775 22.021C5.50182 22.021 5.27557 21.7945 5.27557 21.5192V9.56024C5.27557 8.47741 5.71878 7.4833 6.43696 6.76513C7.15546 6.04639 8.14965 5.60342 9.23239 5.60342H24.2623L23.3961 4.53043ZM1.91917 30.9482H1.00395V36.3716H1.91909C1.98789 36.3716 2.05717 36.3421 2.11613 36.2931C2.16493 36.234 2.19478 36.1651 2.19478 36.096V31.2241C2.19478 31.1453 2.16485 31.0765 2.11613 31.0273C2.05725 30.9778 1.98797 30.9482 1.91917 30.9482ZM26.4866 26.0467H13.5136V16.9027H19.0455V18.212L19.2815 18.0248L19.5179 17.838L19.7638 18.0248L20.0001 18.212L20.2365 18.0248L20.4827 17.838L20.7186 18.0248L20.955 18.212V16.9027H26.4866V26.0467ZM18.7207 19.3144H21.2795C21.6833 19.3144 21.9984 19.6393 21.9984 20.033C21.9984 20.4266 21.6833 20.7516 21.2795 20.7516H18.7207C18.3266 20.7516 18.0019 20.4265 18.0019 20.033C18.0019 19.6392 18.3266 19.3144 18.7207 19.3144ZM19.0455 25.0525H20.955V24.2357L20.7186 24.4326L20.4827 24.6195L20.2365 24.4326L20.0001 24.2357L19.7638 24.4326L19.5179 24.6195L19.2815 24.4326L19.0455 24.2357V25.0525Z" fill="white"/>
</svg>
