<svg width="76" height="76" viewBox="0 0 76 76" fill="none" xmlns="http://www.w3.org/2000/svg">
<g clip-path="url(#clip0_810_44)">
<mask id="mask0_810_44" style="mask-type:luminance" maskUnits="userSpaceOnUse" x="0" y="0" width="76" height="76">
<path d="M76 0H0V76H76V0Z" fill="white"/>
</mask>
<g mask="url(#mask0_810_44)">
<mask id="mask1_810_44" style="mask-type:luminance" maskUnits="userSpaceOnUse" x="0" y="0" width="76" height="76">
<path d="M76 0H0V76H76V0Z" fill="white"/>
</mask>
<g mask="url(#mask1_810_44)">
<g filter="url(#filter0_i_810_44)">
<path d="M72.9362 35.7716C72.7769 35.7716 72.6176 35.7716 72.4587 35.8115L59.7255 12.2556C59.9643 11.8177 60.0836 11.3405 60.0836 10.823C60.0836 9.11209 58.6909 7.75929 57.0199 7.75929C56.1443 7.75929 55.3485 8.11713 54.7915 8.71404L29.4056 3.66068C29.2463 2.14859 27.9331 0.955078 26.3415 0.955078C24.6705 0.955078 23.2778 2.34778 23.2778 4.01883C23.2778 4.53626 23.3972 5.01348 23.6356 5.45143L3.85978 33.8219C3.62133 33.7424 3.34266 33.7025 3.06399 33.7025C1.35304 33.7025 0.000244141 35.0952 0.000244141 36.7666C0.000244141 38.4775 1.39294 39.8303 3.06399 39.8303H3.18338L13.8474 66.2115C13.6882 66.6096 13.5688 67.0472 13.5688 67.4845C13.5688 69.1958 14.9615 70.5486 16.6328 70.5486C17.5081 70.5486 18.3039 70.1908 18.8609 69.5938L50.8924 72.7371C51.2106 74.0902 52.444 75.0449 53.8766 75.0449C55.5876 75.0449 56.9407 73.6522 56.9407 71.9812C56.9407 71.225 56.662 70.5087 56.2244 69.9916L72.4191 41.8994C72.5783 41.9393 72.7373 41.9393 72.9365 41.9393C74.6474 41.9393 76.0002 40.5466 76.0002 38.8753C76.0002 37.1643 74.6471 35.7716 72.9362 35.7716ZM54.5527 12.7332C54.9109 13.2107 55.4283 13.5692 55.9853 13.7677L51.1308 50.4149C50.8126 50.4947 50.5339 50.5742 50.2556 50.7332L23.5957 27.5753C23.6752 27.3366 23.7151 27.0579 23.7151 26.7792C23.7151 26.5804 23.6752 26.3815 23.6752 26.1826L54.5527 12.7332ZM69.9915 39.6714L53.5977 50.932C53.4705 50.8438 53.3376 50.7642 53.1999 50.6936L58.094 13.7275H58.1339L70.6283 36.8062C70.1508 37.3632 69.8721 38.0396 69.8721 38.8354C69.8721 39.1536 69.912 39.4329 69.9915 39.6714ZM20.2134 23.7551C18.7412 23.9938 17.5873 25.2672 17.5873 26.7792V26.9781L6.64486 33.4638L23.6752 9.07219L20.2134 23.7551ZM21.3277 29.8034C21.7255 29.7236 22.1235 29.5247 22.4418 29.286L48.9024 52.2848C48.7831 52.6427 48.7036 53.0011 48.7036 53.3989V53.5582L19.2187 65.734C18.7811 65.0975 18.1047 64.62 17.3089 64.461L21.3277 29.8034ZM49.4994 55.5079C49.8974 55.9455 50.4544 56.3037 51.0909 56.423L52.5634 69.2354C51.9269 69.5539 51.4491 70.0714 51.1308 70.668L20.0544 67.6438L49.4994 55.5079ZM53.1204 56.1843C54.155 55.6672 54.8314 54.6326 54.8314 53.4388C54.8314 53.1601 54.7915 52.9213 54.712 52.643L69.7131 42.3371L54.5132 68.7186L53.1204 56.1843ZM53.9162 10.7436L22.6011 24.3919L22.2429 24.1528L26.2218 7.08258H26.3412C27.4157 7.08258 28.3707 6.52556 28.9277 5.69019L53.9159 10.6638L53.9162 10.7436ZM6.12743 36.7666C6.12743 36.5674 6.08753 36.3685 6.08753 36.1697L18.4625 28.8879C18.7013 29.1267 18.9797 29.3655 19.2979 29.5244L15.2797 64.1028L5.13278 39.0748C5.72969 38.5174 6.12743 37.6818 6.12743 36.7666Z" stroke="#121212"/>
</g>
</g>
</g>
</g>
<defs>
<filter id="filter0_i_810_44" x="-0.499756" y="0.455078" width="76.9999" height="79.0898" filterUnits="userSpaceOnUse" color-interpolation-filters="sRGB">
<feFlood flood-opacity="0" result="BackgroundImageFix"/>
<feBlend mode="normal" in="SourceGraphic" in2="BackgroundImageFix" result="shape"/>
<feColorMatrix in="SourceAlpha" type="matrix" values="0 0 0 0 0 0 0 0 0 0 0 0 0 0 0 0 0 0 127 0" result="hardAlpha"/>
<feOffset dy="4"/>
<feGaussianBlur stdDeviation="2"/>
<feComposite in2="hardAlpha" operator="arithmetic" k2="-1" k3="1"/>
<feColorMatrix type="matrix" values="0 0 0 0 0 0 0 0 0 0 0 0 0 0 0 0 0 0 0.25 0"/>
<feBlend mode="normal" in2="shape" result="effect1_innerShadow_810_44"/>
</filter>
<clipPath id="clip0_810_44">
<rect width="76" height="76" fill="white"/>
</clipPath>
</defs>
</svg>
