<svg width="76" height="76" viewBox="0 0 76 76" fill="none" xmlns="http://www.w3.org/2000/svg">
<g clip-path="url(#clip0_808_13)" filter="url(#filter0_i_808_13)">
<path d="M74.4667 74.4638C74.4667 74.4653 74.4653 74.4667 74.4638 74.4667H1.00281C1.00141 74.4667 1 74.4653 1 74.4638V1.00281C1 1.00141 1.00141 1 1.00281 1H74.4646C74.466 1 74.4674 1.00141 74.4674 1.00281L74.4667 74.4638Z" stroke="#121212" stroke-width="2"/>
<path d="M21.0556 57.6952C21.0556 57.7508 21.0879 57.8282 21.1266 57.8669L22.3842 59.1244C22.4236 59.1638 22.501 59.1955 22.5559 59.1955H26.859C26.9146 59.1955 26.992 59.1631 27.0307 59.1244L28.2882 57.8669C28.3276 57.8275 28.3593 57.7501 28.3593 57.6952V44.0412C28.3593 43.9856 28.3924 43.9089 28.4325 43.8709L33.8996 38.6494C33.9397 38.6114 33.9981 38.6171 34.0291 38.6635L47.8421 59.1131C47.873 59.1589 47.9441 59.1969 47.999 59.1969H54.0952C54.1508 59.1969 54.2169 59.1568 54.2422 59.1075L55.3485 56.964C55.3738 56.9148 55.3689 56.8374 55.3372 56.7916L39.1802 33.3724C39.1485 33.3266 39.1548 33.2577 39.1942 33.2183L54.0551 18.4271C54.0945 18.3877 54.1261 18.311 54.1261 18.2554V17.9824C54.1261 17.9268 54.1078 17.8402 54.086 17.7888L53.2289 15.8178C53.2071 15.7671 53.1431 15.7256 53.0882 15.7256H47.0624C47.0068 15.7256 46.9294 15.758 46.8907 15.7967L28.4318 34.3252C28.3924 34.3646 28.3607 34.3512 28.3607 34.2956V17.2977C28.3607 17.2421 28.3298 17.164 28.2918 17.1231L27.0582 15.8002C27.0202 15.7594 26.9442 15.7263 26.8886 15.7263H22.5559C22.5003 15.7263 22.4243 15.7594 22.3863 15.8002L21.1231 17.164C21.0851 17.2048 21.0549 17.2829 21.0549 17.3385L21.0556 57.6952Z" stroke="#121212" stroke-width="2"/>
</g>
<defs>
<filter id="filter0_i_808_13" x="0" y="0" width="76" height="80" filterUnits="userSpaceOnUse" color-interpolation-filters="sRGB">
<feFlood flood-opacity="0" result="BackgroundImageFix"/>
<feBlend mode="normal" in="SourceGraphic" in2="BackgroundImageFix" result="shape"/>
<feColorMatrix in="SourceAlpha" type="matrix" values="0 0 0 0 0 0 0 0 0 0 0 0 0 0 0 0 0 0 127 0" result="hardAlpha"/>
<feOffset dy="4"/>
<feGaussianBlur stdDeviation="2"/>
<feComposite in2="hardAlpha" operator="arithmetic" k2="-1" k3="1"/>
<feColorMatrix type="matrix" values="0 0 0 0 0 0 0 0 0 0 0 0 0 0 0 0 0 0 0.25 0"/>
<feBlend mode="normal" in2="shape" result="effect1_innerShadow_808_13"/>
</filter>
<clipPath id="clip0_808_13">
<rect width="76" height="76" fill="white"/>
</clipPath>
</defs>
</svg>
