<svg width="40" height="40" viewBox="0 0 40 40" fill="none" xmlns="http://www.w3.org/2000/svg">
<path d="M23.871 11.0436L26.4517 13.6229V5.48356H28.3872L26.0949 0.89904C25.9181 0.545491 25.5568 0.322266 25.1614 0.322266C24.7659 0.322266 24.4046 0.545491 24.2278 0.89904L21.9355 5.48356H23.871V11.0436Z" fill="white"/>
<path d="M13.5483 13.6223L16.1289 11.0416V5.48356H18.0644L15.7721 0.89904C15.5954 0.545491 15.2341 0.322266 14.8386 0.322266C14.4431 0.322266 14.0818 0.545491 13.9051 0.89904L11.6128 5.48356H13.5483V13.6223Z" fill="white"/>
<path d="M0 38.3867H1.29032V39.677H0V38.3867Z" fill="white"/>
<path d="M38.7097 38.3867H40V39.677H38.7097V38.3867Z" fill="white"/>
<path d="M21.2904 28.5315V27.4199H18.7097V28.5315L20 30.6819L21.2904 28.5315Z" fill="white"/>
<path d="M17.1691 13.2426L16.8885 13.3801L16.0278 12.9684L13.9362 15.0601L14.3478 15.9207L14.2104 16.2014C14.0904 16.4452 13.9872 16.6943 13.902 16.9414L13.8007 17.2368L12.9033 17.5536V20.5117L13.8014 20.8285L13.9027 21.1239C13.9872 21.371 14.0911 21.6201 14.2111 21.8639L14.3485 22.1446L13.9369 23.0052L16.0285 25.0968L16.8891 24.6852L17.1698 24.8226C17.4136 24.9426 17.6627 25.0459 17.9098 25.131L18.2053 25.2323L18.5214 26.1291H21.4794L21.7962 25.231L22.0917 25.1297C22.3388 25.0452 22.5878 24.9414 22.8317 24.8214L23.1124 24.6839L23.973 25.0955L26.0646 23.0039L25.653 22.1433L25.7904 21.8626C25.9104 21.6188 26.0136 21.3697 26.0988 21.1226L26.2001 20.8272L27.0969 20.511V17.553L26.1988 17.2362L26.0975 16.9407C26.013 16.6936 25.9091 16.4446 25.7891 16.2007L25.6517 15.9201L26.0633 15.0594L23.9717 12.9678L23.1111 13.3794L22.8304 13.242C22.5865 13.122 22.3375 13.0188 22.0904 12.9336L21.7949 12.8323L21.4788 11.9355H18.5207L18.204 12.8336L17.9085 12.9349C17.6614 13.0194 17.413 13.1226 17.1691 13.2426ZM20.0001 14.5162C22.4943 14.5162 24.5162 16.5381 24.5162 19.0323C24.5162 21.5265 22.4943 23.5484 20.0001 23.5484C17.5059 23.5484 15.484 21.5265 15.484 19.0323C15.484 16.5381 17.5059 14.5162 20.0001 14.5162Z" fill="white"/>
<path d="M17.5496 29.4684L17.9167 33.5058L19.216 31.8819L17.745 29.4297C17.6799 29.4426 17.6141 29.4542 17.5496 29.4684Z" fill="white"/>
<path d="M23.7122 29.8438L23.078 36.8154L19.9999 32.9676L16.9219 36.8154L16.2877 29.8438C12.7722 31.1631 10.3625 34.4941 10.3231 38.3863H2.58057V39.6767H37.4193V38.3863H29.6767C29.6367 34.4941 27.2277 31.1631 23.7122 29.8438ZM12.9031 38.3863V34.5154H14.1935V38.3863H12.9031ZM25.8064 38.3863V34.5154H27.0967V38.3863H25.8064Z" fill="white"/>
<path d="M22.4502 29.4684C22.3857 29.4542 22.3206 29.4426 22.2554 29.4297L20.7844 31.8819L22.0838 33.5058L22.4502 29.4684Z" fill="white"/>
<path d="M19.9999 20.9667C21.0689 20.9667 21.9354 20.1001 21.9354 19.0312C21.9354 17.9622 21.0689 17.0957 19.9999 17.0957C18.931 17.0957 18.0645 17.9622 18.0645 19.0312C18.0645 20.1001 18.931 20.9667 19.9999 20.9667Z" fill="white"/>
<path d="M4.51605 29.9999H7.0967V11.2902H9.03218L6.73992 6.70568C6.56315 6.35213 6.20186 6.12891 5.80637 6.12891C5.41089 6.12891 5.0496 6.35213 4.87282 6.70568L2.58057 11.2902H4.51605V29.9999Z" fill="white"/>
<path d="M34.1936 6.12891C33.7981 6.12891 33.4368 6.35213 33.26 6.70568L30.9678 11.2902H32.9033V29.9999H35.4839V11.2902H37.4194L35.1271 6.70568C34.9504 6.35213 34.5891 6.12891 34.1936 6.12891Z" fill="white"/>
</svg>
