<svg width="78" height="76" viewBox="0 0 78 76" fill="none" xmlns="http://www.w3.org/2000/svg">
<g filter="url(#filter0_i_810_146)">
<path d="M68.4146 36.4129C69.7424 36.7502 70.8969 37.0443 72.2494 37.3847C71.9275 36.744 71.7016 36.2705 71.454 35.8093C71.0609 35.0758 70.6957 34.3237 70.2407 33.6335C69.9312 33.163 70.0364 32.8721 70.38 32.5006C71.2992 31.5102 72.1844 30.4857 73.0789 29.4736C73.2058 29.3282 73.3141 29.1641 73.4318 29.0094C73.4008 28.9598 73.373 28.9103 73.342 28.8608C72.9737 28.9382 72.6023 29.0032 72.2371 29.096C71.0888 29.3901 69.9405 29.681 68.8015 29.9998C68.3867 30.1143 68.1206 30.0648 67.8822 29.65C67.3251 28.6782 66.7123 27.7342 66.1118 26.784C65.9756 26.5704 65.7961 26.3847 65.5145 26.0349C65.2823 27.2792 65.0842 28.3284 64.8862 29.3777C64.7995 29.8481 64.7593 30.331 64.6076 30.7798C64.5364 30.9871 64.2826 31.2069 64.0629 31.2781C62.6391 31.7361 61.203 32.1571 59.773 32.5904C59.6771 32.6183 59.5842 32.6585 59.2964 32.7637C60.5623 33.5375 61.9056 33.748 63.1962 34.4506C62.3048 34.9705 61.4877 35.4565 60.652 35.9207C60.5561 35.9734 60.3673 35.9053 60.2404 35.8526C59.3026 35.4596 58.3586 35.0758 57.4362 34.6425C57.0679 34.4691 56.7027 34.2277 56.4272 33.9337C55.6937 33.1537 55.8268 32.0797 56.7986 31.6557C57.9531 31.1512 59.1819 30.8107 60.3828 30.4114C60.9925 30.2103 61.6084 30.0153 62.2305 29.8543C62.6329 29.7491 62.8031 29.5169 62.8681 29.1208C63.091 27.8115 63.3262 26.4992 63.5924 25.1993C63.6822 24.7598 63.8245 24.3017 64.0567 23.9241C64.7902 22.7263 66.0406 22.686 66.8299 23.8436C67.6037 24.9764 68.3372 26.1371 69.0367 27.3163C69.306 27.7713 69.5752 27.8332 70.0457 27.7063C71.6923 27.2637 73.3451 26.8551 74.9979 26.4404C75.6695 26.2702 76.3443 26.2207 76.8364 26.8211C77.1799 27.2389 76.9633 27.9972 76.3659 28.6751C75.2795 29.9069 74.2055 31.1481 73.082 32.3459C72.6023 32.8566 72.4785 33.2682 72.8746 33.9089C73.5618 35.0232 74.1498 36.1962 74.7843 37.3445C75.1124 37.9418 75.2579 38.5578 74.8617 39.1675C74.4253 39.833 73.7475 40.0713 73.0077 39.8949C71.6954 39.5854 70.4016 39.1923 69.1017 38.8209C68.9841 38.7868 68.8386 38.6506 68.8139 38.5392C68.6715 37.8707 68.5601 37.2021 68.4146 36.4129Z" stroke="#121212"/>
<path d="M31.7126 48.0751C31.561 49.1708 31.3845 50.1922 31.2886 51.2228C31.236 51.7738 31.01 51.9223 30.4931 51.879C29.9825 51.8357 29.4656 51.8697 28.8651 51.8697C28.9425 51.2074 28.9982 50.6162 29.0818 50.0312C29.3975 47.7687 29.6513 45.4907 30.0598 43.2436C30.6943 39.7214 34.9408 37.3939 38.2124 38.7C40.6049 39.6564 41.6696 42.0892 40.8215 44.6581C39.7692 47.8368 36.1324 49.7031 33.0002 48.657C32.5885 48.5239 32.2078 48.3042 31.7126 48.0751ZM35.9498 40.6437C34.0309 40.6376 32.3626 42.213 32.3502 44.0391C32.3409 45.5402 33.5542 46.6823 35.1482 46.6761C37.0084 46.6699 38.6766 45.0574 38.6828 43.2622C38.6859 41.7642 37.5221 40.6468 35.9498 40.6437Z" stroke="#121212"/>
<path d="M1.01243 48.9792C1.01243 48.0197 1.01243 47.1716 1.01243 46.3205C1.01243 42.8261 1.02482 39.3348 1.00005 35.8404C0.99696 35.2617 1.12386 35.0295 1.74907 35.0512C3.07687 35.1007 4.41087 35.0388 5.74177 35.0914C6.75077 35.1317 7.71026 35.4164 8.51189 36.0788C9.16806 36.6204 9.52399 37.3385 9.63542 38.1711C9.8366 39.7031 9.84589 41.2012 8.78426 42.4918C8.03215 43.4049 7.01695 43.7732 5.89652 43.9032C5.3425 43.9682 4.77609 43.9713 4.21588 43.9589C3.73613 43.9496 3.54424 44.1322 3.55352 44.6182C3.57519 45.8438 3.54423 47.0726 3.57519 48.2983C3.58757 48.8152 3.41115 49.007 2.89736 48.9792C2.29381 48.9544 1.69336 48.9792 1.01243 48.9792ZM3.55042 39.4896C3.55042 39.7372 3.54423 39.9879 3.55042 40.2355C3.59376 41.9223 3.20997 41.7273 5.09179 41.6933C6.3515 41.6716 7.19647 40.7276 7.19647 39.4617C7.19647 38.1432 6.48769 37.4004 5.13513 37.3137C4.78228 37.292 4.42944 37.3137 4.0766 37.3013C3.67423 37.289 3.52566 37.4747 3.54114 37.8708C3.56281 38.4094 3.54733 38.951 3.55042 39.4896Z" stroke="#121212"/>
<path d="M22.2725 44.8193C22.4829 45.1876 22.6284 45.4878 22.8172 45.7571C23.362 46.5309 24.0336 46.7568 24.9405 46.503C26.3023 46.1223 26.6892 44.9276 25.7483 43.8784C24.9869 43.0272 24.1233 42.2658 23.3681 41.4085C21.4987 39.2914 21.7618 37.1496 24.0955 35.5402C25.9804 34.2402 28.8403 34.1381 30.4869 36.868C29.7379 37.4096 28.9796 37.9605 28.1903 38.53C27.9768 38.2515 27.8158 38.0101 27.627 37.7996C27.0142 37.1094 26.1507 36.9484 25.4357 37.3787C24.7857 37.7717 24.6433 38.366 25.1478 38.9355C25.8659 39.7433 26.6304 40.5109 27.3918 41.2785C30.0753 43.9836 29.0972 47.7194 25.4078 48.812C24.3926 49.1122 23.3681 49.1463 22.3344 48.8739C21.0685 48.5396 20.3349 47.6637 19.9109 46.4876C19.8583 46.3452 19.9233 46.045 20.0285 45.9831C20.7497 45.5776 21.4956 45.2155 22.2725 44.8193Z" stroke="#121212"/>
<path d="M50.1473 48.7003C50.3484 47.1621 50.5496 45.7476 50.7106 44.327C50.7632 43.8565 50.7508 43.3706 50.6982 42.9001C50.5465 41.5352 49.5406 40.6592 48.1664 40.6469C46.5383 40.6314 45.1084 41.628 44.6194 43.0858C44.2758 44.1041 44.4275 45.0357 45.1548 45.8095C45.8946 46.5957 46.8602 46.8619 47.8971 46.5833C48.5223 46.4162 49.1042 46.0788 49.7851 45.7878C49.6799 46.5895 49.5839 47.4159 49.4539 48.2361C49.4354 48.3475 49.2775 48.4744 49.1537 48.5239C46.6807 49.5515 43.5392 48.8211 42.4373 46.249C41.6047 44.3053 42.0566 42.5039 43.2823 40.8604C44.8763 38.7279 47.9621 37.7622 50.2308 38.6722C52.3448 39.5171 53.4528 41.3464 53.1836 43.612C53.0071 45.0976 52.7688 46.5771 52.5862 48.0597C52.5274 48.5394 52.3448 48.753 51.8341 48.7127C51.3017 48.6663 50.7632 48.7003 50.1473 48.7003Z" stroke="#121212"/>
<path d="M62.93 43.2035C62.7381 44.6117 62.5555 45.8436 62.4007 47.0754C62.1995 48.7066 62.2088 48.7066 60.5963 48.7035C60.2713 48.7035 59.9463 48.7035 59.5532 48.7035C59.7544 47.2085 59.937 45.8343 60.1227 44.4601C60.4322 42.1728 60.7541 39.8886 61.042 37.6013C61.107 37.0875 61.2617 36.7223 61.7446 36.4623C62.4688 36.0723 63.1528 35.605 64.0257 35.0664C63.7533 37.1185 63.4995 39.0065 63.2488 40.8945C63.2921 40.9193 63.3324 40.9471 63.3757 40.9719C64.7344 39.5357 66.0901 38.0996 67.5541 36.5521C67.7212 37.4187 67.8791 38.1522 67.9843 38.8951C68.0029 39.0251 67.8079 39.2046 67.681 39.3315C66.7989 40.2352 65.9106 41.1328 65.0037 42.0552C66.6379 44.2527 68.235 46.3976 69.9466 48.7004C69.2626 48.7004 68.7117 48.6354 68.1793 48.7158C67.1115 48.8768 66.477 48.4528 65.9323 47.5335C65.1275 46.1779 64.1649 44.9181 63.2674 43.6182C63.2055 43.5222 63.125 43.4387 62.93 43.2035Z" stroke="#121212"/>
<path d="M20.3939 38.4248C20.1185 39.2419 19.8647 40.0033 19.6047 40.7616C18.4781 44.0424 17.3607 47.3232 16.2062 50.5948C16.002 51.1736 15.7017 51.7431 15.3396 52.2414C14.6184 53.2318 13.6435 53.6744 12.3714 53.5908C10.9538 53.5011 10.9477 53.5692 10.9693 52.1578C10.9724 51.9752 10.9941 51.7957 11.0095 51.6162C11.1055 51.5914 11.1643 51.5604 11.2231 51.5635C12.8666 51.61 13.5537 51.1705 14.0644 49.6477C14.1728 49.3227 14.1789 48.8925 14.0644 48.5737C12.9223 45.3857 11.7431 42.2132 10.5793 39.0314C10.5174 38.8643 10.4834 38.691 10.4153 38.4433C11.2633 38.4433 12.0309 38.4186 12.7923 38.4619C12.9502 38.4712 13.1792 38.7033 13.2287 38.8767C13.9066 41.2259 14.5565 43.5843 15.2127 45.9397C15.2282 45.9954 15.2622 46.045 15.352 46.2276C15.4696 45.9521 15.5748 45.7695 15.6305 45.5714C16.262 43.377 16.8748 41.1794 17.534 38.9912C17.6021 38.7622 17.9209 38.4712 18.15 38.4495C18.8649 38.3815 19.5923 38.4248 20.3939 38.4248Z" stroke="#121212"/>
<path d="M59.4078 40.9195C58.9838 40.9195 58.5907 40.9133 58.2007 40.9195C57.3867 40.9349 57.1051 41.1764 56.9843 42.0275C56.7027 44.0208 56.4241 46.014 56.1858 48.0135C56.1239 48.5303 55.966 48.7532 55.4213 48.7099C54.8518 48.6665 54.2761 48.7006 53.6447 48.7006C53.8645 47.0756 54.0687 45.559 54.2761 44.0424C54.3844 43.2408 54.5021 42.4423 54.6104 41.6406C54.8332 39.9507 55.966 38.8086 57.6591 38.6167C58.1914 38.5548 58.7362 38.5919 59.2778 38.5765C59.5904 38.5672 59.7452 38.6786 59.6895 39.0191C59.5904 39.6288 59.5069 40.2447 59.4078 40.9195Z" stroke="#121212"/>
</g>
<defs>
<filter id="filter0_i_810_146" x="0.499985" y="0" width="76.9997" height="80" filterUnits="userSpaceOnUse" color-interpolation-filters="sRGB">
<feFlood flood-opacity="0" result="BackgroundImageFix"/>
<feBlend mode="normal" in="SourceGraphic" in2="BackgroundImageFix" result="shape"/>
<feColorMatrix in="SourceAlpha" type="matrix" values="0 0 0 0 0 0 0 0 0 0 0 0 0 0 0 0 0 0 127 0" result="hardAlpha"/>
<feOffset dy="4"/>
<feGaussianBlur stdDeviation="2"/>
<feComposite in2="hardAlpha" operator="arithmetic" k2="-1" k3="1"/>
<feColorMatrix type="matrix" values="0 0 0 0 0 0 0 0 0 0 0 0 0 0 0 0 0 0 0.25 0"/>
<feBlend mode="normal" in2="shape" result="effect1_innerShadow_810_146"/>
</filter>
</defs>
</svg>
