<svg width="79" height="78" viewBox="0 0 79 78" fill="none" xmlns="http://www.w3.org/2000/svg">
<g filter="url(#filter0_i_810_95)">
<path d="M38.9234 1C19.529 1 20.7399 9.41057 20.7399 9.41057L20.7615 18.1242H39.2692V20.7402H13.4105C13.4105 20.7402 1 19.3327 1 38.9016C1 58.471 11.8322 57.777 11.8322 57.777H18.2968V48.696C18.2968 48.696 17.9483 37.8638 28.9561 37.8638H47.3124C47.3124 37.8638 57.6256 38.0305 57.6256 27.8965V11.1406C57.6256 11.1406 59.192 1 38.9234 1ZM28.7182 6.85973C29.1556 6.85934 29.5887 6.94519 29.9929 7.11237C30.397 7.27956 30.7642 7.5248 31.0735 7.83405C31.3827 8.1433 31.6279 8.5105 31.7951 8.91464C31.9623 9.31877 32.0482 9.75191 32.0478 10.1893C32.0482 10.6266 31.9623 11.0597 31.7951 11.4639C31.6279 11.868 31.3827 12.2352 31.0735 12.5445C30.7642 12.8537 30.397 13.099 29.9929 13.2661C29.5887 13.4333 29.1556 13.5192 28.7182 13.5188C28.2809 13.5192 27.8478 13.4333 27.4436 13.2661C27.0395 13.099 26.6723 12.8537 26.363 12.5445C26.0538 12.2352 25.8085 11.868 25.6414 11.4639C25.4742 11.0597 25.3883 10.6266 25.3887 10.1893C25.3883 9.75191 25.4742 9.31877 25.6414 8.91464C25.8085 8.5105 26.0538 8.1433 26.363 7.83405C26.6723 7.5248 27.0395 7.27956 27.4436 7.11237C27.8478 6.94519 28.2809 6.85934 28.7182 6.85973Z" stroke="#121212" stroke-width="2"/>
<path d="M39.4741 77C58.8686 77 57.6576 68.5894 57.6576 68.5894L57.6361 59.8761H39.128V57.2601H64.9868C64.9868 57.2601 77.3973 58.6675 77.3973 39.0981C77.3973 19.529 66.5651 20.223 66.5651 20.223H60.1005V29.3037C60.1005 29.3037 60.449 40.1359 49.4412 40.1359H31.0848C31.0848 40.1359 20.7716 39.9692 20.7716 50.1035V66.8597C20.7716 66.8597 19.2059 77 39.4741 77ZM49.6793 71.1409C49.242 71.1413 48.8088 71.0554 48.4047 70.8882C48.0006 70.721 47.6334 70.4758 47.3241 70.1665C47.0148 69.8573 46.7696 69.4901 46.6024 69.086C46.4352 68.6818 46.3494 68.2487 46.3498 67.8113C46.3493 67.374 46.4352 66.9408 46.6023 66.5366C46.7695 66.1325 47.0147 65.7652 47.324 65.4559C47.6333 65.1466 48.0005 64.9014 48.4046 64.7342C48.8088 64.567 49.2419 64.4811 49.6793 64.4815C50.1167 64.4811 50.5498 64.567 50.9539 64.7341C51.3581 64.9013 51.7253 65.1466 52.0345 65.4558C52.3438 65.7651 52.589 66.1323 52.7562 66.5364C52.9234 66.9405 53.0092 67.3737 53.0088 67.811C53.0092 68.2484 52.9234 68.6815 52.7562 69.0857C52.589 69.4898 52.3438 69.857 52.0345 70.1662C51.7253 70.4755 51.3581 70.7207 50.9539 70.8879C50.5498 71.0551 50.1167 71.1413 49.6793 71.1409Z" stroke="#121212" stroke-width="2"/>
</g>
<defs>
<filter id="filter0_i_810_95" x="0" y="0" width="78.3973" height="82" filterUnits="userSpaceOnUse" color-interpolation-filters="sRGB">
<feFlood flood-opacity="0" result="BackgroundImageFix"/>
<feBlend mode="normal" in="SourceGraphic" in2="BackgroundImageFix" result="shape"/>
<feColorMatrix in="SourceAlpha" type="matrix" values="0 0 0 0 0 0 0 0 0 0 0 0 0 0 0 0 0 0 127 0" result="hardAlpha"/>
<feOffset dy="4"/>
<feGaussianBlur stdDeviation="2"/>
<feComposite in2="hardAlpha" operator="arithmetic" k2="-1" k3="1"/>
<feColorMatrix type="matrix" values="0 0 0 0 0 0 0 0 0 0 0 0 0 0 0 0 0 0 0.25 0"/>
<feBlend mode="normal" in2="shape" result="effect1_innerShadow_810_95"/>
</filter>
</defs>
</svg>
