<svg width="40" height="40" viewBox="0 0 40 40" fill="none" xmlns="http://www.w3.org/2000/svg">
<path d="M24.6386 25.0249L21.0455 20.6035C20.1352 21.6537 19.0482 22.5367 17.8337 23.2125L21.4268 27.6345L24.6386 25.0249Z" fill="white"/>
<path d="M21.3347 28.5941L25.6161 25.1128C25.758 24.9973 25.94 24.943 26.122 24.9618C26.304 24.9805 26.471 25.0708 26.5864 25.2128L29.1975 28.4238C29.7746 29.1335 30.0461 30.0433 29.9523 30.9532C29.8585 31.8631 29.4072 32.6984 28.6975 33.2755C27.9878 33.8526 27.0779 34.1241 26.1681 34.0303C25.2582 33.9366 24.4228 33.4852 23.8458 32.7755L21.2347 29.5645C21.1193 29.4225 21.065 29.2406 21.0838 29.0586C21.1025 28.8766 21.1928 28.7095 21.3347 28.5941Z" fill="white"/>
<path d="M20.8228 5.01971C19.4163 3.28888 17.5452 1.99514 15.4293 1.29032C13.3133 0.585491 11.0402 0.498822 8.87672 1.04048C6.71323 1.58214 4.74912 2.72965 3.21489 4.34835C1.68065 5.96705 0.639941 7.98978 0.214893 10.1792C-0.210156 12.3685 -0.00190981 14.6338 0.815192 16.7089C1.63229 18.7841 3.02435 20.5832 4.828 21.8951C6.63165 23.2069 8.77205 23.9771 10.998 24.1152C13.224 24.2533 15.4432 23.7537 17.3952 22.6748C18.6139 22.0053 19.7017 21.1212 20.6062 20.0652C22.4032 17.982 23.4097 15.3327 23.4493 12.5818C23.4889 9.8309 22.5591 7.1538 20.8228 5.01971ZM11.7242 22.759C9.67817 22.759 7.67811 22.1523 5.97691 21.0156C4.27572 19.8789 2.9498 18.2632 2.16682 16.373C1.38385 14.4827 1.17899 12.4027 1.57814 10.396C1.9773 8.38931 2.96255 6.54604 4.40929 5.09929C5.85604 3.65254 7.69931 2.66729 9.70601 2.26814C11.7127 1.86898 13.7927 2.07384 15.683 2.85682C17.5732 3.63979 19.1889 4.96571 20.3256 6.66691C21.4623 8.3681 22.069 10.3682 22.069 12.4142C22.069 13.7727 21.8014 15.1179 21.2815 16.373C20.7617 17.6281 19.9997 18.7685 19.0391 19.7291C18.0785 20.6897 16.9381 21.4517 15.683 21.9715C14.4279 22.4914 13.0827 22.759 11.7242 22.759Z" fill="white"/>
<path d="M11.0345 7.58594C9.80692 7.58594 8.60688 7.94996 7.58616 8.63199C6.56545 9.31401 5.7699 10.2834 5.30011 11.4176C4.83033 12.5517 4.70741 13.7997 4.9469 15.0037C5.1864 16.2077 5.77755 17.3137 6.64559 18.1818C7.51364 19.0498 8.6196 19.641 9.82362 19.8804C11.0276 20.1199 12.2756 19.997 13.4098 19.5272C14.544 19.0575 15.5133 18.2619 16.1954 17.2412C16.8774 16.2205 17.2414 15.0204 17.2414 13.7928H11.0345V7.58594Z" fill="white"/>
<path d="M13.1035 5.51758V11.7245H19.3104C19.3104 10.0783 18.6565 8.49955 17.4924 7.33553C16.3284 6.17152 14.7497 5.51758 13.1035 5.51758Z" fill="white"/>
<path d="M20.8917 28.0697L17.2158 23.5462C15.1329 24.5787 12.8011 25.0031 10.4879 24.7707C8.17473 24.5383 5.97392 23.6586 4.13794 22.2324V28.2766H20.6896C20.7494 28.2005 20.8171 28.1312 20.8917 28.0697Z" fill="white"/>
<path d="M30.3056 28.9668C30.6608 29.7879 30.7406 30.7019 30.5331 31.5721C30.3256 32.4423 29.842 33.2219 29.1545 33.7944H37.2414C37.9731 33.7944 38.6747 33.5037 39.1921 32.9864C39.7094 32.4691 40 31.7674 40 31.0358V28.9668H30.3056Z" fill="white"/>
<path d="M23.3007 33.222L20.6896 30.0109C20.5726 29.8658 20.4863 29.6984 20.4361 29.5189C20.3858 29.3394 20.3726 29.1516 20.3972 28.9668H4.13794V31.0358C4.13794 31.7674 4.42858 32.4691 4.94592 32.9864C5.46326 33.5037 6.16493 33.7944 6.89656 33.7944H23.8751C23.6655 33.6227 23.4731 33.431 23.3007 33.222Z" fill="white"/>
<path d="M31.0345 37.9307H29.3476L27.3048 34.6631C27.0453 34.7157 26.7813 34.7434 26.5166 34.7459C26.2339 34.745 25.952 34.7157 25.6752 34.6583L27.7241 37.9307H16.4173L18.5724 34.4824H16.9455L14.7904 37.9307H13.1035C12.9206 37.9307 12.7451 38.0034 12.6158 38.1327C12.4865 38.262 12.4138 38.4374 12.4138 38.6203C12.4138 38.8033 12.4865 38.9787 12.6158 39.108C12.7451 39.2373 12.9206 39.31 13.1035 39.31H31.0345C31.2174 39.31 31.3928 39.2373 31.5221 39.108C31.6515 38.9787 31.7241 38.8033 31.7241 38.6203C31.7241 38.4374 31.6515 38.262 31.5221 38.1327C31.3928 38.0034 31.2174 37.9307 31.0345 37.9307Z" fill="white"/>
<path d="M25.5173 11.7246H28.276V22.7591H25.5173V11.7246Z" fill="white"/>
<path d="M30.3447 14.4824H33.1033V22.7583H30.3447V14.4824Z" fill="white"/>
<path d="M35.1724 17.9316H37.931V22.7592H35.1724V17.9316Z" fill="white"/>
<path d="M37.2414 4.82812H21.5387C23.2336 7.00888 24.1503 9.69397 24.1428 12.4559C24.1353 15.2179 23.2041 17.898 21.4973 20.0695L25.1725 24.5902C25.4563 24.3595 25.8201 24.251 26.1839 24.2885C26.5477 24.326 26.8817 24.5064 27.1125 24.7902L29.7242 28.0005C29.7932 28.0895 29.8621 28.1826 29.9249 28.2764H40V7.58674C40 6.85511 39.7094 6.15345 39.1921 5.6361C38.6747 5.11876 37.9731 4.82813 37.2414 4.82812ZM28.9656 23.4488H24.8277V11.035H28.9656V23.4488ZM33.7932 23.4488H29.6552V13.7936H33.7932V23.4488ZM38.6207 23.4488H34.4828V17.2419H38.6207V23.4488ZM36.5518 16.5522C36.003 16.5522 35.4768 16.3343 35.0888 15.9463C34.7008 15.5583 34.4828 15.032 34.4828 14.4833C34.4828 14.4454 34.4828 14.4074 34.4863 14.3681L31.8387 11.7247C31.8001 11.7247 31.7621 11.7247 31.7242 11.7247C31.2927 11.7232 30.8724 11.5869 30.5221 11.3348C30.1719 11.0826 29.9093 10.7273 29.7711 10.3185L27.7676 9.46053C27.4953 9.58909 27.1978 9.65575 26.8966 9.6557C26.5158 9.65696 26.142 9.5531 25.8165 9.35555C25.4909 9.15801 25.2262 8.87444 25.0515 8.53609C24.8767 8.19774 24.7988 7.81773 24.8262 7.43791C24.8536 7.05809 24.9853 6.6932 25.2067 6.38343C25.4282 6.07366 25.7309 5.83102 26.0814 5.68224C26.432 5.53346 26.8168 5.4843 27.1935 5.5402C27.5701 5.59609 27.9241 5.75486 28.2163 5.99902C28.5085 6.24317 28.7277 6.56325 28.8497 6.92398L30.8532 7.78191C31.1255 7.65335 31.423 7.5867 31.7242 7.58674C32.2729 7.58674 32.7992 7.80472 33.1872 8.19273C33.5752 8.58073 33.7932 9.10698 33.7932 9.6557C33.7932 9.69363 33.7932 9.73157 33.7897 9.77088L36.4373 12.4178H36.5518C37.1005 12.4178 37.6267 12.6357 38.0147 13.0238C38.4028 13.4118 38.6207 13.938 38.6207 14.4867C38.6207 15.0355 38.4028 15.5617 38.0147 15.9497C37.6267 16.3377 37.1005 16.5557 36.5518 16.5557V16.5522Z" fill="white"/>
<path d="M36.5518 13.1041C36.4324 13.1058 36.3138 13.123 36.1987 13.1551L33.0525 10.0089C33.11 9.80492 33.1192 9.59034 33.0792 9.38221C33.0393 9.17408 32.9513 8.97814 32.8224 8.80996C32.6934 8.64178 32.527 8.50598 32.3364 8.41338C32.1458 8.32077 31.9362 8.2739 31.7243 8.27648C31.4278 8.27693 31.1395 8.37375 30.9029 8.55235L28.2594 7.41924C28.2231 7.11778 28.0883 6.83674 27.8759 6.61971C27.6635 6.40268 27.3855 6.26179 27.0849 6.21891C26.7843 6.17602 26.4779 6.23353 26.2133 6.38251C25.9487 6.53149 25.7407 6.76361 25.6215 7.04288C25.5023 7.32215 25.4786 7.63296 25.554 7.92708C25.6294 8.22121 25.7998 8.48222 26.0387 8.66964C26.2777 8.85705 26.5717 8.96039 26.8754 8.96362C27.179 8.96685 27.4752 8.8698 27.7181 8.68752L30.3615 9.82062C30.4017 10.1543 30.5623 10.4619 30.8132 10.6855C31.0642 10.9092 31.3881 11.0335 31.7243 11.0351C31.8437 11.0333 31.9623 11.0162 32.0774 10.9841L35.2236 14.1303C35.1498 14.4089 35.1651 14.7037 35.2675 14.9731C35.3698 15.2426 35.554 15.4732 35.7942 15.6326C36.0343 15.792 36.3184 15.8721 36.6065 15.8618C36.8945 15.8514 37.1721 15.7511 37.4002 15.5749C37.6283 15.3986 37.7954 15.1554 37.8782 14.8793C37.9609 14.6032 37.9551 14.3081 37.8615 14.0354C37.7679 13.7628 37.5912 13.5264 37.3563 13.3593C37.1214 13.1923 36.8401 13.103 36.5518 13.1041Z" fill="white"/>
</svg>
