<svg width="76" height="78" viewBox="0 0 76 78" fill="none" xmlns="http://www.w3.org/2000/svg">
<g filter="url(#filter0_i_810_116)">
<path d="M71.6173 23.344C71.6167 22.0661 71.3434 20.9369 70.7907 19.9678C70.2478 19.0148 69.4348 18.216 68.3442 17.5845C59.342 12.3938 50.3311 7.21894 41.3318 2.02295C38.9057 0.622285 36.5534 0.673348 34.1452 2.09412C30.562 4.20728 12.6225 14.4852 7.27677 17.5816C5.07523 18.856 4.00397 20.8065 4.00344 23.3416C4 33.7805 4.00344 44.219 4 54.6581C4.00053 55.9079 4.26219 57.0152 4.79055 57.9698C5.33372 58.9516 6.15814 59.7723 7.27386 60.4182C12.6199 63.5145 30.5618 73.7917 34.1441 75.9053C36.5534 77.3269 38.9057 77.3777 41.3326 75.9765C50.3322 70.7803 59.3436 65.6057 68.3471 60.415C69.4628 59.7694 70.2872 58.9482 70.8304 57.9671C71.358 57.0125 71.6202 55.9053 71.6207 54.6552C71.6207 54.6552 71.6207 33.7831 71.6173 23.344Z" stroke="#121212" stroke-width="2"/>
<path d="M37.9138 38.8984L4.79053 57.9701C5.3337 58.9519 6.15812 59.7726 7.27383 60.4185C12.6198 63.5148 30.5618 73.792 34.1441 75.9056C36.5533 77.3272 38.9057 77.378 41.3326 75.9768C50.3321 70.7806 59.3436 65.606 68.3471 60.4153C69.4628 59.7697 70.2872 58.9485 70.8304 57.9674L37.9138 38.8984Z" stroke="#121212" stroke-width="2"/>
<path d="M71.6173 23.345C71.6167 22.0671 71.3434 20.9379 70.7907 19.9688L37.9138 38.8991L70.8304 57.9681C71.358 57.0135 71.6202 55.9063 71.6207 54.6562C71.6207 54.6562 71.6207 33.7841 71.6173 23.345Z" stroke="#121212" stroke-width="2"/>
<path d="M67.1021 40.1441H64.5299V42.7169H61.9572V40.1441H59.3853V37.5722H61.9572V35H64.5299V37.5722H67.1021V40.1441ZM57.7163 40.1441H55.1444V42.7169H52.5722V40.1441H50V37.5722H52.5722V35H55.1444V37.5722H57.7163V40.1441Z" stroke="#121212"/>
<path d="M47.5541 44.4833C45.6365 47.8841 41.9925 50.1825 37.8103 50.1825C33.6538 50.1825 30.0305 47.913 28.1031 44.5481C27.1348 42.8597 26.6263 40.9468 26.6283 39.0005C26.6283 32.825 31.6349 27.8187 37.8103 27.8187C41.9401 27.8187 45.5444 30.06 47.4813 33.3904L57.255 27.7624C53.3703 21.0565 46.1175 16.5449 37.8103 16.5449C25.4081 16.5449 15.3545 26.5988 15.3545 39.0005C15.3545 43.0691 16.4369 46.8846 18.3286 50.1756C22.2036 56.917 29.477 61.4563 37.8103 61.4563C46.159 61.4563 53.4438 56.8988 57.3132 50.1375L47.5541 44.4833Z" stroke="#121212" stroke-width="2"/>
</g>
<defs>
<filter id="filter0_i_810_116" x="0" y="0" width="76" height="82.0002" filterUnits="userSpaceOnUse" color-interpolation-filters="sRGB">
<feFlood flood-opacity="0" result="BackgroundImageFix"/>
<feBlend mode="normal" in="SourceGraphic" in2="BackgroundImageFix" result="shape"/>
<feColorMatrix in="SourceAlpha" type="matrix" values="0 0 0 0 0 0 0 0 0 0 0 0 0 0 0 0 0 0 127 0" result="hardAlpha"/>
<feOffset dy="4"/>
<feGaussianBlur stdDeviation="2"/>
<feComposite in2="hardAlpha" operator="arithmetic" k2="-1" k3="1"/>
<feColorMatrix type="matrix" values="0 0 0 0 0 0 0 0 0 0 0 0 0 0 0 0 0 0 0.25 0"/>
<feBlend mode="normal" in2="shape" result="effect1_innerShadow_810_116"/>
</filter>
</defs>
</svg>
