<svg width="636" height="536" viewBox="0 0 636 536" fill="none" xmlns="http://www.w3.org/2000/svg">
<g clip-path="url(#clip0_341_59)">
<mask id="mask0_341_59" style="mask-type:luminance" maskUnits="userSpaceOnUse" x="0" y="0" width="636" height="536">
<path d="M636 0H0V536H636V0Z" fill="white"/>
</mask>
<g mask="url(#mask0_341_59)">
<mask id="mask1_341_59" style="mask-type:luminance" maskUnits="userSpaceOnUse" x="0" y="0" width="636" height="534">
<path d="M0 0H635.839V533.146H0V0Z" fill="white"/>
</mask>
<g mask="url(#mask1_341_59)">
<path d="M-280.584 526.161C-280.584 525.281 -280.402 524.401 -280.063 523.542C-279.725 522.74 -279.24 521.979 -278.584 521.302C-278.563 521.281 -278.542 521.26 -278.521 521.24C-277.902 520.641 -277.219 520.182 -276.48 519.859C-275.719 519.521 -274.902 519.323 -274.079 519.281C-273.542 519.24 -273.001 519.281 -272.459 519.38L-272.141 519.443L-12.1152 259.417C-9.59436 256.896 -7.39645 254.255 -5.51624 251.474C-3.63602 248.714 -2.07352 245.833 -0.81311 242.792C0.426484 239.771 1.36917 236.63 2.0098 233.349C2.62961 230.068 2.9473 226.646 2.9473 223.068V112.901C2.9473 108.88 3.30667 105 4.02542 101.24C4.74939 97.4949 5.82751 93.8751 7.27023 90.396C8.70773 86.9324 10.5098 83.5939 12.6504 80.4324C14.8119 77.2501 17.3119 74.2501 20.1504 71.3908L20.4525 71.6876C25.6556 66.0678 54.041 37.4793 82.4265 9.0939C110.812 -19.2915 139.421 -47.6822 145.02 -52.8801L144.723 -53.1822C147.583 -56.0207 150.604 -58.5207 153.765 -60.6822C156.947 -62.8436 160.265 -64.6249 163.729 -66.0624C167.208 -67.5051 170.807 -68.5832 174.572 -69.3072C178.333 -70.0259 182.213 -70.3853 186.234 -70.3853H366.098L366.275 -70.6665C366.598 -71.1249 366.958 -71.5259 367.38 -71.8853C367.999 -72.4269 368.718 -72.8853 369.499 -73.1665C370.26 -73.4686 371.078 -73.6249 371.937 -73.6249C372.859 -73.6249 373.76 -73.4478 374.578 -73.104C375.421 -72.7447 376.197 -72.2447 376.822 -71.604C377.458 -70.9634 377.979 -70.203 378.322 -69.3644C378.661 -68.5467 378.838 -67.6665 378.838 -66.7238C378.838 -65.8019 378.661 -64.9061 378.322 -64.0832C377.979 -63.2447 377.458 -62.4842 376.822 -61.8436C376.822 -61.8228 376.822 -61.8228 376.801 -61.8228C376.161 -61.1822 375.4 -60.6822 374.562 -60.3228C373.739 -59.9842 372.859 -59.8019 371.921 -59.8019C371.078 -59.8019 370.26 -59.9634 369.479 -60.2447C368.697 -60.5415 367.979 -60.9842 367.359 -61.5415C366.958 -61.9009 366.578 -62.3228 366.26 -62.7655L366.078 -63.0415H186.213C182.63 -63.0415 179.213 -62.7238 175.932 -62.104C172.65 -61.4842 169.51 -60.5415 166.489 -59.2811C163.468 -58.0207 160.567 -56.4634 157.807 -54.5832C155.046 -52.703 152.406 -50.4999 149.864 -47.979L25.291 76.5887C22.7702 79.1095 20.5723 81.7501 18.6921 84.5314C16.8119 87.2918 15.2494 90.172 13.989 93.2137C12.7494 96.2345 11.8119 99.3751 11.1712 102.656C10.5515 105.938 10.2285 109.359 10.2285 112.938V223.109C10.2285 227.13 9.86917 231.01 9.15042 234.771C8.42648 238.51 7.34836 242.13 5.90564 245.615C4.46814 249.094 2.66605 252.417 0.525421 255.573C-1.63602 258.755 -4.13602 261.776 -6.97458 264.62L-267.001 524.641L-266.938 524.964C-266.839 525.5 -266.798 526.063 -266.839 526.583C-266.881 527.401 -267.079 528.203 -267.417 528.984C-267.761 529.724 -268.219 530.422 -268.818 531.021C-268.839 531.042 -268.86 531.063 -268.881 531.083C-269.542 531.724 -270.303 532.224 -271.12 532.563C-271.959 532.906 -272.86 533.083 -273.74 533.083C-274.62 533.083 -275.501 532.906 -276.36 532.563C-277.162 532.224 -277.923 531.745 -278.605 531.083C-278.62 531.063 -278.641 531.042 -278.662 531.021C-279.303 530.365 -279.803 529.604 -280.141 528.781C-280.402 527.922 -280.584 527.042 -280.584 526.161ZM608.036 -71.5676C608.676 -70.9269 609.176 -70.1665 609.536 -69.3228C609.88 -68.5051 610.057 -67.6249 610.057 -66.6822C610.057 -65.8228 609.895 -65.0051 609.619 -64.2447C609.317 -63.4634 608.88 -62.7447 608.317 -62.1249C607.958 -61.7238 607.536 -61.3436 607.098 -61.0207L606.817 -60.8436V40.7814C606.796 46.1616 606.135 51.3231 604.859 56.2241C603.557 61.1876 601.635 65.8908 599.114 70.2501C596.593 74.6095 593.494 78.6095 589.833 82.2137C586.234 85.771 582.093 88.9324 577.447 91.6147L458.421 160.333C456.098 161.672 453.76 162.833 451.416 163.813C449.036 164.813 446.676 165.635 444.275 166.271C441.874 166.911 439.416 167.396 436.854 167.714C434.296 168.031 431.692 168.193 429.072 168.193H266.77C265.713 168.193 264.713 168.276 263.77 168.453C262.854 168.635 261.953 168.896 261.109 169.255C260.249 169.615 259.432 170.073 258.65 170.594C257.848 171.135 257.088 171.776 256.333 172.516C253.848 175.036 251.687 177.677 249.807 180.438C247.947 183.198 246.39 186.078 245.166 189.036C243.926 192.021 243.005 195.141 242.385 198.422C241.765 201.682 241.468 205.083 241.468 208.661V318.833C241.468 322.854 241.109 326.734 240.385 330.495C239.666 334.234 238.588 337.854 237.145 341.339C235.703 344.818 233.906 348.135 231.765 351.297C229.604 354.479 227.104 357.479 224.26 360.339L60.0202 524.604L60.0827 524.922C60.1816 525.464 60.2233 526.021 60.1816 526.542C60.14 527.365 59.9421 528.161 59.6035 528.943C59.2598 529.682 58.8015 530.385 58.2233 530.984C58.2025 531.005 58.1816 531.021 58.1608 531.042C57.4994 531.682 56.7233 532.182 55.9212 532.526C55.0827 532.865 54.1816 533.042 53.3015 533.042C52.4212 533.042 51.541 532.865 50.6816 532.526C49.8796 532.182 49.1191 531.703 48.4369 531.042C48.4212 531.021 48.4004 531.005 48.3796 530.984C47.739 530.323 47.239 529.563 46.9004 528.745C46.5566 527.901 46.3796 527 46.3796 526.12C46.3796 525.24 46.5566 524.359 46.9004 523.5C47.239 522.703 47.7181 521.943 48.3796 521.26C48.4004 521.24 48.4212 521.219 48.4369 521.203C49.0566 520.599 49.739 520.141 50.4785 519.823C51.239 519.479 52.0619 519.281 52.8796 519.24C53.4212 519.198 53.9577 519.24 54.4994 519.339L54.8223 519.401L219.062 355.161C221.583 352.641 223.781 350 225.661 347.219C227.541 344.458 229.104 341.578 230.364 338.536C231.604 335.516 232.546 332.375 233.187 329.094C233.807 325.813 234.124 322.391 234.124 318.813V208.646C234.124 204.661 234.484 200.802 235.203 197.063C235.926 193.318 236.984 189.719 238.426 186.24C239.848 182.776 241.624 179.474 243.749 176.318C245.869 173.177 248.328 170.193 251.15 167.333C252.208 166.255 253.328 165.313 254.51 164.51C255.708 163.693 256.968 163.01 258.291 162.474C259.609 161.932 260.989 161.51 262.411 161.234C263.833 160.953 265.291 160.813 266.791 160.813H429.093C431.453 160.813 433.734 160.672 435.937 160.391C438.156 160.109 440.296 159.693 442.416 159.13C444.557 158.573 446.635 157.849 448.656 156.99C450.697 156.13 452.739 155.109 454.781 153.932L573.791 85.2345C577.869 82.8751 581.51 80.0939 584.671 76.9897C587.874 73.8491 590.572 70.3491 592.755 66.547C594.953 62.7501 596.635 58.646 597.755 54.3074C598.874 49.9845 599.453 45.4428 599.473 40.7241V-60.8853L599.197 -61.0624C598.734 -61.3853 598.333 -61.7447 597.973 -62.1613C597.416 -62.7811 596.973 -63.5051 596.676 -64.2863C596.395 -65.0415 596.234 -65.8644 596.234 -66.7238C596.234 -67.6457 596.416 -68.5467 596.755 -69.3644C597.093 -70.203 597.614 -70.9634 598.255 -71.604C598.255 -71.604 598.255 -71.6249 598.275 -71.6249C598.916 -72.2655 599.676 -72.7655 600.515 -73.1249C601.338 -73.4686 602.218 -73.6457 603.156 -73.6457C604.078 -73.6457 604.979 -73.4686 605.796 -73.1249C606.635 -72.7238 607.395 -72.2082 608.036 -71.5676ZM21.8535 531.083C21.1921 531.724 20.4316 532.224 19.614 532.563C18.7702 532.906 17.8691 533.083 16.989 533.083C16.1087 533.083 15.2285 532.906 14.3691 532.563C13.5723 532.224 12.8119 531.745 12.1296 531.083C12.1087 531.063 12.0879 531.042 12.0723 531.021C11.4316 530.365 10.9316 529.604 10.5879 528.781C10.2494 527.943 10.0671 527.042 10.0671 526.161C10.0671 525.281 10.2494 524.401 10.5879 523.542C10.9316 522.74 11.4108 521.979 12.0723 521.302C12.0879 521.281 12.1087 521.26 12.1296 521.24C12.7494 520.641 13.4316 520.182 14.1712 519.859C14.9316 519.521 15.7494 519.323 16.5723 519.281C17.1087 519.24 17.6504 519.281 18.1921 519.38L18.5098 519.443L193.395 344.557C195.916 342.036 198.114 339.396 199.994 336.615C201.874 333.854 203.437 330.974 204.697 327.932C205.937 324.911 206.88 321.771 207.52 318.49C208.14 315.208 208.458 311.792 208.458 308.208V198.042C208.458 194.021 208.817 190.141 209.541 186.38C210.26 182.635 211.338 179.016 212.781 175.536C214.218 172.073 216.02 168.734 218.161 165.573C220.322 162.391 222.822 159.391 225.661 156.531L225.781 156.651C226.301 155.969 227.041 155.151 227.781 154.411C228.505 153.688 229.322 152.969 229.963 152.469L229.843 152.349C232.703 149.51 235.723 147.01 238.885 144.849C242.067 142.688 245.39 140.906 248.848 139.469C252.328 138.026 255.932 136.948 259.692 136.224C263.453 135.505 267.333 135.146 271.354 135.146H422.213C424.572 135.146 426.854 135.005 429.051 134.724C431.275 134.443 433.416 134.026 435.536 133.464C437.676 132.885 439.755 132.182 441.775 131.323C443.817 130.464 445.859 129.443 447.895 128.266L548.104 70.4116C552.182 68.047 555.822 65.2658 558.984 62.1668C562.187 59.0262 564.885 55.5262 567.067 51.7241C569.265 47.922 570.947 43.8231 572.067 39.4793C573.187 35.1616 573.77 30.6199 573.791 25.896V-60.8853L573.51 -61.0624C573.046 -61.3853 572.65 -61.7447 572.286 -62.1613C571.729 -62.7811 571.286 -63.5051 570.989 -64.2863C570.687 -65.0415 570.525 -65.8644 570.525 -66.7238C570.525 -67.6457 570.708 -68.5467 571.046 -69.3644C571.39 -70.203 571.906 -70.9634 572.546 -71.604C572.546 -71.604 572.546 -71.6249 572.567 -71.6249C573.208 -72.2655 573.968 -72.7655 574.807 -73.1249C575.63 -73.4686 576.51 -73.6457 577.447 -73.6457C578.369 -73.6457 579.27 -73.4686 580.088 -73.1249C580.932 -72.7655 581.713 -72.2655 582.333 -71.6249C582.973 -70.9842 583.473 -70.2238 583.833 -69.3853C584.171 -68.5624 584.354 -67.6822 584.354 -66.7447C584.354 -65.8853 584.192 -65.0624 583.911 -64.3019C583.609 -63.5259 583.171 -62.8019 582.609 -62.1822C582.249 -61.7811 581.833 -61.4009 581.39 -61.0832L581.109 -60.9009V25.8803C581.088 31.2606 580.432 36.422 579.15 41.3231C577.848 46.2814 575.932 50.9845 573.411 55.3439C570.89 59.7085 567.786 63.7085 564.124 67.3074C560.525 70.8699 556.385 74.0314 551.744 76.7137L451.536 134.568C449.218 135.906 446.88 137.068 444.536 138.047C442.156 139.047 439.796 139.865 437.395 140.505C434.994 141.146 432.536 141.625 429.973 141.948C427.411 142.266 424.833 142.427 422.192 142.427H271.333C267.755 142.427 264.333 142.745 261.051 143.37C257.77 143.99 254.63 144.927 251.609 146.188C248.588 147.448 245.687 149.01 242.926 150.891C240.166 152.771 237.505 154.969 234.984 157.49L230.822 161.651C228.301 164.172 226.104 166.833 224.223 169.594C222.343 172.354 220.781 175.234 219.52 178.276C218.281 181.297 217.338 184.438 216.702 187.719C216.083 191 215.76 194.422 215.76 198V308.167C215.76 312.188 215.4 316.068 214.682 319.833C213.958 323.573 212.88 327.193 211.437 330.672C209.999 334.156 208.197 337.474 206.057 340.635C203.895 343.818 201.395 346.839 198.557 349.677L23.6712 524.583L23.7337 524.901C23.8327 525.443 23.8744 526 23.8327 526.521C23.791 527.344 23.5931 528.141 23.2546 528.922C22.9316 529.661 22.4525 530.365 21.8744 530.964C21.89 531.042 21.8744 531.063 21.8535 531.083ZM-207.907 526.161C-207.907 525.281 -207.725 524.401 -207.386 523.542C-207.042 522.74 -206.563 521.979 -205.902 521.302C-205.886 521.281 -205.865 521.26 -205.844 521.24C-205.225 520.641 -204.542 520.182 -203.803 519.859C-203.042 519.521 -202.225 519.323 -201.402 519.281C-200.865 519.24 -200.324 519.281 -199.782 519.38L-199.464 519.443L39.2754 280.703C41.7962 278.182 43.9994 275.542 45.8796 272.76C47.7598 270 49.3171 267.12 50.5775 264.078C51.8171 261.057 52.7598 257.917 53.4004 254.635C54.0202 251.354 54.3379 247.932 54.3379 244.354V134.188C54.3379 130.161 54.7025 126.281 55.4212 122.521C56.14 118.781 57.2233 115.161 58.6608 111.677C60.1035 108.219 61.9004 104.88 64.041 101.719C66.2025 98.5366 68.7025 95.5366 71.5462 92.6772L71.8431 92.9741C76.2858 88.172 97.5306 66.6668 118.775 45.422C140.041 24.1564 161.489 2.89077 166.307 -1.51028L166.01 -1.80715C168.869 -4.6509 171.89 -7.1509 175.051 -9.31235C178.229 -11.4686 181.551 -13.2499 185.015 -14.6926C188.494 -16.1301 192.093 -17.2134 195.854 -17.9322C199.614 -18.6509 203.499 -19.0103 207.52 -19.0103H390.301C391.124 -19.0103 391.921 -19.0728 392.682 -19.1926C393.442 -19.3124 394.182 -19.4738 394.864 -19.7134C395.567 -19.9322 396.244 -20.2342 396.947 -20.5936C397.645 -20.953 398.307 -21.3749 398.963 -21.854L399.463 -22.2134C402.588 -24.5363 405.369 -27.1561 407.786 -29.9738C410.27 -32.8749 412.39 -36.0155 414.088 -39.3384L414.291 -39.7394C415.989 -43.1196 417.291 -46.6769 418.192 -50.4009C419.01 -53.7811 419.489 -57.3019 419.63 -60.9009L419.39 -61.0624C418.953 -61.3644 418.551 -61.7447 418.171 -62.1613C417.63 -62.7811 417.171 -63.5051 416.89 -64.2863C416.588 -65.0415 416.432 -65.8644 416.432 -66.7238C416.432 -67.6457 416.609 -68.5467 416.947 -69.3644C417.291 -70.203 417.812 -70.9634 418.453 -71.604C418.453 -71.604 418.453 -71.6249 418.468 -71.6249C419.109 -72.2655 419.869 -72.7655 420.713 -73.1249C421.531 -73.4686 422.411 -73.6457 423.354 -73.6457C424.27 -73.6457 425.171 -73.4686 425.994 -73.1249C426.833 -72.7863 427.593 -72.2655 428.234 -71.6249C428.255 -71.6249 428.255 -71.6249 428.255 -71.604C428.895 -70.9634 429.395 -70.203 429.755 -69.3644C430.093 -68.5467 430.275 -67.6665 430.275 -66.7238C430.275 -65.8853 430.114 -65.0624 429.833 -64.2863C429.531 -63.5051 429.093 -62.7811 428.531 -62.1613C428.171 -61.7447 427.755 -61.3853 427.291 -61.0624L426.973 -60.8436C426.812 -56.6613 426.27 -52.5988 425.333 -48.6978C424.291 -44.4165 422.812 -40.3176 420.869 -36.4582C418.848 -32.4582 416.369 -28.6926 413.411 -25.2342C410.531 -21.854 407.208 -18.7707 403.447 -16.0103L403.307 -15.8905C402.348 -15.1926 401.348 -14.5728 400.328 -14.0519C399.307 -13.5103 398.265 -13.0728 397.166 -12.729C396.067 -12.3697 394.963 -12.1092 393.822 -11.9322C392.682 -11.7499 391.525 -11.6717 390.322 -11.6717H207.536C203.958 -11.6717 200.536 -11.3488 197.255 -10.729C193.973 -10.1092 190.833 -9.17173 187.812 -7.91132C184.791 -6.6509 181.89 -5.0884 179.13 -3.20819C176.369 -1.32798 173.729 0.869935 171.187 3.39077L76.7233 97.8751C74.2025 100.396 72.0046 103.036 70.1244 105.818C68.2441 108.578 66.6816 111.458 65.4212 114.5C64.1816 117.521 63.2441 120.661 62.6035 123.943C61.9837 127.224 61.6608 130.646 61.6608 134.224V244.391C61.6608 248.411 61.3015 252.297 60.5827 256.057C59.864 259.797 58.7806 263.417 57.3431 266.896C55.9004 270.38 54.0983 273.698 51.9577 276.859C49.8015 280.042 47.2962 283.042 44.4577 285.901L-194.282 524.641L-194.219 524.964C-194.12 525.5 -194.079 526.063 -194.12 526.583C-194.162 527.401 -194.36 528.203 -194.704 528.984C-195.042 529.724 -195.501 530.422 -196.084 531.021C-196.1 531.042 -196.12 531.063 -196.141 531.083C-196.803 531.724 -197.563 532.224 -198.381 532.563C-199.225 532.906 -200.12 533.083 -201.001 533.083C-201.881 533.083 -202.761 532.906 -203.626 532.563C-204.423 532.224 -205.183 531.745 -205.865 531.083C-205.886 531.063 -205.902 531.042 -205.923 531.021C-206.563 530.365 -207.063 529.604 -207.407 528.781C-207.725 527.922 -207.907 527.042 -207.907 526.161ZM-14.4746 531.083C-15.136 531.724 -15.8965 532.224 -16.7194 532.563C-17.5579 532.906 -18.459 533.083 -19.3392 533.083C-20.2194 533.083 -21.0996 532.906 -21.959 532.563C-22.761 532.224 -23.5215 531.745 -24.1985 531.083C-24.2194 531.063 -24.2402 531.042 -24.261 531.021C-24.9017 530.365 -25.4017 529.604 -25.7402 528.781C-26.0788 527.943 -26.2611 527.042 -26.2611 526.161C-26.2611 525.281 -26.0788 524.401 -25.7402 523.542C-25.4017 522.74 -24.9173 521.979 -24.261 521.302C-24.2402 521.281 -24.2194 521.26 -24.1985 521.24C-23.5788 520.641 -22.8965 520.182 -22.1569 519.859C-21.3965 519.521 -20.5788 519.323 -19.7559 519.281C-19.2194 519.24 -18.6777 519.281 -18.136 519.38L-17.8184 519.443L167.708 333.917C170.229 331.396 172.432 328.755 174.312 325.974C176.192 323.214 177.749 320.333 179.01 317.292C180.249 314.271 181.192 311.13 181.833 307.849C182.452 304.568 182.77 301.146 182.77 297.568V187.396C182.77 183.375 183.13 179.495 183.854 175.734C184.572 171.995 185.65 168.375 187.093 164.891C188.536 161.411 190.333 158.089 192.473 154.932C194.635 151.75 197.135 148.729 199.979 145.891L200.197 146.109C201.796 144.208 205.697 140.167 209.598 136.266C213.499 132.365 217.541 128.464 219.442 126.865L219.223 126.646C222.083 123.802 225.104 121.302 228.265 119.141C231.442 116.979 234.765 115.198 238.223 113.76C241.708 112.318 245.307 111.24 249.067 110.521C252.828 109.797 256.708 109.438 260.734 109.438H415.348C417.708 109.438 419.989 109.297 422.192 109.021C424.411 108.74 426.551 108.318 428.671 107.76C430.812 107.198 432.895 106.479 434.916 105.62C436.953 104.755 438.994 103.74 441.036 102.557L522.437 55.5678C526.515 53.2033 530.156 50.4428 533.317 47.3231C536.52 44.1824 539.218 40.6824 541.4 36.8803C543.604 33.0783 545.281 28.9793 546.4 24.6408C547.52 20.3178 548.104 15.7762 548.124 11.0522V-60.9009L547.843 -61.0832C547.38 -61.4009 546.984 -61.7655 546.624 -62.1822C546.062 -62.8019 545.619 -63.5259 545.322 -64.3019C545.041 -65.0624 544.864 -65.8853 544.864 -66.7447C544.864 -67.6665 545.041 -68.5624 545.38 -69.3853C545.723 -70.2238 546.244 -70.9842 546.88 -71.6249C546.88 -71.6249 546.88 -71.6457 546.9 -71.6457C547.541 -72.2863 548.301 -72.7863 549.14 -73.1457C549.963 -73.4842 550.843 -73.6665 551.781 -73.6665C552.703 -73.6665 553.604 -73.4842 554.421 -73.1457C555.265 -72.7863 556.046 -72.2863 556.666 -71.6457C557.307 -71.0051 557.807 -70.2447 558.166 -69.4061C558.505 -68.5832 558.687 -67.703 558.687 -66.7655C558.687 -65.9061 558.525 -65.0832 558.223 -64.3228C557.926 -63.5415 557.484 -62.8228 556.926 -62.203C556.562 -61.8019 556.145 -61.4217 555.703 -61.104L555.426 -60.9217V11.0366C555.406 16.4168 554.744 21.5783 553.463 26.4793C552.161 31.4376 550.244 36.1408 547.723 40.5001C545.203 44.8647 542.098 48.8647 538.442 52.4637C534.838 56.0262 530.697 59.1876 526.057 61.8699L444.656 108.859C442.317 110.198 439.994 111.359 437.656 112.339C435.275 113.339 432.916 114.161 430.515 114.802C428.114 115.443 425.65 115.922 423.093 116.24C420.531 116.563 417.953 116.719 415.312 116.719H260.692C257.109 116.719 253.687 117.042 250.411 117.661C247.13 118.281 243.989 119.224 240.968 120.479C237.947 121.74 235.046 123.302 232.286 125.182C229.525 127.063 226.864 129.266 224.343 131.786L205.14 151.01C202.619 153.531 200.416 156.193 198.536 158.953C196.656 161.714 195.093 164.594 193.833 167.635C192.593 170.656 191.656 173.797 191.015 177.078C190.395 180.354 190.072 183.776 190.072 187.359V297.526C190.072 301.547 189.713 305.427 188.994 309.188C188.275 312.927 187.192 316.552 185.755 320.031C184.312 323.51 182.51 326.833 180.369 329.995C178.213 333.172 175.708 336.193 172.869 339.036L-12.6569 524.583L-12.5944 524.901C-12.4954 525.443 -12.459 526 -12.4954 526.521C-12.5579 527.344 -12.735 528.141 -13.0788 528.922C-13.4173 529.661 -13.8756 530.365 -14.459 530.964C-14.4381 531.042 -14.459 531.063 -14.4746 531.083ZM-171.574 526.161C-171.574 525.281 -171.396 524.401 -171.058 523.542C-170.714 522.74 -170.235 521.979 -169.574 521.302C-169.553 521.281 -169.537 521.26 -169.516 521.24C-168.896 520.641 -168.214 520.182 -167.475 519.859C-166.714 519.521 -165.896 519.323 -165.074 519.281C-164.532 519.24 -163.995 519.281 -163.454 519.38L-163.136 519.443L64.9629 291.344C67.4837 288.823 69.6816 286.182 71.5619 283.401C73.4265 280.641 75.0046 277.76 76.265 274.719C77.5046 271.698 78.4473 268.557 79.0879 265.276C79.7077 261.995 80.0254 258.578 80.0254 254.995V144.828C80.0254 140.807 80.3848 136.927 81.1087 133.167C81.8275 129.422 82.9056 125.802 84.3483 122.323C85.7858 118.859 87.5879 115.521 89.7285 112.359C91.89 109.177 94.39 106.177 97.2285 103.318L97.5306 103.62C101.51 99.2553 119.234 81.3126 136.942 63.6095C154.666 45.8856 172.588 28.1772 176.952 24.1981L176.65 23.896C179.51 21.0574 182.531 18.5574 185.692 16.396C188.874 14.2345 192.192 12.4533 195.656 11.0158C199.135 9.57306 202.739 8.49493 206.499 7.77618C210.26 7.05222 214.14 6.69285 218.161 6.69285H387.801C390.161 6.69285 392.442 6.55222 394.645 6.27618C396.864 5.99493 399.005 5.57306 401.124 5.01577C403.265 4.45327 405.348 3.73452 407.369 2.87515C409.406 2.01056 411.447 0.989723 413.489 -0.187355L419.65 -3.74985C423.734 -6.10923 427.374 -8.89048 430.531 -11.9894C433.734 -15.1301 436.437 -18.6301 438.614 -22.4322C440.817 -26.2342 442.494 -30.3332 443.614 -34.6769C444.739 -38.9999 445.317 -43.5363 445.338 -48.2603V-60.8853L445.057 -61.0624C444.598 -61.3853 444.197 -61.7447 443.838 -62.1613C443.296 -62.7811 442.838 -63.5051 442.557 -64.2863C442.255 -65.0415 442.098 -65.8644 442.098 -66.7238C442.098 -67.6457 442.275 -68.5467 442.614 -69.3644C442.958 -70.203 443.479 -70.9634 444.119 -71.604C444.119 -71.604 444.119 -71.6249 444.135 -71.6249C444.775 -72.2655 445.536 -72.7655 446.38 -73.1249C447.197 -73.4686 448.078 -73.6457 449.02 -73.6457C449.958 -73.6457 450.838 -73.4686 451.661 -73.1249C452.499 -72.7863 453.26 -72.2655 453.9 -71.6249C453.9 -71.6249 453.921 -71.6249 453.921 -71.604C454.557 -70.9634 455.062 -70.203 455.421 -69.3644C455.76 -68.5467 455.942 -67.6665 455.942 -66.7238C455.942 -65.8853 455.781 -65.0624 455.479 -64.2863C455.182 -63.5051 454.739 -62.7811 454.182 -62.1613C453.817 -61.7655 453.4 -61.3853 452.958 -61.0624L452.676 -60.8853V-48.2603C452.661 -42.8801 451.999 -37.7186 450.718 -32.8176C449.416 -27.854 447.499 -23.1561 444.979 -18.7915C442.458 -14.4322 439.354 -10.4322 435.692 -6.82798C432.093 -3.27069 427.953 -0.10923 423.312 2.57306L417.13 6.13556C414.812 7.4741 412.468 8.63556 410.13 9.61472C407.749 10.6147 405.385 11.4324 402.989 12.0731C400.588 12.7137 398.124 13.1928 395.567 13.5158C393.005 13.8335 390.421 13.9949 387.781 13.9949H218.14C214.562 13.9949 211.14 14.3178 207.859 14.9376C204.577 15.5574 201.437 16.4949 198.416 17.7553C195.395 19.0158 192.494 20.5783 189.734 22.4585C186.973 24.3387 184.333 26.5366 181.791 29.0574L102.374 108.479C99.8535 111 97.6504 113.641 95.7702 116.422C93.89 119.182 92.3275 122.063 91.0671 125.104C89.8275 128.125 88.89 131.266 88.2494 134.547C87.6296 137.828 87.3066 141.245 87.3066 144.828V254.995C87.3066 259.016 86.9473 262.896 86.2285 266.656C85.5098 270.401 84.4265 274.021 82.989 277.5C81.5462 280.979 79.7441 284.302 77.6035 287.464C75.4473 290.646 72.9473 293.646 70.1035 296.505L-157.99 524.604L-157.933 524.922C-157.834 525.464 -157.792 526.021 -157.834 526.542C-157.891 527.365 -158.074 528.161 -158.433 528.943C-158.751 529.682 -159.235 530.385 -159.813 530.984C-159.834 531.005 -159.855 531.021 -159.87 531.042C-160.532 531.682 -161.292 532.182 -162.115 532.526C-162.954 532.865 -163.855 533.042 -164.735 533.042C-165.615 533.042 -166.495 532.865 -167.355 532.526C-168.157 532.182 -168.917 531.703 -169.594 531.042C-169.615 531.021 -169.636 531.005 -169.657 530.984C-170.298 530.323 -170.798 529.563 -171.136 528.745C-171.396 527.922 -171.574 527.042 -171.574 526.161ZM-98.9173 526.161C-98.9173 525.281 -98.7402 524.401 -98.3965 523.542C-98.0579 522.74 -97.5788 521.979 -96.9173 521.302C-96.8965 521.281 -96.8756 521.26 -96.8548 521.24C-96.235 520.641 -95.5579 520.182 -94.8184 519.859C-94.0579 519.521 -93.235 519.323 -92.4173 519.281C-91.8756 519.24 -91.334 519.281 -90.7975 519.38L-90.4746 519.443L116.338 312.63C118.859 310.109 121.057 307.469 122.937 304.688C124.796 301.927 126.38 299.047 127.64 296.005C128.88 292.984 129.817 289.844 130.458 286.563C131.077 283.281 131.4 279.859 131.4 276.281V166.115C131.4 162.094 131.76 158.214 132.479 154.448C133.197 150.708 134.281 147.089 135.718 143.609C137.161 140.125 138.963 136.807 141.104 133.646C143.26 130.464 145.765 127.464 148.604 124.604L148.864 124.865C151.822 121.521 162.546 110.641 173.249 99.9168C183.952 89.1928 194.854 78.4897 198.197 75.5314L197.937 75.271C200.796 72.4324 203.817 69.9272 206.979 67.771C210.161 65.6095 213.479 63.8283 216.942 62.3856C220.421 60.9481 224.02 59.8647 227.781 59.146C231.546 58.4272 235.426 58.0678 239.447 58.0678H401.567C403.926 58.0678 406.208 57.9272 408.406 57.646C410.63 57.3647 412.77 56.9481 414.89 56.3856C417.031 55.8283 419.109 55.1043 421.13 54.2449C423.171 53.3856 425.213 52.3647 427.255 51.1824L471.041 25.9168C475.124 23.5574 478.765 20.7762 481.926 17.6772C485.124 14.5366 487.828 11.0366 490.01 7.23452C492.208 3.43243 493.89 -0.666531 495.01 -5.01028C496.13 -9.32799 496.708 -13.8697 496.729 -18.5936V-60.8853L496.447 -61.0624C495.989 -61.3853 495.588 -61.7447 495.229 -62.1613C494.687 -62.7811 494.229 -63.5051 493.947 -64.2863C493.65 -65.0415 493.489 -65.8644 493.489 -66.7238C493.489 -67.6457 493.671 -68.5467 494.01 -69.3644C494.348 -70.203 494.869 -70.9634 495.51 -71.604C495.51 -71.604 495.51 -71.6249 495.531 -71.6249C496.171 -72.2655 496.932 -72.7655 497.77 -73.1249C498.588 -73.4686 499.468 -73.6457 500.411 -73.6457C501.333 -73.6457 502.229 -73.4686 503.051 -73.1249C503.89 -72.7863 504.65 -72.2655 505.291 -71.6249C505.291 -71.6249 505.312 -71.6249 505.312 -71.604C505.953 -70.9634 506.453 -70.203 506.812 -69.3644C507.15 -68.5467 507.333 -67.6665 507.333 -66.7238C507.333 -65.8853 507.171 -65.0624 506.874 -64.2863C506.572 -63.5051 506.13 -62.7811 505.572 -62.1613C505.213 -61.7655 504.791 -61.3853 504.354 -61.0624L504.072 -60.8853V-18.5936C504.051 -13.2134 503.39 -8.05194 502.109 -3.1509C500.812 1.81265 498.89 6.51577 496.369 10.8751C493.848 15.2345 490.749 19.2345 487.088 22.8595C483.484 26.4168 479.343 29.5783 474.703 32.2606L430.911 57.547C428.593 58.8856 426.255 60.047 423.911 61.0262C421.531 62.0262 419.171 62.8491 416.77 63.4897C414.369 64.1303 411.911 64.6095 409.348 64.9272C406.786 65.2501 404.208 65.4064 401.567 65.4064H239.447C235.864 65.4064 232.442 65.7293 229.161 66.3491C225.885 66.9689 222.744 67.9064 219.723 69.1668C216.702 70.4272 213.801 71.9897 211.041 73.8699C208.281 75.7501 205.64 77.9533 203.098 80.4741L153.786 129.802C151.265 132.323 149.062 134.964 147.182 137.745C145.301 140.505 143.744 143.385 142.484 146.427C141.244 149.448 140.301 152.589 139.661 155.87C139.041 159.151 138.723 162.573 138.723 166.151V276.323C138.723 280.344 138.359 284.224 137.64 287.984C136.921 291.724 135.838 295.344 134.4 298.828C132.958 302.307 131.161 305.63 129.02 308.786C126.859 311.969 124.359 314.99 121.515 317.828L-85.2923 524.641L-85.235 524.964C-85.1361 525.5 -85.0944 526.063 -85.1361 526.583C-85.1725 527.401 -85.3756 528.203 -85.7142 528.984C-86.0527 529.724 -86.5163 530.422 -87.0944 531.021C-87.1152 531.042 -87.1361 531.063 -87.1569 531.083C-87.8131 531.724 -88.5736 532.224 -89.3965 532.563C-90.235 532.906 -91.1361 533.083 -92.0163 533.083C-92.8965 533.083 -93.7767 532.906 -94.6361 532.563C-95.4381 532.224 -96.1986 531.745 -96.8756 531.083C-96.8965 531.063 -96.9173 531.042 -96.9381 531.021C-97.5788 530.365 -98.0788 529.604 -98.4173 528.781C-98.7402 527.922 -98.9173 527.042 -98.9173 526.161ZM-50.8236 531.083C-51.485 531.724 -52.2454 532.224 -53.0684 532.563C-53.9069 532.906 -54.8079 533.083 -55.6881 533.083C-56.5684 533.083 -57.4486 532.906 -58.3079 532.563C-59.11 532.224 -59.8704 531.745 -60.5475 531.083C-60.5684 531.063 -60.5892 531.042 -60.61 531.021C-61.2506 530.365 -61.7506 529.604 -62.0892 528.781C-62.4277 527.943 -62.61 527.042 -62.61 526.161C-62.61 525.281 -62.4277 524.401 -62.0892 523.542C-61.7506 522.74 -61.2663 521.979 -60.61 521.302C-60.5892 521.281 -60.5684 521.26 -60.5475 521.24C-59.9277 520.641 -59.2454 520.182 -58.5059 519.859C-57.7454 519.521 -56.9277 519.323 -56.1048 519.281C-55.5684 519.24 -55.0267 519.281 -54.485 519.38L-54.1673 519.443L141.999 323.271C144.52 320.75 146.723 318.109 148.604 315.328C150.484 312.568 152.046 309.688 153.307 306.646C154.546 303.625 155.484 300.484 156.124 297.203C156.744 293.927 157.067 290.505 157.067 286.922V176.755C157.067 172.734 157.426 168.854 158.145 165.094C158.864 161.354 159.947 157.729 161.385 154.25C162.827 150.792 164.63 147.448 166.77 144.286C168.926 141.109 171.432 138.104 174.27 135.245L174.531 135.505C176.89 132.807 184.15 125.365 191.416 118.099C198.676 110.839 206.119 103.578 208.817 101.219L208.557 100.958C211.421 98.1147 214.442 95.6147 217.598 93.4533C220.781 91.297 224.104 89.5158 227.562 88.0731C231.046 86.6356 234.645 85.5522 238.406 84.8335C242.166 84.1147 246.046 83.7553 250.067 83.7553H408.447C410.807 83.7553 413.088 83.6147 415.291 83.3335C417.51 83.0522 419.65 82.6303 421.77 82.0731C423.911 81.4897 425.994 80.7918 428.015 79.9324C430.051 79.0731 432.093 78.0522 434.135 76.8699L496.729 40.7606C500.812 38.4012 504.453 35.6408 507.614 32.521C510.812 29.3803 513.515 25.8803 515.692 22.0783C517.895 18.2762 519.578 14.1772 520.697 9.83347C521.817 5.51577 522.395 0.974102 522.416 -3.74985V-60.8644L522.135 -61.0415C521.676 -61.3644 521.275 -61.7238 520.916 -62.1457C520.354 -62.7655 519.916 -63.4842 519.614 -64.2655C519.333 -65.0259 519.156 -65.8436 519.156 -66.703C519.156 -67.6249 519.333 -68.5259 519.676 -69.3436C520.015 -70.1874 520.536 -70.9478 521.176 -71.5832C521.176 -71.5832 521.176 -71.604 521.197 -71.604C521.838 -72.2447 522.598 -72.7447 523.437 -73.104C524.255 -73.4478 525.135 -73.6249 526.078 -73.6249C526.999 -73.6249 527.895 -73.4478 528.718 -73.104C529.557 -72.7447 530.338 -72.2447 530.958 -71.604C531.598 -70.9634 532.098 -70.203 532.458 -69.3644C532.796 -68.5467 532.979 -67.6665 532.979 -66.7238C532.979 -65.8644 532.817 -65.0415 532.536 -64.2863C532.239 -63.5051 531.796 -62.7811 531.239 -62.1613C530.88 -61.7655 530.458 -61.3853 530.02 -61.0624L529.739 -60.8853V-3.77069C529.718 1.61472 529.057 6.77618 527.775 11.6772C526.479 16.6356 524.557 21.3387 522.036 25.6981C519.515 30.0574 516.416 34.0626 512.755 37.6616C509.15 41.2241 505.01 44.3856 500.369 47.0626L437.775 83.1928C435.437 84.5314 433.114 85.6928 430.775 86.672C428.395 87.672 426.031 88.4949 423.63 89.1356C421.229 89.7762 418.77 90.2553 416.208 90.5731C413.65 90.896 411.067 91.0522 408.426 91.0522H250.046C246.468 91.0522 243.046 91.3751 239.765 91.9949C236.484 92.6147 233.343 93.5574 230.322 94.8178C227.301 96.0783 224.4 97.6356 221.64 99.5158C218.88 101.396 216.239 103.599 213.697 106.12L179.473 140.448C176.952 142.969 174.749 145.609 172.869 148.391C170.989 151.151 169.426 154.031 168.166 157.073C166.926 160.094 165.989 163.234 165.348 166.516C164.729 169.792 164.406 173.214 164.406 176.797V286.964C164.406 290.984 164.046 294.865 163.327 298.625C162.609 302.365 161.525 305.99 160.088 309.469C158.645 312.948 156.843 316.271 154.702 319.432C152.546 322.609 150.046 325.63 147.202 328.474L-48.9642 524.641L-48.9069 524.964C-48.8079 525.5 -48.7663 526.063 -48.8079 526.583C-48.8444 527.401 -49.0475 528.203 -49.3861 528.984C-49.7038 529.724 -50.1881 530.422 -50.7663 531.021C-50.7663 531.042 -50.7871 531.063 -50.8236 531.083ZM-135.245 526.161C-135.245 525.281 -135.068 524.401 -134.725 523.542C-134.386 522.74 -133.907 521.979 -133.245 521.302C-133.225 521.281 -133.204 521.26 -133.188 521.24C-132.568 520.641 -131.886 520.182 -131.146 519.859C-130.386 519.521 -129.563 519.323 -128.745 519.281C-128.204 519.24 -127.667 519.281 -127.126 519.38L-126.803 519.443L90.6504 301.984C93.1712 299.464 95.3691 296.823 97.2494 294.047C99.1296 291.286 100.692 288.401 101.952 285.365C103.192 282.344 104.135 279.203 104.77 275.922C105.395 272.641 105.713 269.219 105.713 265.635V155.469C105.713 151.448 106.072 147.568 106.791 143.807C107.515 140.068 108.593 136.448 110.036 132.964C111.473 129.484 113.275 126.161 115.416 123C117.577 119.823 120.077 116.823 122.916 113.958L123.197 114.24C126.697 110.359 140.9 95.9533 155.104 81.7501C169.307 67.547 183.692 53.3439 187.593 49.8439L187.312 49.5626C190.171 46.7241 193.192 44.2241 196.354 42.0626C199.536 39.9012 202.859 38.1199 206.317 36.6824C209.796 35.2397 213.4 34.1616 217.161 33.4428C220.921 32.7189 224.801 32.3595 228.822 32.3595H394.703C397.067 32.3595 399.343 32.2189 401.546 31.9376C403.765 31.6616 405.906 31.2397 408.025 30.6772C410.166 30.0991 412.249 29.4012 414.27 28.5366C416.312 27.6772 418.348 26.6564 420.39 25.4793L445.359 11.0522C449.437 8.69285 453.078 5.93243 456.239 2.81265C459.442 -0.327976 462.14 -3.82798 464.322 -7.63007C466.52 -11.4322 468.203 -15.5311 469.322 -19.8749C470.442 -24.1926 471.025 -28.7342 471.041 -33.4582V-60.9009L470.765 -61.0832C470.301 -61.4009 469.9 -61.7655 469.541 -62.1822C469.005 -62.8019 468.541 -63.5259 468.265 -64.3019C467.963 -65.0624 467.801 -65.8853 467.801 -66.7447C467.801 -67.6665 467.984 -68.5624 468.322 -69.3853C468.661 -70.2238 469.182 -70.9842 469.822 -71.6249C469.822 -71.6249 469.822 -71.6457 469.843 -71.6457C470.484 -72.2863 471.244 -72.7863 472.083 -73.1457C472.906 -73.4842 473.786 -73.6665 474.723 -73.6665C475.645 -73.6665 476.546 -73.4842 477.364 -73.1457C478.203 -72.8072 478.963 -72.2863 479.604 -71.6457C479.624 -71.6457 479.624 -71.6457 479.624 -71.6249C480.265 -70.9842 480.765 -70.2238 481.124 -69.3853C481.468 -68.5624 481.645 -67.6822 481.645 -66.7447C481.645 -65.9061 481.484 -65.0832 481.208 -64.3019C480.906 -63.5259 480.468 -62.8019 479.906 -62.1822C479.546 -61.7811 479.124 -61.4009 478.687 -61.0832L478.406 -60.9009V-33.3957C478.385 -28.0155 477.723 -22.854 476.442 -17.953C475.145 -12.9894 473.223 -8.29153 470.703 -3.92694C468.182 0.432434 465.083 4.43243 461.421 8.05222C457.822 11.6147 453.676 14.7762 449.036 17.4585L424.051 31.8803C421.713 33.2189 419.39 34.3803 417.051 35.3595C414.671 36.3595 412.307 37.1824 409.906 37.8231C407.51 38.4637 405.046 38.9428 402.484 39.2606C399.926 39.5835 397.343 39.7397 394.703 39.7397H228.822C225.244 39.7397 221.822 40.0626 218.541 40.6824C215.26 41.3022 212.119 42.2449 209.098 43.5053C206.077 44.7658 203.176 46.3231 200.416 48.2033C197.656 50.0835 195.015 52.2866 192.473 54.8074L128.119 119.182C125.598 121.703 123.395 124.344 121.515 127.125C119.635 129.885 118.077 132.766 116.817 135.807C115.577 138.828 114.635 141.969 113.994 145.25C113.374 148.531 113.057 151.948 113.057 155.531V265.698C113.057 269.719 112.692 273.599 111.973 277.359C111.255 281.099 110.176 284.724 108.734 288.203C107.291 291.682 105.494 295.005 103.354 298.167C101.192 301.349 98.6921 304.37 95.8483 307.208L-121.605 524.661L-121.542 524.984C-121.443 525.521 -121.402 526.083 -121.443 526.604C-121.485 527.422 -121.683 528.224 -122.021 529.005C-122.365 529.745 -122.824 530.443 -123.402 531.042C-123.423 531.063 -123.443 531.083 -123.464 531.104C-124.126 531.745 -124.886 532.245 -125.704 532.583C-126.542 532.922 -127.443 533.104 -128.324 533.104C-129.204 533.104 -130.084 532.922 -130.943 532.583C-131.745 532.245 -132.506 531.766 -133.188 531.104C-133.204 531.083 -133.225 531.063 -133.245 531.042C-133.886 530.385 -134.386 529.625 -134.725 528.802C-135.068 527.922 -135.245 527.042 -135.245 526.161ZM94.5098 531.083C93.8483 531.724 93.0879 532.224 92.2702 532.563C91.4316 532.906 90.5306 533.083 89.6504 533.083C88.7702 533.083 87.89 532.906 87.0306 532.563C86.2285 532.224 85.4681 531.745 84.7858 531.083C84.7702 531.063 84.7494 531.042 84.7285 531.021C84.0879 530.365 83.5879 529.604 83.2494 528.781C82.9056 527.943 82.7285 527.042 82.7285 526.161C82.7285 525.281 82.9056 524.401 83.2494 523.542C83.5879 522.74 84.0671 521.979 84.7285 521.302C84.7494 521.281 84.7702 521.26 84.7858 521.24C85.4056 520.641 86.0879 520.182 86.8275 519.859C87.5879 519.521 88.4108 519.323 89.2285 519.281C89.7702 519.24 90.3066 519.281 90.8483 519.38L91.1712 519.443L244.765 365.844C247.286 363.323 249.489 360.661 251.369 357.901C253.249 355.141 254.812 352.26 256.072 349.219C257.312 346.219 258.249 343.057 258.89 339.776C259.51 336.495 259.833 333.073 259.833 329.495V204.125C259.833 203.12 259.89 202.12 260.031 201.104C260.15 200.099 260.354 199.12 260.63 198.141C260.911 197.141 261.249 196.182 261.65 195.281C262.051 194.38 262.531 193.479 263.114 192.557C263.692 191.62 264.39 190.781 265.15 190.036C265.953 189.281 266.812 188.641 267.755 188.12C268.692 187.599 269.692 187.198 270.755 186.938C271.796 186.677 272.874 186.536 273.973 186.536H435.994C438.354 186.536 440.635 186.396 442.838 186.12C445.057 185.839 447.197 185.417 449.317 184.859C451.458 184.276 453.541 183.578 455.562 182.719C457.598 181.859 459.64 180.839 461.682 179.656L599.494 100.099C603.578 97.7345 607.218 94.9741 610.38 91.8543C613.578 88.7137 616.281 85.2137 618.458 81.4324C620.661 77.6303 622.343 73.5314 623.463 69.1876C624.583 64.8699 625.161 60.3283 625.182 55.6043V-60.8436L624.9 -61.0207C624.442 -61.3436 624.041 -61.703 623.682 -62.1249C623.119 -62.7447 622.682 -63.4634 622.38 -64.2447C622.098 -65.0051 621.942 -65.8228 621.942 -66.6822C621.942 -67.604 622.119 -68.5051 622.463 -69.3228C622.801 -70.1665 623.322 -70.9269 623.963 -71.5676C623.963 -71.5676 623.963 -71.5832 623.979 -71.5832C624.619 -72.2238 625.38 -72.7238 626.223 -73.0884C627.041 -73.4269 627.921 -73.604 628.864 -73.604C629.781 -73.604 630.682 -73.4269 631.505 -73.0884C632.343 -72.7238 633.124 -72.2238 633.744 -71.5832C634.385 -70.9478 634.885 -70.1874 635.244 -69.3436C635.583 -68.5051 635.765 -67.6249 635.765 -66.703C635.765 -65.8436 635.604 -65.0259 635.322 -64.2655C635.025 -63.4842 634.583 -62.7655 634.025 -62.1457C633.661 -61.7447 633.244 -61.3644 632.801 -61.0415L632.525 -60.8644V55.5835C632.505 60.9689 631.843 66.1303 630.562 71.0314C629.26 75.9897 627.343 80.6928 624.822 85.0522C622.301 89.396 619.197 93.4168 615.557 97.0158C611.958 100.578 607.817 103.74 603.176 106.417L465.364 185.979C463.02 187.318 460.703 188.479 458.359 189.458C455.979 190.458 453.619 191.281 451.218 191.922C448.817 192.557 446.359 193.042 443.796 193.359C441.234 193.682 438.656 193.839 436.015 193.839H273.994C273.473 193.839 272.994 193.901 272.557 194C272.114 194.099 271.692 194.281 271.312 194.479C270.932 194.698 270.572 194.958 270.234 195.281C269.895 195.599 269.593 195.979 269.312 196.401C268.953 196.979 268.635 197.583 268.374 198.203C268.093 198.823 267.874 199.443 267.713 200.042C267.531 200.661 267.411 201.323 267.333 202C267.255 202.641 267.213 203.344 267.213 204.104V329.474C267.213 333.495 266.854 337.375 266.135 341.135C265.411 344.875 264.333 348.5 262.89 351.979C261.453 355.438 259.65 358.781 257.51 361.943C255.348 365.12 252.848 368.125 250.01 370.984L96.4108 524.604L96.4681 524.922C96.5723 525.464 96.6087 526.021 96.5723 526.542C96.5098 527.365 96.3327 528.161 95.989 528.943C95.6504 529.682 95.1921 530.385 94.6087 530.984C94.5515 531.042 94.5515 531.063 94.5098 531.083Z" fill="#555555" fill-opacity="0.5"/>
</g>
</g>
</g>
<defs>
<clipPath id="clip0_341_59">
<rect width="636" height="536" fill="white"/>
</clipPath>
</defs>
</svg>
