<svg width="78" height="78" viewBox="0 0 78 78" fill="none" xmlns="http://www.w3.org/2000/svg">
<g filter="url(#filter0_i_810_139)">
<path d="M39 5.31818C57.6545 5.31818 72.6818 20.5182 72.6818 39C72.6818 57.4818 57.6545 72.6818 39 72.6818C20.3455 72.6818 5.31818 57.6545 5.31818 39C5.31818 20.3455 20.3455 5.31818 39 5.31818ZM39 1C17.9273 1 1 17.9273 1 39C1 60.0727 17.9273 77 39 77C60.0727 77 77 60.0727 77 39C77 17.9273 59.7273 1 39 1Z" stroke="#121212" stroke-width="2"/>
<path d="M23.1092 36.4092L30.0183 41.9365L39.5183 26.391L51.6092 45.7365L58.1728 40.5546L65.4274 51.2637C67.1547 47.4637 68.5365 42.9728 68.5365 38.6547C68.5365 22.2456 55.5819 9.29102 39.1728 9.29102C22.7637 9.29102 9.29102 22.591 9.29102 38.6547C9.29102 43.8365 10.6728 48.1547 12.7456 52.4728L23.1092 36.4092Z" stroke="#121212" stroke-width="2"/>
</g>
<defs>
<filter id="filter0_i_810_139" x="0" y="0" width="78" height="82" filterUnits="userSpaceOnUse" color-interpolation-filters="sRGB">
<feFlood flood-opacity="0" result="BackgroundImageFix"/>
<feBlend mode="normal" in="SourceGraphic" in2="BackgroundImageFix" result="shape"/>
<feColorMatrix in="SourceAlpha" type="matrix" values="0 0 0 0 0 0 0 0 0 0 0 0 0 0 0 0 0 0 127 0" result="hardAlpha"/>
<feOffset dy="4"/>
<feGaussianBlur stdDeviation="2"/>
<feComposite in2="hardAlpha" operator="arithmetic" k2="-1" k3="1"/>
<feColorMatrix type="matrix" values="0 0 0 0 0 0 0 0 0 0 0 0 0 0 0 0 0 0 0.25 0"/>
<feBlend mode="normal" in2="shape" result="effect1_innerShadow_810_139"/>
</filter>
</defs>
</svg>
