<svg width="40" height="40" viewBox="0 0 40 40" fill="none" xmlns="http://www.w3.org/2000/svg">
<path d="M15.3333 16.666H24.6666V17.9993H15.3333V16.666Z" fill="white"/>
<path d="M36 14.6667C35.9984 13.341 35.5581 12.053 34.7477 11.0038C33.9373 9.95459 32.8023 9.20315 31.52 8.86674C31.4147 8.83985 31.3177 8.78747 31.2375 8.71423C31.1572 8.64098 31.0963 8.54912 31.06 8.44674C30.8393 7.81725 30.4859 7.24256 30.0236 6.76167C29.5614 6.28077 29.0011 5.90491 28.3808 5.65958C27.7605 5.41424 27.0947 5.30517 26.4286 5.33977C25.7624 5.37436 25.1115 5.55181 24.52 5.86008C24.3687 5.93822 24.1932 5.95551 24.0296 5.90841C23.8659 5.8613 23.7265 5.75337 23.64 5.60674C22.8767 4.31038 21.7326 3.28061 20.3633 2.65752C18.9941 2.03443 17.4661 1.84827 15.9873 2.12436C14.5084 2.40046 13.1506 3.1254 12.0984 4.20058C11.0462 5.27576 10.3507 6.64897 10.1066 8.13341C10.0834 8.2803 10.0117 8.41521 9.90301 8.51668C9.79429 8.61815 9.65477 8.68036 9.50662 8.69341C7.97652 8.83711 6.55989 9.56246 5.54885 10.7199C4.53781 11.8773 4.00945 13.3786 4.07272 14.9141C4.13599 16.4497 4.78606 17.9024 5.88889 18.9727C6.99172 20.0431 8.46322 20.6494 9.99996 20.6667H12.6666V18.6667C12.6666 18.4899 12.7369 18.3204 12.8619 18.1953C12.9869 18.0703 13.1565 18.0001 13.3333 18.0001H14V16.6667H13.3333C13.1565 16.6667 12.9869 16.5965 12.8619 16.4715C12.7369 16.3465 12.6666 16.1769 12.6666 16.0001V10.6667C12.6666 10.4899 12.7369 10.3204 12.8619 10.1953C12.9869 10.0703 13.1565 10.0001 13.3333 10.0001H26.6666C26.8434 10.0001 27.013 10.0703 27.138 10.1953C27.2631 10.3204 27.3333 10.4899 27.3333 10.6667V16.0001C27.3333 16.1769 27.2631 16.3465 27.138 16.4715C27.013 16.5965 26.8434 16.6667 26.6666 16.6667H26V18.0001H26.6666C26.8434 18.0001 27.013 18.0703 27.138 18.1953C27.2631 18.3204 27.3333 18.4899 27.3333 18.6667V20.6667H30C31.5905 20.6643 33.1152 20.0313 34.2399 18.9067C35.3646 17.782 35.9975 16.2573 36 14.6667ZM9.99996 19.3334C8.8054 19.3195 7.66167 18.848 6.80436 18.016C5.94706 17.184 5.44146 16.0549 5.39173 14.8613C5.342 13.6677 5.75191 12.5005 6.53703 11.6001C7.32216 10.6997 8.4227 10.1347 9.61196 10.0214L9.72129 11.3501C8.87427 11.4341 8.09149 11.839 7.53344 12.4817C6.97538 13.1244 6.68434 13.9563 6.71997 14.8067C6.75561 15.6571 7.11523 16.4617 7.7251 17.0555C8.33497 17.6492 9.14888 17.9872 9.99996 18.0001V19.3334ZM30 19.3334V18.0001C30.81 18.0014 31.5927 17.7074 32.2016 17.1731C32.8104 16.6388 33.2036 15.9009 33.3074 15.0975C33.4112 14.2942 33.2186 13.4805 32.7656 12.809C32.3127 12.1374 31.6304 11.6541 30.8466 11.4494L31.1846 10.1594C32.2811 10.4471 33.2352 11.1243 33.8686 12.0644C34.502 13.0045 34.7713 14.1431 34.6261 15.2673C34.4809 16.3915 33.9312 17.4244 33.0798 18.1727C32.2284 18.9211 31.1335 19.3337 30 19.3334Z" fill="white"/>
<path d="M26 11.332H14V15.332H26V11.332ZM16.6667 13.9987H15.3333V12.6654H16.6667V13.9987ZM20.6667 13.9987H19.3333V12.6654H20.6667V13.9987ZM24.6667 13.9987H23.3333V12.6654H24.6667V13.9987Z" fill="white"/>
<path d="M33.3334 31.3333C33.7016 31.3333 34.0001 31.0349 34.0001 30.6667C34.0001 30.2985 33.7016 30 33.3334 30C32.9652 30 32.6667 30.2985 32.6667 30.6667C32.6667 31.0349 32.9652 31.3333 33.3334 31.3333Z" fill="white"/>
<path d="M30.6667 30.6667C30.6667 31.1941 30.8231 31.7097 31.1162 32.1482C31.4092 32.5867 31.8257 32.9285 32.3129 33.1303C32.8002 33.3322 33.3364 33.385 33.8537 33.2821C34.3709 33.1792 34.8461 32.9252 35.219 32.5523C35.592 32.1793 35.8459 31.7042 35.9488 31.1869C36.0517 30.6696 35.9989 30.1334 35.7971 29.6462C35.5953 29.1589 35.2535 28.7424 34.8149 28.4494C34.3764 28.1564 33.8608 28 33.3334 28C32.6262 28 31.9479 28.281 31.4478 28.781C30.9477 29.2811 30.6667 29.9594 30.6667 30.6667ZM33.3334 28.6667C33.729 28.6667 34.1157 28.784 34.4446 29.0037C34.7735 29.2235 35.0298 29.5358 35.1812 29.9013C35.3325 30.2668 35.3722 30.6689 35.295 31.0568C35.2178 31.4448 35.0273 31.8012 34.7476 32.0809C34.4679 32.3606 34.1116 32.5511 33.7236 32.6282C33.3356 32.7054 32.9335 32.6658 32.568 32.5144C32.2026 32.363 31.8902 32.1067 31.6705 31.7778C31.4507 31.4489 31.3334 31.0622 31.3334 30.6667C31.3334 30.1362 31.5441 29.6275 31.9192 29.2525C32.2943 28.8774 32.803 28.6667 33.3334 28.6667Z" fill="white"/>
<path d="M33.9999 24.8193V26.726C34.9889 26.8932 35.8789 27.4257 36.4937 28.2182C37.1085 29.0106 37.4031 30.0051 37.3193 31.0046C37.2354 32.004 36.7791 32.9355 36.0408 33.6144C35.3026 34.2933 34.3362 34.6701 33.3333 34.6701C32.3303 34.6701 31.3639 34.2933 30.6257 33.6144C29.8874 32.9355 29.4311 32.004 29.3473 31.0046C29.2634 30.0051 29.558 29.0106 30.1728 28.2182C30.7876 27.4257 31.6777 26.8932 32.6666 26.726V24.666C31.0761 24.6685 29.5514 25.3014 28.4267 26.4261C27.302 27.5508 26.6691 29.0755 26.6666 30.666C26.6653 30.7383 26.6541 30.8101 26.6333 30.8793L25.5933 33.9993H27.3333C27.5101 33.9993 27.6796 34.0696 27.8047 34.1946C27.9297 34.3196 27.9999 34.4892 27.9999 34.666V36.666H29.9999C30.1767 36.666 30.3463 36.7363 30.4713 36.8613C30.5964 36.9863 30.6666 37.1559 30.6666 37.3327V39.3327H34.6666V36.7727C34.6674 36.6437 34.7057 36.5177 34.7767 36.4101C34.8477 36.3024 34.9484 36.2176 35.0666 36.166C36.2235 35.6602 37.1914 34.8022 37.8324 33.7144C38.4734 32.6265 38.7548 31.3641 38.6366 30.1069C38.5185 28.8498 38.0067 27.662 37.1742 26.7126C36.3417 25.7632 35.2309 25.1007 33.9999 24.8193Z" fill="white"/>
<path d="M8.66659 25.3327C8.66659 25.1559 8.59635 24.9863 8.47132 24.8613C8.3463 24.7363 8.17673 24.666 7.99992 24.666C7.82311 24.666 7.65354 24.7363 7.52851 24.8613C7.40349 24.9863 7.33325 25.1559 7.33325 25.3327V25.9993H8.66659V25.3327Z" fill="white"/>
<path d="M4.66667 33.9993C5.03486 33.9993 5.33333 33.7009 5.33333 33.3327C5.33333 32.9645 5.03486 32.666 4.66667 32.666C4.29848 32.666 4 32.9645 4 33.3327C4 33.7009 4.29848 33.9993 4.66667 33.9993Z" fill="white"/>
<path d="M14 23.332H26V19.332H14V23.332ZM23.3333 20.6654H24.6667V21.9987H23.3333V20.6654ZM19.3333 20.6654H20.6667V21.9987H19.3333V20.6654ZM15.3333 20.6654H16.6667V21.9987H15.3333V20.6654Z" fill="white"/>
<path d="M1.33325 30.6667V38.6667C1.33325 38.8435 1.40349 39.013 1.52851 39.1381C1.65354 39.2631 1.82311 39.3333 1.99992 39.3333H13.9999C14.1767 39.3333 14.3463 39.2631 14.4713 39.1381C14.5963 39.013 14.6666 38.8435 14.6666 38.6667V30.6667C14.6666 30.4899 14.5963 30.3203 14.4713 30.1953C14.3463 30.0702 14.1767 30 13.9999 30H1.99992C1.82311 30 1.65354 30.0702 1.52851 30.1953C1.40349 30.3203 1.33325 30.4899 1.33325 30.6667ZM4.66659 38H3.33325V36.6667H4.66659V38ZM9.99992 38H5.99992V36.6667H9.99992V38ZM12.6666 38H11.3333V36.6667H12.6666V38ZM11.3333 31.3333C11.7288 31.3333 12.1155 31.4506 12.4444 31.6704C12.7733 31.8902 13.0296 32.2025 13.181 32.568C13.3324 32.9334 13.372 33.3356 13.2948 33.7235C13.2177 34.1115 13.0272 34.4678 12.7475 34.7475C12.4678 35.0273 12.1114 35.2177 11.7234 35.2949C11.3355 35.3721 10.9333 35.3325 10.5679 35.1811C10.2024 35.0297 9.89007 34.7734 9.67031 34.4445C9.45055 34.1156 9.33325 33.7289 9.33325 33.3333C9.33325 32.8029 9.54396 32.2942 9.91904 31.9191C10.2941 31.544 10.8028 31.3333 11.3333 31.3333ZM4.66659 31.3333C5.06215 31.3333 5.44883 31.4506 5.77773 31.6704C6.10662 31.8902 6.36297 32.2025 6.51434 32.568C6.66572 32.9334 6.70533 33.3356 6.62816 33.7235C6.55099 34.1115 6.3605 34.4678 6.0808 34.7475C5.80109 35.0273 5.44473 35.2177 5.05677 35.2949C4.6688 35.3721 4.26667 35.3325 3.90122 35.1811C3.53577 35.0297 3.22341 34.7734 3.00365 34.4445C2.78388 34.1156 2.66659 33.7289 2.66659 33.3333C2.66659 32.8029 2.8773 32.2942 3.25237 31.9191C3.62744 31.544 4.13615 31.3333 4.66659 31.3333Z" fill="white"/>
<path d="M4.66675 27.9987V28.6654H11.3334V27.9987C11.3334 27.8219 11.2632 27.6523 11.1382 27.5273C11.0131 27.4023 10.8436 27.332 10.6667 27.332H5.33341C5.1566 27.332 4.98703 27.4023 4.86201 27.5273C4.73699 27.6523 4.66675 27.8219 4.66675 27.9987Z" fill="white"/>
<path d="M11.3334 33.9993C11.7016 33.9993 12.0001 33.7009 12.0001 33.3327C12.0001 32.9645 11.7016 32.666 11.3334 32.666C10.9652 32.666 10.6667 32.9645 10.6667 33.3327C10.6667 33.7009 10.9652 33.9993 11.3334 33.9993Z" fill="white"/>
<path d="M17.3333 34H18.6666V35.3333H17.3333V34Z" fill="white"/>
<path d="M21.3333 34H22.6666V35.3333H21.3333V34Z" fill="white"/>
<path d="M9.33325 0.666016H10.6666V1.99935H9.33325V0.666016Z" fill="white"/>
<path d="M6.66675 0.666016H8.00008V1.99935H6.66675V0.666016Z" fill="white"/>
<path d="M4 0.666016H5.33333V1.99935H4V0.666016Z" fill="white"/>
<path d="M1.33333 3.33268H0V1.33268C0 1.15587 0.0702379 0.986302 0.195262 0.861278C0.320286 0.736253 0.489856 0.666016 0.666667 0.666016H2.66667V1.99935H1.33333V3.33268Z" fill="white"/>
<path d="M0 4.66602H1.33333V5.99935H0V4.66602Z" fill="white"/>
<path d="M0 7.33203H1.33333V8.66536H0V7.33203Z" fill="white"/>
<path d="M0 10H1.33333V11.3333H0V10Z" fill="white"/>
<path d="M0 12.666H1.33333V13.9993H0V12.666Z" fill="white"/>
<path d="M0 15.332H1.33333V16.6654H0V15.332Z" fill="white"/>
<path d="M0 18H1.33333V19.3333H0V18Z" fill="white"/>
<path d="M0 20.666H1.33333V21.9993H0V20.666Z" fill="white"/>
<path d="M0 23.332H1.33333V24.6654H0V23.332Z" fill="white"/>
<path d="M0 26H1.33333V27.3333H0V26Z" fill="white"/>
<path d="M29.3333 0.666016H30.6666V1.99935H29.3333V0.666016Z" fill="white"/>
<path d="M32 0.666016H33.3333V1.99935H32V0.666016Z" fill="white"/>
<path d="M34.6667 0.666016H36.0001V1.99935H34.6667V0.666016Z" fill="white"/>
<path d="M39.9999 3.33268H38.6666V1.99935H37.3333V0.666016H39.3333C39.5101 0.666016 39.6796 0.736253 39.8047 0.861278C39.9297 0.986302 39.9999 1.15587 39.9999 1.33268V3.33268Z" fill="white"/>
<path d="M38.6667 4.66602H40.0001V5.99935H38.6667V4.66602Z" fill="white"/>
<path d="M38.6667 7.33203H40.0001V8.66536H38.6667V7.33203Z" fill="white"/>
<path d="M38.6667 10H40.0001V11.3333H38.6667V10Z" fill="white"/>
<path d="M38.6667 12.666H40.0001V13.9993H38.6667V12.666Z" fill="white"/>
<path d="M38.6667 15.332H40.0001V16.6654H38.6667V15.332Z" fill="white"/>
<path d="M38.6667 18H40.0001V19.3333H38.6667V18Z" fill="white"/>
<path d="M38.6667 20.666H40.0001V21.9993H38.6667V20.666Z" fill="white"/>
<path d="M38.6667 23.332H40.0001V24.6654H38.6667V23.332Z" fill="white"/>
<path d="M26.6667 0.666016H28.0001V1.99935H26.6667V0.666016Z" fill="white"/>
<path d="M24 0.666016H25.3333V1.99935H24V0.666016Z" fill="white"/>
</svg>
