<svg width="42" height="40" viewBox="0 0 42 40" fill="none" xmlns="http://www.w3.org/2000/svg">
<path d="M36.9997 38.6668V28.6669H38.333L35.6664 24.667L32.9997 28.6669H34.3331V38.6668H26.3332V32.6669H27.6665L24.9999 28.6669L22.3333 32.6669H23.6666V38.6668H19C19 36.5308 18.0047 34.5868 16.3174 33.3315C16.1967 35.4021 15.2854 37.2988 13.7987 38.6668H9.53547C8.04882 37.2988 7.1375 35.4021 7.01684 33.3315C5.32887 34.5868 4.33355 36.5308 4.33355 38.6668H0.333618V40.0001H41.6663V38.6668H36.9997Z" fill="white"/>
<path d="M5.00021 8.00091C6.10476 8.00091 7.00018 7.10549 7.00018 6.00094C7.00018 4.89639 6.10476 4.00098 5.00021 4.00098C3.89566 4.00098 3.00024 4.89639 3.00024 6.00094C3.00024 7.10549 3.89566 8.00091 5.00021 8.00091Z" fill="white"/>
<path d="M10.3335 8.00091C11.438 8.00091 12.3334 7.10549 12.3334 6.00094C12.3334 4.89639 11.438 4.00098 10.3335 4.00098C9.22891 4.00098 8.3335 4.89639 8.3335 6.00094C8.3335 7.10549 9.22891 8.00091 10.3335 8.00091Z" fill="white"/>
<path d="M15.6667 8.00091C16.7713 8.00091 17.6667 7.10549 17.6667 6.00094C17.6667 4.89639 16.7713 4.00098 15.6667 4.00098C14.5622 4.00098 13.6667 4.89639 13.6667 6.00094C13.6667 7.10549 14.5622 8.00091 15.6667 8.00091Z" fill="white"/>
<path d="M8.36353 33.2988C8.37953 33.5402 8.40419 33.7788 8.44486 34.0135L9.46484 33.3335H9.00018C8.78485 33.3335 8.57286 33.3208 8.36353 33.2988Z" fill="white"/>
<path d="M11.6668 38.5613C12.0761 38.3293 12.4595 38.066 12.8021 37.7613L11.9215 36H11.4121L10.5315 37.7613C10.8742 38.0653 11.2575 38.3293 11.6668 38.5613Z" fill="white"/>
<path d="M13.1028 35.381L13.7574 36.6904C14.0561 36.2757 14.3081 35.8324 14.5021 35.3584L13.5441 34.7197L13.1028 35.381Z" fill="white"/>
<path d="M10.2309 35.3817L9.78953 34.7197L8.83154 35.3584C9.02554 35.8324 9.2782 36.2757 9.5762 36.6904L10.2309 35.3817Z" fill="white"/>
<path d="M12.4348 33.9798L11.6668 33.4678L10.8988 33.9798L11.3568 34.6664H11.9768L12.4348 33.9798Z" fill="white"/>
<path d="M37.4303 9.33365H38.7963C38.0016 5.40238 34.931 2.33176 30.9998 1.53711V2.90309C34.1857 3.65441 36.6783 6.1477 37.4303 9.33365Z" fill="white"/>
<path d="M3.00018 25.3336V22.667C2.26486 22.667 1.66687 23.265 1.66687 24.0003C1.66687 24.7356 2.26486 25.3336 3.00018 25.3336Z" fill="white"/>
<path d="M36.333 10.667H40.3336V12.0003H36.333V10.667Z" fill="white"/>
<path d="M28.3331 0H29.6664V3.99993H28.3331V0Z" fill="white"/>
<path d="M20.362 10.6922C20.6367 6.91559 23.3133 3.77365 26.9999 2.90633V1.54102C22.6073 2.43233 19.33 6.18094 19.0314 10.6675H19.896C20.0534 10.6675 20.2087 10.6762 20.362 10.6922Z" fill="white"/>
<path d="M20.3333 25.3336C21.0686 25.3336 21.6666 24.7356 21.6666 24.0003C21.6666 23.265 21.0686 22.667 20.3333 22.667V25.3336Z" fill="white"/>
<path d="M2.05153 21.5158C2.34753 21.4025 2.66485 21.3332 3.00018 21.3332V20.6665C3.00018 19.0545 4.15083 17.7072 5.67347 17.3999C5.6728 17.3772 5.6668 17.3559 5.6668 17.3332C5.6668 15.8626 6.86278 14.6666 8.33343 14.6666V15.9999C7.5981 15.9999 7.00011 16.5979 7.00011 17.3332C7.00011 18.0686 7.5981 18.6666 8.33343 18.6666H12.3334C13.0687 18.6666 13.6667 18.0686 13.6667 17.3332C13.6667 16.5979 13.0687 15.9999 12.3334 15.9999V14.6666C13.804 14.6666 15 15.8626 15 17.3332C15 17.8212 14.8587 18.2726 14.6293 18.6666H16.3333C17.0686 18.6666 17.6666 18.0686 17.6666 17.3332C17.6666 16.5979 17.0686 15.9999 16.3333 15.9999V14.6666C17.8039 14.6666 18.9999 15.8626 18.9999 17.3332C18.9999 17.5466 18.9679 17.7519 18.9206 17.9506C19.7912 18.5686 20.3332 19.5765 20.3332 20.6665V21.3332C21.8039 21.3332 22.9998 20.1372 22.9998 18.6666C22.9998 17.1959 21.8039 15.9999 20.3332 15.9999V14.6666C21.3325 14.6666 22.2445 15.0373 22.9465 15.6446C22.9778 15.4666 22.9998 15.2866 22.9998 15.1046C22.9998 13.3926 21.6072 12 19.8952 12H7.8781C4.45349 12 1.66687 14.7866 1.66687 18.2112C1.66687 18.4832 1.68487 18.7586 1.72087 19.0306L2.05153 21.5158Z" fill="white"/>
<path d="M28.9998 14.6675C30.8407 14.6675 32.3331 13.1752 32.3331 11.3343C32.3331 9.49334 30.8407 8.00098 28.9998 8.00098C27.1589 8.00098 25.6665 9.49334 25.6665 11.3343C25.6665 13.1752 27.1589 14.6675 28.9998 14.6675Z" fill="white"/>
<path d="M26.9999 21.12V19.764C26.0465 19.54 25.1472 19.162 24.3319 18.6387C24.3319 18.648 24.3332 18.6573 24.3332 18.6667C24.3332 19.146 24.2446 19.6033 24.0892 20.0293C25.0012 20.5466 25.9745 20.9126 26.9999 21.12Z" fill="white"/>
<path d="M18.9999 27.3338V20.6673C18.9999 20.07 18.7293 19.5133 18.2846 19.138C17.7973 19.6653 17.1059 20.0006 16.3333 20.0006H8.33343C7.36211 20.0006 6.51946 19.4733 6.0528 18.6953C5.08348 18.8333 4.3335 19.6606 4.3335 20.6673V27.3338C4.3335 29.9065 6.42679 32.0004 9.00008 32.0004H14.3333C16.9066 32.0004 18.9999 29.9065 18.9999 27.3338ZM7.66677 24.6672C6.93012 24.6672 6.33346 24.0706 6.33346 23.3339C6.33346 22.5972 6.93012 22.0006 7.66677 22.0006C8.40343 22.0006 9.00008 22.5972 9.00008 23.3339C9.00008 24.0706 8.40343 24.6672 7.66677 24.6672ZM11.6667 30.0005C10.1941 30.0005 9.00008 28.8065 9.00008 27.3338H14.3333C14.3333 28.8065 13.1393 30.0005 11.6667 30.0005ZM15.6666 24.6672C14.93 24.6672 14.3333 24.0706 14.3333 23.3339C14.3333 22.5972 14.93 22.0006 15.6666 22.0006C16.4033 22.0006 17 22.5972 17 23.3339C17 24.0706 16.4033 24.6672 15.6666 24.6672Z" fill="white"/>
<path d="M28.3331 18.666H29.6664V22.6659H28.3331V18.666Z" fill="white"/>
<path d="M21.6793 11.044C23.24 11.7327 24.3333 13.2927 24.3333 15.1046C24.3333 15.6566 24.2266 16.2046 24.0266 16.7173C24.8873 17.5146 25.9079 18.0839 27.0279 18.3939C27.1539 17.7893 27.6906 17.3333 28.3325 17.3333H29.6659C30.3078 17.3333 30.8445 17.7893 30.9705 18.3939C33.4398 17.7079 35.3738 15.774 36.0597 13.3053C35.4558 13.1787 34.9998 12.6413 34.9998 12V10.6667C34.9998 10.0254 35.4558 9.48806 36.0604 9.36207C35.3744 6.89277 33.4405 4.95947 30.9712 4.27348C30.8452 4.87747 30.3085 5.33347 29.6665 5.33347H28.3332C27.6906 5.33347 27.1539 4.87681 27.0279 4.27148C23.9726 5.11547 21.804 7.83276 21.6793 11.044ZM28.9999 6.66678C31.5732 6.66678 33.6665 8.76074 33.6665 11.3334C33.6665 13.906 31.5732 16 28.9999 16C26.4266 16 24.3333 13.906 24.3333 11.3334C24.3333 8.76074 26.4266 6.66678 28.9999 6.66678Z" fill="white"/>
<path d="M14.9701 33.2988C14.7608 33.3208 14.5488 33.3335 14.3334 33.3335H13.8688L14.8881 34.0128C14.9294 33.7782 14.9541 33.5402 14.9701 33.2988Z" fill="white"/>
<path d="M30.9998 19.7645V21.1305C34.931 20.3359 38.0016 17.2646 38.7963 13.334H37.4303C36.6783 16.5199 34.1857 19.0132 30.9998 19.7645Z" fill="white"/>
</svg>
