<svg width="76" height="76" viewBox="0 0 76 76" fill="none" xmlns="http://www.w3.org/2000/svg">
<g filter="url(#filter0_i_810_300)">
<path d="M0.0542696 31.0271C1.98072 31.0271 3.93431 31.0271 5.86076 31.0271C6.10496 31.0271 6.15923 30.9457 6.15923 30.7286C6.15923 29.5347 6.15923 28.3409 6.15923 27.1742C6.15923 26.9571 6.10496 26.8757 5.8879 26.8757C4.96537 26.8757 4.04284 26.8757 3.12031 26.8757C2.95751 26.8757 2.87612 26.93 2.79472 27.0656C2.38772 27.5812 1.76366 27.6626 1.30239 27.2556C0.868262 26.8757 0.841131 26.1702 1.27526 25.7632C1.70939 25.3562 2.38772 25.3834 2.76759 25.8989C2.90325 26.0617 3.01178 26.116 3.20171 26.116C4.31417 26.116 5.45377 26.116 6.56623 26.116C6.86469 26.116 6.94609 26.1702 6.94609 26.4958C6.91896 27.8796 6.94609 29.2906 6.91896 30.6743C6.91896 30.9728 7.00036 31.0813 7.29882 31.0813C10.9075 31.0813 14.5162 31.0813 18.125 31.0813C18.2606 31.0813 18.5591 30.8914 18.5591 31.217C18.5862 31.5969 18.3692 31.8411 18.0707 31.8411C14.8961 31.8411 11.7487 31.8411 8.57408 31.8411C8.13995 31.8411 7.67869 31.8682 7.24456 31.8411C6.97323 31.8139 6.91896 31.9225 6.91896 32.1667C6.91896 33.7404 6.91896 35.3413 6.91896 36.915C6.91896 37.2134 6.97322 37.2948 7.27169 37.2948C10.5277 37.2948 13.8108 37.2948 17.0668 37.2948C17.5009 37.2948 17.6908 37.539 17.528 37.9732C17.5009 38.0546 17.4466 38.0817 17.3924 38.0817C17.311 38.0817 17.2024 38.0817 17.121 38.0817C13.5666 38.0817 10.0393 38.0817 6.48483 38.0817C6.15923 38.0817 6.10496 37.9732 6.10496 37.6747C6.13209 35.8568 6.10496 34.066 6.10496 32.2481C6.10496 31.9496 6.0507 31.8411 5.7251 31.8411C3.93431 31.8682 2.14352 31.8411 0.325601 31.8411C0.217069 31.8411 0.108533 31.8139 0 31.8953C0.0542663 31.5697 0.0542696 31.2984 0.0542696 31.0271Z" fill="#0C0C0C"/>
<path d="M75.9729 25.6269C75.8372 25.6269 75.7016 25.6269 75.5659 25.6269C69.3524 25.6269 63.1389 25.6269 56.8983 25.6541C56.2742 25.6541 55.8943 25.4641 55.6501 24.8672C62.4334 24.8672 69.1896 24.8672 75.9457 24.8672C75.9729 25.1114 75.9729 25.3827 75.9729 25.6269Z" fill="#020202"/>
<path d="M75.9728 44.2129C73.8022 44.2129 71.6587 44.2129 69.488 44.2129C66.1235 44.2129 62.7319 44.2129 59.3673 44.2129C59.2588 44.2129 59.0417 44.3485 59.0146 44.1043C58.9603 43.833 59.2317 43.4531 59.4216 43.4531C59.4487 43.4531 59.503 43.4531 59.5301 43.4531C64.9296 43.4531 70.3291 43.4531 75.7286 43.4531C75.81 43.4531 75.8914 43.4803 76 43.4803C75.9728 43.7244 75.9728 43.9687 75.9728 44.2129Z" fill="#060606"/>
<path d="M38.7461 57.4267C27.8386 57.3996 19.0203 48.527 19.0474 37.6738C19.0746 26.6848 28.137 17.8394 39.0988 18.0022C49.7079 18.165 58.689 26.929 58.4719 38.0807C58.282 48.6898 49.6265 57.4267 38.7461 57.4267ZM46.5876 37.4024C46.5876 38.1079 46.5876 38.7862 46.5876 39.4917C46.5876 40.3599 46.5876 40.3328 47.4558 40.3057C47.6729 40.3057 47.7543 40.2243 47.7272 40.0072C47.7272 39.4917 47.7272 38.9761 47.7272 38.4606C47.7272 38.2978 47.6186 38.0536 47.9171 38.0536C48.1613 38.0536 48.4869 37.8908 48.6497 38.2707C48.8396 38.6777 49.0296 39.0575 49.2466 39.4645C49.6808 40.3599 49.6808 40.3328 50.6847 40.3057C50.9289 40.3057 50.9832 40.2514 50.8475 40.0343C50.5219 39.4103 50.1963 38.7591 49.8436 38.1079C49.7622 37.9451 49.7079 37.8365 49.925 37.7009C50.6304 37.2396 50.9018 36.5613 50.6847 35.8287C50.4405 35.0418 49.8436 34.5534 49.0024 34.5263C48.297 34.4992 47.6186 34.5263 46.9132 34.5263C46.6418 34.5263 46.5604 34.6077 46.5604 34.879C46.5876 35.7202 46.5876 36.5613 46.5876 37.4024ZM28.0556 38.5149C28.1913 38.5149 28.327 38.5149 28.4626 38.5149C29.4937 38.5149 29.548 38.4606 29.3309 37.4295C29.1681 36.6698 28.5983 36.1272 27.8386 36.0186C26.9703 35.9101 26.2648 36.2628 25.9392 36.9683C25.6408 37.5923 25.6136 38.2435 25.7764 38.8947C26.102 40.3328 28.0014 40.8755 29.0867 39.8444C29.1681 39.7901 29.3038 39.7087 29.1952 39.6002C29.0324 39.4103 28.8696 39.2475 28.6797 39.1118C28.5169 39.0033 28.4084 39.1932 28.2998 39.2746C27.7029 39.6002 26.9703 39.3831 26.8075 38.8405C26.7532 38.6234 26.7532 38.5149 27.0246 38.5149C27.3773 38.542 27.73 38.5149 28.0556 38.5149ZM30.2263 38.1621C30.2263 38.6505 30.2263 39.1389 30.2263 39.6545C30.2263 40.4142 30.1178 40.2785 30.8775 40.3328C31.2302 40.3599 31.3116 40.2243 31.2845 39.8987C31.2573 39.1661 31.2845 38.4335 31.2845 37.7009C31.2845 37.4838 31.3659 37.2668 31.5558 37.1311C31.7729 36.9683 32.0171 36.9683 32.2341 37.0768C32.5326 37.1854 32.6411 37.4567 32.6411 37.7551C32.6411 38.3521 32.6411 38.9761 32.6411 39.5731C32.6683 40.4413 32.4783 40.3057 33.4009 40.3328C33.6722 40.3328 33.6993 40.2243 33.6993 40.0072C33.6993 39.2203 33.6993 38.4335 33.6993 37.6466C33.6993 36.3171 32.6683 35.693 31.4744 36.2628C31.4201 36.29 31.3116 36.3714 31.2845 36.3442C31.0945 35.9372 30.7418 36.1814 30.4705 36.1272C30.2534 36.0729 30.172 36.1814 30.1992 36.3985C30.2263 36.9683 30.2263 37.5652 30.2263 38.1621ZM52.8553 37.9179C52.8553 38.4606 52.8553 38.9761 52.8553 39.5188C52.8553 40.3057 52.8553 40.2785 53.6422 40.3057C53.9135 40.3057 54.0221 40.2243 54.0221 39.9529C53.9949 38.8133 54.0221 37.6466 54.0221 36.507C54.0221 35.5845 54.0221 35.5845 54.9175 35.5845C55.5958 35.5845 55.5144 35.693 55.5415 34.9604C55.5415 34.6348 55.433 34.5534 55.1345 34.5534C54.1035 34.5806 53.0724 34.5534 52.0685 34.5534C51.3359 34.5534 51.3359 34.5534 51.363 35.286C51.363 35.3132 51.363 35.3403 51.363 35.3674C51.363 35.5302 51.4444 35.5845 51.6072 35.5845C51.9328 35.5845 52.2313 35.5845 52.5569 35.5845C52.8011 35.5845 52.8825 35.6659 52.8825 35.9101C52.8282 36.5613 52.8553 37.2396 52.8553 37.9179ZM42.1106 38.1893C42.1106 37.8908 42.0835 37.5923 42.0292 37.2939C41.8664 36.5884 41.3237 36.1272 40.564 36.0458C39.7229 35.9644 38.9903 36.29 38.719 36.9412C38.3934 37.7551 38.3934 38.5963 38.719 39.4103C38.9903 40.0886 39.7229 40.4142 40.5369 40.3328C41.2966 40.2514 41.8393 39.7901 42.0021 39.0575C42.0835 38.7862 42.1106 38.4877 42.1106 38.1893ZM23.5787 37.9722C23.5787 38.4877 23.5787 39.0033 23.5787 39.5188C23.5787 40.3328 23.5787 40.3328 24.3927 40.3057C24.664 40.3057 24.7454 40.2243 24.7454 39.9529C24.7454 38.7862 24.7454 37.5923 24.7454 36.4256C24.7454 35.5574 24.7454 35.5574 25.6136 35.5574C26.2377 35.5574 26.2377 35.5574 26.2648 34.9062C26.2648 34.5806 26.1563 34.4992 25.8578 34.4992C24.8539 34.5263 23.8229 34.4992 22.8189 34.4992C22.0592 34.4992 22.0592 34.4992 22.1135 35.2589C22.1135 35.4488 22.1949 35.5302 22.3848 35.5302C22.6833 35.5302 22.9546 35.5574 23.2531 35.5302C23.5244 35.5031 23.6329 35.5845 23.6329 35.883C23.5787 36.5884 23.5787 37.2939 23.5787 37.9722ZM36.087 40.3599C36.3855 40.3871 36.7111 40.3328 37.0367 40.2243C37.6608 40.0072 37.9592 39.5188 37.905 38.8405C37.8778 38.2707 37.5251 37.8908 36.8739 37.7551C36.5754 37.7009 36.277 37.6737 35.9785 37.6466C35.7886 37.6195 35.5987 37.5652 35.5987 37.321C35.5987 37.0768 35.7615 36.9954 35.9785 36.9683C36.2498 36.914 36.5483 36.8869 36.7654 37.0225C37.1724 37.2667 37.3894 37.0225 37.6336 36.7512C37.7964 36.5613 37.7964 36.4799 37.5794 36.3442C36.9553 35.9101 35.6258 35.9372 35.0289 36.3985C34.5947 36.7241 34.4862 37.1582 34.5947 37.6738C34.7033 38.1621 35.0289 38.4335 35.4901 38.5149C35.8157 38.5691 36.1684 38.5963 36.494 38.6505C36.684 38.6777 36.8468 38.7319 36.8739 38.949C36.901 39.1661 36.7654 39.2746 36.5754 39.3289C36.1142 39.4917 35.68 39.4374 35.2731 39.1932C35.0831 39.0847 34.9475 39.0575 34.7847 39.2475C34.7033 39.356 34.5947 39.4374 34.4862 39.5459C34.3234 39.7087 34.3505 39.7901 34.5133 39.9258C35.0017 40.2514 35.4901 40.3599 36.087 40.3599ZM42.9517 38.1893C42.9517 38.7862 42.9517 39.3831 42.9517 39.9801C42.9517 40.0886 42.8975 40.2243 43.006 40.2514C43.3045 40.3328 43.6029 40.3328 43.9014 40.2785C44.1185 40.2243 44.0099 40.0072 44.0099 39.8444C44.0371 39.1118 43.9557 38.3521 44.0642 37.6195C44.1185 37.1311 44.5797 36.8598 44.9596 37.0768C45.2581 37.2668 45.4209 37.1311 45.5837 36.9412C45.6651 36.8326 45.7736 36.7241 45.8821 36.6427C46.0992 36.4528 45.9906 36.3442 45.8279 36.2357C45.3395 35.9644 44.8511 35.9915 44.3355 36.2357C44.2541 36.29 44.0913 36.3985 44.0642 36.3442C43.8743 35.9372 43.4944 36.1814 43.2231 36.1272C43.006 36.0729 42.9246 36.1814 42.9517 36.3985C42.9517 36.9683 42.9517 37.5923 42.9517 38.1893Z" stroke="#121212"/>
<path d="M18.5863 44.2411C17.8266 44.2411 17.1211 44.2411 16.3885 44.2411C14.4892 44.2411 12.5627 44.2411 10.6634 44.2411C10.3921 44.2411 10.3107 44.2953 10.3107 44.5938C10.3378 46.1675 10.3378 47.7684 10.3107 49.3421C10.3107 49.6406 10.3921 49.722 10.6906 49.722C14.0279 49.722 17.3382 49.7491 20.6756 49.6948C21.2996 49.6948 21.5167 50.0204 21.788 50.4546C21.6252 50.536 21.4624 50.5088 21.3268 50.5088C17.7994 50.5088 14.2993 50.5088 10.772 50.5088C10.3921 50.5088 10.3107 50.6174 10.3107 50.9701C10.3378 52.1911 10.3107 53.3849 10.3107 54.6059C10.3107 54.7959 10.3378 54.9315 10.5278 55.0672C11.0162 55.4199 11.0704 56.0983 10.6906 56.5324C10.3107 56.9665 9.60523 56.9665 9.19823 56.5595C8.79124 56.1254 8.8455 55.4742 9.3339 55.0943C9.4967 54.9587 9.55097 54.8501 9.55097 54.6602C9.55097 53.3849 9.55097 52.1368 9.55097 50.8616C9.55097 50.5631 9.44243 50.5088 9.1711 50.5088C6.62058 50.5088 4.0972 50.5088 1.54668 50.5088C1.00402 50.5088 1.08542 50.5631 1.05829 50.0204C1.05829 48.1482 1.05829 46.276 1.05829 44.4039C1.05829 44.1868 1.03115 44.0511 0.814086 43.9155C0.325689 43.5899 0.298558 42.8573 0.705555 42.4503C1.11255 42.0433 1.76375 42.0161 2.17074 42.4503C2.57774 42.8844 2.55061 43.5627 2.08935 43.9155C1.89942 44.0511 1.84515 44.1868 1.84515 44.4039C1.84515 46.059 1.84515 47.687 1.84515 49.3421C1.84515 49.6406 1.89942 49.7491 2.22501 49.7491C4.53133 49.722 6.83765 49.722 9.14397 49.7491C9.46957 49.7491 9.55097 49.6677 9.55097 49.3421C9.52383 47.497 9.55097 45.6791 9.55097 43.8341C9.55097 43.5899 9.60523 43.4813 9.87656 43.4813C12.617 43.4813 15.3303 43.4813 18.0708 43.4813C18.315 43.4813 18.4506 43.5627 18.4778 43.8069C18.4778 43.9155 18.532 44.0511 18.5863 44.2411Z" fill="#080808"/>
<path d="M21.9777 24.7314C21.7064 25.2741 21.4079 25.5454 20.7839 25.5183C17.2566 25.4912 13.7293 25.4912 10.202 25.5183C9.82209 25.5183 9.76782 25.4098 9.76782 25.0842C9.79495 24.3516 9.76782 23.5918 9.76782 22.8592C9.76782 22.6693 9.71356 22.5337 9.55076 22.4251C9.06236 22.0724 9.00809 21.3941 9.38796 20.9599C9.79495 20.5258 10.4733 20.5258 10.8803 20.9328C11.2873 21.3669 11.233 22.0453 10.7446 22.4251C10.5818 22.5337 10.5547 22.6693 10.5547 22.8321C10.5547 23.3477 10.5818 23.8632 10.5547 24.3787C10.5276 24.6772 10.6361 24.7586 10.9345 24.7586C14.3533 24.7586 17.7992 24.7586 21.218 24.7586C21.4622 24.7314 21.7064 24.7314 21.9777 24.7314Z" fill="#080808"/>
<path d="M65.3366 37.2676C67.0189 37.2676 68.674 37.2676 70.3563 37.2676C70.6005 37.2676 70.7633 37.2405 70.9261 36.9963C71.2788 36.5079 71.9571 36.5079 72.3641 36.9149C72.7982 37.3219 72.7982 38.0274 72.3641 38.4072C71.93 38.7871 71.2788 38.76 70.9261 38.2716C70.7633 38.0545 70.6005 38.0274 70.3834 38.0274C67.046 38.0274 63.7358 38.0274 60.3984 38.0274C60.0185 38.0274 59.8286 37.7018 59.9914 37.349C60.0728 37.1862 60.2085 37.2676 60.317 37.2676C61.9721 37.2405 63.6544 37.2676 65.3366 37.2676Z" fill="#070707"/>
<path d="M55.7314 50.4002C55.8671 50.2102 55.9756 50.0746 56.057 49.9389C56.1927 49.6404 56.4369 49.5862 56.7354 49.5862C58.8789 49.6133 60.9953 49.5862 63.1388 49.5862C63.383 49.5862 63.5729 49.559 63.7357 49.3148C64.0885 48.8536 64.7668 48.8264 65.1738 49.2334C65.5808 49.6404 65.5808 50.2916 65.1738 50.6986C64.7668 51.1056 64.0885 51.0785 63.7357 50.6172C63.5458 50.4002 63.383 50.373 63.1117 50.373C60.8053 50.373 58.4719 50.373 56.1656 50.373C56.0842 50.4002 55.9485 50.4002 55.7314 50.4002Z" fill="#0B0B0B"/>
<path d="M62.3521 31.0813C63.3832 31.0813 64.3871 31.0813 65.4182 31.0813C65.6352 31.0813 65.7709 31.027 65.9337 30.8371C66.2864 30.3487 66.9647 30.2944 67.3989 30.7014C67.833 31.1084 67.833 31.7867 67.3989 32.1666C66.9647 32.5736 66.2864 32.5193 65.9337 32.0309C65.798 31.841 65.6624 31.8139 65.4724 31.8139C63.4646 31.8139 61.4839 31.8139 59.476 31.8139C59.1775 31.8139 58.8519 31.4069 58.9333 31.1355C58.9876 30.9727 59.1233 31.0541 59.2318 31.0541C60.2629 31.0813 61.2939 31.0813 62.3521 31.0813Z" fill="#050505"/>
<path d="M46.5876 37.4033C46.5876 36.5621 46.5876 35.721 46.5876 34.8527C46.5876 34.5814 46.669 34.5 46.9404 34.5C47.6458 34.5271 48.3242 34.5 49.0296 34.5C49.8708 34.5271 50.4677 34.9884 50.7119 35.8024C50.9289 36.535 50.6576 37.2405 49.9522 37.6746C49.7622 37.8102 49.7894 37.9188 49.8708 38.0816C50.1964 38.7056 50.522 39.3568 50.8747 40.008C50.9832 40.2251 50.9289 40.2794 50.7119 40.2794C49.708 40.3065 49.708 40.3065 49.2738 39.4382C49.0839 39.0312 48.8668 38.6514 48.6769 38.2444C48.5141 37.8645 48.2156 38.0273 47.9443 38.0273C47.673 38.0273 47.7544 38.2715 47.7544 38.4343C47.7544 38.9498 47.7544 39.4654 47.7544 39.9809C47.7544 40.198 47.673 40.2522 47.483 40.2794C46.6148 40.3336 46.6148 40.3336 46.6148 39.4654C46.5876 38.787 46.5876 38.1087 46.5876 37.4033ZM48.4327 35.5582C48.2699 35.5582 48.1071 35.5582 47.9443 35.5582C47.8086 35.5582 47.7272 35.6125 47.7272 35.7481C47.7544 36.1551 47.5644 36.6707 47.8086 36.942C48.0257 37.1862 48.5141 37.0234 48.894 36.9963C49.301 36.9691 49.5723 36.6978 49.5723 36.2908C49.5723 35.8838 49.3281 35.5853 48.9211 35.5582C48.7583 35.5582 48.5955 35.5582 48.4327 35.5582Z" fill="#F8FCEF"/>
<path d="M28.0556 38.5156C27.7029 38.5156 27.3773 38.5156 27.0246 38.5156C26.7532 38.5156 26.7261 38.6241 26.8075 38.8412C26.9703 39.3839 27.73 39.6009 28.2998 39.2753C28.4084 39.221 28.5169 39.004 28.6797 39.1125C28.8696 39.2482 29.0324 39.411 29.1952 39.6009C29.2766 39.7094 29.141 39.7909 29.0867 39.8451C27.9742 40.8762 26.102 40.3335 25.7764 38.8955C25.6408 38.2443 25.6679 37.5931 25.9392 36.969C26.2648 36.2635 26.9703 35.9108 27.8386 36.0193C28.5983 36.1279 29.1681 36.6434 29.3309 37.4303C29.548 38.4613 29.4937 38.5156 28.4626 38.5156C28.3541 38.5156 28.2184 38.5156 28.0556 38.5156ZM27.5672 37.783C27.73 37.783 27.8657 37.783 28.0285 37.783C28.3541 37.8101 28.3812 37.6473 28.2727 37.4031C28.137 37.1047 27.92 36.9419 27.5672 36.9419C27.2145 36.9419 26.9703 37.1047 26.8346 37.4303C26.7261 37.6745 26.7532 37.8101 27.0788 37.783C27.2416 37.783 27.4044 37.783 27.5672 37.783Z" fill="#F8FCEF"/>
<path d="M30.2263 38.163C30.2263 37.566 30.2263 36.9691 30.2263 36.3722C30.2263 36.1551 30.3077 36.0466 30.4976 36.1009C30.769 36.1551 31.1217 35.9109 31.3116 36.3179C31.3388 36.3722 31.4473 36.2908 31.5016 36.2365C32.6954 35.6667 33.7265 36.2908 33.7265 37.6203C33.7265 38.4072 33.7265 39.194 33.7265 39.9809C33.7265 40.2251 33.6722 40.3336 33.428 40.3065C32.4784 40.2794 32.6683 40.415 32.6683 39.5468C32.6683 38.9498 32.6683 38.3258 32.6683 37.7289C32.6683 37.4304 32.5598 37.1862 32.2613 37.0505C32.0171 36.9691 31.8 36.9691 31.583 37.1048C31.393 37.2404 31.3116 37.4304 31.3116 37.6746C31.3116 38.4072 31.2845 39.1398 31.3116 39.8724C31.3116 40.198 31.2302 40.3065 30.9046 40.3065C30.1178 40.2794 30.2534 40.3879 30.2534 39.6282C30.2263 39.1398 30.2263 38.6514 30.2263 38.163Z" fill="#F8FCEF"/>
<path d="M52.8554 37.9188C52.8554 37.2404 52.8554 36.5621 52.8554 35.8567C52.8554 35.6125 52.774 35.5311 52.5298 35.5311C52.2042 35.5582 51.9057 35.5311 51.5801 35.5311C51.4173 35.5311 51.3359 35.4768 51.3359 35.314C51.3359 35.2869 51.3359 35.2597 51.3359 35.2326C51.3088 34.5 51.3088 34.5 52.0414 34.5C53.0725 34.5 54.1035 34.5 55.1074 34.5C55.4059 34.5 55.5416 34.5814 55.5144 34.907C55.4873 35.6396 55.5687 35.5311 54.8904 35.5311C53.995 35.5311 53.995 35.5311 53.995 36.4536C53.995 37.5932 53.995 38.7599 53.995 39.8995C53.995 40.1708 53.9136 40.2794 53.6151 40.2522C52.8283 40.2522 52.8283 40.2522 52.8283 39.4654C52.8554 39.0041 52.8554 38.4614 52.8554 37.9188Z" fill="#F8FCEF"/>
<path d="M42.1107 38.1896C42.1107 38.4881 42.0835 38.7866 42.0293 39.085C41.8665 39.7905 41.2967 40.2789 40.5641 40.3603C39.7229 40.4417 39.0175 40.1161 38.7462 39.4378C38.4206 38.6238 38.4206 37.7826 38.7462 36.9686C39.0175 36.2903 39.7501 35.9647 40.5912 36.0732C41.3509 36.1546 41.8665 36.6159 42.0564 37.3214C42.0835 37.5656 42.1107 37.864 42.1107 38.1896ZM41.0253 38.1896C41.0253 37.9726 41.0253 37.7284 40.9711 37.5113C40.8897 37.1857 40.6726 36.9958 40.3199 36.9958C39.9671 36.9958 39.7229 37.1586 39.6415 37.4842C39.5059 37.9454 39.533 38.4338 39.6415 38.8951C39.7229 39.2207 39.9671 39.3835 40.2927 39.3835C40.6455 39.3835 40.8625 39.2207 40.9439 38.868C41.0253 38.6509 41.0525 38.4338 41.0253 38.1896Z" fill="#F8FCEF"/>
<path d="M23.5788 37.9716C23.5788 37.2933 23.5516 36.615 23.5788 35.9366C23.5788 35.6382 23.4974 35.5568 23.1989 35.5839C22.9004 35.611 22.6291 35.5839 22.3306 35.5839C22.1407 35.5839 22.0593 35.5025 22.0593 35.3126C22.005 34.5257 22.005 34.5528 22.7648 34.5528C23.7687 34.5528 24.7997 34.5528 25.8037 34.5528C26.1021 34.5528 26.2378 34.6071 26.2107 34.9598C26.1835 35.611 26.2107 35.611 25.5595 35.611C24.6912 35.611 24.6912 35.611 24.6912 36.4793C24.6912 37.646 24.6912 38.8399 24.6912 40.0066C24.6912 40.2779 24.6098 40.3593 24.3385 40.3593C23.5245 40.3593 23.5245 40.3865 23.5245 39.5725C23.5788 39.0027 23.5788 38.4871 23.5788 37.9716Z" fill="#F8FCEF"/>
<path d="M36.0871 40.3602C35.4902 40.3602 35.0018 40.2788 34.5405 39.9261C34.3506 39.7904 34.3235 39.6819 34.5134 39.5462C34.6219 39.4648 34.7305 39.3563 34.8119 39.2477C34.9475 39.0578 35.0832 39.0849 35.3003 39.1935C35.7073 39.4377 36.1414 39.5191 36.6026 39.3291C36.7926 39.2749 36.9282 39.1392 36.9011 38.9493C36.874 38.7322 36.7112 38.6779 36.5212 38.6508C36.1956 38.5965 35.8429 38.5694 35.5173 38.5151C35.0289 38.4337 34.7033 38.1624 34.6219 37.674C34.5134 37.1585 34.6491 36.7244 35.0561 36.3988C35.653 35.9375 36.9825 35.9104 37.6066 36.3445C37.7965 36.4802 37.8236 36.5887 37.6608 36.7515C37.4166 36.9957 37.1996 37.267 36.7926 37.0228C36.5755 36.8872 36.2771 36.9143 36.0057 36.9685C35.8158 36.9957 35.6259 37.1042 35.6259 37.3213C35.6259 37.5655 35.8158 37.6197 36.0057 37.6469C36.3042 37.674 36.6026 37.7011 36.9011 37.7554C37.5523 37.8639 37.905 38.2438 37.9322 38.8407C37.9864 39.5191 37.6608 40.0075 37.0639 40.2245C36.7383 40.3331 36.3856 40.3873 36.0871 40.3602Z" fill="#F8FCEF"/>
<path d="M42.9518 38.1898C42.9518 37.5929 42.9518 36.9688 42.9518 36.3719C42.9518 36.1548 43.0332 36.0463 43.2231 36.1006C43.4945 36.1548 43.8472 35.9106 44.0643 36.3176C44.0914 36.3719 44.2542 36.2633 44.3356 36.2091C44.824 35.9649 45.3395 35.9378 45.8279 36.2091C46.0178 36.3176 46.0992 36.4261 45.8822 36.6161C45.7736 36.6975 45.6922 36.806 45.5837 36.9146C45.4209 37.1045 45.2581 37.2402 44.9597 37.0502C44.5527 36.806 44.1185 37.1045 44.0643 37.5929C43.9557 38.3255 44.0371 39.0852 44.01 39.8178C44.01 39.9806 44.1185 40.1977 43.9015 40.2519C43.603 40.3062 43.3045 40.3333 43.0061 40.2248C42.8975 40.1977 42.9518 40.0349 42.9518 39.9535C42.9518 39.3837 42.9518 38.7867 42.9518 38.1898Z" fill="#F8FCEF"/>
<path d="M48.4328 35.557C48.5956 35.557 48.7584 35.5298 48.9212 35.557C49.3282 35.6112 49.5724 35.9097 49.5724 36.2896C49.5724 36.6966 49.3282 36.995 48.894 36.995C48.5142 36.995 48.0258 37.1578 47.8087 36.9408C47.5645 36.6694 47.7544 36.1539 47.7273 35.7469C47.7273 35.5841 47.8087 35.557 47.9444 35.557C48.1072 35.557 48.27 35.557 48.4328 35.557Z" fill="black"/>
<path d="M27.5674 37.7825C27.4046 37.7825 27.2418 37.7825 27.079 37.7825C26.7534 37.8097 26.7534 37.6469 26.8348 37.4298C26.9704 37.1042 27.2146 36.9414 27.5674 36.9414C27.893 36.9414 28.1372 37.1042 28.2728 37.4027C28.3814 37.6469 28.3542 37.8097 28.0286 37.7825C27.8658 37.7825 27.703 37.7825 27.5674 37.7825Z" fill="black"/>
<path d="M41.0253 38.1899C41.0525 38.407 41.0253 38.6512 40.9439 38.8683C40.8625 39.1939 40.6183 39.3838 40.2927 39.3838C39.9671 39.3838 39.7229 39.221 39.6415 38.8954C39.5059 38.4342 39.5059 37.9458 39.6415 37.4845C39.7229 37.1589 39.9671 36.9961 40.3199 36.9961C40.6726 36.9961 40.8897 37.186 40.9711 37.5116C41.0253 37.7558 41.0525 37.9729 41.0253 38.1899Z" fill="black"/>
</g>
<defs>
<filter id="filter0_i_810_300" x="0" y="0" width="76" height="80" filterUnits="userSpaceOnUse" color-interpolation-filters="sRGB">
<feFlood flood-opacity="0" result="BackgroundImageFix"/>
<feBlend mode="normal" in="SourceGraphic" in2="BackgroundImageFix" result="shape"/>
<feColorMatrix in="SourceAlpha" type="matrix" values="0 0 0 0 0 0 0 0 0 0 0 0 0 0 0 0 0 0 127 0" result="hardAlpha"/>
<feOffset dy="4"/>
<feGaussianBlur stdDeviation="2"/>
<feComposite in2="hardAlpha" operator="arithmetic" k2="-1" k3="1"/>
<feColorMatrix type="matrix" values="0 0 0 0 0 0 0 0 0 0 0 0 0 0 0 0 0 0 0.25 0"/>
<feBlend mode="normal" in2="shape" result="effect1_innerShadow_810_300"/>
</filter>
</defs>
</svg>
