<svg width="40" height="40" viewBox="0 0 40 40" fill="none" xmlns="http://www.w3.org/2000/svg">
<path fill-rule="evenodd" clip-rule="evenodd" d="M19.5899 9.98185V7.07617H20.4101V9.98185L20.1992 9.86469C20.0586 9.79439 19.918 9.79439 19.8008 9.86469L19.5899 9.98185ZM35.4774 21.8858V18.0193C35.4774 16.918 34.5636 16.0041 33.4622 16.0041H26.1746V15.184H33.4622C35.0088 15.184 36.2976 16.4728 36.2976 18.0193V21.8858H35.4774ZM3.70239 21.8858V18.0193C3.70239 16.4728 4.9912 15.184 6.53778 15.184H13.8723V16.0041H6.53778C5.413 16.0041 4.49911 16.918 4.49911 18.0193V21.8858H3.70239ZM19.5899 29.2906V26.174H10.4276V25.3539H19.5899V23.6667L19.8008 23.7838C19.8711 23.8307 19.918 23.8541 19.9883 23.8541C20.0586 23.8541 20.1289 23.8307 20.1992 23.7838L20.4101 23.6667V25.3539H29.5255V26.174H20.4101V29.2906C20.2695 29.2906 20.1289 29.2906 19.9883 29.2906C19.8477 29.2906 19.7305 29.2906 19.5899 29.2906Z" fill="white"/>
<path fill-rule="evenodd" clip-rule="evenodd" d="M33.5794 10.7088H30.5331C30.2988 10.7088 30.1348 10.5448 30.1348 10.3105C30.1348 10.0761 30.2988 9.88867 30.5331 9.88867H33.5794C33.8137 9.88867 34.0012 10.0761 34.0012 10.3105C34.0012 10.5448 33.8137 10.7088 33.5794 10.7088Z" fill="white"/>
<path fill-rule="evenodd" clip-rule="evenodd" d="M32.5718 11.9276H30.5331C30.2988 11.9276 30.1348 11.7635 30.1348 11.5292C30.1348 11.2949 30.2988 11.1074 30.5331 11.1074H32.5718C32.8061 11.1074 32.9701 11.2949 32.9701 11.5292C32.9701 11.7635 32.8061 11.9276 32.5718 11.9276Z" fill="white"/>
<path fill-rule="evenodd" clip-rule="evenodd" d="M33.5794 13.1463H30.5331C30.2988 13.1463 30.1348 12.9823 30.1348 12.748C30.1348 12.5136 30.2988 12.3262 30.5331 12.3262H33.5794C33.8137 12.3262 34.0012 12.5136 34.0012 12.748C34.0012 12.9823 33.8137 13.1463 33.5794 13.1463Z" fill="white"/>
<path fill-rule="evenodd" clip-rule="evenodd" d="M29.174 10.7086H27.4399C27.2759 11.2476 26.7369 11.6694 26.1277 11.6694C25.3778 11.6694 24.8154 11.0367 24.8154 10.3103C24.8154 9.56043 25.4247 8.97461 26.1277 8.97461C26.7369 8.97461 27.229 9.37297 27.4165 9.88849H29.174C29.4083 9.88849 29.5957 10.076 29.5957 10.3103C29.5957 10.5446 29.3848 10.7086 29.174 10.7086Z" fill="white"/>
<path fill-rule="evenodd" clip-rule="evenodd" d="M9.63093 28.4715V23.0117C9.63093 22.8476 9.49033 22.707 9.3263 22.707H0.304628C0.140598 22.707 0 22.8476 0 23.0117V28.4715C0 28.6356 0.140598 28.7762 0.304628 28.7762H9.3263C9.49033 28.7762 9.63093 28.6356 9.63093 28.4715ZM7.56883 24.3239H2.10896C1.87463 24.3239 1.68717 24.1599 1.68717 23.9255C1.68717 23.6912 1.87463 23.5272 2.10896 23.5272H7.56883C7.80316 23.5272 7.96719 23.6912 7.96719 23.9255C7.96719 24.1599 7.80316 24.3239 7.56883 24.3239ZM6.16286 25.7533C6.16286 25.9876 5.99883 26.1751 5.7645 26.1751H2.10896C1.87463 26.1751 1.68717 25.9876 1.68717 25.7533C1.68717 25.519 1.87463 25.355 2.10896 25.355H5.7645C5.99883 25.355 6.16286 25.519 6.16286 25.7533ZM2.10896 27.1593H7.56883C7.80316 27.1593 7.96719 27.3233 7.96719 27.5576C7.96719 27.792 7.80316 27.956 7.56883 27.956H2.10896C1.87463 27.956 1.68717 27.792 1.68717 27.5576C1.68717 27.3233 1.87463 27.1593 2.10896 27.1593Z" fill="white"/>
<path fill-rule="evenodd" clip-rule="evenodd" d="M15.4892 6.28007H24.5109C24.6749 6.28007 24.8389 6.13947 24.8389 5.97544V0.538998C24.8389 0.328102 24.6749 0.210938 24.5109 0.210938H15.4892C15.3252 0.210938 15.1846 0.328102 15.1846 0.538998V5.97544C15.1846 6.13947 15.3252 6.28007 15.4892 6.28007ZM20.9725 3.63214H17.2935C17.0592 3.63214 16.8717 3.46811 16.8717 3.21035C16.8717 2.97602 17.0592 2.81199 17.2935 2.81199H20.9725C21.2068 2.81199 21.3943 2.97602 21.3943 3.21035C21.3943 3.46811 21.1834 3.63214 20.9725 3.63214ZM22.73 1.82781H17.2935C17.0592 1.82781 16.8717 1.66378 16.8717 1.42945C16.8717 1.19512 17.0592 1.00766 17.2935 1.00766H22.73C22.9877 1.00766 23.1518 1.19512 23.1518 1.42945C23.1518 1.66378 22.9409 1.82781 22.73 1.82781ZM16.8717 5.03812C16.8717 4.80379 17.0592 4.63976 17.2935 4.63976H22.73C22.9877 4.63976 23.1518 4.80379 23.1518 5.03812C23.1518 5.29588 22.9409 5.45991 22.73 5.45991H17.2935C17.0592 5.45991 16.8717 5.29588 16.8717 5.03812Z" fill="white"/>
<path fill-rule="evenodd" clip-rule="evenodd" d="M25.3544 13.7318L19.9882 10.6387L14.6689 13.7318V19.8947L19.9882 22.9878L25.3544 19.8947V13.7318ZM17.2934 14.2239H22.7299C22.9876 14.2239 23.1517 14.4114 23.1517 14.6457C23.1517 14.88 22.9408 15.0441 22.7299 15.0441H17.2934C17.0591 15.0441 16.8716 14.88 16.8716 14.6457C16.8716 14.4114 17.0591 14.2239 17.2934 14.2239ZM17.2934 18.5824H22.7299C22.9876 18.5824 23.1517 18.7465 23.1517 18.9808C23.1517 19.2151 22.9408 19.3792 22.7299 19.3792H17.2934C17.0591 19.3792 16.8716 19.2151 16.8716 18.9808C16.8716 18.7465 17.0591 18.5824 17.2934 18.5824ZM17.2934 16.4032H20.9724C21.2067 16.4032 21.3942 16.5672 21.3942 16.8015C21.3942 17.0359 21.1833 17.2233 20.9724 17.2233H17.2934C17.0591 17.2233 16.8716 17.0359 16.8716 16.8015C16.8716 16.5672 17.0591 16.4032 17.2934 16.4032Z" fill="white"/>
<path fill-rule="evenodd" clip-rule="evenodd" d="M30.3221 23.0117V28.4715C30.3221 28.6356 30.4627 28.7762 30.6736 28.7762H39.6953C39.8593 28.7762 39.9999 28.6356 39.9999 28.4715V23.0117C39.9999 22.8476 39.8593 22.707 39.6953 22.707H30.6736C30.5096 22.707 30.3221 22.8476 30.3221 23.0117ZM37.891 24.3239H32.478C32.2202 24.3239 32.0562 24.1599 32.0562 23.9255C32.0562 23.6912 32.2202 23.5272 32.478 23.5272H37.9144C38.1722 23.5272 38.3362 23.6912 38.3362 23.9255C38.3362 24.1599 38.1253 24.3239 37.891 24.3239ZM32.0562 25.7533C32.0562 25.519 32.2202 25.355 32.478 25.355H36.1569C36.3913 25.355 36.5787 25.519 36.5787 25.7533C36.5787 25.9876 36.3678 26.1751 36.1569 26.1751H32.478C32.2202 26.1751 32.0562 25.9876 32.0562 25.7533ZM32.478 27.1593H37.9144C38.1722 27.1593 38.3362 27.3233 38.3362 27.5576C38.3362 27.792 38.1253 27.956 37.891 27.956H32.478C32.2202 27.956 32.0562 27.792 32.0562 27.5576C32.0562 27.3233 32.2202 27.1593 32.478 27.1593Z" fill="white"/>
<path fill-rule="evenodd" clip-rule="evenodd" d="M21.2771 34.3298C21.2771 33.6503 20.7147 33.0879 19.9883 33.0879C19.3087 33.0879 18.7463 33.6503 18.7463 34.3298V34.7048H21.2771V34.3298Z" fill="white"/>
<path fill-rule="evenodd" clip-rule="evenodd" d="M19.9883 32.2672C21.1365 32.2672 22.0973 33.181 22.0973 34.3293V35.1025V35.126V37.2115C22.0973 37.4458 21.8864 37.6099 21.6989 37.6099C21.4646 37.6099 21.2771 37.4458 21.2771 37.2115V35.5243H18.7464V37.2115C18.7464 37.4458 18.5823 37.6099 18.3246 37.6099C18.0902 37.6099 17.9262 37.4458 17.9262 37.2115V35.1025V34.3293C17.9262 33.2045 18.887 32.2672 19.9883 32.2672ZM19.9883 30.0879C17.317 30.0879 15.1611 32.2672 15.1611 34.9385C15.1611 37.6099 17.317 39.7891 19.9883 39.7891C22.6831 39.7891 24.8389 37.6099 24.8389 34.9385C24.8858 32.2672 22.6831 30.0879 19.9883 30.0879Z" fill="white"/>
</svg>
