<svg width="78" height="76" viewBox="0 0 78 76" fill="none" xmlns="http://www.w3.org/2000/svg">
<g filter="url(#filter0_i_810_284)">
<path fill-rule="evenodd" clip-rule="evenodd" d="M56.1608 31.7V54.4185H47.9368L35.3213 31.7V54.4185H28.9644V22H37.5176L49.804 45.0969V22H58.3572L70.6436 45.0969V22H77L76.9637 54.4181H68.7889L56.1608 31.7ZM1 54.4181H8.07684V28.6985H13.238C16.5197 28.6985 18.387 29.6982 18.8471 31.6991C19.2017 33.2395 18.9924 34.6998 17.3444 35.3519C15.9926 35.8869 13.7746 36.1532 10.7 36.1532H9.60161L19.2649 54.4181H27.818L19.6432 40.6432H19.8997C24.3482 40.6432 26.9272 36.9433 26.9272 32.932C26.9272 26.2461 23.3276 22.5976 16.166 22H1V54.4181Z" stroke="#121212" stroke-width="2"/>
</g>
<defs>
<filter id="filter0_i_810_284" x="0" y="0" width="78.0011" height="80" filterUnits="userSpaceOnUse" color-interpolation-filters="sRGB">
<feFlood flood-opacity="0" result="BackgroundImageFix"/>
<feBlend mode="normal" in="SourceGraphic" in2="BackgroundImageFix" result="shape"/>
<feColorMatrix in="SourceAlpha" type="matrix" values="0 0 0 0 0 0 0 0 0 0 0 0 0 0 0 0 0 0 127 0" result="hardAlpha"/>
<feOffset dy="4"/>
<feGaussianBlur stdDeviation="2"/>
<feComposite in2="hardAlpha" operator="arithmetic" k2="-1" k3="1"/>
<feColorMatrix type="matrix" values="0 0 0 0 0 0 0 0 0 0 0 0 0 0 0 0 0 0 0.25 0"/>
<feBlend mode="normal" in2="shape" result="effect1_innerShadow_810_284"/>
</filter>
</defs>
</svg>
