<svg width="40" height="40" viewBox="0 0 40 40" fill="none" xmlns="http://www.w3.org/2000/svg">
<path d="M39.066 30.2104L38.9606 29.9031C38.8727 29.6461 38.7647 29.3871 38.6399 29.1335L38.497 28.8416L38.9251 27.9466L36.7499 25.7714L35.8548 26.1995L35.563 26.0566C35.3094 25.9318 35.0504 25.8244 34.7934 25.7359L34.4861 25.6305L34.1574 24.6973H31.0811L30.7517 25.6312L30.4444 25.7365C30.1874 25.8244 29.9284 25.9325 29.6748 26.0573L29.383 26.2002L28.4879 25.7721L26.3128 27.9473L26.7408 28.8423L26.5979 29.1342C26.4731 29.3878 26.3658 29.6468 26.2772 29.9037L26.1719 30.211L25.2393 30.5398V33.616L26.1732 33.9455L26.2785 34.2528C26.3664 34.5097 26.4745 34.7687 26.5993 35.0223L26.7422 35.3142L26.3141 36.2092L28.4893 38.3844L29.3843 37.9563L29.6762 38.0993C29.9298 38.2241 30.1888 38.3314 30.4457 38.42L30.753 38.5253L31.0818 39.4579H34.158L34.4875 38.524L34.7948 38.4186C35.0517 38.3307 35.3107 38.2227 35.5643 38.0979L35.8562 37.955L36.7512 38.3831L38.9264 36.2079L38.4983 35.3128L38.6412 35.021C38.766 34.7674 38.8734 34.5084 38.962 34.2514L39.0673 33.9441L39.9999 33.6154V30.5391L39.066 30.2104ZM32.6196 36.7742C30.0257 36.7742 27.923 34.6714 27.923 32.0776C27.923 29.4837 30.0257 27.381 32.6196 27.381C35.2134 27.381 37.3161 29.4837 37.3161 32.0776C37.3161 34.6714 35.2134 36.7742 32.6196 36.7742Z" fill="white"/>
<path d="M32.6197 34.0901C33.7314 34.0901 34.6326 33.1889 34.6326 32.0773C34.6326 30.9656 33.7314 30.0645 32.6197 30.0645C31.5081 30.0645 30.6069 30.9656 30.6069 32.0773C30.6069 33.1889 31.5081 34.0901 32.6197 34.0901Z" fill="white"/>
<path d="M16.5171 27.3809H8.46586C8.09617 27.3809 7.79492 27.6821 7.79492 28.0518C7.79492 28.4215 8.09617 28.7227 8.46586 28.7227H16.5171C16.8868 28.7227 17.1881 28.4215 17.1881 28.0518C17.1881 27.6821 16.8868 27.3809 16.5171 27.3809Z" fill="white"/>
<path d="M12.4915 32.7482C14.1112 32.7482 15.4665 31.5935 15.7784 30.0645H9.20459C9.51658 31.5935 10.8719 32.7482 12.4915 32.7482Z" fill="white"/>
<path d="M16.5171 24.6973H8.46586C8.09617 24.6973 7.79492 24.9985 7.79492 25.3682C7.79492 25.7379 8.09617 26.0391 8.46586 26.0391H16.5171C16.8868 26.0391 17.1881 25.7379 17.1881 25.3682C17.1881 24.9985 16.8868 24.6973 16.5171 24.6973Z" fill="white"/>
<path d="M12.4916 0.542969C6.94223 0.542969 2.42749 5.05771 2.42749 10.607V10.8573C2.42749 13.5458 3.47483 16.0725 5.37559 17.9739L7.51723 20.1156C8.40153 20.9999 8.94498 22.1324 9.09192 23.3549H15.8905C16.0375 22.1324 16.5809 20.9999 17.4652 20.1156L19.6069 17.9739C21.5083 16.0725 22.5556 13.5451 22.5556 10.8573V10.607C22.5556 5.05771 18.0409 0.542969 12.4916 0.542969ZM19.9886 7.68712L21.2138 8.1192V13.0942L19.9886 13.527C19.947 13.6323 19.9034 13.7376 19.8571 13.843L20.418 15.0158L16.8996 18.5342L15.7268 17.9733C15.6222 18.0196 15.5168 18.0638 15.4108 18.1048L14.9794 19.3292H10.0044L9.57164 18.1041C9.4663 18.0625 9.36097 18.0189 9.25563 17.9726L8.08283 18.5335L4.5651 15.0151L5.126 13.8423C5.07971 13.7376 5.03543 13.6323 4.9945 13.5263L3.76937 13.0949V8.11987L4.9945 7.68712C5.0361 7.58178 5.07971 7.47644 5.126 7.37111L4.5651 6.19898L8.0835 2.68058L9.2563 3.24148C9.36097 3.19519 9.4663 3.15091 9.57231 3.10998L10.0037 1.88485H14.9787L15.4115 3.10998C15.5168 3.15158 15.6222 3.19519 15.7275 3.24148L16.9003 2.68058L20.4187 6.19898L19.8578 7.37178C19.9034 7.47577 19.947 7.58178 19.9886 7.68712Z" fill="white"/>
<path d="M18.8331 8.43237C18.7452 8.1754 18.6372 7.91642 18.5124 7.66281L18.3695 7.37095L18.7976 6.47592L16.6224 4.30073L15.7273 4.72879L15.4355 4.58588C15.1819 4.46109 14.9236 4.35374 14.6659 4.26518L14.3586 4.15984L14.0292 3.22656H10.9529L10.6235 4.16051L10.3162 4.26585C10.0593 4.35374 9.80094 4.46109 9.54733 4.58588L9.25547 4.72879L8.36044 4.30073L6.18526 6.47592L6.61332 7.37095L6.47041 7.66281C6.34561 7.91642 6.23826 8.1754 6.1497 8.43237L6.04436 8.73966L5.11108 9.06909V12.1453L6.04503 12.4748L6.15037 12.7821C6.23826 13.039 6.34628 13.298 6.47108 13.5516L6.61399 13.8435L6.18593 14.7385L8.36111 16.9137L9.25614 16.4856L9.548 16.6286C9.80161 16.7533 10.0606 16.8607 10.3176 16.9493L10.6249 17.0546L10.9536 17.9872H14.0299L14.3593 17.0533L14.6666 16.9479C14.9236 16.86 15.1825 16.752 15.4362 16.6272L15.728 16.4843L16.623 16.9124L18.7982 14.7372L18.3702 13.8421L18.5131 13.5503C18.6379 13.2967 18.7452 13.0377 18.8338 12.7807L18.9391 12.4734L19.8717 12.1447V9.06842L18.9378 8.73899L18.8331 8.43237ZM12.4914 15.3035C9.89756 15.3035 7.79484 13.2007 7.79484 10.6069C7.79484 8.01304 9.89756 5.91032 12.4914 5.91032C15.0853 5.91032 17.188 8.01304 17.188 10.6069C17.188 13.2007 15.0853 15.3035 12.4914 15.3035Z" fill="white"/>
<path d="M12.4916 12.6194C13.6032 12.6194 14.5044 11.7182 14.5044 10.6066C14.5044 9.49492 13.6032 8.59375 12.4916 8.59375C11.3799 8.59375 10.4788 9.49492 10.4788 10.6066C10.4788 11.7182 11.3799 12.6194 12.4916 12.6194Z" fill="white"/>
<path d="M28.8503 15.3033L32.6197 22.842L36.389 15.3033H33.2906V7.92297C33.2906 6.81324 32.3875 5.91016 31.2778 5.91016H29.265V7.25203H31.2778C31.6475 7.25203 31.9487 7.55328 31.9487 7.92297V15.3033H28.8503Z" fill="white"/>
<path d="M26.5813 5.91016H27.9232V7.25203H26.5813V5.91016Z" fill="white"/>
<path d="M7.53866 34.0894L3.76933 26.5508L0 34.0894H3.09839V37.4441C3.09839 38.5539 4.00148 39.457 5.11121 39.457H7.12402V38.1151H5.11121C4.74152 38.1151 4.44027 37.8138 4.44027 37.4441V34.0894H7.53866Z" fill="white"/>
<path d="M11.1497 38.1152H12.4915V39.4571H11.1497V38.1152Z" fill="white"/>
<path d="M13.8335 38.1152H15.1754V39.4571H13.8335V38.1152Z" fill="white"/>
<path d="M8.46582 38.1152H9.8077V39.4571H8.46582V38.1152Z" fill="white"/>
</svg>
