<svg width="76" height="78" viewBox="0 0 76 78" fill="none" xmlns="http://www.w3.org/2000/svg">
<g filter="url(#filter0_i_810_270)">
<path d="M43.325 67.5353C43.6033 67.968 43.835 68.4163 44.0204 68.911L62.8757 58.2313C62.5665 57.8141 62.3037 57.3659 62.103 56.9023L43.325 67.5353Z" stroke="#121212" stroke-width="1.4"/>
</g>
<g filter="url(#filter1_i_810_270)">
<path d="M31.5638 10.4751C31.2855 10.0423 31.0381 9.57862 30.8529 9.09961L12.4611 18.5581C12.7239 18.9754 12.9713 19.4391 13.1412 19.9336L31.5638 10.4751Z" stroke="#121212" stroke-width="1.4"/>
</g>
<g filter="url(#filter2_i_810_270)">
<path d="M67.7903 47.0271C68.0531 46.9964 68.316 46.9809 68.5786 46.9809C68.8259 46.9809 69.0887 46.9964 69.3359 47.0117V29.4549C69.0887 29.4704 68.8259 29.4859 68.5786 29.4859C68.316 29.4859 68.0531 29.4704 67.7903 29.4395V47.0271Z" stroke="#121212" stroke-width="1.4"/>
</g>
<g filter="url(#filter3_i_810_270)">
<path d="M62.6439 18.5589L44.0669 9.00781C43.8814 9.48682 43.6496 9.95036 43.3713 10.3832L61.9638 19.9345C62.1339 19.44 62.3656 18.9763 62.6439 18.5589Z" stroke="#121212" stroke-width="1.4"/>
</g>
<g filter="url(#filter4_i_810_270)">
<path d="M7.29917 29.4531C7.03637 29.4686 6.78922 29.4841 6.52642 29.4841C6.26361 29.4841 6.01647 29.4686 5.75366 29.4531V47.0099C6.01647 46.9946 6.26361 46.9791 6.52642 46.9791C6.78922 46.9791 7.03637 46.9946 7.29917 47.0099V29.4531Z" stroke="#121212" stroke-width="1.4"/>
</g>
<g filter="url(#filter5_i_810_270)">
<path d="M12.2139 58.2313L30.8836 68.8027C31.0845 68.3235 31.3318 67.8752 31.6101 67.4581L13.0022 56.9023C12.8012 57.3659 12.5384 57.8141 12.2139 58.2313Z" stroke="#121212" stroke-width="1.4"/>
</g>
<g filter="url(#filter6_i_810_270)">
<path d="M68.5752 48.5266C67.7875 48.5266 67.0412 48.6979 66.3624 48.9964L58.5462 38.4099L66.5676 27.5506C67.1917 27.7955 67.8654 27.9415 68.5752 27.9415C71.6224 27.9415 74.1022 25.4617 74.1022 22.4145C74.1022 19.3672 71.6224 16.8875 68.5752 16.8875C65.7928 16.8875 63.507 18.962 63.1265 21.641H46.1655L38.9185 11.8255C41.2432 11.1726 42.9626 9.05731 42.9626 6.527C42.9626 3.47975 40.4829 1 37.4356 1C34.3884 1 31.9086 3.47975 31.9086 6.527C31.9086 9.1275 33.7205 11.2999 36.1441 11.885L28.9414 21.641H11.9757C11.5952 18.962 9.30936 16.8875 6.527 16.8875C3.47975 16.8875 1 19.3672 1 22.4145C1 25.4617 3.47975 27.9415 6.527 27.9415C7.23825 27.9415 7.91365 27.7951 8.53887 27.5491L16.5611 38.4095L8.74357 48.9983C8.06383 48.699 7.31617 48.5266 6.527 48.5266C3.47975 48.5266 1 51.0064 1 54.0536C1 57.1008 3.47975 59.5806 6.527 59.5806C9.18938 59.5806 11.4176 57.6872 11.9382 55.1765H28.9219L36.2067 66.0956C33.7509 66.6576 31.9086 68.8502 31.9086 71.4738C31.9086 74.521 34.3884 77 37.4356 77C40.4829 77 42.9626 74.521 42.9626 71.4738C42.9626 68.9219 41.2147 66.7889 38.8596 66.1562L46.1834 55.1765H63.164C63.6845 57.6872 65.9128 59.5806 68.5752 59.5806C71.6224 59.5806 74.1022 57.1008 74.1022 54.0536C74.1022 51.0064 71.6224 48.5266 68.5752 48.5266ZM63.1263 23.1865C63.3331 24.6458 64.103 25.9136 65.2191 26.7748L57.5861 37.1092L47.3065 23.1865H63.1263ZM29.7251 53.631L18.4824 38.4099L29.7219 23.1865H45.385L56.625 38.4101L45.3826 53.631H29.7251ZM37.5534 12.5792L44.244 21.641H30.8631L37.5534 12.5792ZM9.88629 26.7722C11.0005 25.9109 11.7691 24.6443 11.9759 23.1865H27.8004L17.5214 37.1089L9.88629 26.7722ZM10.05 49.831L17.5221 39.7105L27.8049 53.631H12.0114C11.8931 52.1036 11.1609 50.7594 10.05 49.831ZM37.5534 65.3295L30.7786 55.1765H44.327L37.5534 65.3295ZM63.0908 53.631H47.3028L57.5853 39.7105L65.0555 49.8284C63.943 50.7568 63.2093 52.1021 63.0908 53.631Z" stroke="#121212" stroke-width="1.4"/>
</g>
<g filter="url(#filter7_i_810_270)">
<path d="M41.3524 37.6357C41.185 32.171 39.2762 28.4238 37.5511 28.4238C35.8265 28.4238 33.9178 32.171 33.7505 37.6357H41.3524Z" stroke="#121212" stroke-width="1.4"/>
</g>
<g filter="url(#filter8_i_810_270)">
<path d="M47.4965 37.6361C47.1826 33.5637 44.4211 30.1722 40.6798 28.9336C41.9601 30.847 42.7938 33.9546 42.8973 37.6361H47.4965Z" stroke="#121212" stroke-width="1.4"/>
</g>
<g filter="url(#filter9_i_810_270)">
<path d="M27.6057 39.1816C27.9196 43.2541 30.6816 46.6462 34.4231 47.8846C33.1428 45.9712 32.3091 42.8635 32.2056 39.1816H27.6057Z" stroke="#121212" stroke-width="1.4"/>
</g>
<g filter="url(#filter10_i_810_270)">
<path d="M33.7505 39.1816C33.9178 44.6464 35.8265 48.3936 37.5511 48.3936C39.2762 48.3936 41.185 44.6464 41.3524 39.1816H33.7505Z" stroke="#121212" stroke-width="1.4"/>
</g>
<g filter="url(#filter11_i_810_270)">
<path d="M34.4231 28.9336C30.6816 30.172 27.9196 33.5641 27.6057 37.6365H32.2056C32.3091 33.9546 33.1428 30.847 34.4231 28.9336Z" stroke="#121212" stroke-width="1.4"/>
</g>
<g filter="url(#filter12_i_810_270)">
<path d="M40.6798 47.8842C44.4211 46.6456 47.1826 43.2541 47.4965 39.1816H42.8973C42.7938 42.8632 41.9601 45.9708 40.6798 47.8842Z" stroke="#121212" stroke-width="1.4"/>
</g>
<defs>
<filter id="filter0_i_810_270" x="42.3356" y="55.9094" width="21.5737" height="18.0145" filterUnits="userSpaceOnUse" color-interpolation-filters="sRGB">
<feFlood flood-opacity="0" result="BackgroundImageFix"/>
<feBlend mode="normal" in="SourceGraphic" in2="BackgroundImageFix" result="shape"/>
<feColorMatrix in="SourceAlpha" type="matrix" values="0 0 0 0 0 0 0 0 0 0 0 0 0 0 0 0 0 0 127 0" result="hardAlpha"/>
<feOffset dy="4"/>
<feGaussianBlur stdDeviation="2"/>
<feComposite in2="hardAlpha" operator="arithmetic" k2="-1" k3="1"/>
<feColorMatrix type="matrix" values="0 0 0 0 0 0 0 0 0 0 0 0 0 0 0 0 0 0 0.25 0"/>
<feBlend mode="normal" in2="shape" result="effect1_innerShadow_810_270"/>
</filter>
<filter id="filter1_i_810_270" x="11.4618" y="8.12109" width="21.1081" height="16.8044" filterUnits="userSpaceOnUse" color-interpolation-filters="sRGB">
<feFlood flood-opacity="0" result="BackgroundImageFix"/>
<feBlend mode="normal" in="SourceGraphic" in2="BackgroundImageFix" result="shape"/>
<feColorMatrix in="SourceAlpha" type="matrix" values="0 0 0 0 0 0 0 0 0 0 0 0 0 0 0 0 0 0 127 0" result="hardAlpha"/>
<feOffset dy="4"/>
<feGaussianBlur stdDeviation="2"/>
<feComposite in2="hardAlpha" operator="arithmetic" k2="-1" k3="1"/>
<feColorMatrix type="matrix" values="0 0 0 0 0 0 0 0 0 0 0 0 0 0 0 0 0 0 0.25 0"/>
<feBlend mode="normal" in2="shape" result="effect1_innerShadow_810_270"/>
</filter>
<filter id="filter2_i_810_270" x="67.0903" y="28.6524" width="2.9456" height="23.1613" filterUnits="userSpaceOnUse" color-interpolation-filters="sRGB">
<feFlood flood-opacity="0" result="BackgroundImageFix"/>
<feBlend mode="normal" in="SourceGraphic" in2="BackgroundImageFix" result="shape"/>
<feColorMatrix in="SourceAlpha" type="matrix" values="0 0 0 0 0 0 0 0 0 0 0 0 0 0 0 0 0 0 127 0" result="hardAlpha"/>
<feOffset dy="4"/>
<feGaussianBlur stdDeviation="2"/>
<feComposite in2="hardAlpha" operator="arithmetic" k2="-1" k3="1"/>
<feColorMatrix type="matrix" values="0 0 0 0 0 0 0 0 0 0 0 0 0 0 0 0 0 0 0.25 0"/>
<feBlend mode="normal" in2="shape" result="effect1_innerShadow_810_270"/>
</filter>
<filter id="filter3_i_810_270" x="42.3653" y="8.02954" width="21.2959" height="16.8969" filterUnits="userSpaceOnUse" color-interpolation-filters="sRGB">
<feFlood flood-opacity="0" result="BackgroundImageFix"/>
<feBlend mode="normal" in="SourceGraphic" in2="BackgroundImageFix" result="shape"/>
<feColorMatrix in="SourceAlpha" type="matrix" values="0 0 0 0 0 0 0 0 0 0 0 0 0 0 0 0 0 0 127 0" result="hardAlpha"/>
<feOffset dy="4"/>
<feGaussianBlur stdDeviation="2"/>
<feComposite in2="hardAlpha" operator="arithmetic" k2="-1" k3="1"/>
<feColorMatrix type="matrix" values="0 0 0 0 0 0 0 0 0 0 0 0 0 0 0 0 0 0 0.25 0"/>
<feBlend mode="normal" in2="shape" result="effect1_innerShadow_810_270"/>
</filter>
<filter id="filter4_i_810_270" x="5.05367" y="28.7106" width="2.9455" height="23.0413" filterUnits="userSpaceOnUse" color-interpolation-filters="sRGB">
<feFlood flood-opacity="0" result="BackgroundImageFix"/>
<feBlend mode="normal" in="SourceGraphic" in2="BackgroundImageFix" result="shape"/>
<feColorMatrix in="SourceAlpha" type="matrix" values="0 0 0 0 0 0 0 0 0 0 0 0 0 0 0 0 0 0 127 0" result="hardAlpha"/>
<feOffset dy="4"/>
<feGaussianBlur stdDeviation="2"/>
<feComposite in2="hardAlpha" operator="arithmetic" k2="-1" k3="1"/>
<feColorMatrix type="matrix" values="0 0 0 0 0 0 0 0 0 0 0 0 0 0 0 0 0 0 0.25 0"/>
<feBlend mode="normal" in2="shape" result="effect1_innerShadow_810_270"/>
</filter>
<filter id="filter5_i_810_270" x="11.1639" y="55.909" width="21.4462" height="17.8911" filterUnits="userSpaceOnUse" color-interpolation-filters="sRGB">
<feFlood flood-opacity="0" result="BackgroundImageFix"/>
<feBlend mode="normal" in="SourceGraphic" in2="BackgroundImageFix" result="shape"/>
<feColorMatrix in="SourceAlpha" type="matrix" values="0 0 0 0 0 0 0 0 0 0 0 0 0 0 0 0 0 0 127 0" result="hardAlpha"/>
<feOffset dy="4"/>
<feGaussianBlur stdDeviation="2"/>
<feComposite in2="hardAlpha" operator="arithmetic" k2="-1" k3="1"/>
<feColorMatrix type="matrix" values="0 0 0 0 0 0 0 0 0 0 0 0 0 0 0 0 0 0 0.25 0"/>
<feBlend mode="normal" in2="shape" result="effect1_innerShadow_810_270"/>
</filter>
<filter id="filter6_i_810_270" x="0.300003" y="0.299988" width="74.5022" height="81.4" filterUnits="userSpaceOnUse" color-interpolation-filters="sRGB">
<feFlood flood-opacity="0" result="BackgroundImageFix"/>
<feBlend mode="normal" in="SourceGraphic" in2="BackgroundImageFix" result="shape"/>
<feColorMatrix in="SourceAlpha" type="matrix" values="0 0 0 0 0 0 0 0 0 0 0 0 0 0 0 0 0 0 127 0" result="hardAlpha"/>
<feOffset dy="4"/>
<feGaussianBlur stdDeviation="2"/>
<feComposite in2="hardAlpha" operator="arithmetic" k2="-1" k3="1"/>
<feColorMatrix type="matrix" values="0 0 0 0 0 0 0 0 0 0 0 0 0 0 0 0 0 0 0.25 0"/>
<feBlend mode="normal" in2="shape" result="effect1_innerShadow_810_270"/>
</filter>
<filter id="filter7_i_810_270" x="33.0287" y="27.7238" width="9.04543" height="14.6119" filterUnits="userSpaceOnUse" color-interpolation-filters="sRGB">
<feFlood flood-opacity="0" result="BackgroundImageFix"/>
<feBlend mode="normal" in="SourceGraphic" in2="BackgroundImageFix" result="shape"/>
<feColorMatrix in="SourceAlpha" type="matrix" values="0 0 0 0 0 0 0 0 0 0 0 0 0 0 0 0 0 0 127 0" result="hardAlpha"/>
<feOffset dy="4"/>
<feGaussianBlur stdDeviation="2"/>
<feComposite in2="hardAlpha" operator="arithmetic" k2="-1" k3="1"/>
<feColorMatrix type="matrix" values="0 0 0 0 0 0 0 0 0 0 0 0 0 0 0 0 0 0 0.25 0"/>
<feBlend mode="normal" in2="shape" result="effect1_innerShadow_810_270"/>
</filter>
<filter id="filter8_i_810_270" x="38.9641" y="27.6282" width="9.28844" height="14.7079" filterUnits="userSpaceOnUse" color-interpolation-filters="sRGB">
<feFlood flood-opacity="0" result="BackgroundImageFix"/>
<feBlend mode="normal" in="SourceGraphic" in2="BackgroundImageFix" result="shape"/>
<feColorMatrix in="SourceAlpha" type="matrix" values="0 0 0 0 0 0 0 0 0 0 0 0 0 0 0 0 0 0 127 0" result="hardAlpha"/>
<feOffset dy="4"/>
<feGaussianBlur stdDeviation="2"/>
<feComposite in2="hardAlpha" operator="arithmetic" k2="-1" k3="1"/>
<feColorMatrix type="matrix" values="0 0 0 0 0 0 0 0 0 0 0 0 0 0 0 0 0 0 0.25 0"/>
<feBlend mode="normal" in2="shape" result="effect1_innerShadow_810_270"/>
</filter>
<filter id="filter9_i_810_270" x="26.8497" y="38.4816" width="9.28902" height="14.7082" filterUnits="userSpaceOnUse" color-interpolation-filters="sRGB">
<feFlood flood-opacity="0" result="BackgroundImageFix"/>
<feBlend mode="normal" in="SourceGraphic" in2="BackgroundImageFix" result="shape"/>
<feColorMatrix in="SourceAlpha" type="matrix" values="0 0 0 0 0 0 0 0 0 0 0 0 0 0 0 0 0 0 127 0" result="hardAlpha"/>
<feOffset dy="4"/>
<feGaussianBlur stdDeviation="2"/>
<feComposite in2="hardAlpha" operator="arithmetic" k2="-1" k3="1"/>
<feColorMatrix type="matrix" values="0 0 0 0 0 0 0 0 0 0 0 0 0 0 0 0 0 0 0.25 0"/>
<feBlend mode="normal" in2="shape" result="effect1_innerShadow_810_270"/>
</filter>
<filter id="filter10_i_810_270" x="33.0287" y="38.4816" width="9.04543" height="14.612" filterUnits="userSpaceOnUse" color-interpolation-filters="sRGB">
<feFlood flood-opacity="0" result="BackgroundImageFix"/>
<feBlend mode="normal" in="SourceGraphic" in2="BackgroundImageFix" result="shape"/>
<feColorMatrix in="SourceAlpha" type="matrix" values="0 0 0 0 0 0 0 0 0 0 0 0 0 0 0 0 0 0 127 0" result="hardAlpha"/>
<feOffset dy="4"/>
<feGaussianBlur stdDeviation="2"/>
<feComposite in2="hardAlpha" operator="arithmetic" k2="-1" k3="1"/>
<feColorMatrix type="matrix" values="0 0 0 0 0 0 0 0 0 0 0 0 0 0 0 0 0 0 0.25 0"/>
<feBlend mode="normal" in2="shape" result="effect1_innerShadow_810_270"/>
</filter>
<filter id="filter11_i_810_270" x="26.8497" y="27.6284" width="9.28902" height="14.7081" filterUnits="userSpaceOnUse" color-interpolation-filters="sRGB">
<feFlood flood-opacity="0" result="BackgroundImageFix"/>
<feBlend mode="normal" in="SourceGraphic" in2="BackgroundImageFix" result="shape"/>
<feColorMatrix in="SourceAlpha" type="matrix" values="0 0 0 0 0 0 0 0 0 0 0 0 0 0 0 0 0 0 127 0" result="hardAlpha"/>
<feOffset dy="4"/>
<feGaussianBlur stdDeviation="2"/>
<feComposite in2="hardAlpha" operator="arithmetic" k2="-1" k3="1"/>
<feColorMatrix type="matrix" values="0 0 0 0 0 0 0 0 0 0 0 0 0 0 0 0 0 0 0.25 0"/>
<feBlend mode="normal" in2="shape" result="effect1_innerShadow_810_270"/>
</filter>
<filter id="filter12_i_810_270" x="38.9641" y="38.4816" width="9.28842" height="14.708" filterUnits="userSpaceOnUse" color-interpolation-filters="sRGB">
<feFlood flood-opacity="0" result="BackgroundImageFix"/>
<feBlend mode="normal" in="SourceGraphic" in2="BackgroundImageFix" result="shape"/>
<feColorMatrix in="SourceAlpha" type="matrix" values="0 0 0 0 0 0 0 0 0 0 0 0 0 0 0 0 0 0 127 0" result="hardAlpha"/>
<feOffset dy="4"/>
<feGaussianBlur stdDeviation="2"/>
<feComposite in2="hardAlpha" operator="arithmetic" k2="-1" k3="1"/>
<feColorMatrix type="matrix" values="0 0 0 0 0 0 0 0 0 0 0 0 0 0 0 0 0 0 0.25 0"/>
<feBlend mode="normal" in2="shape" result="effect1_innerShadow_810_270"/>
</filter>
</defs>
</svg>
