<svg width="40" height="40" viewBox="0 0 40 40" fill="none" xmlns="http://www.w3.org/2000/svg">
<path d="M36.745 32.2904V31.5725C36.745 30.2297 35.6559 29.1404 34.3131 29.1404H20.6188V26.5044C27.427 26.2881 34.5019 22.1418 39.3503 17.3582C39.3627 17.3458 39.3688 17.3398 39.375 17.3274C40.0619 16.5723 40.0619 15.4398 39.3503 14.6663C34.3783 9.80104 27.0174 5.50195 20.0062 5.50195C20.0062 5.50195 20.0062 5.50195 20 5.50195C20 5.50195 20 5.50195 19.9938 5.50195C11.0581 5.508 3.5334 11.8632 0.711574 14.5983C-0.0663652 15.3514 -0.0978931 16.6361 0.717769 17.4265C3.47153 20.0997 10.724 26.2258 19.3812 26.5105V29.1404H5.68685C4.34408 29.1404 3.25496 30.2297 3.25496 31.5725V32.2904C1.41091 32.5811 0 34.1776 0 36.1021C0 38.2371 1.73883 39.976 3.87377 39.976C6.00865 39.976 7.74755 38.2371 7.74755 36.1021C7.74755 34.1776 6.33664 32.5811 4.49259 32.2904V31.5725C4.49259 30.9101 5.03088 30.3781 5.68685 30.3781H19.3812V32.2904C17.5371 32.5811 16.1262 34.1776 16.1262 36.1021C16.1262 38.2371 17.8651 39.976 20 39.976C22.135 39.976 23.8738 38.2371 23.8738 36.1021C23.8738 34.1776 22.4629 32.5811 20.6188 32.2904V30.3781H34.3131C34.9753 30.3781 35.5074 30.9101 35.5074 31.5725V32.2904C33.6634 32.5811 32.2586 34.1776 32.2586 36.1021C32.2586 38.2371 33.9914 39.976 36.1262 39.976C38.2612 39.976 40 38.2371 40 36.1021C40 34.1776 38.5892 32.5811 36.745 32.2904ZM6.50992 36.1021C6.50992 37.5563 5.32797 38.7384 3.87377 38.7384C2.4195 38.7384 1.23763 37.5563 1.23763 36.1021C1.23763 34.6421 2.43116 33.4721 3.87377 33.4721C5.31631 33.4721 6.50992 34.6421 6.50992 36.1021ZM1.57793 16.5415C1.28816 16.2517 1.27311 15.7881 1.57793 15.4833C3.5334 13.5897 7.83412 9.88924 13.2611 7.96482C10.9592 9.89528 9.49257 12.7854 9.49257 16.0094C9.49257 19.2458 10.9715 22.1416 13.2797 24.0724C7.84651 22.148 3.5334 18.4351 1.57793 16.5415ZM22.6361 36.1021C22.6361 37.5563 21.4542 38.7384 20 38.7384C18.5458 38.7384 17.3639 37.5563 17.3639 36.1021C17.3639 34.6421 18.5574 33.4721 20 33.4721C21.4426 33.4721 22.6361 34.6421 22.6361 36.1021ZM20 25.2792C14.9183 25.2792 10.7302 21.1471 10.7302 16.0094C10.7302 10.9042 14.8886 6.74562 19.9938 6.73958H20C25.1114 6.74562 29.2698 10.9042 29.2698 16.0094C29.2698 21.1509 25.0779 25.2792 20 25.2792ZM36.1262 38.7384C34.6783 38.7384 33.4963 37.5563 33.4963 36.1021C33.4963 34.6302 34.7109 33.4721 36.1262 33.4721C37.5689 33.4721 38.7624 34.6421 38.7624 36.1021C38.7624 37.5563 37.5805 38.7384 36.1262 38.7384Z" fill="white"/>
<path d="M18.5406 15.1018C18.6088 14.9785 18.7015 14.8667 18.8067 14.7676C18.683 14.8419 18.584 14.9597 18.5406 15.1018Z" fill="white"/>
<path d="M26.4542 14.5499L25.8663 14.4321C25.7302 13.9184 25.5198 13.4174 25.2414 12.947L25.5693 12.452C25.792 12.1302 25.7426 11.7033 25.4764 11.4371L24.5482 10.5149C24.2822 10.2366 23.8551 10.1995 23.5334 10.4098L23.0322 10.744C22.5557 10.4717 22.0482 10.2614 21.5346 10.1315L21.4232 9.56193C21.3552 9.18453 21.021 8.90625 20.6374 8.90625H19.3255C18.9356 8.90625 18.6014 9.18453 18.5334 9.55588L18.422 10.1375C17.9022 10.2798 17.4009 10.4841 16.9245 10.7627L16.4356 10.4409C16.12 10.2242 15.693 10.2675 15.4269 10.5337L14.4987 11.4619C14.2265 11.7278 14.1831 12.155 14.3997 12.4768L14.7339 12.9781C14.4554 13.4606 14.2512 13.9619 14.1212 14.4692L13.5395 14.5807C13.1559 14.6671 12.896 14.9892 12.896 15.3727V16.6846C12.896 17.0744 13.1683 17.4086 13.5457 17.4766L14.1274 17.5881C14.2635 18.1081 14.4739 18.603 14.7524 19.0795L14.4183 19.5684C14.2079 19.8902 14.2512 20.3108 14.5173 20.577L15.4517 21.5115C15.7115 21.7835 16.1386 21.827 16.4666 21.6103L16.9678 21.2762C17.4319 21.5484 17.9331 21.7527 18.4591 21.8889L18.5705 22.4766C18.6509 22.8543 18.9789 23.1142 19.3626 23.1142H20.6744C21.0582 23.1142 21.3923 22.8419 21.4665 22.4642L21.5779 21.8765C22.0977 21.7403 22.599 21.53 23.0631 21.2577L23.5581 21.5856C23.8799 21.8022 24.3069 21.759 24.5668 21.4868L25.495 20.5646C25.7735 20.2984 25.8168 19.8714 25.6002 19.5436L25.2661 19.0423C25.5384 18.5782 25.7426 18.0706 25.8787 17.5449L26.4542 17.4397C26.8317 17.3654 27.1039 17.0312 27.1039 16.6475V15.3418C27.1039 14.9521 26.8317 14.6179 26.4542 14.5499ZM20 19.6116C18.0136 19.6116 16.3985 18.0026 16.3985 16.0102C16.3985 14.0238 18.0136 12.4149 20 12.4149C21.9864 12.4149 23.5952 14.0238 23.5952 16.0102C23.5952 18.0026 21.9864 19.6116 20 19.6116Z" fill="white"/>
<path d="M20.0012 17.7401C20.954 17.7401 21.7275 16.9666 21.7275 16.0136C21.7275 15.0606 20.954 14.2871 20.0012 14.2871C19.5371 14.2871 19.1162 14.4666 18.8068 14.7693C18.9121 14.7017 19.0358 14.6642 19.1657 14.6642C19.5371 14.6642 19.8403 14.9676 19.8403 15.3386C19.8403 15.7103 19.5371 16.0136 19.1657 16.0136C18.7944 16.0136 18.4912 15.7103 18.4912 15.3386C18.4912 15.2582 18.5035 15.1779 18.5407 15.1035C18.3674 15.3634 18.2747 15.6794 18.2747 16.0136C18.2747 16.9666 19.0482 17.7401 20.0012 17.7401Z" fill="white"/>
<path d="M19.3822 0.640297V2.71489C19.3822 3.05663 19.6593 3.3337 20.001 3.3337C20.3428 3.3337 20.6198 3.05663 20.6198 2.71489V0.640297C20.6198 0.29856 20.3428 0.0214844 20.001 0.0214844C19.6593 0.0214844 19.3822 0.29856 19.3822 0.640297Z" fill="white"/>
<path d="M12.0051 2.16329C11.709 2.33401 11.6078 2.71261 11.7785 3.00842L12.8158 4.80503C12.9869 5.10131 13.3652 5.20263 13.6612 5.03165C13.9573 4.86063 14.0586 4.48233 13.8878 4.18622L12.8505 2.38961C12.6792 2.0938 12.3003 1.99197 12.0051 2.16329Z" fill="white"/>
<path d="M27.1511 2.38961L26.1138 4.18622C25.9431 4.48233 26.0443 4.86063 26.3404 5.03165C26.6374 5.20267 27.015 5.10097 27.1859 4.80503L28.2232 3.00842C28.3939 2.71261 28.2927 2.33401 27.9965 2.16329C27.6998 1.99197 27.3218 2.0938 27.1511 2.38961Z" fill="white"/>
</svg>
