<svg width="40" height="40" viewBox="0 0 40 40" fill="none" xmlns="http://www.w3.org/2000/svg">
<path d="M6.89661 26.207H8.27592V40.0001H6.89661V26.207Z" fill="white"/>
<path d="M8.96557 16.5508C7.82488 16.5508 6.89661 17.4791 6.89661 18.6197V19.3094H11.0345V18.6197C11.0345 17.4791 10.1063 16.5508 8.96557 16.5508Z" fill="white"/>
<path d="M26.2069 22.7581V15.8616C26.2069 14.7209 25.2786 13.7926 24.1379 13.7926H2.06897C1.2931 13.7926 0.576552 13.5347 0 13.1016V22.7581C0 23.8988 0.928276 24.8271 2.06897 24.8271H24.1379C25.2786 24.8271 26.2069 23.8988 26.2069 22.7581ZM12.4138 23.4478H11.0345V20.6891H6.89655V23.4478H5.51724V18.6202C5.51724 16.7188 7.06414 15.1719 8.96552 15.1719C10.8669 15.1719 12.4138 16.7188 12.4138 18.6202V23.4478ZM20.6897 16.5512H17.931V22.0685H20.6897V23.4478H13.7931V22.0685H16.5517V16.5512H13.7931V15.1719H20.6897V16.5512Z" fill="white"/>
<path d="M4.13794 26.207H5.51725V40.0001H4.13794V26.207Z" fill="white"/>
<path d="M33.1034 0.974609V6.89599H39.0248L33.1034 0.974609Z" fill="white"/>
<path d="M4.13794 0H5.51725V12.4138H4.13794V0Z" fill="white"/>
<path d="M6.89661 0H8.27592V12.4138H6.89661V0Z" fill="white"/>
<path d="M31.7241 8.27586V0H9.65515V12.4138H24.1379C26.0393 12.4138 27.5862 13.9607 27.5862 15.8621V22.7586C27.5862 24.66 26.0393 26.2069 24.1379 26.2069H9.65515V31.7241H18.3352L22.4731 27.5862H25.6441C25.9296 26.7855 26.6883 26.2069 27.5862 26.2069C28.7269 26.2069 29.6552 27.1352 29.6552 28.2759C29.6552 29.4166 28.7269 30.3448 27.5862 30.3448C26.6883 30.3448 25.9296 29.7662 25.6441 28.9655H23.0441L20.2855 31.7241H32.4138V29.229L38.7834 32.4138L32.4138 35.5986V33.1034H17.5269L20.2855 35.8621H24.2648C24.5503 35.0614 25.3089 34.4828 26.2069 34.4828C27.3476 34.4828 28.2758 35.411 28.2758 36.5517C28.2758 37.6924 27.3476 38.6207 26.2069 38.6207C25.3089 38.6207 24.5503 38.0421 24.2648 37.2414H19.7145L15.5765 33.1034H9.65515V40H40V8.27586H31.7241ZM34.4827 9.65517H35.862V11.0345H34.4827V9.65517ZM31.7241 9.65517H33.1034V11.0345H31.7241V9.65517ZM22.7586 2.06897H25.5172V4.82759H22.7586V2.06897ZM17.2414 2.06897H20V4.82759H17.2414V2.06897ZM11.7241 2.06897H14.4827V4.82759H11.7241V2.06897ZM11.0345 6.89655H30.3448V8.27586H11.0345V6.89655ZM11.0345 11.0345V9.65517H30.3448V11.0345H11.0345ZM37.931 24.1379H29.6552V13.1034H37.931V24.1379ZM38.6207 11.0345H37.2414V9.65517H38.6207V11.0345Z" fill="white"/>
<path d="M2.06897 12.4133H2.75862V8.27539H2.06897C0.928276 8.27539 0 9.20367 0 10.3444C0 11.485 0.928276 12.4133 2.06897 12.4133Z" fill="white"/>
</svg>
