<svg width="40" height="40" viewBox="0 0 40 40" fill="none" xmlns="http://www.w3.org/2000/svg">
<path fill-rule="evenodd" clip-rule="evenodd" d="M15.9234 14.878H24.0775C24.6561 14.878 25.1282 15.3502 25.1282 15.9255V24.0713C25.1282 24.649 24.6561 25.1212 24.0775 25.1212H15.9234C15.3448 25.1212 14.8726 24.649 14.8726 24.0713V15.9255C14.8726 15.3502 15.3448 14.878 15.9234 14.878ZM1.81886 0.0253906H15.9508C16.9525 0.0253906 17.7721 0.844211 17.7721 1.84176V13.7126H15.9225C14.7014 13.7126 13.7046 14.7085 13.7046 15.9255V17.7751H1.81886C0.819652 17.7751 0 16.9563 0 15.9562V1.84176C0 0.844211 0.819652 0.0253906 1.81886 0.0253906ZM12.7902 10.2328C12.7902 9.90943 13.0521 9.65006 13.3738 9.65006C13.6955 9.65006 13.9574 9.90943 13.9574 10.2328V13.3826C13.9574 13.4815 13.9341 13.5738 13.8909 13.6536C13.8859 13.6627 13.8817 13.6702 13.8767 13.6793L13.8692 13.691L13.8618 13.7026H13.8593L13.8518 13.7142V13.7167L13.8443 13.7259L13.8418 13.7284C13.8086 13.7758 13.7662 13.8157 13.7188 13.8514L13.7163 13.8539L13.7071 13.8605H13.7046L13.6955 13.868L13.693 13.8705L13.6814 13.8772L13.6697 13.8847C13.6606 13.8896 13.6531 13.8938 13.644 13.8988C13.5633 13.9412 13.4719 13.9645 13.3721 13.9645H10.219C9.89567 13.9645 9.63548 13.7051 9.63548 13.3817C9.63548 13.0584 9.89567 12.799 10.219 12.799H11.9648L4.97776 5.82281V7.56602C4.97776 7.8869 4.71757 8.14875 4.39669 8.14875C4.07581 8.14875 3.81313 7.8869 3.81313 7.56602V4.41626C3.81313 4.31734 3.8364 4.22507 3.87963 4.14526C3.88462 4.13612 3.88877 4.12864 3.89376 4.11949L3.90124 4.10785V4.10536L3.90872 4.09622L3.91122 4.09372L3.91621 4.08458L3.9187 4.08208L3.92618 4.07294L3.92868 4.07045C3.96193 4.02306 4.00432 3.98067 4.05171 3.94742L4.0542 3.94492L4.06334 3.93744L4.06584 3.93495L4.07498 3.9283H4.07748L4.08662 3.92081H4.08911L4.10075 3.91416C4.1099 3.90918 4.11738 3.90502 4.12652 3.90003C4.20716 3.85764 4.2986 3.83436 4.39835 3.83436H7.55144C7.87231 3.83436 8.135 4.09372 8.135 4.41709C8.135 4.74047 7.87314 4.99733 7.55144 4.99733H5.80573L12.7902 11.9752V10.232V10.2328ZM13.7046 22.2242H1.81886C0.819652 22.2242 0 23.043 0 24.0405V38.155C0 39.155 0.819652 39.9739 1.81886 39.9739H15.9508C16.9525 39.9739 17.7721 39.155 17.7721 38.155V26.2867H15.9225C14.7014 26.2867 13.7046 25.2891 13.7046 24.0713V22.2242ZM4.97943 32.4316C4.97943 32.1082 4.71923 31.8488 4.39835 31.8488C4.07748 31.8488 3.81479 32.1082 3.81479 32.4316V35.5805C3.81479 35.6794 3.83806 35.7717 3.88129 35.8515C3.88628 35.8606 3.89044 35.8681 3.89542 35.8773L3.90291 35.8889L3.91039 35.9005H3.91288L3.91787 35.9122L3.92036 35.9147L3.92784 35.9238H3.93034C3.96359 35.9737 4.00599 36.0136 4.05337 36.0485L4.05586 36.051L4.06501 36.0576H4.0675L4.07664 36.0651L4.07914 36.0676L4.08828 36.0743H4.09078L4.10242 36.0818C4.11156 36.0867 4.11904 36.0909 4.12818 36.0959C4.20882 36.1383 4.30026 36.1616 4.40002 36.1616H7.5531C7.87398 36.1616 8.13666 35.9022 8.13666 35.5788C8.13666 35.2554 7.87481 34.9961 7.5531 34.9961H5.80739L12.7919 28.0199V29.7631C12.7919 30.084 13.0537 30.3459 13.3755 30.3459C13.6972 30.3459 13.959 30.084 13.959 29.7631V26.6117C13.959 26.5153 13.9357 26.423 13.8925 26.3432C13.8875 26.334 13.8834 26.3241 13.8784 26.3174L13.8709 26.3058V26.3033L13.8634 26.2941L13.8609 26.2917L13.8534 26.2825V26.28L13.846 26.2709L13.8435 26.2684C13.8102 26.221 13.7678 26.1786 13.7204 26.1437H13.7179L13.7088 26.1362L13.7063 26.1337L13.6972 26.1271H13.6947L13.683 26.1196L13.6714 26.1129C13.6622 26.1079 13.6548 26.1038 13.6456 26.0988C13.565 26.0564 13.4735 26.0306 13.3738 26.0306H10.2207C9.89734 26.0306 9.63714 26.2925 9.63714 26.6134C9.63714 26.9342 9.89734 27.1961 10.2207 27.1961H11.9664L4.97943 34.1739V32.4307V32.4316ZM26.2945 22.2242H38.1778C39.1795 22.2242 39.9992 23.043 39.9992 24.0405V38.155C39.9992 39.155 39.1795 39.9739 38.1778 39.9739H24.0459C23.0467 39.9739 22.227 39.155 22.227 38.155V26.2867H24.0766C25.2953 26.2867 26.2945 25.2891 26.2945 24.0713V22.2242ZM35.0172 32.4316C35.0172 32.1082 35.2791 31.8488 35.6008 31.8488C35.9225 31.8488 36.1844 32.1082 36.1844 32.4316V35.5805C36.1844 35.6794 36.1611 35.7717 36.1179 35.8515C36.1129 35.8606 36.1087 35.8681 36.1037 35.8773L36.0963 35.8889L36.0888 35.9005H36.0863L36.0788 35.9122V35.9147L36.0713 35.9238H36.0688C36.0331 35.9737 35.9932 36.0136 35.9458 36.0485L35.9433 36.051L35.9342 36.0576H35.9317L35.92 36.0651V36.0676L35.9084 36.0743L35.8968 36.0818C35.8876 36.0867 35.8801 36.0909 35.871 36.0959C35.7903 36.1383 35.6989 36.1616 35.5992 36.1616H32.4461C32.1227 36.1616 31.8625 35.9022 31.8625 35.5788C31.8625 35.2554 32.1227 34.9961 32.4461 34.9961H34.1918L27.2048 28.0199V29.7631C27.2048 30.084 26.9446 30.3459 26.6212 30.3459C26.2979 30.3459 26.0402 30.084 26.0402 29.7631V26.6117C26.0402 26.5153 26.0634 26.423 26.1067 26.3432C26.1116 26.334 26.1158 26.3241 26.1208 26.3174L26.1283 26.3058V26.3033L26.1357 26.2941V26.2917L26.1432 26.2825L26.1457 26.28L26.1532 26.2709V26.2684C26.189 26.221 26.2313 26.1786 26.2787 26.1437H26.2812L26.2904 26.1362L26.2929 26.1337L26.302 26.1271H26.3045L26.3136 26.1196H26.3161L26.3278 26.1129C26.3353 26.1079 26.3444 26.1038 26.3535 26.0988C26.4342 26.0564 26.5256 26.0306 26.6229 26.0306H29.7785C30.0993 26.0306 30.362 26.2925 30.362 26.6134C30.362 26.9342 30.1002 27.1961 29.7785 27.1961H28.0328L35.0172 34.1739V32.4307V32.4316ZM38.1786 0.0253906H24.0467C23.0475 0.0253906 22.2279 0.844211 22.2279 1.84176V13.7126H24.0775C25.2961 13.7126 26.2954 14.7085 26.2954 15.9255V17.7751H38.1786C39.1803 17.7751 40 16.9563 40 15.9562V1.84176C40 0.844211 39.1803 0.0253906 38.1786 0.0253906ZM27.2073 10.2328C27.2073 9.90943 26.9471 9.65006 26.6237 9.65006C26.3003 9.65006 26.0426 9.90943 26.0426 10.2328V13.3826C26.0426 13.4815 26.0659 13.5738 26.1091 13.6536C26.1141 13.6627 26.1183 13.6702 26.1233 13.6793L26.1308 13.691L26.1382 13.7026L26.1457 13.7142L26.1482 13.7167L26.1557 13.7259V13.7284C26.1914 13.7758 26.2338 13.8157 26.2812 13.8514L26.2837 13.8539L26.2929 13.8605H26.2954L26.3045 13.868L26.307 13.8705L26.3161 13.8772H26.3186L26.3303 13.8847C26.3378 13.8896 26.3469 13.8938 26.356 13.8988C26.4367 13.9412 26.5281 13.9645 26.6254 13.9645H29.781C30.1018 13.9645 30.3645 13.7051 30.3645 13.3817C30.3645 13.0584 30.1027 12.799 29.781 12.799H28.0352L35.0197 5.82281V7.56602C35.0197 7.8869 35.2816 8.14875 35.6033 8.14875C35.925 8.14875 36.1869 7.8869 36.1869 7.56602V4.41626C36.1869 4.31734 36.1636 4.22507 36.1204 4.14526C36.1154 4.13612 36.1112 4.12864 36.1062 4.11949L36.0988 4.10785V4.10536L36.0913 4.09622L36.0888 4.09372L36.0813 4.08458V4.08208L36.0738 4.07294L36.0713 4.07045C36.0356 4.02306 35.9957 3.98067 35.9483 3.94742L35.9458 3.94492L35.9367 3.93744L35.9342 3.93495L35.9225 3.9283L35.9109 3.92081L35.8992 3.91416C35.8901 3.90918 35.8826 3.90502 35.8735 3.90003C35.7928 3.85764 35.7014 3.83436 35.6016 3.83436H32.4486C32.1252 3.83436 31.865 4.09372 31.865 4.41709C31.865 4.74047 32.1252 4.99733 32.4486 4.99733H34.1943L27.2073 11.9752V10.232V10.2328Z" fill="white"/>
</svg>
