<svg width="76" height="76" viewBox="0 0 76 76" fill="none" xmlns="http://www.w3.org/2000/svg">
<g clip-path="url(#clip0_808_4)" filter="url(#filter0_i_808_4)">
<path d="M59.9303 22.3303L54.4154 27.8539C63.6078 37.0435 63.6078 52.0273 54.4154 61.2169C45.2143 70.4209 30.2419 70.4209 21.038 61.2169C11.8512 52.0302 11.8512 37.0435 21.038 27.8539L35.754 13.1379L37.5971 11.0356V0L15.2581 22.3303C12.3247 25.2366 9.99628 28.6952 8.40722 32.5065C6.81816 36.3178 6 40.4061 6 44.5354C6 48.6647 6.81816 52.753 8.40722 56.5643C9.99628 60.3755 12.3247 63.8342 15.2581 66.7404C18.1644 69.6742 21.6232 72.0031 25.4348 73.5924C29.2463 75.1817 33.335 76 37.4646 76C41.5942 76 45.6829 75.1817 49.4944 73.5924C53.306 72.0031 56.7648 69.6742 59.6711 66.7404C72.2819 54.3888 72.2819 34.4228 59.9303 22.3303Z" stroke="#121212" stroke-width="2"/>
<path d="M53.0993 16.5446C53.0706 17.6411 52.6148 18.683 51.8292 19.4484C51.0435 20.2137 49.9901 20.642 48.8932 20.642C47.7964 20.642 46.7429 20.2137 45.9573 19.4484C45.1716 18.683 44.7159 17.6411 44.6872 16.5446C44.6872 15.4291 45.1304 14.3593 45.9191 13.5705C46.7079 12.7818 47.7777 12.3386 48.8932 12.3386C50.0087 12.3386 51.0786 12.7818 51.8673 13.5705C52.6561 14.3593 53.0993 15.4291 53.0993 16.5446Z" stroke="#121212" stroke-width="2"/>
</g>
<defs>
<filter id="filter0_i_808_4" x="0" y="0" width="76" height="80" filterUnits="userSpaceOnUse" color-interpolation-filters="sRGB">
<feFlood flood-opacity="0" result="BackgroundImageFix"/>
<feBlend mode="normal" in="SourceGraphic" in2="BackgroundImageFix" result="shape"/>
<feColorMatrix in="SourceAlpha" type="matrix" values="0 0 0 0 0 0 0 0 0 0 0 0 0 0 0 0 0 0 127 0" result="hardAlpha"/>
<feOffset dy="4"/>
<feGaussianBlur stdDeviation="2"/>
<feComposite in2="hardAlpha" operator="arithmetic" k2="-1" k3="1"/>
<feColorMatrix type="matrix" values="0 0 0 0 0 0 0 0 0 0 0 0 0 0 0 0 0 0 0.25 0"/>
<feBlend mode="normal" in2="shape" result="effect1_innerShadow_808_4"/>
</filter>
<clipPath id="clip0_808_4">
<rect width="76" height="76" fill="white"/>
</clipPath>
</defs>
</svg>
