<svg width="152" height="152" viewBox="0 0 152 152" fill="none" xmlns="http://www.w3.org/2000/svg">
<path d="M128.949 19.2397C129.251 19.2519 129.538 19.3636 129.767 19.5552L129.861 19.6431C130.097 19.8823 130.233 20.1997 130.247 20.5337C130.228 20.824 130.116 21.0995 129.928 21.3198L129.839 21.4146C129.592 21.6523 129.263 21.7864 128.92 21.7915C128.626 21.7851 128.345 21.679 128.122 21.4917L128.029 21.4058L127.945 21.311C127.788 21.1141 127.693 20.8751 127.672 20.6245L127.667 20.4985C127.671 20.203 127.778 19.9194 127.968 19.6948L128.054 19.6021C128.294 19.3692 128.615 19.2393 128.949 19.2397Z" stroke="white" stroke-width="2"/>
<path d="M81.0312 19.4116C81.6535 19.4022 82.3468 19.6237 83.1572 20.1987L83.5117 20.4673L83.5146 20.4692C84.0787 20.9186 84.6156 21.4056 85.1963 21.9204C85.766 22.4255 86.3712 22.9505 87.0254 23.4263V23.4272C87.3907 23.6936 87.527 23.9194 87.5879 24.1147C87.639 24.279 87.6588 24.4925 87.626 24.7944L87.5752 25.1274L87.5742 25.1313C86.1641 32.635 87.2062 39.8705 90.8174 46.5786V46.5776C96.6413 57.4037 105.703 63.644 117.968 64.9155L118.555 64.9731H118.557C123.187 65.3804 127.85 64.7819 132.227 63.2192C132.595 63.0914 132.8 63.081 132.936 63.103C133.029 63.1183 133.15 63.1586 133.319 63.2778L133.505 63.4253C135.296 64.9948 137.097 66.5533 138.901 68.1069L144.316 72.7593C144.781 73.1598 145.088 73.4855 145.245 73.7983C145.357 74.0199 145.407 74.2568 145.31 74.5884L145.259 74.7368C145.087 75.1758 144.848 75.3804 144.572 75.5044C144.331 75.6128 144.025 75.6744 143.64 75.6997L143.227 75.7134C139.623 75.729 136.013 75.7134 132.203 75.7134H131.203V141.986H80.3154C80.0989 140.2 79.9374 138.339 79.5586 136.578L79.4668 136.17L79.4658 136.167L79.3516 135.719C78.1152 131.143 75.1968 127.927 70.373 126.611H70.374C64.6225 125.021 59.1513 122.554 54.1543 119.296L54.1328 119.282L54.1094 119.269L53.5391 118.949C52.9753 118.642 52.3997 118.357 51.8135 118.096C51.2205 117.798 50.9348 117.408 50.835 117.04C50.7464 116.713 50.7732 116.29 51.0264 115.797L51.1484 115.583V115.582C51.8927 114.392 52.5764 113.242 53.292 112.096L54.0225 110.951L54.0273 110.943C54.0852 110.852 54.1782 110.756 54.3809 110.564C54.5498 110.404 54.8302 110.148 55.0439 109.823L55.043 109.822C55.4456 109.228 55.8169 108.613 56.1533 107.98L56.4805 107.336L56.4863 107.324C56.7236 106.818 56.8946 106.28 57.043 105.841C57.2002 105.376 57.339 104.994 57.5264 104.66L57.5273 104.661C58.0647 103.703 58.4661 102.685 58.5312 101.605C58.5963 100.526 58.3192 99.4608 57.6436 98.4067C57.5256 98.1518 57.5057 97.8621 57.5898 97.5942L57.5928 97.5874L57.5947 97.5806C58.6363 94.0792 58.6625 90.8209 57.752 87.8071C56.8434 84.8 55.0225 82.1022 52.4717 79.6812H52.4707C49.3218 76.6919 45.8748 74.9987 42.1982 74.395C38.5335 73.7934 34.7019 74.2836 30.7842 75.562L30.7559 75.5708L30.7295 75.5815C30.4527 75.69 30.1612 75.7553 29.8652 75.7778C28.0731 75.7777 26.2824 75.7717 24.4912 75.7632L19.0742 75.7388H19.0713C18.4293 75.7388 17.9648 75.6918 17.6211 75.5503C17.3743 75.4486 17.1595 75.287 16.9941 74.9399L16.9258 74.7788C16.7538 74.3195 16.8093 74.0235 16.9443 73.7593C17.1116 73.432 17.4329 73.0959 17.9277 72.6714L17.9287 72.6724C22.94 68.376 27.8936 64.0506 32.9189 59.8071L35.0771 57.9937C35.8483 57.3499 36.4379 56.6542 36.8193 55.8228C37.1534 55.0945 37.3024 54.3164 37.3203 53.4644V53.0942C37.2734 49.8359 37.2646 46.5782 37.2686 43.3179L37.292 33.519V33.5181C37.292 32.973 37.2964 32.6414 37.3232 32.4126C37.3236 32.41 37.3239 32.4074 37.3242 32.4048C37.5357 32.3803 37.8434 32.3765 38.3525 32.3765C41.8227 32.3765 45.3186 32.4081 48.8096 32.3716L50.3047 32.3511C50.9186 32.3412 51.0361 32.4542 51.0303 32.4487C51.044 32.4685 51.1052 32.5784 51.1143 32.9243L51.1133 33.1313V33.1421C51.0596 35.9466 51.1162 38.7829 51.1162 41.9526V44.1304L52.7676 42.7114L70.002 27.8989C72.1475 26.0564 74.2786 24.2116 76.4199 22.3774L78.5664 20.5474C79.5186 19.739 80.3192 19.4226 81.0312 19.4116ZM81.7744 121.868H103.562V100.678H81.7744V121.868ZM96.7832 82.9224C92.8126 79.1511 87.583 76.9185 82.7559 77.1792L81.8096 77.23V99.3237H103.415L103.437 98.3452C103.574 92.1247 100.768 86.7071 96.7832 82.9224ZM79.3711 77.1147C73.0844 77.07 67.6703 80.1539 63.9932 84.3169C60.3342 88.4594 58.2797 93.8055 58.8984 98.4312L59.0146 99.2983H80.3643V77.1216L79.3711 77.1147ZM80.4355 102.626C80.4281 102.281 80.3613 101.845 80.334 101.575L80.2422 100.675H58.6006V121.893H80.4355V102.626Z" stroke="white" stroke-width="2"/>
<path d="M121.49 1.00488H121.495C125.239 1.05704 128.937 1.81042 132.398 3.22266L133.088 3.51367C136.517 5.01378 139.632 7.14219 142.271 9.78613L142.793 10.3213C145.369 13.0334 147.41 16.2023 148.813 19.6621L149.085 20.3574C150.403 23.8551 151.051 27.5668 150.997 31.2988L150.977 32.0459V32.0527C150.454 48.1134 137.429 60.8128 121.009 60.9658C104.243 60.5708 91.182 47.3938 91.1602 31.124L91.1689 30.3467C91.5581 14.1658 104.819 1.11546 120.731 1.00098L121.49 1.00488ZM131.629 9.66406C126.995 8.55393 122.837 9.87639 119.613 13.2773L119.294 13.624C115.934 17.3836 115.254 21.8542 116.945 26.4707L117.116 26.918C117.273 27.3123 117.264 27.4908 117.243 27.5859C117.219 27.697 117.14 27.8691 116.853 28.1924C113.019 32.4513 109.208 36.7252 105.421 41.0146L101.642 45.3096C101.119 45.9022 100.831 46.6654 100.832 47.4561V47.499L100.835 47.541C100.959 48.981 101.27 50.4426 101.501 51.8477L101.671 52.876L102.691 52.6641L108.885 51.3789L109.776 51.1934L109.676 50.2891C109.606 49.6593 109.545 49.099 109.486 48.5586L111.988 47.8955L112.987 47.6299L112.689 46.6406C112.488 45.9723 112.3 45.3464 112.099 44.6758L114.817 44.4248L115.725 44.3408V41.7412L118.183 40.9189L119.089 40.6162L118.828 39.6982C118.625 38.9811 118.449 38.3533 118.265 37.6973L121.028 37.542L122.059 37.4844L121.969 36.457C121.922 35.9254 121.877 35.4478 121.835 34.9902C122.007 34.9852 122.193 34.9816 122.406 34.9678C122.898 34.936 123.651 34.8582 124.215 34.3652C124.476 34.1377 124.603 34.123 124.663 34.1191C124.787 34.1111 124.942 34.142 125.356 34.2598V34.2588C134.089 36.8363 142.815 29.1718 141.368 20.2627L141.292 19.8379C140.312 14.8928 137.362 11.4113 132.567 9.92188L132.098 9.78418L132.094 9.7832L131.629 9.66406Z" stroke="white" stroke-width="2"/>
<path d="M32.1455 147.182L32.3398 147.775L32.959 147.861L33.3232 147.911L34.1436 148.024L34.4072 147.24C35.1898 144.919 36.0201 142.57 36.7607 140.187L37.0723 139.163L37.0742 139.157C37.177 138.803 37.1225 138.479 37.0576 138.258C36.9923 138.035 36.8922 137.833 36.8086 137.679C36.7267 137.528 36.6257 137.362 36.5596 137.249C36.5213 137.184 36.4898 137.127 36.4639 137.079L36.4014 136.954C35.6646 135.213 34.925 133.512 34.251 131.784C34.2011 131.539 34.2032 131.287 34.2607 131.044L34.2725 130.993L34.2793 130.941C34.3644 130.282 34.7593 129.7 35.5117 129.266C36.1846 128.877 37.1296 128.621 38.2939 128.596L38.8057 128.599H38.8066C40.1224 128.643 41.0828 128.955 41.7051 129.397C42.2257 129.768 42.5448 130.252 42.6553 130.859L42.6904 131.127C42.8266 132.876 42.1462 134.437 41.1055 135.97L40.8926 136.276C40.37 137.007 40.0418 137.758 39.9609 138.578C39.8905 139.293 40.0149 139.988 40.2656 140.684L40.3809 140.981C41.1949 142.968 41.9248 145.312 43.0469 147.523L44.1436 149.686L44.8896 147.379C47.4688 139.41 50.0499 131.439 52.665 123.333C53.3956 123.79 54.1517 124.265 54.9238 124.65L55.4209 124.884C59.173 126.544 63.0596 128.545 67.1201 129.835L67.9346 130.083C70.5153 130.835 72.3804 131.998 73.6475 133.533C74.8333 134.97 75.5551 136.804 75.7891 139.104L75.8291 139.57V139.573C76.1098 143.325 75.9345 147.04 75.9053 151H1V150.362C1.09945 146.199 0.934325 142.241 1.37109 138.254C1.58884 136.285 2.2157 134.63 3.24707 133.346C4.20921 132.147 5.5652 131.218 7.39453 130.663L7.76758 130.557L7.77441 130.555C13.6195 128.951 19.1899 126.483 24.3047 123.237L32.1455 147.182Z" stroke="white" stroke-width="2"/>
<path d="M35.5811 78.5005C44.2861 77.3852 51.2742 81.6275 53.6885 89.1333L53.7998 89.4937C54.4548 91.76 54.3814 94.1743 53.5898 96.397L53.5869 96.4058L53.584 96.4155C53.4338 96.8639 53.2832 97.3084 53.1289 97.7651C52.9746 98.2216 52.8168 98.6904 52.6514 99.1841L52.3779 99.9976L53.1416 100.391C53.6395 100.647 53.9576 100.842 54.1582 101.006C54.2541 101.085 54.3069 101.143 54.335 101.181C54.3603 101.215 54.3653 101.232 54.3662 101.235C54.3671 101.238 54.3712 101.254 54.3682 101.295C54.3647 101.341 54.3519 101.417 54.3135 101.533C54.2337 101.772 54.0742 102.096 53.8027 102.561C53.6643 102.763 53.5423 102.975 53.4385 103.197L53.4189 103.238L53.4033 103.28C51.9967 107.145 49.4877 110.328 47.1035 113.911L47.0908 113.929L47.0791 113.95C46.8192 114.383 46.6569 114.866 46.6025 115.366L46.585 115.582C46.5564 115.987 46.5484 116.398 46.5479 116.799L46.5557 117.98C46.5556 118.977 46.5431 119.673 46.4746 120.203C46.4078 120.719 46.298 120.984 46.1689 121.162C46.0388 121.341 45.8151 121.533 45.332 121.767C44.9617 121.946 44.4894 122.127 43.8672 122.344L43.1924 122.575C39.2971 123.882 35.5628 123.595 31.9004 121.79L31.5469 121.611L31.5459 121.61L31.3857 121.522C31.031 121.315 30.807 121.098 30.6738 120.887C30.5487 120.689 30.472 120.447 30.4814 120.123L30.4912 119.979V119.977C30.7724 117.111 30.2637 114.455 28.1475 112.154L27.9375 111.932V111.931L27.8262 111.81C27.5724 111.515 27.3528 111.133 27.127 110.66C26.9987 110.391 26.8782 110.115 26.7461 109.815C26.6815 109.668 26.6141 109.517 26.5439 109.365L26.3242 108.907V108.906L25.5371 107.324C24.8814 105.991 24.2225 104.628 23.5361 103.296L23.1211 102.501C22.888 102.061 22.75 101.757 22.6797 101.53C22.6118 101.311 22.6309 101.239 22.6318 101.235C22.6328 101.231 22.6363 101.219 22.6523 101.194C22.6707 101.166 22.7082 101.118 22.7803 101.051C22.9335 100.909 23.1847 100.731 23.5967 100.49L24.2188 100.125L24.0703 99.4194C23.6589 97.4763 23.1293 95.8527 22.9434 94.1304L22.9102 93.7847C22.6397 90.3949 23.1664 87.221 25.123 84.4624L25.1221 84.4614C25.1858 84.372 25.2493 84.2764 25.2959 84.2065C25.3479 84.1287 25.388 84.0702 25.4258 84.02C25.4903 83.9344 25.5147 83.9214 25.499 83.9321C27.2925 82.9904 28.9773 81.6476 30.5039 80.6323C31.9994 79.6377 33.4846 78.8437 35.2266 78.5522L35.5791 78.5015L35.5811 78.5005Z" stroke="white" stroke-width="2"/>
</svg>
