<svg width="76" height="76" viewBox="0 0 76 76" fill="none" xmlns="http://www.w3.org/2000/svg">
<g clip-path="url(#clip0_810_62)" filter="url(#filter0_i_810_62)">
<path d="M11.0084 20.1899C10.5856 20.4815 9.84571 21.5018 9 22.9594L9.73998 25C10.2685 23.9798 10.9027 22.9594 11.4312 22.0849C11.2199 22.3764 10.6913 23.251 9.84571 25C10.6913 25 11.8541 24.7086 12.9112 24.417C13.2283 22.0849 12.594 21.0645 12.594 21.0645C12.594 21.0645 11.8541 19.4611 11.0084 20.1899Z" stroke="#121212" stroke-width="0.5"/>
<path d="M7.78947 29.4516C8 28.9355 8.31579 28.4194 8.52632 27.9033C8.73685 27.3872 9.05264 26.8709 9.26316 26.3548V26.2258C9.47368 25.7097 9.78947 25.1936 10 24.8065L9.26316 23L9.05264 23.2581C8.84211 23.6452 8.63158 24.0323 8.31579 24.4194C8 24.8065 7.78947 25.3226 7.47368 25.8387C7.26315 26.3548 6.94736 26.742 6.63157 27.2581C6.42105 27.6452 6.21053 28.1613 6 28.5484L7.05263 31C7.36842 30.4839 7.57895 29.9677 7.78947 29.4516Z" stroke="#121212" stroke-width="0.5"/>
<path d="M3.71111 44.5349C3.62222 45.093 3.44444 45.5117 3.35555 46.0698C3.35555 46.2093 3.35556 46.2093 3.26667 46.3488C3.17778 46.6279 3.08889 47.0464 3 47.7441C3.26667 47.8837 3.44445 48.4418 3.62222 49C3.62222 48.4418 3.44445 47.8837 3.17778 47.4651C4.42222 47.6047 5.48888 47.0464 6.02222 45.6511C6.11111 45.5117 6.11111 45.3721 6.2 45.2326C5.93333 45.7907 5.66667 45.9302 5.04444 45.9302C5.93333 45.3721 6.37777 44.6745 6.73333 43.6977C6.82222 43.4187 6.91111 43.2791 7 43C6.2 44.2558 5.4 44.5349 4.42222 44.2558L3.71111 44.3953C3.79999 44.3953 3.71111 44.3953 3.71111 44.5349Z" stroke="#121212" stroke-width="0.5"/>
<path d="M3.5625 42.3486C3.77084 41.7981 3.875 41.1101 4.08334 40.5596C4.29167 40.0092 4.39584 39.3211 4.60417 38.7707C4.8125 38.2201 5.02083 37.532 5.125 36.9816C5.33333 36.4312 5.54166 35.7431 5.75 35.1927C5.95833 34.6422 6.16667 33.9542 6.375 33.4036C6.47917 33.1284 6.47917 32.9908 6.58333 32.7157C6.6875 32.3027 6.89583 32.0276 7 31.6147L5.95833 29V29.1376C5.75 29.6881 5.4375 30.1009 5.22916 30.6514C5.02083 31.2019 4.8125 31.7523 4.49999 32.3027C4.29166 32.7157 4.08333 33.2661 3.97917 33.6789C3.97917 33.8165 3.875 33.8165 3.875 33.9542C3.66667 34.5046 3.45834 35.1927 3.25 35.7431C3.04167 36.4312 2.83333 36.9816 2.72917 37.532C2.72917 37.8073 2.625 38.2201 2.625 38.4954C2.52083 38.7707 2.52083 39.0458 2.41667 39.3211C2.3125 40.0092 2.10417 40.6973 2 41.3853L3.04167 44C3.14584 43.5871 3.35417 43.0366 3.45834 42.6239C3.45834 42.6239 3.45834 42.4862 3.5625 42.3486Z" stroke="#121212" stroke-width="0.5"/>
<path d="M2.12903 42L1.83871 44.4232V44.5578C1.54838 43.8847 0.774192 43.2116 0.774192 43.2116C1.35483 44.2885 1.74193 45.5 1.83871 46.5769C1.54838 46.7115 1.16129 46.5769 0.67742 46.3078C1.16129 46.9808 1.54838 47.1155 1.74193 47.1155C1.25806 47.1155 0.774192 47.6539 0.290322 48.0577C0.967745 47.6539 1.54838 47.5193 1.93548 47.6539C1.25807 50.2116 0.677419 53.0385 0 56C0.193548 55.8654 0.290321 55.7308 0.387094 55.4616C0.483869 54.9231 1.25807 51.4231 2.41935 46.7115C2.41935 46.5769 2.51613 46.4424 2.51613 46.3078V46.1731C2.6129 45.6347 2.80645 45.2309 2.90323 44.6923C2.90323 44.5578 3 44.4232 3 44.2885L2.12903 42Z" stroke="#121212" stroke-width="0.5"/>
<path d="M6.93376 32.0893C6.93376 32.2188 6.83023 32.2188 6.83023 32.3483C6.72671 32.6071 6.6232 32.8661 6.51968 32.9956L6.20912 33.7723C6.20912 33.9018 6.1056 34.0313 6.1056 34.1608C6.00208 34.5491 5.79504 34.9376 5.69152 35.4554C5.48448 35.9733 5.27744 36.4911 5.0704 37.1384C4.86336 37.6562 4.65632 38.3036 4.5528 38.8214C4.34575 39.3394 4.13871 39.9867 4.03519 40.5045C3.82815 41.0224 3.72463 41.5402 3.51759 42.1875V42.317C3.31056 42.8348 3.20704 43.4822 3 44L3.82816 43.8706C4.75984 43.7411 6.1056 42.8348 6.93376 41.6697C7.34784 41.1518 7.6584 40.5045 7.96896 39.8572C8.176 39.3394 8.38304 38.692 8.6936 38.0447C8.90064 37.5268 9.10767 36.8796 9.21119 36.2322C9.00415 36.3616 8.6936 36.4911 8.48656 36.6206H8.176C9.10767 36.2322 9.62528 35.3259 10.0393 34.2903C9.83236 34.5491 9.41823 34.8081 8.90064 34.9376H8.6936C9.00415 34.8081 9.31472 34.5491 9.52176 34.4196L9.62527 34.2903L9.83236 34.0313L9.93579 33.9018C10.0393 33.7723 10.1429 33.6429 10.1429 33.5134C10.1429 33.5134 10.1429 33.384 10.2464 33.384C10.2464 33.2545 10.35 33.2545 10.35 33.125C10.4534 32.8661 10.5569 32.4777 10.6605 32.2188C10.6605 32.0893 10.764 31.9598 10.764 31.8303V31.701C10.764 31.5715 10.8676 31.442 10.8676 31.442C10.8676 31.3125 10.8676 31.183 10.971 31.0536C11.0745 30.9241 10.8676 31.0536 10.8676 31.183C10.5569 31.442 10.1429 31.5715 9.72881 31.701L10.4534 31.5715L9.62527 31.701H9.52176L6.93376 32.0893Z" stroke="#121212" stroke-width="0.5"/>
<path d="M9.9454 24.8728C9.72726 25.3092 9.39999 25.891 9.18181 26.4728V26.6183C8.96363 27.2001 8.63636 27.7818 8.41818 28.3636C8.2 28.9454 7.98181 29.5274 7.65454 30.2546L7 32L9.72726 31.5637C10.4909 31.1272 10.8182 30.6909 11.1454 29.9637C11.2545 29.8182 11.3636 29.6727 11.3636 29.3819C11.6909 28.8001 11.9091 28.2183 12.1272 27.491C12.3454 26.9091 12.5636 26.3273 12.6727 25.7455C12.7818 25.4545 12.8909 25.0182 12.8909 24.7273C12.8909 24.4364 13 24.291 13 24C12.1272 24.5819 10.8182 24.8728 9.9454 24.8728Z" stroke="#121212" stroke-width="0.5"/>
<path d="M13.8148 55H12.7777C12.5185 55 12.2592 55 12 54.662V51.2816C12.2592 51.2816 12.5185 51.2816 12.7777 51.6198H14.3333C14.5926 51.6198 14.8518 51.2816 15.1111 51.2816L15.6296 50.6056C15.6296 50.2677 15.8889 49.9297 15.8889 49.2535V31H19V49.2535C19 50.2677 19 51.2816 18.7408 51.9578C18.4815 52.6338 18.2222 53.3099 17.7037 53.9859C17.1851 54.662 16.6667 55 16.1481 55C15.1111 54.662 14.3333 55 13.8148 55Z" stroke="#121212" stroke-width="0.5"/>
<path d="M25.75 49.3103L22.75 34.1379V49.3103H20V30H24L27 44.8275L30.25 30H34.25V49.3103H31.5V40.3448V39.6552V38.6207V37.5862V36.5516V34.1379L28.25 49.3103H25.75ZM40.5 37.2414C40 37.2414 39.5 37.5862 39.25 37.931C39 38.2759 38.75 39.3103 38.75 40.3448H42.5V38.9655C42.5 38.6207 42.25 38.2759 42.25 37.931L41.75 37.2414H40.5ZM40.7499 49.6551C40 49.6551 39.25 49.6551 38.75 49.3103C38 48.9655 37.5 48.6207 37 47.931C36.4999 47.2414 36.25 46.5516 36 45.5171C35.75 44.4827 35.5 43.4482 35.5 42.0689C35.5 40.6896 35.5 39.6552 35.75 38.6207C36 37.5862 36.25 36.8966 36.75 36.2069C37.25 35.5173 37.75 35.1725 38.25 34.8275C38.75 34.4827 39.5 34.4827 40.25 34.4827C41 34.4827 41.5 34.4827 42.25 34.8275C42.75 35.1725 43.25 35.5173 43.75 36.2069C44.25 36.8966 44.5 37.5862 44.75 38.2759C44.9999 38.9655 44.9999 40 44.9999 41.0344V43.1034H38.5C38.5 43.793 38.5 44.1379 38.75 44.4827C38.75 44.8275 39 45.1723 39.25 45.5171C39.5 45.8621 39.7499 46.2069 40 46.2069C40.25 46.2069 40.7499 46.5516 41 46.5516H42C42.25 46.5516 42.5 46.5516 42.75 46.2069C42.9999 46.2069 43.25 45.8621 43.5 45.8621C43.75 45.8621 43.9999 45.5171 44.25 45.5171V48.6207C43.9999 48.9655 43.75 48.9655 43.5 48.9655C43.25 48.9655 42.9999 49.3103 42.75 49.3103C42.5 49.3103 42.25 49.3103 41.75 49.6551H40.7499ZM51 46.5516H51.75C52 46.5516 52.25 46.2069 52.4999 46.2069V49.3103C52.25 49.6551 52 49.6551 51.4999 49.6551C51 49.6551 50.75 50 50.25 50C49.75 50 49.25 50 49 49.6551C48.75 49.3103 48.2499 49.3103 48 48.9655C47.75 48.6207 47.5 47.931 47.2499 47.5862C47 46.8964 47 46.2068 47 45.1723V37.5862H45.5V35.8621L47 34.4827L47.75 31.3793H49.5V34.4827H52V37.5862H49.5V44.8275C49.5 45.5173 49.5 45.8621 49.75 46.2069C50.25 46.2069 50.4999 46.5516 51 46.5516ZM57.9999 37.2414C57.5 37.2414 57 37.5862 56.7499 37.931C56.5 38.2759 56.25 39.3103 56.25 40.3448H59.9999V38.9655C59.9999 38.6207 59.75 38.2759 59.75 37.931L59.25 37.2414H57.9999ZM58.25 49.6551C57.5 49.6551 56.7499 49.6551 56.25 49.3103C55.7499 48.9655 55 48.6207 54.5 47.931C54 47.2414 53.75 46.5516 53.4999 45.5171C53.25 44.4827 53 43.4482 53 42.0689C53 40.6896 53 39.6552 53.25 38.6207C53.4999 37.5862 53.7499 36.8966 54.25 36.2069C54.7499 35.5173 55.25 35.1725 55.7499 34.8275C56.25 34.4827 57 34.4827 57.75 34.4827C58.5 34.4827 58.9999 34.4827 59.75 34.8275C60.25 35.1725 60.75 35.5173 61.2499 36.2069C61.75 36.8966 61.9999 37.5862 62.2499 38.2759C62.5 38.9655 62.5 40 62.5 41.0344V43.1034H56C56 43.793 56 44.1379 56.25 44.4827C56.25 44.8275 56.5 45.1723 56.7499 45.5171C57 45.8621 57.25 46.2069 57.5 46.2069C57.75 46.2069 58.25 46.5516 58.5 46.5516H59.5C59.75 46.5516 59.9999 46.5516 60.2499 46.2069C60.5 46.2069 60.75 45.8621 60.9999 45.8621C61.25 45.8621 61.5 45.5171 61.75 45.5171V48.6207C61.5 48.9655 61.25 48.9655 60.9999 48.9655C60.75 48.9655 60.5 49.3103 60.2499 49.3103C59.9999 49.3103 59.75 49.3103 59.25 49.6551H58.25ZM69 34.4827H70V38.2759H69C68.4999 38.2759 68.25 38.2759 68 38.6207C67.75 38.6207 67.4999 38.9655 67.25 39.3103C67 39.6552 66.75 40 66.75 40.3448C66.75 40.6896 66.4999 41.3793 66.4999 42.0689V49.6551H63.5V34.8275H65.4999L66 36.8966H66.2499C66.4999 36.5516 66.4999 36.2068 66.75 35.8621L67.25 35.1725C67.4999 34.8275 67.75 34.8275 68 34.8275C68.25 34.4827 68.4999 34.4827 69 34.4827Z" stroke="#121212" stroke-width="0.5"/>
<path d="M71.3333 35H70.6666V30.8332H70V30H72V30.8332H71.3333V35Z" stroke="#121212" stroke-width="0.2"/>
<path d="M74.25 34.6667L73.5 31.3334V35H73V31H74L74.75 34.0001L75.5 31H76V35H75.5V33.0001V32.6668V32.3333V31.6667L74.75 35H74.25" stroke="#121212" stroke-width="0.2"/>
<path d="M16 27L18.0604 20.1246H18.4887L20.5491 27H20.0322L19.4339 24.8271H17.2013L16.6006 27H16ZM18.2327 20.8478L17.2013 24.2249H19.1755L18.2327 20.8478ZM21.0636 27V20.1246H23.124C23.9807 20.1246 24.5813 21.211 24.5813 22.2942C24.5813 23.3772 23.9807 24.4671 23.2077 24.4671H21.5781V27H21.0636ZM21.4919 23.744H23.0379C23.6385 23.744 23.9807 23.0173 23.9807 22.1731C23.9807 21.3287 23.5523 20.6056 22.9517 20.6056H21.4057V23.744H21.4919ZM24.2392 27L26.2971 20.1246H26.7254L28.7858 27H28.2689L27.6707 24.8271H25.4404L24.8398 27H24.2392ZM26.5531 20.8478L25.5241 24.2249H27.4983L26.5531 20.8478ZM31.1023 20.0034C31.9614 20.0034 32.6481 20.6056 32.9042 21.4498L32.4759 21.8132C32.1312 20.8478 31.5305 20.6056 31.0161 20.6056C29.8148 20.6056 29.2142 22.0554 29.2142 23.5018C29.2142 25.0693 29.9871 26.3946 31.0161 26.3946C31.5331 26.3946 32.2174 26.0346 32.562 25.0693L32.9903 25.3115C32.6457 26.3946 31.789 26.8789 31.0161 26.8789C29.6449 26.8789 28.7021 25.0693 28.7021 23.2596C28.7858 21.8132 29.6449 20.0034 31.1023 20.0034ZM37.537 20.0034V26.8789H37.0225V23.6229H34.1916V26.8754H33.6747V20.0069H34.1916V23.0208H37.1087V20.0103L37.537 20.0034ZM42 26.2769V26.8789H38.7383V20H42V20.6021H39.2504V23.135H41.6529V23.7406H39.2504V26.3911H41.9976L42 26.2769Z" stroke="#121212" stroke-width="0.5"/>
</g>
<defs>
<filter id="filter0_i_810_62" x="0" y="0" width="76" height="80" filterUnits="userSpaceOnUse" color-interpolation-filters="sRGB">
<feFlood flood-opacity="0" result="BackgroundImageFix"/>
<feBlend mode="normal" in="SourceGraphic" in2="BackgroundImageFix" result="shape"/>
<feColorMatrix in="SourceAlpha" type="matrix" values="0 0 0 0 0 0 0 0 0 0 0 0 0 0 0 0 0 0 127 0" result="hardAlpha"/>
<feOffset dy="4"/>
<feGaussianBlur stdDeviation="2"/>
<feComposite in2="hardAlpha" operator="arithmetic" k2="-1" k3="1"/>
<feColorMatrix type="matrix" values="0 0 0 0 0 0 0 0 0 0 0 0 0 0 0 0 0 0 0.25 0"/>
<feBlend mode="normal" in2="shape" result="effect1_innerShadow_810_62"/>
</filter>
<clipPath id="clip0_810_62">
<rect width="76" height="76" fill="white"/>
</clipPath>
</defs>
</svg>
