<svg width="40" height="38" viewBox="0 0 40 38" fill="none" xmlns="http://www.w3.org/2000/svg">
<path d="M2.18717 8.27562C2.28007 8.57433 2.40394 8.87175 2.5562 9.15949L2.72265 9.47304L1.99362 10.7498L3.12136 11.8782L4.39813 11.1498L4.71168 11.3156C5.00007 11.4685 5.29749 11.5924 5.59555 11.684L5.93362 11.7885L6.32136 13.2034H7.91684L8.30459 11.7885L8.64265 11.684C8.94201 11.5918 9.23943 11.4679 9.52652 11.3156L9.83942 11.1498L11.1168 11.8782L12.2446 10.7498L11.5156 9.47304L11.682 9.15949C11.8343 8.87175 11.9588 8.57433 12.051 8.27562L12.1549 7.93691L13.5697 7.54981V5.95368L12.1549 5.56723L12.0504 5.22852C11.9581 4.92981 11.8343 4.63239 11.682 4.3453L11.5156 4.03175L12.2446 2.75498L11.1175 1.62659L9.84007 2.35497L9.52717 2.18917C9.23878 2.03627 8.94136 1.91239 8.6433 1.82014L8.30523 1.71562L7.91749 0.300781H6.32201L5.93426 1.71562L5.5962 1.82014C5.29942 1.91175 5.00201 2.03562 4.71233 2.18917L4.39813 2.35497L3.12136 1.62659L1.99362 2.75498L2.72265 4.03175L2.5562 4.34594C2.40394 4.63304 2.27942 4.93046 2.18781 5.22917L2.0833 5.56788L0.668457 5.95433V7.55046L2.0833 7.93756L2.18717 8.27562ZM7.11942 3.52659C8.90072 3.52659 10.3452 4.9711 10.3452 6.75239C10.3452 8.53368 8.90072 9.9782 7.11942 9.9782C5.33813 9.9782 3.89362 8.53368 3.89362 6.75239C3.89362 4.9711 5.33813 3.52659 7.11942 3.52659Z" fill="white"/>
<path d="M32.2581 26.084C29.0562 26.084 26.4517 28.6885 26.4517 31.8904C26.4517 35.0924 29.0562 37.6969 32.2581 37.6969C35.46 37.6969 38.0646 35.0924 38.0646 31.8904C38.0646 28.6885 35.46 26.084 32.2581 26.084ZM30.3226 35.3833L28.5762 33.6369L29.4884 32.7246L30.3226 33.5588L35.0278 28.8537L35.94 29.7659L30.3226 35.3833Z" fill="white"/>
<path d="M35.4839 4.5533H33.5484V3.90814C33.5484 2.84104 32.68 1.97266 31.6129 1.97266H21.2903C20.2232 1.97266 19.3548 2.84104 19.3548 3.90814V4.5533H15.4839V5.84362H19.3548V6.48879C19.3548 7.55588 20.2232 8.42427 21.2903 8.42427H31.6129C32.68 8.42427 33.5484 7.55588 33.5484 6.48879V5.84362H35.4839C37.2626 5.84362 38.7097 7.29072 38.7097 9.06943V13.5856C38.7097 15.3643 37.2626 16.8114 35.4839 16.8114H27.0968V16.1662C27.0968 15.0991 26.2284 14.2307 25.1613 14.2307H14.8387C13.7716 14.2307 12.9032 15.0991 12.9032 16.1662V16.8114H4.51613C2.02645 16.8114 0 18.8378 0 21.3275V26.4888C0 28.9785 2.02645 31.0049 4.51613 31.0049H6.45161V31.6501C6.45161 32.7172 7.32 33.5856 8.3871 33.5856H18.7097C19.7768 33.5856 20.6452 32.7172 20.6452 31.6501V31.0049H25.8387C25.8194 30.792 25.8065 30.5778 25.8065 30.3598C25.8065 30.1417 25.82 29.9275 25.8387 29.7146H20.6452V29.0694C20.6452 28.0023 19.7768 27.1339 18.7097 27.1339H8.3871C7.32 27.1339 6.45161 28.0023 6.45161 29.0694V29.7146H4.51613C2.73742 29.7146 1.29032 28.2675 1.29032 26.4888V21.3275C1.29032 19.5488 2.73742 18.1017 4.51613 18.1017H12.9032V18.7468C12.9032 19.8139 13.7716 20.6823 14.8387 20.6823H25.1613C26.2284 20.6823 27.0968 19.8139 27.0968 18.7468V18.1017H35.4839C37.9735 18.1017 40 16.0759 40 13.5856V9.06943C40 6.57911 37.9735 4.5533 35.4839 4.5533ZM23.2258 5.84362H21.9355V4.5533H23.2258V5.84362ZM25.8065 5.84362H24.5161V4.5533H25.8065V5.84362ZM28.3871 5.84362H27.0968V4.5533H28.3871V5.84362ZM30.9677 5.84362H29.6774V4.5533H30.9677V5.84362ZM16.7742 29.7146H18.0645V31.0049H16.7742V29.7146ZM14.1935 29.7146H15.4839V31.0049H14.1935V29.7146ZM11.6129 29.7146H12.9032V31.0049H11.6129V29.7146ZM9.03226 29.7146H10.3226V31.0049H9.03226V29.7146ZM16.7742 18.1017H15.4839V16.8114H16.7742V18.1017ZM19.3548 18.1017H18.0645V16.8114H19.3548V18.1017ZM21.9355 18.1017H20.6452V16.8114H21.9355V18.1017ZM24.5161 18.1017H23.2258V16.8114H24.5161V18.1017Z" fill="white"/>
</svg>
