<svg width="76" height="76" viewBox="0 0 76 76" fill="none" xmlns="http://www.w3.org/2000/svg">
<g filter="url(#filter0_i_810_245)">
<path fill-rule="evenodd" clip-rule="evenodd" d="M4.82826 45.0919V46.8942H7.89104L7.89016 52.1978H2.71765L2.70013 52.1779C2.68436 52.1593 1.10852 50.2701 1.10852 47.0003C1.10852 43.7305 2.68436 41.842 2.70013 41.8229L2.71765 41.8028H8.42143L8.98555 40H2.33048L2.01032 40.4123C1.92798 40.5178 0 43.0461 0 47.0003C0 50.9554 1.92841 53.4836 2.01032 53.5883L2.33048 54H8.99868L9 45.0912L4.82826 45.0919Z" fill="#121212"/>
</g>
<g filter="url(#filter1_i_810_245)">
<path fill-rule="evenodd" clip-rule="evenodd" d="M8.23527 42H2.54742C2.39113 42.1919 1 43.9908 1 46.9927C1 49.9941 2.39113 51.7943 2.54742 51.9856H7.63055L7.631 47.0991H4.6497V48.9043H6.50394V50.1789H3.00342C2.66499 49.5901 2.1275 48.4284 2.1275 46.992C2.1275 45.5556 2.66499 44.3946 3.00342 43.8045H7.66217L8.23527 42ZM19 51.9606L15.8926 42H14.3738L10.4738 53.9964L11.7509 54C11.7509 54 14.4806 45.6013 15.0604 43.806L15.1966 43.8052L17.1779 50.1568L13.0539 50.1602L13.0553 50.1617L13.6181 51.9656L19 51.9606Z" fill="#121212"/>
</g>
<g filter="url(#filter2_i_810_245)">
<path fill-rule="evenodd" clip-rule="evenodd" d="M16.5049 40H13.4798L9 53.9872L10.2385 53.9908L14.1573 41.8027H15.817L19.0157 52.1695L13.5555 52.1759L14.1164 53.9957L20.8217 53.9878L16.5049 40ZM48.933 42.0172C48.933 42.2016 48.9339 51.8219 48.9348 54H50.0466C50.0466 54 50.0466 46.5756 50.0458 43.8248L51.5691 43.8177H51.6147L52.4237 43.8141L53 42.0172H48.933ZM48.8024 42.0157H39.8142C39.6594 42.2072 38.2864 44.0028 38.2864 46.9993C38.2864 49.995 39.6599 51.792 39.8142 51.9828H45.8789V50.1801H40.2635C39.9294 49.5926 39.3997 48.4331 39.3997 46.9993C39.3997 45.5656 39.9294 44.4067 40.2635 43.8177H47.6902L47.691 54H48.8037L48.8024 42.0157Z" fill="#121212"/>
</g>
<g filter="url(#filter3_i_810_245)">
<path fill-rule="evenodd" clip-rule="evenodd" d="M39.7123 40.0234H39.3071L38.9905 40.4351C38.9089 40.5404 37 43.0645 37 47.0121C37 50.9605 38.9093 53.4844 38.9905 53.589L39.3071 54H45.7173V52.2009H39.6905L39.6736 52.181C39.6584 52.1624 38.097 50.2764 38.097 47.0121C38.097 43.7478 39.6584 41.8625 39.6736 41.8434L39.6905 41.8233H52.3454V41.8255H52.8095L53.3803 40.0234V40.0071L39.7123 40.0234ZM54.8524 53.9901H55.9493L55.9485 40H54.8515L54.8524 53.9901ZM54.7219 40H53.6241L53.6249 53.9908L54.7227 53.9901L54.7219 40ZM74 51.9632L70.9737 42.036H69.4938L66.2628 52.2009H59.2544L59.2376 52.181C59.2223 52.1624 57.6608 50.2764 57.6608 47.0121C57.6608 43.7478 59.2223 41.8625 59.2376 41.8434L59.2544 41.8233H64.9204L65.4725 40.0689V40.0234H58.8715L58.5539 40.4351C58.4724 40.5404 56.563 43.0645 56.563 47.0121C56.563 50.9605 58.4724 53.4844 58.5539 53.589L58.8715 54H66.9035V53.9788C66.9035 53.9788 69.5549 45.6261 70.1192 43.8359L70.2524 43.8353L72.1821 50.1654L68.1648 50.169L68.1665 50.1705L68.7139 51.9683L74 51.9632Z" fill="#121212"/>
</g>
<g filter="url(#filter4_i_810_245)">
<path fill-rule="evenodd" clip-rule="evenodd" d="M71.7295 40.092H68.7314L65.4975 50.2092H59.7304C59.3993 49.6252 58.8736 48.4727 58.8736 47.0477C58.8736 45.6227 59.3993 44.4709 59.7304 43.8856H64.2953L64.8646 42.0945H59.2844C59.1319 42.2851 57.7706 44.0695 57.7706 47.0477C57.7706 50.0251 59.1319 51.8112 59.2844 52.0009H66.201L69.4466 41.8829H71.0914L74.2594 52.1864L68.8059 52.1928L69.3564 53.983L76 53.9751L71.7295 40.092ZM36.03 51.9768L32.9909 42.0953H31.5051L28.2621 52.1991V52.2132H28.2578L28.2565 52.2175L28.2513 52.2132H22.1081V52.107L22.1025 40.0105L21.0009 40L21.0056 52.0965L21 53.9943H28.933L28.9394 54C31.4446 46.1791 31.4815 46.0722 32.1764 43.8877L32.3096 43.887L34.2475 50.1879L30.2136 50.1916L30.2153 50.1929L30.7654 51.9824L36.03 51.9768Z" fill="#121212"/>
</g>
<g filter="url(#filter5_i_810_245)">
<path fill-rule="evenodd" clip-rule="evenodd" d="M33.7829 39.7549H30.8068L27.5964 50.1203H23.4528C23.4628 47.3208 23.4411 39.6829 23.4411 39.6829L22.3453 39.6722C22.338 41.7667 22.3527 51.7653 22.3518 51.956H28.2494L31.4732 41.5897H33.1061L36.2521 52.146L30.8817 52.1526L31.4317 54H38.029L33.7829 39.7549ZM13.0691 31.0674H16.2618C17.1461 31.0674 17.576 31.4699 17.576 32.6594C17.576 33.6988 17.3511 33.8997 17.0415 34.0505V34.0759C17.5263 34.1767 17.7061 34.6126 17.7061 35.5257C17.7061 36.858 17.2365 37.1351 16.6017 37.1351H13.0696L13.0691 31.0674ZM14.1783 33.4725H16.142C16.347 33.4725 16.4668 33.347 16.4668 33.0039C16.4668 32.6522 16.3466 32.5259 16.142 32.5259H14.1783V33.4725ZM14.1783 35.6766H16.1667C16.4067 35.6766 16.5667 35.5844 16.5667 35.2327C16.5667 34.8221 16.4067 34.73 16.1667 34.73H14.1783V35.6766ZM20.2787 31.0674H21.7226L23.7114 37.1351H22.4772L22.1326 36.0624H19.8843L19.5596 37.1351H18.3202L20.2787 31.0674ZM20.299 34.7547H21.7179L20.9983 32.4752L20.299 34.7547ZM23.7715 31.0674H27.9986V32.576H26.4397V37.1351H25.3305V32.576H23.7715V31.0674ZM28.5184 31.0674H32.745V32.576H31.1865V37.1351H30.0773V32.576H28.5184V31.0674ZM33.5299 31.0674H34.6387V35.5757H37.1321V37.1351H33.5299V31.0674ZM37.9014 31.0674H41.8586V32.4752H39.0106V33.4478H41.709V34.7047H39.0106V35.6766H41.9235V37.1351H37.9014V31.0674ZM42.8282 35.1485H43.9369C43.9421 35.794 44.0965 35.844 44.4165 35.844H45.7757C46.0105 35.844 46.2505 35.8021 46.2505 35.3328C46.2505 34.8049 46.1203 34.7715 44.6915 34.7715C43.0236 34.7715 42.8334 34.4364 42.8334 32.9445C42.8334 31.8465 42.8935 31 44.292 31H45.841C47.1197 31 47.2395 31.7289 47.2395 32.7936V32.9864H46.1307C46.1307 32.5427 46.1004 32.3577 45.591 32.3577H44.362C44.1121 32.3577 43.9421 32.5006 43.9421 32.8269C43.9421 33.3549 44.077 33.3717 45.2658 33.363C46.9904 33.3549 47.3899 33.5305 47.3899 35.2988C47.3899 36.9327 47.0596 37.201 45.5858 37.201H44.2422C43.2329 37.201 42.8282 36.8834 42.8282 35.5671V35.1485ZM48.1095 31.0674H52.3357V32.576H50.7768V37.1351H49.6676V32.576H48.1095V31.0674ZM54.3544 31.0674H55.7987L57.7879 37.1351H56.5533L56.2086 36.0624H53.9604L53.6361 37.1351H52.3963L54.3544 31.0674ZM54.3747 34.7547H55.7935L55.0739 32.4752L54.3747 34.7547ZM58.482 31.0674H61.829C62.684 31.0674 62.9136 31.7797 62.9136 32.869V33.2548C62.9136 34.0679 62.8037 34.5452 62.2935 34.746V34.7628C62.6238 34.8635 62.898 35.1066 62.898 36.1038V37.1351H61.7892V36.4062C61.7892 35.7694 61.6794 35.5597 61.3348 35.5597H59.5907V37.1351H58.482V31.0674ZM59.5912 34.0505H61.4247C61.7244 34.0505 61.8342 33.8495 61.8342 33.4138V33.2129C61.8342 32.6762 61.6746 32.576 61.3248 32.576H59.5907L59.5912 34.0505ZM76 35.6171V34.3079L64.9365 34.3094V35.6171H76ZM64.9365 35.8122V37.1249L76 37.1242V35.8122H64.9365ZM11.1833 35.6171V34.3079L0 34.3094V35.6171H11.1833ZM0 35.8122V37.1249L11.1833 37.1242V35.8122H0Z" fill="#121212"/>
</g>
<defs>
<filter id="filter0_i_810_245" x="0" y="40" width="9" height="18" filterUnits="userSpaceOnUse" color-interpolation-filters="sRGB">
<feFlood flood-opacity="0" result="BackgroundImageFix"/>
<feBlend mode="normal" in="SourceGraphic" in2="BackgroundImageFix" result="shape"/>
<feColorMatrix in="SourceAlpha" type="matrix" values="0 0 0 0 0 0 0 0 0 0 0 0 0 0 0 0 0 0 127 0" result="hardAlpha"/>
<feOffset dy="4"/>
<feGaussianBlur stdDeviation="2"/>
<feComposite in2="hardAlpha" operator="arithmetic" k2="-1" k3="1"/>
<feColorMatrix type="matrix" values="0 0 0 0 0 0 0 0 0 0 0 0 0 0 0 0 0 0 0.25 0"/>
<feBlend mode="normal" in2="shape" result="effect1_innerShadow_810_245"/>
</filter>
<filter id="filter1_i_810_245" x="1" y="42" width="18" height="16" filterUnits="userSpaceOnUse" color-interpolation-filters="sRGB">
<feFlood flood-opacity="0" result="BackgroundImageFix"/>
<feBlend mode="normal" in="SourceGraphic" in2="BackgroundImageFix" result="shape"/>
<feColorMatrix in="SourceAlpha" type="matrix" values="0 0 0 0 0 0 0 0 0 0 0 0 0 0 0 0 0 0 127 0" result="hardAlpha"/>
<feOffset dy="4"/>
<feGaussianBlur stdDeviation="2"/>
<feComposite in2="hardAlpha" operator="arithmetic" k2="-1" k3="1"/>
<feColorMatrix type="matrix" values="0 0 0 0 0 0 0 0 0 0 0 0 0 0 0 0 0 0 0.25 0"/>
<feBlend mode="normal" in2="shape" result="effect1_innerShadow_810_245"/>
</filter>
<filter id="filter2_i_810_245" x="9" y="40" width="44" height="18" filterUnits="userSpaceOnUse" color-interpolation-filters="sRGB">
<feFlood flood-opacity="0" result="BackgroundImageFix"/>
<feBlend mode="normal" in="SourceGraphic" in2="BackgroundImageFix" result="shape"/>
<feColorMatrix in="SourceAlpha" type="matrix" values="0 0 0 0 0 0 0 0 0 0 0 0 0 0 0 0 0 0 127 0" result="hardAlpha"/>
<feOffset dy="4"/>
<feGaussianBlur stdDeviation="2"/>
<feComposite in2="hardAlpha" operator="arithmetic" k2="-1" k3="1"/>
<feColorMatrix type="matrix" values="0 0 0 0 0 0 0 0 0 0 0 0 0 0 0 0 0 0 0.25 0"/>
<feBlend mode="normal" in2="shape" result="effect1_innerShadow_810_245"/>
</filter>
<filter id="filter3_i_810_245" x="37" y="40" width="37" height="18" filterUnits="userSpaceOnUse" color-interpolation-filters="sRGB">
<feFlood flood-opacity="0" result="BackgroundImageFix"/>
<feBlend mode="normal" in="SourceGraphic" in2="BackgroundImageFix" result="shape"/>
<feColorMatrix in="SourceAlpha" type="matrix" values="0 0 0 0 0 0 0 0 0 0 0 0 0 0 0 0 0 0 127 0" result="hardAlpha"/>
<feOffset dy="4"/>
<feGaussianBlur stdDeviation="2"/>
<feComposite in2="hardAlpha" operator="arithmetic" k2="-1" k3="1"/>
<feColorMatrix type="matrix" values="0 0 0 0 0 0 0 0 0 0 0 0 0 0 0 0 0 0 0.25 0"/>
<feBlend mode="normal" in2="shape" result="effect1_innerShadow_810_245"/>
</filter>
<filter id="filter4_i_810_245" x="21" y="40" width="55" height="18" filterUnits="userSpaceOnUse" color-interpolation-filters="sRGB">
<feFlood flood-opacity="0" result="BackgroundImageFix"/>
<feBlend mode="normal" in="SourceGraphic" in2="BackgroundImageFix" result="shape"/>
<feColorMatrix in="SourceAlpha" type="matrix" values="0 0 0 0 0 0 0 0 0 0 0 0 0 0 0 0 0 0 127 0" result="hardAlpha"/>
<feOffset dy="4"/>
<feGaussianBlur stdDeviation="2"/>
<feComposite in2="hardAlpha" operator="arithmetic" k2="-1" k3="1"/>
<feColorMatrix type="matrix" values="0 0 0 0 0 0 0 0 0 0 0 0 0 0 0 0 0 0 0.25 0"/>
<feBlend mode="normal" in2="shape" result="effect1_innerShadow_810_245"/>
</filter>
<filter id="filter5_i_810_245" x="0" y="31" width="76" height="27" filterUnits="userSpaceOnUse" color-interpolation-filters="sRGB">
<feFlood flood-opacity="0" result="BackgroundImageFix"/>
<feBlend mode="normal" in="SourceGraphic" in2="BackgroundImageFix" result="shape"/>
<feColorMatrix in="SourceAlpha" type="matrix" values="0 0 0 0 0 0 0 0 0 0 0 0 0 0 0 0 0 0 127 0" result="hardAlpha"/>
<feOffset dy="4"/>
<feGaussianBlur stdDeviation="2"/>
<feComposite in2="hardAlpha" operator="arithmetic" k2="-1" k3="1"/>
<feColorMatrix type="matrix" values="0 0 0 0 0 0 0 0 0 0 0 0 0 0 0 0 0 0 0.25 0"/>
<feBlend mode="normal" in2="shape" result="effect1_innerShadow_810_245"/>
</filter>
</defs>
</svg>
