<svg width="76" height="76" viewBox="0 0 76 76" fill="none" xmlns="http://www.w3.org/2000/svg">
<g filter="url(#filter0_i_810_157)">
<mask id="mask0_810_157" style="mask-type:luminance" maskUnits="userSpaceOnUse" x="0" y="0" width="76" height="76">
<path d="M76 0H0V76H76V0Z" fill="white"/>
</mask>
<g mask="url(#mask0_810_157)">
<path d="M38.0001 71.8487C40.9377 71.8487 43.3171 69.4693 43.3171 66.5317V20.4512H32.6831V66.5317C32.6831 69.4693 35.0625 71.8487 38.0001 71.8487Z" fill="#121212"/>
<path d="M59.1837 37.2648C53.4503 31.5357 44.8855 30.3749 38 33.7777L60.7611 56.5389C61.7005 57.4782 63.3177 57.106 63.7165 55.8432C65.7192 49.5027 64.2083 42.2938 59.1837 37.2648Z" stroke="#121212" stroke-width="2"/>
<path d="M16.8164 37.2648C22.5498 31.5357 31.1146 30.3749 38.0001 33.7777L15.239 56.5389C14.2997 57.4782 12.6824 57.106 12.2836 55.8432C10.2809 49.5027 11.7918 42.2938 16.8164 37.2648Z" stroke="#121212" stroke-width="2"/>
<path d="M57.4956 19.6016C48.439 19.6016 40.7515 25.5389 38 33.7802H73.996C75.4714 33.7802 76.4551 32.2205 75.786 30.9046C72.3654 24.1919 65.4622 19.6016 57.4956 19.6016Z" stroke="#121212" stroke-width="2"/>
<path d="M41.7617 9.96751C35.3547 16.3745 34.1185 26.0027 37.9999 33.7787L63.4549 8.32368C64.5006 7.27801 64.093 5.47909 62.6884 5.02272C55.5194 2.69654 47.3932 4.33594 41.7617 9.96751Z" stroke="#121212" stroke-width="2"/>
<path d="M34.2381 9.96751C40.6451 16.3745 41.8813 26.0027 37.9999 33.7787L12.5448 8.32368C11.4992 7.27801 11.9068 5.47909 13.3114 5.02272C20.4804 2.69654 28.6066 4.33594 34.2381 9.96751Z" stroke="#121212" stroke-width="2"/>
<path d="M18.5044 19.6016C27.561 19.6016 35.2485 25.5389 38 33.7802H2.00402C0.528555 33.7802 -0.455087 32.2205 0.213967 30.9046C3.63456 24.1919 10.5378 19.6016 18.5044 19.6016Z" stroke="#121212" stroke-width="2"/>
</g>
</g>
<defs>
<filter id="filter0_i_810_157" x="0" y="0" width="76" height="80" filterUnits="userSpaceOnUse" color-interpolation-filters="sRGB">
<feFlood flood-opacity="0" result="BackgroundImageFix"/>
<feBlend mode="normal" in="SourceGraphic" in2="BackgroundImageFix" result="shape"/>
<feColorMatrix in="SourceAlpha" type="matrix" values="0 0 0 0 0 0 0 0 0 0 0 0 0 0 0 0 0 0 127 0" result="hardAlpha"/>
<feOffset dy="4"/>
<feGaussianBlur stdDeviation="2"/>
<feComposite in2="hardAlpha" operator="arithmetic" k2="-1" k3="1"/>
<feColorMatrix type="matrix" values="0 0 0 0 0 0 0 0 0 0 0 0 0 0 0 0 0 0 0.25 0"/>
<feBlend mode="normal" in2="shape" result="effect1_innerShadow_810_157"/>
</filter>
</defs>
</svg>
