<svg width="76" height="76" viewBox="0 0 76 76" fill="none" xmlns="http://www.w3.org/2000/svg">
<g clip-path="url(#clip0_810_102)" filter="url(#filter0_i_810_102)">
<path d="M15 46.7686V52.6148C15 53.6002 36.2612 55.2507 50.1135 58.4609C56.8051 56.9099 61.7692 54.9954 61.7692 52.6148V46.7686C61.7692 44.3892 56.8051 42.4735 50.1135 40.9225C36.261 44.1333 15 45.7839 15 46.7686Z" stroke="#121212" stroke-width="2"/>
<path d="M15 23.3839V29.23C15 30.2155 36.2612 31.8659 50.1135 35.0762C56.8051 33.5251 61.7692 31.6107 61.7692 29.23V23.3839C61.7692 21.0045 56.8051 19.0888 50.1135 17.5377C36.261 20.7485 15 22.3992 15 23.3839Z" stroke="#121212" stroke-width="2"/>
<path d="M15 35.0768V52.6152C15 51.1537 61.7692 48.2306 61.7692 40.9229V23.3845C61.7692 30.6922 15 33.6152 15 35.0768Z" stroke="#121212" stroke-width="2"/>
<path d="M15 11.692V29.2305C15 27.7689 61.7692 24.8459 61.7692 17.5382V-0.000305176C61.7692 7.30739 15 10.2305 15 11.692Z" stroke="#121212" stroke-width="2"/>
<path d="M15 58.4615V76C15 74.5385 61.7692 71.6154 61.7692 64.3077V46.7692C61.7692 54.0769 15 57 15 58.4615Z" stroke="#121212" stroke-width="2"/>
</g>
<defs>
<filter id="filter0_i_810_102" x="0" y="0" width="76" height="80" filterUnits="userSpaceOnUse" color-interpolation-filters="sRGB">
<feFlood flood-opacity="0" result="BackgroundImageFix"/>
<feBlend mode="normal" in="SourceGraphic" in2="BackgroundImageFix" result="shape"/>
<feColorMatrix in="SourceAlpha" type="matrix" values="0 0 0 0 0 0 0 0 0 0 0 0 0 0 0 0 0 0 127 0" result="hardAlpha"/>
<feOffset dy="4"/>
<feGaussianBlur stdDeviation="2"/>
<feComposite in2="hardAlpha" operator="arithmetic" k2="-1" k3="1"/>
<feColorMatrix type="matrix" values="0 0 0 0 0 0 0 0 0 0 0 0 0 0 0 0 0 0 0.25 0"/>
<feBlend mode="normal" in2="shape" result="effect1_innerShadow_810_102"/>
</filter>
<clipPath id="clip0_810_102">
<rect width="76" height="76" fill="white"/>
</clipPath>
</defs>
</svg>
