<svg width="40" height="40" viewBox="0 0 40 40" fill="none" xmlns="http://www.w3.org/2000/svg">
<path d="M29.2385 5.83824C29.3169 5.95021 29.4365 6.02644 29.5711 6.05018C29.7058 6.07392 29.8443 6.04321 29.9562 5.9648C30.0682 5.8864 30.1445 5.76674 30.1682 5.63212C30.1919 5.49751 30.1612 5.35899 30.0828 5.24702C29.1134 3.86047 27.8681 2.68905 26.425 1.80612C24.9818 0.923185 23.3719 0.347775 21.696 0.11593C20.0201 -0.115916 18.3145 0.000798685 16.6858 0.458762C15.0571 0.916725 13.5406 1.70607 12.2311 2.77735L10.395 0.940818C10.323 0.868736 10.2313 0.819639 10.1314 0.799753C10.0315 0.779866 9.92802 0.790086 9.83396 0.829116C9.73989 0.868146 9.65954 0.934228 9.60309 1.01898C9.54663 1.10374 9.51662 1.20335 9.51685 1.30519V5.61362C9.5167 5.6811 9.52989 5.74795 9.55566 5.81032C9.58144 5.87268 9.61928 5.92934 9.66702 5.97704C9.71476 6.02473 9.77146 6.06252 9.83385 6.08823C9.89625 6.11394 9.96311 6.12706 10.0306 6.12685H14.3389C14.4408 6.12709 14.5404 6.09709 14.6252 6.04064C14.7099 5.98419 14.776 5.90384 14.8151 5.80978C14.8541 5.71571 14.8643 5.61218 14.8445 5.51229C14.8246 5.41241 14.7755 5.32068 14.7034 5.24874L12.9641 3.5097C14.166 2.54483 15.5532 1.83703 17.0397 1.43014C18.5263 1.02325 20.0806 0.925943 21.6063 1.14424C23.132 1.36254 24.5967 1.8918 25.9095 2.69923C27.2223 3.50666 28.3554 4.57506 29.2385 5.83824Z" fill="white"/>
<path d="M10.4455 34.1619C10.407 34.1057 10.3578 34.0576 10.3006 34.0206C10.2434 33.9836 10.1795 33.9582 10.1124 33.9461C10.0454 33.9339 9.97664 33.9351 9.91009 33.9497C9.84355 33.9643 9.78055 33.9919 9.72475 34.031C9.66895 34.0701 9.62145 34.1198 9.585 34.1774C9.54854 34.2349 9.52386 34.2991 9.51238 34.3663C9.5009 34.4334 9.50284 34.5022 9.5181 34.5686C9.53335 34.635 9.56162 34.6977 9.60127 34.7531C10.5707 36.1396 11.816 37.311 13.2591 38.194C14.7023 39.0769 16.3122 39.6523 17.9881 39.8841C19.6639 40.116 21.3696 39.9993 22.9982 39.5413C24.6269 39.0833 26.1434 38.2939 27.4529 37.2227L29.2894 39.0592C29.3373 39.1071 29.3941 39.145 29.4566 39.171C29.5192 39.1969 29.5862 39.2102 29.6539 39.2102C29.7155 39.2102 29.7764 39.1968 29.8323 39.1709C29.9243 39.1309 30.0021 39.064 30.0555 38.9791C30.109 38.8942 30.1355 38.7951 30.1318 38.6948V34.3865C30.1318 34.1019 29.9385 33.8711 29.6538 33.8711H25.3454C25.2435 33.8711 25.1439 33.9014 25.0591 33.958C24.9744 34.0146 24.9084 34.0951 24.8694 34.1893C24.8304 34.2834 24.8202 34.387 24.84 34.487C24.8599 34.5869 24.909 34.6788 24.981 34.7508L26.7202 36.49C25.5184 37.455 24.1312 38.1629 22.6446 38.5698C21.158 38.9768 19.6037 39.0741 18.0779 38.8559C16.5522 38.6376 15.0875 38.1084 13.7746 37.3009C12.4617 36.4935 11.3286 35.4251 10.4455 34.1619Z" fill="white"/>
<path d="M3.86986 24.7655H5.99509V21.2465C5.39382 21.0301 4.88119 20.4182 4.88119 19.6977C4.88119 19.2646 5.05324 18.8492 5.35947 18.543C5.66571 18.2367 6.08106 18.0647 6.51415 18.0647C6.94724 18.0647 7.36259 18.2367 7.66883 18.543C7.97507 18.8492 8.14711 19.2646 8.14711 19.6977C8.15351 20.0425 8.04759 20.3801 7.84533 20.6595C7.64307 20.9389 7.35544 21.1449 7.02583 21.2465V24.7655H9.18301L9.15518 24.2501C9.10865 23.5687 9.21208 22.8853 9.45818 22.2482C9.70428 21.611 10.0871 21.0356 10.5796 20.5624C10.6637 20.4833 10.7455 20.4052 10.8236 20.3226C11.6416 19.4572 12.1804 18.3657 12.3699 17.19C12.5595 16.0143 12.3911 14.8088 11.8866 13.7301C11.3821 12.6514 10.5648 11.7493 9.54098 11.1411C8.51712 10.533 7.33403 10.2468 6.1454 10.3198C3.14499 10.5168 0.705896 13.0126 0.596551 16.0013C0.562525 16.8517 0.711462 17.6995 1.03329 18.4874C1.35512 19.2752 1.84235 19.9848 2.46203 20.5682C3.00876 21.0901 3.42297 21.7349 3.67022 22.4491C3.91746 23.1633 3.99059 23.9263 3.88352 24.6744L3.86986 24.7655Z" fill="white"/>
<path d="M8.8296 28.2927V25.7969H4.19124V28.2927C4.18976 28.3946 4.20884 28.4957 4.24734 28.59C4.28584 28.6843 4.34297 28.7699 4.41531 28.8416C4.48765 28.9133 4.57372 28.9697 4.66836 29.0074C4.763 29.0451 4.86427 29.0633 4.96611 29.0609H8.07235C8.17327 29.0629 8.27354 29.0443 8.36705 29.0063C8.46055 28.9683 8.54532 28.9116 8.61619 28.8397C8.68705 28.7678 8.74252 28.6822 8.77922 28.5882C8.81591 28.4942 8.83305 28.3936 8.8296 28.2927Z" fill="white"/>
<path d="M6.51909 19.0957C6.39985 19.0957 6.28328 19.131 6.18411 19.1972C6.08495 19.2634 6.00764 19.3575 5.96198 19.4677C5.91631 19.5778 5.90434 19.699 5.92757 19.816C5.9508 19.9329 6.00819 20.0404 6.09248 20.1247C6.17678 20.209 6.28419 20.2665 6.40113 20.2897C6.51807 20.313 6.63929 20.3011 6.74946 20.2555C6.85962 20.2099 6.95379 20.1326 7.02003 20.0335C7.08628 19.9343 7.12165 19.8178 7.12165 19.6985C7.12146 19.5387 7.05793 19.3856 6.94498 19.2726C6.83202 19.1596 6.67886 19.096 6.51909 19.0957Z" fill="white"/>
<path d="M28.7344 13.8301C27.574 13.8301 26.4396 14.1742 25.4747 14.8189C24.5099 15.4636 23.7579 16.3799 23.3138 17.452C22.8697 18.5241 22.7535 19.7038 22.9799 20.8419C23.2063 21.98 23.7651 23.0254 24.5856 23.846C25.4062 24.6665 26.4516 25.2253 27.5897 25.4517C28.7279 25.6781 29.9076 25.5619 30.9796 25.1178C32.0517 24.6738 32.9681 23.9217 33.6128 22.9569C34.2574 21.992 34.6016 20.8577 34.6016 19.6973C34.5998 18.1417 33.9811 16.6504 32.8812 15.5505C31.7812 14.4505 30.2899 13.8318 28.7344 13.8301ZM28.749 19.1447C29.2736 19.1437 29.7804 19.3348 30.1739 19.6819C30.5673 20.029 30.8201 20.508 30.8845 21.0287C30.949 21.5493 30.8207 22.0756 30.5238 22.5081C30.2269 22.9407 29.782 23.2496 29.2729 23.3766V23.8951C29.2729 24.0318 29.2186 24.1629 29.122 24.2596C29.0253 24.3562 28.8942 24.4105 28.7576 24.4105C28.6209 24.4105 28.4898 24.3562 28.3931 24.2596C28.2965 24.1629 28.2422 24.0318 28.2422 23.8951V23.3766C27.7754 23.2626 27.3604 22.9952 27.0637 22.6172C26.767 22.2393 26.6058 21.7726 26.606 21.2921C26.6051 21.224 26.6177 21.1565 26.6432 21.0934C26.6686 21.0303 26.7063 20.9729 26.7541 20.9245C26.8019 20.876 26.8588 20.8376 26.9216 20.8114C26.9844 20.7851 27.0517 20.7716 27.1197 20.7716C27.1878 20.7716 27.2551 20.7851 27.3179 20.8114C27.3807 20.8376 27.4376 20.876 27.4854 20.9245C27.5332 20.9729 27.5709 21.0303 27.5963 21.0934C27.6218 21.1565 27.6344 21.224 27.6335 21.2921C27.6338 21.586 27.7499 21.868 27.9567 22.0769C28.1634 22.2858 28.4442 22.4049 28.7381 22.4082C28.742 22.4082 28.7455 22.4076 28.7494 22.4076C28.7533 22.4076 28.757 22.4081 28.7609 22.4082C29.0529 22.4006 29.3303 22.2788 29.5337 22.0691C29.737 21.8593 29.85 21.5782 29.8484 21.2861C29.8469 20.994 29.731 20.7141 29.5255 20.5065C29.32 20.2988 29.0413 20.18 28.7492 20.1754C28.2247 20.1746 27.7186 19.9818 27.3265 19.6334C26.9344 19.2849 26.6835 18.805 26.6211 18.2842C26.5587 17.7634 26.6891 17.2378 26.9877 16.8065C27.2863 16.3753 27.7325 16.0684 28.242 15.9436V15.4994C28.242 15.3627 28.2963 15.2316 28.393 15.1349C28.4896 15.0383 28.6207 14.984 28.7574 14.984C28.8941 14.984 29.0252 15.0383 29.1218 15.1349C29.2185 15.2316 29.2728 15.3627 29.2728 15.4994V15.9436C29.7386 16.058 30.1525 16.3258 30.4478 16.7038C30.743 17.0819 30.9025 17.5483 30.9006 18.0281C30.8988 18.164 30.8436 18.2938 30.7468 18.3893C30.6501 18.4848 30.5196 18.5384 30.3836 18.5384C30.2476 18.5384 30.1172 18.4848 30.0204 18.3893C29.9236 18.2938 29.8684 18.164 29.8666 18.0281C29.8666 17.8072 29.8012 17.5914 29.6785 17.4078C29.5559 17.2242 29.3815 17.0811 29.1776 16.9965C28.9736 16.912 28.7491 16.8898 28.5325 16.9328C28.316 16.9758 28.117 17.082 27.9608 17.2381C27.8046 17.3942 27.6981 17.593 27.6549 17.8096C27.6117 18.0261 27.6337 18.2506 27.7181 18.4547C27.8024 18.6587 27.9454 18.8332 28.1289 18.956C28.3124 19.0788 28.5282 19.1445 28.749 19.1447Z" fill="white"/>
<path d="M36.9823 17.9335C36.7593 16.9313 36.3569 15.9776 35.7944 15.1186C35.735 15.0265 35.7064 14.9179 35.7129 14.8086C35.7194 14.6992 35.7606 14.5947 35.8305 14.5103L37.0826 12.9986L35.4334 11.3499L33.9216 12.6019C33.8362 12.6726 33.7303 12.7139 33.6196 12.7197C33.5089 12.7254 33.3993 12.6953 33.307 12.6338C32.4523 12.0683 31.4998 11.6669 30.4982 11.4501C30.392 11.4285 30.2955 11.3734 30.2228 11.2929C30.1502 11.2125 30.1052 11.1109 30.0945 11.003L29.9054 9.04688H27.5634L27.3745 11.0029C27.3639 11.1112 27.3191 11.2133 27.2465 11.2944C27.1739 11.3754 27.0773 11.4312 26.9708 11.4536C25.9685 11.6759 25.0148 12.0778 24.1558 12.6398C24.0636 12.6991 23.955 12.7274 23.8457 12.7207C23.7363 12.7141 23.6319 12.6727 23.5477 12.6027L22.038 11.3521L20.4146 12.9964L21.6687 14.5105C21.7394 14.5959 21.7807 14.7018 21.7864 14.8125C21.7921 14.9232 21.762 15.0328 21.7006 15.125C21.1351 15.9797 20.7337 16.9322 20.5169 17.9338C20.4947 18.0402 20.439 18.1368 20.358 18.2094C20.2771 18.282 20.1751 18.3269 20.0668 18.3375L18.1075 18.5265V20.8695L20.0381 21.0585C20.1465 21.0691 20.2487 21.114 20.3299 21.1866C20.4111 21.2592 20.467 21.3557 20.4897 21.4622C20.7123 22.4645 21.1144 23.4181 21.6766 24.2772C21.7359 24.3693 21.7644 24.4779 21.7578 24.5873C21.7512 24.6967 21.7099 24.8011 21.6399 24.8854L20.3864 26.3978L22.0351 28.0465L23.5469 26.7944C23.6323 26.7238 23.7382 26.6825 23.8488 26.6767C23.9595 26.671 24.0691 26.7011 24.1614 26.7626C25.0161 27.3281 25.9685 27.7295 26.9702 27.9463C27.0764 27.9678 27.173 28.0228 27.2457 28.1032C27.3184 28.1835 27.3635 28.2851 27.3743 28.393L27.5634 30.349H29.9055L30.0944 28.393C30.105 28.2846 30.1499 28.1825 30.2225 28.1015C30.2951 28.0204 30.3917 27.9646 30.4981 27.9423C31.5004 27.72 32.4541 27.3181 33.3132 26.756C33.4053 26.6968 33.514 26.6684 33.6233 26.6751C33.7327 26.6818 33.8371 26.7231 33.9213 26.7932L35.4331 28.0456L37.0823 26.3971L35.8302 24.8853C35.7595 24.7999 35.7182 24.694 35.7125 24.5834C35.7068 24.4727 35.7369 24.3631 35.7983 24.2708C36.3638 23.4162 36.7652 22.4637 36.9821 21.462C37.0061 21.355 37.0634 21.2583 37.1458 21.1858C37.2281 21.1133 37.3313 21.0687 37.4405 21.0583L39.4082 20.8694V18.5268L37.4405 18.3379C37.3312 18.3274 37.2281 18.2827 37.1458 18.2101C37.0635 18.1374 37.0063 18.0407 36.9823 17.9335ZM28.7344 26.5958C27.3701 26.5958 26.0364 26.1913 24.9021 25.4333C23.7677 24.6754 22.8836 23.5981 22.3615 22.3376C21.8394 21.0772 21.7028 19.6903 21.969 18.3522C22.2351 17.0141 22.8921 15.785 23.8568 14.8204C24.8215 13.8557 26.0506 13.1987 27.3886 12.9325C28.7267 12.6664 30.1137 12.803 31.3741 13.3251C32.6345 13.8472 33.7118 14.7313 34.4698 15.8656C35.2277 17 35.6323 18.3336 35.6323 19.6979C35.6302 21.5267 34.9027 23.28 33.6096 24.5731C32.3164 25.8663 30.5632 26.5937 28.7344 26.5958Z" fill="white"/>
</svg>
