<svg width="40" height="40" viewBox="0 0 40 40" fill="none" xmlns="http://www.w3.org/2000/svg">
<path fill-rule="evenodd" clip-rule="evenodd" d="M29.2586 21.4819C35.1808 21.4819 40 16.6636 40 10.7405C40 4.8183 35.1808 0 29.2586 0C23.3364 0 18.5172 4.8183 18.5172 10.7405C18.5172 16.6628 23.3364 21.4819 29.2586 21.4819ZM14.5548 22.2749C16.243 22.2749 17.6168 20.9011 17.6168 19.2129C17.6168 17.5248 16.243 16.1518 14.5548 16.1518C12.8666 16.1518 11.4928 17.5248 11.4928 19.2129C11.4928 20.902 12.8666 22.2749 14.5548 22.2749ZM18.7347 25.288L17.6229 24.1771C17.4631 24.0164 17.2176 23.9771 17.0159 24.0802C16.7714 24.2033 16.5155 24.3099 16.2552 24.3954C16.0395 24.4653 15.8945 24.6662 15.8945 24.8933V26.4644H13.2151V24.8933C13.2151 24.6662 13.0701 24.4653 12.8544 24.3954C12.5941 24.3099 12.3382 24.2033 12.0937 24.0802C11.8919 23.9771 11.6465 24.0164 11.4867 24.1771L10.3749 25.288L8.4806 23.3937L9.59238 22.2828C9.7522 22.1221 9.79151 21.8776 9.68932 21.6749C9.56531 21.4313 9.45963 21.1754 9.37404 20.9142C9.3033 20.6994 9.10243 20.5535 8.87623 20.5535H7.30419V17.875H8.87623C9.10243 17.875 9.3033 17.7291 9.37404 17.5143C9.45963 17.2531 9.56531 16.9972 9.68932 16.7536C9.79151 16.551 9.7522 16.3055 9.59238 16.1457L8.4806 15.0339L10.3749 13.1396L11.4867 14.2514C11.6465 14.4121 11.8919 14.4505 12.0937 14.3484C12.3373 14.2252 12.5932 14.1187 12.8544 14.0331C13.0701 13.9623 13.2151 13.7615 13.2151 13.5353V11.9632H15.8945V13.5353C15.8945 13.7615 16.0395 13.9623 16.2552 14.0331C16.5155 14.1187 16.7714 14.2252 17.0159 14.3484C17.2176 14.4514 17.4631 14.4121 17.6229 14.2514L17.9163 13.9588C18.5836 16.3082 19.9635 18.3606 21.8054 19.868V20.5535H20.2333C20.0071 20.5535 19.8063 20.6994 19.7355 20.9142C19.6499 21.1754 19.5443 21.4313 19.4203 21.6749C19.3181 21.8776 19.3574 22.1221 19.5172 22.2828L20.629 23.3937L18.7347 25.288ZM18.6648 19.2129C18.6648 21.4793 16.8211 23.323 14.5548 23.323C12.2884 23.323 10.4448 21.4793 10.4448 19.2129C10.4448 16.9475 12.2884 15.1038 14.5548 15.1038C16.8211 15.1047 18.6648 16.9483 18.6648 19.2129ZM19.9277 31.2032C19.6709 31.3369 19.5705 31.653 19.7032 31.9098C19.7967 32.0897 19.9792 32.1928 20.1696 32.1928C20.2499 32.1928 20.3329 32.1744 20.4098 32.1342C21.1268 31.7631 21.7993 31.3316 22.4255 30.8495V39.9988H9.70155V35.984C9.70155 35.2268 9.4212 34.5334 8.96007 34.0024H12.6945C14.8229 34.0024 16.4901 33.0207 16.4901 31.7683C16.4901 31.4792 16.2552 31.2443 15.9661 31.2443C15.677 31.2443 15.4421 31.4792 15.4421 31.7683C15.4421 32.2521 14.3723 32.9543 12.6945 32.9543H3.53479C2.91645 32.9543 2.4134 32.412 2.4134 31.7465C2.4134 31.081 2.91645 30.5386 3.53479 30.5386C3.82387 30.5386 4.0588 30.3046 4.0588 30.0146C4.0588 29.7255 3.82387 29.4906 3.53479 29.4906C3.35138 29.4906 3.17409 29.5151 3.00466 29.5596C2.81339 29.3771 2.69986 29.1238 2.69986 28.8548C2.69986 28.5867 2.80728 28.3369 3.00117 28.1517C3.1278 28.0312 3.18632 27.8557 3.15662 27.6836C3.12693 27.5116 3.01427 27.3657 2.85532 27.2941C2.65444 27.2042 2.092 26.95 1.92432 25.7011H3.33741C3.62736 25.7011 3.86142 25.467 3.86142 25.1771C3.86142 24.888 3.62736 24.6531 3.33741 24.6531H0.174114C0.103372 24.6531 0.0535905 24.6225 0.0212764 24.5596C-0.0110378 24.4967 -0.00667102 24.4374 0.03525 24.3806L2.70946 20.688C3.42562 19.6994 3.56972 18.4846 3.10597 17.3553C2.86492 16.771 2.87104 16.1772 3.12169 15.5903C5.04307 11.0925 9.44391 8.18684 14.3338 8.18684C15.4648 8.18684 16.5801 8.34142 17.6561 8.64535C17.5338 9.32569 17.4692 10.0261 17.4692 10.7405C17.4692 11.4261 17.5286 12.0977 17.6421 12.751L17.1425 13.2506C17.0762 13.2217 17.0089 13.1938 16.9425 13.1676V11.4392C16.9425 11.1501 16.7076 10.9152 16.4185 10.9152H12.691C12.402 10.9152 12.167 11.1501 12.167 11.4392V13.1676C12.0998 13.1938 12.0334 13.2217 11.967 13.2506L10.7452 12.0287C10.6474 11.93 10.5138 11.875 10.3749 11.875C10.236 11.875 10.1024 11.93 10.0046 12.0287L7.36882 14.6636C7.16445 14.868 7.16445 15.1999 7.36882 15.4042L8.59064 16.6269C8.56269 16.6924 8.53475 16.7597 8.50855 16.8269H6.78017C6.49022 16.8269 6.25616 17.061 6.25616 17.351V21.0776C6.25616 21.3666 6.49022 21.6016 6.78017 21.6016H8.50855C8.53475 21.6688 8.56269 21.7352 8.59064 21.8016L7.36882 23.0234C7.16445 23.2278 7.16445 23.5596 7.36882 23.7649L10.0046 26.3998C10.1024 26.4985 10.236 26.5535 10.3749 26.5535C10.5138 26.5535 10.6474 26.4985 10.7452 26.3998L11.967 25.178C12.0334 25.2068 12.0998 25.2339 12.167 25.2609V26.9884C12.167 27.2784 12.402 27.5124 12.691 27.5124H16.4185C16.7076 27.5124 16.9425 27.2784 16.9425 26.9884V25.2609C17.0089 25.2339 17.0762 25.2068 17.1425 25.178L18.3644 26.3998C18.4622 26.4985 18.5958 26.5535 18.7347 26.5535C18.8735 26.5535 19.0072 26.4985 19.105 26.3998L21.7408 23.7649C21.9451 23.5596 21.9451 23.2278 21.7408 23.0234L20.5181 21.8016C20.5469 21.7352 20.5748 21.6688 20.601 21.6016H22.3294C22.6185 21.6016 22.8534 21.3666 22.8534 21.0776V20.633C23.925 21.3291 25.1154 21.8566 26.3879 22.1754C25.8158 26.0408 23.4281 29.3928 19.9277 31.2032ZM30.5826 16.275H23.1477C22.8578 16.275 22.6237 16.0409 22.6237 15.751V5.72921C22.6237 5.44013 22.8578 5.2052 23.1477 5.2052H30.5826C30.8717 5.2052 31.1066 5.44013 31.1066 5.72921V7.64535C31.1066 7.93444 30.8717 8.16937 30.5826 8.16937C30.2935 8.16937 30.0586 7.93444 30.0586 7.64535V6.2541H23.6717V15.227H30.0586V13.8357C30.0586 13.5457 30.2935 13.3117 30.5826 13.3117C30.8717 13.3117 31.1066 13.5457 31.1066 13.8357V15.751C31.1066 16.0409 30.8717 16.275 30.5826 16.275ZM33.6638 13.0602H28.2682C27.9791 13.0602 27.7442 12.8261 27.7442 12.5361C27.7442 12.2471 27.9791 12.0121 28.2682 12.0121H33.6638C33.9538 12.0121 34.1878 12.2471 34.1878 12.5361C34.1878 12.8261 33.9538 13.0602 33.6638 13.0602ZM32.2691 11.2645H26.8735C26.5844 11.2645 26.3495 11.0305 26.3495 10.7405C26.3495 10.4514 26.5844 10.2165 26.8735 10.2165H32.2691C32.559 10.2165 32.7931 10.4514 32.7931 10.7405C32.7931 11.0296 32.559 11.2645 32.2691 11.2645ZM34.1878 8.94316C34.1878 9.23312 33.9538 9.46717 33.6638 9.46717H28.2682C27.9791 9.46717 27.7442 9.23312 27.7442 8.94316C27.7442 8.65408 27.9791 8.41915 28.2682 8.41915H33.6638C33.9538 8.41915 34.1878 8.65495 34.1878 8.94316ZM34.0254 15.2016C33.9241 15.2986 33.7939 15.3466 33.6647 15.3466C33.5258 15.3466 33.3878 15.2925 33.2848 15.1842C33.0848 14.9746 33.0935 14.6436 33.3022 14.4436L37.186 10.7405L33.3022 7.03837C33.0935 6.83837 33.0848 6.5065 33.2848 6.29689C33.4848 6.08816 33.8166 6.0803 34.0254 6.27943L38.3074 10.3615C38.4114 10.4602 38.4699 10.5973 38.4699 10.7405C38.4699 10.8838 38.4114 11.0209 38.3074 11.1204L34.0254 15.2016Z" fill="white"/>
</svg>
