<svg width="40" height="36" viewBox="0 0 40 36" fill="none" xmlns="http://www.w3.org/2000/svg">
<path d="M19.1606 15.6581L19.0071 16.3771C18.9739 16.5328 18.866 16.6622 18.7189 16.7231L17.3344 17.2959C17.1875 17.3566 17.0202 17.3414 16.8867 17.2551L15.9694 16.6619L14.8657 17.7624L15.4604 18.677C15.5473 18.8107 15.5628 18.9788 15.5017 19.1261L14.9282 20.5089C14.8673 20.6559 14.7378 20.7635 14.5821 20.7968L13.5135 21.0243V22.5798L14.5821 22.8073C14.7378 22.8405 14.8673 22.9481 14.9282 23.0952L15.5017 24.478C15.5628 24.6254 15.5473 24.7934 15.4604 24.9271L14.8656 25.8419L15.9692 26.9441L16.8861 26.3494C17.0198 26.2628 17.1873 26.2475 17.3344 26.3083L18.7189 26.881C18.8661 26.9419 18.9739 27.0713 19.0072 27.2271L19.2349 28.2941H20.7938L21.0215 27.2271C21.0548 27.0713 21.1626 26.9419 21.3097 26.881L22.6942 26.3083C22.8414 26.2475 23.0089 26.2629 23.1425 26.3494L24.0595 26.9441L25.163 25.8419L24.5683 24.9271C24.4814 24.7933 24.4659 24.6253 24.527 24.478L25.1005 23.0952C25.1614 22.9481 25.2909 22.8405 25.4466 22.8073L26.5151 22.5798V21.0243L25.4466 20.7968C25.2909 20.7635 25.1614 20.6559 25.1005 20.5089L24.527 19.1261C24.4659 18.9788 24.4814 18.8107 24.5683 18.677L25.1629 17.7624L24.0593 16.6618L23.1419 17.255C23.0085 17.3413 22.8411 17.3565 22.6942 17.2958L21.3097 16.7231C21.1626 16.6622 21.0548 16.5327 21.0216 16.377L20.8681 15.6581C20.8609 15.6248 20.8573 15.591 20.8573 15.557V11.1094C20.8573 10.8422 21.074 10.6255 21.3412 10.6255H22.3375L20.0143 7.99219L17.6912 10.6255H18.6875C18.9547 10.6255 19.1714 10.8422 19.1714 11.1094V15.557C19.1714 15.591 19.1678 15.6249 19.1606 15.6581ZM20.0143 18.3275C21.9336 18.3275 23.4951 19.8862 23.4951 21.802C23.4951 23.7192 21.9336 25.2789 20.0143 25.2789C18.0964 25.2789 16.536 23.7192 16.536 21.802C16.536 19.8862 18.0964 18.3275 20.0143 18.3275Z" fill="white"/>
<path d="M14.7092 33.2482H25.2907C25.7106 33.2482 26.0521 32.9073 26.0521 32.4884V31.7285H13.9478V32.4884C13.9478 32.9073 14.2893 33.2482 14.7092 33.2482Z" fill="white"/>
<path d="M20.0144 24.3109C21.4001 24.3109 22.5274 23.1852 22.5274 21.8017C22.5274 20.4194 21.4001 19.2949 20.0144 19.2949C18.6301 19.2949 17.5038 20.4194 17.5038 21.8017C17.5038 23.1852 18.6301 24.3109 20.0144 24.3109Z" fill="white"/>
<path d="M34.6844 8.24591C35.147 8.24591 35.5378 8.63647 35.5378 9.09881V30.7622H37.1326V9.09881C37.1326 7.75091 36.0343 6.6543 34.6844 6.6543H31.3241C31.6676 7.12946 31.9296 7.66663 32.0901 8.24591H34.6844Z" fill="white"/>
<path d="M34.5701 9.21289H32.2573C32.2661 9.33418 32.2722 9.4562 32.2722 9.57974C32.2722 12.3426 30.0219 14.5904 27.2559 14.5904H21.8252V15.5052L21.9149 15.9254L22.8298 16.3038L23.8619 15.6365C24.0532 15.5128 24.3051 15.5393 24.4664 15.7002L26.1243 17.3537C26.2864 17.5152 26.3131 17.7682 26.1883 17.96L25.5186 18.99L25.897 19.9024L27.0999 20.1586C27.3233 20.2062 27.483 20.4034 27.483 20.6318V22.9707C27.483 23.1991 27.3233 23.3963 27.0999 23.444L25.897 23.7001L25.5186 24.6125L26.1883 25.6425C26.313 25.8342 26.2864 26.087 26.1246 26.2487L24.4666 27.9045C24.3049 28.0658 24.0527 28.0923 23.8614 27.9682L22.8294 27.2989L21.9149 27.6772L21.6585 28.8782C21.6108 29.1015 21.4136 29.2611 21.1853 29.2611H18.8435C18.6152 29.2611 18.418 29.1015 18.3702 28.8782L18.1139 27.6772L17.1994 27.2989L16.1674 27.9682C15.976 28.0924 15.7238 28.0658 15.5622 27.9045L13.9041 26.2487C13.7424 26.087 13.7157 25.8342 13.8404 25.6425L14.5102 24.6125L14.1318 23.7001L12.9289 23.444C12.7055 23.3964 12.5458 23.1991 12.5458 22.9707V20.6318C12.5458 20.4034 12.7055 20.2062 12.9289 20.1586L14.1318 19.9024L14.5102 18.99L13.8404 17.96C13.7157 17.7683 13.7424 17.5152 13.9044 17.3537L15.5624 15.7002C15.7237 15.5393 15.9756 15.5128 16.1669 15.6365L17.199 16.3038L18.1139 15.9254L18.2036 15.5052V14.5904H12.7729C10.0069 14.5904 7.75656 12.3426 7.75656 9.57974C7.75656 9.45652 7.7618 9.33426 7.77083 9.21289H5.45874V30.7616H34.5701V9.21289Z" fill="white"/>
<path d="M12.7729 13.6227H18.2037V11.5926H16.6192C16.4291 11.5926 16.2565 11.4811 16.1782 11.3077C16.0999 11.1343 16.1305 10.9312 16.2564 10.7885L19.6516 6.93991C19.7435 6.8358 19.8756 6.77612 20.0145 6.77612C20.1533 6.77612 20.2854 6.8358 20.3773 6.93991L23.7725 10.7885C23.8984 10.9312 23.929 11.1343 23.8507 11.3077C23.7725 11.4811 23.5999 11.5926 23.4097 11.5926H21.8253V13.6227H27.256C29.4884 13.6227 31.3046 11.8091 31.3046 9.57983C31.3046 7.35056 29.4884 5.53693 27.256 5.53693C27.1671 5.53693 27.0737 5.5404 26.962 5.5479C26.7447 5.56193 26.5452 5.4304 26.4732 5.22532C25.9046 3.60573 24.3688 2.5175 22.6515 2.5175C21.9712 2.5175 21.2966 2.69 20.7004 3.01645C20.5816 3.08145 20.441 3.09371 20.3129 3.05032C20.1846 3.00694 20.0804 2.91178 20.0256 2.78807C19.3786 1.32807 17.9257 0.384766 16.3242 0.384766C14.0918 0.384766 12.2756 2.19734 12.2756 4.42524C12.2756 4.63234 12.2926 4.84532 12.3277 5.07637C12.3663 5.3308 12.199 5.57088 11.947 5.62282C10.0797 6.00758 8.72449 7.67169 8.72449 9.57983C8.72433 11.8091 10.5405 13.6227 12.7729 13.6227Z" fill="white"/>
<path d="M39.7616 31.7285H27.0199V32.4884C27.0199 33.4409 26.2442 34.2159 25.2908 34.2159H14.7092C13.7558 34.2159 12.9801 33.4409 12.9801 32.4884V31.7285H0.238387C0.109113 31.7285 0 31.8372 0 31.9659V32.4739C0 34.2063 1.41153 35.6158 3.14653 35.6158H36.8536C38.5885 35.6158 40 34.2063 40 32.4739V31.9659C39.9999 31.8372 39.8907 31.7285 39.7616 31.7285Z" fill="white"/>
<path d="M4.491 9.09881C4.491 8.63647 4.88188 8.24591 5.34446 8.24591H7.9401C8.10083 7.6697 8.36276 7.13163 8.70744 6.6543H5.34446C3.99454 6.6543 2.89624 7.75091 2.89624 9.09881V30.7622H4.491V9.09881Z" fill="white"/>
</svg>
