<svg width="451" height="380" viewBox="0 0 451 380" fill="none" xmlns="http://www.w3.org/2000/svg">
<g clip-path="url(#clip0_341_69)">
<mask id="mask0_341_69" style="mask-type:luminance" maskUnits="userSpaceOnUse" x="0" y="0" width="451" height="380">
<path d="M0 0H450.219V379.547H0V0Z" fill="white"/>
</mask>
<g mask="url(#mask0_341_69)">
<path d="M768.016 5.84896C768.016 6.58854 767.865 7.32813 767.579 8.04688C767.298 8.71875 766.891 9.35417 766.339 9.92188C766.324 9.94271 766.308 9.95833 766.292 9.97396C765.771 10.4792 765.199 10.8646 764.579 11.1302C763.943 11.4167 763.256 11.5833 762.568 11.6146C762.115 11.651 761.662 11.6146 761.209 11.5312L760.943 11.4844L543.053 229.375C540.938 231.49 539.094 233.698 537.516 236.031C535.943 238.344 534.636 240.755 533.579 243.307C532.537 245.839 531.751 248.469 531.214 251.219C530.693 253.969 530.428 256.833 530.428 259.833V352.151C530.428 355.521 530.126 358.771 529.521 361.922C528.917 365.057 528.011 368.094 526.808 371.01C525.6 373.911 524.089 376.708 522.298 379.359C520.485 382.026 518.391 384.536 516.011 386.938L515.761 386.682C511.402 391.396 487.615 415.349 463.824 439.135C440.037 462.927 416.068 486.714 411.37 491.073L411.626 491.323C409.225 493.703 406.693 495.797 404.048 497.609C401.381 499.417 398.6 500.911 395.699 502.12C392.782 503.323 389.766 504.229 386.615 504.833C383.459 505.438 380.209 505.74 376.839 505.74H226.12L225.969 505.974C225.699 506.359 225.396 506.693 225.048 506.995C224.527 507.448 223.923 507.833 223.271 508.068C222.631 508.318 221.943 508.453 221.225 508.453C220.454 508.453 219.699 508.302 219.011 508.021C218.308 507.719 217.652 507.297 217.136 506.76C216.6 506.224 216.162 505.589 215.876 504.885C215.589 504.198 215.443 503.458 215.443 502.672C215.443 501.901 215.589 501.146 215.876 500.458C216.162 499.755 216.6 499.115 217.136 498.578C217.136 498.562 217.136 498.562 217.152 498.562C217.688 498.026 218.324 497.609 219.027 497.307C219.714 497.021 220.454 496.87 221.24 496.87C221.943 496.87 222.631 497.005 223.287 497.24C223.938 497.49 224.542 497.859 225.063 498.328C225.396 498.63 225.719 498.984 225.985 499.354L226.136 499.589H376.855C379.86 499.589 382.725 499.318 385.475 498.797C388.225 498.281 390.855 497.49 393.386 496.432C395.917 495.38 398.35 494.073 400.662 492.495C402.975 490.922 405.188 489.078 407.318 486.964L511.704 382.578C513.813 380.464 515.657 378.25 517.235 375.922C518.808 373.609 520.115 371.193 521.173 368.646C522.214 366.115 523.001 363.484 523.537 360.734C524.058 357.984 524.324 355.12 524.324 352.12V259.802C524.324 256.432 524.626 253.177 525.23 250.026C525.834 246.891 526.74 243.859 527.949 240.943C529.152 238.026 530.662 235.245 532.454 232.594C534.266 229.927 536.36 227.396 538.74 225.016L756.636 7.125L756.584 6.85417C756.501 6.40104 756.464 5.93229 756.501 5.5C756.532 4.8125 756.704 4.14062 756.985 3.48438C757.271 2.86458 757.657 2.28125 758.162 1.77604C758.178 1.76042 758.193 1.74479 758.209 1.72917C758.761 1.19271 759.402 0.770834 760.089 0.484375C760.792 0.203126 761.548 0.0520833 762.282 0.0520833C763.021 0.0520833 763.761 0.203126 764.48 0.484375C765.152 0.770834 765.787 1.17187 766.355 1.72917C766.376 1.74479 766.391 1.76042 766.407 1.77604C766.943 2.32813 767.365 2.96875 767.646 3.65625C767.865 4.375 768.016 5.11458 768.016 5.84896ZM23.3809 506.729C22.8444 506.193 22.4277 505.552 22.1257 504.849C21.8392 504.161 21.6882 503.427 21.6882 502.635C21.6882 501.917 21.8236 501.229 22.0579 500.594C22.3079 499.938 22.6777 499.333 23.1465 498.818C23.4486 498.479 23.8027 498.161 24.1673 497.896L24.4017 497.745V412.583C24.4225 408.073 24.9746 403.75 26.0475 399.641C27.1361 395.484 28.7454 391.547 30.86 387.891C32.9694 384.234 35.5684 380.885 38.6361 377.865C41.6517 374.88 45.1257 372.234 49.0111 369.99L148.756 312.406C150.699 311.281 152.662 310.307 154.62 309.49C156.615 308.651 158.594 307.964 160.605 307.427C162.62 306.891 164.683 306.49 166.829 306.219C168.975 305.953 171.152 305.818 173.35 305.818H309.35C310.24 305.818 311.079 305.75 311.865 305.599C312.636 305.448 313.391 305.229 314.094 304.927C314.813 304.625 315.501 304.24 316.157 303.807C316.829 303.354 317.464 302.818 318.1 302.198C320.178 300.083 321.99 297.87 323.563 295.557C325.126 293.245 326.433 290.828 327.454 288.349C328.495 285.849 329.266 283.234 329.787 280.49C330.303 277.755 330.558 274.906 330.558 271.906V179.589C330.558 176.219 330.86 172.964 331.459 169.812C332.063 166.677 332.969 163.646 334.178 160.729C335.386 157.812 336.891 155.031 338.688 152.38C340.495 149.714 342.594 147.198 344.975 144.802L482.6 7.15625L482.553 6.89062C482.469 6.4375 482.433 5.96875 482.469 5.53125C482.501 4.84375 482.667 4.17188 482.954 3.52083C483.24 2.90104 483.626 2.3125 484.11 1.8125C484.126 1.79167 484.141 1.77604 484.162 1.76042C484.714 1.22396 485.365 0.802083 486.037 0.520833C486.74 0.234375 487.495 0.0833333 488.235 0.0833333C488.969 0.0833333 489.709 0.234375 490.428 0.520833C491.1 0.802083 491.735 1.20833 492.308 1.76042C492.324 1.77604 492.339 1.79167 492.355 1.8125C492.891 2.36458 493.313 3 493.6 3.6875C493.881 4.39062 494.032 5.14583 494.032 5.88542C494.032 6.61979 493.881 7.35937 493.6 8.07812C493.313 8.75 492.912 9.38542 492.355 9.95833C492.339 9.97396 492.324 9.98958 492.308 10.0052C491.787 10.5104 491.219 10.8958 490.6 11.1667C489.959 11.4479 489.271 11.6146 488.584 11.651C488.131 11.6823 487.683 11.651 487.23 11.5677L486.959 11.5156L349.329 149.146C347.219 151.255 345.376 153.469 343.798 155.802C342.225 158.115 340.917 160.526 339.86 163.073C338.818 165.604 338.032 168.24 337.495 170.99C336.975 173.74 336.709 176.604 336.709 179.604V271.922C336.709 275.255 336.407 278.495 335.803 281.625C335.199 284.76 334.313 287.781 333.105 290.698C331.912 293.594 330.423 296.365 328.646 299.01C326.87 301.641 324.808 304.141 322.443 306.536C321.553 307.443 320.615 308.229 319.626 308.901C318.62 309.589 317.563 310.156 316.459 310.609C315.35 311.062 314.193 311.417 313.006 311.651C311.813 311.885 310.589 312 309.334 312H173.329C171.355 312 169.443 312.12 167.6 312.354C165.735 312.589 163.943 312.943 162.167 313.411C160.37 313.88 158.631 314.484 156.938 315.203C155.225 315.927 153.516 316.781 151.808 317.771L52.0788 375.333C48.6621 377.312 45.61 379.646 42.959 382.24C40.2767 384.875 38.0163 387.807 36.1882 390.995C34.3444 394.177 32.9382 397.615 31.9954 401.25C31.0579 404.87 30.5736 408.677 30.5579 412.635V497.776L30.7923 497.927C31.1777 498.193 31.5111 498.495 31.8132 498.849C32.2819 499.37 32.6517 499.974 32.9017 500.625C33.1361 501.26 33.2715 501.948 33.2715 502.672C33.2715 503.443 33.1204 504.198 32.834 504.885C32.5527 505.589 32.1152 506.224 31.5788 506.76C31.5788 506.76 31.5788 506.776 31.5632 506.776C31.0267 507.313 30.3861 507.734 29.6829 508.036C28.9954 508.318 28.2611 508.469 27.4694 508.469C26.6986 508.469 25.9486 508.318 25.2611 508.036C24.5527 507.698 23.9173 507.266 23.3809 506.729ZM514.584 1.72917C515.141 1.19271 515.777 0.770834 516.464 0.484375C517.167 0.203126 517.923 0.0520833 518.657 0.0520833C519.396 0.0520833 520.136 0.203126 520.855 0.484375C521.527 0.770834 522.162 1.17187 522.735 1.72917C522.751 1.74479 522.766 1.76042 522.782 1.77604C523.318 2.32813 523.74 2.96875 524.021 3.65625C524.308 4.35938 524.459 5.11458 524.459 5.84896C524.459 6.58854 524.308 7.32813 524.021 8.04688C523.74 8.71875 523.334 9.35417 522.782 9.92188C522.766 9.94271 522.751 9.95833 522.735 9.97396C522.214 10.4792 521.641 10.8646 521.021 11.1302C520.386 11.4167 519.699 11.5833 519.011 11.6146C518.558 11.651 518.105 11.6146 517.652 11.5312L517.386 11.4844L370.839 158.031C368.725 160.141 366.881 162.354 365.308 164.682C363.73 167 362.423 169.411 361.365 171.958C360.329 174.49 359.542 177.125 359.006 179.875C358.485 182.62 358.214 185.49 358.214 188.49V280.807C358.214 284.177 357.912 287.427 357.308 290.578C356.709 293.714 355.803 296.75 354.594 299.667C353.386 302.562 351.881 305.365 350.084 308.01C348.277 310.677 346.178 313.193 343.798 315.589L343.699 315.49C343.261 316.057 342.641 316.745 342.021 317.365C341.417 317.969 340.73 318.573 340.193 318.995L340.298 319.094C337.896 321.474 335.365 323.568 332.719 325.38C330.053 327.193 327.271 328.682 324.37 329.891C321.454 331.094 318.438 332 315.282 332.604C312.131 333.208 308.881 333.51 305.511 333.51H179.1C177.12 333.51 175.209 333.625 173.365 333.865C171.506 334.099 169.709 334.448 167.933 334.917C166.141 335.406 164.396 335.99 162.704 336.714C160.995 337.432 159.282 338.286 157.574 339.276L73.6048 387.755C70.1829 389.734 67.1361 392.068 64.485 394.661C61.8027 397.297 59.5423 400.229 57.7142 403.411C55.8704 406.599 54.459 410.036 53.5215 413.672C52.584 417.292 52.0996 421.099 52.0788 425.057V497.776L52.3132 497.927C52.6986 498.193 53.0371 498.495 53.3392 498.849C53.8079 499.37 54.1777 499.974 54.4277 500.625C54.6777 501.26 54.8132 501.948 54.8132 502.672C54.8132 503.443 54.6621 504.198 54.3757 504.885C54.0944 505.589 53.6569 506.224 53.1204 506.76C53.1204 506.76 53.1204 506.776 53.1048 506.776C52.5684 507.313 51.9277 507.734 51.2246 508.036C50.5371 508.318 49.8027 508.469 49.0111 508.469C48.2402 508.469 47.485 508.318 46.7975 508.036C46.0944 507.734 45.4434 507.313 44.9225 506.776C44.3861 506.24 43.9694 505.604 43.6673 504.901C43.3809 504.214 43.2298 503.474 43.2298 502.688C43.2298 501.969 43.3652 501.281 43.5996 500.641C43.8496 499.99 44.2194 499.385 44.6882 498.865C44.9902 498.531 45.3392 498.214 45.709 497.943L45.9434 497.792V425.073C45.9642 420.562 46.5163 416.24 47.5892 412.13C48.6777 407.974 50.2871 404.036 52.3965 400.38C54.5111 396.724 57.11 393.375 60.1777 390.354C63.1934 387.37 66.6621 384.724 70.5527 382.474L154.521 333.995C156.464 332.875 158.428 331.901 160.391 331.078C162.386 330.24 164.36 329.552 166.376 329.016C168.386 328.479 170.449 328.078 172.594 327.812C174.74 327.542 176.902 327.406 179.115 327.406H305.527C308.527 327.406 311.396 327.141 314.146 326.62C316.891 326.099 319.527 325.312 322.058 324.255C324.589 323.203 327.016 321.891 329.334 320.318C331.646 318.74 333.876 316.896 335.985 314.786L339.475 311.297C341.584 309.188 343.428 306.958 345.006 304.646C346.584 302.328 347.891 299.917 348.943 297.37C349.985 294.839 350.771 292.203 351.308 289.453C351.829 286.708 352.1 283.839 352.1 280.839V188.521C352.1 185.151 352.396 181.901 353.001 178.75C353.605 175.615 354.511 172.578 355.719 169.661C356.923 166.745 358.433 163.964 360.23 161.318C362.037 158.651 364.131 156.12 366.511 153.74L513.058 7.17708L513.011 6.90625C512.928 6.45313 512.891 5.98438 512.928 5.54688C512.959 4.85938 513.126 4.19271 513.412 3.53646C513.683 2.91667 514.084 2.32812 514.568 1.82812C514.553 1.76042 514.568 1.74479 514.584 1.72917ZM707.115 5.84896C707.115 6.58854 706.964 7.32813 706.678 8.04688C706.396 8.71875 705.99 9.35417 705.438 9.92188C705.423 9.94271 705.407 9.95833 705.386 9.97396C704.87 10.4792 704.298 10.8646 703.678 11.1302C703.042 11.4167 702.355 11.5833 701.667 11.6146C701.214 11.651 700.761 11.6146 700.308 11.5312L700.042 11.4844L499.985 211.536C497.87 213.651 496.027 215.865 494.454 218.193C492.876 220.505 491.568 222.922 490.511 225.469C489.475 228 488.688 230.63 488.152 233.38C487.631 236.13 487.36 239 487.36 242V334.312C487.36 337.682 487.058 340.938 486.459 344.089C485.855 347.224 484.949 350.255 483.74 353.172C482.532 356.073 481.027 358.875 479.23 361.521C477.423 364.188 475.324 366.703 472.943 369.099L472.693 368.849C468.975 372.87 451.167 390.891 433.365 408.693C415.548 426.516 397.579 444.333 393.537 448.021L393.787 448.271C391.391 450.656 388.86 452.75 386.209 454.557C383.548 456.37 380.761 457.859 377.86 459.068C374.943 460.276 371.928 461.182 368.777 461.786C365.626 462.391 362.376 462.688 359.006 462.688H205.834C205.146 462.688 204.48 462.74 203.839 462.839C203.204 462.943 202.584 463.073 202.011 463.276C201.428 463.464 200.855 463.714 200.271 464.016C199.683 464.318 199.131 464.667 198.579 465.068L198.157 465.37C195.542 467.318 193.214 469.51 191.183 471.875C189.105 474.307 187.329 476.938 185.902 479.724L185.735 480.057C184.313 482.891 183.219 485.875 182.469 488.99C181.782 491.823 181.376 494.776 181.261 497.792L181.459 497.927C181.829 498.177 182.167 498.495 182.485 498.849C182.938 499.37 183.324 499.974 183.558 500.625C183.808 501.26 183.943 501.948 183.943 502.672C183.943 503.443 183.792 504.198 183.506 504.885C183.219 505.589 182.787 506.224 182.251 506.76C182.251 506.76 182.251 506.776 182.23 506.776C181.693 507.313 181.058 507.734 180.355 508.036C179.667 508.318 178.928 508.469 178.141 508.469C177.37 508.469 176.615 508.318 175.928 508.036C175.225 507.75 174.589 507.313 174.053 506.776C174.037 506.776 174.037 506.776 174.037 506.76C173.501 506.224 173.079 505.589 172.777 504.885C172.49 504.198 172.344 503.458 172.344 502.672C172.344 501.969 172.475 501.281 172.709 500.625C172.964 499.974 173.329 499.37 173.803 498.849C174.1 498.495 174.454 498.193 174.839 497.927L175.11 497.745C175.24 494.24 175.693 490.833 176.485 487.568C177.355 483.979 178.594 480.542 180.219 477.307C181.912 473.953 183.99 470.802 186.475 467.901C188.886 465.068 191.673 462.49 194.824 460.177L194.938 460.073C195.745 459.49 196.584 458.969 197.438 458.531C198.292 458.078 199.162 457.714 200.084 457.427C201.006 457.125 201.928 456.906 202.886 456.755C203.839 456.604 204.813 456.536 205.818 456.536H358.985C361.985 456.536 364.855 456.271 367.605 455.75C370.355 455.229 372.985 454.443 375.516 453.385C378.048 452.328 380.48 451.021 382.792 449.448C385.105 447.87 387.318 446.026 389.449 443.917L468.605 364.74C470.714 362.63 472.558 360.417 474.136 358.083C475.709 355.771 477.016 353.359 478.074 350.812C479.115 348.281 479.902 345.646 480.438 342.896C480.959 340.151 481.225 337.281 481.225 334.281V241.964C481.225 238.594 481.527 235.344 482.131 232.193C482.735 229.057 483.641 226.021 484.85 223.104C486.053 220.188 487.563 217.406 489.355 214.755C491.167 212.094 493.261 209.578 495.641 207.182L695.699 7.125L695.646 6.85417C695.563 6.40104 695.532 5.93229 695.563 5.5C695.6 4.8125 695.766 4.14062 696.053 3.48438C696.334 2.86458 696.719 2.28125 697.209 1.77604C697.225 1.76042 697.24 1.74479 697.256 1.72917C697.813 1.19271 698.449 0.770834 699.136 0.484375C699.839 0.203126 700.594 0.0520833 701.334 0.0520833C702.068 0.0520833 702.808 0.203126 703.527 0.484375C704.199 0.770834 704.834 1.17187 705.407 1.72917C705.423 1.74479 705.438 1.76042 705.454 1.77604C705.99 2.32813 706.412 2.96875 706.693 3.65625C706.964 4.375 707.115 5.11458 707.115 5.84896ZM545.027 1.72917C545.584 1.19271 546.219 0.770834 546.907 0.484375C547.61 0.203126 548.365 0.0520833 549.1 0.0520833C549.839 0.0520833 550.579 0.203126 551.298 0.484375C551.969 0.770834 552.605 1.17187 553.178 1.72917C553.193 1.74479 553.209 1.76042 553.225 1.77604C553.761 2.32813 554.183 2.96875 554.464 3.65625C554.751 4.35938 554.902 5.11458 554.902 5.84896C554.902 6.58854 554.751 7.32813 554.464 8.04688C554.183 8.71875 553.777 9.35417 553.225 9.92188C553.209 9.94271 553.193 9.95833 553.178 9.97396C552.657 10.4792 552.084 10.8646 551.464 11.1302C550.829 11.4167 550.141 11.5833 549.454 11.6146C549.001 11.651 548.548 11.6146 548.094 11.5312L547.829 11.4844L392.365 166.948C390.251 169.062 388.407 171.271 386.829 173.604C385.256 175.917 383.949 178.328 382.891 180.88C381.855 183.411 381.063 186.042 380.527 188.792C380.006 191.542 379.74 194.406 379.74 197.406V289.724C379.74 293.094 379.438 296.344 378.834 299.495C378.23 302.63 377.324 305.667 376.12 308.583C374.912 311.5 373.402 314.281 371.61 316.932C369.798 319.599 367.704 322.13 365.324 324.51L365.141 324.323C363.798 325.917 360.527 329.302 357.261 332.573C353.99 335.839 350.605 339.109 349.011 340.448L349.199 340.635C346.798 343.016 344.266 345.109 341.62 346.922C338.954 348.729 336.173 350.224 333.271 351.432C330.355 352.635 327.339 353.542 324.188 354.146C321.032 354.75 317.782 355.052 314.412 355.052H184.85C182.87 355.052 180.959 355.167 179.115 355.401C177.256 355.641 175.459 355.99 173.683 356.458C171.891 356.927 170.146 357.531 168.454 358.255C166.745 358.974 165.032 359.828 163.324 360.818L95.11 400.198C91.6934 402.172 88.6413 404.484 85.9954 407.104C83.3132 409.734 81.0475 412.667 79.2194 415.854C77.3757 419.036 75.9694 422.474 75.0319 426.109C74.0892 429.734 73.6048 433.536 73.5892 437.495V497.792L73.8236 497.943C74.209 498.214 74.5423 498.516 74.8444 498.865C75.3132 499.385 75.6829 499.99 75.9329 500.641C76.1673 501.281 76.3184 501.969 76.3184 502.688C76.3184 503.458 76.1673 504.214 75.8861 504.901C75.5996 505.604 75.1621 506.24 74.6257 506.776C74.6257 506.776 74.6257 506.797 74.61 506.797C74.0736 507.333 73.4381 507.75 72.735 508.052C72.0475 508.339 71.3079 508.49 70.5215 508.49C69.7507 508.49 68.9954 508.339 68.3079 508.052C67.6048 507.75 66.9486 507.333 66.4277 506.797C65.8913 506.26 65.4746 505.62 65.1725 504.917C64.8861 504.229 64.735 503.495 64.735 502.703C64.735 501.984 64.8704 501.297 65.1204 500.661C65.3757 500.005 65.7402 499.401 66.2142 498.88C66.5163 498.547 66.8652 498.229 67.235 497.958L67.4694 497.807V437.51C67.485 433 68.0371 428.677 69.11 424.568C70.2038 420.411 71.8131 416.474 73.9225 412.818C76.0371 409.161 78.6361 405.812 81.7038 402.792C84.7194 399.807 88.1882 397.161 92.0788 394.917L160.287 355.536C162.251 354.417 164.193 353.443 166.157 352.62C168.152 351.781 170.131 351.094 172.141 350.557C174.152 350.021 176.214 349.62 178.36 349.354C180.506 349.083 182.667 348.948 184.881 348.948H314.449C317.449 348.948 320.313 348.682 323.063 348.161C325.813 347.641 328.443 346.854 330.975 345.797C333.506 344.74 335.938 343.432 338.251 341.859C340.563 340.281 342.792 338.438 344.907 336.328L361.001 320.219C363.11 318.104 364.954 315.875 366.532 313.562C368.105 311.25 369.412 308.833 370.469 306.286C371.511 303.755 372.298 301.125 372.834 298.375C373.355 295.625 373.62 292.76 373.62 289.755V197.443C373.62 194.073 373.923 190.818 374.527 187.667C375.131 184.531 376.037 181.5 377.24 178.583C378.449 175.667 379.959 172.88 381.751 170.234C383.563 167.568 385.657 165.036 388.037 162.656L543.501 7.17708L543.454 6.90625C543.37 6.45313 543.334 5.98438 543.37 5.54688C543.417 4.85938 543.568 4.19271 543.855 3.53646C544.141 2.91667 544.527 2.32812 545.011 1.82812C544.995 1.76042 545.011 1.74479 545.027 1.72917ZM676.673 5.84896C676.673 6.58854 676.521 7.32813 676.235 8.04688C675.954 8.71875 675.548 9.35417 674.995 9.92188C674.98 9.94271 674.964 9.95833 674.943 9.97396C674.428 10.4792 673.855 10.8646 673.235 11.1302C672.6 11.4167 671.912 11.5833 671.225 11.6146C670.771 11.651 670.318 11.6146 669.865 11.5312L669.6 11.4844L478.459 202.62C476.35 204.734 474.506 206.948 472.928 209.276C471.37 211.589 470.048 214.005 468.99 216.552C467.949 219.083 467.162 221.714 466.626 224.464C466.105 227.214 465.839 230.078 465.839 233.078V325.396C465.839 328.766 465.537 332.021 464.933 335.172C464.329 338.302 463.423 341.339 462.214 344.255C461.011 347.156 459.501 349.953 457.709 352.604C455.896 355.271 453.803 357.781 451.423 360.182L451.167 359.927C447.834 363.583 432.98 378.62 418.146 393.458C403.292 408.307 388.271 423.146 384.62 426.479L384.87 426.734C382.475 429.115 379.943 431.208 377.292 433.021C374.626 434.828 371.844 436.323 368.943 437.526C366.027 438.734 363.011 439.641 359.86 440.245C356.709 440.849 353.454 441.151 350.084 441.151H207.933C205.954 441.151 204.042 441.266 202.199 441.5C200.339 441.734 198.542 442.089 196.766 442.557C194.975 443.026 193.23 443.63 191.537 444.349C189.829 445.073 188.115 445.927 186.407 446.917L181.245 449.901C177.824 451.875 174.771 454.208 172.126 456.807C169.443 459.438 167.178 462.37 165.35 465.557C163.506 468.74 162.1 472.177 161.162 475.818C160.219 479.438 159.735 483.24 159.719 487.198V497.776L159.954 497.927C160.339 498.193 160.673 498.495 160.975 498.849C161.428 499.37 161.813 499.974 162.048 500.625C162.303 501.26 162.433 501.948 162.433 502.672C162.433 503.443 162.282 504.198 162.001 504.885C161.714 505.589 161.277 506.224 160.74 506.76C160.74 506.76 160.74 506.776 160.725 506.776C160.188 507.313 159.553 507.734 158.85 508.036C158.162 508.318 157.423 508.469 156.636 508.469C155.844 508.469 155.11 508.318 154.423 508.036C153.719 507.75 153.079 507.313 152.542 506.776C152.542 506.776 152.527 506.776 152.527 506.76C151.99 506.224 151.574 505.589 151.271 504.885C150.985 504.198 150.834 503.458 150.834 502.672C150.834 501.969 150.969 501.281 151.219 500.625C151.469 499.974 151.839 499.37 152.308 498.849C152.61 498.516 152.964 498.193 153.334 497.927L153.568 497.776V487.198C153.584 482.688 154.136 478.365 155.209 474.255C156.298 470.099 157.907 466.161 160.021 462.505C162.131 458.849 164.73 455.5 167.798 452.479C170.818 449.495 174.287 446.849 178.178 444.604L183.355 441.62C185.298 440.495 187.261 439.521 189.225 438.703C191.219 437.865 193.193 437.177 195.209 436.641C197.219 436.104 199.282 435.703 201.428 435.432C203.574 435.167 205.735 435.031 207.949 435.031H350.1C353.105 435.031 355.969 434.76 358.719 434.24C361.469 433.724 364.1 432.932 366.631 431.88C369.162 430.823 371.594 429.516 373.907 427.938C376.219 426.365 378.433 424.521 380.563 422.406L447.11 355.854C449.225 353.745 451.068 351.531 452.646 349.203C454.219 346.885 455.527 344.474 456.584 341.927C457.626 339.396 458.412 336.76 458.949 334.016C459.469 331.266 459.735 328.396 459.735 325.396V233.078C459.735 229.708 460.037 226.458 460.641 223.307C461.245 220.172 462.152 217.135 463.355 214.219C464.563 211.302 466.074 208.521 467.865 205.875C469.678 203.208 471.771 200.693 474.152 198.297L665.292 7.15625L665.24 6.89062C665.157 6.4375 665.12 5.96875 665.157 5.53125C665.204 4.84375 665.355 4.17188 665.657 3.52083C665.928 2.90104 666.329 2.3125 666.813 1.8125C666.834 1.79167 666.85 1.77604 666.865 1.76042C667.417 1.22396 668.058 0.802083 668.745 0.520833C669.449 0.234375 670.204 0.0833333 670.938 0.0833333C671.678 0.0833333 672.412 0.234375 673.136 0.520833C673.808 0.802083 674.443 1.20833 675.011 1.76042C675.032 1.77604 675.048 1.79167 675.063 1.8125C675.6 2.36458 676.016 3 676.303 3.6875C676.521 4.375 676.673 5.11458 676.673 5.84896ZM615.787 5.84896C615.787 6.58854 615.636 7.32813 615.35 8.04688C615.068 8.71875 614.662 9.35417 614.11 9.92188C614.094 9.94271 614.079 9.95833 614.063 9.97396C613.542 10.4792 612.969 10.8646 612.35 11.1302C611.714 11.4167 611.027 11.5833 610.339 11.6146C609.886 11.651 609.433 11.6146 608.98 11.5312L608.714 11.4844L435.412 184.786C433.298 186.896 431.454 189.109 429.881 191.438C428.318 193.755 426.995 196.167 425.938 198.714C424.902 201.245 424.115 203.88 423.579 206.625C423.058 209.375 422.787 212.245 422.787 215.245V307.562C422.787 310.932 422.485 314.182 421.886 317.333C421.282 320.469 420.376 323.5 419.167 326.417C417.959 329.339 416.454 332.12 414.657 334.766C412.85 337.432 410.751 339.948 408.37 342.344L408.152 342.125C405.673 344.927 396.688 354.047 387.719 363.031C378.751 372.016 369.615 380.984 366.813 383.464L367.032 383.682C364.636 386.062 362.105 388.161 359.454 389.969C356.792 391.781 354.006 393.271 351.11 394.479C348.193 395.688 345.173 396.594 342.021 397.193C338.87 397.797 335.62 398.099 332.251 398.099H196.396C194.417 398.099 192.506 398.219 190.662 398.453C188.803 398.688 187.011 399.036 185.235 399.51C183.438 399.979 181.693 400.583 180.001 401.302C178.292 402.021 176.584 402.88 174.876 403.865L138.178 425.036C134.756 427.016 131.709 429.349 129.058 431.948C126.376 434.578 124.115 437.51 122.287 440.698C120.443 443.88 119.032 447.318 118.094 450.953C117.157 454.578 116.673 458.38 116.652 462.339V497.776L116.886 497.927C117.271 498.193 117.61 498.495 117.912 498.849C118.365 499.37 118.751 499.974 118.985 500.625C119.235 501.26 119.37 501.948 119.37 502.672C119.37 503.443 119.219 504.198 118.933 504.885C118.646 505.589 118.214 506.224 117.678 506.76C117.678 506.76 117.678 506.776 117.657 506.776C117.12 507.313 116.485 507.734 115.782 508.036C115.094 508.318 114.355 508.469 113.568 508.469C112.798 508.469 112.042 508.318 111.355 508.036C110.652 507.75 110.016 507.313 109.48 506.776C109.48 506.776 109.464 506.776 109.464 506.76C108.928 506.224 108.506 505.589 108.204 504.885C107.917 504.198 107.766 503.458 107.766 502.672C107.766 501.969 107.902 501.281 108.157 500.625C108.407 499.974 108.777 499.37 109.245 498.849C109.548 498.516 109.896 498.193 110.266 497.927L110.501 497.776V462.339C110.516 457.828 111.074 453.505 112.146 449.396C113.235 445.24 114.844 441.302 116.954 437.646C119.068 433.99 121.667 430.635 124.735 427.604C127.751 424.62 131.219 421.969 135.11 419.724L171.808 398.536C173.751 397.411 175.709 396.443 177.673 395.62C179.667 394.781 181.646 394.094 183.657 393.557C185.667 393.021 187.73 392.62 189.876 392.349C192.021 392.083 194.183 391.948 196.396 391.948H332.251C335.251 391.948 338.115 391.677 340.865 391.161C343.615 390.641 346.245 389.854 348.777 388.797C351.308 387.74 353.74 386.432 356.053 384.854C358.365 383.281 360.579 381.438 362.709 379.323L404.032 337.984C406.141 335.875 407.985 333.661 409.563 331.333C411.136 329.016 412.443 326.604 413.501 324.057C414.542 321.526 415.329 318.891 415.865 316.141C416.386 313.396 416.652 310.526 416.652 307.526V215.208C416.652 211.839 416.954 208.589 417.558 205.438C418.162 202.302 419.068 199.266 420.277 196.349C421.48 193.432 422.99 190.651 424.782 188.005C426.594 185.339 428.688 182.807 431.068 180.427L604.37 7.125L604.318 6.85417C604.235 6.40104 604.204 5.93229 604.235 5.5C604.271 4.8125 604.438 4.14062 604.725 3.48438C605.006 2.86458 605.391 2.28125 605.881 1.77604C605.896 1.76042 605.912 1.74479 605.928 1.72396C606.485 1.1875 607.12 0.770834 607.808 0.484375C608.511 0.203126 609.266 0.0520833 610.006 0.0520833C610.74 0.0520833 611.48 0.203126 612.199 0.484375C612.87 0.770834 613.506 1.17188 614.079 1.72396C614.094 1.74479 614.11 1.76042 614.126 1.77604C614.662 2.32813 615.084 2.96875 615.37 3.65625C615.636 4.375 615.787 5.11458 615.787 5.84896ZM575.49 1.72917C576.042 1.19271 576.678 0.770834 577.365 0.484375C578.068 0.203126 578.824 0.0520833 579.563 0.0520833C580.298 0.0520833 581.037 0.203126 581.756 0.484375C582.428 0.770834 583.063 1.17187 583.636 1.72917C583.652 1.74479 583.667 1.76042 583.683 1.77604C584.219 2.32813 584.641 2.96875 584.928 3.65625C585.209 4.35938 585.36 5.11458 585.36 5.84896C585.36 6.58854 585.209 7.32813 584.928 8.04688C584.641 8.71875 584.24 9.35417 583.683 9.92188C583.667 9.94271 583.652 9.95833 583.636 9.97396C583.115 10.4792 582.548 10.8646 581.923 11.1302C581.287 11.4167 580.6 11.5833 579.912 11.6146C579.459 11.651 579.006 11.6146 578.558 11.5312L578.287 11.4844L413.902 175.865C411.792 177.979 409.949 180.193 408.37 182.521C406.798 184.833 405.49 187.25 404.433 189.797C403.391 192.328 402.605 194.958 402.068 197.708C401.548 200.458 401.282 203.323 401.282 206.323V298.641C401.282 302.01 400.98 305.266 400.376 308.417C399.771 311.552 398.865 314.583 397.662 317.5C396.454 320.401 394.943 323.203 393.152 325.849C391.339 328.516 389.245 331.031 386.865 333.427L386.646 333.208C384.667 335.474 378.584 341.708 372.501 347.792C366.412 353.88 360.178 359.964 357.912 361.943L358.131 362.161C355.735 364.542 353.204 366.635 350.553 368.448C347.891 370.255 345.105 371.75 342.209 372.953C339.287 374.161 336.271 375.068 333.12 375.672C329.969 376.276 326.719 376.578 323.35 376.578H190.631C188.652 376.578 186.74 376.693 184.896 376.927C183.037 377.161 181.245 377.516 179.464 377.984C177.673 378.469 175.928 379.057 174.235 379.776C172.527 380.5 170.818 381.354 169.105 382.344L116.652 412.599C113.235 414.578 110.183 416.891 107.532 419.505C104.85 422.141 102.589 425.073 100.761 428.255C98.9173 431.443 97.5111 434.88 96.5684 438.516C95.6309 442.135 95.1465 445.943 95.1309 449.901V497.76L95.3652 497.911C95.7507 498.177 96.084 498.479 96.3861 498.833C96.8548 499.354 97.2246 499.953 97.4746 500.609C97.709 501.245 97.86 501.932 97.86 502.656C97.86 503.427 97.709 504.177 97.4277 504.865C97.1413 505.573 96.7038 506.208 96.1673 506.745C96.1673 506.745 96.1673 506.76 96.1517 506.76C95.6152 507.297 94.9798 507.719 94.2767 508.021C93.5892 508.302 92.8496 508.453 92.0632 508.453C91.2923 508.453 90.5371 508.302 89.8496 508.021C89.1465 507.719 88.4902 507.297 87.9694 506.76C87.4329 506.224 87.0163 505.589 86.7142 504.885C86.4277 504.198 86.2767 503.458 86.2767 502.672C86.2767 501.948 86.4121 501.26 86.6465 500.625C86.8965 499.974 87.2663 499.37 87.735 498.849C88.0371 498.516 88.3913 498.193 88.7611 497.927L88.9954 497.776V449.917C89.0111 445.406 89.5632 441.083 90.6361 436.974C91.7246 432.818 93.334 428.88 95.4486 425.224C97.5579 421.568 100.157 418.219 103.225 415.198C106.245 412.214 109.714 409.568 113.605 407.318L166.058 377.047C168.016 375.922 169.959 374.948 171.923 374.13C173.917 373.292 175.896 372.604 177.907 372.068C179.917 371.531 181.98 371.125 184.126 370.859C186.271 370.589 188.433 370.458 190.646 370.458H323.365C326.365 370.458 329.23 370.188 331.98 369.667C334.73 369.151 337.36 368.359 339.891 367.307C342.423 366.25 344.855 364.943 347.167 363.365C349.48 361.792 351.693 359.948 353.824 357.833L382.506 329.068C384.62 326.953 386.464 324.745 388.037 322.411C389.615 320.099 390.923 317.688 391.98 315.135C393.016 312.604 393.803 309.974 394.339 307.224C394.86 304.474 395.131 301.609 395.131 298.609V206.292C395.131 202.922 395.433 199.672 396.032 196.521C396.636 193.385 397.542 190.349 398.751 187.432C399.959 184.516 401.464 181.734 403.261 179.083C405.068 176.417 407.167 173.885 409.548 171.505L573.928 7.125L573.881 6.85417C573.792 6.40104 573.761 5.93229 573.792 5.5C573.829 4.8125 573.995 4.14062 574.282 3.48438C574.548 2.86458 574.954 2.28125 575.438 1.77604C575.438 1.76042 575.454 1.74479 575.49 1.72917ZM646.23 5.84896C646.23 6.58854 646.079 7.32813 645.792 8.04688C645.511 8.71875 645.105 9.35417 644.553 9.92188C644.537 9.94271 644.521 9.95833 644.501 9.97396C643.985 10.4792 643.412 10.8646 642.792 11.1302C642.157 11.4167 641.469 11.5833 640.782 11.6146C640.329 11.651 639.876 11.6146 639.423 11.5312L639.157 11.4844L456.938 193.703C454.824 195.812 452.98 198.026 451.402 200.359C449.829 202.672 448.521 205.083 447.464 207.635C446.428 210.167 445.636 212.797 445.1 215.547C444.584 218.297 444.313 221.161 444.313 224.161V316.479C444.313 319.849 444.011 323.099 443.407 326.25C442.803 329.385 441.902 332.422 440.693 335.339C439.485 338.255 437.975 341.036 436.183 343.688C434.37 346.349 432.277 348.865 429.896 351.26L429.662 351.026C426.73 354.281 414.824 366.349 402.923 378.25C391.021 390.156 378.969 402.057 375.699 404.99L375.933 405.224C373.537 407.604 371.006 409.698 368.36 411.51C365.693 413.323 362.907 414.812 360.011 416.021C357.094 417.229 354.074 418.13 350.923 418.734C347.771 419.339 344.521 419.641 341.152 419.641H202.146C200.167 419.641 198.256 419.76 196.412 419.995C194.553 420.229 192.761 420.578 190.985 421.047C189.188 421.536 187.443 422.12 185.751 422.844C184.042 423.562 182.334 424.417 180.62 425.406L159.704 437.495C156.282 439.474 153.23 441.786 150.584 444.401C147.902 447.031 145.636 449.969 143.808 453.151C141.964 456.339 140.558 459.771 139.62 463.411C138.683 467.031 138.193 470.839 138.178 474.792V497.792L138.412 497.943C138.798 498.214 139.131 498.516 139.433 498.865C139.886 499.385 140.271 499.99 140.506 500.641C140.761 501.281 140.891 501.969 140.891 502.688C140.891 503.458 140.74 504.214 140.459 504.901C140.173 505.604 139.735 506.24 139.199 506.776C139.199 506.776 139.199 506.797 139.183 506.797C138.646 507.333 138.011 507.75 137.308 508.052C136.62 508.339 135.881 508.49 135.094 508.49C134.324 508.49 133.568 508.339 132.881 508.052C132.178 507.766 131.537 507.333 131.001 506.797C130.985 506.797 130.985 506.797 130.985 506.776C130.449 506.24 130.032 505.604 129.73 504.901C129.443 504.214 129.292 503.474 129.292 502.688C129.292 501.984 129.428 501.297 129.662 500.641C129.912 499.99 130.282 499.385 130.751 498.865C131.053 498.531 131.407 498.214 131.771 497.943L132.011 497.792V474.745C132.027 470.234 132.579 465.906 133.652 461.802C134.74 457.646 136.35 453.703 138.464 450.052C140.574 446.396 143.173 443.042 146.24 440.01C149.256 437.026 152.73 434.375 156.615 432.13L177.553 420.042C179.516 418.922 181.459 417.948 183.423 417.125C185.417 416.286 187.396 415.599 189.407 415.062C191.417 414.526 193.48 414.125 195.626 413.859C197.771 413.589 199.933 413.453 202.146 413.453H341.152C344.152 413.453 347.016 413.188 349.766 412.667C352.516 412.146 355.146 411.359 357.678 410.302C360.209 409.25 362.641 407.943 364.954 406.365C367.266 404.786 369.48 402.943 371.61 400.833L425.537 346.885C427.652 344.776 429.495 342.562 431.068 340.234C432.646 337.917 433.954 335.505 435.011 332.958C436.048 330.427 436.839 327.792 437.37 325.047C437.891 322.297 438.162 319.427 438.162 316.427V224.109C438.162 220.74 438.464 217.49 439.068 214.339C439.667 211.203 440.574 208.172 441.782 205.25C442.99 202.333 444.495 199.552 446.292 196.906C448.1 194.24 450.199 191.708 452.579 189.328L634.798 7.10938L634.745 6.83854C634.662 6.38542 634.631 5.91667 634.662 5.47917C634.699 4.79688 634.865 4.125 635.146 3.46875C635.433 2.84896 635.818 2.26042 636.308 1.76042C636.324 1.74479 636.339 1.72396 636.355 1.70833C636.907 1.17187 637.548 0.755209 638.235 0.46875C638.938 0.182291 639.693 0.03125 640.428 0.03125C641.167 0.03125 641.907 0.182291 642.626 0.46875C643.298 0.755209 643.933 1.15625 644.501 1.70833C644.521 1.72396 644.537 1.74479 644.553 1.76042C645.089 2.3125 645.511 2.94792 645.792 3.63542C646.079 4.375 646.23 5.11458 646.23 5.84896ZM453.699 1.72917C454.256 1.19271 454.891 0.770834 455.579 0.484375C456.282 0.203126 457.037 0.0520833 457.777 0.0520833C458.511 0.0520833 459.251 0.203126 459.969 0.484375C460.641 0.770834 461.277 1.17187 461.85 1.72917C461.865 1.74479 461.881 1.76042 461.896 1.77604C462.433 2.32813 462.855 2.96875 463.136 3.65625C463.423 4.35938 463.574 5.11458 463.574 5.84896C463.574 6.58854 463.423 7.32813 463.136 8.04688C462.855 8.71875 462.454 9.35417 461.896 9.92188C461.881 9.94271 461.865 9.95833 461.85 9.97396C461.329 10.4792 460.756 10.8646 460.136 11.1302C459.501 11.4167 458.813 11.5833 458.126 11.6146C457.673 11.651 457.219 11.6146 456.766 11.5312L456.501 11.4844L327.792 140.193C325.678 142.307 323.834 144.536 322.256 146.849C320.683 149.161 319.376 151.578 318.318 154.125C317.277 156.641 316.49 159.286 315.954 162.036C315.433 164.786 315.167 167.651 315.167 170.651V275.708C315.167 276.547 315.115 277.385 315.001 278.24C314.896 279.078 314.73 279.901 314.495 280.724C314.261 281.562 313.975 282.365 313.641 283.12C313.308 283.875 312.902 284.63 312.417 285.401C311.933 286.188 311.344 286.891 310.709 287.51C310.037 288.146 309.318 288.682 308.527 289.12C307.74 289.557 306.902 289.891 306.016 290.109C305.141 290.328 304.235 290.443 303.313 290.443H167.548C165.568 290.443 163.657 290.562 161.813 290.797C159.954 291.031 158.162 291.385 156.381 291.854C154.589 292.339 152.844 292.927 151.152 293.646C149.443 294.37 147.735 295.224 146.021 296.214L30.5371 362.88C27.1204 364.859 24.0684 367.172 21.4173 369.786C18.7402 372.417 16.4746 375.354 14.6465 378.521C12.8027 381.703 11.3965 385.141 10.459 388.781C9.51628 392.401 9.0319 396.203 9.01628 400.161V497.745L9.25065 497.891C9.63607 498.161 9.9694 498.464 10.2715 498.818C10.7402 499.333 11.11 499.938 11.36 500.594C11.5944 501.229 11.7298 501.917 11.7298 502.635C11.7298 503.406 11.5788 504.161 11.2923 504.849C11.0111 505.552 10.5736 506.193 10.0371 506.729C10.0371 506.729 10.0371 506.745 10.0215 506.745C9.48503 507.281 8.84961 507.698 8.14128 508C7.45378 508.286 6.7194 508.438 5.93294 508.438C5.1569 508.438 4.4069 508.286 3.7194 508C3.01107 507.698 2.36003 507.281 1.83919 506.745C1.30273 506.208 0.886067 505.573 0.583984 504.865C0.297526 504.161 0.146484 503.427 0.146484 502.656C0.146484 501.932 0.281901 501.245 0.516276 500.609C0.766276 499.953 1.13607 499.354 1.60482 498.833C1.9069 498.495 2.26107 498.177 2.62565 497.911L2.86523 497.76V400.177C2.88086 395.672 3.43294 391.344 4.50586 387.24C5.5944 383.078 7.20378 379.141 9.31836 375.484C11.4277 371.849 14.0267 368.479 17.0788 365.464C20.0944 362.479 23.5632 359.828 27.4538 357.583L142.938 290.911C144.902 289.792 146.844 288.818 148.808 287.995C150.803 287.161 152.777 286.474 154.792 285.938C156.803 285.401 158.865 284.995 161.011 284.729C163.157 284.458 165.318 284.328 167.532 284.328H303.298C303.735 284.328 304.136 284.276 304.506 284.193C304.876 284.109 305.225 283.958 305.542 283.792C305.865 283.604 306.167 283.385 306.449 283.12C306.735 282.849 306.985 282.531 307.219 282.182C307.521 281.693 307.792 281.193 308.011 280.672C308.245 280.151 308.428 279.63 308.563 279.13C308.714 278.609 308.813 278.057 308.881 277.484C308.949 276.948 308.98 276.365 308.98 275.724V170.672C308.98 167.302 309.282 164.047 309.886 160.896C310.49 157.76 311.396 154.729 312.6 151.812C313.808 148.911 315.318 146.109 317.11 143.464C318.923 140.797 321.016 138.281 323.396 135.885L452.11 7.15625L452.058 6.89062C451.975 6.4375 451.938 5.96875 451.975 5.53125C452.027 4.84375 452.178 4.17188 452.459 3.52083C452.745 2.90104 453.131 2.3125 453.615 1.8125C453.667 1.76042 453.667 1.74479 453.699 1.72917Z" fill="#555555" fill-opacity="0.5"/>
</g>
</g>
<defs>
<clipPath id="clip0_341_69">
<rect width="451" height="380" fill="white"/>
</clipPath>
</defs>
</svg>
