<svg width="76" height="78" viewBox="0 0 76 78" fill="none" xmlns="http://www.w3.org/2000/svg">
<g filter="url(#filter0_i_810_130)">
<path d="M18.3697 77H25.9697C26.6606 77 27.1212 76.5394 27.1212 75.8485C27.1212 75.6182 27.1212 75.6182 27.1212 75.3879L20.903 58.5758C20.6727 58.1152 20.2121 57.8848 19.7515 57.8848H12.1515C11.4606 58.1152 11 58.5758 11 59.0364C11 59.2667 11 59.2667 11 59.497L17.2182 76.3091C17.4485 76.7697 17.9091 77 18.3697 77ZM49.6909 2.38182L55.9091 19.1939C56.1394 19.6545 56.6 19.8848 57.0606 19.8848H64.6606C65.3515 19.8848 65.8121 19.4242 65.8121 18.7333C65.8121 18.503 65.8121 18.503 65.8121 18.2727L59.5939 1.46061C59.3636 1.23031 58.903 1 58.4424 1H50.8424C50.1515 1 49.6909 1.46061 49.6909 2.15152V2.38182ZM32.4182 77H40.0182C40.7091 77 41.1697 76.5394 41.1697 75.8485C41.1697 75.6182 41.1697 75.6182 41.1697 75.3879L28.0424 39.6909C27.8121 39.2303 27.3515 39 26.8909 39H19.2909C18.6 39 18.1394 39.4606 18.1394 40.1515C18.1394 40.3818 18.1394 40.3818 18.1394 40.6121L31.2667 76.3091C31.497 76.7697 31.9576 77 32.4182 77ZM47.3879 77H54.9879C55.6788 77 56.1394 76.5394 56.1394 75.8485C56.1394 75.6182 56.1394 75.6182 56.1394 75.6182L28.9636 1.69091C28.9636 1.2303 28.503 1 28.0424 1H20.2121C19.7515 1 19.2909 1.46061 19.2909 2.15152C19.2909 2.38182 19.2909 2.38182 19.2909 2.61212L46.4667 76.3091C46.697 76.7697 46.9273 77 47.3879 77ZM48.7697 39H56.3697C57.0606 39 57.5212 38.5394 57.5212 37.8485C57.5212 37.6182 57.5212 37.6182 57.5212 37.3879L44.3939 1.69091C44.1636 1.2303 43.703 1 43.2424 1H35.6424C34.9515 1 34.4909 1.46061 34.4909 2.15152C34.4909 2.38182 34.4909 2.38182 34.4909 2.61212L47.8485 38.3091C48.0788 38.7697 48.3091 39 48.7697 39Z" stroke="#121212" stroke-width="2"/>
</g>
<defs>
<filter id="filter0_i_810_130" x="0" y="0" width="76" height="82" filterUnits="userSpaceOnUse" color-interpolation-filters="sRGB">
<feFlood flood-opacity="0" result="BackgroundImageFix"/>
<feBlend mode="normal" in="SourceGraphic" in2="BackgroundImageFix" result="shape"/>
<feColorMatrix in="SourceAlpha" type="matrix" values="0 0 0 0 0 0 0 0 0 0 0 0 0 0 0 0 0 0 127 0" result="hardAlpha"/>
<feOffset dy="4"/>
<feGaussianBlur stdDeviation="2"/>
<feComposite in2="hardAlpha" operator="arithmetic" k2="-1" k3="1"/>
<feColorMatrix type="matrix" values="0 0 0 0 0 0 0 0 0 0 0 0 0 0 0 0 0 0 0.25 0"/>
<feBlend mode="normal" in2="shape" result="effect1_innerShadow_810_130"/>
</filter>
</defs>
</svg>
