<svg width="78" height="78" viewBox="0 0 78 78" fill="none" xmlns="http://www.w3.org/2000/svg">
<g filter="url(#filter0_i_810_79)">
<path fill-rule="evenodd" clip-rule="evenodd" d="M38.9988 1.67822C18.3718 1.67822 1.67859 18.3714 1.67859 39.0007C1.67859 59.6277 18.371 76.3209 38.998 76.3209C59.6273 76.3209 76.3213 59.6285 76.3213 39.0015C76.3213 18.3722 59.6265 1.67822 38.9988 1.67822ZM26.1065 21.6281C28.2769 21.6281 30.3136 21.8991 31.9419 22.5793C33.7077 23.2564 35.336 24.2076 36.9636 25.5642L33.1618 30.7201C32.0763 29.9064 30.9907 29.3636 30.0426 28.9575C29.0914 28.549 27.8715 28.4154 26.7829 28.4154C22.1697 28.4154 19.8619 31.9423 19.8619 39.1351C19.8619 42.8001 20.404 45.3797 21.6269 46.8706C22.8499 48.4989 24.4782 49.1791 26.7829 49.1791C27.8715 49.1791 28.9571 49.0417 29.9052 48.6363C30.8564 48.2279 31.9419 47.6851 33.2993 46.8706L37.0979 52.3014C33.9787 54.8763 30.4487 56.1 26.3775 56.1C23.1209 56.1 20.4047 55.4206 17.9626 54.0633C15.6572 52.7067 13.7548 50.6731 12.5349 48.0935C11.3134 45.5132 10.6355 42.5284 10.6355 39.0015C10.6355 35.6074 11.3127 32.4851 12.5349 29.9064C13.7548 27.1925 15.6572 25.1557 17.9626 23.6648C20.2704 22.4419 22.9842 21.6281 26.1065 21.6281ZM37.5063 22.8503H46.8702L53.3858 49.8555L60.3067 22.8503H69.3988L58.8143 55.4199C57.4577 59.6277 55.4202 62.75 52.5727 65.0577C49.7215 67.3632 45.9228 68.5862 41.1722 68.9946L40.221 62.75C43.3433 62.3416 45.6487 61.6644 47.1419 60.5789C47.6847 60.1705 48.7703 58.9506 48.7703 58.9506L37.5063 22.8503Z" stroke="#121212"/>
<path fill-rule="evenodd" clip-rule="evenodd" d="M38.9989 1C18.0054 1 1 18.0054 1 39.0019C1 59.9938 18.0054 77 38.9981 77C59.9938 77 77 59.9946 77 39.0019C77 18.0062 59.9938 1 38.9989 1ZM38.9989 2.35732C59.2609 2.35732 75.6427 18.7383 75.6427 39.0019C75.6427 59.2625 59.2617 75.6434 38.9981 75.6434C18.7375 75.6434 2.35656 59.2617 2.35656 39.0019C2.35656 18.7375 18.7391 2.35732 38.9989 2.35732Z" stroke="#121212"/>
</g>
<defs>
<filter id="filter0_i_810_79" x="0.5" y="0.5" width="77" height="81" filterUnits="userSpaceOnUse" color-interpolation-filters="sRGB">
<feFlood flood-opacity="0" result="BackgroundImageFix"/>
<feBlend mode="normal" in="SourceGraphic" in2="BackgroundImageFix" result="shape"/>
<feColorMatrix in="SourceAlpha" type="matrix" values="0 0 0 0 0 0 0 0 0 0 0 0 0 0 0 0 0 0 127 0" result="hardAlpha"/>
<feOffset dy="4"/>
<feGaussianBlur stdDeviation="2"/>
<feComposite in2="hardAlpha" operator="arithmetic" k2="-1" k3="1"/>
<feColorMatrix type="matrix" values="0 0 0 0 0 0 0 0 0 0 0 0 0 0 0 0 0 0 0.25 0"/>
<feBlend mode="normal" in2="shape" result="effect1_innerShadow_810_79"/>
</filter>
</defs>
</svg>
