<svg width="40" height="40" viewBox="0 0 40 40" fill="none" xmlns="http://www.w3.org/2000/svg">
<path d="M14.3276 17.1371H25.6717V5.79297H14.3276V17.1371ZM22.2699 8.42134C22.2727 8.23323 22.3494 8.05378 22.4834 7.92174C22.6174 7.78971 22.798 7.7157 22.9861 7.7157C23.1742 7.7157 23.3548 7.78971 23.4888 7.92174C23.6228 8.05378 23.6995 8.23323 23.7023 8.42134V14.5087C23.7023 14.6987 23.6268 14.8808 23.4925 15.0151C23.3582 15.1495 23.176 15.2249 22.9861 15.2249C22.7961 15.2249 22.614 15.1495 22.4797 15.0151C22.3454 14.8808 22.2699 14.6987 22.2699 14.5087V8.42134ZM15.8531 9.94677C15.8523 9.35327 16.0873 8.78377 16.5063 8.36344C16.9253 7.9431 17.494 7.70633 18.0875 7.70517H18.8538C19.4473 7.70634 20.016 7.94311 20.435 8.36344C20.854 8.78378 21.089 9.35327 21.0882 9.94677V14.5088C21.0882 14.6987 21.0128 14.8809 20.8785 15.0152C20.7442 15.1495 20.562 15.2249 20.3721 15.2249C20.1821 15.2249 20 15.1495 19.8657 15.0152C19.7314 14.8809 19.6559 14.6987 19.6559 14.5088V12.1812H17.2854V14.5088C17.2826 14.6968 17.2059 14.8762 17.0719 15.0082C16.9379 15.1402 16.7573 15.2142 16.5692 15.2142C16.3812 15.2142 16.2006 15.1402 16.0666 15.0082C15.9326 14.8762 15.8559 14.6968 15.8531 14.5088V9.94677Z" fill="white"/>
<path d="M27.1044 5.07432V5.95523C27.7201 5.98113 28.7523 5.74666 28.7874 6.67142C28.7868 6.86119 28.7112 7.04302 28.577 7.17721C28.4428 7.31139 28.261 7.38702 28.0712 7.38757H27.1044V9.14932H29.6683C29.8563 9.15217 30.0357 9.22887 30.1677 9.36287C30.2997 9.49687 30.3737 9.6774 30.3737 9.86549C30.3737 10.0536 30.2997 10.2341 30.1677 10.3681C30.0357 10.5021 29.8563 10.5788 29.6683 10.5817H27.1044V12.3434H28.7874C28.9755 12.3463 29.1548 12.423 29.2868 12.557C29.4188 12.691 29.4928 12.8715 29.4928 13.0596C29.4928 13.2477 29.4188 13.4282 29.2868 13.5622C29.1548 13.6962 28.9755 13.7729 28.7874 13.7758H27.1044V15.5376H30.6924C31.1965 14.238 31.4563 12.8565 31.4587 11.4626C31.458 9.4091 30.9052 7.3936 29.8582 5.62713C28.8111 3.86066 27.3084 2.4082 25.5073 1.42188V4.35815C26.1141 4.37128 27.0768 4.18448 27.1044 5.07432Z" fill="white"/>
<path d="M30.0405 16.9707H27.1042C27.091 17.5775 27.2778 18.5401 26.388 18.5677H25.5071V19.5345C25.5035 19.7221 25.4265 19.9008 25.2926 20.0321C25.1586 20.1635 24.9785 20.2371 24.791 20.2371C24.6034 20.2371 24.4233 20.1635 24.2893 20.0321C24.1554 19.9007 24.0784 19.7221 24.0748 19.5345V18.5677H22.313V21.1316C22.3102 21.3197 22.2335 21.4991 22.0995 21.6311C21.9655 21.763 21.7849 21.837 21.5968 21.837C21.4088 21.837 21.2282 21.763 21.0942 21.6311C20.9602 21.4991 20.8835 21.3197 20.8807 21.1316V18.5677H19.1189V20.2507C19.1161 20.4388 19.0394 20.6182 18.9054 20.7502C18.7714 20.8821 18.5908 20.9561 18.4027 20.9561C18.2147 20.9561 18.0341 20.8821 17.9001 20.7501C17.7661 20.6181 17.6894 20.4388 17.6866 20.2507V18.5677H15.9248V22.1558C21.1072 24.3035 27.5697 21.7747 30.0405 16.9707Z" fill="white"/>
<path d="M14.4924 21.503V18.5667C13.8855 18.5535 12.9231 18.7405 12.8954 17.8505V16.9697H11.9285C11.741 16.9661 11.5623 16.889 11.431 16.7551C11.2996 16.6212 11.226 16.4411 11.226 16.2535C11.226 16.0659 11.2996 15.8858 11.431 15.7519C11.5624 15.618 11.741 15.541 11.9286 15.5374H12.8954V13.7755H10.3315C10.1434 13.7727 9.96404 13.696 9.83205 13.562C9.70007 13.428 9.62609 13.2475 9.62609 13.0594C9.62609 12.8713 9.70007 12.6908 9.83205 12.5568C9.96404 12.4228 10.1434 12.346 10.3315 12.3432H12.8954V10.5814H11.2124C11.0243 10.5786 10.8449 10.5019 10.7129 10.3679C10.5809 10.2339 10.507 10.0534 10.507 9.86527C10.507 9.67719 10.5809 9.49666 10.7129 9.36266C10.8449 9.22866 11.0243 9.15196 11.2124 9.14911H12.8954V7.38019C12.7945 7.38109 9.41775 7.38858 9.30746 7.37305C7.16285 12.564 9.68041 19.0276 14.4924 21.503Z" fill="white"/>
<path d="M12.8952 5.07584C12.9299 4.17957 13.8816 4.37552 14.4923 4.3597V3.39289C14.496 3.2054 14.573 3.02683 14.7069 2.89555C14.8408 2.76426 15.0209 2.69072 15.2084 2.69072C15.396 2.69072 15.576 2.76426 15.7099 2.89555C15.8438 3.02683 15.9209 3.2054 15.9246 3.39289V4.35966H17.6864V1.79583C17.6861 1.70159 17.7044 1.60822 17.7402 1.52106C17.7761 1.43391 17.8288 1.3547 17.8953 1.28795C17.9619 1.22121 18.0409 1.16826 18.128 1.13212C18.215 1.09599 18.3083 1.07739 18.4025 1.07739C18.4968 1.07739 18.5901 1.09599 18.6771 1.13212C18.7642 1.16826 18.8432 1.22121 18.9097 1.28795C18.9763 1.3547 19.029 1.43391 19.0648 1.52106C19.1007 1.60822 19.119 1.70159 19.1187 1.79583V4.35968H20.8805V2.6767C20.8802 2.58246 20.8985 2.48909 20.9343 2.40194C20.9702 2.31479 21.0229 2.23557 21.0894 2.16883C21.156 2.10208 21.235 2.04913 21.322 2.013C21.4091 1.97686 21.5024 1.95827 21.5966 1.95827C21.6909 1.95827 21.7842 1.97686 21.8712 2.013C21.9583 2.04913 22.0373 2.10208 22.1038 2.16883C22.1704 2.23557 22.2231 2.31479 22.2589 2.40194C22.2948 2.48909 22.3131 2.58246 22.3128 2.6767V4.35968H24.0746V0.771708C18.8943 -1.3759 12.4415 1.15361 9.95898 5.94973L12.8952 5.94959L12.8952 5.07584Z" fill="white"/>
<path d="M19.6562 9.94601C19.6571 9.84008 19.6371 9.73502 19.5972 9.63689C19.5573 9.53876 19.4983 9.4495 19.4238 9.37426C19.3492 9.29903 19.2605 9.2393 19.1627 9.19853C19.0649 9.15776 18.96 9.13675 18.8541 9.13672H18.0878C17.9819 9.13675 17.877 9.15776 17.7792 9.19853C17.6814 9.2393 17.5927 9.29902 17.5181 9.37426C17.4436 9.4495 17.3846 9.53876 17.3447 9.63689C17.3048 9.73502 17.2848 9.84008 17.2857 9.94601V10.7482H19.6562L19.6562 9.94601Z" fill="white"/>
<path d="M37.9701 13.0059C37.5334 13.0106 37.1158 13.1863 36.8069 13.4951C36.4981 13.804 36.3224 14.2215 36.3176 14.6583V23.1126C36.3035 23.6654 36.0811 24.1925 35.695 24.5883L29.1927 31.083C29.0481 31.2223 28.8546 31.2992 28.6538 31.2973C28.4531 31.2954 28.2611 31.2148 28.1191 31.0729C27.9772 30.9309 27.8966 30.7389 27.8947 30.5382C27.8928 30.3374 27.9697 30.1439 28.109 29.9993L34.6037 23.4969C34.6611 23.4419 34.7069 23.376 34.7385 23.303C34.77 23.23 34.7866 23.1515 34.7873 23.072C34.7881 22.9925 34.7729 22.9136 34.7426 22.8401C34.7124 22.7665 34.6678 22.6998 34.6114 22.6438C33.9761 22.0132 33.1177 21.6587 32.2226 21.6573C31.3275 21.6559 30.4679 22.0076 29.8306 22.6361L23.9277 28.024C23.3666 28.536 22.9183 29.1592 22.6113 29.8539C22.3043 30.5486 22.1453 31.2997 22.1445 32.0592V39.9989H31.3217C31.2507 38.3335 31.3507 36.5356 32.444 35.1797L38.8079 26.6943C39.3396 25.9907 39.6259 25.1321 39.6227 24.2502V14.6583C39.623 14.4412 39.5805 14.2262 39.4975 14.0255C39.4146 13.8249 39.2929 13.6426 39.1394 13.4891C38.9859 13.3356 38.8036 13.2139 38.6029 13.131C38.4023 13.048 38.1872 13.0055 37.9701 13.0059Z" fill="white"/>
<path d="M10.2003 22.6678C9.88693 22.3503 9.51408 22.0976 9.10304 21.9241C8.692 21.7507 8.25082 21.66 7.80471 21.6571C7.35859 21.6543 6.91629 21.7394 6.50307 21.9075C6.08984 22.0757 5.7138 22.3236 5.39642 22.6371C5.33804 22.6926 5.29155 22.7593 5.25978 22.8333C5.22801 22.9073 5.21162 22.987 5.21162 23.0675C5.21162 23.148 5.22801 23.2277 5.25978 23.3017C5.29155 23.3757 5.33804 23.4425 5.39642 23.4979L11.8912 30.0003C12.0305 30.145 12.1075 30.3385 12.1057 30.5393C12.1038 30.7401 12.0232 30.9321 11.8812 31.0741C11.7392 31.2161 11.5471 31.2967 11.3463 31.2985C11.1455 31.3004 10.952 31.2233 10.8074 31.084L4.30508 24.5893C3.91662 24.1982 3.69368 23.6725 3.6825 23.1213V14.6593C3.68068 14.2222 3.50577 13.8037 3.19605 13.4952C2.88634 13.1868 2.46705 13.0137 2.02996 13.0137C1.59287 13.0137 1.17359 13.1868 0.863885 13.4953C0.55418 13.8037 0.37928 14.2223 0.377468 14.6594V24.2512C0.374267 25.1331 0.66048 25.9917 1.1922 26.6953L7.55625 35.1807C8.28369 36.1524 8.67735 37.3333 8.67845 38.5472V39.9999H17.8556C17.7738 27.7235 19.1813 30.9883 10.2003 22.6678Z" fill="white"/>
</svg>
