<svg width="76" height="76" viewBox="0 0 76 76" fill="none" xmlns="http://www.w3.org/2000/svg">
<g clip-path="url(#clip0_810_93)" filter="url(#filter0_i_810_93)">
<path d="M73.6635 10.9753L50.1929 37.3294C50.126 37.4019 50.0447 37.4597 49.9543 37.4992C49.8639 37.5388 49.7663 37.5592 49.6676 37.5592C49.569 37.5592 49.4714 37.5388 49.381 37.4992C49.2906 37.4597 49.2093 37.4019 49.1424 37.3294L37.1612 24.9682C37.0596 24.8414 37.0043 24.6837 37.0043 24.5212C37.0043 24.3587 37.0596 24.201 37.1612 24.0741L41.1176 19C41.1839 18.9077 41.2711 18.8325 41.3722 18.7806C41.4733 18.7288 41.5852 18.7017 41.6988 18.7017C41.8124 18.7017 41.9244 18.7288 42.0255 18.7806C42.1265 18.8325 42.2138 18.9077 42.28 19L48.9859 26.4212C49.053 26.5011 49.1368 26.5653 49.2314 26.6094C49.326 26.6535 49.4292 26.6763 49.5335 26.6763C49.6379 26.6763 49.741 26.6535 49.8356 26.6094C49.9302 26.5653 50.014 26.5011 50.0812 26.4212L68.7682 0.804706C68.8202 0.729003 68.851 0.640758 68.8573 0.549143C68.8637 0.457528 68.8453 0.365888 68.8043 0.283749C68.7632 0.201611 68.7009 0.131972 68.6238 0.0820719C68.5467 0.032172 68.4576 0.00383274 68.3659 0H2.55882C2.41061 0 2.26848 0.0588759 2.16368 0.163676C2.05888 0.268475 2 0.410614 2 0.558824V75.4412C2 75.5894 2.05888 75.7315 2.16368 75.8363C2.26848 75.9411 2.41061 76 2.55882 76H74.0882C74.2364 76 74.3786 75.9411 74.4834 75.8363C74.5882 75.7315 74.6471 75.5894 74.6471 75.4412V11.3106C74.6915 11.1802 74.6824 11.0374 74.6216 10.9138C74.5608 10.7901 74.4534 10.6956 74.3229 10.6512C74.1925 10.6067 74.0498 10.6159 73.9261 10.6767C73.8024 10.7375 73.708 10.8449 73.6635 10.9753ZM22.2518 67.6624C17.556 67.899 12.9531 66.2952 9.42118 63.1918C9.3096 63.0652 9.24803 62.9023 9.24803 62.7335C9.24803 62.5648 9.3096 62.4019 9.42118 62.2753L12.2153 58.3635C12.2614 58.2834 12.3231 58.2133 12.3968 58.1574C12.4704 58.1015 12.5545 58.0609 12.6441 58.038C12.7336 58.0151 12.8269 58.0103 12.9183 58.024C13.0098 58.0377 13.0975 58.0695 13.1765 58.1176C15.7289 60.4841 19.0841 61.7942 22.5647 61.7835C26.2306 61.7835 28.0188 60.0847 28.0188 58.2965C28.0188 52.7529 9.95765 56.5529 9.95765 44.7506C9.95765 39.5424 14.4282 35.2059 21.8494 35.2059C26.1083 35.0545 30.2777 36.4522 33.5847 39.14C33.709 39.2691 33.7784 39.4414 33.7784 39.6206C33.7784 39.7998 33.709 39.9721 33.5847 40.1012L30.8353 43.9235C30.7785 43.9996 30.7067 44.0631 30.6244 44.1103C30.5421 44.1574 30.4509 44.1871 30.3566 44.1976C30.2623 44.2081 30.1668 44.1991 30.0762 44.1712C29.9855 44.1433 29.9015 44.097 29.8294 44.0353C27.3909 42.0972 24.3606 41.0555 21.2459 41.0847C18.3847 41.0847 16.7753 42.3588 16.7753 44.2365C16.7753 49.2212 34.7918 45.8906 34.7918 57.6482C34.7918 63.3259 30.7012 67.6624 22.2294 67.6624H22.2518ZM61.6376 56.7765C61.6408 56.8595 61.6267 56.9423 61.5964 57.0196C61.5661 57.097 61.5201 57.1673 61.4613 57.226C61.4025 57.2848 61.3323 57.3308 61.2549 57.3611C61.1776 57.3914 61.0948 57.4055 61.0118 57.4024H44.4706C44.4441 57.4051 44.4184 57.4131 44.3951 57.4259C44.3717 57.4387 44.3511 57.456 44.3345 57.4768C44.3178 57.4976 44.3055 57.5214 44.2982 57.547C44.2908 57.5726 44.2887 57.5994 44.2918 57.6259C44.56 59.1716 45.3969 60.561 46.638 61.5207C47.879 62.4804 49.4342 62.9409 50.9976 62.8118C53.0493 62.7683 55.0415 62.1146 56.72 60.9341C56.7855 60.8792 56.8619 60.8388 56.9442 60.8157C57.0265 60.7925 57.1127 60.7871 57.1973 60.7998C57.2818 60.8124 57.3627 60.8429 57.4345 60.8892C57.5064 60.9355 57.5676 60.9965 57.6141 61.0682L59.6259 63.9965C59.7097 64.1265 59.7424 64.283 59.7176 64.4358C59.6929 64.5885 59.6124 64.7266 59.4918 64.8235C56.8359 66.7617 53.6139 67.7676 50.3271 67.6847C48.6851 67.7763 47.0422 67.5238 45.5036 66.9433C43.965 66.3628 42.5646 65.4672 41.3924 64.3139C40.2201 63.1606 39.3018 61.775 38.6964 60.2461C38.0909 58.7171 37.8116 57.0785 37.8765 55.4353C37.8309 53.8315 38.111 52.2351 38.6997 50.7427C39.2885 49.2502 40.1737 47.8925 41.3019 46.7518C42.4301 45.611 43.7779 44.7108 45.2638 44.1056C46.7497 43.5004 48.3429 43.2027 49.9471 43.2306C56.8988 43.2306 61.6153 48.4388 61.6153 56.0612L61.6376 56.7765Z" stroke="#121212" stroke-width="2"/>
</g>
<defs>
<filter id="filter0_i_810_93" x="0" y="0" width="76" height="80" filterUnits="userSpaceOnUse" color-interpolation-filters="sRGB">
<feFlood flood-opacity="0" result="BackgroundImageFix"/>
<feBlend mode="normal" in="SourceGraphic" in2="BackgroundImageFix" result="shape"/>
<feColorMatrix in="SourceAlpha" type="matrix" values="0 0 0 0 0 0 0 0 0 0 0 0 0 0 0 0 0 0 127 0" result="hardAlpha"/>
<feOffset dy="4"/>
<feGaussianBlur stdDeviation="2"/>
<feComposite in2="hardAlpha" operator="arithmetic" k2="-1" k3="1"/>
<feColorMatrix type="matrix" values="0 0 0 0 0 0 0 0 0 0 0 0 0 0 0 0 0 0 0.25 0"/>
<feBlend mode="normal" in2="shape" result="effect1_innerShadow_810_93"/>
</filter>
<clipPath id="clip0_810_93">
<rect width="76" height="76" fill="white"/>
</clipPath>
</defs>
</svg>
