<svg width="76" height="76" viewBox="0 0 76 76" fill="none" xmlns="http://www.w3.org/2000/svg">
<g filter="url(#filter0_i_810_123)">
<mask id="mask0_810_123" style="mask-type:luminance" maskUnits="userSpaceOnUse" x="0" y="0" width="76" height="76">
<path d="M76 0H0V76H76V0Z" fill="white"/>
</mask>
<g mask="url(#mask0_810_123)">
<path d="M0 0H76V76H0V0Z" stroke="#121212" stroke-width="2"/>
<path d="M69.7798 57.8745C69.2236 54.4068 66.9623 51.4954 60.2654 48.779C57.9392 47.7098 55.3456 46.9441 54.5726 45.1813C54.2981 44.1555 54.262 43.5775 54.4354 42.9562C54.9338 40.9406 57.3395 40.3121 59.2468 40.8901C60.4749 41.3019 61.638 42.2483 62.3388 43.7581C65.6186 41.6343 65.6114 41.6486 67.9015 40.1894C67.0635 38.889 66.6156 38.2893 66.0665 37.7331C64.0943 35.5297 61.4068 34.3955 57.1084 34.4822C56.3643 34.5761 55.613 34.6771 54.8688 34.7711C52.7233 35.313 50.6787 36.44 49.4795 37.9498C45.8817 42.0316 46.9076 49.1764 51.2855 52.1168C55.5985 55.3533 61.9342 56.0901 62.7433 59.1171C63.5308 62.8232 60.0198 64.0224 56.5304 63.5962C53.9585 63.0616 52.5282 61.754 50.9821 59.3772C48.1358 61.0244 48.1358 61.0244 45.21 62.7076C45.9035 64.2247 46.6331 64.9111 47.7963 66.2259C53.3012 71.8103 67.0779 71.5358 69.5487 63.0833C69.6498 62.7943 70.3145 60.8581 69.7798 57.8745ZM41.316 34.93H34.2072C34.2072 41.0707 34.1784 47.168 34.1784 53.3087C34.1784 57.2171 34.3807 60.8003 33.7449 61.8984C32.7046 64.0584 30.01 63.7912 28.7818 63.3721C27.532 62.7581 26.8963 61.8839 26.1594 60.6486C25.9571 60.2946 25.8054 60.0201 25.7547 59.9984C23.8259 61.176 21.9042 62.3607 19.9753 63.5384C20.9362 65.5106 22.3521 67.2228 24.1654 68.3352C26.8745 69.9607 30.5156 70.4592 34.3229 69.5851C36.8008 68.8626 38.9392 67.3673 40.0589 65.0916C41.6772 62.1079 41.3304 58.4958 41.316 54.5007C41.3521 47.9844 41.316 41.468 41.316 34.93Z" stroke="#121212" stroke-width="2"/>
</g>
</g>
<defs>
<filter id="filter0_i_810_123" x="0" y="0" width="76" height="80" filterUnits="userSpaceOnUse" color-interpolation-filters="sRGB">
<feFlood flood-opacity="0" result="BackgroundImageFix"/>
<feBlend mode="normal" in="SourceGraphic" in2="BackgroundImageFix" result="shape"/>
<feColorMatrix in="SourceAlpha" type="matrix" values="0 0 0 0 0 0 0 0 0 0 0 0 0 0 0 0 0 0 127 0" result="hardAlpha"/>
<feOffset dy="4"/>
<feGaussianBlur stdDeviation="2"/>
<feComposite in2="hardAlpha" operator="arithmetic" k2="-1" k3="1"/>
<feColorMatrix type="matrix" values="0 0 0 0 0 0 0 0 0 0 0 0 0 0 0 0 0 0 0.25 0"/>
<feBlend mode="normal" in2="shape" result="effect1_innerShadow_810_123"/>
</filter>
</defs>
</svg>
