<svg width="76" height="78" viewBox="0 0 76 78" fill="none" xmlns="http://www.w3.org/2000/svg">
<g filter="url(#filter0_i_810_54)">
<path d="M3.31738 45.3304V35.7754C3.82698 40.107 20.5163 52.762 28.7973 58.5481C37.0783 65.0455 45.4124 60.406 48.5443 57.2741C65.998 45.4259 71.6355 38.3234 72.2724 36.2531V43.4194C72.6546 47.114 55.2327 60.2467 46.474 66.3513C38.83 72.0843 31.0799 68.3154 28.1603 65.7143L3.31738 45.3304Z" stroke="#121212" stroke-width="2"/>
<path d="M3.31738 45.3292V37.6852C7.13937 41.0294 16.5351 48.0364 28.7973 58.5469C37.0783 65.0443 44.8815 60.2986 48.5443 57.2729C66.0617 44.5329 71.6355 38.3222 72.2724 36.252V43.4182C72.6546 47.1128 55.2327 60.2456 46.474 66.3501C38.83 72.0831 31.0799 68.3142 28.1603 65.7131L3.31738 45.3292Z" stroke="#121212" stroke-width="2"/>
<path d="M3.31738 37.8456V28.2907C5.54688 32.7497 20.8348 45.1711 28.7973 51.0634C36.6005 56.6371 45.4124 52.9213 48.5443 49.7894C66.858 35.6161 71.1577 28.9277 71.7947 26.8574L72.2724 35.9346C72.6546 39.6292 55.2327 52.762 46.474 58.8666C38.83 64.5996 31.0799 60.8307 28.1603 58.2296L3.31738 37.8456Z" stroke="#121212" stroke-width="2"/>
<path d="M3.63568 29.4051C1.40632 24.7867 5.59975 22.345 7.61691 20.4871L29.9119 2.96963C37.1736 -0.59756 43.0234 1.4833 45.0406 2.96963L67.4948 20.4871C73.1003 24.4365 72.1661 29.2458 70.9983 31.1568C69.2147 34.8514 56.2411 44.4807 49.9773 48.8335C41.4415 56.6049 33.5746 54.5134 30.7081 52.4962C17.0764 43.4509 6.97992 33.3332 3.63568 29.4051Z" stroke="#121212" stroke-width="2"/>
<path d="M3.31738 52.9737V44.5335C7.77637 48.9925 20.9941 59.5029 28.7973 66.1914C37.2375 72.0837 44.4038 67.9432 48.5443 64.9174C65.1062 52.8145 71.6355 45.9667 72.2724 43.8965V51.0627C72.6546 54.7573 55.2327 67.8901 46.474 73.9947C38.83 79.7276 31.0799 75.9587 28.1603 73.3577L3.31738 52.9737Z" stroke="#121212" stroke-width="2"/>
<path d="M46.3366 30.2283L45.3347 31.1394L35.3161 23.2781L34.5603 23.8953L39.9958 34.7654L38.9665 36.1394L24.8181 31.3201L24.3425 32.1824L33.7829 39.7947L32.5808 40.9969L19.3386 30.4637L20.8269 28.8611L36.7693 33.8631L37.9343 34.2283L37.3601 33.1512L31.0241 21.2517L32.9421 19.6922L46.3366 30.2283Z" stroke="#121212"/>
<path d="M49.6644 25.1768L49.9691 25.4209L50.2806 25.1846L56.6673 20.3174L57.7581 21.1348L49.9691 27.3379L36.2992 16.9727L37.8744 15.7119L49.6644 25.1768Z" stroke="#121212"/>
</g>
<defs>
<filter id="filter0_i_810_54" x="0" y="-0.00012207" width="76" height="82.0036" filterUnits="userSpaceOnUse" color-interpolation-filters="sRGB">
<feFlood flood-opacity="0" result="BackgroundImageFix"/>
<feBlend mode="normal" in="SourceGraphic" in2="BackgroundImageFix" result="shape"/>
<feColorMatrix in="SourceAlpha" type="matrix" values="0 0 0 0 0 0 0 0 0 0 0 0 0 0 0 0 0 0 127 0" result="hardAlpha"/>
<feOffset dy="4"/>
<feGaussianBlur stdDeviation="2"/>
<feComposite in2="hardAlpha" operator="arithmetic" k2="-1" k3="1"/>
<feColorMatrix type="matrix" values="0 0 0 0 0 0 0 0 0 0 0 0 0 0 0 0 0 0 0.25 0"/>
<feBlend mode="normal" in2="shape" result="effect1_innerShadow_810_54"/>
</filter>
</defs>
</svg>
