<svg width="34" height="40" viewBox="0 0 34 40" fill="none" xmlns="http://www.w3.org/2000/svg">
<path fill-rule="evenodd" clip-rule="evenodd" d="M5.82496 26.715L7.17129 28.0614C7.23351 28.1236 7.30742 28.1729 7.38878 28.2064C7.47013 28.2399 7.5573 28.257 7.64528 28.2566C7.73326 28.2563 7.8203 28.2385 7.90138 28.2044C7.98246 28.1702 8.05598 28.1204 8.11771 28.0577L9.04271 27.2179V25.5102C9.04271 25.4813 9.04121 25.4527 9.03846 25.4244L7.66546 26.6704L6.76737 25.7723C6.64138 25.6522 6.47342 25.5862 6.29937 25.5883C6.12532 25.5904 5.95899 25.6605 5.83593 25.7835C5.71286 25.9066 5.64282 26.073 5.64077 26.247C5.63872 26.4211 5.70483 26.589 5.82496 26.715ZM5.82496 18.9374L7.17146 20.2833C7.23368 20.3455 7.30759 20.3948 7.38894 20.4283C7.47029 20.4618 7.55747 20.4789 7.64545 20.4785C7.73343 20.4782 7.82047 20.4604 7.90155 20.4263C7.98263 20.3921 8.05615 20.3423 8.11787 20.2796L9.04287 19.4398V17.7327C9.04287 17.7037 9.04138 17.675 9.03863 17.6468L7.66563 18.8928L6.76754 17.9947C6.6418 17.8732 6.47339 17.8061 6.29859 17.8076C6.12379 17.8091 5.95659 17.8793 5.833 18.0029C5.7094 18.1265 5.6393 18.2937 5.6378 18.4685C5.6363 18.6433 5.70351 18.8117 5.82496 18.9374ZM21.9059 26.9858L23.5823 28.6623C23.6445 28.7245 23.7184 28.7737 23.7998 28.8072C23.8811 28.8407 23.9683 28.8578 24.0563 28.8575C24.1443 28.8571 24.2313 28.8393 24.3124 28.8052C24.3935 28.7711 24.467 28.7212 24.5287 28.6585L28.5733 24.9879C28.6388 24.9293 28.692 24.8584 28.73 24.7791C28.7679 24.6998 28.7897 24.6138 28.7942 24.526C28.7988 24.4383 28.7858 24.3505 28.7562 24.2678C28.7266 24.185 28.6809 24.109 28.6218 24.044C28.5627 23.979 28.4912 23.9263 28.4116 23.8891C28.332 23.8519 28.2458 23.8308 28.158 23.827C28.0702 23.8232 27.9826 23.8369 27.9001 23.8672C27.8176 23.8975 27.7419 23.9439 27.6775 24.0036L24.0768 27.2713L22.8486 26.0432C22.723 25.9212 22.5544 25.8535 22.3793 25.8547C22.2042 25.856 22.0366 25.9261 21.9128 26.05C21.7889 26.1738 21.7188 26.3414 21.7175 26.5165C21.7162 26.6916 21.7839 26.8602 21.9059 26.9858ZM33.4059 23.9964C31.8293 22.5168 32.0381 22.8786 31.545 20.7733C31.4576 20.3839 31.2446 20.034 30.9389 19.7775C30.6331 19.521 30.2516 19.372 29.8529 19.3536C27.6945 19.2334 28.0866 19.3763 26.3557 18.0807C26.0384 17.8386 25.6504 17.7074 25.2513 17.7074C24.8521 17.7074 24.4641 17.8386 24.1468 18.0807C22.416 19.3763 22.8083 19.2333 20.65 19.3536C20.2513 19.372 19.8697 19.521 19.564 19.7775C19.2583 20.034 19.0453 20.3839 18.9579 20.7733C18.4647 22.8786 18.6736 22.5168 17.097 23.9964C16.8036 24.2668 16.6072 24.6262 16.5379 25.0192C16.4687 25.4121 16.5304 25.817 16.7137 26.1714C17.6887 28.101 17.6166 27.6897 17.36 29.8366C17.3088 30.2324 17.3891 30.6341 17.5886 30.9798C17.788 31.3255 18.0955 31.5961 18.4638 31.75C20.4514 32.6012 20.1314 32.3327 21.3148 34.1423C21.5301 34.4783 21.8499 34.7342 22.225 34.8707C22.6 35.0072 23.0095 35.0167 23.3905 34.8978C25.4601 34.2723 25.0425 34.2723 27.1122 34.8978C27.4932 35.0167 27.9026 35.0072 28.2777 34.8707C28.6527 34.7342 28.9724 34.4783 29.1878 34.1423C30.3711 32.3327 30.0512 32.6012 32.0388 31.75C32.4071 31.5963 32.7147 31.3258 32.9142 30.9802C33.1138 30.6345 33.1942 30.2329 33.1432 29.8371C32.8866 27.6902 32.8141 28.1015 33.7895 26.1719C33.9728 25.8174 34.0346 25.4124 33.9653 25.0194C33.8961 24.6263 33.6995 24.2669 33.406 23.9964H33.4059ZM25.2512 31.5016C24.231 31.5016 23.2337 31.1991 22.3854 30.6322C21.5371 30.0654 20.876 29.2598 20.4855 28.3173C20.0951 27.3747 19.993 26.3375 20.192 25.3369C20.391 24.3363 20.8823 23.4172 21.6037 22.6958C22.3251 21.9744 23.2442 21.4831 24.2449 21.284C25.2455 21.085 26.2827 21.1871 27.2252 21.5776C28.1678 21.968 28.9734 22.6292 29.5402 23.4774C30.107 24.3257 30.4095 25.323 30.4095 26.3432C30.4095 27.7113 29.8661 29.0233 28.8987 29.9907C27.9314 30.9581 26.6193 31.5016 25.2512 31.5016ZM27.6916 36.3118C28.2119 36.3055 28.7226 36.1707 29.1783 35.9195C29.6339 35.6683 30.0205 35.3084 30.3035 34.8718C31.0059 33.7978 30.7785 33.7398 31.8505 33.2808L33.4838 37.0742L30.4874 36.4605L28.875 39.0594L27.6916 36.3118ZM21.568 40L20.0314 37.3555L17.0183 37.8819L19.076 33.4624C19.583 33.6796 19.8833 34.3892 20.199 34.8718C20.5272 35.3784 20.9938 35.7802 21.5434 36.0297C22.093 36.2791 22.7026 36.3659 23.3 36.2795L21.568 40ZM12.6293 2.11167C12.4304 2.11167 12.236 2.17064 12.0707 2.28112C11.9053 2.3916 11.7764 2.54863 11.7003 2.73236C11.6242 2.91609 11.6043 3.11825 11.6431 3.3133C11.6819 3.50834 11.7777 3.68751 11.9183 3.82813C12.0589 3.96876 12.238 4.06453 12.4331 4.10334C12.6281 4.14214 12.8303 4.12224 13.014 4.04615C13.1978 3.97006 13.3548 3.8412 13.4653 3.67585C13.5758 3.51051 13.6348 3.31612 13.6348 3.11725C13.6348 2.85057 13.5289 2.59481 13.3403 2.40622C13.1517 2.21764 12.896 2.11169 12.6293 2.11167ZM7.92371 6.545L6.73954 4.54717L5.55537 6.545H7.92371ZM19.7032 6.545L18.519 4.54717L17.3349 6.545H19.7032ZM21.828 0.666667V3.42333H24.5847L21.828 0.666667ZM21.4911 4.75667C21.2269 4.75642 20.9736 4.65136 20.7868 4.46453C20.5999 4.2777 20.4949 4.02438 20.4946 3.76017V0H0.666625C0.491772 0.00033039 0.324175 0.0699369 0.200535 0.193577C0.0768949 0.317217 0.0072884 0.484814 0.00695801 0.659667V32.0589C0.00731042 32.2338 0.0769268 32.4013 0.200564 32.525C0.324202 32.6486 0.491786 32.7182 0.666625 32.7185H17.4557C16.9567 32.3971 16.5586 31.9412 16.3073 31.4034C16.056 30.8655 15.9618 30.2677 16.0355 29.6787L16.0919 29.2076H13.05C12.8731 29.2076 12.7036 29.1373 12.5786 29.0123C12.4535 28.8873 12.3833 28.7177 12.3833 28.5409C12.3833 28.3641 12.4535 28.1945 12.5786 28.0695C12.7036 27.9445 12.8731 27.8743 13.05 27.8743H16.0795L15.5229 26.7732C15.3863 26.5036 15.2885 26.2162 15.2324 25.9193H13.05C12.8731 25.9193 12.7036 25.849 12.5786 25.724C12.4535 25.599 12.3833 25.4294 12.3833 25.2526C12.3833 25.0758 12.4535 24.9062 12.5786 24.7812C12.7036 24.6562 12.8731 24.5859 13.05 24.5859H15.268C15.4153 23.9875 15.7335 23.4448 16.1839 23.0242C16.8851 22.3658 17.2266 22.3152 17.4339 21.4299H13.05C12.8731 21.4299 12.7036 21.3597 12.5786 21.2347C12.4535 21.1096 12.3833 20.9401 12.3833 20.7633C12.3833 20.5864 12.4535 20.4169 12.5786 20.2918C12.7036 20.1668 12.8731 20.0966 13.05 20.0966H17.77C17.9393 19.6281 18.2175 19.2065 18.5817 18.8666C18.9459 18.5267 19.3856 18.2782 19.8647 18.1417H13.05C12.8731 18.1417 12.7036 18.0714 12.5786 17.9464C12.4535 17.8214 12.3833 17.6518 12.3833 17.475C12.3833 17.2982 12.4535 17.1286 12.5786 17.0036C12.7036 16.8786 12.8731 16.8083 13.05 16.8083H20.7765C20.9136 16.8084 21.0472 16.8506 21.1594 16.9293C21.2715 17.008 21.3567 17.1193 21.4033 17.2482C21.45 17.377 21.4558 17.5171 21.4199 17.6493C21.3841 17.7816 21.3084 17.8996 21.2031 17.9873C22.5074 17.9148 22.2048 17.8686 23.3475 17.0132C23.896 16.5995 24.564 16.3752 25.251 16.3741V4.75667H21.4911ZM11.3608 25.1146L9.08487 27.1801V28.2833C9.08417 28.5258 8.98753 28.7581 8.81607 28.9296C8.64461 29.101 8.41226 29.1977 8.16979 29.1983H5.39679C5.15433 29.1976 4.92199 29.101 4.75054 28.9296C4.57908 28.7581 4.48243 28.5258 4.48171 28.2833V25.5102C4.48243 25.2678 4.57908 25.0355 4.75054 24.864C4.92199 24.6926 5.15433 24.596 5.39679 24.5953H8.16979C8.39144 24.596 8.60536 24.6768 8.77207 24.8229C8.93879 24.9689 9.04705 25.1704 9.07688 25.39L10.465 24.1302C10.5294 24.0705 10.6051 24.0242 10.6876 23.9939C10.7701 23.9636 10.8577 23.9499 10.9455 23.9537C11.0333 23.9574 11.1195 23.9785 11.1991 24.0158C11.2787 24.053 11.3502 24.1056 11.4093 24.1706C11.4684 24.2356 11.5141 24.3117 11.5437 24.3944C11.5733 24.4772 11.5862 24.565 11.5817 24.6527C11.5772 24.7405 11.5554 24.8265 11.5175 24.9057C11.4795 24.985 11.4263 25.056 11.3608 25.1146ZM11.3608 17.337L9.08487 19.4025V20.5057C9.08417 20.7481 8.98754 20.9805 8.81608 21.152C8.64462 21.3234 8.41227 21.42 8.16979 21.4208H5.39679C5.15431 21.42 4.92197 21.3234 4.75051 21.152C4.57905 20.9805 4.48241 20.7481 4.48171 20.5057V17.7327C4.48243 17.4902 4.57908 17.2579 4.75054 17.0864C4.92199 16.915 5.15433 16.8184 5.39679 16.8177H8.16979C8.39143 16.8184 8.60534 16.8992 8.77205 17.0452C8.93876 17.1913 9.04703 17.3927 9.07688 17.6123L10.465 16.3526C10.5296 16.2938 10.6052 16.2482 10.6874 16.2186C10.7696 16.189 10.8569 16.1759 10.9442 16.18C11.0315 16.1841 11.1171 16.2054 11.1962 16.2426C11.2753 16.2798 11.3463 16.3322 11.4051 16.3969C11.4639 16.4615 11.5094 16.5371 11.539 16.6193C11.5686 16.7016 11.5818 16.7888 11.5776 16.8761C11.5735 16.9634 11.5523 17.049 11.5151 17.1281C11.4778 17.2072 11.4254 17.2782 11.3608 17.337ZM21.5281 7.32325C21.4065 8.02897 21.0407 8.66949 20.4947 9.13285C19.9487 9.5962 19.2572 9.8529 18.5411 9.85807C17.825 9.86325 17.1299 9.61656 16.5772 9.16114C16.0246 8.70573 15.6496 8.07055 15.5178 7.36667C15.4962 7.27649 15.4937 7.18281 15.5104 7.0916C15.527 7.00039 15.5625 6.91366 15.6145 6.83692L17.2266 4.11717C16.6634 4.11608 16.2886 3.97408 15.9011 3.82725C15.5895 3.69352 15.2556 3.61906 14.9166 3.60767C14.8282 4.01842 14.6309 4.39783 14.3455 4.70613C14.06 5.01443 13.6969 5.24028 13.2941 5.36L13.295 10.5077C13.9223 10.6139 14.5151 10.8685 15.024 11.2503C15.533 11.632 15.9433 12.1299 16.2208 12.7024H9.04162C9.31905 12.13 9.72925 11.6322 10.238 11.2505C10.7468 10.8687 11.3395 10.6141 11.9666 10.5078L11.9657 5.36033C11.5627 5.24075 11.1993 5.01492 10.9136 4.70652C10.6279 4.39813 10.4305 4.01855 10.342 3.60758C10.003 3.61897 9.66909 3.69347 9.35738 3.82725C8.96988 3.97408 8.59521 4.11608 8.03187 4.11717L9.65538 6.85625C9.7431 6.99492 9.7763 7.16119 9.74854 7.32292C9.62693 8.02863 9.26115 8.66916 8.71514 9.13251C8.16913 9.59587 7.47763 9.85257 6.76153 9.85774C6.04543 9.86291 5.35029 9.61623 4.79764 9.16081C4.245 8.70539 3.87 8.07022 3.73821 7.36633C3.71668 7.27615 3.71416 7.18248 3.73082 7.09127C3.74748 7.00007 3.78294 6.91333 3.83496 6.83658L6.16137 2.91158C6.2372 2.77859 6.35658 2.67581 6.49937 2.6206C6.64217 2.56539 6.79963 2.56111 6.94521 2.6085C8.03438 2.9055 8.44954 2.74842 8.88863 2.582C9.30671 2.42367 9.74038 2.25933 10.4494 2.26775C10.6205 1.82881 10.9201 1.45175 11.309 1.18592C11.698 0.920083 12.1581 0.777859 12.6292 0.777859C13.1003 0.777859 13.5604 0.920083 13.9494 1.18592C14.3383 1.45175 14.6379 1.82881 14.809 2.26775C15.518 2.25942 15.9517 2.42358 16.3698 2.582C16.8086 2.74825 17.2235 2.90533 18.3109 2.60908C18.455 2.5617 18.6111 2.56498 18.7531 2.61839C18.8951 2.67179 19.0147 2.77212 19.0919 2.90275L21.435 6.85575C21.5229 6.99466 21.5561 7.16126 21.5281 7.32325Z" fill="white"/>
</svg>
