<svg width="40" height="40" viewBox="0 0 40 40" fill="none" xmlns="http://www.w3.org/2000/svg">
<path fill-rule="evenodd" clip-rule="evenodd" d="M8.81444 2.1121C9.30726 2.23806 9.77242 2.43323 10.199 2.68621L11.9322 1.43137L13.319 2.81815L12.0641 4.55129C12.3171 4.97798 12.5121 5.44314 12.6381 5.93581L14.7503 6.27387V8.23508L12.6382 8.57314C12.5122 9.06597 12.3171 9.53105 12.064 9.95774L13.3189 11.6909L11.9321 13.0777L10.199 11.8228C9.77226 12.0758 9.3071 12.2708 8.81444 12.3969L8.47637 14.509H6.51516L6.1771 12.3969C5.68428 12.271 5.2192 12.0758 4.7925 11.8227L3.05936 13.0776L1.67258 11.6908L2.92742 9.95766C2.67436 9.53105 2.47944 9.06589 2.35339 8.57314L0.241211 8.23508V6.27403L2.35347 5.93597C2.47944 5.44323 2.67444 4.97806 2.9275 4.55145L1.67266 2.81831L3.05936 1.43145L4.79242 2.68621C5.21911 2.43314 5.68428 2.23806 6.1771 2.1121L6.51516 0H8.47637L8.81444 2.1121ZM28.5549 35.6805H5.34444C4.02686 35.6805 2.83105 35.1435 1.96484 34.2773C1.09863 33.411 0.561614 32.2152 0.561614 30.8977V26.002C0.561614 24.6844 1.09863 23.4886 1.96484 22.6224C2.83105 21.7562 4.02686 21.2192 5.34444 21.2192L8.0796 21.2194C8.05581 21.4287 8.04323 21.6412 8.04323 21.8566C8.04323 22.072 8.05589 22.2845 8.0796 22.4938L5.34444 22.494C4.37879 22.494 3.50186 22.8881 2.86613 23.5238C2.2304 24.1595 1.83629 25.0365 1.83629 26.0021V30.8978C1.83629 31.8635 2.2304 32.7404 2.86613 33.3761C3.50178 34.0118 4.37871 34.4059 5.34444 34.4059H28.5549V35.6805ZM33.9614 21.2215C33.985 21.43 33.9975 21.6418 33.9975 21.8565C33.9975 22.071 33.9849 22.2829 33.9614 22.4915L34.9761 22.4914V22.4939C36.2936 22.4939 37.4895 21.9569 38.3557 21.0906C39.2219 20.2244 39.759 19.0286 39.759 17.711V11.4001C39.759 10.0826 39.2219 8.88669 38.3557 8.02048C37.4895 7.15427 36.2937 6.61726 34.9761 6.61726H16.0406V7.89202H34.9761C35.9418 7.89202 36.8187 8.28613 37.4544 8.92177C38.0901 9.55742 38.4842 10.4344 38.4842 11.4V17.711C38.4842 18.6766 38.0901 19.5535 37.4544 20.1892C36.8187 20.8249 35.9418 21.219 34.9761 21.219V21.2215H33.9614ZM30.8715 30.0863H38.7328C39.2973 30.0863 39.759 30.5481 39.759 31.1125V38.9738C39.759 39.5382 39.2973 40 38.7328 40H30.8715C30.307 40 29.8452 39.5382 29.8452 38.9738V31.1125C29.8452 30.5481 30.307 30.0863 30.8715 30.0863ZM13.682 17.5079C11.2903 17.5079 9.33347 19.4648 9.33347 21.8565C9.33347 24.2483 11.2903 26.2052 13.682 26.2052H28.3586C30.7503 26.2052 32.7073 24.2483 32.7073 21.8565C32.7073 19.4648 30.7504 17.5079 28.3586 17.5079H13.682ZM32.2602 35.2905L33.9835 37.0138C34.2324 37.2627 34.636 37.2627 34.8848 37.0138C34.9019 36.9967 34.9178 36.9788 34.9326 36.9603L37.3887 33.924C37.6101 33.6504 37.5677 33.2491 37.2941 33.0277C37.0205 32.8064 36.6192 32.8487 36.3978 33.1223L34.3841 35.6117L33.1616 34.3892C32.9127 34.1403 32.5092 34.1403 32.2603 34.3892C32.0114 34.6381 32.0114 35.0415 32.2602 35.2905ZM13.7085 22.4939H18.4127C18.7647 22.4939 19.0501 22.2085 19.0501 21.8565C19.0501 21.5044 18.7648 21.219 18.4127 21.219H13.7085C13.3565 21.219 13.0712 21.5044 13.0712 21.8565C13.0711 22.2085 13.3565 22.4939 13.7085 22.4939ZM21.276 22.4939H28.3321C28.6841 22.4939 28.9695 22.2085 28.9695 21.8565C28.9695 21.5044 28.6841 21.219 28.3321 21.219H21.276C20.924 21.219 20.6385 21.5044 20.6385 21.8565C20.6386 22.2085 20.924 22.4939 21.276 22.4939ZM7.49573 4.35677C5.89532 4.35677 4.5979 5.65419 4.5979 7.2546C4.5979 8.855 5.89532 10.1524 7.49573 10.1524C9.09613 10.1524 10.3935 8.855 10.3935 7.2546C10.3935 5.65419 9.09613 4.35677 7.49573 4.35677Z" fill="white"/>
</svg>
