<svg width="79" height="80" viewBox="0 0 79 80" fill="none" xmlns="http://www.w3.org/2000/svg">
<g filter="url(#filter0_i_810_239)">
<path d="M39.3941 41.8844C39.1088 42.2898 38.8684 42.6235 38.637 42.9607C34.9464 48.3927 31.2569 53.8241 27.5686 59.2548C24.1374 64.3065 20.7027 69.3551 17.2644 74.4008C17.2073 74.48 17.1342 74.5464 17.0499 74.5955C16.9655 74.6447 16.8717 74.6755 16.7746 74.686C11.9203 74.6442 7.0672 74.5915 2.21527 74.5282C2.16145 74.5282 2.10584 74.512 2 74.4959C2.03919 74.3944 2.08472 74.2956 2.13634 74.1999C5.52204 68.9509 8.90775 63.7031 12.2935 58.4565C15.2965 53.8067 18.3013 49.1581 21.3079 44.5107C24.6397 39.3466 27.9698 34.1789 31.2981 29.0077C31.7897 28.2453 32.3009 27.4972 32.7673 26.7205C32.8869 26.5125 32.9229 26.2669 32.8678 26.0334C31.9709 23.1739 31.056 20.3216 30.1429 17.4693C29.7518 16.2476 29.3428 15.0331 28.9768 13.8043C28.8584 13.4097 28.6629 13.2895 28.2593 13.2913C25.2096 13.3038 22.1779 13.3002 19.1372 13.3002C18.5596 13.3002 18.5578 13.3002 18.5578 12.7298C18.5578 8.99126 18.5578 5.25275 18.547 1.51424C18.547 1.09805 18.6834 1.00477 19.0744 1.00477C25.1964 1.01553 31.3197 1.01553 37.4441 1.00477C37.5863 0.98658 37.7303 1.02079 37.8491 1.10101C37.968 1.18124 38.0536 1.30198 38.0899 1.44069C41.3189 9.56232 44.548 17.681 47.777 25.7966C51.5442 35.2613 55.3114 44.7271 59.0786 54.1942C60.2482 57.1326 61.4268 60.0693 62.5839 63.0149C62.7221 63.3736 62.8656 63.4418 63.2279 63.3306C66.4372 62.3386 69.6537 61.3734 72.8612 60.3796C73.2649 60.254 73.412 60.3383 73.5375 60.7384C74.6318 64.1773 75.7476 67.6091 76.8563 71.0444C76.8939 71.1628 76.9226 71.283 76.9675 71.448C76.7379 71.5323 76.5226 71.6274 76.3019 71.6884C69.0067 74.0002 61.7157 76.3131 54.4288 78.6273C54.0808 78.7367 53.9767 78.6183 53.8601 78.3259C51.6345 72.6858 49.4035 67.0482 47.1671 61.4129C44.9797 55.8948 42.7911 50.3768 40.6013 44.8587C40.2731 44.0299 39.9502 43.1975 39.6219 42.3687C39.5699 42.227 39.4981 42.1032 39.3941 41.8844Z" stroke="#121212" stroke-width="2"/>
</g>
<defs>
<filter id="filter0_i_810_239" x="0.618637" y="0" width="77.5546" height="83.6675" filterUnits="userSpaceOnUse" color-interpolation-filters="sRGB">
<feFlood flood-opacity="0" result="BackgroundImageFix"/>
<feBlend mode="normal" in="SourceGraphic" in2="BackgroundImageFix" result="shape"/>
<feColorMatrix in="SourceAlpha" type="matrix" values="0 0 0 0 0 0 0 0 0 0 0 0 0 0 0 0 0 0 127 0" result="hardAlpha"/>
<feOffset dy="4"/>
<feGaussianBlur stdDeviation="2"/>
<feComposite in2="hardAlpha" operator="arithmetic" k2="-1" k3="1"/>
<feColorMatrix type="matrix" values="0 0 0 0 0 0 0 0 0 0 0 0 0 0 0 0 0 0 0.25 0"/>
<feBlend mode="normal" in2="shape" result="effect1_innerShadow_810_239"/>
</filter>
</defs>
</svg>
