<svg width="156" height="145" viewBox="0 0 156 145" fill="none" xmlns="http://www.w3.org/2000/svg">
<mask id="path-1-outside-1_316_6037" maskUnits="userSpaceOnUse" x="0" y="0.0693359" width="156" height="144" fill="black">
<rect fill="white" y="0.0693359" width="156" height="144"/>
<path fill-rule="evenodd" clip-rule="evenodd" d="M5.68747 72.1075L14.0886 31.4368C14.2578 30.6664 14.5851 29.9394 15.0496 29.3019C15.5142 28.6645 16.1059 28.1305 16.7874 27.7336C17.2665 27.4424 17.8035 27.259 18.3607 27.1964C18.9179 27.1337 19.4821 27.1932 20.014 27.3706C20.0881 27.3945 20.1625 27.4155 20.2395 27.4336C23.2619 28.0713 24.2745 31.2001 24.2115 33.9169L23.6773 57.7419C22.8009 58.1293 21.9952 58.6602 21.2934 59.3126L20.9939 59.5885C19.3736 61.1006 18.3802 63.1663 18.2103 65.3763C18.0403 67.5865 18.7065 69.7798 20.0766 71.5219L38.8059 95.1382C39.1003 95.5059 39.5283 95.7419 39.9963 95.7947C40.4643 95.8475 40.9341 95.7127 41.303 95.4199C41.6719 95.127 41.9097 94.7 41.9648 94.232C42.0198 93.7641 41.8872 93.2935 41.5963 92.923L22.8666 69.3078C22.0373 68.277 21.6321 66.9685 21.7335 65.6491C21.835 64.3298 22.4354 63.0988 23.4124 62.2068L23.7122 61.9264C24.7301 60.9892 26.0765 60.4916 27.459 60.5416C28.8414 60.5916 30.1482 61.1854 31.0957 62.1937L57.9707 90.9606C58.904 91.9278 59.5941 93.1035 59.9838 94.3904C60.3734 95.6771 60.4513 97.0382 60.2113 98.3613L57.213 116.544L30.4575 116.377L30.9533 111.468C31.1018 110.152 30.7393 108.829 29.9408 107.773L6.60744 76.2891C6.15672 75.7026 5.8406 75.0238 5.68156 74.3013C5.52251 73.5787 5.52473 72.8293 5.68747 72.1075ZM27.4083 111.111L26.8773 116.353L24.4224 116.337H24.4096C23.9392 116.337 23.4878 116.523 23.154 116.854C22.8202 117.186 22.6313 117.636 22.6284 118.107L22.4913 140.032C22.4887 140.504 22.6735 140.958 23.005 141.294C23.3367 141.631 23.7879 141.822 24.26 141.826L63.4874 142.069H63.5001C63.9706 142.069 64.4217 141.882 64.7552 141.551C65.0888 141.219 65.278 140.769 65.2813 140.298L65.4186 118.378C65.4201 118.143 65.3754 117.911 65.287 117.694C65.1987 117.477 65.0684 117.279 64.9038 117.113C64.739 116.946 64.5431 116.814 64.3273 116.723C64.1113 116.632 63.8795 116.585 63.6455 116.584L60.8163 116.566L63.7256 98.9394C64.051 97.0782 63.9352 95.1665 63.3877 93.3582C62.84 91.5499 61.8759 89.8954 60.5729 88.5276L33.6995 59.7608C32.8748 58.8787 31.877 58.1763 30.7687 57.6976C29.6602 57.2188 28.4649 56.974 27.2576 56.9782L27.7739 33.9957C27.8885 28.831 25.2683 24.9105 21.0892 23.9704C20.0912 23.6447 19.0353 23.5351 17.9917 23.6488C16.948 23.7626 15.9405 24.0971 15.0359 24.6301C13.9104 25.2749 12.9336 26.1504 12.1695 27.199C11.4054 28.2476 10.8711 29.4458 10.6017 30.7152L2.19876 71.3848C1.9331 72.5976 1.93376 73.8538 2.20068 75.0664C2.46761 76.2791 2.99444 77.4194 3.74481 78.4085L27.0781 109.896C27.2104 110.067 27.3075 110.262 27.364 110.471C27.4204 110.679 27.4362 110.897 27.4083 111.111ZM149.391 76.2887L126.062 107.772C125.26 108.828 124.898 110.153 125.049 111.47L125.545 116.377L98.7895 116.543L95.7913 98.3607C95.5501 97.0379 95.6273 95.6767 96.0164 94.3898C96.4057 93.1028 97.0957 91.9271 98.0293 90.96L124.904 62.1931C125.852 61.1848 127.159 60.591 128.541 60.541C129.923 60.4909 131.27 60.9886 132.288 61.9258L132.59 62.2062C133.567 63.0982 134.168 64.3294 134.269 65.6489C134.37 66.9685 133.964 68.2768 133.134 69.3072L114.404 92.9233C114.113 93.2938 113.981 93.7644 114.036 94.2323C114.091 94.7003 114.329 95.1273 114.698 95.4202C115.067 95.713 115.537 95.8477 116.005 95.795C116.472 95.7422 116.9 95.5062 117.195 95.1385L135.923 71.5222C137.293 69.7813 137.96 67.5889 137.791 65.3795C137.622 63.1701 136.629 61.1048 135.01 59.593L134.706 59.3129C134.004 58.6609 133.2 58.1301 132.325 57.7422L131.788 33.9172C131.729 31.2004 132.738 28.0716 135.76 27.4339C135.837 27.4158 135.914 27.3948 135.986 27.3709C136.518 27.1935 137.082 27.134 137.639 27.1967C138.197 27.2593 138.734 27.4427 139.213 27.7339C139.895 28.1303 140.487 28.6642 140.951 29.3018C141.416 29.9392 141.743 30.6664 141.912 31.4371L150.315 72.1075C150.477 72.8296 150.479 73.5784 150.319 74.301C150.16 75.0234 149.842 75.702 149.391 76.2887ZM145.401 30.7152C145.131 29.4458 144.596 28.2479 143.831 27.1993C143.067 26.1508 142.09 25.2754 140.964 24.6301C140.06 24.0971 139.053 23.7627 138.01 23.6493C136.967 23.5357 135.911 23.6456 134.914 23.9716C130.731 24.9117 128.112 28.8322 128.228 33.9969L128.745 56.9782C127.537 56.9735 126.341 57.2182 125.232 57.697C124.123 58.1758 123.125 58.8784 122.299 59.7608L95.4276 88.5276C94.1233 89.8945 93.1586 91.549 92.6112 93.3576C92.0638 95.1664 91.9491 97.0784 92.2765 98.9394L95.1827 116.566L92.3535 116.584C92.1196 116.585 91.8881 116.633 91.6726 116.724C91.4569 116.815 91.2613 116.947 91.0969 117.114C90.9326 117.28 90.8025 117.478 90.7143 117.695C90.6261 117.911 90.5816 118.143 90.5831 118.378L90.7205 140.298C90.7227 140.769 90.9114 141.22 91.2452 141.552C91.5791 141.884 92.031 142.07 92.5017 142.069H92.5142L131.739 141.826C131.973 141.824 132.205 141.777 132.42 141.686C132.636 141.595 132.832 141.463 132.996 141.296C133.161 141.13 133.291 140.932 133.379 140.715C133.468 140.498 133.512 140.266 133.511 140.032L133.371 118.107C133.368 117.637 133.18 117.187 132.847 116.856C132.514 116.524 132.063 116.338 131.593 116.337H131.581L129.123 116.353L128.595 111.111C128.566 110.897 128.58 110.679 128.637 110.471C128.693 110.262 128.791 110.067 128.924 109.896L152.254 78.4085C153.004 77.4194 153.531 76.2793 153.799 75.0666C154.066 73.8541 154.067 72.5979 153.803 71.3848L145.401 30.7152ZM78.0001 58.2043C81.5301 58.2037 84.9808 57.156 87.9157 55.1935C90.8505 53.231 93.1377 50.442 94.4881 47.1791C95.8386 43.9162 96.1917 40.3259 95.5025 36.8622C94.8134 33.3986 93.1132 30.2172 90.6167 27.7202C88.1204 25.2232 84.9399 23.5231 81.4775 22.8344C78.0153 22.1459 74.4266 22.4999 71.1654 23.8517C67.9043 25.2035 65.117 27.4924 63.156 30.429C61.1952 33.3656 60.1487 36.8179 60.149 40.3495C60.1542 45.084 62.0368 49.623 65.3835 52.9704C68.7302 56.3178 73.2677 58.2 78.0001 58.2043ZM92.2883 40.3495C92.2883 43.1767 91.4502 45.9404 89.8803 48.2911C88.3102 50.6418 86.0788 52.4739 83.4679 53.5558C80.8571 54.6377 77.9843 54.9209 75.2126 54.3693C72.441 53.8177 69.8951 52.4563 67.8968 50.4572C65.8986 48.458 64.5378 45.911 63.9864 43.1383C63.4351 40.3653 63.7181 37.4912 64.7995 34.8792C65.881 32.2672 67.7123 30.0347 70.062 28.4641C72.4116 26.8933 75.1741 26.055 78.0001 26.055C81.7884 26.0591 85.4202 27.5665 88.0988 30.2462C90.7775 32.9261 92.2842 36.5596 92.2883 40.3495ZM79.7816 42.1315V48.6271C79.7816 49.0997 79.5939 49.553 79.2598 49.8872C78.9259 50.2215 78.4728 50.4091 78.0004 50.4091C77.528 50.4091 77.0749 50.2215 76.7408 49.8872C76.4069 49.553 76.2192 49.0997 76.2192 48.6271V42.1331H69.7252C69.2528 42.1331 68.7997 41.9455 68.4656 41.6113C68.1315 41.277 67.944 40.8239 67.944 40.3513C67.944 39.8787 68.1315 39.4254 68.4656 39.0912C68.7997 38.7571 69.2528 38.5693 69.7252 38.5693H76.2189V32.07C76.2189 31.5974 76.4066 31.1441 76.7405 30.8099C77.0746 30.4758 77.5277 30.288 78.0001 30.288C78.4725 30.288 78.9256 30.4758 79.2595 30.8099C79.5936 31.1441 79.7813 31.5974 79.7813 32.07V38.5672H86.2766C86.749 38.5672 87.202 38.755 87.536 39.0892C87.8701 39.4233 88.0578 39.8766 88.0578 40.3492C88.0578 40.8218 87.8701 41.2751 87.536 41.6091C87.202 41.9434 86.749 42.1312 86.2766 42.1312L79.7816 42.1315ZM44.6471 52.3235C52.0001 61.3595 62.8501 71.578 76.8945 82.6974C77.2097 82.9461 77.5996 83.0813 78.001 83.0813C78.4024 83.0813 78.7921 82.9461 79.1074 82.6974C93.1518 71.578 103.999 61.3595 111.352 52.3235C118.853 43.1097 122.977 34.7897 123.609 27.6005C123.614 27.5488 123.616 27.4968 123.614 27.445C123.614 22.1249 121.943 16.9395 118.836 12.6216C115.73 8.30391 111.345 5.07217 106.303 3.38335C101.26 1.69454 95.8144 1.63408 90.7356 3.21054C85.6567 4.78698 81.2017 7.92057 78.0001 12.1684C74.7987 7.92008 70.3435 4.78602 65.2643 3.20927C60.1853 1.63253 54.7393 1.69285 49.6965 3.38173C44.6535 5.07059 40.2687 8.30256 37.1621 12.6207C34.0555 16.9388 32.3842 22.1246 32.3845 27.445C32.3845 27.4981 32.3871 27.5485 32.3898 27.6005C33.0215 34.7897 37.1446 43.1097 44.6471 52.3235Z"/>
</mask>
<path fill-rule="evenodd" clip-rule="evenodd" d="M5.68747 72.1075L14.0886 31.4368C14.2578 30.6664 14.5851 29.9394 15.0496 29.3019C15.5142 28.6645 16.1059 28.1305 16.7874 27.7336C17.2665 27.4424 17.8035 27.259 18.3607 27.1964C18.9179 27.1337 19.4821 27.1932 20.014 27.3706C20.0881 27.3945 20.1625 27.4155 20.2395 27.4336C23.2619 28.0713 24.2745 31.2001 24.2115 33.9169L23.6773 57.7419C22.8009 58.1293 21.9952 58.6602 21.2934 59.3126L20.9939 59.5885C19.3736 61.1006 18.3802 63.1663 18.2103 65.3763C18.0403 67.5865 18.7065 69.7798 20.0766 71.5219L38.8059 95.1382C39.1003 95.5059 39.5283 95.7419 39.9963 95.7947C40.4643 95.8475 40.9341 95.7127 41.303 95.4199C41.6719 95.127 41.9097 94.7 41.9648 94.232C42.0198 93.7641 41.8872 93.2935 41.5963 92.923L22.8666 69.3078C22.0373 68.277 21.6321 66.9685 21.7335 65.6491C21.835 64.3298 22.4354 63.0988 23.4124 62.2068L23.7122 61.9264C24.7301 60.9892 26.0765 60.4916 27.459 60.5416C28.8414 60.5916 30.1482 61.1854 31.0957 62.1937L57.9707 90.9606C58.904 91.9278 59.5941 93.1035 59.9838 94.3904C60.3734 95.6771 60.4513 97.0382 60.2113 98.3613L57.213 116.544L30.4575 116.377L30.9533 111.468C31.1018 110.152 30.7393 108.829 29.9408 107.773L6.60744 76.2891C6.15672 75.7026 5.8406 75.0238 5.68156 74.3013C5.52251 73.5787 5.52473 72.8293 5.68747 72.1075ZM27.4083 111.111L26.8773 116.353L24.4224 116.337H24.4096C23.9392 116.337 23.4878 116.523 23.154 116.854C22.8202 117.186 22.6313 117.636 22.6284 118.107L22.4913 140.032C22.4887 140.504 22.6735 140.958 23.005 141.294C23.3367 141.631 23.7879 141.822 24.26 141.826L63.4874 142.069H63.5001C63.9706 142.069 64.4217 141.882 64.7552 141.551C65.0888 141.219 65.278 140.769 65.2813 140.298L65.4186 118.378C65.4201 118.143 65.3754 117.911 65.287 117.694C65.1987 117.477 65.0684 117.279 64.9038 117.113C64.739 116.946 64.5431 116.814 64.3273 116.723C64.1113 116.632 63.8795 116.585 63.6455 116.584L60.8163 116.566L63.7256 98.9394C64.051 97.0782 63.9352 95.1665 63.3877 93.3582C62.84 91.5499 61.8759 89.8954 60.5729 88.5276L33.6995 59.7608C32.8748 58.8787 31.877 58.1763 30.7687 57.6976C29.6602 57.2188 28.4649 56.974 27.2576 56.9782L27.7739 33.9957C27.8885 28.831 25.2683 24.9105 21.0892 23.9704C20.0912 23.6447 19.0353 23.5351 17.9917 23.6488C16.948 23.7626 15.9405 24.0971 15.0359 24.6301C13.9104 25.2749 12.9336 26.1504 12.1695 27.199C11.4054 28.2476 10.8711 29.4458 10.6017 30.7152L2.19876 71.3848C1.9331 72.5976 1.93376 73.8538 2.20068 75.0664C2.46761 76.2791 2.99444 77.4194 3.74481 78.4085L27.0781 109.896C27.2104 110.067 27.3075 110.262 27.364 110.471C27.4204 110.679 27.4362 110.897 27.4083 111.111ZM149.391 76.2887L126.062 107.772C125.26 108.828 124.898 110.153 125.049 111.47L125.545 116.377L98.7895 116.543L95.7913 98.3607C95.5501 97.0379 95.6273 95.6767 96.0164 94.3898C96.4057 93.1028 97.0957 91.9271 98.0293 90.96L124.904 62.1931C125.852 61.1848 127.159 60.591 128.541 60.541C129.923 60.4909 131.27 60.9886 132.288 61.9258L132.59 62.2062C133.567 63.0982 134.168 64.3294 134.269 65.6489C134.37 66.9685 133.964 68.2768 133.134 69.3072L114.404 92.9233C114.113 93.2938 113.981 93.7644 114.036 94.2323C114.091 94.7003 114.329 95.1273 114.698 95.4202C115.067 95.713 115.537 95.8477 116.005 95.795C116.472 95.7422 116.9 95.5062 117.195 95.1385L135.923 71.5222C137.293 69.7813 137.96 67.5889 137.791 65.3795C137.622 63.1701 136.629 61.1048 135.01 59.593L134.706 59.3129C134.004 58.6609 133.2 58.1301 132.325 57.7422L131.788 33.9172C131.729 31.2004 132.738 28.0716 135.76 27.4339C135.837 27.4158 135.914 27.3948 135.986 27.3709C136.518 27.1935 137.082 27.134 137.639 27.1967C138.197 27.2593 138.734 27.4427 139.213 27.7339C139.895 28.1303 140.487 28.6642 140.951 29.3018C141.416 29.9392 141.743 30.6664 141.912 31.4371L150.315 72.1075C150.477 72.8296 150.479 73.5784 150.319 74.301C150.16 75.0234 149.842 75.702 149.391 76.2887ZM145.401 30.7152C145.131 29.4458 144.596 28.2479 143.831 27.1993C143.067 26.1508 142.09 25.2754 140.964 24.6301C140.06 24.0971 139.053 23.7627 138.01 23.6493C136.967 23.5357 135.911 23.6456 134.914 23.9716C130.731 24.9117 128.112 28.8322 128.228 33.9969L128.745 56.9782C127.537 56.9735 126.341 57.2182 125.232 57.697C124.123 58.1758 123.125 58.8784 122.299 59.7608L95.4276 88.5276C94.1233 89.8945 93.1586 91.549 92.6112 93.3576C92.0638 95.1664 91.9491 97.0784 92.2765 98.9394L95.1827 116.566L92.3535 116.584C92.1196 116.585 91.8881 116.633 91.6726 116.724C91.4569 116.815 91.2613 116.947 91.0969 117.114C90.9326 117.28 90.8025 117.478 90.7143 117.695C90.6261 117.911 90.5816 118.143 90.5831 118.378L90.7205 140.298C90.7227 140.769 90.9114 141.22 91.2452 141.552C91.5791 141.884 92.031 142.07 92.5017 142.069H92.5142L131.739 141.826C131.973 141.824 132.205 141.777 132.42 141.686C132.636 141.595 132.832 141.463 132.996 141.296C133.161 141.13 133.291 140.932 133.379 140.715C133.468 140.498 133.512 140.266 133.511 140.032L133.371 118.107C133.368 117.637 133.18 117.187 132.847 116.856C132.514 116.524 132.063 116.338 131.593 116.337H131.581L129.123 116.353L128.595 111.111C128.566 110.897 128.58 110.679 128.637 110.471C128.693 110.262 128.791 110.067 128.924 109.896L152.254 78.4085C153.004 77.4194 153.531 76.2793 153.799 75.0666C154.066 73.8541 154.067 72.5979 153.803 71.3848L145.401 30.7152ZM78.0001 58.2043C81.5301 58.2037 84.9808 57.156 87.9157 55.1935C90.8505 53.231 93.1377 50.442 94.4881 47.1791C95.8386 43.9162 96.1917 40.3259 95.5025 36.8622C94.8134 33.3986 93.1132 30.2172 90.6167 27.7202C88.1204 25.2232 84.9399 23.5231 81.4775 22.8344C78.0153 22.1459 74.4266 22.4999 71.1654 23.8517C67.9043 25.2035 65.117 27.4924 63.156 30.429C61.1952 33.3656 60.1487 36.8179 60.149 40.3495C60.1542 45.084 62.0368 49.623 65.3835 52.9704C68.7302 56.3178 73.2677 58.2 78.0001 58.2043ZM92.2883 40.3495C92.2883 43.1767 91.4502 45.9404 89.8803 48.2911C88.3102 50.6418 86.0788 52.4739 83.4679 53.5558C80.8571 54.6377 77.9843 54.9209 75.2126 54.3693C72.441 53.8177 69.8951 52.4563 67.8968 50.4572C65.8986 48.458 64.5378 45.911 63.9864 43.1383C63.4351 40.3653 63.7181 37.4912 64.7995 34.8792C65.881 32.2672 67.7123 30.0347 70.062 28.4641C72.4116 26.8933 75.1741 26.055 78.0001 26.055C81.7884 26.0591 85.4202 27.5665 88.0988 30.2462C90.7775 32.9261 92.2842 36.5596 92.2883 40.3495ZM79.7816 42.1315V48.6271C79.7816 49.0997 79.5939 49.553 79.2598 49.8872C78.9259 50.2215 78.4728 50.4091 78.0004 50.4091C77.528 50.4091 77.0749 50.2215 76.7408 49.8872C76.4069 49.553 76.2192 49.0997 76.2192 48.6271V42.1331H69.7252C69.2528 42.1331 68.7997 41.9455 68.4656 41.6113C68.1315 41.277 67.944 40.8239 67.944 40.3513C67.944 39.8787 68.1315 39.4254 68.4656 39.0912C68.7997 38.7571 69.2528 38.5693 69.7252 38.5693H76.2189V32.07C76.2189 31.5974 76.4066 31.1441 76.7405 30.8099C77.0746 30.4758 77.5277 30.288 78.0001 30.288C78.4725 30.288 78.9256 30.4758 79.2595 30.8099C79.5936 31.1441 79.7813 31.5974 79.7813 32.07V38.5672H86.2766C86.749 38.5672 87.202 38.755 87.536 39.0892C87.8701 39.4233 88.0578 39.8766 88.0578 40.3492C88.0578 40.8218 87.8701 41.2751 87.536 41.6091C87.202 41.9434 86.749 42.1312 86.2766 42.1312L79.7816 42.1315ZM44.6471 52.3235C52.0001 61.3595 62.8501 71.578 76.8945 82.6974C77.2097 82.9461 77.5996 83.0813 78.001 83.0813C78.4024 83.0813 78.7921 82.9461 79.1074 82.6974C93.1518 71.578 103.999 61.3595 111.352 52.3235C118.853 43.1097 122.977 34.7897 123.609 27.6005C123.614 27.5488 123.616 27.4968 123.614 27.445C123.614 22.1249 121.943 16.9395 118.836 12.6216C115.73 8.30391 111.345 5.07217 106.303 3.38335C101.26 1.69454 95.8144 1.63408 90.7356 3.21054C85.6567 4.78698 81.2017 7.92057 78.0001 12.1684C74.7987 7.92008 70.3435 4.78602 65.2643 3.20927C60.1853 1.63253 54.7393 1.69285 49.6965 3.38173C44.6535 5.07059 40.2687 8.30256 37.1621 12.6207C34.0555 16.9388 32.3842 22.1246 32.3845 27.445C32.3845 27.4981 32.3871 27.5485 32.3898 27.6005C33.0215 34.7897 37.1446 43.1097 44.6471 52.3235Z" stroke="white" stroke-width="4" mask="url(#path-1-outside-1_316_6037)"/>
</svg>
