<svg width="78" height="76" viewBox="0 0 78 76" fill="none" xmlns="http://www.w3.org/2000/svg">
<g filter="url(#filter0_i_810_286)">
<path d="M25.069 20.0197C25.069 20.0039 18.5289 20.0197 18.5289 20.0197C8.8481 20.0197 1 27.8678 1 37.5486C1 47.2294 8.8481 55.0775 18.5289 55.0775L30.8258 55.0672C33.9151 55.0672 36.4195 52.5824 36.4195 49.4929L36.426 38.8017L44.9255 52.2076C46.075 53.9472 48.0481 55.0949 50.2894 55.0949C53.8375 55.0949 56.714 52.2185 56.714 48.6704L56.7121 38.8015L65.2115 52.2074C66.361 53.9471 68.3342 55.0948 70.5754 55.0948C74.1235 55.0948 77 52.2184 77 48.6703L76.9981 20.0039H72.6248V48.6706C72.6248 49.8024 71.7073 50.7198 70.5756 50.7198C69.8682 50.7198 69.2446 50.3616 68.8764 49.8164L53.7482 25.9872C53.6544 25.8509 53.5195 25.7481 53.3632 25.6939C53.2068 25.6397 53.0372 25.637 52.8792 25.6861C52.7212 25.7352 52.583 25.8335 52.4849 25.9668C52.3868 26.1 52.3339 26.2612 52.3339 26.4267L52.3387 48.6707C52.3387 49.8025 51.4213 50.7199 50.2895 50.7199C49.5822 50.7199 48.9586 50.3617 48.5903 49.8165L33.4621 25.9872C33.3684 25.8509 33.2334 25.7481 33.0771 25.694C32.9207 25.6398 32.7512 25.637 32.5931 25.6861C32.4351 25.7352 32.2969 25.8336 32.1988 25.9668C32.1007 26.1001 32.0478 26.2612 32.0478 26.4267L32.0444 49.4932C32.0444 50.1662 31.4989 50.7115 30.8259 50.7115L18.529 50.7023C11.2645 50.7022 5.37533 44.813 5.37533 37.5486C5.37533 30.2842 11.2645 24.3949 18.5289 24.3949L25.069 24.3901V20.0197Z" stroke="#121212" stroke-width="2"/>
<path d="M25.774 45.0817C25.9392 45.0817 26.0977 45.0161 26.2146 44.8992C26.3314 44.7824 26.3971 44.6239 26.3971 44.4586L26.3987 26.4244C26.3986 22.8765 29.275 20 32.8231 20C35.0723 20 37.0518 21.156 38.1995 22.9062L46.6694 36.1931L46.6847 26.4246C46.6847 22.8765 49.5609 20 53.1091 20C55.3584 20 57.3377 21.156 58.4855 22.9062L66.9553 36.1931V20.0019H71.3587L71.3509 48.6686C71.3508 48.8313 71.2996 48.9899 71.2044 49.1219C71.1092 49.2539 70.975 49.3526 70.8206 49.404C70.6662 49.4555 70.4996 49.4571 70.3442 49.4086C70.1889 49.36 70.0528 49.2639 69.9551 49.1337L54.8083 25.2788C54.4401 24.7338 53.8165 24.3753 53.1091 24.3753C51.9774 24.3753 51.0599 25.2928 51.0599 26.4246L51.0648 48.6686C51.0647 48.8313 51.0135 48.9899 50.9183 49.1219C50.8231 49.2538 50.6888 49.3525 50.5345 49.404C50.3801 49.4554 50.2134 49.457 50.0581 49.4085C49.9028 49.36 49.7667 49.2639 49.669 49.1337L34.5224 25.2788C34.1541 24.7338 33.5305 24.3753 32.8231 24.3753C31.6914 24.3753 30.774 25.2928 30.774 26.4246L30.7832 48.8449C30.7832 49.0101 30.7175 49.1686 30.6007 49.2854C30.4838 49.4023 30.3253 49.4679 30.1601 49.4679L18.5289 49.4656C11.9679 49.4656 6.64908 44.1076 6.64908 37.5467C6.64908 30.9858 11.9679 25.6277 18.5289 25.6277C18.5289 25.6277 25.069 25.6022 25.069 25.6277V30.0471L18.5289 30.0422C14.3843 30.0422 11.0244 33.4021 11.0244 37.5467C11.0244 41.6912 14.3843 45.0903 18.5289 45.0903L25.774 45.0817Z" stroke="#121212" stroke-width="2"/>
</g>
<defs>
<filter id="filter0_i_810_286" x="0" y="0" width="78" height="80" filterUnits="userSpaceOnUse" color-interpolation-filters="sRGB">
<feFlood flood-opacity="0" result="BackgroundImageFix"/>
<feBlend mode="normal" in="SourceGraphic" in2="BackgroundImageFix" result="shape"/>
<feColorMatrix in="SourceAlpha" type="matrix" values="0 0 0 0 0 0 0 0 0 0 0 0 0 0 0 0 0 0 127 0" result="hardAlpha"/>
<feOffset dy="4"/>
<feGaussianBlur stdDeviation="2"/>
<feComposite in2="hardAlpha" operator="arithmetic" k2="-1" k3="1"/>
<feColorMatrix type="matrix" values="0 0 0 0 0 0 0 0 0 0 0 0 0 0 0 0 0 0 0.25 0"/>
<feBlend mode="normal" in2="shape" result="effect1_innerShadow_810_286"/>
</filter>
</defs>
</svg>
