<svg width="79" height="78" viewBox="0 0 79 78" fill="none" xmlns="http://www.w3.org/2000/svg">
<g filter="url(#filter0_i_810_86)">
<path d="M39.4238 1.00901C30.0165 0.829501 21.0431 3.31182 13.365 10.4102C-2.70247 25.271 -3.18074 50.7151 12.3384 66.1241C15.1318 68.8978 18.4563 71.4638 22.1066 73.0264C23.0601 69.8206 22.8744 65.9502 22.5726 62.1455C22.5 62.0705 22.425 61.9962 22.3697 61.9132C21.3499 60.3929 22.1066 56.4242 22.1066 54.6187C28.522 55.7559 33.7473 59.2845 40.6152 57.235C47.3362 55.2291 50.1375 45.5365 44.212 40.9481C40.6336 38.1756 35.3247 38.5537 31.1046 39.062C28.57 39.3682 25.4053 40.3038 23.6557 37.6082C22.623 36.0215 23.6889 32.1272 23.8623 30.3321C23.9053 29.8797 23.9527 29.4186 23.9975 28.9643C24.4469 23.3899 25.1926 17.7551 25.1926 12.1776H52.4403V2.72044C48.0659 1.72149 43.7 1.092 39.4238 1.00901Z" stroke="#121212" stroke-width="2"/>
<path d="M52.2203 2.70312V19.3503H32.3931L31.3628 32.1535C35.7624 31.8086 39.8413 31.0322 44.2379 32.0656C47.2519 32.7756 50.081 34.1987 52.1742 36.5083C58.016 42.9459 56.8665 55.0304 50.1597 60.4598C48.2724 61.9881 46.1159 62.9919 43.8389 63.6374C41.7365 64.3093 39.6242 64.5939 37.5046 64.6136C36.7455 64.6548 35.9854 64.6761 35.2252 64.6776C31.924 64.6776 28.6222 64.2485 25.4403 63.3583C24.6313 63.1315 23.3797 62.8161 22.5929 62.2272C22.4263 62.1915 22.2591 62.1528 22.0925 62.1165L21.8361 72.8727C42.2701 83.7081 68.3013 72.1147 75.6308 50.8496C81.8268 32.8789 72.2313 7.42003 52.2203 2.70312Z" stroke="#121212" stroke-width="2"/>
</g>
<defs>
<filter id="filter0_i_810_86" x="-5.72205e-06" y="1.52588e-05" width="78.497" height="82.0026" filterUnits="userSpaceOnUse" color-interpolation-filters="sRGB">
<feFlood flood-opacity="0" result="BackgroundImageFix"/>
<feBlend mode="normal" in="SourceGraphic" in2="BackgroundImageFix" result="shape"/>
<feColorMatrix in="SourceAlpha" type="matrix" values="0 0 0 0 0 0 0 0 0 0 0 0 0 0 0 0 0 0 127 0" result="hardAlpha"/>
<feOffset dy="4"/>
<feGaussianBlur stdDeviation="2"/>
<feComposite in2="hardAlpha" operator="arithmetic" k2="-1" k3="1"/>
<feColorMatrix type="matrix" values="0 0 0 0 0 0 0 0 0 0 0 0 0 0 0 0 0 0 0.25 0"/>
<feBlend mode="normal" in2="shape" result="effect1_innerShadow_810_86"/>
</filter>
</defs>
</svg>
