<svg width="78" height="76" viewBox="0 0 78 76" fill="none" xmlns="http://www.w3.org/2000/svg">
<g filter="url(#filter0_i_808_11)">
<path d="M16.3262 21.4289C15.5103 21.0961 14.7856 20.8062 14.061 20.511C12.0642 19.6951 10.7169 17.854 10.7169 15.9377C10.7169 14.0912 11.9461 12.4541 14.12 11.7187C17.6949 10.5056 21.1947 10.8169 24.4529 12.7386C25.301 13.2378 25.8753 14.1932 26.5999 14.9179C26.8254 15.1433 27.1206 15.4493 27.389 15.4546C31.8979 15.5137 36.4067 15.5351 40.921 15.5566C41.0605 15.5566 41.1947 15.4975 41.3182 15.4707C42.0589 12.6688 43.6424 11.3322 46.557 11.1175C50.4808 10.833 53.8947 12.1857 56.8416 14.6495C59.1443 16.5711 58.6558 19.3945 55.9505 20.7257C55.4728 20.9619 54.9951 21.1873 54.4368 21.4611C54.6408 21.7563 54.7804 21.9925 54.9521 22.2018C57.0563 24.7783 59.1282 27.3816 61.2968 29.9045C61.6671 30.3392 62.4454 30.6452 63.0305 30.6398C68.2801 30.5701 72.5152 32.7333 75.7037 36.7322C78.2748 39.9582 76.8577 43.8498 72.8963 45.0038C69.6704 45.9432 66.4336 45.7607 63.5673 43.9947C61.6725 42.8299 60.395 43.1681 58.8061 44.4778C56.3263 46.5229 53.6585 48.3318 50.9693 50.3178C51.286 50.8063 51.5651 51.2411 51.8496 51.6759C52.9178 53.3076 53.5351 55.0843 53.3794 57.0436C53.1378 60.0387 51.3665 61.9335 48.7256 63.0876C42.8748 65.6426 35.2258 62.8568 32.3165 57.1509C31.3396 55.2346 30.9478 53.2379 31.6348 51.1391C31.8227 50.5594 31.7154 50.2481 31.1678 49.9367C27.3407 47.7682 23.5028 45.6157 19.7346 43.3452C18.4464 42.5669 17.5715 43.2056 16.6106 43.8068C12.5902 46.335 8.54836 46.0022 4.64067 43.678C-0.211729 40.7901 -0.19026 35.2507 4.56552 32.1857C6.20804 31.1283 8.01159 30.554 9.9547 30.7096C11.7314 30.8545 12.7405 30.2695 13.3471 28.4874C14.1415 26.1256 15.2741 23.8765 16.3262 21.4289ZM14.5817 31.1283C14.8447 31.2196 15.0057 31.2786 15.1667 31.3323C19.2677 32.6527 21.2161 36.3511 19.8903 40.3822C19.6702 41.0478 19.8313 41.3269 20.4056 41.6329C24.2435 43.6994 28.0868 45.766 31.8818 47.9131C32.7621 48.4123 33.3203 48.2244 34.0825 47.7199C35.2258 46.963 36.4067 46.1149 37.7003 45.7553C40.6043 44.9555 43.5887 45.3312 46.0901 46.904C48.3982 48.3532 49.987 48.1922 52.0053 46.3994C54.1792 44.467 56.7449 42.9802 59.1658 41.284C58.4948 40.2212 57.7916 39.2711 57.2602 38.2351C56.1706 36.1149 56.5571 33.9839 58.2694 32.3629C58.7471 31.912 59.3536 31.5953 59.9495 31.1766C57.6843 28.3478 55.4138 25.5405 53.1862 22.701C52.7084 22.0945 52.22 21.8207 51.4148 21.7724C47.695 21.5469 44.2919 20.5808 41.9891 17.3118C41.8174 17.0703 41.4148 16.8556 41.1142 16.8556C36.6429 16.8287 32.1662 16.8287 27.6949 16.8556C27.448 16.8556 27.0455 17.0703 26.9757 17.2689C25.8914 20.5271 23.2398 21.4235 20.2446 21.5631C18.8651 21.6275 18.1726 22.014 17.7057 23.3451C16.7824 25.9646 15.6498 28.5089 14.5817 31.1283Z" stroke="#121212" stroke-width="2"/>
</g>
<defs>
<filter id="filter0_i_808_11" x="0" y="0" width="78.0004" height="80" filterUnits="userSpaceOnUse" color-interpolation-filters="sRGB">
<feFlood flood-opacity="0" result="BackgroundImageFix"/>
<feBlend mode="normal" in="SourceGraphic" in2="BackgroundImageFix" result="shape"/>
<feColorMatrix in="SourceAlpha" type="matrix" values="0 0 0 0 0 0 0 0 0 0 0 0 0 0 0 0 0 0 127 0" result="hardAlpha"/>
<feOffset dy="4"/>
<feGaussianBlur stdDeviation="2"/>
<feComposite in2="hardAlpha" operator="arithmetic" k2="-1" k3="1"/>
<feColorMatrix type="matrix" values="0 0 0 0 0 0 0 0 0 0 0 0 0 0 0 0 0 0 0.25 0"/>
<feBlend mode="normal" in2="shape" result="effect1_innerShadow_808_11"/>
</filter>
</defs>
</svg>
