<svg width="24" height="34" viewBox="0 0 24 34" fill="none" xmlns="http://www.w3.org/2000/svg">
<path d="M6.26099 29.75C6.26099 27.7466 6.26099 26.7448 6.89134 26.1223C7.5217 25.5 8.53625 25.5 10.5653 25.5H13.4349C15.464 25.5 16.4785 25.5 17.1089 26.1223C17.7392 26.7448 17.7392 27.7466 17.7392 29.75V31.1667H6.26099V29.75Z" fill="#F7FCFF" stroke="#FF9C9C" stroke-width="1.5" stroke-linecap="round" stroke-linejoin="round"/>
<path d="M12 18.4167V25.5" stroke="#FF9C9C" stroke-width="1.5" stroke-linecap="round" stroke-linejoin="round"/>
<path d="M3.39136 31.1667H20.6087" stroke="#FF9C9C" stroke-width="1.5" stroke-linecap="round" stroke-linejoin="round"/>
<path d="M13.4873 4.06087L15.0023 7.07727C15.2088 7.49715 15.7598 7.89991 16.2246 7.97704L18.9705 8.4312C20.7264 8.72257 21.1396 9.99083 19.8743 11.2419L17.7396 13.3671C17.378 13.727 17.1801 14.4211 17.292 14.9182L17.903 17.5489C18.3851 19.6313 17.2747 20.4368 15.424 19.3485L12.8503 17.8317C12.3856 17.5574 11.6194 17.5574 11.1461 17.8317L8.5723 19.3485C6.73024 20.4368 5.61124 19.6227 6.09327 17.5489L6.70441 14.9182C6.81633 14.4211 6.61834 13.727 6.25682 13.3671L4.12209 11.2419C2.86537 9.99083 3.26993 8.72257 5.02591 8.4312L7.77178 7.97704C8.228 7.89991 8.77888 7.49715 8.98547 7.07727L10.5004 4.06087C11.3267 2.42413 12.6695 2.42413 13.4873 4.06087Z" fill="#F7FCFF" stroke="#FF9C9C" stroke-width="1.5" stroke-linecap="round" stroke-linejoin="round"/>
</svg>
