<svg width="36" height="41" viewBox="0 0 36 41" fill="none" xmlns="http://www.w3.org/2000/svg">
<g filter="url(#filter0_i_274_785)">
<path d="M28.0119 28.8556C25.8749 30.7148 23.1269 31.7203 20.2939 31.6796C18.7979 31.7341 17.3059 31.4811 15.9119 30.9364C14.5179 30.3916 13.2499 29.5666 12.1869 28.5124C11.1239 27.4582 10.2879 26.1972 9.73193 24.8073C9.17493 23.4174 8.90993 21.9282 8.95193 20.4316C8.89993 18.9411 9.16094 17.4563 9.71594 16.0722C10.2719 14.6882 11.1109 13.4356 12.1789 12.3946C13.2469 11.3536 14.5209 10.5472 15.9179 10.0272C17.3159 9.50705 18.8069 9.28485 20.2959 9.37455C23.1349 9.33475 25.8939 10.32 28.0649 12.1496L29.4919 13.3606L35.8359 7.10455L34.2499 5.69055C30.3919 2.30555 25.4239 0.457873 20.2919 0.499593C8.53894 0.499593 0.0029412 8.87055 0.0029412 20.3716C-0.0430588 23.0411 0.450929 25.6924 1.45593 28.1658C2.46093 30.6391 3.95694 32.8835 5.85194 34.7636C7.74794 36.6437 10.0049 38.1207 12.4859 39.1056C14.9679 40.0906 17.6229 40.5631 20.2919 40.4946C25.4679 40.5672 30.4829 38.696 34.3469 35.2506L35.8809 33.8366L29.4359 27.5996L28.0119 28.8556Z" fill="#1E1E1E"/>
<path d="M26.6381 20.4954C26.6371 18.6884 25.9181 16.9558 24.6401 15.6786C23.3621 14.4015 21.6281 13.6843 19.8211 13.6849C18.0141 13.6855 16.2811 14.4038 15.0041 15.6818C13.7261 16.9598 13.0081 18.6929 13.0081 20.4999C13.0081 22.307 13.7261 24.0401 15.0041 25.3181C16.2811 26.5961 18.0141 27.3143 19.8211 27.3149C21.6281 27.3155 23.3621 26.5984 24.6401 25.3213C25.9181 24.0441 26.6371 22.3115 26.6381 20.5044" fill="#FF3D2E"/>
</g>
<defs>
<filter id="filter0_i_274_785" x="0" y="0.498901" width="35.8809" height="44.0021" filterUnits="userSpaceOnUse" color-interpolation-filters="sRGB">
<feFlood flood-opacity="0" result="BackgroundImageFix"/>
<feBlend mode="normal" in="SourceGraphic" in2="BackgroundImageFix" result="shape"/>
<feColorMatrix in="SourceAlpha" type="matrix" values="0 0 0 0 0 0 0 0 0 0 0 0 0 0 0 0 0 0 127 0" result="hardAlpha"/>
<feOffset dy="4"/>
<feGaussianBlur stdDeviation="2"/>
<feComposite in2="hardAlpha" operator="arithmetic" k2="-1" k3="1"/>
<feColorMatrix type="matrix" values="0 0 0 0 0 0 0 0 0 0 0 0 0 0 0 0 0 0 0.25 0"/>
<feBlend mode="normal" in2="shape" result="effect1_innerShadow_274_785"/>
</filter>
</defs>
</svg>
