<svg width="22" height="24" viewBox="0 0 22 24" fill="none" xmlns="http://www.w3.org/2000/svg">
<path d="M20.4337 21.38L20.4759 21.5347L20.6002 21.6361C20.7421 21.7516 20.8333 21.9304 20.8333 22.125V22.875C20.8333 23.2223 20.5555 23.5 20.2083 23.5H4.83325C2.62502 23.5 0.833252 21.7082 0.833252 19.5V4.5C0.833252 2.29177 2.62502 0.5 4.83325 0.5H20.2083C20.5555 0.5 20.8333 0.777705 20.8333 1.125V16.875C20.8333 17.0706 20.7415 17.2467 20.6046 17.3557L20.4767 17.4576L20.4337 17.6153C20.3161 18.0466 20.2684 18.8008 20.2684 19.4977C20.2684 20.1945 20.3161 20.9487 20.4337 21.38ZM18.2114 21.5H18.77L18.7083 20.9448C18.6233 20.1799 18.6233 18.8201 18.7083 18.0552L18.77 17.5H18.2114H4.83325C3.73211 17.5 2.83325 18.3989 2.83325 19.5C2.83325 20.6058 3.72742 21.5 4.83325 21.5H18.2114ZM6.6145 5.5C6.18367 5.5 5.83325 5.85042 5.83325 6.28125V7.21875C5.83325 7.64958 6.18367 8 6.6145 8H16.552C16.9828 8 17.3333 7.64958 17.3333 7.21875V6.28125C17.3333 5.85042 16.9828 5.5 16.552 5.5H6.6145ZM6.6145 8.5C6.18367 8.5 5.83325 8.85042 5.83325 9.28125V10.2188C5.83325 10.6496 6.18367 11 6.6145 11H16.552C16.9828 11 17.3333 10.6496 17.3333 10.2188V9.28125C17.3333 8.85042 16.9828 8.5 16.552 8.5H6.6145Z" fill="#F7FCFF" stroke="#75BBFF"/>
</svg>
