<svg width="40" height="40" viewBox="0 0 40 40" fill="none" xmlns="http://www.w3.org/2000/svg">
<path d="M6.66663 20C6.66663 13.7146 6.66663 10.5719 8.61924 8.61924C10.5719 6.66663 13.7146 6.66663 20 6.66663C26.2853 6.66663 29.4281 6.66663 31.3806 8.61924C33.3333 10.5719 33.3333 13.7146 33.3333 20C33.3333 26.2853 33.3333 29.4281 31.3806 31.3806C29.4281 33.3333 26.2853 33.3333 20 33.3333C13.7146 33.3333 10.5719 33.3333 8.61924 31.3806C6.66663 29.4281 6.66663 26.2853 6.66663 20Z" stroke="#1E1E1E" stroke-width="1.5" stroke-linejoin="round"/>
<path d="M12.5 25L15.5698 15.7906C15.7272 15.3185 16.169 15 16.6667 15C17.1643 15 17.6062 15.3185 17.7635 15.7906L20.8333 25M14.1667 21.6667H19.1667" stroke="#1E1E1E" stroke-width="1.5" stroke-linecap="round" stroke-linejoin="round"/>
<path d="M25.8334 15V25" stroke="#1E1E1E" stroke-width="1.5" stroke-linecap="round" stroke-linejoin="round"/>
<path d="M13.3334 3.33337V6.66671M26.6667 3.33337V6.66671M20 3.33337V6.66671M13.3334 33.3334V36.6667M20 33.3334V36.6667M26.6667 33.3334V36.6667M36.6667 26.6667H33.3334M6.66671 13.3334H3.33337M6.66671 26.6667H3.33337M6.66671 20H3.33337M36.6667 13.3334H33.3334M36.6667 20H33.3334" stroke="#1E1E1E" stroke-width="1.5" stroke-linecap="round" stroke-linejoin="round"/>
</svg>
