<svg width="40" height="41" viewBox="0 0 40 41" fill="none" xmlns="http://www.w3.org/2000/svg">
<path d="M18.3333 14.1334C25.6971 14.1334 31.6667 11.8948 31.6667 9.13342C31.6667 6.372 25.6971 4.13342 18.3333 4.13342C10.9695 4.13342 5 6.372 5 9.13342C5 11.8948 10.9695 14.1334 18.3333 14.1334Z" stroke="#1E1E1E" stroke-width="1.5"/>
<path d="M10 18.8698C11.0026 19.1711 12.1239 19.4194 13.3333 19.6029" stroke="#1E1E1E" stroke-width="1.5" stroke-linecap="round"/>
<path d="M5 20.8C5 23.3499 10.0895 25.4539 16.6667 25.7614" stroke="#1E1E1E" stroke-width="1.5" stroke-linecap="round"/>
<path d="M10 30.5364C11.0026 30.8377 12.1239 31.086 13.3333 31.2695" stroke="#1E1E1E" stroke-width="1.5" stroke-linecap="round"/>
<path d="M18.3333 37.4668C10.9695 37.4668 5 35.2283 5 32.4668V9.13342M31.6667 9.13342V19.1334" stroke="#1E1E1E" stroke-width="1.5" stroke-linecap="round" stroke-linejoin="round"/>
<path d="M28.3333 35.3238V37.4667M28.3333 35.3238C26.4053 35.3238 24.7068 34.3768 23.7105 32.9388M28.3333 35.3238C30.2613 35.3238 31.9598 34.3768 32.9561 32.9388M23.7105 32.9388L21.6673 34.2523M23.7105 32.9388C23.1213 32.0883 22.7778 31.0662 22.7778 29.9667C22.7778 28.8672 23.1211 27.8452 23.7103 26.9948M32.9561 32.9388L34.9993 34.2523M32.9561 32.9388C33.5453 32.0883 33.8888 31.0662 33.8888 29.9667C33.8888 28.8672 33.5455 27.8452 32.9563 26.9948M28.3333 24.6095C30.2615 24.6095 31.9601 25.5567 32.9563 26.9948M28.3333 24.6095C26.4051 24.6095 24.7065 25.5567 23.7103 26.9948M28.3333 24.6095V22.4667M32.9563 26.9948L35 25.681M23.7103 26.9948L21.6666 25.681" stroke="#1E1E1E" stroke-width="1.5" stroke-linecap="round"/>
</svg>
