<svg width="40" height="40" viewBox="0 0 40 40" fill="none" xmlns="http://www.w3.org/2000/svg">
<path d="M20 23.3333C21.8409 23.3333 23.3333 21.8409 23.3333 20C23.3333 18.159 21.8409 16.6666 20 16.6666C18.159 16.6666 16.6666 18.159 16.6666 20C16.6666 21.8409 18.159 23.3333 20 23.3333Z" stroke="#1E1E1E" stroke-width="1.5" stroke-linecap="round"/>
<path d="M6.66671 30.0017C4.57367 27.2159 3.33337 23.7527 3.33337 20C3.33337 10.7953 10.7953 3.33337 20 3.33337C29.2047 3.33337 36.6667 10.7953 36.6667 20C36.6667 23.7527 35.4264 27.2159 33.3334 30.0017" stroke="#1E1E1E" stroke-width="1.5" stroke-linecap="round"/>
<path d="M12.5463 26.6667C10.9629 24.8975 10 22.5612 10 20C10 14.4771 14.4771 10 20 10C25.5228 10 30 14.4771 30 20C30 22.5612 29.0372 24.8975 27.4537 26.6667" stroke="#1E1E1E" stroke-width="1.5" stroke-linecap="round"/>
<path d="M20 23.3334V31.6667" stroke="#1E1E1E" stroke-width="1.5" stroke-linecap="round"/>
<path d="M22.1039 31.6666H17.8962C17.4445 31.6666 17.2187 31.6666 17.0032 31.6971C16.5668 31.7586 16.1529 31.9123 15.7957 32.1455C15.6193 32.2606 15.4596 32.4038 15.1402 32.69C14.0897 33.6318 13.5645 34.1026 13.4262 34.4806C13.14 35.2628 13.5339 36.1153 14.3533 36.4871C14.7491 36.6666 15.492 36.6666 16.9775 36.6666H23.0225C24.5082 36.6666 25.2509 36.6666 25.6467 36.4871C26.4662 36.1153 26.86 35.2628 26.5739 34.4806C26.4355 34.1026 25.9104 33.6318 24.8599 32.69C24.5405 32.4038 24.3807 32.2606 24.2044 32.1455C23.8472 31.9123 23.4334 31.7586 22.9969 31.6971C22.7814 31.6666 22.5555 31.6666 22.1039 31.6666Z" stroke="#1E1E1E" stroke-width="1.5" stroke-linecap="round"/>
</svg>
