<svg xmlns="http://www.w3.org/2000/svg" width="217" height="125" fill="none"><path fill="#00477C" d="m208.081 19.918-18.46 5.52c-.87.26-.5 1.63.38 1.36l18.46-5.52c.86-.25.49-1.62-.38-1.36"/><path fill="#00477C" d="M189.451 25.278c-14.61-4.96-29.23-9.92-43.84-14.88-.78-.26-1.21.88-.54 1.29 11.68 7.12 23.35 14.25 35.03 21.37.78.48 1.49-.75.71-1.22-11.68-7.12-23.35-14.25-35.03-21.37l-.54 1.29c14.61 4.96 29.23 9.92 43.84 14.88.86.3 1.23-1.07.37-1.36M208.951 17.958c-25.78-5.33-51.66-10.17-77.62-14.52-.89-.15-1.27 1.21-.38 1.36 25.96 4.35 51.84 9.19 77.62 14.52.9.18 1.28-1.18.38-1.36"/><path fill="#00477C" d="M180.541 32.368q-10.695.69-21.33 2.07c-.89.12-.9 1.53 0 1.41 7.09-.92 14.19-1.61 21.33-2.07.9-.06.91-1.47 0-1.41"/><path fill="#00477C" d="M129.071 4.908a417 417 0 0 0 32.14 32.42c.67.61 1.68-.39 1-1a413 413 0 0 1-32.14-32.42c-.6-.68-1.6.32-1 1M190.591 27.308c.02 6.57.39 13.11 1.14 19.64.1.89 1.52.9 1.41 0a179 179 0 0 1-1.14-19.64c0-.91-1.41-.91-1.41 0"/><path fill="#00477C" d="M180.751 32.808c3.46 4.95 6.91 9.91 10.37 14.86.52.74 1.74.04 1.22-.71-3.46-4.95-6.91-9.91-10.37-14.86-.51-.74-1.74-.04-1.22.71"/><path fill="#00477C" d="M191.811 46.788c-6.23-4.82-12.64-9.38-19.24-13.67-.77-.5-1.47.73-.71 1.22 6.5 4.23 12.82 8.71 18.96 13.45.71.55 1.71-.44.99-1"/><path stroke="#00477C" stroke-dasharray="9.74 9.74" stroke-linecap="round" stroke-miterlimit="10" stroke-width="1.5" d="M1.291 123.378c-1.88-16.11 5.52-32.35 16.91-43.89s26.4-18.88 41.76-24.06c5.56-1.87 11.26-3.52 16.32-6.5 9.38-5.52 15.67-15.18 19.66-25.3 3.01-7.64 3.66-18.55-3.84-21.89-5.24-2.33-11.69 1.15-14.23 6.29-2.53 5.14-1.96 11.29-.39 16.8 4.4 15.45 16.03 28.12 29.69 36.56 13.67 8.44 29.32 13.09 44.98 16.69 10.56 2.43 21.38 4.44 32.17 3.49s21.67-5.17 28.7-13.42c1.37-1.61 2.65-3.61 2.26-5.69-.31-1.68-1.62-2.96-2.87-4.12l-13.6-12.7"/><path fill="#00477C" d="M159.271 15.568c1.06 2.02 2.11 4.03 3.17 6.05.42.81 1.64.09 1.22-.71-1.06-2.02-2.11-4.03-3.17-6.05-.42-.81-1.64-.09-1.22.71M164.631 16.049c1.45 3.32 2.9 6.63 4.35 9.95.36.83 1.58.11 1.22-.71-1.45-3.32-2.9-6.63-4.35-9.95-.36-.84-1.58-.12-1.22.71M172.911 20.879c1.37 2.99 2.73 5.99 4.1 8.98.38.83 1.6.11 1.22-.71-1.37-2.99-2.73-5.99-4.1-8.98-.38-.83-1.6-.11-1.22.71M179.361 23.389c1.49 4.49 3.09 8.94 4.79 13.35.32.84 1.69.48 1.36-.38-1.7-4.41-3.3-8.86-4.79-13.35-.28-.86-1.65-.49-1.36.38M184.611 27.049c1.38 4.2 2.75 8.4 4.13 12.6.28.86 1.65.49 1.36-.38-1.38-4.2-2.75-8.4-4.13-12.6-.28-.85-1.65-.48-1.36.38M189.501 27.519a32 32 0 0 1 1.21 6.6c.07.9 1.48.91 1.41 0-.18-2.37-.6-4.69-1.26-6.97-.25-.87-1.62-.5-1.36.37"/></svg>