<svg width="40" height="41" viewBox="0 0 40 41" fill="none" xmlns="http://www.w3.org/2000/svg">
<path d="M20 3.7334C10.7953 3.7334 3.33337 11.1953 3.33337 20.4001C3.33337 29.6047 10.7953 37.0667 20 37.0667C29.2047 37.0667 36.6667 29.6047 36.6667 20.4001C36.6667 11.1953 29.2047 3.7334 20 3.7334Z" stroke="#1E1E1E" stroke-width="1.5" stroke-linecap="round" stroke-linejoin="round"/>
<path d="M20 8.7334C13.5567 8.7334 8.33337 13.9567 8.33337 20.4001C8.33337 26.8434 13.5567 32.0667 20 32.0667C26.4434 32.0667 31.6667 26.8434 31.6667 20.4001C31.6667 13.9567 26.4434 8.7334 20 8.7334Z" stroke="#1E1E1E" stroke-width="1.5" stroke-linecap="round" stroke-linejoin="round"/>
<path d="M20 3.7334V8.7334" stroke="#1E1E1E" stroke-width="1.5" stroke-linecap="round"/>
<path d="M20 32.0667V37.0667" stroke="#1E1E1E" stroke-width="1.5" stroke-linecap="round"/>
<path d="M5.56616 12.0667L9.8963 14.5667" stroke="#1E1E1E" stroke-width="1.5" stroke-linecap="round"/>
<path d="M30.1041 26.2334L34.4343 28.7334" stroke="#1E1E1E" stroke-width="1.5" stroke-linecap="round"/>
<path d="M34.4338 12.0667L30.1036 14.5667" stroke="#1E1E1E" stroke-width="1.5" stroke-linecap="round"/>
<path d="M9.89581 26.2334L5.56567 28.7334" stroke="#1E1E1E" stroke-width="1.5" stroke-linecap="round"/>
<path d="M17.3959 24.8446V15.9556M20 15.9556V13.7334M20 27.0667V24.8446M17.3959 20.4001H22.6042M22.6042 20.4001C23.4672 20.4001 24.1667 21.1462 24.1667 22.0667V23.1779C24.1667 24.0984 23.4672 24.8446 22.6042 24.8446H15.8334M22.6042 20.4001C23.4672 20.4001 24.1667 19.6539 24.1667 18.7334V17.6222C24.1667 16.7018 23.4672 15.9556 22.6042 15.9556H15.8334" stroke="#1E1E1E" stroke-width="1.5" stroke-linecap="round" stroke-linejoin="round"/>
</svg>
