<svg width="40" height="41" viewBox="0 0 40 41" fill="none" xmlns="http://www.w3.org/2000/svg">
<path d="M11.6667 15.6H28.3334C31.4487 15.6 33.0064 15.6 34.1667 16.2698C34.9269 16.7087 35.558 17.3398 35.9969 18.1C36.6667 19.2603 36.6667 20.818 36.6667 23.9333C36.6667 27.0486 36.6667 28.6063 35.9969 29.7666C35.558 30.5268 34.9269 31.158 34.1667 31.5968C33.0064 32.2666 31.4487 32.2666 28.3334 32.2666H27.6772C26.5324 32.2666 25.9599 32.2666 25.4244 32.1476C24.7074 31.9885 24.0344 31.6731 23.453 31.2243C23.0187 30.889 22.6522 30.4493 21.9194 29.5698C21.3354 28.869 21.0434 28.5186 20.7082 28.3613C20.2595 28.1508 19.7405 28.1508 19.2919 28.3613C18.9567 28.5186 18.6647 28.869 18.0807 29.5698C17.3479 30.4493 16.9814 30.889 16.5471 31.2243C15.9658 31.6731 15.2927 31.9885 14.5757 32.1476C14.0401 32.2666 13.4677 32.2666 12.3229 32.2666H11.6667C8.55132 32.2666 6.99362 32.2666 5.83337 31.5968C5.07327 31.158 4.44209 30.5268 4.00324 29.7666C3.33337 28.6063 3.33337 27.0486 3.33337 23.9333C3.33337 20.818 3.33337 19.2603 4.00324 18.1C4.44209 17.3398 5.07327 16.7087 5.83337 16.2698C6.99362 15.6 8.55132 15.6 11.6667 15.6Z" stroke="#1E1E1E" stroke-width="1.5" stroke-linecap="round" stroke-linejoin="round"/>
<path d="M8.33337 20.6H11.6667" stroke="#1E1E1E" stroke-width="1.5" stroke-linecap="round" stroke-linejoin="round"/>
<path d="M36.6667 22.2667V20.314C36.6667 18.3912 36.6667 17.4299 36.4114 16.5339C36.271 16.0418 36.0745 15.5674 35.8257 15.1202C35.3729 14.3061 34.693 13.6263 33.3334 12.2667C31.9737 10.907 31.2939 10.2272 30.4799 9.7743C30.0327 9.5255 29.5582 9.32902 29.066 9.18872C28.1702 8.93335 27.2089 8.93335 25.286 8.93335H14.7141C12.7913 8.93335 11.8299 8.93335 10.934 9.18872C10.4418 9.32902 9.96744 9.5255 9.52024 9.7743C8.70616 10.2272 8.02634 10.907 6.66671 12.2667C5.30707 13.6263 4.62726 14.3061 4.17432 15.1202C3.92552 15.5674 3.72904 16.0418 3.58874 16.5339C3.33337 17.4299 3.33337 18.3912 3.33337 20.314V22.2667" stroke="#1E1E1E" stroke-width="1.5" stroke-linecap="round" stroke-linejoin="round"/>
</svg>
