<svg xmlns="http://www.w3.org/2000/svg" width="173" height="126" fill="none"><circle cx="12.5" cy="121.5" r="4.5" fill="#D9D9D9"/><circle cx="51.5" cy="121.5" r="4.5" fill="#D9D9D9"/><circle cx="90.5" cy="121.5" r="4.5" fill="#D9D9D9"/><circle cx="129.5" cy="121.5" r="4.5" fill="#D9D9D9"/><circle cx="168.5" cy="121.5" r="4.5" fill="#D9D9D9"/><circle cx="12.5" cy="82.5" r="4.5" fill="#D9D9D9"/><circle cx="51.5" cy="82.5" r="4.5" fill="#D9D9D9"/><circle cx="90.5" cy="82.5" r="4.5" fill="#D9D9D9"/><circle cx="129.5" cy="82.5" r="4.5" fill="#D9D9D9"/><circle cx="168.5" cy="82.5" r="4.5" fill="#D9D9D9"/><circle cx="12.5" cy="43.5" r="4.5" fill="#D9D9D9"/><circle cx="51.5" cy="43.5" r="4.5" fill="#D9D9D9"/><circle cx="90.5" cy="43.5" r="4.5" fill="#D9D9D9"/><circle cx="129.5" cy="43.5" r="4.5" fill="#D9D9D9"/><circle cx="168.5" cy="43.5" r="4.5" fill="#D9D9D9"/><circle cx="12.5" cy="4.5" r="4.5" fill="#D9D9D9"/><circle cx="51.5" cy="4.5" r="4.5" fill="#D9D9D9"/><circle cx="90.5" cy="4.5" r="4.5" fill="#D9D9D9"/><circle cx="129.5" cy="4.5" r="4.5" fill="#D9D9D9"/><circle cx="168.5" cy="4.5" r="4.5" fill="#D9D9D9"/></svg>