<svg width="34" height="35" viewBox="0 0 34 35" fill="none" xmlns="http://www.w3.org/2000/svg">
<mask id="mask0_274_756" style="mask-type:luminance" maskUnits="userSpaceOnUse" x="0" y="0" width="34" height="35">
<path d="M34 0H0V35H34V0Z" fill="white"/>
</mask>
<g mask="url(#mask0_274_756)">
<path d="M0.423342 21.5915C0.423342 17.7345 0.465842 13.8757 0.410592 10.0196C0.360442 6.4855 3.11274 2.85337 6.15319 1.463C7.95009 0.667184 9.89404 0.285246 11.849 0.343871C18.564 0.414746 25.2841 0.392871 32.0008 0.343871C33.0107 0.343871 33.3319 0.606371 33.2945 1.666C33.2155 3.88062 33.1985 6.10312 33.2945 8.316C33.3498 9.54887 32.9069 9.765 31.8189 9.75625C25.4439 9.7055 19.0732 9.73 12.6999 9.73175C10.0496 9.73175 9.57445 10.2252 9.57275 12.992C9.57275 19.7295 9.53789 26.4731 9.60334 33.2124C9.61524 34.4277 9.26335 34.6999 8.15835 34.6517C6.0087 34.5642 3.85139 34.5642 1.69834 34.6517C0.666442 34.692 0.311995 34.4522 0.334095 33.2981C0.410595 29.3974 0.362992 25.494 0.362992 21.5915H0.423342Z" fill="#108AFF"/>
<path d="M23.3697 12.3559C26.4705 12.3559 29.5747 12.3751 32.673 12.3419C33.3742 12.334 33.6496 12.4976 33.642 13.2878C33.6046 17.1019 33.744 20.9221 33.5952 24.7301C33.4031 29.6573 31.3614 32.5176 26.621 34.3219C26.0557 34.533 25.4582 34.6377 24.8572 34.6308C21.0237 34.6203 17.1902 34.6001 13.3576 34.6448C12.4719 34.6553 12.1599 34.4234 12.1846 33.467C12.2475 30.9846 12.2424 28.4988 12.1846 26.0164C12.1642 25.0985 12.409 24.7914 13.3295 24.8124C16.3436 24.8693 19.3594 24.8404 22.3744 24.8308C22.7416 24.8651 23.1113 24.7945 23.442 24.6271C23.7726 24.4597 24.0523 24.2017 24.2503 23.8815C24.4484 23.5613 24.5572 23.1911 24.5648 22.8116C24.5716 22.4321 24.4773 22.0578 24.292 21.7298C24.0659 21.1916 23.6247 21.4253 23.2873 21.4235C19.9723 21.4025 16.6573 21.3789 13.3423 21.4314C12.4396 21.4454 12.1523 21.1864 12.188 20.2466C12.2551 18.2534 12.2033 16.2558 12.2101 14.2599C12.2152 12.8599 12.6665 12.3734 14.0699 12.3638C17.1707 12.3419 20.2749 12.3568 23.3731 12.3559" fill="#108AFF"/>
</g>
</svg>
