<svg width="24" height="24" viewBox="0 0 24 24" fill="none" xmlns="http://www.w3.org/2000/svg">
<path d="M4.6913 3.38184L4.29205 4.40823L5.32754 4.03321C6.26228 3.69469 7.26923 3.49999 8.39752 3.49999C9.91583 3.49999 11.1792 3.88417 12.4221 4.29046C12.4987 4.31552 12.5755 4.34074 12.6523 4.36599C13.8029 4.74401 14.9791 5.13044 16.265 5.13044C18.3065 5.13044 20.3944 4.34526 22.0419 3.59201L21.834 3.13728L22.042 3.59201C22.7327 3.2762 23.5 3.77766 23.5 4.49741V15.8927C23.5 16.2193 23.3374 16.5274 23.0612 16.7138L23.0612 16.7138C21.413 17.8258 19.6757 18.5435 17.5072 18.5435C15.9889 18.5435 14.7255 18.1593 13.4827 17.753C13.406 17.7279 13.3293 17.7027 13.2524 17.6775C12.1019 17.2995 10.9257 16.913 9.63976 16.913C7.14519 16.913 5.40007 17.4004 3.99707 17.9889L3.69048 18.1175V18.45V22.875C3.69048 23.2128 3.41012 23.5 3.04762 23.5H2.28571C1.92321 23.5 1.64286 23.2128 1.64286 22.875V4.77866V4.51551L1.42595 4.36652C0.863265 3.98002 0.5 3.34282 0.5 2.62499C0.5 1.42955 1.51154 0.451899 2.75799 0.501833L2.758 0.501833C3.86404 0.546121 4.76125 1.41931 4.82905 2.49022L4.82909 2.49091C4.8487 2.79398 4.80177 3.09781 4.6913 3.38184Z" fill="#F7FCFF" stroke="#8581FF"/>
</svg>
