<svg width="415" height="141" viewBox="0 0 415 141" fill="none" xmlns="http://www.w3.org/2000/svg">
<path d="M107.693 50.72H96.6845C96.4285 38.7733 88.7912 32.8 73.7725 32.8C67.6285 32.8 62.6792 34.208 58.9245 37.024C55.1698 39.7547 53.2925 43.3813 53.2925 47.904C53.2925 51.3173 54.4018 54.048 56.6205 56.096C58.9245 58.0587 62.8498 59.7653 68.3965 61.216L90.1565 66.848C103.981 70.5173 110.893 78.1973 110.893 89.888C110.893 98.336 107.522 105.205 100.781 110.496C94.8072 115.104 86.2312 117.408 75.0525 117.408C60.8872 117.408 50.6045 113.141 44.2045 104.608C40.7912 100 38.9992 93.8133 38.8285 86.048H49.8365V86.304C49.8365 92.96 52.0978 98.1227 56.6205 101.792C61.2285 105.376 67.6285 107.168 75.8205 107.168C83.3298 107.168 88.9192 105.931 92.5885 103.456C96.9405 100.469 99.1165 96.288 99.1165 90.912C99.1165 84.0853 93.5272 79.264 82.3485 76.448L59.5645 70.56C47.6178 67.488 41.6445 60.448 41.6445 49.44C41.6445 40.736 44.9298 33.9947 51.5005 29.216C57.2178 25.0347 64.7698 22.944 74.1565 22.944C87.4685 22.944 96.9832 26.8267 102.701 34.592C106.029 39.1147 107.693 44.0213 107.693 49.312C107.693 49.568 107.693 50.0373 107.693 50.72ZM125.52 50.208H135.248V61.344C140.538 52.9813 147.792 48.8 157.008 48.8C163.408 48.8 168.485 50.4213 172.24 53.664C175.994 56.8213 177.872 61.088 177.872 66.464V116H167.504V70.688C167.504 66.7627 166.266 63.648 163.792 61.344C161.402 59.04 158.117 57.888 153.936 57.888C148.474 57.888 144.122 59.8933 140.88 63.904C137.637 67.9147 136.016 73.248 136.016 79.904V116H125.52V50.208ZM253.763 107.168V115.616C250.861 116.64 248.6 117.152 246.979 117.152C240.152 117.152 236.44 114.037 235.843 107.808C231.149 114.208 223.683 117.408 213.443 117.408C206.36 117.408 200.856 115.445 196.931 111.52C193.517 108.107 191.811 103.712 191.811 98.336C191.811 92.192 193.987 87.456 198.339 84.128C200.813 82.2507 205.976 80.416 213.827 78.624L235.331 73.76L235.459 68.256C235.459 61.6853 230.509 58.4 220.611 58.4C211.139 58.4 206.061 62.24 205.378 69.92H194.755C195.011 64.1173 196.461 59.68 199.107 56.608C203.629 51.4027 210.968 48.8 221.123 48.8C237.592 48.8 245.827 54.7733 245.827 66.72V103.456C245.827 106.699 247.235 108.32 250.051 108.32C250.392 108.32 251.288 108.064 252.739 107.552C253.251 107.381 253.592 107.253 253.763 107.168ZM235.459 82.336L218.562 86.688C212.504 88.224 208.323 89.8027 206.019 91.424C203.8 93.0453 202.691 95.3067 202.691 98.208C202.691 104.949 207.043 108.32 215.747 108.32C221.891 108.32 227.096 106.315 231.363 102.304C234.093 99.8293 235.459 97.0133 235.459 93.856V82.336ZM274.102 24.352V78.112L302.006 50.208H315.574L292.662 72.864L319.542 116H306.614L284.342 80.288L274.102 90.272V116H263.734V24.352H274.102ZM374.993 50.208V59.552L335.825 106.784H376.657V116H323.153V106.528L362.449 59.424H325.841V50.208H374.993Z" fill="white"/>
</svg>
