<svg width="40" height="41" viewBox="0 0 40 41" fill="none" xmlns="http://www.w3.org/2000/svg">
<path d="M4.16663 13.8445C4.34006 10.345 4.85891 8.16311 6.41103 6.61098C7.96316 5.05886 10.145 4.54001 13.6446 4.36658M35.8333 13.8445C35.6598 10.345 35.141 8.16311 33.589 6.61098C32.0368 5.05886 29.8548 4.54001 26.3553 4.36658M26.3553 36.0332C29.8548 35.8597 32.0368 35.3409 33.589 33.7889C35.141 32.2367 35.6598 30.0547 35.8333 26.5552M13.6446 36.0332C10.145 35.8597 7.96316 35.3409 6.41103 33.7889C4.85891 32.2367 4.34006 30.0547 4.16663 26.5552" stroke="#1E1E1E" stroke-width="1.5" stroke-linecap="round" stroke-linejoin="round"/>
<path d="M32.7253 19.0629C33.1306 19.5706 33.3333 19.8242 33.3333 20.1999C33.3333 20.5756 33.1306 20.8292 32.7253 21.3369C30.9038 23.6172 26.2523 28.5332 20 28.5332C13.7477 28.5332 9.09609 23.6172 7.27468 21.3369C6.86931 20.8292 6.66663 20.5756 6.66663 20.1999C6.66663 19.8242 6.86931 19.5706 7.27468 19.0629C9.09609 16.7826 13.7477 11.8666 20 11.8666C26.2523 11.8666 30.9038 16.7826 32.7253 19.0629Z" stroke="#1E1E1E" stroke-width="1.5"/>
<path d="M23.3333 20.1999C23.3333 18.3589 21.841 16.8666 20 16.8666C18.159 16.8666 16.6666 18.3589 16.6666 20.1999C16.6666 22.0409 18.159 23.5332 20 23.5332C21.841 23.5332 23.3333 22.0409 23.3333 20.1999Z" stroke="#1E1E1E" stroke-width="1.5"/>
</svg>
