<svg width="1016" height="538" viewBox="0 0 1016 538" fill="none" xmlns="http://www.w3.org/2000/svg">
<path d="M1015.02 308.429C1013.39 259.947 974.138 220.254 925.819 218.237C895.361 216.968 867.987 230.366 850.109 251.963C842.665 260.956 830.017 263.551 819.925 257.708L819.073 257.215C810.821 252.436 806.671 242.983 808.24 233.556C809.551 225.696 809.878 217.502 809.08 209.095C804.755 163.693 767.476 127.578 722.09 124.816C721.337 124.77 720.596 124.765 719.848 124.737V5.00505H711.92V101.133C711.92 113.498 703.859 124.636 691.955 127.851C652.254 138.58 623.036 174.942 623.036 218.151C623.036 224.359 623.646 230.419 624.802 236.285C626.669 245.766 622.522 255.726 614.229 260.642C604.421 266.453 591.781 264.097 584.892 255.031C567.86 232.621 540.973 218.151 510.709 218.151C481.279 218.151 455.044 231.835 437.962 253.199C429.881 263.311 415.837 266.301 404.644 259.821L403.525 259.171C394.335 253.851 389.272 243.418 390.943 232.906C392.133 225.428 392.437 217.653 391.732 209.689C387.703 164.147 350.481 127.742 304.989 124.828C304.959 124.828 304.934 124.828 304.906 124.826V5H296.979V100.517C296.979 113.356 288.189 124.386 275.781 127.555C235.458 137.855 205.637 174.497 205.637 218.149C205.637 226.921 206.85 235.408 209.107 243.458C211.652 252.532 205.733 260.041 196.337 260.041C184.244 260.041 167.123 253.265 158.478 244.788C139.795 226.471 113.47 215.965 84.7429 218.535C39.0169 222.627 2.66991 260.536 0.213009 306.518C-2.18845 351.445 27.0549 389.908 67.6001 401.547C77.6696 404.438 84.7077 413.522 84.7077 424.028V523H92.6327V410.625C92.6327 407.658 94.9561 405.212 97.9144 405.073C143.754 402.864 181.683 366.6 186.106 320.783C186.738 314.244 186.68 307.837 186.007 301.612C185.022 292.498 189.238 283.612 197.156 279.024L201.507 276.507C210.849 271.096 222.627 273.039 229.881 281.044C246.936 299.855 271.528 311.666 298.879 311.666C326.227 311.666 350.809 299.845 367.861 281.031C375.935 272.119 389.28 270.375 399.68 276.398L405.004 279.482C413.587 284.453 418.627 293.921 417.805 303.831C417.432 308.327 417.377 312.917 417.662 317.573C420.181 358.588 449.629 392.827 488.347 402.459C495.501 404.236 500.493 410.719 500.493 418.107V523H508.418V410.522C508.418 407.608 510.721 405.206 513.629 405.118C563.77 403.576 603.953 362.336 603.953 311.666C603.953 308.388 603.784 305.153 603.454 301.963C602.531 293.026 606.848 284.377 614.604 279.886L619.594 276.995C628.796 271.667 640.41 273.527 647.595 281.377C664.637 299.992 689.097 311.664 716.279 311.664C744.177 311.664 769.2 299.368 786.28 279.889C793.754 271.366 806.083 269.142 815.886 274.819L817.609 275.817C825.849 280.589 830.68 289.822 829.423 299.277C828.417 306.872 828.319 314.752 829.259 322.815C834.248 365.579 868.511 399.449 910.707 404.504C913.411 404.827 915.434 407.14 915.434 409.87V522.995H923.362V419.469C923.362 411.758 928.951 405.196 936.541 403.991C982.073 396.765 1016.64 356.498 1015.02 308.429Z" fill="url(#paint0_linear_2066_278)"/>
<path d="M298.575 292C340.273 292 374.075 257.974 374.075 216C374.075 174.026 340.273 140 298.575 140C256.878 140 223.075 174.026 223.075 216C223.075 257.974 256.878 292 298.575 292Z" fill="white"/>
<path d="M92.0752 384C133.497 384 167.075 350.645 167.075 309.5C167.075 268.355 133.497 235 92.0752 235C50.6538 235 17.0752 268.355 17.0752 309.5C17.0752 350.645 50.6538 384 92.0752 384Z" fill="white"/>
<path d="M511.075 384C551.944 384 585.075 350.645 585.075 309.5C585.075 268.355 551.944 235 511.075 235C470.206 235 437.075 268.355 437.075 309.5C437.075 350.645 470.206 384 511.075 384Z" fill="white"/>
<path d="M715.575 292C756.72 292 790.075 257.974 790.075 216C790.075 174.026 756.72 140 715.575 140C674.43 140 641.075 174.026 641.075 216C641.075 257.974 674.43 292 715.575 292Z" fill="white"/>
<path d="M921.075 384C962.497 384 996.075 350.645 996.075 309.5C996.075 268.355 962.497 235 921.075 235C879.654 235 846.075 268.355 846.075 309.5C846.075 350.645 879.654 384 921.075 384Z" fill="white"/>
<path d="M330.122 198.855H313.135V191.92C313.135 190.86 312.26 190 311.176 190H283.859C282.778 190 281.901 190.86 281.901 191.92V198.855H264.031C262.95 198.855 262.075 199.715 262.075 200.775V240.08C262.075 241.14 262.95 242 264.031 242H330.119C331.2 242 332.075 241.142 332.075 240.08V200.775C332.078 199.715 331.205 198.855 330.122 198.855ZM285.818 193.84H309.22V198.857H285.818V193.84ZM283.862 202.695H311.179H328.166V213.969H303.441V212.223C303.441 211.164 302.566 210.303 301.482 210.303H292.452C291.373 210.303 290.493 211.164 290.493 212.223V213.969H265.99V202.695H283.862ZM294.411 217.804H299.526V219.156H294.411V217.804ZM265.993 238.16V217.804H290.496V221.076C290.496 222.136 291.374 222.996 292.455 222.996H301.485C302.566 222.996 303.443 222.138 303.443 221.076V217.804H328.168V238.16H265.993Z" fill="#333333"/>
<path d="M82.9924 287.604C74.0685 287.604 66.8105 294.864 66.8105 303.785C66.8105 312.709 74.0711 319.97 82.9924 319.97C91.9187 319.97 99.1792 312.709 99.1792 303.785C99.1792 294.864 91.9187 287.604 82.9924 287.604ZM82.9924 316.091C76.2081 316.091 70.689 310.575 70.689 303.785C70.689 297.001 76.2081 291.482 82.9924 291.482C89.7791 291.482 95.3007 297.001 95.3007 303.785C95.2982 310.572 89.7791 316.091 82.9924 316.091Z" fill="#333333"/>
<path d="M129.363 334.518C129.182 332.779 128.335 331.209 126.976 330.105L104.625 311.94C105.586 309.395 106.137 306.658 106.137 303.785C106.137 291.026 95.7545 280.643 82.9925 280.643C70.233 280.643 59.8525 291.023 59.8525 303.785C59.8525 316.547 70.233 326.93 82.9925 326.93C88.1235 326.93 92.8538 325.231 96.6945 322.394L118.705 340.284C119.887 341.242 121.331 341.753 122.831 341.753C123.058 341.753 123.284 341.738 123.516 341.716C125.258 341.537 126.825 340.687 127.927 339.332C129.033 337.971 129.539 336.262 129.363 334.518ZM63.731 303.785C63.731 293.165 72.3726 284.521 82.9925 284.521C93.6149 284.521 102.259 293.163 102.259 303.785C102.259 314.407 93.6174 323.052 82.9925 323.052C72.3701 323.052 63.731 314.407 63.731 303.785ZM124.915 336.885C124.464 337.439 123.826 337.784 123.113 337.86C122.407 337.93 121.707 337.724 121.15 337.273L99.6556 319.803C100.896 318.513 101.977 317.081 102.894 315.536L124.527 333.119C125.081 333.571 125.427 334.213 125.5 334.924C125.575 335.63 125.369 336.328 124.915 336.885Z" fill="#333333"/>
<path d="M536.563 301.588H525.94C524.869 301.588 524 302.455 524 303.528V345.602C524 346.676 524.869 347.542 525.94 347.542H536.563C537.634 347.542 538.503 346.676 538.503 345.602V303.528C538.503 302.455 537.634 301.588 536.563 301.588ZM534.625 343.661H527.881V305.466H534.625V343.661Z" fill="#333333"/>
<path d="M520.225 288.515H509.603C508.532 288.515 507.662 289.382 507.662 290.453V345.599C507.662 346.672 508.532 347.539 509.603 347.539H520.225C521.296 347.539 522.166 346.672 522.166 345.599V290.453C522.163 289.382 521.296 288.515 520.225 288.515ZM518.284 343.661H511.541V292.394H518.284V343.661Z" fill="#333333"/>
<path d="M503.882 275.035H493.262C492.191 275.035 491.321 275.902 491.321 276.973V345.599C491.321 346.673 492.191 347.54 493.262 347.54H503.882C504.955 347.54 505.822 346.673 505.822 345.599V276.973C505.822 275.905 504.955 275.035 503.882 275.035ZM501.946 343.661H495.202V278.914H501.946V343.661Z" fill="#333333"/>
<path d="M747.389 194.404H684.938C683.864 194.404 682.997 195.274 682.997 196.345V237.421C682.997 238.492 683.864 239.361 684.938 239.361H705.21L702.044 250.838C701.883 251.42 702.001 252.045 702.369 252.526C702.737 253.008 703.307 253.292 703.912 253.292H728.652C729.257 253.292 729.829 253.01 730.194 252.526C730.562 252.045 730.681 251.42 730.519 250.838L727.354 239.361H747.387C748.46 239.361 749.327 238.494 749.327 237.421V196.345C749.33 195.274 748.463 194.404 747.389 194.404ZM726.107 249.411H706.46L709.234 239.359H723.337L726.107 249.411ZM745.451 235.483H724.814H707.757H686.878V198.285H745.451V235.483Z" fill="#333333"/>
<path d="M694.068 233.353H738.259C739.333 233.353 740.2 232.486 740.2 231.415V202.35C740.2 201.279 739.333 200.41 738.259 200.41H694.068C692.995 200.41 692.128 201.277 692.128 202.35V231.415C692.13 232.486 692.995 233.353 694.068 233.353ZM696.009 204.288H736.321V229.477H696.009V204.288Z" fill="#333333"/>
<path d="M931.962 307.082C936.026 304.601 938.751 300.158 938.751 295.084C938.751 287.317 932.392 281 924.576 281C916.761 281 910.402 287.317 910.402 295.084C910.402 300.16 913.127 304.604 917.188 307.082C908.404 310.13 902.075 318.422 902.075 328.177V346.325C902.075 347.252 902.828 348 903.761 348H945.389C946.323 348 947.075 347.252 947.075 346.325V328.177C947.075 318.422 940.749 310.13 931.962 307.082ZM913.774 295.084C913.774 289.165 918.62 284.348 924.576 284.348C930.533 284.348 935.379 289.165 935.379 295.084C935.379 301.005 930.533 305.819 924.576 305.819C918.62 305.819 913.774 301.003 913.774 295.084ZM943.706 344.649H905.447V328.177C905.447 317.7 914.028 309.17 924.579 309.17C935.125 309.17 943.708 317.7 943.708 328.177V344.649H943.706Z" fill="#333333"/>
<path d="M300.573 27L286.075 13.5012L300.573 0L315.075 13.5012L300.573 27Z" fill="url(#paint1_linear_2066_278)"/>
<path d="M716.076 27L702.075 13.5012L716.076 0L730.075 13.5012L716.076 27Z" fill="url(#paint2_linear_2066_278)"/>
<path d="M503.576 508L517.075 523.001L503.576 538L490.075 523.001L503.576 508Z" fill="url(#paint3_linear_2066_278)"/>
<path d="M88.0752 508L103.075 523.001L88.0752 538L73.0752 523.001L88.0752 508Z" fill="url(#paint4_linear_2066_278)"/>
<path d="M919.575 508L933.075 523.001L919.575 538L906.075 523.001L919.575 508Z" fill="url(#paint5_linear_2066_278)"/>
<defs>
<linearGradient id="paint0_linear_2066_278" x1="-149.6" y1="287.62" x2="1043.15" y2="250.772" gradientUnits="userSpaceOnUse">
<stop stop-color="#F6CC00"/>
<stop offset="0.2104" stop-color="#F98835"/>
<stop offset="0.377" stop-color="#FD3874"/>
<stop offset="0.4653" stop-color="#FF1292"/>
<stop offset="0.6757" stop-color="#FB6253"/>
<stop offset="0.9084" stop-color="#540466"/>
</linearGradient>
<linearGradient id="paint1_linear_2066_278" x1="283.119" y1="3.98707" x2="326.879" y2="31.4964" gradientUnits="userSpaceOnUse">
<stop stop-color="#F6CC00"/>
<stop offset="0.2104" stop-color="#F98835"/>
<stop offset="0.377" stop-color="#FD3874"/>
<stop offset="0.4653" stop-color="#FF1292"/>
<stop offset="0.6757" stop-color="#FB6253"/>
<stop offset="0.9084" stop-color="#540466"/>
</linearGradient>
<linearGradient id="paint2_linear_2066_278" x1="699.218" y1="3.98707" x2="742.298" y2="30.1373" gradientUnits="userSpaceOnUse">
<stop stop-color="#F6CC00"/>
<stop offset="0.2104" stop-color="#F98835"/>
<stop offset="0.377" stop-color="#FD3874"/>
<stop offset="0.4653" stop-color="#FF1292"/>
<stop offset="0.6757" stop-color="#FB6253"/>
<stop offset="0.9084" stop-color="#540466"/>
</linearGradient>
<linearGradient id="paint3_linear_2066_278" x1="519.828" y1="533.571" x2="475.334" y2="510.131" gradientUnits="userSpaceOnUse">
<stop stop-color="#F6CC00"/>
<stop offset="0.2104" stop-color="#F98835"/>
<stop offset="0.377" stop-color="#FD3874"/>
<stop offset="0.4653" stop-color="#FF1292"/>
<stop offset="0.6757" stop-color="#FB6253"/>
<stop offset="0.9084" stop-color="#540466"/>
</linearGradient>
<linearGradient id="paint4_linear_2066_278" x1="92.428" y1="525.552" x2="45.3847" y2="498.018" gradientUnits="userSpaceOnUse">
<stop stop-color="#F6CC00"/>
<stop offset="0.2104" stop-color="#F98835"/>
<stop offset="0.377" stop-color="#FD3874"/>
<stop offset="0.4653" stop-color="#FF1292"/>
<stop offset="0.6757" stop-color="#FB6253"/>
<stop offset="0.9084" stop-color="#540466"/>
</linearGradient>
<linearGradient id="paint5_linear_2066_278" x1="935.079" y1="520.245" x2="775.502" y2="543.222" gradientUnits="userSpaceOnUse">
<stop offset="0.0916" stop-color="#540466"/>
<stop offset="0.3243" stop-color="#FB6253"/>
<stop offset="0.5347" stop-color="#FF1292"/>
<stop offset="0.623" stop-color="#FD3874"/>
<stop offset="0.7896" stop-color="#F98835"/>
<stop offset="1" stop-color="#F6CC00"/>
</linearGradient>
</defs>
</svg>
