<svg width="24" height="26" viewBox="0 0 24 26" fill="none" xmlns="http://www.w3.org/2000/svg">
<path fill-rule="evenodd" clip-rule="evenodd" d="M5.67969 7.65106C5.67969 4.20065 8.24845 0.476501 12.3983 0.476501C16.5482 0.476501 19.117 4.20065 19.117 7.65106C19.117 12.7643 15.6294 15.9294 12.3983 15.9294C9.16723 15.9294 5.67969 12.7643 5.67969 7.65106ZM6.82416 8.23177C7.06715 12.318 9.8274 14.8246 12.399 14.8246C14.9705 14.8246 17.7302 12.3185 17.9743 8.23342C16.3087 8.01046 14.7522 7.3079 13.5031 6.20633C11.96 7.57171 9.992 8.31841 7.90362 8.31841C7.54698 8.31841 7.18753 8.28364 6.82416 8.23177Z" fill="#473BF0"/>
<path opacity="0.5" d="M22.4601 18.7378L16.6384 15.2557C15.274 16.43 13.643 17.0757 12.0613 17.0757C10.4797 17.0757 8.84871 16.43 7.48427 15.2557L1.66256 18.7378C0.824406 19.239 0.303711 20.156 0.303711 21.1304V25.4475C0.303711 25.7561 0.554541 26.0056 0.863598 26.0056H11.5015V20.4244C11.5015 20.1158 11.7517 19.8663 12.0613 19.8663C12.371 19.8663 12.6212 20.1158 12.6212 20.4244V26.0056H23.2591C23.5682 26.0056 23.819 25.7561 23.819 25.4475V21.1304C23.819 20.156 23.2983 19.239 22.4601 18.7378Z" fill="#473BF0"/>
</svg>
