<svg xmlns="http://www.w3.org/2000/svg" width="107" height="217" fill="none"><path fill="rgb(255, 227, 184)" d="M-1.5 216.999c-59.827 0-108.5-48.674-108.5-108.5S-61.327 0-1.5 0 107 48.673 107 108.499s-48.674 108.5-108.5 108.5m0-210.338c-56.154 0-101.838 45.684-101.838 101.837S-57.654 210.335-1.501 210.335c56.155 0 101.839-45.684 101.839-101.837S54.654 6.661-1.501 6.661"/><path fill="rgb(255, 227, 184)" d="M-1.5 193.321c-46.77 0-84.822-38.051-84.822-84.823s38.051-84.823 84.821-84.823c46.772 0 84.823 38.05 84.823 84.823S45.271 193.321-1.5 193.321m0-162.983c-43.098 0-78.162 35.062-78.162 78.161S-44.598 186.66-1.5 186.66c43.1 0 78.162-35.062 78.162-78.161 0-43.098-35.063-78.16-78.162-78.16"/><path fill="rgb(255, 227, 184)" d="M-1.5 169.107c-33.418 0-60.607-27.189-60.607-60.608S-34.918 47.893-1.5 47.893c33.42 0 60.608 27.188 60.608 60.606s-27.189 60.608-60.608 60.608m0-114.553c-29.746 0-53.946 24.2-53.946 53.944s24.2 53.947 53.945 53.947c29.747 0 53.947-24.2 53.947-53.946S28.246 54.554-1.5 54.554"/><path fill="rgb(255, 227, 184)" d="M-1.5 146.506c-20.956 0-38.006-17.051-38.006-38.007S-22.456 70.493-1.5 70.493c20.957 0 38.007 17.05 38.007 38.006s-17.05 38.007-38.007 38.007m0-69.352c-17.284 0-31.345 14.06-31.345 31.344s14.061 31.344 31.344 31.344c17.285 0 31.346-14.061 31.346-31.344S15.784 77.154-1.501 77.154"/></svg>