<svg width="22" height="19" viewBox="0 0 22 19" fill="none" xmlns="http://www.w3.org/2000/svg">
<path d="M15.9167 4.07143V4.57143H16.4167H19.698C20.4562 4.57143 21.1667 5.28168 21.1667 6.10714V9H1.16675V6.10714C1.16675 5.28168 1.87727 4.57143 2.6355 4.57143H5.91675H6.41675V4.07143V2.03571C6.41675 1.21025 7.12727 0.5 7.8855 0.5H14.448C15.2062 0.5 15.9167 1.21025 15.9167 2.03571V4.07143ZM13.7917 4.57143H14.2917V4.07143V2.71429V2.21429H13.7917H8.54175H8.04175V2.71429V4.07143V4.57143H8.54175H13.7917ZM13.1355 14.0714C13.7899 14.0714 14.2917 13.528 14.2917 12.8929V11.3571H21.1667V16.8511C21.1424 16.9005 21.1086 16.9671 21.0663 17.0457C20.9701 17.2248 20.8332 17.4603 20.6683 17.6929C20.5012 17.9285 20.3178 18.1433 20.1324 18.2946C19.9426 18.4495 19.7979 18.5 19.698 18.5H2.6355C1.87727 18.5 1.16675 17.7898 1.16675 16.9643V11.3571H8.04175V12.8929C8.04175 13.528 8.54365 14.0714 9.198 14.0714H13.1355Z" fill="#F7FCFF" stroke="#FF9CF8"/>
</svg>
