<svg id="svg11182" height="480" viewBox="0 0 720 480.00001" width="720" xmlns="http://www.w3.org/2000/svg" xmlns:cc="http://creativecommons.org/ns#" xmlns:dc="http://purl.org/dc/elements/1.1/" xmlns:inkscape="http://www.inkscape.org/namespaces/inkscape" xmlns:rdf="http://www.w3.org/1999/02/22-rdf-syntax-ns#" xmlns:sodipodi="http://sodipodi.sourceforge.net/DTD/sodipodi-0.dtd" xmlns:svg="http://www.w3.org/2000/svg"><clipPath id="clipPath29920-8-2-1"><ellipse id="path29922-3-3-5" cx="-514.286" cy="506.648" rx="260" ry="248.571" transform="matrix(.685 0 0 .716 705.099 116.389)"/></clipPath><g id="layer1" transform="translate(0 -572.362)"><g id="g13202" transform="translate(30443.744 -12501.25)"><path id="path13200" d="m-30383.744 13073.612c-33.102 0-60 26.899-60 60v91.998 16 144 16 92.002c0 33.102 26.898 60 60 60h600c33.101 0 60-26.898 60-60v-92.002-16-251.998c0-33.101-26.899-60-60-60z" fill="#3b3c3d" text-indent="0" text-align="start" text-decoration-line="none" text-decoration-style="solid" text-decoration-color="#000000" text-transform="none" block-progression="tb" white-space="normal" isolation="auto" mix-blend-mode="normal" solid-color="#000000" solid-opacity="1"/><path id="path13196" d="m-30427.744 13241.61h688v144h-688z" fill="#fff" text-indent="0" text-align="start" text-decoration-line="none" text-decoration-style="solid" text-decoration-color="#000000" text-transform="none" block-progression="tb" white-space="normal" isolation="auto" mix-blend-mode="normal" solid-color="#000000" solid-opacity="1"/><path id="path11963" d="m-30083.744 13250.861c-34.662 0-62.751 28.089-62.751 62.751s28.089 62.751 62.751 62.751 62.751-28.089 62.751-62.751-28.089-62.751-62.751-62.751zm0 6.997c1.381 0 2.746.07 4.102.166-.03.112-.06.222-.07.339-.231 1.756 1.014 3.378 2.77 3.609 1.756.232 3.377-1.014 3.608-2.77.02-.121 0-.239.01-.358 2.721.515 5.371 1.228 7.937 2.123-.06.105-.115.21-.162.323-.678 1.636.104 3.525 1.741 4.202 1.636.678 3.524-.104 4.202-1.74.05-.118.07-.238.107-.358 2.479 1.199 4.852 2.577 7.109 4.116-.08.08-.163.174-.236.27-1.078 1.405-.811 3.431.594 4.509s3.431.812 4.509-.593c.07-.09.122-.195.182-.292 2.074 1.79 4.014 3.729 5.805 5.803-.1.06-.196.118-.289.189-1.405 1.078-1.673 3.104-.594 4.509 1.078 1.405 3.105 1.672 4.511.594.1-.07.176-.163.262-.247 1.541 2.261 2.923 4.636 4.123 7.118-.119.03-.239.06-.356.107-1.636.678-2.418 2.566-1.74 4.203.677 1.636 2.566 2.418 4.202 1.74.113-.05.212-.113.317-.171.897 2.569 1.612 5.221 2.127 7.945-.119 0-.237 0-.358.01-1.756.231-3.001 1.854-2.77 3.61s1.854 3 3.61 2.769c.117-.02.226-.05.338-.08.1 1.358.166 2.726.166 4.109 0 1.384-.07 2.752-.166 4.111-.113-.03-.222-.07-.34-.08-.22-.03-.436-.03-.649-.02-1.49.108-2.757 1.252-2.959 2.788-.231 1.756 1.012 3.379 2.768 3.61.122.02.24 0 .36.01-.515 2.723-1.229 5.375-2.125 7.942-.105-.06-.205-.124-.319-.171-.409-.169-.833-.247-1.25-.243-1.254.01-2.444.758-2.952 1.986-.678 1.636.104 3.524 1.74 4.202.117.05.237.07.356.107-1.2 2.482-2.582 4.858-4.123 7.118-.09-.08-.165-.172-.262-.247-.527-.404-1.141-.619-1.76-.656-1.032-.06-2.076.372-2.75 1.25-1.078 1.405-.812 3.433.593 4.511.09.07.195.122.293.182-1.793 2.076-3.735 4.017-5.811 5.809-.06-.1-.109-.199-.18-.291-.674-.879-1.719-1.312-2.751-1.251-.619.04-1.233.252-1.76.656-1.405 1.079-1.67 3.106-.592 4.511.07.1.164.175.247.261-2.261 1.542-4.637 2.923-7.12 4.123-.03-.119-.06-.239-.107-.356-.508-1.227-1.697-1.973-2.95-1.984-.418 0-.843.07-1.252.244-1.637.677-2.419 2.566-1.741 4.202.05.113.113.212.171.317-2.568.897-5.22 1.612-7.944 2.127 0-.119 0-.237-.01-.358-.202-1.536-1.469-2.682-2.959-2.79-.213-.01-.431 0-.651.02-1.756.231-3 1.854-2.768 3.61.01.117.05.226.08.338-1.358.1-2.725.166-4.109.166-1.383 0-2.751-.07-4.109-.166.03-.112.06-.221.08-.338.231-1.756-1.015-3.379-2.771-3.61-.219-.03-.436-.03-.649-.02-1.49.108-2.757 1.254-2.959 2.79-.02.121 0 .239-.01.358-2.724-.515-5.375-1.229-7.943-2.125.06-.105.124-.205.171-.319.678-1.636-.104-3.526-1.741-4.204-.409-.17-.834-.247-1.252-.244-1.253.01-2.443.759-2.952 1.986-.05.117-.07.237-.107.356-2.482-1.2-4.857-2.582-7.118-4.123.08-.09.173-.165.247-.262 1.078-1.406.811-3.433-.594-4.511-.527-.405-1.141-.619-1.76-.656-1.031-.06-2.077.372-2.751 1.25-.07.09-.122.195-.182.293-2.075-1.792-4.017-3.733-5.808-5.809.1-.06.199-.11.292-.182 1.405-1.078 1.671-3.104.593-4.509-.674-.878-1.718-1.312-2.749-1.25-.619.04-1.233.251-1.76.656-.1.07-.175.164-.261.247-1.542-2.261-2.924-4.637-4.125-7.12.119-.03.239-.06.356-.107 1.636-.678 2.418-2.566 1.741-4.202-.509-1.228-1.697-1.974-2.951-1.984-.417 0-.843.07-1.252.243-.113.05-.212.113-.317.171-.896-2.568-1.611-5.22-2.127-7.944.12 0 .237 0 .358-.01 1.756-.231 3.002-1.854 2.771-3.61-.203-1.536-1.47-2.68-2.96-2.788-.212-.01-.431 0-.65.02-.118.01-.226.05-.339.08-.1-1.358-.166-2.725-.166-4.109 0-1.383.07-2.751.166-4.109.113.03.221.06.339.08 1.756.231 3.377-1.013 3.608-2.769s-1.013-3.379-2.769-3.61c-.121-.02-.239 0-.358-.01.516-2.725 1.23-5.378 2.127-7.947.105.06.205.126.319.173 1.636.678 3.525-.104 4.202-1.74.678-1.637-.104-3.525-1.74-4.203-.118-.05-.238-.07-.358-.107 1.201-2.483 2.583-4.859 4.125-7.119.09.08.163.172.261.247 1.405 1.078 3.432.81 4.511-.595 1.078-1.405.81-3.431-.595-4.509-.09-.07-.19-.128-.287-.187 1.79-2.074 3.729-4.013 5.803-5.803.06.1.111.199.182.292 1.078 1.405 3.104 1.673 4.509.595 1.405-1.079 1.673-3.104.594-4.51-.07-.1-.153-.186-.236-.271 2.258-1.539 4.63-2.917 7.109-4.116.03.119.06.239.107.356.678 1.636 2.566 2.418 4.203 1.741 1.636-.678 2.418-2.566 1.74-4.203-.05-.112-.105-.216-.162-.321 2.566-.894 5.215-1.608 7.936-2.123 0 .12 0 .237.01.358.231 1.756 1.854 3.002 3.61 2.771 1.756-.232 3-1.854 2.769-3.61-.02-.117-.05-.227-.07-.339 1.356-.1 2.721-.166 4.103-.166z" fill="#3d6591" text-indent="0" text-align="start" text-decoration-line="none" text-decoration-style="solid" text-decoration-color="#000000" text-transform="none" block-progression="tb" white-space="normal" isolation="auto" mix-blend-mode="normal" solid-color="#000000" solid-opacity="1"/><path id="path11965" d="m-30084.195 13258.284-1.898 33.22 1.279 10.65c-.291.03-.575.07-.859.12l-1.524-10.623-10.431-31.598-.871.233 6.765 32.58 3.992 9.962c-.272.101-.539.211-.8.331l-4.22-9.866-18.256-27.823-.781.452 14.967 29.719 6.436 8.589c-.236.167-.47.337-.693.522l-6.625-8.433-24.833-22.149-.639.638 22.149 24.833 8.433 6.625c-.184.223-.354.457-.522.693l-8.588-6.434-29.719-14.967-.452.779 27.821 18.256 9.866 4.22c-.121.262-.228.53-.33.802l-9.961-3.994-32.58-6.765-.235.871 31.598 10.433 10.625 1.522c-.05.284-.09.568-.12.859l-10.65-1.279-33.222 1.9v.901l33.222 1.897 10.65-1.277c.03.291.07.575.12.859l-10.625 1.522-31.598 10.433.235.871 32.58-6.765 9.961-3.994c.101.272.211.539.332.801l-9.868 4.221-27.821 18.254.452.781 29.719-14.966 8.588-6.437c.168.237.339.47.524.693l-8.435 6.627-22.149 24.833.639.637 24.833-22.147 6.627-8.435c.222.184.455.354.691.522l-6.436 8.59-14.967 29.719.781.45 18.256-27.82 4.22-9.869c.262.121.53.231.802.332l-3.994 9.962-6.765 32.581.871.233 10.431-31.598 1.524-10.624c.284.05.568.09.859.119l-1.279 10.65 1.898 33.222h.902l1.898-33.222-1.279-10.65c.291-.03.575-.07.859-.119l1.524 10.624 10.431 31.598.871-.233-6.765-32.581-3.994-9.962c.273-.101.54-.211.802-.332l4.22 9.869 18.256 27.82.781-.45-14.967-29.719-6.436-8.59c.236-.168.469-.338.691-.522l6.627 8.435 24.833 22.147.639-.637-22.149-24.833-8.435-6.627c.185-.223.356-.456.524-.693l8.588 6.437 29.719 14.966.452-.781-27.821-18.254-9.868-4.221c.121-.262.231-.529.332-.801l9.961 3.994 32.58 6.765.235-.871-31.598-10.433-10.625-1.522c.05-.284.09-.568.12-.859l10.65 1.277 33.222-1.897v-.901l-33.222-1.9-10.65 1.279c-.03-.291-.07-.575-.12-.859l10.625-1.522 31.598-10.433-.235-.871-32.58 6.765-9.961 3.994c-.102-.272-.209-.54-.33-.802l9.866-4.22 27.821-18.256-.452-.779-29.719 14.967-8.588 6.434c-.168-.236-.338-.47-.522-.693l8.433-6.625 22.149-24.833-.639-.638-24.833 22.149-6.625 8.433c-.223-.185-.457-.355-.693-.522l6.436-8.589 14.967-29.719-.781-.452-18.256 27.823-4.22 9.866c-.261-.12-.528-.23-.8-.331l3.992-9.962 6.765-32.58-.871-.233-10.431 31.598-1.524 10.623c-.284-.05-.568-.09-.859-.12l1.279-10.65-1.898-33.22z" fill="#3d6591" text-indent="0" text-align="start" text-decoration-line="none" text-decoration-style="solid" text-decoration-color="#000000" text-transform="none" block-progression="tb" white-space="normal" isolation="auto" mix-blend-mode="normal" solid-color="#000000" solid-opacity="1"/><path id="path13198" d="m-30383.744 13089.612h600c24.514 0 44 19.486 44 44v91.998h-688v-91.998c0-24.514 19.485-44 44-44z" fill="#fd982f" text-indent="0" text-align="start" text-decoration-line="none" text-decoration-style="solid" text-decoration-color="#000000" text-transform="none" block-progression="tb" white-space="normal" isolation="auto" mix-blend-mode="normal" solid-color="#000000" solid-opacity="1"/><path id="rect11973" d="m-30427.744 13401.61h688v92.002c0 24.515-19.486 44-44 44h-600c-24.515 0-44-19.485-44-44z" fill="#3ab37c" text-indent="0" text-align="start" text-decoration-line="none" text-decoration-style="solid" text-decoration-color="#000000" text-transform="none" block-progression="tb" white-space="normal" isolation="auto" mix-blend-mode="normal" solid-color="#000000" solid-opacity="1"/></g></g></svg>