<svg width="1536" height="923" viewBox="0 0 1536 923" fill="none" xmlns="http://www.w3.org/2000/svg">
<g clip-path="url(#clip0_22_205)">
<path fill-rule="evenodd" clip-rule="evenodd" d="M-0.000976562 -0.255859H1536V307.33H-0.000976562V-0.255859Z" fill="#FF9933"/>
<path fill-rule="evenodd" clip-rule="evenodd" d="M-0.000976562 307.329H1536V614.915H-0.000976562V307.329Z" fill="#EEEEEE"/>
<path fill-rule="evenodd" clip-rule="evenodd" d="M-0.000976562 614.92H1536V922.506H-0.000976562V614.92Z" fill="#128807"/>
<path fill-rule="evenodd" clip-rule="evenodd" d="M768 350.684C707.079 350.684 657.609 400.005 657.609 460.926C657.609 521.847 707.078 571.317 768 571.317C828.921 571.317 878.391 521.848 878.391 460.926C878.316 400.005 828.922 350.684 768 350.684ZM785.544 362.86C788.335 363.446 790.977 363.894 793.694 364.777L776.66 417.614L771.92 444.915C770.823 444.649 769.672 444.511 768.501 444.49L770.94 416.878L768.149 361.39C771.09 361.39 773.869 361.54 776.66 361.837C776.66 361.986 776.511 361.986 776.511 362.136C776.511 364.777 778.567 366.972 781.07 366.972C783.414 366.972 785.321 365.065 785.544 362.86ZM767.925 361.39L765.145 416.878L767.777 444.49C766.54 444.511 765.336 444.681 764.175 444.957L759.489 417.614L742.455 364.777C745.108 363.893 747.75 363.446 750.53 362.86C750.828 365.065 752.735 366.823 755.004 366.823C757.581 366.823 759.638 364.777 759.638 362.136V361.688C762.344 361.389 765.145 361.39 767.925 361.39ZM793.981 364.777C796.633 365.651 799.275 366.386 801.918 367.419C801.768 367.856 801.544 368.442 801.544 369.028C801.544 371.52 803.601 373.576 806.167 373.576C807.925 373.576 809.693 372.405 810.354 370.785C812.846 371.968 815.264 373.288 817.768 374.758L787.6 421.139L775.957 446.47C774.913 445.895 773.794 445.426 772.623 445.097L782.242 418.934L793.981 364.777ZM776.617 446.854L792.66 424.217L817.981 374.897C820.26 376.218 822.614 377.688 824.958 379.158C824.297 380.032 823.925 380.916 823.925 382.087C823.925 384.591 825.98 386.646 828.559 386.646C830.018 386.646 831.339 386.06 832.148 384.729C834.353 386.646 836.409 388.554 838.316 390.46L797.219 427.594L779.451 449.027C778.588 448.207 777.64 447.472 776.617 446.854ZM779.983 449.549L801.32 431.855L838.54 390.609C840.446 392.665 842.354 394.572 844.111 396.766C843.014 397.651 842.503 398.971 842.503 400.293C842.503 402.795 844.548 404.852 846.977 404.852C848.074 404.852 848.883 404.553 849.693 403.967C851.387 406.31 852.846 408.666 854.167 411.009L804.847 436.255L782.178 452.404C781.55 451.381 780.815 450.412 779.983 449.549ZM782.562 453.064L807.712 441.538L854.316 411.158C855.861 413.8 857.107 416.591 858.353 418.934C856.808 419.669 855.562 421.437 855.562 423.344C855.562 425.836 857.618 427.893 860.047 427.893C860.772 427.893 861.293 427.744 861.804 427.456C862.689 430.098 863.487 432.59 864.149 435.232L809.917 446.683L783.925 456.303C783.595 455.163 783.126 454.087 782.562 453.064ZM784.117 457.027L811.452 452.404L864.298 435.531C864.958 437.874 865.618 440.814 866.13 443.456C863.861 443.743 862.167 445.511 862.167 448.005C862.167 450.497 864.298 452.553 866.79 452.553H867.237C867.525 455.195 867.526 458.135 867.526 460.777L812.186 458.135L784.575 460.563C784.544 459.349 784.394 458.167 784.117 457.027ZM784.575 461.32L812.186 464.004L867.526 461.064C867.526 464.004 867.525 466.795 867.237 469.437H866.79C864.298 469.437 862.167 471.631 862.167 473.985C862.167 476.329 863.861 478.098 866.055 478.534C865.544 481.325 864.958 483.967 864.298 486.609L845.432 480.59L811.452 469.575L784.096 464.952C784.383 463.781 784.544 462.566 784.575 461.32ZM783.903 465.666L809.917 475.307L864.149 486.907C863.487 489.549 862.689 492.34 861.655 494.683C861.507 494.683 861.218 494.534 861.07 494.534H860.047C857.47 494.534 855.413 496.451 855.413 499.093C855.413 499.817 855.562 500.265 855.861 500.851C856.073 501.585 856.521 502.171 857.107 502.608C857.256 502.608 857.33 502.758 857.47 502.758C857.618 502.907 857.767 503.056 857.916 503.056C857.992 503.056 858.13 503.194 858.204 503.344C857.033 505.836 855.712 508.339 854.316 510.683L807.786 480.59H807.712L782.476 469.032C783.062 467.977 783.553 466.848 783.903 465.666ZM782.156 469.575L794.13 477.948L804.847 485.586L854.167 510.832C852.697 513.324 851.238 515.818 849.619 518.023C848.883 517.586 847.936 517.287 846.977 517.287C844.409 517.287 842.428 519.194 842.428 521.697C842.428 523.157 843.014 524.488 844.111 525.213C842.279 527.268 840.446 529.325 838.54 531.242L801.32 490.135L780.005 472.409C780.825 471.546 781.539 470.598 782.156 469.575ZM779.483 472.92L797.219 494.396L838.316 531.53C836.409 533.586 834.503 535.194 832.372 536.963C831.488 536.227 830.54 535.93 829.507 535.93C827.014 535.93 824.958 538.135 824.958 540.488C824.958 541.361 825.107 541.947 825.32 542.534C822.902 544.004 820.41 545.623 817.981 547.231L792.66 497.911L776.606 475.136C777.64 474.507 778.61 473.762 779.483 472.92ZM775.957 475.52L787.526 500.702L817.693 547.38C815.264 548.702 812.846 550.022 810.354 551.194C809.693 549.437 808.075 548.414 806.242 548.414C803.675 548.414 801.619 550.608 801.619 552.962C801.619 553.548 801.767 554.134 801.917 554.72C799.275 555.604 796.697 556.477 793.98 557.074L782.242 502.758L772.591 476.904C773.773 476.564 774.902 476.105 775.957 475.52ZM771.92 477.075L776.66 504.376L793.694 557.224C790.977 557.948 788.26 558.682 785.544 558.981C785.183 556.925 783.264 555.167 781.07 555.167C778.429 555.167 776.511 557.224 776.511 559.567V560.153C773.731 560.45 770.94 560.59 768.149 560.59L770.94 505.25L768.362 477.5C769.587 477.479 770.77 477.341 771.92 477.075ZM767.648 477.5L765.145 505.25L767.925 560.59C764.996 560.59 762.28 560.45 759.414 560.153V559.567C759.414 557.224 757.358 555.167 754.79 555.167C752.585 555.167 750.679 556.925 750.316 558.981C747.601 558.533 744.959 557.948 742.391 557.224L759.414 504.376L764.058 477.011C765.209 477.309 766.412 477.468 767.648 477.5ZM760.043 475.403C761.087 475.988 762.195 476.468 763.366 476.819L753.693 502.758L742.094 557.074C739.451 556.477 736.809 555.604 734.093 554.72C734.307 554.134 734.466 553.548 734.466 552.962C734.466 550.608 732.41 548.414 729.981 548.414C728.075 548.414 726.456 549.585 725.656 551.194C723.228 550.022 720.736 548.702 718.317 547.38L748.474 500.702L760.043 475.403ZM756.677 472.909C757.507 473.709 758.423 474.422 759.404 475.029L743.34 497.762L718.094 547.231C715.676 545.623 713.246 544.152 710.977 542.534C711.489 541.947 711.851 541.074 711.851 540.041C711.851 537.399 709.795 535.344 707.377 535.344C705.832 535.344 704.586 536.078 703.852 537.112C701.647 535.194 699.59 533.586 697.684 531.53L738.94 494.396L756.677 472.909ZM753.833 418.934L763.473 445.139C762.29 445.49 761.14 445.97 760.085 446.555L748.474 421.139L718.317 374.748C720.736 373.288 723.153 371.967 725.582 370.785C726.318 372.553 727.925 373.725 729.833 373.725C732.41 373.725 734.381 371.67 734.381 369.325C734.381 368.591 734.243 367.856 734.093 367.419C736.66 366.386 739.451 365.651 742.094 364.777L753.833 418.934ZM752.245 465.666C752.597 466.816 753.054 467.913 753.629 468.947L728.224 480.59L681.684 510.683C680.288 508.339 679.192 505.985 677.944 503.344C679.702 502.758 680.885 501.139 680.885 499.231C680.885 496.59 678.893 494.534 676.251 494.534C675.59 494.534 674.941 494.683 674.344 494.982C673.47 492.478 672.587 489.697 671.777 486.907L726.093 475.307L752.245 465.666ZM731.303 485.437L753.971 469.543C754.588 470.566 755.323 471.525 756.155 472.387L734.754 490.135L697.534 531.242C695.479 529.325 693.646 527.13 691.814 525.213C692.847 524.339 693.582 523.019 693.582 521.548C693.582 519.046 691.527 517.149 689.023 517.149C688 517.149 687.042 517.437 686.307 517.873C684.698 515.68 683.229 513.324 681.832 510.832L731.303 485.437ZM743.34 424.217L759.457 446.918C758.445 447.536 757.528 448.26 756.677 449.07L738.94 427.594L697.684 390.46C699.739 388.554 701.721 386.646 703.852 384.878C704.586 385.912 705.907 386.646 707.377 386.646C709.944 386.646 712 384.591 712 381.949C712 380.916 711.563 380.043 711.041 379.158C713.396 377.838 715.676 376.218 718.094 374.897L743.34 424.217ZM734.68 431.855L756.144 449.592C755.312 450.454 754.588 451.413 753.96 452.436L731.303 436.255L681.833 411.009C683.229 408.666 684.772 406.31 686.381 403.818C687.042 404.553 688.149 404.852 689.097 404.852C691.527 404.852 693.646 402.796 693.646 400.293C693.646 398.971 692.922 397.651 691.963 396.628C693.646 394.572 695.479 392.665 697.47 390.609L734.68 431.855ZM728.224 441.538L753.566 453.096C753.012 454.109 752.553 455.185 752.224 456.314L726.093 446.683L671.777 435.083C672.587 432.292 673.47 429.65 674.344 427.158C674.792 427.307 675.527 427.456 676.038 427.456C678.605 427.456 680.586 425.4 680.586 422.897C680.586 420.99 679.415 419.382 677.87 418.796C679.042 416.154 680.288 413.65 681.684 411.158L728.224 441.538ZM724.548 452.404L752.043 457.027C751.766 458.177 751.606 459.37 751.574 460.585L723.814 458.135L668.4 460.777C668.4 458.135 668.624 455.195 668.773 452.553H669.571C672.075 452.553 674.13 450.647 674.13 448.005C674.13 445.511 672.288 443.743 669.87 443.456C670.456 440.814 670.967 437.874 671.702 435.531L724.548 452.404ZM723.814 464.004L751.574 461.299C751.606 462.556 751.766 463.781 752.054 464.952L724.548 469.575L671.702 486.609C670.968 483.967 670.456 481.325 669.87 478.385C672.15 478.098 673.833 476.329 673.833 473.985C673.833 471.493 671.777 469.437 669.285 469.437H668.773C668.624 466.795 668.4 464.004 668.4 461.064L723.814 464.004Z" fill="#000084"/>
</g>
<defs>
<clipPath id="clip0_22_205">
<rect width="1536" height="923" fill="white"/>
</clipPath>
</defs>
</svg>
