<svg width="512" height="512" viewBox="0 0 512 512" fill="none" xmlns="http://www.w3.org/2000/svg">
<path d="M68.509 185.815C72.194 187.941 76.446 188.366 80.301 187.317C84.156 186.296 87.614 183.802 89.74 180.146C101.192 160.303 113.097 137.371 125.372 118.407C127.328 114.807 127.696 110.697 126.704 106.955C125.429 102.25 123.019 99.8682 119.107 97.2892C102.128 87.4812 85.148 77.6732 68.14 67.8662L17.173 156.166C34.295 166.057 51.387 175.922 68.509 185.815ZM236.661 186.665C238.929 187.969 241.565 188.281 244.116 187.601C247.348 186.75 248.595 185.191 250.352 182.612C251.486 180.372 251.656 177.878 251.06 175.582C250.437 173.258 248.963 171.16 246.836 169.799L193.432 138.958C184.304 133.686 177.161 134.763 169.592 135.896C159.728 137.398 149.295 138.958 134.272 132.013L105.869 181.223C125.712 193.724 133.167 204.325 140.565 214.842C147.652 224.905 154.682 234.883 175.319 246.817C195.955 258.722 218.122 270.231 238.362 273.576C257.381 276.723 278.217 270.6 288.393 252.996C290.518 249.311 290.774 244.917 289.64 240.807C287.995 234.882 284.736 231.623 279.832 228.363C252.193 212.404 224.527 196.444 196.89 180.486C193.404 178.473 192.213 174.023 194.226 170.565C196.239 167.078 200.689 165.888 204.175 167.9L236.661 186.665ZM53.372 193.808C52.408 198.712 51.643 203.701 51.019 208.747C50.027 216.882 49.544 225.188 49.544 233.664C49.544 249.736 51.358 265.355 54.788 280.294C58.36 295.743 63.632 310.483 70.407 324.345C72.192 327.945 70.69 332.282 67.091 334.04C63.49 335.797 59.153 334.323 57.396 330.723C50.084 315.813 44.414 300.023 40.616 283.526C36.93 267.482 34.946 250.758 34.946 233.665C34.946 224.679 35.513 215.807 36.562 207.048C37.412 200.046 38.603 193.072 40.105 186.156L3.65202 165.121C0.16602 163.108 -1.02598 158.686 0.95902 155.2L59.211 54.3432C61.195 50.8562 65.646 49.6662 69.104 51.6502L104.934 72.3432C124.409 54.1162 147.17 39.3482 172.258 29.0582C198.138 18.4572 226.4 12.6172 255.993 12.6172C285.587 12.6172 313.877 18.4572 339.728 29.0582C364.816 39.3482 387.606 54.1162 407.052 72.3432L442.485 51.9052C445.972 49.5812 450.706 50.6862 452.803 54.3152L473.41 90.0032C475.423 93.4902 474.232 97.9412 470.774 99.9532C467.288 101.966 462.836 100.776 460.825 97.2882L443.844 67.8652C426.723 77.7582 409.602 87.6222 392.509 97.5152C388.825 99.6412 386.329 103.099 385.309 106.954C384.26 110.809 384.686 115.033 386.811 118.718C398.661 139.156 410.424 159.65 422.245 180.116C424.371 183.801 427.857 186.295 431.684 187.316C435.539 188.336 439.792 187.94 443.448 185.814C460.569 175.893 477.719 166.056 494.841 156.164L477.833 126.74C475.849 123.253 477.039 118.831 480.497 116.819C483.983 114.835 488.435 116.025 490.419 119.483L511.026 155.2C513.039 158.686 511.819 163.108 508.361 165.121L471.88 186.154C473.41 193.071 474.601 200.044 475.451 207.046C476.5 215.805 477.039 224.677 477.039 233.663C477.039 283.666 460.428 329.787 432.421 366.835C404.868 403.288 366.233 430.955 321.529 444.817V492.099C321.529 496.124 318.269 499.384 314.244 499.384H197.769C193.744 499.384 190.484 496.124 190.484 492.099V444.817C168.005 437.844 147.085 427.384 128.291 414.061C107.74 399.519 89.797 381.519 75.283 360.94C72.959 357.652 73.753 353.117 77.041 350.82C80.329 348.496 84.865 349.289 87.189 352.577C100.738 371.824 117.519 388.634 136.71 402.24C153.037 413.806 171.123 423.047 190.483 429.538V425.541C190.483 417.264 193.856 409.723 199.298 404.281C203.012 400.568 207.718 397.818 212.933 396.429C211.629 384.325 206.613 378.004 201.822 372.023C195.416 363.973 189.378 356.404 189.378 340.757V279.528C189.378 276.949 190.087 274.256 190.994 271.875C183.198 267.963 175.517 263.711 168.033 259.402C144.618 245.881 136.68 234.599 128.687 223.232C122.082 213.878 115.477 204.466 97.818 193.326C93.991 197.266 89.2 200.015 84.07 201.376C76.643 203.36 68.451 202.538 61.279 198.399L53.372 193.808ZM118.115 79.9682C121.006 81.6122 123.897 83.2842 126.789 84.9282C133.933 89.0672 138.751 95.7572 140.764 103.184C142.125 108.258 142.153 113.7 140.707 118.916C151.819 123.848 159.842 122.629 167.439 121.496C177.587 119.965 187.14 118.548 200.718 126.372L253.782 157.015C255.227 157.866 256.589 158.829 257.807 159.906C260.329 158.291 262.938 156.618 265.517 155.031C269.939 152.281 274.673 149.418 279.039 146.924C302.453 133.403 316.173 132.155 330.034 130.908C341.401 129.888 352.852 128.867 371.336 119.144C369.834 113.843 369.861 108.344 371.251 103.185C373.235 95.7582 378.054 89.0962 385.226 84.9572L393.872 79.9682C376.411 64.2922 356.256 51.5362 334.202 42.4942C310.136 32.6292 283.717 27.1872 255.994 27.1872C228.271 27.1872 201.852 32.6292 177.786 42.4942C155.731 51.5372 135.604 64.2932 118.115 79.9682ZM265.262 172.406C267.586 181.987 263.873 192.05 255.936 197.833L287.088 215.805C292.673 218.583 297.945 224.479 300.808 229.865L332.897 211.355C336.383 209.342 340.833 210.533 342.846 213.991C344.859 217.477 343.668 221.928 340.182 223.941L307.725 242.678C306.789 243.217 305.769 243.528 304.777 243.613C305.004 247.468 304.55 251.323 303.303 255.037C304.89 257.957 306.988 259.516 310.077 260.707C312.572 261.359 315.321 261.047 317.56 259.771L370.597 229.128C379.044 224.224 381.766 218.697 385.196 210.023C388.825 200.725 392.708 190.917 406.229 181.364L377.797 132.154C357.046 143.068 344.12 144.23 331.308 145.364C319.062 146.469 306.93 147.575 286.265 159.509C282.722 161.522 278.102 164.328 273.226 167.361C270.422 169.09 267.728 170.819 265.262 172.406ZM295.083 268.161C279.209 286.643 259.423 291.264 238.22 288.259V317.032C238.22 321.057 234.932 324.317 230.907 324.317C226.883 324.317 223.623 321.057 223.623 317.032V285.085C217.187 283.243 210.725 280.861 204.233 278.083C204.063 278.65 203.978 279.16 203.978 279.528V340.757C203.978 351.359 208.457 357 213.218 362.981C219.427 370.776 226.003 379.025 227.505 395.466H284.312C285.105 375.623 288.79 364.398 296.898 346.88C298.57 343.252 302.907 341.664 306.564 343.336C310.192 345.008 311.78 349.345 310.107 352.974C302.85 368.678 299.562 378.628 298.853 396.372C304.183 397.733 308.917 400.511 312.687 404.281C318.129 409.723 321.531 417.264 321.531 425.541V429.538C361.443 416.186 395.941 390.958 420.83 358.048C446.966 323.465 462.471 280.378 462.471 233.663C462.471 225.187 461.96 216.882 460.968 208.746C460.373 203.7 459.579 198.711 458.644 193.807C456.008 195.338 453.373 196.869 450.736 198.399C443.564 202.538 435.373 203.359 427.945 201.376C422.843 200.015 418.109 197.322 414.31 193.467C404.502 200.639 401.554 208.179 398.749 215.294C395.035 224.762 391.52 233.663 378.31 241.458L324.82 272.328C323.29 273.207 321.73 273.887 320.143 274.426C320.709 283.752 320.965 293.191 320.965 302.546C320.965 307.734 320.709 313.006 320.17 318.137C319.774 322.134 316.202 325.053 312.205 324.628C308.208 324.231 305.316 320.659 305.714 316.662C306.225 311.956 306.395 307.279 306.395 302.545C306.395 293.219 306.196 283.865 305.573 274.539C301.659 273.377 298.031 271.194 295.083 268.161ZM205.054 425.542V484.814H306.96V425.542C306.96 421.29 305.202 417.406 302.396 414.601C299.589 411.766 295.706 410.037 291.454 410.037H220.559C216.307 410.037 212.424 411.766 209.618 414.601C206.784 417.406 205.054 421.29 205.054 425.542Z" fill="#1075FF"/>
</svg>
