<svg width="60" height="60" viewBox="0 0 60 60" fill="none" xmlns="http://www.w3.org/2000/svg">
<path d="M1 29.5001C2.5696 67.5149 56.4442 67.4855 58 29.5001C56.4406 -8.49433 2.5654 -8.50573 1 29.5001Z" fill="#F46BCD"/>
<path d="M37.8749 28.8067C47.5014 27.5923 57.0523 29.536 58 29.748C57.9547 22.8546 55.5032 16.5226 51.4871 11.558C50.8702 12.3932 46.0272 18.6641 35.3478 23.0673C36.2664 24.9343 37.1027 26.8725 37.8749 28.8067Z" fill="#B8509A"/>
<path d="M48.613 8.36436C43.5142 3.77897 36.8056 1 29.4504 1C27.1191 1.01495 24.8478 1.30379 22.6818 1.8203C23.4789 2.89818 28.7282 10.1259 33.4665 18.9019C43.7545 15.0151 48.1013 9.10855 48.613 8.36436Z" fill="#B8509A"/>
<path d="M28.3267 20.6676C23.5438 12.0738 18.3694 4.84601 17.6027 3.78308C9.52524 7.63993 3.46396 15.1708 1.599 24.2206C2.89225 24.2356 14.8049 24.2811 28.3267 20.6676Z" fill="#B8509A"/>
<path d="M31.6995 29.9177C32.0728 29.7968 32.4461 29.6765 32.8342 29.5711C32.1173 27.9285 31.3263 26.2702 30.5048 24.6575C16.1859 28.9833 2.26992 28.8025 1.01581 28.7875C0.760674 36.4536 3.60907 43.7276 8.3771 49.0307C9.03385 47.8998 16.9027 34.741 31.6995 29.9177Z" fill="#B8509A"/>
<path d="M34.4252 34.4034C18.6341 39.962 12.9528 51.0208 12.4574 52.0504C19.872 58.169 31.6578 59.8497 40.5728 55.7713C40.1503 53.286 38.5331 44.6534 34.6 34.345C34.5419 34.3742 34.469 34.3891 34.4252 34.4034Z" fill="#B8509A"/>
<path d="M40.1461 32.9809C43.8187 43.1867 45.311 51.4869 45.6181 53.2152C51.9096 48.9023 56.4009 42.0939 57.659 34.192C56.6931 33.8814 48.9539 31.5625 40.1461 32.9809Z" fill="#B8509A"/>
</svg>
