<svg width="512" height="512" viewBox="0 0 512 512" fill="none" xmlns="http://www.w3.org/2000/svg">
<path d="M197.587 434.928C196.676 431.446 194.458 428.525 191.342 426.701C188.228 424.879 184.593 424.377 181.109 425.287L179.697 425.658L183.59 397.151C185.877 380.397 182.053 366.49 172.53 356.931L104.46 288.612C94.442 278.558 79.865 275.752 67.298 280.195L67.831 187.573C67.882 178.794 64.491 170.502 58.286 164.225C52.08 157.947 43.827 154.463 35.048 154.413C34.985 154.413 34.923 154.413 34.86 154.413C16.766 154.413 1.99199 169.08 1.88699 187.194L1.00099 341.105C0.920987 354.96 6.02599 367.587 16.176 378.632L53.179 418.896C62.907 429.482 66.338 440.401 64.601 455.787L61.124 456.697C53.924 458.583 49.599 465.974 51.482 473.176L57.287 495.353C58.874 501.411 64.36 505.435 70.351 505.434C71.479 505.434 72.625 505.29 73.766 504.993L193.75 473.585C200.95 471.699 205.275 464.308 203.392 457.105L197.586 434.93L197.587 434.928ZM185.16 440.766C185.16 440.766 185.153 440.768 185.15 440.768L185.159 440.766H185.16ZM64.96 408.068L27.957 367.803C20.527 359.718 16.943 351.015 17.001 341.195L17.887 187.284C17.941 177.96 25.545 170.411 34.861 170.411H34.959C39.464 170.436 43.707 172.234 46.908 175.472C50.109 178.71 51.858 182.974 51.832 187.48L51.232 291.734C40.244 305.681 41.148 326.013 53.988 338.9L90.35 375.395C93.466 378.524 98.532 378.534 101.663 375.415C104.793 372.297 104.802 367.231 101.684 364.102L65.322 327.607C61.644 323.916 59.624 318.984 59.634 313.72C59.644 308.457 61.682 303.533 65.373 299.855C73.038 292.218 85.487 292.239 93.127 299.905L161.197 368.224C167.146 374.196 169.346 383.2 167.737 394.986L162.949 430.042L80.959 451.503C81.637 434.368 76.527 420.655 64.96 408.068ZM72.133 488.879L67.594 471.542L182.742 441.398L187.281 458.736L72.133 488.879ZM458.822 418.895L495.824 378.629C505.973 367.584 511.079 354.958 510.999 341.103L510.113 187.192C510.009 169.077 495.235 154.411 477.139 154.411C477.077 154.411 477.013 154.411 476.951 154.411C468.172 154.461 459.919 157.945 453.713 164.223C447.508 170.5 444.117 178.792 444.168 187.571L444.701 280.194C432.134 275.751 417.556 278.558 407.539 288.611L339.468 356.93C329.946 366.49 326.122 380.397 328.41 397.15L332.303 425.655L330.891 425.285C327.407 424.374 323.773 424.875 320.658 426.698C317.542 428.521 315.324 431.443 314.413 434.925L308.607 457.103C306.723 464.303 311.048 471.695 318.249 473.581L438.235 504.99C439.377 505.289 440.521 505.43 441.649 505.43C447.64 505.43 453.127 501.406 454.711 495.348L460.517 473.171C462.401 465.971 458.076 458.579 450.875 456.693L447.398 455.783C445.661 440.398 449.092 429.479 458.821 418.892L458.822 418.895ZM326.84 440.766L326.849 440.768C326.849 440.768 326.843 440.768 326.839 440.766H326.84ZM439.867 488.879L324.719 458.736L329.258 441.398L444.406 471.542L439.867 488.879ZM349.051 430.042L344.264 394.986C342.654 383.2 344.854 374.196 350.803 368.224L418.873 299.905C426.511 292.241 438.962 292.217 446.627 299.855C450.318 303.534 452.356 308.458 452.366 313.72C452.376 318.984 450.355 323.915 446.678 327.607L410.316 364.102C407.198 367.232 407.207 372.297 410.337 375.415C413.467 378.533 418.531 378.525 421.65 375.395L458.012 338.9C470.852 326.013 471.756 305.681 460.768 291.734L460.168 187.48C460.142 182.975 461.891 178.71 465.092 175.472C468.293 172.234 472.536 170.437 477.041 170.411H477.138C486.453 170.411 494.059 177.96 494.113 187.284L494.999 341.195C495.057 351.015 491.473 359.718 484.043 367.803L447.041 408.068C435.474 420.656 430.364 434.369 431.041 451.503L349.051 430.04V430.042ZM313.548 313.452C317.809 313.073 321.359 310.337 322.811 306.309L335.084 272.28L370.692 278.667C374.91 279.429 379.049 277.716 381.508 274.216C383.967 270.715 384.164 266.238 382.024 262.531L344.86 198.161C345.823 197.207 347.028 196.458 348.441 195.969C358.541 192.473 366.746 183.689 370.39 172.472C374.034 161.255 372.56 149.326 366.445 140.561C364.148 137.269 364.148 133.338 366.445 130.047C372.561 121.282 374.036 109.352 370.391 98.1355C366.747 86.9185 358.542 78.1345 348.443 74.6375C344.65 73.3255 342.339 70.1455 342.262 66.1335C342.059 55.4485 336.241 44.9295 326.699 37.9975C317.157 31.0645 305.357 28.7795 295.13 31.8885C291.288 33.0555 287.552 31.8405 285.132 28.6405C278.687 20.1165 267.797 15.0265 256.002 15.0265C244.208 15.0265 233.317 20.1155 226.871 28.6405C224.45 31.8405 220.713 33.0565 216.874 31.8895C206.646 28.7805 194.845 31.0655 185.304 37.9975C175.762 44.9295 169.944 55.4475 169.74 66.1335C169.663 70.1465 167.353 73.3265 163.561 74.6385C153.461 78.1345 145.256 86.9185 141.611 98.1355C137.966 109.352 139.441 121.281 145.556 130.047C147.853 133.339 147.853 137.27 145.556 140.56C139.44 149.325 137.965 161.254 141.609 172.472C145.254 183.689 153.46 192.473 163.559 195.971C164.972 196.46 166.177 197.209 167.14 198.163L129.974 262.535C127.835 266.242 128.035 270.719 130.493 274.219C132.953 277.719 137.103 279.43 141.309 278.668L176.916 272.283L189.19 306.316C190.644 310.34 194.193 313.077 198.453 313.456C198.787 313.485 199.119 313.499 199.449 313.499C203.325 313.499 206.857 311.476 208.83 308.06L240.855 252.592C245.5 254.529 250.654 255.584 256 255.584C261.345 255.584 266.5 254.529 271.145 252.592L303.169 308.06C305.142 311.477 308.673 313.5 312.55 313.5C312.88 313.5 313.213 313.486 313.547 313.456L313.548 313.452ZM200.494 290.496L189.676 260.501C188.353 256.832 184.571 254.652 180.738 255.34L149.351 260.968L173.553 219.049C176.237 224.236 180.238 228.928 185.301 232.607C194.843 239.541 206.644 241.825 216.87 238.717C220.709 237.551 224.448 238.764 226.868 241.965C227.175 242.371 227.501 242.762 227.828 243.152L200.493 290.495L200.494 290.496ZM256 239.581C249.19 239.581 243.071 236.864 239.631 232.314C234.752 225.862 227.392 222.293 219.667 222.293C217.198 222.293 214.692 222.658 212.219 223.409C206.759 225.068 200.215 223.666 194.706 219.664C189.197 215.661 185.844 209.868 185.734 204.165C185.53 193.492 178.88 184.34 168.793 180.848C163.403 178.982 158.93 174.001 156.826 167.525C154.722 161.048 155.414 154.39 158.677 149.713C164.785 140.96 164.785 129.645 158.677 120.889C155.414 116.212 154.722 109.553 156.826 103.077C158.93 96.6015 163.404 91.6205 168.794 89.7555C178.881 86.2635 185.53 77.1105 185.734 66.4375C185.843 60.7355 189.198 54.9415 194.707 50.9395C200.217 46.9365 206.764 45.5385 212.221 47.1955C222.438 50.2995 233.195 46.8025 239.632 38.2885C243.071 33.7395 249.192 31.0245 256.001 31.0245C262.81 31.0245 268.93 33.7405 272.368 38.2885C278.806 46.8025 289.564 50.3005 299.781 47.1955C305.24 45.5365 311.785 46.9385 317.294 50.9405C322.803 54.9435 326.156 60.7365 326.266 66.4395C326.47 77.1125 333.12 86.2655 343.208 89.7565C348.597 91.6225 353.07 96.6025 355.174 103.078C357.278 109.555 356.586 116.214 353.323 120.89C347.215 129.643 347.215 140.958 353.323 149.714C356.586 154.391 357.278 161.05 355.174 167.526C353.07 174.002 348.596 178.983 343.207 180.848C333.12 184.34 326.47 193.493 326.266 204.165C326.157 209.867 322.802 215.661 317.293 219.664C311.785 223.666 305.239 225.068 299.78 223.408C289.563 220.303 278.805 223.8 272.369 232.314C268.93 236.863 262.81 239.579 256 239.579V239.581ZM284.172 243.153C284.499 242.763 284.825 242.371 285.132 241.965C287.552 238.764 291.284 237.549 295.128 238.717C305.355 241.823 317.155 239.541 326.697 232.61C331.761 228.931 335.762 224.237 338.446 219.049L362.648 260.968L331.261 255.34C327.426 254.652 323.647 256.831 322.323 260.501L311.505 290.495L284.171 243.153H284.172ZM333.44 135.301C333.44 92.6005 298.701 57.8615 256 57.8615C213.299 57.8615 178.561 92.6015 178.561 135.301C178.561 178.001 213.3 212.742 256 212.742C298.7 212.742 333.44 178.001 333.44 135.301ZM256 196.743C222.122 196.743 194.561 169.181 194.561 135.303C194.561 101.425 222.123 73.8625 256 73.8625C289.877 73.8625 317.44 101.425 317.44 135.303C317.44 169.181 289.878 196.743 256 196.743ZM303.398 123.896C302.403 120.834 299.669 118.666 296.46 118.396L272.639 116.396L263.375 94.3585C262.127 91.3895 259.22 89.4595 256 89.4595C252.78 89.4595 249.873 91.3905 248.625 94.3595L239.362 116.396L215.54 118.396C212.331 118.666 209.597 120.833 208.602 123.896C207.607 126.958 208.545 130.32 210.983 132.424L229.08 148.045L223.621 171.319C222.887 174.454 224.102 177.725 226.708 179.618C228.105 180.633 229.756 181.145 231.411 181.145C232.843 181.145 234.277 180.761 235.555 179.987L256.001 167.605L276.448 179.988C279.203 181.657 282.689 181.51 285.295 179.617C287.901 177.724 289.117 174.453 288.381 171.318L282.923 148.045L301.019 132.424C303.457 130.319 304.395 126.959 303.4 123.896L303.398 123.896ZM268.8 139.1C266.545 141.046 265.559 144.083 266.239 146.982L268.458 156.444L260.144 151.409C258.871 150.638 257.436 150.252 256 150.252C254.564 150.252 253.13 150.638 251.855 151.409L243.543 156.443L245.762 146.98C246.443 144.081 245.455 141.044 243.201 139.098L235.844 132.745L245.529 131.933C248.497 131.684 251.081 129.807 252.235 127.061L256.001 118.102L259.768 127.061C260.922 129.807 263.506 131.684 266.474 131.933L276.159 132.745L268.802 139.098L268.8 139.1ZM376.28 81.3615H386.882V152.525C386.882 160.587 393.442 167.146 401.504 167.146H426.316C434.378 167.146 440.937 160.587 440.937 152.525V81.3615H451.536C456.556 81.3615 461.052 78.5565 463.27 74.0415C465.474 69.5565 464.935 64.3005 461.864 60.3275L424.239 11.6365C421.747 8.4125 417.982 6.5635 413.91 6.5635C409.838 6.5635 406.074 8.4125 403.582 11.6375L365.96 60.3255C362.887 64.2995 362.347 69.5545 364.55 74.0395C366.769 78.5565 371.264 81.3625 376.281 81.3615H376.28ZM413.91 24.4375L445.533 65.3615H432.937C428.519 65.3615 424.937 68.9435 424.937 73.3615V151.146H402.881V73.3615C402.881 68.9435 399.299 65.3615 394.881 65.3615H382.285L413.909 24.4375H413.91ZM60.46 81.3615H71.063V152.525C71.063 160.587 77.622 167.146 85.684 167.146H110.496C118.558 167.146 125.118 160.587 125.118 152.525V81.3615H135.716C140.737 81.3615 145.234 78.5565 147.451 74.0405C149.655 69.5545 149.115 64.2995 146.044 60.3275L108.419 11.6375C105.928 8.4135 102.165 6.5635 98.093 6.5625H98.09C94.02 6.5625 90.255 8.4115 87.761 11.6365L50.138 60.3255C47.066 64.2995 46.527 69.5545 48.73 74.0405C50.949 78.5575 55.444 81.3615 60.46 81.3615ZM98.09 24.4375L129.713 65.3615H117.117C112.699 65.3615 109.117 68.9435 109.117 73.3615V151.146H87.061V73.3615C87.061 71.2395 86.218 69.2055 84.718 67.7045C83.217 66.2045 81.183 65.3615 79.061 65.3615H66.464L98.088 24.4375H98.09Z" fill="#1075FF"/>
</svg>
