<svg width="512" height="512" viewBox="0 0 512 512" fill="none" xmlns="http://www.w3.org/2000/svg">
<path d="M255.693 81.54C165.863 81.54 92.779 154.622 92.779 244.452C92.779 273.191 100.367 301.445 114.718 326.16C128.642 350.135 148.591 370.308 172.409 384.5C179.782 388.894 183.841 396.037 183.841 404.614V442.385C183.841 455.765 192.861 467.071 205.136 470.562V472.083C205.136 493.817 222.818 511.5 244.552 511.5H266.831C288.565 511.5 306.247 493.817 306.247 472.083V470.562C318.522 467.071 327.542 455.766 327.542 442.385V404.614C327.542 396.037 331.603 388.893 338.974 384.5C362.794 370.309 382.744 350.135 396.665 326.16C411.019 301.445 418.604 273.191 418.604 244.452C418.605 154.622 345.523 81.54 255.693 81.54ZM266.832 495.5H244.553C231.641 495.5 221.137 484.995 221.137 472.083V471.682H290.248V472.083C290.248 484.995 279.744 495.5 266.832 495.5ZM298.248 455.682H213.137C205.807 455.682 199.842 449.717 199.842 442.386V434.828H311.543V442.386C311.543 449.717 305.58 455.682 298.248 455.682ZM330.783 370.756C318.556 378.044 311.543 390.385 311.543 404.614V418.828H199.842V404.614C199.842 390.385 192.83 378.044 180.602 370.756C136.301 344.36 108.78 295.964 108.78 244.452C108.78 163.444 174.686 97.54 255.694 97.54C336.702 97.54 402.606 163.444 402.606 244.452C402.605 295.964 375.086 344.36 330.783 370.756ZM417.252 149.95C415.043 146.124 416.354 141.231 420.18 139.022L454.971 118.934C458.799 116.725 463.692 118.036 465.899 121.862C468.11 125.688 466.797 130.581 462.971 132.79L428.18 152.878C426.92 153.605 425.545 153.951 424.188 153.951C421.422 153.952 418.734 152.517 417.252 149.95ZM499.033 243.39C499.033 247.808 495.451 251.39 491.033 251.39H450.857C446.439 251.39 442.857 247.808 442.857 243.39C442.857 238.972 446.439 235.39 450.857 235.39H491.033C495.451 235.39 499.033 238.971 499.033 243.39ZM465.898 364.589C464.418 367.155 461.728 368.59 458.962 368.59C457.605 368.59 456.23 368.244 454.97 367.517L420.179 347.429C416.353 345.22 415.042 340.327 417.251 336.501C419.46 332.675 424.353 331.363 428.179 333.573L462.97 353.661C466.797 355.87 468.109 360.763 465.898 364.589ZM247.693 48.675V8.5C247.693 4.082 251.275 0.5 255.693 0.5C260.111 0.5 263.693 4.082 263.693 8.5V48.675C263.693 53.093 260.111 56.675 255.693 56.675C251.275 56.675 247.693 53.093 247.693 48.675ZM131.402 43.947C129.193 40.121 130.504 35.228 134.33 33.019C138.16 30.81 143.051 32.122 145.258 35.947L165.346 70.739C167.557 74.565 166.244 79.458 162.418 81.667C161.158 82.394 159.783 82.74 158.426 82.74C155.66 82.74 152.973 81.305 151.49 78.739L131.402 43.947ZM45.486 121.862C47.695 118.035 52.588 116.724 56.414 118.934L91.207 139.022C95.033 141.231 96.346 146.124 94.135 149.95C92.655 152.516 89.965 153.951 87.199 153.951C85.842 153.951 84.467 153.605 83.207 152.878L48.414 132.79C44.588 130.582 43.277 125.688 45.486 121.862ZM61.143 251.226H20.967C16.549 251.226 12.967 247.644 12.967 243.226C12.967 238.808 16.549 235.226 20.967 235.226H61.143C65.561 235.226 69.143 238.808 69.143 243.226C69.143 247.644 65.561 251.226 61.143 251.226ZM94.135 336.501C96.346 340.327 95.033 345.22 91.207 347.429L56.414 367.517C55.154 368.245 53.779 368.59 52.422 368.59C49.656 368.59 46.969 367.155 45.486 364.589C43.277 360.763 44.588 355.87 48.414 353.661L83.207 333.573C87.035 331.361 91.928 332.676 94.135 336.501ZM346.041 70.739L366.129 35.947C368.336 32.12 373.229 30.809 377.057 33.019C380.883 35.228 382.194 40.121 379.985 43.947L359.897 78.739C358.417 81.305 355.727 82.74 352.961 82.74C351.604 82.74 350.229 82.394 348.969 81.667C345.143 79.458 343.832 74.565 346.041 70.739ZM358.174 219.946H340.74C338.974 213.941 336.578 208.159 333.578 202.66L345.908 190.331C349.031 187.207 349.031 182.142 345.908 179.018L321.722 154.832C320.222 153.332 318.187 152.489 316.066 152.489C313.943 152.489 311.91 153.332 310.408 154.832L298.08 167.162C292.582 164.162 286.801 161.767 280.795 160V142.565C280.795 138.147 277.213 134.565 272.795 134.565H238.592C234.174 134.565 230.592 138.147 230.592 142.565V160C224.586 161.767 218.805 164.162 213.307 167.162L200.979 154.833C197.854 151.709 192.79 151.708 189.665 154.833L165.479 179.019C163.977 180.519 163.135 182.554 163.135 184.676C163.135 186.798 163.977 188.833 165.479 190.333L177.809 202.662C174.807 208.162 172.413 213.942 170.645 219.947H153.211C148.793 219.947 145.211 223.529 145.211 227.947V262.15C145.211 266.569 148.793 270.15 153.211 270.15H170.645C172.413 276.155 174.807 281.936 177.809 287.435L165.479 299.764C163.979 301.265 163.135 303.299 163.135 305.421C163.135 307.543 163.979 309.577 165.479 311.078L189.665 335.264C192.79 338.387 197.854 338.387 200.979 335.264L213.307 322.935C218.805 325.935 224.586 328.331 230.592 330.097V347.53C230.592 351.948 234.174 355.53 238.592 355.53H272.795C277.213 355.53 280.795 351.948 280.795 347.53V330.097C286.801 328.33 292.58 325.935 298.08 322.935L310.408 335.264C313.533 338.387 318.597 338.387 321.722 335.264L345.908 311.078C347.408 309.577 348.25 307.543 348.25 305.421C348.25 303.299 347.408 301.265 345.908 299.764L333.578 287.435C336.58 281.934 338.974 276.155 340.74 270.15H358.174C362.592 270.15 366.174 266.569 366.174 262.15V227.947C366.174 223.528 362.592 219.946 358.174 219.946ZM350.174 254.149H334.528C330.76 254.149 327.505 256.778 326.708 260.461C324.87 268.981 321.538 277.022 316.806 284.363C314.765 287.529 315.208 291.691 317.872 294.355L328.938 305.42L316.065 318.292L305 307.227C302.334 304.563 298.172 304.119 295.008 306.161C287.67 310.892 279.629 314.224 271.108 316.065C267.424 316.86 264.795 320.117 264.795 323.884V339.53H246.592V323.884C246.592 320.116 243.963 316.86 240.279 316.065C231.758 314.224 223.716 310.892 216.379 306.161C213.211 304.119 209.049 304.563 206.387 307.227L195.321 318.293L182.45 305.421L193.516 294.356C196.178 291.692 196.623 287.53 194.582 284.364C189.85 277.024 186.518 268.983 184.678 260.462C183.883 256.779 180.625 254.15 176.858 254.15H161.212V235.947H176.858C180.626 235.947 183.883 233.318 184.678 229.635C186.518 221.114 189.85 213.072 194.582 205.732C196.623 202.566 196.178 198.404 193.514 195.74L182.448 184.675L195.321 171.803L206.387 182.869C209.051 185.533 213.213 185.978 216.379 183.935C223.715 179.205 231.756 175.873 240.279 174.033C243.963 173.238 246.592 169.981 246.592 166.213V150.566H264.795V166.213C264.795 169.981 267.424 173.237 271.108 174.033C279.629 175.873 287.671 179.205 295.006 183.936C298.176 185.978 302.336 185.533 305 182.87L316.066 171.804L328.937 184.676L317.871 195.742C315.207 198.406 314.764 202.568 316.805 205.734C321.535 213.071 324.868 221.113 326.709 229.636C327.504 233.319 330.76 235.948 334.527 235.948H350.173V254.149H350.174ZM255.693 192.003C226.445 192.003 202.648 215.799 202.648 245.048C202.648 274.297 226.445 298.092 255.693 298.092C284.941 298.092 308.736 274.297 308.736 245.048C308.736 215.799 284.941 192.003 255.693 192.003ZM255.693 282.092C235.267 282.092 218.648 265.475 218.648 245.048C218.648 224.621 235.267 208.003 255.693 208.003C276.119 208.003 292.736 224.621 292.736 245.048C292.736 265.475 276.119 282.092 255.693 282.092Z" fill="#1075FF"/>
</svg>
