<svg id="Layer_1" enable-background="new 0 0 500 500" viewBox="0 0 500 500" xmlns="http://www.w3.org/2000/svg" width="300" height="300" version="1.1" xmlns:xlink="http://www.w3.org/1999/xlink" xmlns:svgjs="http://svgjs.dev/svgjs"><g width="100%" height="100%" transform="matrix(1,0,0,1,0,0)"><path clip-rule="evenodd" d="m314.361 46.472c-1.427-4.418-7.641-4.418-9.068 0l-9.572 29.656-31.179-.06c-4.666-.009-6.505 5.935-2.797 8.618l25.25 18.271-9.689 29.626c-1.421 4.343 3.566 8.058 7.331 5.312l25.191-18.375 25.19 18.375c3.764 2.745 8.752-.967 7.331-5.312l-9.689-29.626 25.25-18.271c3.707-2.682 1.87-8.626-2.797-8.618l-31.179.06zm19.116 149.151c-7.242 7.242-7.242 18.988 0 26.23 11.487 11.487 31.661 3.543 31.661-13.115 0-16.476-20.011-24.766-31.661-13.115zm-73.926 14.397c8.686-12.198-.03-29.294-15.117-29.294-16.477 0-24.765 20.01-13.115 31.661 3.356 3.356 7.993 5.432 13.115 5.432 3.628 0 7.013-1.042 9.872-2.842zm56.388 39.048c-7.375 5.371-13.076 12.939-16.13 21.73-.392 8.463-.444 16.58-.281 24.719h87.701v-10.081c0-12.351-5.057-23.584-13.205-31.731-15.614-15.615-40.292-17.595-58.085-4.637zm-89.739-7.194c3.052-1.103 6.5-2.35 10.778-4.257 22.537-10.329 31.566-19.681 37.557-36.733l19.791-56.332c2.23-5.791 10.678-12.829 16.426-12.964 13.558-.318 3.154 13.189 1.665 17.799-22.093 68.379-29.516 97.267-24.587 183.107.659 11.487 1.37 23.855 1.86 37.486-23.767 13.949-53.348 14.371-77.52 1.057l4.096-58.555c.417-6.112-7.091-9.696-11.623-4.936l-26.445 26.492c-2.525-5.688-4.393-11.733-5.51-18.037l32.254-57.89c8.553-11.643 13.334-13.372 21.258-16.237zm-85.651-20.022c11.532 11.532 31.661 3.497 31.661-13.115 0-16.476-20.011-24.765-31.661-13.115-7.242 7.243-7.242 18.988 0 26.23zm-27.522 73.665h51.757c1.278 0 2.472.358 3.488.979l22.961-41.211c-17.429-19.211-46.958-19.624-65.002-1.579-8.147 8.148-13.205 19.38-13.205 31.731v10.08zm136.973 98.611c-48.348 0-88.229-37.419-91.672-85.216h-62.955v10.174l29.394 9.551c2.416.785 4.078 2.816 4.509 5.149 1.428 5.471 3.252 10.866 5.444 16.152 2.253 5.435 4.881 10.678 7.85 15.696 1.206 2.042 1.203 4.463.203 6.432l.006.003-14.042 27.56 23.848 23.848 27.559-14.042c2.219-1.129 4.772-.902 6.715.374 8.863 5.514 21.864 10.65 32.01 13.246 2.298.586 4.009 2.3 4.694 4.4l.015-.005 9.55 29.391h33.743l9.552-29.395c.785-2.415 2.815-4.078 5.149-4.509 5.471-1.428 10.866-3.252 16.152-5.444 5.435-2.253 10.679-4.881 15.696-7.849 2.042-1.206 4.464-1.203 6.432-.203l.003-.006 27.56 14.042 23.848-23.848-14.042-27.56c-1.129-2.219-.902-4.772.374-6.715 5.515-8.867 10.65-21.861 13.247-32.011.586-2.298 2.3-4.009 4.4-4.694l-.005-.015 29.391-9.55v-10.174h-62.955c-3.444 47.798-43.325 85.218-91.673 85.218z" fill-rule="evenodd" fill="#108aff" fill-opacity="1" data-original-color="#000000ff" stroke="none" stroke-opacity="1"/></g></svg>