<svg width="25" height="25" viewBox="0 0 25 25" fill="none" xmlns="http://www.w3.org/2000/svg">
<path d="M14.8725 24.4486H3.674C2.30556 24.4486 1.19238 23.3338 1.19238 21.9634V3.03313C1.19238 1.66487 2.30556 0.551514 3.674 0.551514H14.8725C16.2429 0.551514 17.3579 1.66487 17.3579 3.03313V18.0883C17.3579 18.1842 17.2843 18.2639 17.1888 18.2715C16.6614 18.3142 16.1596 18.3792 15.7381 18.4603C14.6287 18.6739 14.402 18.9317 14.402 18.9892C14.402 19.0021 14.4007 19.0143 14.3982 19.0265V20.6253C14.3982 20.6497 14.4487 20.7366 14.6788 20.845C14.7497 20.8784 14.7916 20.9527 14.7833 21.0306C14.7752 21.1085 14.7185 21.1724 14.6424 21.1904C14.2699 21.2773 13.9722 21.3789 13.7812 21.4844C13.6245 21.5753 13.5895 21.641 13.5895 21.6582V23.2943C13.5895 23.3747 13.9453 23.7205 15.6863 23.9427C15.7701 23.9535 15.8358 24.0199 15.8455 24.1039C15.8552 24.1879 15.8064 24.2676 15.7272 24.2974C15.4583 24.3976 15.1707 24.4486 14.8725 24.4486ZM3.674 0.919161C2.50841 0.919161 1.56003 1.86736 1.56003 3.03313V21.9634C1.56003 23.1309 2.50841 24.0809 3.674 24.0809H14.3876C13.613 23.8817 13.2219 23.6185 13.2219 23.2943V21.6582C13.2219 21.3839 13.5066 21.2187 13.6001 21.1645C13.7486 21.0827 13.9378 21.0065 14.1661 20.9369C14.076 20.8407 14.0306 20.7369 14.0306 20.6253V18.9892C14.0306 18.9719 14.0329 18.9554 14.0374 18.9396C14.0816 18.577 14.6163 18.302 15.6687 18.0991C16.0638 18.0234 16.5075 17.963 16.9903 17.9196V3.03313C16.9903 1.86736 16.0403 0.919161 14.8725 0.919161H3.674Z" fill="#374957"/>
<path d="M13.6925 21.5075H3.67412C3.11654 21.5075 2.66309 21.0523 2.66309 20.4929V3.03325C2.66309 2.47567 3.11654 2.02222 3.67412 2.02222H14.8726C15.4322 2.02222 15.8874 2.47567 15.8874 3.03325V18.2798C15.8874 18.3678 15.825 18.4435 15.7384 18.4604C14.6288 18.674 14.4021 18.9318 14.4021 18.9893C14.4021 19.0022 14.4009 19.0144 14.3984 19.0266V20.6254C14.3984 20.6498 14.4488 20.7367 14.6789 20.8451C14.7498 20.8785 14.7917 20.9528 14.7834 21.0307C14.7753 21.1086 14.7186 21.1725 14.6425 21.1905C14.27 21.2774 13.9724 21.379 13.7814 21.4845C13.7543 21.4996 13.7236 21.5075 13.6925 21.5075ZM3.67412 2.38986C3.31939 2.38986 3.03073 2.67852 3.03073 3.03325V20.4929C3.03073 20.8498 3.31939 21.1399 3.67412 21.1399H13.6465C13.786 21.0677 13.96 20.9998 14.1662 20.937C14.0761 20.8408 14.0307 20.737 14.0307 20.6254V18.9893C14.0307 18.972 14.033 18.9555 14.0375 18.9397C14.0795 18.5947 14.5658 18.3287 15.5198 18.1294V3.03325C15.5198 2.67852 15.2295 2.38986 14.8726 2.38986H3.67412Z" fill="#374957"/>
<path d="M11.2822 22.9328H7.26878C7.16718 22.9328 7.08496 22.8506 7.08496 22.749C7.08496 22.6474 7.16718 22.5652 7.26878 22.5652H11.2822C11.3838 22.5652 11.466 22.6474 11.466 22.749C11.466 22.8506 11.3838 22.9328 11.2822 22.9328Z" fill="#374957"/>
<path d="M14.0987 8.01005H4.45241C4.1248 8.01005 3.8584 7.74365 3.8584 7.41622C3.8584 7.08842 4.1248 6.82202 4.45241 6.82202H14.0987C14.4263 6.82202 14.6927 7.08842 14.6927 7.41622C14.6927 7.74365 14.4263 8.01005 14.0987 8.01005ZM4.45241 7.18967C4.32765 7.18967 4.22605 7.29127 4.22605 7.41622C4.22605 7.5408 4.32765 7.64241 4.45241 7.64241H14.0987C14.2234 7.64241 14.325 7.5408 14.325 7.41622C14.325 7.29127 14.2234 7.18967 14.0987 7.18967H4.45241Z" fill="#374957"/>
<path d="M14.2763 14.2375H4.27464C4.17304 14.2375 4.09082 14.1553 4.09082 14.0537V13.7578C4.09082 13.2433 4.50945 12.8247 5.02412 12.8247H13.5269C14.0415 12.8247 14.4602 13.2433 14.4602 13.7578V14.0537C14.4602 14.1553 14.3779 14.2375 14.2763 14.2375ZM4.45847 13.8698H14.0925V13.7578C14.0925 13.4462 13.8387 13.1924 13.5269 13.1924H5.02412C4.7123 13.1924 4.45847 13.4462 4.45847 13.7578V13.8698Z" fill="#374957"/>
<path d="M6.88829 13.1922H5.34105C5.23944 13.1922 5.15723 13.11 5.15723 13.0084V7.82616C5.15723 7.72455 5.23944 7.64233 5.34105 7.64233H6.88829C6.9899 7.64233 7.07211 7.72455 7.07211 7.82616V13.0084C7.07211 13.11 6.9899 13.1922 6.88829 13.1922ZM5.52487 12.8246H6.70447V8.00998H5.52487V12.8246Z" fill="#374957"/>
<path d="M10.0494 13.1922H8.50218C8.40058 13.1922 8.31836 13.11 8.31836 13.0084V7.82616C8.31836 7.72455 8.40058 7.64233 8.50218 7.64233H10.0494C10.151 7.64233 10.2332 7.72455 10.2332 7.82616V13.0084C10.2332 13.11 10.151 13.1922 10.0494 13.1922ZM8.68601 12.8246H9.8656V8.00998H8.68601V12.8246Z" fill="#374957"/>
<path d="M13.2106 13.1922H11.6633C11.5617 13.1922 11.4795 13.11 11.4795 13.0084V7.82616C11.4795 7.72455 11.5617 7.64233 11.6633 7.64233H13.2106C13.3122 7.64233 13.3944 7.72455 13.3944 7.82616V13.0084C13.3944 13.11 13.3122 13.1922 13.2106 13.1922ZM11.8471 12.8246H13.0267V8.00998H11.8471V12.8246Z" fill="#374957"/>
<path d="M13.6895 7.1897H4.72971C4.65055 7.1897 4.58036 7.13907 4.55541 7.06404C4.53027 6.989 4.55612 6.90642 4.61931 6.85903L8.8232 3.69849C9.05047 3.52759 9.36857 3.52759 9.59583 3.69849L13.7999 6.85903C13.8631 6.90642 13.8889 6.989 13.8638 7.06404C13.8389 7.13907 13.7687 7.1897 13.6895 7.1897ZM5.28011 6.82205H13.1391L9.37503 3.99217C9.27737 3.91893 9.14166 3.91893 9.044 3.99217L5.28011 6.82205Z" fill="#374957"/>
<path d="M9.20983 6.24657C8.73178 6.24657 8.34277 5.85774 8.34277 5.37951C8.34277 4.90128 8.73178 4.51245 9.20983 4.51245C9.68788 4.51245 10.0769 4.90128 10.0769 5.37951C10.0769 5.85774 9.68788 6.24657 9.20983 6.24657ZM9.20983 4.8801C8.93446 4.8801 8.71042 5.10413 8.71042 5.37951C8.71042 5.65489 8.93446 5.87892 9.20983 5.87892C9.48521 5.87892 9.70924 5.65489 9.70924 5.37951C9.70924 5.10413 9.48521 4.8801 9.20983 4.8801Z" fill="#374957"/>
<path d="M11.5955 19.959H6.95633C6.52478 19.959 6.17383 19.6079 6.17383 19.1767V17.7776C6.17383 17.346 6.52478 16.9949 6.95633 16.9949H11.5955C12.0269 16.9949 12.3779 17.346 12.3779 17.7776V19.1767C12.3779 19.6079 12.0269 19.959 11.5955 19.959ZM6.95633 17.3625C6.72763 17.3625 6.54148 17.5489 6.54148 17.7776V19.1767C6.54148 19.4054 6.72763 19.5914 6.95633 19.5914H11.5955C11.8242 19.5914 12.0102 19.4054 12.0102 19.1767V17.7776C12.0102 17.5489 11.8242 17.3625 11.5955 17.3625H6.95633Z" fill="#374957"/>
<path d="M18.1077 24.4486C16.4178 24.4486 13.2217 24.2073 13.2217 23.2943V21.6582C13.2217 21.5566 13.3039 21.4744 13.4055 21.4744C13.5071 21.4744 13.5893 21.5566 13.5893 21.6582C13.5893 21.9253 15.1841 22.4452 18.1077 22.4452C21.0313 22.4452 22.6261 21.9253 22.6261 21.6582C22.6261 21.5566 22.7083 21.4744 22.8099 21.4744C22.9115 21.4744 22.9938 21.5566 22.9938 21.6582V23.2943C22.9938 24.2073 19.7977 24.4486 18.1077 24.4486ZM13.5893 22.1418V23.2943C13.5893 23.5614 15.1841 24.0809 18.1077 24.0809C21.0313 24.0809 22.6261 23.5614 22.6261 23.2943V22.1418C21.7377 22.661 19.4487 22.8128 18.1077 22.8128C16.7667 22.8128 14.4777 22.661 13.5893 22.1418Z" fill="#374957"/>
<path d="M18.1077 22.8129C16.4178 22.8129 13.2217 22.5716 13.2217 21.6582C13.2217 21.311 13.6602 21.041 14.5625 20.8321C14.6034 20.8231 14.6452 20.8278 14.6828 20.8454C15.4076 21.1893 17.0708 21.4119 18.9202 21.4119C20.2404 21.4119 21.5009 21.2956 22.3789 21.0931C22.4191 21.0838 22.4611 21.0881 22.4987 21.106C22.6211 21.1638 22.9938 21.3394 22.9938 21.6582C22.9938 22.5716 19.7977 22.8129 18.1077 22.8129ZM14.5849 21.2048C13.7742 21.3997 13.5893 21.6015 13.5893 21.6582C13.5893 21.9253 15.1841 22.4452 18.1077 22.4452C21.0313 22.4452 22.6261 21.9253 22.6261 21.6582C22.6261 21.6582 22.6232 21.5828 22.3974 21.4658C21.4971 21.6654 20.2353 21.7796 18.9202 21.7796C17.0682 21.7796 15.3821 21.5548 14.5849 21.2048Z" fill="#374957"/>
<path d="M18.9201 21.7796C17.2289 21.7796 14.0303 21.5384 14.0303 20.6253V18.9892C14.0303 18.8876 14.1125 18.8054 14.2141 18.8054C14.3157 18.8054 14.4017 18.8876 14.4017 18.9892C14.4017 19.2564 15.9965 19.7759 18.9201 19.7759C21.8437 19.7759 23.4385 19.2564 23.4385 18.9892C23.4385 18.8876 23.5207 18.8054 23.6223 18.8054C23.7239 18.8054 23.8061 18.8876 23.8061 18.9892V20.6253C23.8061 21.5384 20.61 21.7796 18.9201 21.7796ZM14.3979 19.4707V20.6253C14.3979 20.8925 15.9942 21.412 18.9201 21.412C21.8437 21.412 23.4385 20.8925 23.4385 20.6253V19.4729C22.5501 19.9917 20.2611 20.1435 18.9201 20.1435C17.5773 20.1435 15.2836 19.9913 14.3979 19.4707Z" fill="#374957"/>
<path d="M18.9203 20.142C17.23 20.142 14.0332 19.9011 14.0332 18.9892C14.0332 18.0776 17.23 17.8367 18.9203 17.8367C20.6106 17.8367 23.8074 18.0776 23.8074 18.9892C23.8074 19.9011 20.6106 20.142 18.9203 20.142ZM18.9203 18.2043C15.996 18.2043 14.4009 18.7228 14.4009 18.9892C14.4009 19.2556 15.996 19.7744 18.9203 19.7744C21.8446 19.7744 23.4398 19.2556 23.4398 18.9892C23.4398 18.7228 21.8446 18.2043 18.9203 18.2043Z" fill="#374957"/>
</svg>
