<svg width="25" height="25" viewBox="0 0 25 25" fill="none" xmlns="http://www.w3.org/2000/svg">
<path d="M14.8802 3.4458C14.1755 3.4458 13.5162 3.67494 12.9738 4.10812C12.8582 4.20037 12.8392 4.369 12.9316 4.48444C13.0232 4.59932 13.1916 4.61962 13.308 4.52664C13.7546 4.1702 14.2983 3.98151 14.8802 3.98151C15.0281 3.98151 15.1481 3.86171 15.1481 3.71365C15.1481 3.56578 15.0281 3.4458 14.8802 3.4458Z" fill="#374957"/>
<path d="M8.51221 3.4278C8.66009 3.4278 8.78006 3.308 8.78006 3.15995C8.78006 3.01207 8.66009 2.89209 8.51221 2.89209C6.71237 2.89209 5.24805 4.35815 5.24805 6.16009C5.24805 6.30796 5.36803 6.42794 5.5159 6.42794C5.66378 6.42794 5.78376 6.30796 5.78376 6.16009C5.78376 4.65339 7.00778 3.4278 8.51221 3.4278Z" fill="#374957"/>
<path d="M7.31808 23.8937H17.6838C18.3773 23.8937 18.9414 23.3295 18.9414 22.6363V15.5554L20.3983 15.5493C20.418 15.5491 20.4375 15.547 20.4565 15.5427C22.5014 15.0783 23.9294 13.2864 23.9294 11.1851C23.9294 8.81902 22.0807 6.87688 19.7309 6.7297C19.7344 6.65751 19.7365 6.58513 19.7365 6.51364C19.7365 3.83733 17.5575 1.66012 14.8793 1.66012C13.867 1.66012 12.8744 1.97838 12.0577 2.56083C11.1202 1.63379 9.84128 1.10645 8.51158 1.10645C5.72698 1.10645 3.46153 3.37347 3.46153 6.16016C3.46153 6.68698 3.54105 7.19985 3.69817 7.68882C2.11649 8.30092 1.07227 9.8118 1.07227 11.5314C1.07227 13.5517 2.57495 15.3037 4.56766 15.607C4.58092 15.6091 4.59452 15.6101 4.60794 15.6101H4.61143L5.17662 15.6028C5.3245 15.6009 5.44291 15.4794 5.44099 15.3315C5.43907 15.1836 5.33182 15.0674 5.16964 15.0671L4.62695 15.0741C2.90419 14.8012 1.60798 13.2821 1.60798 11.5314C1.60798 9.9541 2.6175 8.57854 4.12019 8.10857C4.19081 8.08643 4.24906 8.0362 4.28132 7.96941C4.31358 7.90262 4.31672 7.82572 4.29004 7.75649C4.09577 7.25234 3.99724 6.71523 3.99724 6.16016C3.99724 3.66887 6.02239 1.64216 8.51158 1.64216C9.77326 1.64216 10.9835 2.17299 11.8319 3.09828C11.9269 3.20187 12.0855 3.21443 12.1958 3.12706C12.9523 2.52665 13.9053 2.19584 14.8793 2.19584C17.2621 2.19584 19.2008 4.13275 19.2008 6.51364C19.2008 6.66274 19.1905 6.81533 19.1769 6.96443C19.1701 7.03941 19.2076 7.1137 19.2583 7.16916C19.3091 7.22496 19.3933 7.25652 19.4686 7.25652C21.6329 7.25652 23.3937 9.01887 23.3937 11.1851C23.3937 13.0249 22.1503 14.5952 20.3662 15.0137L18.9414 15.0197V9.12751C18.9414 8.43415 18.3773 7.87018 17.6838 7.87018H15.3817C15.2338 7.87018 15.1138 7.99016 15.1138 8.13804C15.1138 8.28592 15.2338 8.4059 15.3817 8.4059H17.6838C18.0819 8.4059 18.4057 8.72956 18.4057 9.12751V15.2826C18.4056 15.2851 18.4043 15.2872 18.4043 15.2896C18.4043 15.2921 18.4056 15.2942 18.4057 15.2964V22.6363C18.4057 23.0341 18.0819 23.3579 17.6838 23.3579H7.31808C6.91995 23.3579 6.59612 23.0341 6.59612 22.6363V11.6722L9.48309 8.78397V10.611C9.48309 10.9875 9.17791 11.2937 8.80263 11.2937H7.68063C7.53275 11.2937 7.41278 11.4137 7.41278 11.5616C7.41278 11.7095 7.53275 11.8294 7.68063 11.8294H8.80263C9.47315 11.8294 10.0188 11.2829 10.0188 10.611V8.4059H13.7765C13.9244 8.4059 14.0443 8.28592 14.0443 8.13804C14.0443 7.99016 13.9244 7.87018 13.7765 7.87018H9.75199C9.69213 7.87018 9.60952 7.89983 9.56156 7.94779L6.14167 11.3691C6.11569 11.3945 6.09494 11.4249 6.0809 11.4591C6.06703 11.4924 6.06014 11.5278 6.06041 11.5633V22.6363C6.06041 23.3295 6.62455 23.8937 7.31808 23.8937Z" fill="#374957"/>
<path d="M16.8685 10.8154H12.4612C12.3133 10.8154 12.1934 10.9354 12.1934 11.0833C12.1934 11.2313 12.3133 11.3511 12.4612 11.3511H16.8685C17.0164 11.3511 17.1363 11.2313 17.1363 11.0833C17.1363 10.9354 17.0164 10.8154 16.8685 10.8154Z" fill="#374957"/>
<path d="M17.1363 12.6448C17.1363 12.4969 17.0164 12.377 16.8685 12.377H12.4612C12.3133 12.377 12.1934 12.4969 12.1934 12.6448C12.1934 12.7927 12.3133 12.9127 12.4612 12.9127H16.8685C17.0164 12.9127 17.1363 12.7927 17.1363 12.6448Z" fill="#374957"/>
<path d="M14.9222 17.5869C14.7743 17.5869 14.6543 17.7069 14.6543 17.8548V21.3319C14.6543 21.4799 14.7743 21.5997 14.9222 21.5997H16.6904C16.8383 21.5997 16.9583 21.4799 16.9583 21.3319V17.8548C16.9583 17.7069 16.8383 17.5869 16.6904 17.5869H14.9222ZM16.4226 21.064H15.19V18.1226H16.4226V21.064Z" fill="#374957"/>
<path d="M8.31083 18.5889C8.16295 18.5889 8.04297 18.7087 8.04297 18.8567V21.332C8.04297 21.48 8.16295 21.5998 8.31083 21.5998H10.0791C10.227 21.5998 10.347 21.48 10.347 21.332V18.8567C10.347 18.7087 10.227 18.5889 10.0791 18.5889H8.31083ZM9.81125 21.0641H8.57869V19.1246H9.81125V21.0641Z" fill="#374957"/>
<path d="M11.6175 15.2363C11.4696 15.2363 11.3496 15.3563 11.3496 15.5042V21.332C11.3496 21.4801 11.4696 21.5999 11.6175 21.5999H13.3857C13.5336 21.5999 13.6536 21.4801 13.6536 21.332V15.5042C13.6536 15.3563 13.5336 15.2363 13.3857 15.2363H11.6175ZM13.1179 21.0641H11.8853V15.772H13.1179V21.0641Z" fill="#374957"/>
</svg>
