<svg width="25" height="25" viewBox="0 0 25 25" fill="none" xmlns="http://www.w3.org/2000/svg">
<g clip-path="url(#clip0_163_2)">
<path d="M17.9688 5.46875H17.1875C17.1875 4.74355 16.8994 4.04805 16.3866 3.53526C15.8738 3.02246 15.1783 2.73438 14.4531 2.73438V1.95312C15.3855 1.95313 16.2797 2.32352 16.939 2.98283C17.5984 3.64214 17.9688 4.53635 17.9688 5.46875Z" fill="#374957"/>
<path d="M18.75 18.3594C18.75 17.9731 18.8645 17.5955 19.0792 17.2743C19.2938 16.9531 19.5988 16.7028 19.9557 16.5549C20.3126 16.4071 20.7053 16.3684 21.0842 16.4438C21.463 16.5191 21.811 16.7052 22.0842 16.9783C22.3573 17.2515 22.5434 17.5995 22.6187 17.9783C22.6941 18.3572 22.6554 18.7499 22.5076 19.1068C22.3597 19.4637 22.1094 19.7687 21.7882 19.9833C21.467 20.198 21.0894 20.3125 20.7031 20.3125C20.1851 20.3125 19.6883 20.1067 19.3221 19.7404C18.9558 19.3742 18.75 18.8774 18.75 18.3594ZM21.875 18.3594C21.875 18.1276 21.8063 17.901 21.6775 17.7083C21.5487 17.5156 21.3657 17.3654 21.1516 17.2767C20.9374 17.188 20.7018 17.1648 20.4745 17.21C20.2472 17.2552 20.0384 17.3668 19.8745 17.5307C19.7106 17.6946 19.599 17.9034 19.5538 18.1308C19.5085 18.3581 19.5318 18.5937 19.6205 18.8078C19.7091 19.022 19.8594 19.205 20.0521 19.3338C20.2448 19.4625 20.4713 19.5313 20.7031 19.5313C21.0139 19.5313 21.312 19.4078 21.5318 19.188C21.7515 18.9682 21.875 18.6702 21.875 18.3594Z" fill="#374957"/>
<path d="M20.3125 20.7031H21.0938C22.0262 20.7031 22.9204 21.0735 23.5797 21.7328C24.239 22.3921 24.6094 23.2863 24.6094 24.2188C24.6094 24.3224 24.5682 24.4217 24.495 24.495C24.4217 24.5682 24.3224 24.6094 24.2188 24.6094H17.1875C17.0839 24.6094 16.9845 24.5682 16.9113 24.495C16.838 24.4217 16.7969 24.3224 16.7969 24.2188C16.7969 23.2863 17.1673 22.3921 17.8266 21.7328C18.4859 21.0735 19.3801 20.7031 20.3125 20.7031ZM23.8008 23.8281C23.7068 23.1772 23.3814 22.582 22.8843 22.1515C22.3871 21.7211 21.7514 21.4842 21.0938 21.4844H20.3125C19.6549 21.4842 19.0192 21.7211 18.522 22.1515C18.0248 22.582 17.6994 23.1772 17.6055 23.8281H23.8008Z" fill="#374957"/>
<path d="M6.25 18.3594C6.25 18.7457 6.13545 19.1233 5.92084 19.4445C5.70623 19.7657 5.40119 20.016 5.0443 20.1638C4.68742 20.3117 4.29471 20.3503 3.91584 20.275C3.53697 20.1996 3.18896 20.0136 2.91581 19.7404C2.64266 19.4673 2.45664 19.1193 2.38128 18.7404C2.30592 18.3615 2.3446 17.9688 2.49242 17.6119C2.64025 17.2551 2.89059 16.95 3.21178 16.7354C3.53297 16.5208 3.91058 16.4062 4.29687 16.4062C4.81488 16.4062 5.31166 16.612 5.67794 16.9783C6.04422 17.3446 6.25 17.8414 6.25 18.3594ZM3.125 18.3594C3.125 18.5912 3.19373 18.8177 3.3225 19.0104C3.45126 19.2031 3.63429 19.3533 3.84842 19.442C4.06255 19.5307 4.29817 19.554 4.5255 19.5087C4.75282 19.4635 4.96163 19.3519 5.12552 19.188C5.2894 19.0241 5.40102 18.8153 5.44623 18.588C5.49145 18.3607 5.46824 18.1251 5.37955 17.9109C5.29085 17.6968 5.14065 17.5138 4.94793 17.385C4.75522 17.2562 4.52865 17.1875 4.29687 17.1875C3.98607 17.1875 3.688 17.311 3.46823 17.5307C3.24847 17.7505 3.125 18.0486 3.125 18.3594Z" fill="#374957"/>
<path d="M3.90625 20.7031H4.6875C5.6199 20.7031 6.51411 21.0735 7.17342 21.7328C7.83273 22.3921 8.20312 23.2863 8.20312 24.2188C8.20312 24.3224 8.16197 24.4217 8.08871 24.495C8.01546 24.5682 7.9161 24.6094 7.8125 24.6094H0.78125C0.67765 24.6094 0.578293 24.5682 0.505036 24.495C0.43178 24.4217 0.390625 24.3224 0.390625 24.2188C0.390625 23.2863 0.76102 22.3921 1.42033 21.7328C2.07964 21.0735 2.97385 20.7031 3.90625 20.7031ZM7.39453 23.8281C7.30058 23.1772 6.97519 22.582 6.47801 22.1515C5.98082 21.7211 5.34514 21.4842 4.6875 21.4844H3.90625C3.24861 21.4842 2.61293 21.7211 2.11574 22.1515C1.61856 22.582 1.29317 23.1772 1.19922 23.8281H7.39453Z" fill="#374957"/>
<path d="M10.1563 19.1407H7.42191C7.31831 19.1407 7.21895 19.0995 7.14569 19.0262C7.07244 18.953 7.03128 18.8536 7.03128 18.75V14.8438C7.03128 14.7402 7.07244 14.6408 7.14569 14.5676C7.21895 14.4943 7.31831 14.4532 7.42191 14.4532H12.1094V13.6719H6.64066C5.59333 13.6687 4.58325 13.283 3.80024 12.5875C3.01724 11.8919 2.51523 10.9343 2.38858 9.89469C2.26192 8.85505 2.51933 7.80494 3.11244 6.94173C3.70554 6.07852 4.59349 5.46166 5.60941 5.20706C5.83754 4.38365 6.32936 3.65775 7.0095 3.14058C7.68965 2.62342 8.5206 2.34352 9.37503 2.34378C9.70736 2.34384 10.0383 2.38717 10.3594 2.47269C10.9799 1.62413 11.8485 0.989058 12.8453 0.655116C13.8421 0.321175 14.918 0.30482 15.9245 0.60831C16.931 0.911799 17.8185 1.52017 18.4645 2.34948C19.1105 3.17879 19.4833 4.18816 19.5313 5.23831C20.5314 5.51928 21.3959 6.15305 21.9647 7.02232C22.5335 7.89159 22.7681 8.93749 22.6251 9.96643C22.4821 10.9954 21.9712 11.9377 21.187 12.6189C20.4027 13.3002 19.3982 13.6743 18.3594 13.6719H12.8907V14.4532H17.5782C17.6818 14.4532 17.7811 14.4943 17.8544 14.5676C17.9276 14.6408 17.9688 14.7402 17.9688 14.8438V18.75C17.9688 18.8536 17.9276 18.953 17.8544 19.0262C17.7811 19.0995 17.6818 19.1407 17.5782 19.1407H14.8438V21.0938H15.2344V21.875H14.4532C14.3496 21.875 14.2502 21.8339 14.1769 21.7606C14.1037 21.6874 14.0625 21.588 14.0625 21.4844V19.1407H10.9375V21.4844C10.9375 21.588 10.8964 21.6874 10.8231 21.7606C10.7499 21.8339 10.6505 21.875 10.5469 21.875H9.76566V21.0938H10.1563V19.1407ZM18.3594 12.8907C19.2309 12.8906 20.0713 12.5668 20.7176 11.9821C21.3639 11.3974 21.7699 10.5935 21.857 9.72641C21.9442 8.85927 21.7061 7.99068 21.189 7.28915C20.6719 6.58762 19.9127 6.10315 19.0586 5.92972C18.9691 5.91146 18.8887 5.86237 18.8316 5.79099C18.7745 5.71962 18.7443 5.63048 18.7461 5.5391L18.75 5.46878C18.7527 4.54019 18.4545 3.63572 17.9 2.89082C17.3456 2.14592 16.5647 1.60068 15.6744 1.33676C14.7841 1.07284 13.8323 1.10443 12.9614 1.42681C12.0906 1.74919 11.3476 2.34501 10.8438 3.12503C10.7963 3.19772 10.7261 3.25253 10.644 3.28083C10.562 3.30912 10.4728 3.30928 10.3907 3.28128C9.97118 3.1373 9.52585 3.08426 9.08429 3.12568C8.64272 3.16711 8.21503 3.30204 7.82965 3.52152C7.44426 3.74101 7.11001 4.04001 6.8491 4.39865C6.5882 4.75729 6.40662 5.16736 6.31644 5.6016C6.30059 5.67772 6.26238 5.74738 6.20671 5.80165C6.15104 5.85593 6.08044 5.89236 6.00394 5.90628C5.12663 6.04994 4.33632 6.52062 3.79212 7.22358C3.24792 7.92653 2.99023 8.80956 3.07094 9.69488C3.15165 10.5802 3.56476 11.4021 4.2271 11.995C4.88945 12.588 5.75184 12.908 6.64066 12.8907H18.3594ZM17.1875 18.3594V15.2344H7.81253V18.3594H17.1875Z" fill="#374957"/>
<path d="M12.5 8.20312C12.7318 8.20312 12.9583 8.27185 13.1511 8.40062C13.3438 8.52939 13.494 8.71241 13.5827 8.92654C13.6714 9.14068 13.6946 9.3763 13.6494 9.60362C13.6041 9.83094 13.4925 10.0398 13.3286 10.2036C13.1648 10.3675 12.9559 10.4791 12.7286 10.5244C12.5013 10.5696 12.2657 10.5464 12.0515 10.4577C11.8374 10.369 11.6544 10.2188 11.5256 10.0261C11.3969 9.83334 11.3281 9.60677 11.3281 9.375C11.3281 9.0642 11.4516 8.76613 11.6714 8.54636C11.8911 8.32659 12.1892 8.20313 12.5 8.20312ZM12.5 9.76562C12.5773 9.76562 12.6528 9.74272 12.717 9.69979C12.7813 9.65687 12.8313 9.59586 12.8609 9.52449C12.8905 9.45311 12.8982 9.37457 12.8831 9.29879C12.868 9.22302 12.8308 9.15342 12.7762 9.09879C12.7216 9.04416 12.652 9.00695 12.5762 8.99188C12.5004 8.97681 12.4219 8.98454 12.3505 9.01411C12.2791 9.04368 12.2181 9.09374 12.1752 9.15798C12.1323 9.22222 12.1094 9.29774 12.1094 9.375C12.1094 9.4786 12.1505 9.57796 12.2238 9.65121C12.297 9.72447 12.3964 9.76562 12.5 9.76562Z" fill="#374957"/>
<path d="M7.8125 8.20312C8.04427 8.20312 8.27084 8.27185 8.46356 8.40062C8.65627 8.52939 8.80647 8.71241 8.89517 8.92654C8.98387 9.14068 9.00707 9.3763 8.96186 9.60362C8.91664 9.83094 8.80503 10.0398 8.64114 10.2036C8.47725 10.3675 8.26844 10.4791 8.04112 10.5244C7.8138 10.5696 7.57818 10.5464 7.36404 10.4577C7.14991 10.369 6.96689 10.2188 6.83812 10.0261C6.70935 9.83334 6.64062 9.60677 6.64062 9.375C6.64062 9.0642 6.76409 8.76613 6.98386 8.54636C7.20363 8.32659 7.5017 8.20313 7.8125 8.20312ZM7.8125 9.76562C7.88976 9.76562 7.96528 9.74272 8.02952 9.69979C8.09376 9.65687 8.14382 9.59586 8.17339 9.52449C8.20295 9.45311 8.21069 9.37457 8.19562 9.29879C8.18055 9.22302 8.14334 9.15342 8.08871 9.09879C8.03408 9.04416 7.96448 9.00695 7.88871 8.99188C7.81293 8.97681 7.73439 8.98454 7.66301 9.01411C7.59164 9.04368 7.53063 9.09374 7.48771 9.15798C7.44478 9.22222 7.42187 9.29774 7.42187 9.375C7.42187 9.4786 7.46303 9.57796 7.53629 9.65121C7.60954 9.72447 7.7089 9.76562 7.8125 9.76562Z" fill="#374957"/>
<path d="M17.1875 8.20312C17.4193 8.20312 17.6458 8.27185 17.8386 8.40062C18.0313 8.52939 18.1815 8.71241 18.2702 8.92654C18.3589 9.14068 18.3821 9.3763 18.3369 9.60362C18.2916 9.83094 18.18 10.0398 18.0161 10.2036C17.8523 10.3675 17.6434 10.4791 17.4161 10.5244C17.1888 10.5696 16.9532 10.5464 16.739 10.4577C16.5249 10.369 16.3419 10.2188 16.2131 10.0261C16.0844 9.83334 16.0156 9.60677 16.0156 9.375C16.0156 9.0642 16.1391 8.76613 16.3589 8.54636C16.5786 8.32659 16.8767 8.20313 17.1875 8.20312ZM17.1875 9.76562C17.2648 9.76562 17.3403 9.74272 17.4045 9.69979C17.4688 9.65687 17.5188 9.59586 17.5484 9.52449C17.578 9.45311 17.5857 9.37457 17.5706 9.29879C17.5555 9.22302 17.5183 9.15342 17.4637 9.09879C17.4091 9.04416 17.3395 9.00695 17.2637 8.99188C17.1879 8.97681 17.1094 8.98454 17.038 9.01411C16.9666 9.04368 16.9056 9.09374 16.8627 9.15798C16.8198 9.22222 16.7969 9.29774 16.7969 9.375C16.7969 9.4786 16.838 9.57796 16.9113 9.65121C16.9845 9.72447 17.0839 9.76562 17.1875 9.76562Z" fill="#374957"/>
<path d="M16.4062 16.4062H15.625V17.1875H16.4062V16.4062Z" fill="#374957"/>
<path d="M14.8438 16.4062H14.0625V17.1875H14.8438V16.4062Z" fill="#374957"/>
<path d="M13.2812 16.4062H8.59375V17.1875H13.2812V16.4062Z" fill="#374957"/>
<path d="M8.98438 21.0938H8.20312V21.875H8.98438V21.0938Z" fill="#374957"/>
<path d="M16.7969 21.0938H16.0156V21.875H16.7969V21.0938Z" fill="#374957"/>
</g>
<defs>
<clipPath id="clip0_163_2">
<rect width="25" height="25" fill="white" transform="matrix(-1 0 0 1 25 0)"/>
</clipPath>
</defs>
</svg>
