<svg width="511" height="511" viewBox="0 0 511 511" fill="none" xmlns="http://www.w3.org/2000/svg">
<path fill-rule="evenodd" clip-rule="evenodd" d="M135.66 388.327H101.455C99.1845 388.327 97.0205 387.362 95.5035 385.673C93.9865 383.984 93.2575 381.73 93.5005 379.473C100.762 311.854 149.456 256.634 213.68 239.744C187.084 225.052 169.007 196.698 169.007 164.264C169.007 116.827 207.677 78.1159 255.114 78.1159C302.596 78.1159 341.262 116.828 341.262 164.264C341.262 196.699 323.185 225.055 296.573 239.746C360.819 256.638 409.502 311.86 416.728 379.477C416.969 381.734 416.24 383.987 414.723 385.675C413.206 387.363 411.043 388.327 408.773 388.327H374.568C374.297 396.923 370.506 403.905 364.638 409.621V479.393C364.638 492.743 353.701 503.711 340.32 503.711H169.908C156.527 503.711 145.59 492.743 145.59 479.393V409.621C139.722 403.905 135.931 396.923 135.66 388.327ZM255.114 250.413C182.59 250.413 122.369 303.12 110.634 372.327H135.644V347.547C135.644 338.534 143.001 331.199 152.013 331.199H203.586V321.746C203.586 307.736 215.051 296.271 229.06 296.271H281.168C295.177 296.271 306.642 307.736 306.642 321.746V331.199H358.215C367.227 331.199 374.584 338.534 374.584 347.547V372.327H399.599C387.9 303.119 327.675 250.413 255.114 250.413ZM255.114 234.413C293.777 234.413 325.262 202.89 325.262 164.264C325.262 125.638 293.777 94.1159 255.114 94.1159C216.489 94.1159 185.007 125.639 185.007 164.264C185.007 202.889 216.489 234.413 255.114 234.413ZM348.638 420.194C333.645 426.722 309.689 431.072 283.315 432.828C281.181 446.488 269.377 456.924 255.114 456.924C240.857 456.924 229.057 446.497 226.916 432.845C200.567 431.105 176.619 426.764 161.59 420.202V479.393C161.59 483.959 165.331 487.711 169.908 487.711H340.32C344.897 487.711 348.638 483.959 348.638 479.393V420.194ZM281.269 416.934C309.546 415.192 334.934 410.738 347.287 402.928C348.786 401.976 350.218 400.975 351.54 399.881C351.548 399.875 351.555 399.869 351.562 399.864C355.538 396.6 358.584 392.677 358.584 387.332V347.547C358.584 347.349 358.412 347.199 358.215 347.199H321.32V366.388C321.32 376.552 313.011 384.86 302.848 384.86H207.38C197.217 384.86 188.908 376.552 188.908 366.388V347.199H152.013C151.816 347.199 151.644 347.349 151.644 347.547V387.332C151.644 392.677 154.69 396.6 158.666 399.864C158.673 399.869 158.68 399.875 158.688 399.881C160.011 400.975 161.443 401.976 162.943 402.929C175.355 410.786 200.721 415.226 228.952 416.95C233.354 406.891 243.39 399.835 255.114 399.835C266.832 399.835 276.863 406.884 281.269 416.934ZM305.32 347.199H204.908V366.388C204.908 367.748 206.02 368.86 207.38 368.86H302.848C304.208 368.86 305.32 367.748 305.32 366.388V347.199ZM290.642 331.199V321.746C290.642 316.535 286.378 312.271 281.168 312.271H229.06C223.85 312.271 219.586 316.535 219.586 321.746V331.199H290.642ZM242.57 428.379C242.57 435.313 248.181 440.924 255.114 440.924C262.047 440.924 267.658 435.313 267.658 428.379C267.658 421.471 262.06 415.835 255.114 415.835C248.168 415.835 242.57 421.471 242.57 428.379ZM95.1715 12.4089L95.1795 12.4179C116.971 38.8859 138.763 65.3849 160.555 91.8529C163.768 95.6909 164.472 100.806 162.421 105.447C162.414 105.463 162.406 105.479 162.399 105.495C160.277 110.212 155.926 113.038 150.783 113.038H128.292V268.966C128.292 278.845 120.373 286.763 110.798 286.763H59.8895C50.3215 286.763 42.3645 278.838 42.3645 268.966V113.038H19.8745C14.8075 113.038 10.4345 110.237 8.30053 105.522C6.17353 100.862 6.91353 95.7189 10.0775 91.8839C31.8915 65.3889 53.7055 38.8629 75.5065 12.3829C78.0665 9.23794 81.4505 7.71094 85.3285 7.71094C89.2995 7.71094 92.6735 9.27894 95.1715 12.4089ZM26.5585 97.0379H50.3645C54.7835 97.0379 58.3645 100.62 58.3645 105.038V268.966C58.3645 269.898 58.9865 270.763 59.8895 270.763H110.798C111.695 270.763 112.292 269.891 112.292 268.966V105.038C112.292 100.62 115.874 97.0379 120.292 97.0379H144.099C124.509 73.2409 104.919 49.4219 85.3285 25.6259C65.7385 49.4219 46.1485 73.2409 26.5585 97.0379ZM434.727 12.4089L434.734 12.4179C456.526 38.8859 478.318 65.3849 500.11 91.8529C503.323 95.6909 504.027 100.806 501.975 105.447C501.968 105.463 501.961 105.479 501.954 105.495C499.832 110.212 495.48 113.038 490.338 113.038H467.847V268.966C467.847 278.845 459.927 286.763 450.353 286.763H399.445C389.877 286.763 381.92 278.838 381.92 268.966V113.038H359.43C354.363 113.038 349.99 110.237 347.856 105.522C345.729 100.862 346.469 95.7189 349.633 91.8839C371.447 65.3889 393.261 38.8629 415.062 12.3829C417.621 9.23794 421.006 7.71094 424.884 7.71094C428.854 7.71094 432.229 9.27894 434.727 12.4089ZM366.114 97.0379H389.92C394.338 97.0379 397.92 100.62 397.92 105.038V268.966C397.92 269.898 398.542 270.763 399.445 270.763H450.353C451.25 270.763 451.847 269.891 451.847 268.966V105.038C451.847 100.62 455.429 97.0379 459.847 97.0379H483.654C464.064 73.2409 444.474 49.4219 424.884 25.6259C405.294 49.4219 385.704 73.2409 366.114 97.0379Z" fill="#374957"/>
</svg>
