<svg width="26" height="25" viewBox="0 0 26 25" fill="none" xmlns="http://www.w3.org/2000/svg">
<path d="M10.7875 5.00049C10.3609 4.96768 10 5.32862 10 5.75987V6.50987C10 6.91299 10.3187 7.22706 10.7219 7.25049C14.7203 7.52706 17.9031 10.7802 18.2406 14.7833C18.2734 15.1817 18.5828 15.4958 18.9813 15.4958H19.7406C20.1672 15.4958 20.5281 15.1349 20.5 14.7083C20.1109 9.53331 15.9672 5.38487 10.7875 5.00049V5.00049ZM10.7828 0.500494C10.3562 0.481744 10 0.837994 10 1.26456V2.01456C10 2.41768 10.3187 2.73174 10.7219 2.75518C17.2 3.11612 22.4312 8.30049 22.75 14.7739C22.7688 15.1771 23.0875 15.5005 23.4906 15.5005H24.2406C24.6672 15.5005 25.0234 15.1442 25.0047 14.7177C24.6016 7.05831 18.4422 0.898932 10.7828 0.500494V0.500494ZM7.42188 11.0005H7C6.5875 11.0005 6.25 11.338 6.25 11.7505V13.2505C6.25 13.663 6.5875 14.0005 7 14.0005H7.51094C9.71406 14.0005 11.6359 15.8005 11.4906 17.9989C11.3688 19.8692 9.86875 21.3646 8.00312 21.4911C5.8 21.6411 4 19.7192 4 17.5114V5.75049C4 5.33799 3.6625 5.00049 3.25 5.00049H1.75C1.3375 5.00049 1 5.33799 1 5.75049V17.4224C1 21.2942 4.11719 24.6271 7.98438 24.4958C11.5188 24.3739 14.3734 21.5192 14.4953 17.9849C14.6312 14.1177 11.2937 11.0005 7.42188 11.0005V11.0005Z" stroke="#374957" stroke-width="0.8"/>
</svg>
