<svg width="26" height="25" viewBox="0 0 26 25" fill="none" xmlns="http://www.w3.org/2000/svg">
<path d="M11.984 14.336C11.8516 14.336 11.7247 14.2835 11.631 14.19L10.886 13.447C10.8382 13.4009 10.8 13.3458 10.7737 13.2849C10.7474 13.2239 10.7336 13.1583 10.7329 13.0919C10.7322 13.0255 10.7448 12.9597 10.7698 12.8982C10.7949 12.8367 10.8319 12.7808 10.8788 12.7338C10.9257 12.6868 10.9815 12.6496 11.0429 12.6244C11.1043 12.5992 11.1701 12.5864 11.2365 12.5869C11.3029 12.5874 11.3685 12.6011 11.4295 12.6272C11.4906 12.6533 11.5458 12.6913 11.592 12.739L11.984 13.13L13.165 11.95C13.2588 11.8561 13.386 11.8033 13.5186 11.8032C13.6513 11.8031 13.7786 11.8557 13.8725 11.9495C13.9664 12.0433 14.0192 12.1705 14.0193 12.3031C14.0194 12.4358 13.9668 12.5631 13.873 12.657L12.338 14.19C12.2438 14.2833 12.1166 14.3358 11.984 14.336ZM21.337 14.189L22.871 12.657C22.9621 12.5627 23.0125 12.4364 23.0113 12.3053C23.0102 12.1742 22.9576 12.0488 22.8649 11.9561C22.7722 11.8634 22.6468 11.8108 22.5157 11.8097C22.3846 11.8085 22.2583 11.8589 22.164 11.95L20.983 13.13L20.591 12.739C20.5448 12.6913 20.4896 12.6533 20.4285 12.6272C20.3675 12.6011 20.3019 12.5874 20.2355 12.5869C20.1691 12.5864 20.1033 12.5992 20.0419 12.6244C19.9805 12.6496 19.9247 12.6868 19.8778 12.7338C19.8309 12.7808 19.7939 12.8367 19.7688 12.8982C19.7438 12.9597 19.7312 13.0255 19.7319 13.0919C19.7326 13.1583 19.7464 13.2239 19.7727 13.2849C19.799 13.3458 19.8372 13.4009 19.885 13.447L20.631 14.19C20.6773 14.2366 20.7323 14.2735 20.7929 14.2987C20.8536 14.3238 20.9186 14.3367 20.9842 14.3366C21.0499 14.3366 21.1148 14.3235 21.1754 14.2981C21.2359 14.2728 21.2909 14.2357 21.337 14.189ZM5.527 7.952L8.084 6.367C8.22837 6.27767 8.34761 6.15306 8.43051 6.0049C8.5134 5.85675 8.55721 5.68993 8.55781 5.52016C8.55841 5.3504 8.51578 5.18327 8.43394 5.03454C8.35209 4.8858 8.23373 4.76035 8.09 4.67L5.533 3.06C5.38172 2.9647 5.20765 2.91171 5.02893 2.90653C4.85021 2.90136 4.67337 2.9442 4.51683 3.03059C4.36029 3.11698 4.22978 3.24375 4.13888 3.39772C4.04798 3.55168 4.00002 3.7272 4 3.906V7.102C4.0003 7.28009 4.0481 7.45488 4.13847 7.60833C4.22885 7.76178 4.35853 7.88835 4.51414 7.97497C4.66975 8.06158 4.84565 8.10512 5.02369 8.10108C5.20173 8.09705 5.37548 8.04558 5.527 7.952ZM7.557 5.516L5 7.102V3.906L7.557 5.516ZM25 13C25 14.93 23.43 16.5 21.5 16.5C20.6592 16.4984 19.8471 16.1945 19.2119 15.6437C18.5767 15.0929 18.1607 14.332 18.04 13.5H15.96C15.8393 14.332 15.4233 15.0929 14.7881 15.6437C14.1529 16.1945 13.3408 16.4984 12.5 16.5C11.6592 16.4986 10.847 16.1947 10.2117 15.6439C9.57642 15.0931 9.16053 14.3321 9.04 13.5H8.482C7.51 13.5 6.632 13.101 6 12.458V17.5C6 19.154 7.346 20.5 9 20.5H9.04C9.284 18.807 10.74 17.5 12.5 17.5C14.43 17.5 16 19.07 16 21C16 22.93 14.43 24.5 12.5 24.5C11.6592 24.4986 10.847 24.1947 10.2117 23.6439C9.57642 23.0931 9.16053 22.3321 9.04 21.5H9C6.794 21.5 5 19.706 5 17.5V10.399C3.87149 10.1671 2.85745 9.55322 2.12881 8.66082C1.40017 7.76842 1.0015 6.65208 1 5.5C1 2.743 3.243 0.5 6 0.5C8.757 0.5 11 2.743 11 5.5C10.9982 6.81706 10.4774 8.08035 9.5504 9.01595C8.62341 9.95155 7.36499 10.4841 6.048 10.498C6.15916 11.0619 6.46258 11.5698 6.90648 11.9349C7.35038 12.3 7.90723 12.4997 8.482 12.5H9.04C9.284 10.807 10.74 9.5 12.5 9.5C13.3408 9.5014 14.153 9.80526 14.7883 10.3561C15.4236 10.9069 15.8395 11.6679 15.96 12.5H18.04C18.1607 11.668 18.5767 10.9071 19.2119 10.3563C19.8471 9.80555 20.6592 9.50161 21.5 9.5C23.43 9.5 25 11.07 25 13ZM10 21C10 22.378 11.122 23.5 12.5 23.5C13.878 23.5 15 22.378 15 21C15 19.622 13.878 18.5 12.5 18.5C11.122 18.5 10 19.622 10 21ZM6 9.5C8.206 9.5 10 7.706 10 5.5C10 3.294 8.206 1.5 6 1.5C3.794 1.5 2 3.294 2 5.5C2 7.706 3.794 9.5 6 9.5ZM15 13C15 11.622 13.878 10.5 12.5 10.5C11.122 10.5 10 11.622 10 13C10 14.378 11.122 15.5 12.5 15.5C13.878 15.5 15 14.378 15 13ZM24 13C24 11.622 22.878 10.5 21.5 10.5C20.122 10.5 19 11.622 19 13C19 14.378 20.122 15.5 21.5 15.5C22.878 15.5 24 14.378 24 13ZM11 21C11 21.1326 11.0527 21.2598 11.1464 21.3536C11.2402 21.4473 11.3674 21.5 11.5 21.5C11.6326 21.5 11.7598 21.4473 11.8536 21.3536C11.9473 21.2598 12 21.1326 12 21C12 20.8674 11.9473 20.7402 11.8536 20.6464C11.7598 20.5527 11.6326 20.5 11.5 20.5C11.3674 20.5 11.2402 20.5527 11.1464 20.6464C11.0527 20.7402 11 20.8674 11 21ZM13 21C13 21.1326 13.0527 21.2598 13.1464 21.3536C13.2402 21.4473 13.3674 21.5 13.5 21.5C13.6326 21.5 13.7598 21.4473 13.8536 21.3536C13.9473 21.2598 14 21.1326 14 21C14 20.8674 13.9473 20.7402 13.8536 20.6464C13.7598 20.5527 13.6326 20.5 13.5 20.5C13.3674 20.5 13.2402 20.5527 13.1464 20.6464C13.0527 20.7402 13 20.8674 13 21ZM25 21C25 22.93 23.43 24.5 21.5 24.5C20.659 24.4983 19.8466 24.1941 19.2113 23.6429C18.576 23.0917 18.1603 22.3304 18.04 21.498C18.033 21.499 18.027 21.503 18.019 21.503L17.513 21.52H17.496C17.367 21.5167 17.2444 21.4636 17.1536 21.372C17.0628 21.2803 17.011 21.1572 17.0089 21.0282C17.0069 20.8992 17.0547 20.7744 17.1425 20.6799C17.2303 20.5854 17.3512 20.5284 17.48 20.521L17.986 20.504C18.004 20.502 18.021 20.51 18.038 20.511C18.1564 19.6766 18.5716 18.9129 19.2074 18.3598C19.8433 17.8068 20.6573 17.5015 21.5 17.5C23.43 17.5 25 19.07 25 21ZM24 21C24 19.622 22.878 18.5 21.5 18.5C20.122 18.5 19 19.622 19 21C19 22.378 20.122 23.5 21.5 23.5C22.878 23.5 24 22.378 24 21Z" stroke="#374957" stroke-width="0.4"/>
</svg>
