<svg width="26" height="25" viewBox="0 0 26 25" fill="none" xmlns="http://www.w3.org/2000/svg">
<path d="M21.3515 20.4904H3.26128V6.21155H21.3515M21.3515 3.35578H12.3064L10.0451 0.5H3.26128C2.00627 0.5 1 1.77082 1 3.35578V20.4904C1 21.2478 1.23824 21.9742 1.66231 22.5098C2.08639 23.0453 2.66155 23.3462 3.26128 23.3462H21.3515C21.9513 23.3462 22.5264 23.0453 22.9505 22.5098C23.3746 21.9742 23.6128 21.2478 23.6128 20.4904V6.21155C23.6128 4.6266 22.5953 3.35578 21.3515 3.35578Z" stroke="#374957" stroke-width="0.8"/>
<path fill-rule="evenodd" clip-rule="evenodd" d="M10.426 8.72326H22.2243C22.5925 8.72326 22.9457 8.908 23.206 9.23683C23.4664 9.56567 23.6127 10.0117 23.6127 10.4767V12.2287H20.8358V10.4767H11.8133V20.9945H18.0601V22.748H10.4249C10.0569 22.7476 9.70399 22.5627 9.44386 22.2339C9.18372 21.9051 9.0376 21.4593 9.0376 20.9945V10.4767C9.0376 10.0119 9.18372 9.56613 9.44386 9.23734C9.70399 8.90854 10.058 8.72364 10.426 8.72326ZM20.1416 13.9822H24.3069C24.4908 13.9826 24.6671 14.0751 24.7971 14.2395C24.927 14.4038 25 14.6266 25 14.8589V23.6233C25 23.8556 24.927 24.0783 24.7971 24.2427C24.6671 24.4071 24.4908 24.4996 24.3069 24.5H20.1416C19.9577 24.4996 19.7814 24.4071 19.6515 24.2427C19.5215 24.0783 19.4485 23.8556 19.4485 23.6233V14.8589C19.4485 14.6266 19.5215 14.4038 19.6515 14.2395C19.7814 14.0751 19.9577 13.9826 20.1416 13.9822ZM20.8358 15.7356V21.8713H23.6127V15.7356H20.8358Z" stroke="#374957" stroke-width="0.8"/>
</svg>
