<svg width="64" height="64" viewBox="0 0 64 64" fill="none" xmlns="http://www.w3.org/2000/svg">
<path fill-rule="evenodd" clip-rule="evenodd" d="M24.022 47.8083C24.024 47.8437 24.024 47.8785 24.022 47.914C23.9104 49.6563 22.3329 50.8394 20.2621 51.0945V51.8533C20.2621 52.3017 19.8991 52.6633 19.4521 52.6633C19.0038 52.6633 18.6422 52.3016 18.6422 51.8533V51.104C17.493 51.001 16.3882 50.7056 15.3476 50.2203C14.9422 50.0312 14.7662 49.5495 14.9552 49.1448C15.1435 48.7388 15.6253 48.5628 16.0313 48.7518C17.4953 49.4337 19.6613 49.8625 21.2304 49.1748C22.1824 48.7518 22.3645 48.229 22.4014 47.8544C22.368 47.4913 22.1898 46.9829 21.2249 46.5367C19.7611 45.8898 19.0034 46.517 17.087 45.7077C17.0788 45.7042 17.0685 45.7001 17.0603 45.6954C15.3517 44.8868 14.962 43.7444 14.936 42.929C14.9346 42.9065 14.9346 42.8846 14.936 42.8621C14.979 42.0003 15.3871 40.8211 17.0849 40.0984C17.5612 39.8883 18.0825 39.7443 18.6422 39.672V38.9063C18.6422 38.4593 19.0038 38.0963 19.4521 38.0963C19.8991 38.0963 20.2621 38.4593 20.2621 38.9063V39.6609C21.4754 39.7701 22.5577 40.0629 23.5506 40.5461C23.9517 40.7413 24.1197 41.2257 23.9238 41.6291C23.7286 42.0304 23.2435 42.1982 22.8409 42.0023C21.8617 41.5254 20.7597 41.2749 19.4713 41.2353C18.3728 41.2184 16.5697 41.7708 16.5563 42.912C16.5665 43.1378 16.6415 43.7015 17.7409 44.2263C18.2459 44.4538 18.9093 44.5709 19.5104 44.5709C21.6541 44.571 23.8942 45.7074 24.022 47.8083ZM43.322 15.8194C43.322 16.2677 42.9602 16.6294 42.512 16.6294H31.0854C30.6384 16.6294 30.2761 16.2677 30.2761 15.8194C30.2761 15.3724 30.6384 15.0101 31.0854 15.0101H42.512C42.9602 15.0101 43.322 15.3724 43.322 15.8194ZM43.322 11.3572C43.322 11.8055 42.9602 12.1672 42.512 12.1672H31.0854C30.6384 12.1672 30.2761 11.8055 30.2761 11.3572C30.2761 10.9102 30.6384 10.5479 31.0854 10.5479H42.512C42.9602 10.548 43.322 10.9102 43.322 11.3572ZM43.322 20.2829C43.322 20.7299 42.9602 21.0929 42.512 21.0929H31.0854C30.6384 21.0929 30.2761 20.7299 30.2761 20.2829C30.2761 19.8345 30.6384 19.4729 31.0854 19.4729H42.512C42.9602 19.4728 43.322 19.8345 43.322 20.2829ZM55.1675 57.1071C55.7892 57.1071 56.2948 56.6007 56.2948 55.9784V15.313H50.6208C49.1059 15.313 47.8735 14.0807 47.8735 12.5658V6.89243H21.5074C20.8851 6.89243 20.3795 7.3988 20.3795 8.02036V16.3885H24.9843C25.5087 16.3885 25.8987 16.8872 25.7705 17.3964C25.1067 20.032 23.8061 24.704 23.7601 26.3336C23.6679 29.5374 26.4133 33.2782 28.6822 36.319H33.9789V27.1845C33.9789 26.7375 34.3419 26.3745 34.7888 26.3745H40.8375C41.2845 26.3745 41.6475 26.7375 41.6475 27.1845V34.2213H46.0755V21.3002C46.0755 20.8533 46.4385 20.4903 46.8855 20.4903H52.9341C53.3811 20.4903 53.7441 20.8533 53.7441 21.3002V57.1071H55.1675ZM40.0274 57.1071H35.5987V27.9945H40.0274V57.1071ZM52.124 57.1071H47.6953V22.1102H52.124V57.1071ZM41.6473 35.8405H46.0754V57.1071H41.6473V35.8405ZM30.5735 53.7635C33.6599 49.3531 33.5065 43.178 30.465 38.7633C30.28 38.4945 30.085 38.22 29.8802 37.939H33.9786V57.1072H26.6265C28.2541 56.2746 29.6093 55.1432 30.5735 53.7635ZM9.65643 52.8361C11.4995 55.4701 15.2534 57.1072 19.452 57.1072C23.6508 57.1072 27.4032 55.4702 29.2463 52.8361C31.9416 48.9843 31.7851 43.5344 29.131 39.6831C26.967 36.5431 23.986 33.2233 22.6948 29.5006H16.2305C15.4185 31.8193 13.763 34.1121 11.8278 36.7912C11.1639 37.7104 10.4774 38.6602 9.77175 39.6831C7.11217 43.5382 6.961 48.9799 9.65643 52.8361ZM16.7634 26.2879C16.7566 26.0722 16.7415 25.8409 16.7183 25.5973H22.1979C22.0966 26.4046 22.125 27.0798 22.2661 27.8812H16.6514C16.7389 27.3572 16.7785 26.8283 16.7634 26.2879ZM23.9407 18.0085C23.4322 19.9992 22.8335 22.2419 22.4756 23.9772H16.4965C16.2002 22.2354 15.6514 19.9137 15.1809 18.0085H23.9407ZM49.4934 8.03816L55.1503 13.6931H50.6207C49.9997 13.6931 49.4934 13.1881 49.4934 12.5658V8.03816ZM57.6779 13.9305L49.2559 5.5099C49.1051 5.35771 48.8984 5.27246 48.6834 5.27246H21.5074C19.9919 5.27246 18.7595 6.50548 18.7595 8.02036V16.3885H14.1541C13.6344 16.3885 13.2455 16.8795 13.366 17.3855C14.0338 20.1923 15.0845 24.2673 15.1437 26.3336C15.2289 29.3162 13.149 32.196 10.5151 35.8419C9.84561 36.7687 9.153 37.7267 8.43851 38.7633C5.39659 43.1749 5.24606 49.3566 8.32932 53.7649C10.5028 56.8718 14.6619 58.7272 19.4521 58.7272C19.953 58.7272 20.4464 58.7053 20.9322 58.6657C21.1213 58.7053 21.3136 58.7272 21.5074 58.7272H55.1675C56.6823 58.7272 57.9147 57.4934 57.9147 55.9785V14.5031C57.9147 14.2894 57.8294 14.0833 57.6779 13.9305Z" fill="#374957"/>
</svg>
