<svg width="24" height="25" viewBox="0 0 24 25" fill="none" xmlns="http://www.w3.org/2000/svg">
<path d="M8.1812 19.4481C8.36229 19.3184 8.60576 19.2219 8.82492 19.1546C8.79593 19.1895 8.76357 19.2343 8.7418 19.2851L8.62816 19.5503L8.90686 19.6251C10.6638 20.0961 12.5327 19.9505 14.2652 19.6037C14.482 19.6929 14.7008 19.8012 14.9321 19.9156C14.9821 19.9403 15.0326 19.9654 15.0839 19.9905C15.2136 20.0543 15.3469 20.1185 15.4834 20.1796C13.7874 20.8669 11.9092 21.0887 10.0931 20.8356C9.99807 20.8164 9.9027 20.7984 9.80741 20.7803C9.47939 20.7181 9.15241 20.6561 8.8452 20.5511C8.46338 20.4205 8.15239 20.235 7.95362 19.9363C7.92147 19.8318 7.93274 19.7535 7.9623 19.6879C7.99765 19.6095 8.06924 19.5282 8.1812 19.4481ZM8.25567 16.6573C8.20232 16.7144 8.1418 16.7927 8.11493 16.8849C8.093 16.9602 8.09072 17.0537 8.13774 17.1455C8.1816 17.2312 8.25314 17.2852 8.31845 17.3196L8.34922 17.3358L8.38323 17.343C10.5738 17.8066 12.8732 17.6 15.036 17.1809C15.2842 17.4169 15.579 17.5821 15.8754 17.7136C13.645 18.3238 11.3032 18.5563 9.01974 18.2264C8.89855 18.1984 8.77811 18.1746 8.6587 18.151C8.41481 18.1027 8.17521 18.0554 7.94224 17.9746C7.62068 17.8631 7.38406 17.7082 7.25959 17.459C7.24861 17.2565 7.36145 17.1024 7.59578 16.9553C7.79045 16.833 8.01911 16.7466 8.24186 16.6625C8.24647 16.6607 8.25107 16.659 8.25567 16.6573ZM17.5461 14.0273C17.5005 14.032 17.4569 14.0423 17.4189 14.0534C17.6792 13.8546 18.0173 13.7518 18.3771 13.7533L18.3896 13.7533L18.4019 13.7521C18.9509 13.6998 19.5054 13.9148 19.883 14.2862C20.2561 14.6533 20.4442 15.1585 20.303 15.7C20.0897 16.4031 19.594 16.9178 18.9588 17.3131C18.3531 17.6899 17.6362 17.9482 16.956 18.1517C17.0907 18.0609 17.2311 17.9706 17.3759 17.8776C17.4076 17.8572 17.4395 17.8368 17.4715 17.8161C17.7158 17.6588 17.9693 17.4929 18.2098 17.3104C18.6888 16.9468 19.1354 16.5033 19.3796 15.8897C19.6433 15.3136 19.4263 14.7334 19.041 14.369C18.6666 14.015 18.0909 13.8224 17.5461 14.0273ZM9.10173 13.9731C9.0084 14.002 8.91325 14.0297 8.8163 14.0572C8.76983 14.0704 8.72283 14.0835 8.67541 14.0968C8.34174 14.1903 7.98722 14.2896 7.64839 14.4403L7.61988 14.4529L7.60446 14.4651C7.60188 14.4664 7.59796 14.4683 7.59242 14.471C7.57463 14.4794 7.5511 14.4895 7.52071 14.5025C7.51499 14.5049 7.50903 14.5074 7.50286 14.51C7.44856 14.533 7.37838 14.5628 7.3184 14.5935C7.28497 14.6106 7.2463 14.6322 7.21129 14.6579C7.18531 14.6769 7.12086 14.7262 7.08803 14.8093C7.06829 14.8593 7.05897 14.9248 7.08053 14.9945C7.10114 15.0611 7.14208 15.106 7.17593 15.1333C7.23617 15.1819 7.30815 15.2025 7.35586 15.2136L7.35582 15.2137L7.36512 15.2155C9.14255 15.5565 10.9724 15.4303 12.7396 15.3085C13.0371 15.288 13.3329 15.2676 13.6263 15.2496C14.1875 15.2295 14.7449 15.1381 15.284 15.0498C15.3709 15.0356 15.4574 15.0214 15.5433 15.0076C15.8863 14.9526 16.2228 14.9034 16.5564 14.876C16.519 14.8953 16.4809 14.9147 16.4422 14.9344C16.3476 14.9825 16.2492 15.0325 16.147 15.0878L16.1375 15.0929L16.1285 15.0989C16.0009 15.1828 15.7907 15.2717 15.4983 15.3582C15.2098 15.4434 14.8565 15.522 14.4534 15.5918C13.6474 15.7312 12.6561 15.833 11.6137 15.885C9.5208 15.9893 7.26172 15.8909 5.89947 15.5138L5.88142 15.5088L5.86282 15.5065C5.73171 15.4906 5.57139 15.3968 5.4881 15.2806C5.44905 15.2261 5.43844 15.1828 5.43932 15.1542C5.43996 15.1333 5.44689 15.0988 5.49136 15.0522C6.53382 14.3622 7.8259 14.0478 9.10173 13.9731ZM7.45326 14.7222C7.45329 14.7222 7.45409 14.7224 7.45553 14.723C7.45394 14.7225 7.45323 14.7222 7.45326 14.7222ZM7.50691 15.0611C7.50726 15.0609 7.50766 15.0606 7.50813 15.0603C7.50375 15.0641 7.50254 15.0643 7.50691 15.0611ZM14.2175 13.39C13.9177 13.8343 13.4613 14.2188 13.0148 14.4996C13.2522 14.2316 13.4138 13.8969 13.4699 13.5502C13.5441 13.0923 13.4345 12.6017 13.0577 12.2287C12.191 11.309 11.7195 9.89824 12.3967 8.84114C13.358 7.37514 15.0745 6.639 16.7869 6.0992C16.6267 6.20776 16.462 6.31434 16.2943 6.42113C16.2128 6.47305 16.1304 6.52515 16.0475 6.57754C15.7729 6.75108 15.4931 6.92797 15.223 7.11308C14.5183 7.59615 13.8448 8.15818 13.4044 8.95274L13.3964 8.96721L13.3904 8.9826C13.1325 9.63972 13.3832 10.1939 13.6827 10.6552C13.7709 10.7911 13.8743 10.9345 13.9729 11.0714C14.0348 11.1572 14.0948 11.2404 14.148 11.3175C14.2952 11.531 14.4143 11.7295 14.483 11.9274C14.6542 12.4448 14.5222 12.9385 14.2175 13.39ZM11.2175 12.6613C11.4733 13.0251 11.7175 13.3723 11.9023 13.7342C11.4618 13.3502 11.0469 12.9302 10.6289 12.5065C10.1758 12.0169 9.68864 11.4677 9.37106 10.8724C9.05687 10.2835 8.92206 9.67509 9.13242 9.04918C9.40807 8.40359 9.90607 7.85367 10.5106 7.3237C10.8134 7.05831 11.1379 6.80202 11.4697 6.54232C11.4996 6.51893 11.5296 6.4955 11.5596 6.47204C11.8608 6.23641 12.1668 5.9971 12.4587 5.75003C13.0993 5.20791 13.6952 4.60985 14.0624 3.87905C14.4131 3.18083 14.5478 2.37608 14.3407 1.40978C14.7359 2.00113 14.8803 2.6103 14.8261 3.22446C14.7483 4.10761 14.2561 5.04313 13.408 5.98459L13.4079 5.98447L13.4017 5.99188C13.1546 6.2885 12.858 6.56009 12.5384 6.83226C12.4278 6.92647 12.3127 7.02205 12.1963 7.11881C11.9832 7.29584 11.7654 7.47681 11.5611 7.66059C10.9216 8.2357 10.3325 8.90628 10.1498 9.85603L10.1475 9.86798L10.1463 9.8801C10.0532 10.8809 10.5301 11.67 11.0202 12.3791C11.0862 12.4746 11.1522 12.5685 11.2175 12.6613ZM5.1112 21.4597L4.76191 21.6918L5.13228 21.8886C5.50711 22.0878 6.11168 22.243 6.86153 22.3586C7.61929 22.4754 8.55113 22.5554 9.59821 22.5918C11.6926 22.6646 14.2621 22.5634 16.8472 22.227L16.8616 22.2252L16.8756 22.2216C17.0378 22.1811 17.213 22.151 17.4018 22.1193L17.4259 22.1152C17.6043 22.0853 17.7941 22.0534 17.979 22.0101C18.3638 21.9199 18.7673 21.7718 19.0663 21.4417L19.1255 21.3764L19.1306 21.2883C19.1358 21.1986 19.1125 21.1162 19.0813 21.0468C19.1163 21.0695 19.1495 21.0937 19.1799 21.1194C19.2696 21.195 19.3189 21.2689 19.3372 21.333C19.3519 21.3847 19.3525 21.4497 19.3061 21.5373C18.9679 21.9052 18.5156 22.1265 18.0002 22.289C17.7383 22.3716 17.4653 22.4374 17.1871 22.5006C17.1237 22.515 17.0598 22.5293 16.9956 22.5437C16.7851 22.5908 16.5723 22.6385 16.3679 22.6914C12.3497 23.3928 8.17773 23.2823 4.17046 22.528L4.16173 22.5264L4.1529 22.5254C3.98434 22.5059 3.78723 22.3951 3.67817 22.2514C3.62608 22.1828 3.60371 22.1194 3.60171 22.0669C3.59997 22.0208 3.61279 21.9628 3.66993 21.8929C4.40244 21.1623 5.49282 20.8856 6.56532 20.781L6.56534 20.7812L6.57549 20.7798C6.75381 20.755 6.90929 20.7811 7.0609 20.8427C6.37666 20.8792 5.69997 21.0683 5.1112 21.4597ZM6.99021 23.7365C9.09184 23.9722 11.6916 24.0282 14.056 23.8619C15.463 23.7629 16.7946 23.5848 17.8928 23.316C18.9461 23.0582 19.8262 22.7078 20.3382 22.231C20.2829 22.4405 20.1564 22.628 19.9802 22.7971C19.6752 23.09 19.2385 23.3067 18.8418 23.4359C15.9617 24.3376 12.8756 24.3141 9.83251 24.1829C9.57847 24.153 9.32742 24.1316 9.07834 24.1103C8.64366 24.0733 8.21502 24.0368 7.7871 23.9563C7.50812 23.9038 7.24107 23.8341 6.99021 23.7365Z" stroke="#374957" stroke-width="0.5"/>
</svg>
