<svg width="26" height="25" viewBox="0 0 26 25" fill="none" xmlns="http://www.w3.org/2000/svg">
<path d="M22 4.5H16V3.5C16 2.70435 15.6839 1.94129 15.1213 1.37868C14.5587 0.81607 13.7956 0.5 13 0.5C12.2044 0.5 11.4413 0.81607 10.8787 1.37868C10.3161 1.94129 10 2.70435 10 3.5V4.5H4C3.20435 4.5 2.44129 4.81607 1.87868 5.37868C1.31607 5.94129 1 6.70435 1 7.5L1 24.5H25V7.5C25 6.70435 24.6839 5.94129 24.1213 5.37868C23.5587 4.81607 22.7956 4.5 22 4.5V4.5ZM12 3.5C12 3.23478 12.1054 2.98043 12.2929 2.79289C12.4804 2.60536 12.7348 2.5 13 2.5C13.2652 2.5 13.5196 2.60536 13.7071 2.79289C13.8946 2.98043 14 3.23478 14 3.5V6.5H12V3.5ZM23 22.5H3V7.5C3 7.23478 3.10536 6.98043 3.29289 6.79289C3.48043 6.60536 3.73478 6.5 4 6.5H10V8.5H16V6.5H22C22.2652 6.5 22.5196 6.60536 22.7071 6.79289C22.8946 6.98043 23 7.23478 23 7.5V22.5ZM5 20.5H12V10.5H5V20.5ZM7 12.5H10V18.5H7V12.5ZM14 14.5H21V16.5H14V14.5ZM14 10.5H21V12.5H14V10.5ZM14 18.5H19V20.5H14V18.5Z" stroke="#374957" stroke-width="0.8"/>
</svg>
