<svg width="24" height="25" viewBox="0 0 24 25" fill="none" xmlns="http://www.w3.org/2000/svg">
<path d="M9.8278 3.32132L9.82776 3.3214L9.83305 3.32423C9.85177 3.33426 9.87319 3.35488 9.89063 3.38737C9.90837 3.42039 9.91527 3.45339 9.91527 3.47393V13.1264V13.4721L10.215 13.2998L13.9801 11.1348L14.0804 11.0771V10.9614V6.02768C14.0804 5.95625 14.1081 5.90912 14.1672 5.87549L14.1679 5.87507L18.6859 3.27746L18.6862 3.27731C18.7406 3.2459 18.8074 3.2459 18.8618 3.27731L18.8621 3.27746L23.3801 5.87508L23.3815 5.87585C23.4088 5.89127 23.432 5.91696 23.4491 5.95012C23.467 5.98507 23.4719 6.0162 23.4719 6.02768V11.179C23.4719 11.2427 23.4385 11.3002 23.3838 11.3315L23.3835 11.3317L19.0542 13.8209L18.9539 13.8786V13.9943V18.928C18.9539 18.9917 18.9205 19.0492 18.8658 19.0805L18.8655 19.0806L9.83418 24.2727C9.78877 24.2948 9.75983 24.3 9.73936 24.3C9.71936 24.3 9.69221 24.2951 9.65012 24.2732L0.616716 19.0799C0.562033 19.0484 0.528125 18.9895 0.528125 18.9272V3.47518C0.529251 3.39501 0.555549 3.35457 0.612733 3.32294L0.612746 3.32296L0.615597 3.32132L5.1336 0.723703L5.13386 0.723554C5.1883 0.692149 5.2551 0.692149 5.30954 0.723555L5.30979 0.723703L9.8278 3.32132ZM9.63614 18.6686L9.73496 18.7245L9.83357 18.6683L18.1141 13.9487L18.4177 13.7757L18.1148 13.6016L14.3531 11.4392L14.2534 11.3819L14.1537 11.4392L5.8766 16.1975L5.57238 16.3723L5.87788 16.545L9.63614 18.6686ZM18.5958 8.84291V8.72719L18.4955 8.66952L14.7295 6.50455L14.4298 6.33228V6.67794V10.9614V11.0772L14.5301 11.1348L18.2962 13.2998L18.5958 13.4721V13.1264V8.84291ZM18.872 3.69019L18.7723 3.63286L18.6726 3.69019L14.9091 5.8543L14.6076 6.02768L14.9091 6.20106L18.6726 8.36517L18.7723 8.4225L18.872 8.36517L22.6354 6.20106L22.9369 6.02768L22.6354 5.8543L18.872 3.69019ZM5.39382 15.724V16.0698L5.69352 15.8974L9.45953 13.7316L9.55982 13.6739V13.5582V4.12419V3.77853L9.26015 3.9508L5.49414 6.11577L5.39382 6.17344V6.28916V15.724ZM5.31708 1.1373L5.21739 1.07997L5.11769 1.1373L1.35426 3.30141L1.05275 3.47479L1.35426 3.64817L5.11769 5.81228L5.21739 5.86961L5.31708 5.81228L9.08051 3.64817L9.38202 3.47479L9.08051 3.30141L5.31708 1.1373ZM9.91182 23.4721V23.8178L10.2115 23.6455L18.4955 18.8829L18.5958 18.8253V18.7096V14.4235V14.0793L18.2968 14.2497L10.0128 18.9719L9.91182 19.0294V19.1456V23.4721ZM18.9487 13.1264V13.4721L19.2484 13.2998L23.0144 11.1348L23.1147 11.0772V10.9614V6.67794V6.33228L22.815 6.50455L19.049 8.66952L18.9487 8.72719V8.84291V13.1264ZM9.56155 19.1457V19.0289L9.45994 18.9715L5.04096 16.4745L5.04096 6.28916V6.17344L4.94064 6.11577L1.17462 3.9508L0.874947 3.77853V4.12419V18.7096V18.8253L0.975301 18.883L9.2619 23.6447L9.56155 23.8169V23.4713L9.56155 19.1457Z" stroke="#374957" stroke-width="0.4"/>
</svg>
