<svg width="26" height="25" viewBox="0 0 26 25" fill="none" xmlns="http://www.w3.org/2000/svg">
<path d="M22 4.5H19V2.5C19 1.96957 18.7893 1.46086 18.4142 1.08579C18.0391 0.710714 17.5304 0.5 17 0.5H9C8.46957 0.5 7.96086 0.710714 7.58579 1.08579C7.21071 1.46086 7 1.96957 7 2.5V4.5H4C3.20435 4.5 2.44129 4.81607 1.87868 5.37868C1.31607 5.94129 1 6.70435 1 7.5L1 24.5H25V7.5C25 6.70435 24.6839 5.94129 24.1213 5.37868C23.5587 4.81607 22.7956 4.5 22 4.5V4.5ZM9 2.5H17V4.5H9V2.5ZM4 6.5H22C22.2652 6.5 22.5196 6.60536 22.7071 6.79289C22.8946 6.98043 23 7.23478 23 7.5V12.5H3V7.5C3 7.23478 3.10536 6.98043 3.29289 6.79289C3.48043 6.60536 3.73478 6.5 4 6.5V6.5ZM3 22.5V14.5H12V16.5H14V14.5H23V22.5H3Z" stroke="#374957" stroke-width="0.8"/>
</svg>
