<svg width="24" height="25" viewBox="0 0 24 25" fill="none" xmlns="http://www.w3.org/2000/svg">
<path d="M11.9482 24.5096L11.5942 24.3526C11.2002 24.1796 2.00015 20.0246 2.00015 12.5006V5.97656C2.0005 5.34873 2.19894 4.73702 2.56719 4.22853C2.93545 3.72005 3.45475 3.34072 4.05115 3.14456L12.0002 0.509558L19.9492 3.14456C20.5456 3.34072 21.0649 3.72005 21.4331 4.22853C21.8014 4.73702 21.9998 5.34873 22.0002 5.97656V12.5006C22.0002 21.0776 12.7122 24.2556 12.3162 24.3876L11.9482 24.5096ZM12.0002 2.60656L4.68415 5.03256C4.4851 5.09757 4.31172 5.22391 4.18886 5.39348C4.06599 5.56305 3.99994 5.76715 4.00015 5.97656V12.5006C4.00015 17.9946 10.4402 21.5586 12.0472 22.3616C13.6512 21.7166 20.0002 18.7636 20.0002 12.5006V5.97656C20.0004 5.76715 19.9343 5.56305 19.8114 5.39348C19.6886 5.22391 19.5152 5.09757 19.3162 5.03256L12.0002 2.60656Z" stroke="#374957" stroke-width="0.8"/>
<path d="M11.1113 15.042H11.0783C10.8252 15.0381 10.5755 14.983 10.3443 14.8798C10.1131 14.7767 9.90525 14.6278 9.73327 14.442L7.42728 12.042L8.86827 10.66L11.1123 13L16.2933 7.81899L17.7073 9.23299L12.4463 14.494C12.271 14.6691 12.0628 14.8077 11.8337 14.9017C11.6045 14.9958 11.359 15.0435 11.1113 15.042Z" stroke="#374957" stroke-width="0.8"/>
</svg>
