<svg width="24" height="25" viewBox="0 0 24 25" fill="none" xmlns="http://www.w3.org/2000/svg">
<path d="M20.626 17.865C20.3136 18.5791 19.9286 19.2592 19.477 19.8945C19.0522 20.5338 18.5577 21.1239 18.0025 21.654C17.4919 22.1538 16.8144 22.4471 16.1005 22.4775C15.4943 22.4514 14.8985 22.3115 14.344 22.065C13.7454 21.8089 13.1034 21.6694 12.4525 21.654C11.7824 21.6662 11.1206 21.8057 10.5025 22.065C9.96924 22.3015 9.40062 22.4485 8.81952 22.5C8.4545 22.497 8.0938 22.4207 7.75883 22.2756C7.42386 22.1306 7.12144 21.9197 6.86952 21.6555C6.29029 21.1063 5.77318 20.4952 5.32752 19.833C4.63126 18.8522 4.08009 17.7761 3.69102 16.638C3.24839 15.4164 3.0156 14.1287 3.00252 12.8295C2.96792 11.5536 3.29 10.2934 3.93252 9.1905C4.40484 8.38818 5.07658 7.72161 5.88252 7.2555C6.68089 6.78709 7.58793 6.53576 8.51352 6.5265C9.21319 6.56698 9.90118 6.72415 10.549 6.9915C11.0617 7.21445 11.6004 7.37169 12.1525 7.4595C12.7688 7.33426 13.3716 7.14991 13.9525 6.909C14.7254 6.60061 15.5539 6.45606 16.3855 6.4845C17.1759 6.50303 17.9517 6.70186 18.6536 7.0658C19.3554 7.42974 19.9649 7.94918 20.4355 8.5845C19.7004 8.96233 19.0862 9.5391 18.6629 10.2491C18.2396 10.959 18.0243 11.7736 18.0415 12.6C18.0346 13.2305 18.1634 13.8551 18.4191 14.4315C18.6748 15.0078 19.0515 15.5225 19.5235 15.9405C19.955 16.3458 20.4567 16.6691 21.004 16.8945C20.885 17.2325 20.759 17.557 20.626 17.868V17.865ZM16.5025 1.92C16.4871 3.00977 16.0712 4.05575 15.334 4.8585C14.9513 5.36919 14.4523 5.78112 13.8783 6.06002C13.3043 6.33893 12.672 6.47674 12.034 6.462C12.0153 6.33028 12.0048 6.19752 12.0025 6.0645C12.0413 4.95663 12.4823 3.9008 13.243 3.0945C13.6677 2.62656 14.1811 2.24771 14.7535 1.98C15.2917 1.70749 15.8785 1.54435 16.48 1.5C16.4953 1.63947 16.5028 1.77969 16.5025 1.92Z" stroke="#374957" stroke-width="0.8"/>
</svg>
