<svg width="25" height="25" viewBox="0 0 25 25" fill="none" xmlns="http://www.w3.org/2000/svg">
<path fill-rule="evenodd" clip-rule="evenodd" d="M21.5401 22.6797H3.459C2.79806 22.6797 2.26367 22.1418 2.26367 21.4843V9.28493C2.26367 8.6275 2.80157 8.0896 3.459 8.0896H21.5401C22.2011 8.0896 22.7355 8.6275 22.7355 9.28493V21.4843C22.7355 22.1418 22.2011 22.6797 21.5401 22.6797ZM3.459 8.67672C3.1215 8.67672 2.85079 8.95094 2.85079 9.28493V21.4843C2.85079 21.8218 3.1215 22.0926 3.459 22.0926H21.5401C21.8776 22.0926 22.1484 21.8183 22.1484 21.4843V9.28493C22.1484 8.94743 21.8776 8.67672 21.5401 8.67672H3.459Z" fill="#374957"/>
<path fill-rule="evenodd" clip-rule="evenodd" d="M14.0267 21.3121H5.08987C4.28478 21.3121 3.63086 20.6582 3.63086 19.8531V10.9163C3.63086 10.1112 4.28478 9.45728 5.08987 9.45728H14.0267C14.8318 9.45728 15.4857 10.1112 15.4857 10.9163V19.8531C15.4857 20.6582 14.8318 21.3121 14.0267 21.3121ZM5.08987 10.0444C4.60822 10.0444 4.21798 10.4346 4.21798 10.9163V19.8531C4.21798 20.3348 4.60822 20.725 5.08987 20.725H14.0267C14.5084 20.725 14.8986 20.3348 14.8986 19.8531V10.9163C14.8986 10.4346 14.5084 10.0444 14.0267 10.0444H5.08987Z" fill="#374957"/>
<path fill-rule="evenodd" clip-rule="evenodd" d="M20.8053 11.8233H16.8291C16.4494 11.8233 16.1436 11.5175 16.1436 11.1378V10.1428C16.1436 9.76666 16.4494 9.45728 16.8291 9.45728H20.8053C21.185 9.45728 21.4944 9.76666 21.4944 10.1428V11.1378C21.4909 11.5175 21.185 11.8233 20.8053 11.8233ZM16.8291 10.0444C16.7729 10.0444 16.7272 10.0901 16.7272 10.1428V11.1378C16.7272 11.194 16.7729 11.2397 16.8291 11.2397H20.8053C20.8616 11.2397 20.9073 11.194 20.9073 11.1378V10.1428C20.9073 10.0901 20.8616 10.0444 20.8053 10.0444H16.8291Z" fill="#374957"/>
<path fill-rule="evenodd" clip-rule="evenodd" d="M20.8053 15.1385H16.8291C16.4494 15.1385 16.1436 14.8326 16.1436 14.453V13.458C16.1436 13.0783 16.4494 12.7725 16.8291 12.7725H20.8053C21.185 12.7725 21.4944 13.0783 21.4944 13.458V14.453C21.4909 14.8326 21.185 15.1385 20.8053 15.1385ZM16.8291 13.3561C16.7729 13.3561 16.7272 13.4018 16.7272 13.458V14.453C16.7272 14.5057 16.7729 14.5549 16.8291 14.5549H20.8053C20.8616 14.5549 20.9073 14.5057 20.9073 14.453V13.458C20.9073 13.4018 20.8616 13.3561 20.8053 13.3561H16.8291Z" fill="#374957"/>
<path fill-rule="evenodd" clip-rule="evenodd" d="M20.176 21.312H17.4619C16.7342 21.312 16.1436 20.7214 16.1436 19.9937V17.4026C16.1436 16.6784 16.7342 16.0842 17.4619 16.0842H20.176C20.9003 16.0842 21.4944 16.6784 21.4944 17.4026V19.9937C21.4909 20.7214 20.9003 21.312 20.176 21.312ZM17.4584 16.6713C17.0576 16.6713 16.7272 16.9983 16.7272 17.4026V19.9937C16.7272 20.398 17.0576 20.7249 17.4584 20.7249H20.176C20.5768 20.7249 20.9073 20.398 20.9073 19.9937V17.4026C20.9073 17.0018 20.5768 16.6713 20.176 16.6713H17.4584Z" fill="#374957"/>
<path fill-rule="evenodd" clip-rule="evenodd" d="M16.7658 8.67681H8.2332C8.04687 8.67681 7.90624 8.50454 7.94491 8.32173C8.31757 6.60256 10.2301 5.35449 12.5012 5.35449C14.7688 5.35449 16.6814 6.60256 17.054 8.32173C17.0927 8.50454 16.9521 8.67681 16.7658 8.67681ZM8.62695 8.08969H16.372C16.1611 7.54828 15.7392 7.0596 15.1556 6.6799C13.6333 5.69551 11.3657 5.69551 9.84338 6.6799C9.25978 7.0596 8.84141 7.54828 8.62695 8.08969Z" fill="#374957"/>
<path fill-rule="evenodd" clip-rule="evenodd" d="M15.3807 6.77113C15.1557 6.77113 15.0115 6.52503 15.124 6.33167L17.5463 2.13746C17.6272 2.00035 17.8065 1.95113 17.9471 2.03199C18.0878 2.11285 18.1335 2.29215 18.0526 2.43278L15.6338 6.62347C15.5776 6.71839 15.4791 6.77113 15.3807 6.77113Z" fill="#374957"/>
<path fill-rule="evenodd" clip-rule="evenodd" d="M9.62211 6.7711C9.52016 6.7711 9.42172 6.71837 9.36547 6.62344L6.94668 2.42924C6.8623 2.28861 6.91152 2.10931 7.05215 2.02845C7.19278 1.94759 7.37208 1.99681 7.45294 2.13744L9.87524 6.33164C9.98774 6.52852 9.8436 6.7711 9.62211 6.7711Z" fill="#374957"/>
<path fill-rule="evenodd" clip-rule="evenodd" d="M18.3307 2.72114C17.5818 2.72114 16.9736 2.10941 16.9736 1.36057C16.9736 0.611728 17.5818 0 18.3307 0C19.083 0 19.6913 0.611728 19.6913 1.36057C19.6913 2.10941 19.083 2.72114 18.3307 2.72114ZM18.3307 0.587119C17.9053 0.587119 17.5572 0.935171 17.5572 1.36057C17.5572 1.78597 17.9053 2.13402 18.3307 2.13402C18.7596 2.13402 19.1041 1.78597 19.1041 1.36057C19.1041 0.935171 18.7596 0.587119 18.3307 0.587119Z" fill="#374957"/>
<path fill-rule="evenodd" clip-rule="evenodd" d="M6.66135 2.72114C5.91251 2.72114 5.30078 2.10941 5.30078 1.36057C5.30078 0.611728 5.91251 0 6.66135 0C7.41019 0 8.02192 0.611728 8.02192 1.36057C8.02192 2.10941 7.41019 2.72114 6.66135 2.72114ZM6.66135 0.587119C6.23595 0.587119 5.8879 0.935171 5.8879 1.36057C5.8879 1.78597 6.23595 2.13402 6.66135 2.13402C7.08675 2.13402 7.4348 1.78597 7.4348 1.36057C7.4348 0.935171 7.08675 0.587119 6.66135 0.587119Z" fill="#374957"/>
<path fill-rule="evenodd" clip-rule="evenodd" d="M4.90412 25H3.74395C3.58223 25 3.45215 24.8699 3.45215 24.7082V22.3843C3.45215 22.2261 3.58223 22.0925 3.74395 22.0925H7.03463C7.28776 22.0925 7.42135 22.3949 7.24908 22.5847L5.11858 24.9051C5.06585 24.9648 4.98498 25 4.90412 25ZM4.03575 24.4129H4.77404L6.36665 22.6796H4.03575V24.4129Z" fill="#374957"/>
<path fill-rule="evenodd" clip-rule="evenodd" d="M21.2556 25H20.0954C20.0145 25 19.9337 24.9648 19.8809 24.9051L17.7504 22.5847C17.5782 22.3984 17.7118 22.0925 17.9649 22.0925H21.2556C21.4173 22.0925 21.5474 22.2261 21.5474 22.3878V24.7082C21.5474 24.8699 21.4173 25 21.2556 25ZM20.2255 24.4129H20.9638V22.6796H18.6329L20.2255 24.4129Z" fill="#374957"/>
<path fill-rule="evenodd" clip-rule="evenodd" d="M9.55827 19.9234C7.05511 19.9234 5.01953 17.8879 5.01953 15.3847C5.01953 12.8815 7.05511 10.8459 9.55827 10.8459C12.0614 10.8459 14.097 12.8815 14.097 15.3847C14.097 17.8879 12.0614 19.9234 9.55827 19.9234ZM9.55827 11.4296C7.37855 11.4296 5.60313 13.205 5.60313 15.3847C5.60313 17.5644 7.37855 19.3398 9.55827 19.3398C11.738 19.3398 13.5134 17.5644 13.5134 15.3847C13.5134 13.205 11.738 11.4296 9.55827 11.4296Z" fill="#374957"/>
<path fill-rule="evenodd" clip-rule="evenodd" d="M8.8172 17.8948C8.27227 17.8948 7.91016 17.4413 7.91016 16.8401V13.8061C7.91016 12.8814 8.884 12.6002 9.60823 13.1592L11.5594 14.6709C12.0481 15.0471 12.0481 15.7045 11.5594 16.0807L9.60823 17.5924C9.34807 17.7928 9.07385 17.8948 8.8172 17.8948ZM8.81017 13.458C8.60626 13.458 8.49376 13.5705 8.49376 13.8061V16.8401C8.49376 17.3464 8.84181 17.4448 9.24963 17.1284L11.2043 15.6166C11.3907 15.476 11.3907 15.2791 11.2043 15.135L9.24963 13.6232C9.11252 13.5178 8.94728 13.458 8.81017 13.458Z" fill="#374957"/>
</svg>
