<svg width="26" height="26" viewBox="0 0 26 26" fill="none" xmlns="http://www.w3.org/2000/svg">
<path d="M13 0.91272C19.7836 0.91272 25 6.63153 25 12.9127C25 19.1939 19.7797 24.9127 13 24.9127C6.21635 24.9127 1 19.1939 1 12.9127C1 6.63153 6.22031 0.91272 13 0.91272ZM8.97098 11.8434C8.65832 15.0513 7.55409 14.7187 6.19657 14.7187L6.73879 9.12658C8.24275 9.12658 9.26386 8.80183 8.97098 11.8434ZM4.18998 20.382H5.64248L5.98681 16.8335C7.61346 16.8335 8.6227 17.0711 9.55673 15.3206C10.5897 13.4196 10.8588 10.0375 10.1227 8.34243C9.73879 7.4553 9.12138 7.01965 8.28233 7.01965H5.48417L4.18998 20.382ZM11.5396 3.46322H12.9842L12.6398 7.01173C13.8865 7.01173 15.0422 6.82955 15.6003 7.85926C16.186 8.93648 15.905 10.3147 15.2718 16.8177H13.8074C14.4169 10.5286 14.5317 10.0058 14.31 9.53055C14.0963 9.07114 13.6095 9.16619 12.434 9.16619L11.69 16.8177H10.2454L11.5396 3.46322ZM20.3219 11.8434C20.0053 15.0989 18.8694 14.7187 17.5475 14.7187L18.0897 9.12658C19.6016 9.12658 20.6148 8.80183 20.3219 11.8434ZM15.5409 20.382H16.9974L17.3417 16.8335C19.0514 16.8335 19.9974 17.0315 20.9116 15.3206C21.9446 13.4196 22.2137 10.0375 21.4776 8.34243C21.0937 7.4553 20.4763 7.01965 19.6372 7.01965H16.839L15.5409 20.382Z" stroke="#374957" stroke-width="0.8"/>
</svg>
