<svg width="24" height="25" viewBox="0 0 24 25" fill="none" xmlns="http://www.w3.org/2000/svg">
<path d="M3.274 22.5H13.5235C12.2018 19.3093 11.6222 15.86 11.8285 12.4125C11.9656 10.667 12.668 9.01379 13.8292 7.70342C14.9904 6.39305 16.5472 5.49697 18.2635 5.151C18.8574 5.06932 19.4621 5.12606 20.0304 5.3168C20.5987 5.50753 21.1152 5.82709 21.5395 6.2505L22 5.55C21.0939 4.64871 20.0167 3.93783 18.8317 3.45919C17.6467 2.98055 16.3779 2.74384 15.1 2.763C13.3325 2.99267 11.6536 3.67211 10.2238 4.73629C8.79402 5.80048 7.66129 7.2138 6.934 8.841C5.38552 11.5248 4.27983 14.4407 3.6595 17.4765C3.26687 19.1202 3.13676 20.8156 3.274 22.5ZM1.231 17.241L3.235 17.4L2.8885 19.4385L1 19.2L1.231 17.241ZM4.3915 12.9225L4.93 11.391L3.1585 10.6845L2.581 12.3345L4.3915 12.9225ZM6.895 7.6635L7.936 6.408L6.586 5.508L5.5075 6.7245L6.895 7.6635ZM9.631 2.796L10.5565 3.9345L11.8285 3.1845L10.9 2.1285L9.631 2.796ZM14.14 1.5L14.371 2.6385L15.9505 2.5995L15.8005 1.5795L14.14 1.5ZM19.495 2.7165L19.45 3.423L20.5285 4.0125L20.7595 3.6585L19.495 2.7165ZM19.264 5.739V6.3285L20.305 6.45V5.9745L19.264 5.739ZM15.9505 6.249L16.45 7.1925L17.1835 6.6L17.0335 5.9715L15.9505 6.249ZM14.371 7.4655L15.142 8.643L14.68 9.468L13.561 8.2125L14.371 7.4655ZM12.829 10.725L12.328 11.745L13.639 12.8835L13.9465 11.5875L12.829 10.725ZM12.2905 14.2965L12.214 15.6705L13.8325 16.377L13.75 15.081L12.2905 14.2965ZM12.7525 19.164L13.138 20.577L15.1795 20.7L14.4475 19.164H12.7525Z" stroke="#374957" stroke-width="0.8"/>
</svg>
