<svg width="26" height="25" viewBox="0 0 26 25" fill="none" xmlns="http://www.w3.org/2000/svg">
<path d="M15.0954 12.438C15.0954 10.5873 13.3167 9.42436 11.9014 10.3497C10.4861 11.275 10.4861 13.6009 11.9014 14.5263C13.3167 15.4516 15.0954 14.2886 15.0954 12.438ZM19.9709 7.99291C21.38 0.404554 18.28 -1.97673 13.01 3.5161C8.04995 -1.72273 4.51781 -0.0717025 6.02085 7.96116C-0.910152 10.3152 -0.450936 14.7466 6.07721 17.01C4.58357 24.4079 7.37358 27.1067 13.01 21.5186C18.4773 27.0432 21.3789 24.4566 19.8864 16.9783C27.007 14.2583 26.3682 10.3213 19.9709 7.99291ZM19.0127 7.70716C17.8957 7.42328 16.8148 7.21664 15.7154 7.1039C15.1362 6.14974 14.4616 5.19663 13.6863 4.30986C17.9116 -0.256155 20.4018 1.17055 19.0127 7.70716ZM8.10631 13.8985C8.52435 14.9039 9.0739 15.8247 9.48723 16.5973C8.81417 16.5197 8.08907 16.402 7.31722 16.248C7.56454 15.4681 7.82786 14.6848 8.10631 13.8985ZM8.04995 11.168C7.74247 10.3364 7.46189 9.53387 7.23267 8.78668C8.02948 8.6006 8.8103 8.43165 9.48723 8.37392C8.98343 9.26557 8.5049 10.1978 8.04995 11.168ZM8.64177 12.565C9.33093 11.01 10.0599 9.53409 10.8681 8.21517C12.3022 8.12225 13.7211 8.13049 15.1236 8.24692C15.9102 9.48177 16.6444 10.9577 17.35 12.565C16.822 13.7943 16.0722 15.211 15.2082 16.7243C13.7655 16.8474 12.2862 16.8303 10.7836 16.7243C10.022 15.4098 9.30682 14.0253 8.64177 12.565ZM17.8855 13.8985C18.1591 14.6466 18.412 15.4092 18.6464 16.1845C17.923 16.3561 17.2095 16.4812 16.5045 16.5655C16.9871 15.7232 17.4448 14.8289 17.8855 13.8985ZM16.5045 8.37392C17.273 8.49243 18.0152 8.64042 18.7309 8.81843C18.4915 9.61999 18.2195 10.4034 17.9136 11.168C17.4774 10.1987 17.0091 9.26578 16.5045 8.37392ZM14.3345 6.9769C13.4568 6.93811 12.5639 6.93935 11.6572 6.9769C12.0542 6.38877 12.4966 5.77441 12.9818 5.13537C13.4547 5.71042 13.9027 6.32938 14.3345 6.9769ZM12.3054 4.30986C11.5302 5.19663 10.8555 6.11799 10.2763 7.07215C9.17699 7.18489 8.06793 7.39153 6.95085 7.67541C5.6263 1.03956 8.08021 -0.256155 12.3054 4.30986ZM6.33085 15.9623C0.459611 13.9726 0.741431 10.8716 6.27449 9.04068C6.61295 10.1978 7.0227 11.373 7.48631 12.5015C7.03583 13.6686 6.63702 14.8672 6.33085 15.9623ZM7.06358 17.2958C8.05935 17.571 9.11459 17.7031 10.22 17.8356C10.8851 18.893 11.5738 19.8762 12.3054 20.7249C8.00298 25.371 5.60451 23.683 7.06358 17.2958ZM12.9818 19.9311C12.472 19.3363 11.9959 18.6623 11.5445 17.9308C12.5508 17.9547 13.5227 17.9573 14.4473 17.9308C13.9995 18.6465 13.5104 19.3126 12.9818 19.9311ZM13.6863 20.7249C14.4713 19.7639 15.1634 18.7898 15.7718 17.8038C16.8103 17.7177 17.8624 17.538 18.9282 17.264C20.4004 24.0625 17.7272 25.0664 13.6863 20.7249ZM19.6327 15.8988C19.3309 14.8037 18.9496 13.6686 18.5055 12.5015C18.9626 11.373 19.3554 10.2296 19.6891 9.07243C25.0906 10.914 25.5228 13.8562 19.6327 15.8988Z" stroke="#374957" stroke-width="0.4"/>
</svg>
