<svg width="24" height="25" viewBox="0 0 24 25" fill="none" xmlns="http://www.w3.org/2000/svg">
<path d="M12.0075 24.515C11.6884 24.5144 11.3752 24.429 11.1 24.2675L8.202 22.5275C7.77 22.283 7.9815 22.1945 8.124 22.145C8.58418 22.0014 9.02422 21.7997 9.4335 21.545C9.46811 21.5288 9.50631 21.5218 9.54442 21.5247C9.58252 21.5276 9.61923 21.5403 9.651 21.5615L11.8755 22.9025C11.9169 22.9251 11.9633 22.9369 12.0105 22.9369C12.0577 22.9369 12.1041 22.9251 12.1455 22.9025L20.8215 17.8205C20.8621 17.7954 20.8955 17.7602 20.9186 17.7185C20.9417 17.6767 20.9537 17.6297 20.9535 17.582V7.412C20.9536 7.36351 20.9415 7.31578 20.9181 7.27328C20.8948 7.23077 20.861 7.1949 20.82 7.169L12.15 2.0915C12.1094 2.06821 12.0633 2.05596 12.0165 2.05596C11.9697 2.05596 11.9236 2.06821 11.883 2.0915L3.207 7.172C3.16536 7.19708 3.13092 7.23249 3.107 7.2748C3.08308 7.31712 3.07051 7.36489 3.0705 7.4135V17.579C3.07036 17.6268 3.08292 17.6738 3.1069 17.7152C3.13088 17.7566 3.16543 17.7909 3.207 17.8145L5.5845 19.208C6.8745 19.862 7.6635 19.091 7.6635 18.317V8.2805C7.6633 8.24728 7.66967 8.21435 7.68225 8.1836C7.69483 8.15286 7.71336 8.1249 7.73678 8.10134C7.7602 8.07778 7.78804 8.05908 7.81872 8.04632C7.84939 8.03357 7.88228 8.027 7.9155 8.027H9.015C9.04809 8.0272 9.08082 8.03391 9.11132 8.04675C9.14182 8.0596 9.16949 8.07833 9.19275 8.10187C9.21601 8.12541 9.23441 8.1533 9.24689 8.18395C9.25937 8.2146 9.2657 8.24741 9.2655 8.2805V18.3155C9.31446 18.6724 9.28329 19.0358 9.17424 19.3792C9.0652 19.7226 8.88102 20.0374 8.6351 20.3007C8.38917 20.564 8.08767 20.7692 7.75252 20.9014C7.41736 21.0336 7.05696 21.0895 6.6975 21.065C5.99177 21.0772 5.29749 20.8856 4.698 20.513L2.4225 19.184C2.14441 19.0182 1.91424 18.7829 1.7546 18.5013C1.59496 18.2196 1.51136 17.9013 1.512 17.5775V7.412C1.51117 7.08841 1.59471 6.7702 1.75438 6.48874C1.91405 6.20729 2.14432 5.97231 2.4225 5.807L11.1 0.718999C11.3789 0.563742 11.6928 0.482254 12.012 0.482254C12.3312 0.482254 12.6451 0.563742 12.924 0.718999L21.6 5.807C21.8783 5.97235 22.1087 6.20729 22.2686 6.48871C22.4285 6.77013 22.5124 7.08832 22.512 7.412V17.576C22.512 17.8998 22.428 18.2181 22.2682 18.4997C22.1083 18.7813 21.8781 19.0166 21.6 19.1825L12.924 24.2675C12.647 24.43 12.3316 24.5155 12.0105 24.515H12.0075ZM14.688 17.5115C10.89 17.5115 10.095 15.7415 10.095 14.258C10.094 14.2241 10.0999 14.1903 10.1123 14.1588C10.1247 14.1272 10.1434 14.0985 10.1672 14.0744C10.1911 14.0502 10.2196 14.0312 10.251 14.0184C10.2824 14.0056 10.3161 13.9994 10.35 14H11.4675C11.528 14.0001 11.5865 14.022 11.6322 14.0616C11.6779 14.1013 11.7079 14.1561 11.7165 14.216C11.886 15.3755 12.39 15.9605 14.6865 15.9605C16.5135 15.9605 17.292 15.5405 17.292 14.5565C17.292 13.988 17.073 13.568 14.2305 13.2845C11.8575 13.046 10.3875 12.5135 10.3875 10.5845C10.3875 8.807 11.8635 7.748 14.337 7.748C17.1165 7.748 18.492 8.7275 18.666 10.829C18.6689 10.8643 18.6645 10.8998 18.6532 10.9333C18.6418 10.9669 18.6237 10.9977 18.6 11.024C18.5767 11.0498 18.5482 11.0705 18.5164 11.0847C18.4847 11.0989 18.4503 11.1063 18.4155 11.1065H17.2905C17.2333 11.106 17.178 11.0859 17.1338 11.0496C17.0896 11.0133 17.0591 10.963 17.0475 10.907C16.7775 9.6875 16.119 9.2975 14.3385 9.2975C12.342 9.2975 12.111 10.0025 12.111 10.532C12.111 11.174 12.3855 11.36 15.0795 11.7215C17.7465 12.0785 19.014 12.5855 19.014 14.4875C19.014 16.3895 17.439 17.5055 14.6895 17.5055L14.688 17.5115Z" stroke="#374957" stroke-width="0.5"/>
</svg>
