<svg width="24" height="25" viewBox="0 0 24 25" fill="none" xmlns="http://www.w3.org/2000/svg">
<path d="M6.23999 12.5C6.23999 13.5604 5.38038 14.42 4.31999 14.42C3.25961 14.42 2.39999 13.5604 2.39999 12.5C2.39999 11.4396 3.25961 10.58 4.31999 10.58C5.38038 10.58 6.23999 11.4396 6.23999 12.5ZM6.23999 12.5H17.76M17.76 12.5C17.76 13.5604 18.6196 14.42 19.68 14.42C20.7404 14.42 21.6 13.5604 21.6 12.5C21.6 11.4396 20.7404 10.58 19.68 10.58C18.6196 10.58 17.76 11.4396 17.76 12.5ZM17.76 4.82C17.76 5.88039 18.6196 6.74 19.68 6.74C20.7404 6.74 21.6 5.88039 21.6 4.82C21.6 3.75961 20.7404 2.9 19.68 2.9C18.6196 2.9 17.76 3.75961 17.76 4.82ZM17.76 4.82H12.24C11.7098 4.82 11.28 5.24981 11.28 5.78V19.22C11.28 19.7502 11.7098 20.18 12.24 20.18H17.76M17.76 20.18C17.76 21.2404 18.6196 22.1 19.68 22.1C20.7404 22.1 21.6 21.2404 21.6 20.18C21.6 19.1196 20.7404 18.26 19.68 18.26C18.6196 18.26 17.76 19.1196 17.76 20.18Z" stroke="#374957" stroke-width="0.8" stroke-linecap="round"/>
</svg>
