<svg width="24" height="25" viewBox="0 0 24 25" fill="none" xmlns="http://www.w3.org/2000/svg">
<path d="M20 17.2692H4.57143C4.18571 17.2692 3.87013 17.02 3.87013 16.7154V4.53077C3.87013 4.22615 4.18571 3.97692 4.57143 3.97692H20C20.3857 3.97692 20.7013 4.22615 20.7013 4.53077V16.7154C20.7013 17.02 20.3857 17.2692 20 17.2692ZM22.5714 21.4231V2.77692C22.5714 2.62462 22.4136 2.5 22.2208 2.5H2.35065C2.15779 2.5 2 2.62462 2 2.77692V21.4231C2 21.5754 2.15779 21.7 2.35065 21.7H22.2208C22.4136 21.7 22.5714 21.5754 22.5714 21.4231ZM12.2857 18.0077C11.2513 18.0077 10.4156 18.6677 10.4156 19.4846C10.4156 20.3015 11.2513 20.9615 12.2857 20.9615C13.3201 20.9615 14.1558 20.3015 14.1558 19.4846C14.1558 18.6677 13.3201 18.0077 12.2857 18.0077Z" stroke="#374957" stroke-width="0.8"/>
</svg>
