<svg width="50" height="50" viewBox="0 0 50 50" fill="none" xmlns="http://www.w3.org/2000/svg">
<path d="M12.3863 41.0679C11.5007 41.6052 10.6765 42.2349 9.93555 42.9439L9.03961 43.8015L12.2515 46.1075C13.8578 47.2607 15.8485 47.8959 17.8564 47.8959C19.8642 47.8959 21.8549 47.2608 23.4614 46.1075L23.901 45.7919V50H26.099V45.7919L26.5387 46.1075C28.145 47.2607 30.1356 47.8959 32.1436 47.8959C34.1514 47.8959 36.1421 47.2608 37.7485 46.1075L40.9604 43.8015L40.0645 42.9439C39.3236 42.2347 38.4993 41.605 37.6137 41.0679C41.6849 40.2887 45.5083 38.5877 48.7657 36.0931L50 35.1479L48.6447 34.3694C45.7311 32.6959 42.4905 31.633 39.1392 31.2376C43.5922 27.7188 46.6105 22.7547 47.5709 17.2386L48.3214 12.9285L40.9998 14.2027C37.7991 14.7597 34.8989 16.2758 32.6926 18.4902C32.6486 12.0493 30.2176 5.81733 25.8363 0.924275L24.9912 0L24.1653 0.922126C19.7824 5.81556 17.3509 12.0478 17.3072 18.4901C15.101 16.2759 12.2006 14.7598 9.00025 14.2028L1.67857 12.9286L2.42911 17.2387C3.38951 22.7548 6.40777 27.7189 10.8608 31.2378C7.50948 31.6332 4.26907 32.6962 1.35527 34.3695L0 35.148L1.2343 36.0933C4.49174 38.5877 8.31509 40.2887 12.3863 41.0679ZM13.8239 33.1676H17.8415L14.5921 31.2235C9.27165 28.0401 5.62857 22.8169 4.59713 16.8927L4.3606 15.5339L8.60709 16.273C12.3026 16.9162 15.5305 19.0535 17.4631 22.1367L19.5046 25.3936V18.6667C19.5046 13.0865 21.4472 7.66816 24.9995 3.27207C28.5512 7.6674 30.4937 13.085 30.4942 18.6643L30.4949 25.393L32.5358 22.1367C34.4682 19.0535 37.6962 16.9162 41.3919 16.273L45.6383 15.5339L45.4017 16.8927C44.3704 22.8169 40.7276 28.0403 35.4068 31.2236L32.1577 33.1677H36.1753C39.6113 33.1677 42.9933 33.9373 46.0517 35.405C42.9051 37.4864 39.2771 38.8154 35.4647 39.2715L28.8477 40.0633L33.7922 41.6411C35.1559 42.0762 36.438 42.7498 37.5579 43.614L36.4292 44.4244C35.2008 45.3064 33.6786 45.792 32.1431 45.792C30.6075 45.792 29.0854 45.3064 27.8569 44.4244L26.0986 43.1619V39.2491L34.058 37.3443L33.5249 35.3032L26.0986 37.0804V34.685L37.8279 24.4779L36.3491 22.9209L26.0985 31.8414V12.1271H23.9005V31.8415L13.6498 22.9209L12.1711 24.4779L23.9003 34.685V37.0804L16.4738 35.3031L15.9407 37.3442L23.9002 39.2491V43.1619L22.1419 44.4244C20.9135 45.3064 19.3913 45.792 17.8558 45.792C16.3202 45.792 14.7981 45.3064 13.5696 44.4244L12.4409 43.6139C13.5608 42.7498 14.8429 42.0762 16.2068 41.6411L21.1511 40.0633L14.5341 39.2715C10.7217 38.8154 7.0936 37.4864 3.94709 35.405C7.00604 33.937 10.388 33.1676 13.8239 33.1676Z" fill="#374957"/>
</svg>
