<svg width="26" height="25" viewBox="0 0 26 25" fill="none" xmlns="http://www.w3.org/2000/svg">
<path d="M6.33333 13.9286C5.59708 13.9286 5 14.5683 5 15.3571C5 16.146 5.59708 16.7857 6.33333 16.7857C7.06958 16.7857 7.66667 16.146 7.66667 15.3571C7.66667 14.5683 7.06958 13.9286 6.33333 13.9286ZM12.7771 9.59464L13.4538 7.42009C13.5021 7.26607 13.5863 7.13661 13.6588 6.99911C13.4617 6.87589 13.2446 6.78571 13 6.78571C12.2637 6.78571 11.6667 7.42545 11.6667 8.21429C11.6667 8.91875 12.1513 9.47723 12.7771 9.59464ZM8.33333 8.92857C7.59708 8.92857 7 9.5683 7 10.3571C7 11.146 7.59708 11.7857 8.33333 11.7857C9.06958 11.7857 9.66667 11.146 9.66667 10.3571C9.66667 9.5683 9.06958 8.92857 8.33333 8.92857ZM13 2.5C6.3725 2.5 1 8.25625 1 15.3571C1 17.7143 1.59375 19.9223 2.6275 21.8214C2.86125 22.2509 3.30667 22.5 3.77083 22.5H22.2292C22.6933 22.5 23.1388 22.2509 23.3725 21.8214C24.4063 19.9223 25 17.7143 25 15.3571C25 8.25625 19.6275 2.5 13 2.5ZM21.8446 20.3571H4.15542C3.39833 18.8228 3 17.1036 3 15.3571C3 9.44911 7.48583 4.64286 13 4.64286C18.5142 4.64286 23 9.44911 23 15.3571C23 17.1036 22.6017 18.8228 21.8446 20.3571ZM18.3333 15.3571C18.3333 16.146 18.9304 16.7857 19.6667 16.7857C20.4029 16.7857 21 16.146 21 15.3571C21 14.5683 20.4029 13.9286 19.6667 13.9286C18.9304 13.9286 18.3333 14.5683 18.3333 15.3571ZM15.9829 7.19777C15.4529 7.00893 14.8929 7.31473 14.7171 7.875L12.8279 13.9469C11.4371 14.0438 10.3333 15.2705 10.3333 16.7857C10.3333 17.3089 10.4742 17.7924 10.7033 18.2143H15.2971C15.5263 17.7924 15.6671 17.3089 15.6671 16.7857C15.6671 15.9174 15.2979 15.1491 14.7275 14.625L16.6167 8.55312C16.7904 7.99196 16.5067 7.38482 15.9829 7.19777ZM19 10.3571C19 9.65179 18.5142 9.09241 17.8867 8.97634C17.8838 8.98571 17.8838 8.99554 17.8808 9.00536L17.0683 11.6165C17.2504 11.7165 17.4479 11.7862 17.6667 11.7862C18.4029 11.7857 19 11.146 19 10.3571Z" stroke="#374957" stroke-width="0.8"/>
</svg>
