<svg width="24" height="25" viewBox="0 0 24 25" fill="none" xmlns="http://www.w3.org/2000/svg">
<path d="M16.1875 2.50703C16.5793 2.85384 17.0218 3.27305 17.4808 3.75913C18.9622 5.32791 20.5935 7.57026 21.2676 10.3032C21.8865 12.8158 21.9447 14.6578 21.8535 15.86C21.8079 16.4614 21.7247 16.9039 21.655 17.1911C21.6201 17.3348 21.5886 17.4397 21.5667 17.5065C21.5558 17.5399 21.5472 17.5637 21.5419 17.5781L21.5364 17.5925L21.5364 17.5928L21.5362 17.5932L21.5361 17.5935L21.5358 17.594L21.5357 17.5944L21.4469 17.809L21.5917 17.993C22.2042 18.7715 22.6892 19.6793 23.0198 20.6707L23.0298 20.7008L23.0444 20.7288C23.3629 21.3411 23.5517 22.0376 23.5919 22.7588C23.608 23.0483 23.6 23.3376 23.5685 23.6227C23.1436 22.9731 22.3634 22.3187 20.9724 22.0925C19.74 21.8902 18.8348 22.4156 17.9098 22.9525C17.7926 23.0206 17.6751 23.0888 17.5566 23.1557C16.4864 23.76 15.1764 24.3844 12.951 24.3203L12.9482 24.3202C10.4477 24.2658 7.99268 23.4981 5.79676 22.0787C4.06531 20.9596 2.53558 19.4613 1.28987 17.6682C3.33842 18.9729 5.92563 20.3878 8.99298 20.105C10.891 19.93 12.0694 19.4983 12.7861 19.088C13.1444 18.8829 13.3854 18.6842 13.5416 18.5282C13.6196 18.4503 13.676 18.3835 13.715 18.3325C13.7345 18.307 13.7496 18.2855 13.7609 18.2686C13.7665 18.2602 13.7712 18.2529 13.775 18.2468L13.78 18.2386L13.782 18.2352L13.7829 18.2337L13.7833 18.233C13.7835 18.2326 13.7837 18.2323 13.4378 18.0315L13.7837 18.2323L13.9446 17.9551L13.7092 17.7377C10.2947 14.5832 7.20257 10.9831 4.49242 7.00926C5.72347 8.0781 7.11101 9.23124 8.36268 10.2534C9.43835 11.1317 10.4175 11.9165 11.1174 12.4727C11.4673 12.7508 11.7476 12.972 11.9355 13.1193C12.0293 13.1928 12.1005 13.2484 12.146 13.2835C12.1682 13.3006 12.1863 13.3145 12.1981 13.3234L12.2092 13.3315L12.2182 13.3378L12.2184 13.3379C12.2208 13.3395 12.2301 13.3459 12.2421 13.3531C12.2502 13.3577 12.275 13.3705 12.2921 13.378C12.3437 13.3955 12.6472 13.3542 12.8152 13.162C12.8454 12.9915 12.7818 12.7917 12.7599 12.761C12.7532 12.7529 12.7437 12.7421 12.7367 12.7344C10.8436 10.5745 9.06633 8.28136 7.4148 5.86806C8.31956 6.71991 9.38921 7.7197 10.4752 8.71846C11.8847 10.0147 13.3251 11.3122 14.4693 12.2827C15.0406 12.7673 15.5438 13.1752 15.935 13.4616C16.1297 13.6041 16.3048 13.7226 16.4513 13.8061C16.5242 13.8477 16.5985 13.8855 16.6704 13.9132C16.732 13.9369 16.8368 13.9715 16.9546 13.9626L17.1996 13.944L17.2938 13.7172C17.4829 13.2621 18.0567 11.875 18.0387 9.6714C18.0236 7.82039 17.5913 5.41108 16.1875 2.50703Z" stroke="#374957" stroke-width="0.8"/>
</svg>
