<svg width="25" height="25" viewBox="0 0 25 25" fill="none" xmlns="http://www.w3.org/2000/svg">
<path d="M21.9971 16.8124C21.8039 16.4899 21.0141 15.5305 18.9607 16.7265L15.4506 18.7709C15.3375 18.8368 15.2231 18.8897 15.1059 18.9299C15.1376 18.8583 15.1643 18.7824 15.1858 18.7023C15.3761 17.9919 14.9552 17.2507 14.2275 17.0147C14.2108 17.0094 14.1937 17.0051 14.1764 17.0019C13.174 16.8211 12.1817 16.4624 11.3844 16.1741C11.1059 16.0734 10.8429 15.9783 10.6185 15.9056C9.68976 15.6043 8.85812 15.9729 8.16706 16.3733L5.62531 17.8459L5.4759 17.5819C5.35685 17.3715 5.16237 17.2199 4.92839 17.155C4.6943 17.0902 4.44968 17.1201 4.23923 17.2392L3.25436 17.7966C3.04391 17.9156 2.8923 18.1101 2.82746 18.344C2.76262 18.578 2.7925 18.8228 2.91164 19.0332L5.8071 24.1493C5.92614 24.3597 6.12062 24.5113 6.35461 24.5762C6.43552 24.5986 6.51769 24.6097 6.59929 24.6097C6.75373 24.6097 6.90607 24.57 7.04382 24.492L8.02868 23.9347C8.46413 23.6882 8.61784 23.1334 8.37145 22.698L8.05373 22.1366L8.55265 21.8485L13.0168 23.0447C13.2718 23.113 13.5255 23.147 13.7751 23.147C14.2801 23.147 14.7681 23.0079 15.2142 22.7333L21.5842 18.8108C22.1998 18.4319 22.3966 17.4794 21.9971 16.8124ZM7.64386 23.2548L6.659 23.8122C6.62013 23.8341 6.58239 23.8285 6.5633 23.8233C6.54426 23.8181 6.50905 23.8034 6.48703 23.7645L3.59157 18.6484C3.55793 18.5889 3.57975 18.5102 3.63928 18.4765L4.62414 17.9191C4.64567 17.9069 4.66691 17.9032 4.68478 17.9032C4.69914 17.9032 4.71135 17.9056 4.71984 17.908C4.73888 17.9132 4.77409 17.9279 4.79611 17.9668L7.69157 23.0828C7.72521 23.1423 7.70339 23.221 7.64386 23.2548ZM21.1746 18.1456L14.8046 22.068C14.3187 22.367 13.7852 22.4418 13.2189 22.29L8.5985 21.052C8.4985 21.0251 8.39181 21.0392 8.30212 21.091L7.66882 21.4566L6.01017 18.5259L8.55876 17.0493C9.12804 16.7195 9.7423 16.4427 10.3775 16.6487C10.5896 16.7175 10.8348 16.8062 11.1188 16.9089C11.9363 17.2044 12.9519 17.5716 14.0089 17.7655C14.3325 17.8815 14.5134 18.1935 14.4312 18.5002C14.3491 18.8066 14.1293 18.951 13.7774 18.9303C13.2073 18.819 12.6934 18.6732 12.1548 18.5205C11.9213 18.4542 11.6798 18.3857 11.4256 18.3177C11.2173 18.262 11.0031 18.3855 10.9472 18.5939C10.8913 18.8023 11.0151 19.0165 11.2234 19.0723C11.4721 19.1389 11.7108 19.2066 11.9416 19.2721C12.4564 19.4181 12.9494 19.5579 13.4955 19.6706C13.5277 19.6841 13.9016 19.7478 14.0207 19.7669C14.6923 19.8743 15.2885 19.7694 15.8437 19.4462L19.3539 17.4017C20.3077 16.8462 21.0637 16.7744 21.3268 17.2139C21.5051 17.5114 21.4268 17.9903 21.1746 18.1456ZM4.81301 18.736C4.84108 18.9282 4.70812 19.1067 4.51598 19.1348C4.3238 19.1629 4.14528 19.0299 4.11721 18.8377C4.08908 18.6456 4.22209 18.467 4.41428 18.439C4.60637 18.4108 4.78493 18.5438 4.81301 18.736ZM7.00734 15.4479H21.6674C21.8831 15.4479 22.058 15.273 22.058 15.0573V5.35967C22.058 5.14395 21.8831 4.96904 21.6674 4.96904H19.1771V2.26338C19.1771 2.04766 19.0022 1.87275 18.7864 1.87275H17.1881V0.78125C17.1881 0.565527 17.0132 0.390625 16.7974 0.390625H11.8774C11.6616 0.390625 11.4867 0.565527 11.4867 0.78125V1.87271H9.88835C9.67263 1.87271 9.49772 2.04761 9.49772 2.26333V4.96899H7.00734C6.79162 4.96899 6.61672 5.1439 6.61672 5.35962V15.0572C6.61672 15.273 6.79162 15.4479 7.00734 15.4479ZM16.1729 14.6666H12.5019V10.8309C12.5019 10.4781 12.7889 10.191 13.1418 10.191H15.533C15.8859 10.191 16.1729 10.4781 16.1729 10.8309V14.6666H16.1729ZM21.2768 5.75029V14.6666H19.1771V5.75029H21.2768ZM12.268 1.17188H16.4068V1.87271H12.268V1.17188ZM18.3958 2.654V14.6667H16.9542V10.831C16.9542 10.0474 16.3166 9.40981 15.5331 9.40981H13.1418C12.3582 9.40981 11.7207 10.0474 11.7207 10.831V14.6667H10.279V2.654H18.3958ZM7.39797 5.75029H9.49772V14.6666H7.39797V5.75029ZM14.9726 8.6856H16.5635C16.7793 8.6856 16.9542 8.51069 16.9542 8.29497V6.70405C16.9542 6.48833 16.7793 6.31343 16.5635 6.31343H14.9726C14.7569 6.31343 14.582 6.48833 14.582 6.70405V8.29497C14.582 8.51074 14.7569 8.6856 14.9726 8.6856ZM15.3633 7.09468H16.1729V7.90435H15.3633V7.09468ZM14.9726 5.75029H16.5635C16.7793 5.75029 16.9542 5.57539 16.9542 5.35967V3.76875C16.9542 3.55303 16.7793 3.37812 16.5635 3.37812H14.9726C14.7569 3.37812 14.582 3.55303 14.582 3.76875V5.35967C14.582 5.57539 14.7569 5.75029 14.9726 5.75029ZM15.3633 4.15937H16.1729V4.96904H15.3633V4.15937ZM12.1112 5.75029H13.7022C13.9179 5.75029 14.0928 5.57539 14.0928 5.35967V3.76875C14.0928 3.55303 13.9179 3.37812 13.7022 3.37812H12.1112C11.8955 3.37812 11.7206 3.55303 11.7206 3.76875V5.35967C11.7206 5.57539 11.8955 5.75029 12.1112 5.75029ZM12.5019 4.15937H13.3115V4.96904H12.5019V4.15937ZM12.1112 8.6856H13.7022C13.9179 8.6856 14.0928 8.51069 14.0928 8.29497V6.70405C14.0928 6.48833 13.9179 6.31343 13.7022 6.31343H12.1112C11.8955 6.31343 11.7206 6.48833 11.7206 6.70405V8.29497C11.7206 8.51074 11.8955 8.6856 12.1112 8.6856ZM12.5019 7.09468H13.3115V7.90435H12.5019V7.09468Z" fill="#374957"/>
</svg>
