<svg width="25" height="25" viewBox="0 0 25 25" fill="none" xmlns="http://www.w3.org/2000/svg">
<g clip-path="url(#clip0_159_84)">
<path d="M0.697118 4.87123L1.15166 4.97351C1.21984 5.22351 1.32212 5.46593 1.45091 5.6932L1.19712 6.08714C1.12515 6.20078 1.1403 6.34472 1.235 6.43942L1.86 7.06442C1.95469 7.15911 2.10242 7.17426 2.21227 7.1023L2.61378 6.85608C2.84106 6.98487 3.08348 7.08714 3.33348 7.15533L3.43575 7.60987C3.46606 7.73866 3.57969 7.83336 3.71227 7.83336H4.59863C4.73121 7.83336 4.84863 7.74245 4.87515 7.60987L4.97742 7.15533C5.22742 7.08714 5.46985 6.98487 5.69712 6.85608L6.09106 7.10987C6.20469 7.18184 6.35242 7.16669 6.44333 7.07199L7.06833 6.44699C7.16303 6.3523 7.17818 6.20457 7.10621 6.09472L6.85242 5.70078C6.98121 5.47351 7.08348 5.23108 7.15166 4.98108L7.60621 4.87881C7.735 4.84851 7.82969 4.73487 7.82969 4.60229V3.71214C7.82969 3.57957 7.73878 3.46214 7.60621 3.43563L7.15166 3.33336C7.08348 3.08336 6.98121 2.84093 6.85242 2.61366L7.10621 2.21972C7.17818 2.10608 7.16303 1.96214 7.06833 1.86745L6.44333 1.24245C6.34863 1.14775 6.20091 1.1326 6.09106 1.20457L5.69712 1.45457C5.46985 1.32578 5.22742 1.22351 4.97742 1.15533L4.87515 0.70078C4.84485 0.571992 4.73121 0.477295 4.59863 0.477295H3.71227C3.57969 0.477295 3.46227 0.568204 3.43575 0.70078L3.33348 1.15154C3.08348 1.21972 2.84106 1.32199 2.61378 1.45078L2.21606 1.20078C2.10621 1.12881 1.95848 1.14396 1.86378 1.23866L1.23878 1.86366C1.14409 1.95836 1.12894 2.10608 1.20091 2.21593L1.45091 2.61366C1.32212 2.84093 1.21984 3.07957 1.15166 3.33336L0.697118 3.43563C0.564542 3.46214 0.473633 3.57578 0.473633 3.71214V4.59851C0.473633 4.7273 0.564542 4.84472 0.697118 4.87123ZM1.04181 3.93942L1.44712 3.84851C1.55697 3.82578 1.64409 3.73866 1.66681 3.62881C1.72742 3.32199 1.84863 3.03033 2.02288 2.76517C2.08348 2.67048 2.08348 2.55305 2.02288 2.45836L1.80318 2.10608L2.10621 1.80305L2.45848 2.02654C2.55318 2.08714 2.67439 2.08714 2.7653 2.02654C3.03045 1.84851 3.32212 1.7273 3.62894 1.66669C3.73878 1.64396 3.82212 1.56063 3.84863 1.45078L3.93954 1.04548H4.36757L4.45848 1.45078C4.48121 1.56063 4.56833 1.64396 4.67818 1.66669C4.985 1.73108 5.27666 1.8523 5.54182 2.02654C5.63651 2.08714 5.75394 2.08714 5.84863 2.02654L6.20091 1.80305L6.50394 2.10608L6.28045 2.45836C6.21985 2.55305 6.21985 2.67426 6.28045 2.76517C6.45469 3.03411 6.57591 3.32199 6.6403 3.62881C6.66303 3.73866 6.74636 3.82578 6.85621 3.84851L7.26151 3.93942V4.36745L6.85621 4.45836C6.74636 4.48108 6.66303 4.5682 6.6403 4.67805C6.57591 4.98487 6.45469 5.27654 6.28045 5.54169C6.21985 5.63639 6.21985 5.75381 6.28045 5.84851L6.50394 6.20078L6.20091 6.50381L5.84863 6.28033C5.75394 6.21972 5.63272 6.21972 5.54182 6.28033C5.27666 6.45457 4.985 6.57578 4.67818 6.64017C4.56833 6.6629 4.485 6.74623 4.45848 6.85608L4.36757 7.26139H3.93954L3.84863 6.85608C3.82591 6.74623 3.73878 6.6629 3.62894 6.64017C3.32212 6.57578 3.03045 6.45457 2.7653 6.28033C2.6706 6.21972 2.55318 6.21972 2.45848 6.28033L2.10621 6.50381L1.80318 6.20078L2.02666 5.84851C2.08727 5.75381 2.08727 5.6326 2.02666 5.54169C1.85242 5.27654 1.73121 4.98487 1.66681 4.67805C1.64409 4.5682 1.56075 4.48108 1.45091 4.45836L1.0456 4.36745V3.93942H1.04181Z" fill="#374957"/>
<path d="M4.15128 5.81061C5.06416 5.81061 5.81037 5.06819 5.81037 4.15152C5.81037 3.23486 5.06795 2.49243 4.15128 2.49243C3.23461 2.49243 2.49219 3.23486 2.49219 4.15152C2.49219 5.06819 3.2384 5.81061 4.15128 5.81061ZM4.15128 3.0644C4.75355 3.0644 5.24219 3.55304 5.24219 4.15531C5.24219 4.75758 4.75355 5.24622 4.15128 5.24622C3.54901 5.24622 3.06037 4.75758 3.06037 4.15531C3.06037 3.55304 3.55279 3.0644 4.15128 3.0644Z" fill="#374957"/>
<path d="M23.485 18.6136H15.3259C15.3297 18.5833 15.3373 18.553 15.3373 18.5189V12.4507C15.3373 12.0871 15.038 11.7878 14.6744 11.7878H7.28045C6.91681 11.7878 6.61757 12.0871 6.61757 12.4507V18.5189C6.61757 18.553 6.62136 18.5833 6.62894 18.6136H1.5153C0.939542 18.6136 0.473633 19.0795 0.473633 19.6553V23.4848C0.473633 24.0606 0.939542 24.5265 1.5153 24.5265H23.485C24.0608 24.5265 24.5267 24.0606 24.5267 23.4848V19.6553C24.5267 19.0795 24.0608 18.6136 23.485 18.6136ZM12.0229 12.356V13.6174L11.1062 13.1628C11.0645 13.1439 11.0229 13.1325 10.9812 13.1325C10.9395 13.1325 10.8941 13.1439 10.8562 13.1628L9.93954 13.6174V12.356H12.0229ZM7.18575 18.5189V12.4507C7.18575 12.3977 7.22742 12.356 7.28045 12.356H9.36378V14.0719C9.36378 14.1704 9.41303 14.2613 9.49636 14.3144C9.57969 14.3674 9.68197 14.3712 9.77288 14.3295L10.9736 13.7348L12.1744 14.3295C12.2161 14.3484 12.2577 14.3598 12.2994 14.3598C12.3524 14.3598 12.4017 14.3447 12.4509 14.3181C12.5342 14.2651 12.5835 14.1742 12.5835 14.0757V12.3598H14.6668C14.7198 12.3598 14.7615 12.4015 14.7615 12.4545V18.5227C14.7615 18.5757 14.7198 18.6174 14.6668 18.6174H7.28045C7.23121 18.6136 7.18575 18.5719 7.18575 18.5189ZM23.9585 23.4848C23.9585 23.7462 23.7464 23.9583 23.485 23.9583H1.5153C1.25394 23.9583 1.04181 23.7462 1.04181 23.4848V19.6553C1.04181 19.3939 1.25394 19.1818 1.5153 19.1818H23.485C23.7464 19.1818 23.9585 19.3939 23.9585 19.6553V23.4848Z" fill="#374957"/>
<path d="M3.43244 20.1289C2.63699 20.1289 1.98926 20.7766 1.98926 21.5721C1.98926 22.3675 2.63699 23.0153 3.43244 23.0153C4.22789 23.0153 4.87562 22.3675 4.87562 21.5721C4.87562 20.7766 4.22411 20.1289 3.43244 20.1289ZM3.43244 22.4433C2.95138 22.4433 2.55744 22.0531 2.55744 21.5683C2.55744 21.0835 2.94759 20.6933 3.43244 20.6933C3.91729 20.6933 4.30744 21.0835 4.30744 21.5683C4.30744 22.0531 3.9135 22.4433 3.43244 22.4433Z" fill="#374957"/>
<path d="M7.96564 20.1289C7.17019 20.1289 6.52246 20.7766 6.52246 21.5721C6.52246 22.3675 7.17019 23.0153 7.96564 23.0153C8.7611 23.0153 9.40882 22.3675 9.40882 21.5721C9.40882 20.7766 8.7611 20.1289 7.96564 20.1289ZM7.96564 22.4433C7.48458 22.4433 7.09064 22.0531 7.09064 21.5683C7.09064 21.0835 7.48079 20.6933 7.96564 20.6933C8.45049 20.6933 8.84064 21.0835 8.84064 21.5683C8.84064 22.0531 8.4467 22.4433 7.96564 22.4433Z" fill="#374957"/>
<path d="M12.4998 20.1289C11.7044 20.1289 11.0566 20.7766 11.0566 21.5721C11.0566 22.3675 11.7044 23.0153 12.4998 23.0153C13.2953 23.0153 13.943 22.3675 13.943 21.5721C13.943 20.7766 13.2953 20.1289 12.4998 20.1289ZM12.4998 22.4433C12.0188 22.4433 11.6248 22.0531 11.6248 21.5683C11.6248 21.0835 12.015 20.6933 12.4998 20.6933C12.9847 20.6933 13.3748 21.0835 13.3748 21.5683C13.3748 22.0531 12.9809 22.4433 12.4998 22.4433Z" fill="#374957"/>
<path d="M17.034 20.1289C16.2385 20.1289 15.5908 20.7766 15.5908 21.5721C15.5908 22.3675 16.2385 23.0153 17.034 23.0153C17.8295 23.0153 18.4772 22.3675 18.4772 21.5721C18.4772 20.7766 17.8295 20.1289 17.034 20.1289ZM17.034 22.4433C16.5529 22.4433 16.159 22.0531 16.159 21.5683C16.159 21.0835 16.5492 20.6933 17.034 20.6933C17.5189 20.6933 17.909 21.0835 17.909 21.5683C17.909 22.0531 17.5151 22.4433 17.034 22.4433Z" fill="#374957"/>
<path d="M21.5682 20.1289C20.7727 20.1289 20.125 20.7766 20.125 21.5721C20.125 22.3675 20.7727 23.0153 21.5682 23.0153C22.3636 23.0153 23.0114 22.3675 23.0114 21.5721C23.0114 20.7766 22.3636 20.1289 21.5682 20.1289ZM21.5682 22.4433C21.0871 22.4433 20.6932 22.0531 20.6932 21.5683C20.6932 21.0835 21.0833 20.6933 21.5682 20.6933C22.053 20.6933 22.4432 21.0835 22.4432 21.5683C22.4432 22.0531 22.0492 22.4433 21.5682 22.4433Z" fill="#374957"/>
<path d="M18.5192 7.39764L14.7768 5.10219C14.6442 5.01886 14.4662 5.06052 14.3866 5.19689C14.3033 5.32946 14.3449 5.5037 14.4813 5.58704L18.4737 8.0378C18.5571 9.14007 19.4813 10.0151 20.6063 10.0151C20.9207 10.0151 21.2162 9.94689 21.4851 9.82567V13.481H19.7275V10.6325C19.7275 10.4772 19.5987 10.3484 19.4434 10.3484C19.2881 10.3484 19.1593 10.4772 19.1593 10.6325V13.481H18.8298C18.1366 13.481 17.5722 14.0454 17.5722 14.7386V17.7651C17.5722 17.9204 17.701 18.0492 17.8563 18.0492C18.0116 18.0492 18.1404 17.9204 18.1404 17.7651V14.7348C18.1404 14.356 18.451 14.0454 18.8298 14.0454H19.4396H19.4434H21.7692H21.773H22.3828C22.7616 14.0454 23.0722 14.356 23.0722 14.7348V17.7613C23.0722 17.9166 23.201 18.0454 23.3563 18.0454C23.5116 18.0454 23.6404 17.9166 23.6404 17.7613V14.7348C23.6404 14.0416 23.076 13.4772 22.3828 13.4772H22.0533V9.44689C22.4775 9.05673 22.7465 8.49613 22.7465 7.87113C22.7465 6.68931 21.7843 5.73098 20.6063 5.73098C19.5874 5.73098 18.7351 6.4431 18.5192 7.39764ZM20.6063 6.29916C21.4737 6.29916 22.1783 7.0037 22.1783 7.87113C22.1783 8.73855 21.4737 9.4431 20.6063 9.4431C19.7389 9.4431 19.0343 8.73855 19.0343 7.87113C19.0343 7.0037 19.7389 6.29916 20.6063 6.29916Z" fill="#374957"/>
<path d="M9.58313 8.34479H6.62858C6.05282 8.34479 5.58691 8.81069 5.58691 9.38645V11.3827C5.58691 11.538 5.7157 11.6668 5.871 11.6668C6.02631 11.6668 6.1551 11.538 6.1551 11.3827V9.38645C6.1551 9.12509 6.36722 8.91297 6.62858 8.91297H9.58691C9.71949 9.56069 10.2915 10.0493 10.9771 10.0493C11.6627 10.0493 12.2384 9.56069 12.3672 8.91297H15.3256C15.5869 8.91297 15.799 9.12509 15.799 9.38645V11.3827C15.799 11.538 15.9278 11.6668 16.0831 11.6668C16.2384 11.6668 16.3672 11.538 16.3672 11.3827V9.38645C16.3672 8.81069 15.9013 8.34479 15.3256 8.34479H12.3672C12.318 8.09479 12.1968 7.8713 12.0339 7.68948L13.0756 5.32585C13.8028 5.1516 14.3559 4.53418 14.4392 3.77282L18.7612 5.68948C18.799 5.70463 18.8369 5.71221 18.8748 5.71221C18.9846 5.71221 19.0869 5.64782 19.1362 5.54176C19.2006 5.39782 19.1362 5.23115 18.9922 5.16676L14.3937 3.13266C14.193 2.35994 13.496 1.78418 12.6589 1.78418C11.6665 1.78418 10.8596 2.591 10.8596 3.58342C10.8596 4.05312 11.0452 4.47736 11.3407 4.79933L10.6324 7.25766C10.1059 7.39024 9.69297 7.81069 9.58313 8.34479ZM10.9771 9.48115C10.5074 9.48115 10.1248 9.09857 10.1248 8.62888C10.1248 8.20085 10.443 7.84857 10.8559 7.78797C10.8937 7.78039 10.9354 7.7766 10.9771 7.7766C11.4468 7.7766 11.8293 8.15918 11.8293 8.62888C11.8293 9.09857 11.4468 9.48115 10.9771 9.48115ZM12.4392 5.35994L11.5642 7.341C11.4581 7.29176 11.3445 7.25766 11.2271 7.23494L11.8218 5.16676C12.0112 5.26524 12.2195 5.33342 12.4392 5.35994ZM12.6551 2.35236C13.2422 2.35236 13.7346 2.76903 13.8559 3.32206C13.8559 3.34857 13.8596 3.37509 13.8672 3.4016C13.8748 3.46221 13.8862 3.52282 13.8862 3.58342C13.8862 4.26145 13.3331 4.81448 12.6551 4.81448C12.3407 4.81448 12.0566 4.69327 11.8369 4.4963C11.8331 4.49251 11.8331 4.49251 11.8293 4.49251C11.5793 4.26524 11.4202 3.94327 11.4202 3.58342C11.424 2.9016 11.9771 2.35236 12.6551 2.35236Z" fill="#374957"/>
</g>
<defs>
<clipPath id="clip0_159_84">
<rect width="25" height="25" fill="white"/>
</clipPath>
</defs>
</svg>
