<svg width="25" height="25" viewBox="0 0 25 25" fill="none" xmlns="http://www.w3.org/2000/svg">
<path d="M24.3781 5.04537L18.8403 2.56431C18.7493 2.51506 18.6357 2.51506 18.541 2.55673L12.988 5.04537C12.8668 5.0984 12.791 5.21582 12.791 5.3484V8.12112C12.791 11.7461 15.0524 15.0416 18.4236 16.3295L18.5637 16.3787C18.6016 16.3939 18.6433 16.4014 18.685 16.4014C18.7304 16.4014 18.7759 16.3901 18.8213 16.3711L18.9501 16.3257C22.3137 15.0416 24.5751 11.7423 24.5751 8.12112V5.3484C24.5751 5.21582 24.4956 5.0984 24.3781 5.04537ZM23.9122 8.12112C23.9122 11.4696 21.8213 14.5189 18.719 15.7045L18.685 15.7158L18.6547 15.7045C15.5448 14.5189 13.4539 11.4696 13.4539 8.12112V5.56052L18.6812 3.21961L23.9084 5.56052V8.12112H23.9122Z" fill="#374957"/>
<path d="M16.4499 7.15526V8.79162C15.9234 9.34465 15.5977 10.0909 15.5977 10.9128C15.5977 12.6136 16.9802 13.9962 18.681 13.9962C20.3817 13.9962 21.7643 12.6136 21.7643 10.9128C21.7643 10.0909 21.4386 9.34465 20.9121 8.79162V7.15526C20.9121 5.9242 19.9121 4.92041 18.6772 4.92041C17.4424 4.92041 16.4499 5.9242 16.4499 7.15526ZM18.681 13.3371C17.3439 13.3371 16.2605 12.25 16.2605 10.9166C16.2605 9.58329 17.3477 8.49238 18.681 8.49238C20.0143 8.49238 21.1014 9.5795 21.1014 10.9166C21.1014 12.2537 20.0181 13.3371 18.681 13.3371ZM18.681 5.58708C19.5484 5.58708 20.253 6.29162 20.253 7.15905V8.2689C19.7908 7.99617 19.2567 7.83329 18.681 7.83329C18.1052 7.83329 17.5711 7.99238 17.109 8.2689V7.15905C17.1128 6.29162 17.8174 5.58708 18.681 5.58708Z" fill="#374957"/>
<path d="M18.6814 9.43555C18.1246 9.43555 17.6738 9.8863 17.6738 10.4431C17.6738 10.8825 17.9579 11.2537 18.3519 11.3901V12.0643C18.3519 12.2462 18.4996 12.3977 18.6852 12.3977C18.8708 12.3977 19.0185 12.2499 19.0185 12.0643V11.3901C19.4125 11.2537 19.6966 10.8825 19.6966 10.4431C19.689 9.8863 19.2382 9.43555 18.6814 9.43555ZM18.6814 10.7878C18.492 10.7878 18.3367 10.6325 18.3367 10.4431C18.3367 10.2537 18.492 10.0984 18.6814 10.0984C18.8708 10.0984 19.0261 10.2537 19.0261 10.4431C19.0261 10.6325 18.8708 10.7878 18.6814 10.7878Z" fill="#374957"/>
<path d="M19.8405 20.7539H18.9087V19.2918C18.9087 19.11 18.7609 18.9585 18.5753 18.9585H18.0488V16.9054C18.0488 16.7236 17.9011 16.5721 17.7155 16.5721C17.5299 16.5721 17.3822 16.7198 17.3822 16.9054V18.9585H15.7193V15.4509C15.7193 15.2691 15.5716 15.1175 15.3859 15.1175C15.2003 15.1175 15.0526 15.2653 15.0526 15.4509V18.9622H14.5261C14.3443 18.9622 14.1928 19.11 14.1928 19.2956V20.7577H12.6511V19.2956C12.6511 19.1138 12.5034 18.9622 12.3178 18.9622H11.7913V12.2236H12.3178C12.4996 12.2236 12.6511 12.0759 12.6511 11.8903V10.0948C12.6511 10.0683 12.6435 10.0418 12.6359 10.0153H12.5109C12.4731 9.87133 12.3519 9.76527 12.1966 9.76527H1.08671V8.32209H11.9882C12.17 8.32209 12.3216 8.17436 12.3216 7.98875C12.3216 7.80315 12.1738 7.65542 11.9882 7.65542H1.87837L10.2988 2.20088L13.3632 4.18572C13.5147 4.28421 13.7231 4.24254 13.8216 4.08724C13.92 3.93194 13.8784 3.72739 13.7231 3.62891L10.4769 1.52663C10.367 1.45466 10.2269 1.45466 10.117 1.52663L0.575343 7.71603C0.56398 7.7236 0.556404 7.73497 0.54504 7.74254C0.533677 7.75391 0.522313 7.76148 0.510949 7.77285C0.49201 7.79557 0.476858 7.8183 0.465495 7.84103C0.461707 7.85239 0.454131 7.85997 0.450343 7.87133C0.435192 7.90921 0.427616 7.94709 0.427616 7.98875V7.99254V10.0986C0.427616 10.2804 0.575343 10.4319 0.760949 10.4319H1.69277V11.8941C1.69277 12.0759 1.84049 12.2274 2.0261 12.2274H2.55262V18.9622H2.02231C1.84049 18.9622 1.68898 19.11 1.68898 19.2956V20.7577H0.757161C0.575343 20.7577 0.423828 20.9054 0.423828 21.091V23.1971C0.423828 23.3789 0.571555 23.5304 0.757161 23.5304H19.8405C20.0223 23.5304 20.1738 23.3827 20.1738 23.1971V21.091C20.1738 20.9016 20.0223 20.7539 19.8405 20.7539ZM14.867 19.6213H18.2458V20.7539H14.867V19.6213ZM6.06398 18.9585H5.53746V12.2236H6.06398C6.2458 12.2236 6.39731 12.0759 6.39731 11.8903V10.4281H7.94655V11.8903C7.94655 12.0721 8.09428 12.2236 8.27989 12.2236H8.8064V18.9585H8.27989C8.09807 18.9585 7.94655 19.1062 7.94655 19.2918V20.7539H6.39731V19.2918C6.39731 19.1062 6.2458 18.9585 6.06398 18.9585ZM11.9882 20.7539H8.60943V19.6213H11.9882V20.7539ZM11.1322 18.9585H9.46928V12.2236H11.1322V18.9585ZM8.60943 11.5607V10.4319H11.9882V11.5607H8.60943ZM2.35186 10.4319H5.73065V11.5607H2.35186V10.4319ZM3.21171 12.2236H4.87459V18.9585H3.21171V12.2236ZM2.35186 19.6213H5.73065V20.7539H2.35186V19.6213ZM19.5109 22.8562H1.09049V21.413H19.5109V22.8562Z" fill="#374957"/>
<path d="M8.74219 5.37908C8.74219 6.23893 9.43916 6.9359 10.299 6.9359C11.1589 6.9359 11.8558 6.23893 11.8558 5.37908C11.8558 4.51924 11.1589 3.82227 10.299 3.82227C9.43916 3.82227 8.74219 4.52302 8.74219 5.37908ZM11.1929 5.37908C11.1929 5.87151 10.7914 6.27302 10.299 6.27302C9.80658 6.27302 9.40507 5.87151 9.40507 5.37908C9.40507 4.88666 9.80658 4.48514 10.299 4.48514C10.7914 4.48514 11.1929 4.88666 11.1929 5.37908Z" fill="#374957"/>
</svg>
