<svg width="85" height="85" viewBox="0 0 85 85" fill="none" xmlns="http://www.w3.org/2000/svg">
<path d="M0 19.5855C0 8.76875 8.76872 0 19.5855 0H65.285C76.1017 0 84.8705 8.76872 84.8705 19.5855V65.285C84.8705 76.1017 76.1017 84.8705 65.285 84.8705H19.5855C8.76875 84.8705 0 76.1017 0 65.285V19.5855Z" fill="#1389FD"/>
<path fill-rule="evenodd" clip-rule="evenodd" d="M29.9688 61.5121H53.9936V62.9647H29.9688V61.5121ZM36.6287 60.132C37.3205 59.5927 37.8972 58.9201 38.3244 58.154C38.7517 57.3879 39.0209 56.5438 39.1161 55.6718H44.8461C44.9414 56.5438 45.2106 57.3879 45.6379 58.154C46.0652 58.9201 46.6418 59.5927 47.3337 60.132H36.6287ZM21.2926 52.2628H62.8487V53.0676C62.8474 53.3918 62.718 53.7024 62.4887 53.9317C62.2594 54.161 61.9489 54.2903 61.6246 54.2917H22.516C22.192 54.2901 21.8817 54.1606 21.6526 53.9314C21.4236 53.7023 21.2942 53.3919 21.2928 53.0679V52.2631L21.2926 52.2628ZM19.7397 21.9057H37.3309C37.6739 21.9071 38.0025 22.044 38.245 22.2865C38.4876 22.529 38.6244 22.8576 38.6258 23.2006V36.8914C38.6244 37.2344 38.4876 37.563 38.245 37.8055C38.0025 38.0481 37.6739 38.185 37.3309 38.1863H32.8559C32.673 38.1863 32.4974 38.259 32.368 38.3884C32.2386 38.5178 32.166 38.6933 32.166 38.8763V40.9577C30.6377 40.0755 29.1104 39.1941 27.5839 38.3136C27.4673 38.2306 27.3276 38.1861 27.1844 38.1863H19.74C19.397 38.185 19.0684 38.0481 18.8259 37.8055C18.5833 37.563 18.4465 37.2344 18.4451 36.8914V23.2006C18.4465 22.8576 18.5833 22.529 18.8259 22.2865C19.0684 22.044 19.397 21.9071 19.74 21.9057H19.7397ZM21.2928 39.5664V50.8831H62.8487V26.035C62.8473 25.7108 62.7178 25.4004 62.4886 25.1712C62.2593 24.942 61.9488 24.8126 61.6246 24.8113H40.0056V36.8914C40.0041 37.6004 39.7218 38.2798 39.2205 38.7812C38.7193 39.2825 38.0398 39.5648 37.3309 39.5664H33.5457L33.5441 42.151C33.5439 42.2718 33.5118 42.3904 33.4513 42.495C33.3907 42.5995 33.3037 42.6863 33.1991 42.7466C33.0944 42.807 32.9757 42.8387 32.8549 42.8387C32.7341 42.8387 32.6154 42.807 32.5107 42.7467C30.6742 41.6864 28.8389 40.6263 27.0049 39.5664H21.2928ZM37.3309 20.526H19.7399C19.031 20.5276 18.3516 20.8098 17.8503 21.3111C17.349 21.8123 17.0666 22.4917 17.065 23.2006V36.8914C17.065 37.2426 17.1344 37.5903 17.2691 37.9145C17.4039 38.2388 17.6014 38.5333 17.8502 38.781C18.4417 39.3725 19.0976 39.5662 19.9121 39.5662V53.0679C19.9137 53.758 20.1885 54.4194 20.6765 54.9074C21.1645 55.3954 21.8259 55.6702 22.516 55.6718H37.726C37.5557 56.9048 36.946 58.0349 36.009 58.8543C35.072 59.6737 33.8708 60.1274 32.626 60.1319H29.4544C29.2249 60.1321 29.0048 60.2234 28.8425 60.3857C28.6802 60.548 28.5889 60.7681 28.5887 60.9976V63.4787C28.5889 63.7082 28.6802 63.9282 28.8425 64.0905C29.0048 64.2528 29.2249 64.344 29.4544 64.3443H54.5079C54.7371 64.3428 54.9564 64.2511 55.1184 64.0891C55.2805 63.9271 55.3722 63.7078 55.3736 63.4787V60.9977C55.3722 60.7685 55.2805 60.5492 55.1184 60.3872C54.9564 60.2252 54.7371 60.1335 54.5079 60.132H51.3363C50.0916 60.1275 48.8903 59.6738 47.9533 58.8544C47.0163 58.035 46.4066 56.9049 46.2363 55.6719H61.6246C62.3147 55.6703 62.9762 55.3955 63.4641 54.9075C63.9521 54.4195 64.227 53.7581 64.2285 53.068V26.035C64.2269 25.3449 63.9521 24.6835 63.4641 24.1955C62.9761 23.7076 62.3147 23.4328 61.6246 23.4312H40.0056C40.0056 22.5869 39.8402 21.9309 39.2205 21.3112C38.9727 21.0624 38.6783 20.8649 38.354 20.7302C38.0297 20.5954 37.682 20.526 37.3309 20.526ZM25.5105 31.5297C25.7409 31.7916 25.9864 32.0493 26.2376 32.3007C26.8054 32.8685 27.3406 33.3527 27.8314 33.7965C28.0834 34.0244 28.3249 34.2429 28.5407 34.4425C28.7363 34.2632 28.9551 34.0669 29.1849 33.8606C29.683 33.4138 30.239 32.9143 30.8209 32.3327C31.0814 32.0722 31.3366 31.8036 31.5757 31.5297H31.0956C30.953 31.5298 30.8139 31.4856 30.6975 31.4034C30.581 31.3212 30.4928 31.205 30.4451 31.0706L30.3227 30.803L29.8166 32.0964C29.7676 32.2205 29.6837 32.3277 29.5751 32.4051C29.4664 32.4825 29.3376 32.5267 29.2044 32.5324C29.0711 32.5381 28.9391 32.505 28.8242 32.4371C28.7094 32.3693 28.6166 32.2696 28.5573 32.1501L27.9707 31.1015L27.8816 31.231C27.8183 31.3227 27.7337 31.3976 27.6351 31.4493C27.5365 31.501 27.4268 31.528 27.3155 31.528L25.5106 31.5301L25.5105 31.5297ZM32.5756 30.1497C33.1554 29.1024 33.2688 28.0508 32.3636 27.1455C31.92 26.704 31.3242 26.4492 30.6985 26.4336C30.0729 26.4179 29.465 26.6425 28.9999 27.0612C28.8733 27.1756 28.7086 27.2389 28.538 27.2386C28.3673 27.2384 28.2029 27.1747 28.0766 27.0599C27.6112 26.642 27.0036 26.418 26.3783 26.4339C25.7531 26.4498 25.1576 26.7045 24.7142 27.1455C23.8028 28.057 23.915 29.1038 24.5002 30.1497H26.956L27.464 29.4139C27.5303 29.3174 27.6201 29.2393 27.725 29.1871C27.8299 29.1349 27.9464 29.1104 28.0634 29.1158C28.1804 29.1212 28.2942 29.1564 28.3938 29.218C28.4934 29.2796 28.5757 29.3656 28.6328 29.4679L29.0641 30.2389L29.6319 28.791C29.6813 28.6655 29.7665 28.5573 29.877 28.4798C29.9874 28.4023 30.1181 28.359 30.253 28.3552C30.3878 28.3514 30.5208 28.3873 30.6354 28.4585C30.75 28.5296 30.8411 28.6329 30.8975 28.7554L31.5355 30.15L32.5756 30.1497ZM35.9472 31.5297C36.1288 31.5276 36.3022 31.4539 36.4298 31.3247C36.5575 31.1956 36.629 31.0213 36.629 30.8397C36.629 30.6581 36.5575 30.4838 36.4298 30.3547C36.3022 30.2255 36.1288 30.1518 35.9472 30.1497H34.1401C34.6957 28.8302 34.6341 27.4646 33.3393 26.1699C32.7158 25.5512 31.8988 25.1655 31.025 25.0772C30.1512 24.9889 29.2736 25.2034 28.539 25.6848C27.8043 25.2037 26.9267 24.9893 26.0529 25.0776C25.1791 25.1659 24.3621 25.5515 23.7385 26.1699C22.4355 27.4729 22.3703 28.833 22.9303 30.1497H21.2806C21.1893 30.1486 21.0987 30.1656 21.014 30.1998C20.9293 30.234 20.8523 30.2846 20.7873 30.3488C20.7224 30.413 20.6708 30.4894 20.6356 30.5737C20.6004 30.658 20.5823 30.7484 20.5823 30.8397C20.5823 30.931 20.6004 31.0214 20.6356 31.1057C20.6708 31.19 20.7224 31.2664 20.7873 31.3306C20.8523 31.3948 20.9293 31.4454 21.014 31.4796C21.0987 31.5138 21.1893 31.5308 21.2806 31.5297H23.735C24.1984 32.1504 24.7089 32.7344 25.2621 33.2765C25.7715 33.7859 26.3652 34.323 26.9095 34.8154C27.3179 35.185 27.6954 35.5264 28.0511 35.882C28.1152 35.9461 28.1912 35.997 28.275 36.0317C28.3587 36.0664 28.4485 36.0843 28.5392 36.0843C28.6298 36.0843 28.7196 36.0664 28.8034 36.0317C28.8871 35.997 28.9632 35.9461 29.0273 35.882C29.3474 35.5619 29.7058 35.2402 30.1018 34.8849C30.6489 34.3939 31.2601 33.8454 31.7971 33.3084C32.3594 32.7575 32.8769 32.1628 33.3447 31.5297H35.9472ZM48.5233 30.7958H44.9591C44.7775 30.7936 44.6041 30.72 44.4765 30.5908C44.3489 30.4616 44.2773 30.2874 44.2773 30.1058C44.2773 29.9242 44.3489 29.7499 44.4765 29.6208C44.6041 29.4916 44.7775 29.4179 44.9591 29.4157H48.5233C48.7049 29.4179 48.8783 29.4916 49.0059 29.6208C49.1335 29.7499 49.2051 29.9242 49.2051 30.1058C49.2051 30.2874 49.1335 30.4616 49.0059 30.5908C48.8783 30.72 48.7049 30.7936 48.5233 30.7958ZM58.5248 30.7958H51.1922C51.1009 30.7969 51.0103 30.7799 50.9256 30.7457C50.8409 30.7115 50.7639 30.6609 50.6989 30.5967C50.634 30.5325 50.5824 30.4561 50.5472 30.3718C50.512 30.2875 50.4939 30.1971 50.4939 30.1058C50.4939 30.0145 50.512 29.924 50.5472 29.8398C50.5824 29.7555 50.634 29.6791 50.6989 29.6149C50.7639 29.5507 50.8409 29.5001 50.9256 29.4659C51.0103 29.4317 51.1009 29.4146 51.1922 29.4157H58.5248C58.6161 29.4146 58.7067 29.4317 58.7914 29.4659C58.8761 29.5001 58.9531 29.5507 59.0181 29.6149C59.0831 29.6791 59.1346 29.7555 59.1698 29.8398C59.205 29.924 59.2232 30.0145 59.2232 30.1058C59.2232 30.1971 59.205 30.2875 59.1698 30.3718C59.1346 30.4561 59.0831 30.5325 59.0181 30.5967C58.9531 30.6609 58.8761 30.7115 58.7914 30.7457C58.7067 30.7799 58.6161 30.7969 58.5248 30.7958ZM58.5248 34.8599H44.9591C44.7775 34.8577 44.6041 34.784 44.4765 34.6549C44.3489 34.5257 44.2773 34.3514 44.2773 34.1698C44.2773 33.9883 44.3489 33.814 44.4765 33.6848C44.6041 33.5556 44.7775 33.482 44.9591 33.4798H58.5248C58.6161 33.4787 58.7067 33.4957 58.7914 33.5299C58.8761 33.5641 58.9531 33.6148 59.0181 33.679C59.0831 33.7431 59.1346 33.8196 59.1698 33.9038C59.205 33.9881 59.2232 34.0785 59.2232 34.1698C59.2232 34.2612 59.205 34.3516 59.1698 34.4358C59.1346 34.5201 59.0831 34.5966 59.0181 34.6607C58.9531 34.7249 58.8761 34.7756 58.7914 34.8098C58.7067 34.8439 58.6161 34.861 58.5248 34.8599ZM58.5248 38.924H44.9591C44.7775 38.9218 44.6041 38.8481 44.4765 38.7189C44.3489 38.5898 44.2773 38.4155 44.2773 38.2339C44.2773 38.0523 44.3489 37.8781 44.4765 37.7489C44.6041 37.6197 44.7775 37.546 44.9591 37.5439H58.5248C58.6161 37.5428 58.7067 37.5598 58.7914 37.594C58.8761 37.6282 58.9531 37.6788 59.0181 37.743C59.0831 37.8072 59.1346 37.8836 59.1698 37.9679C59.205 38.0522 59.2232 38.1426 59.2232 38.2339C59.2232 38.3252 59.205 38.4156 59.1698 38.4999C59.1346 38.5842 59.0831 38.6606 59.0181 38.7248C58.9531 38.789 58.8761 38.8396 58.7914 38.8738C58.7067 38.908 58.6161 38.925 58.5248 38.924ZM53.3397 42.988H36.0002C35.8186 42.9858 35.6452 42.9122 35.5176 42.783C35.39 42.6538 35.3184 42.4796 35.3184 42.298C35.3184 42.1164 35.39 41.9421 35.5176 41.8129C35.6452 41.6838 35.8186 41.6101 36.0002 41.6079H53.3397C53.5213 41.6101 53.6947 41.6838 53.8223 41.8129C53.9499 41.9421 54.0215 42.1164 54.0215 42.298C54.0215 42.4796 53.9499 42.6538 53.8223 42.783C53.6947 42.9122 53.5213 42.9858 53.3397 42.988ZM58.5248 42.988H56.0087C55.9173 42.9891 55.8267 42.9721 55.742 42.9379C55.6573 42.9037 55.5803 42.8531 55.5153 42.7889C55.4504 42.7247 55.3988 42.6482 55.3636 42.564C55.3284 42.4797 55.3103 42.3893 55.3103 42.298C55.3103 42.2066 55.3284 42.1162 55.3636 42.032C55.3988 41.9477 55.4504 41.8713 55.5153 41.8071C55.5803 41.7429 55.6573 41.6922 55.742 41.6581C55.8267 41.6239 55.9173 41.6068 56.0087 41.6079H58.5248C58.6161 41.6068 58.7067 41.6239 58.7914 41.6581C58.8761 41.6922 58.9531 41.7429 59.0181 41.8071C59.0831 41.8713 59.1346 41.9477 59.1698 42.032C59.205 42.1162 59.2232 42.2066 59.2232 42.298C59.2232 42.3893 59.205 42.4797 59.1698 42.564C59.1346 42.6482 59.0831 42.7247 59.0181 42.7889C58.9531 42.8531 58.8761 42.9037 58.7914 42.9379C58.7067 42.9721 58.6161 42.9891 58.5248 42.988ZM39.0675 47.0521H25.6164C25.5251 47.0532 25.4345 47.0361 25.3498 47.0019C25.2651 46.9678 25.1881 46.9171 25.1231 46.8529C25.0582 46.7887 25.0066 46.7123 24.9714 46.628C24.9362 46.5438 24.9181 46.4534 24.9181 46.362C24.9181 46.2707 24.9362 46.1803 24.9714 46.096C25.0066 46.0118 25.0582 45.9353 25.1231 45.8711C25.1881 45.807 25.2651 45.7563 25.3498 45.7221C25.4345 45.6879 25.5251 45.6709 25.6164 45.672H39.0675C39.2491 45.6742 39.4225 45.7478 39.5501 45.877C39.6777 46.0062 39.7493 46.1804 39.7493 46.362C39.7493 46.5436 39.6777 46.7179 39.5501 46.8471C39.4225 46.9762 39.2491 47.0499 39.0675 47.0521ZM58.5248 47.0521H41.7364C41.6451 47.0532 41.5545 47.0361 41.4698 47.0019C41.3851 46.9678 41.3081 46.9171 41.2431 46.8529C41.1781 46.7887 41.1266 46.7123 41.0914 46.628C41.0562 46.5438 41.038 46.4534 41.038 46.362C41.038 46.2707 41.0562 46.1803 41.0914 46.096C41.1266 46.0118 41.1781 45.9353 41.2431 45.8711C41.3081 45.807 41.3851 45.7563 41.4698 45.7221C41.5545 45.6879 41.6451 45.6709 41.7364 45.672H58.5248C58.6161 45.6709 58.7067 45.6879 58.7914 45.7221C58.8761 45.7563 58.9531 45.807 59.0181 45.8711C59.0831 45.9353 59.1346 46.0118 59.1698 46.096C59.205 46.1803 59.2232 46.2707 59.2232 46.362C59.2232 46.4534 59.205 46.5438 59.1698 46.628C59.1346 46.7123 59.0831 46.7887 59.0181 46.8529C58.9531 46.9171 58.8761 46.9678 58.7914 47.0019C58.7067 47.0361 58.6161 47.0532 58.5248 47.0521Z" fill="white"/>
</svg>
