<svg width="85" height="85" viewBox="0 0 85 85" fill="none" xmlns="http://www.w3.org/2000/svg">
<path d="M0 19.5855C0 8.76875 8.76872 0 19.5855 0H65.285C76.1017 0 84.8705 8.76872 84.8705 19.5855V65.285C84.8705 76.1017 76.1017 84.8705 65.285 84.8705H19.5855C8.76875 84.8705 0 76.1017 0 65.285V19.5855Z" fill="#1389FD"/>
<path d="M49.1512 23.5375H36.1402C34.0434 23.5375 32.3418 25.2304 32.3418 27.3187V57.5429C32.3418 59.6312 34.0434 61.3242 36.1402 61.3242H49.1426C51.2395 61.3242 52.941 59.6312 52.941 57.5429V27.3187C52.9496 25.239 51.2395 23.5375 49.1512 23.5375ZM52.1074 57.5515C52.1074 59.1758 50.784 60.4906 49.1512 60.4906H36.1402C34.5074 60.4906 33.184 59.1672 33.184 57.5515V27.3187C33.184 25.6945 34.5074 24.3797 36.1402 24.3797H49.1426C50.7754 24.3797 52.0988 25.7031 52.0988 27.3187V57.5515H52.1074Z" fill="white"/>
<path d="M37.3605 28.2125H47.9223C48.6527 28.2125 49.2457 27.6195 49.2457 26.8891C49.2457 26.1672 48.6527 25.5742 47.9223 25.5742H37.3605C36.6301 25.5742 36.0371 26.1672 36.0371 26.8977C36.0457 27.6195 36.6387 28.2125 37.3605 28.2125ZM37.3605 26.4164H47.9223C48.1887 26.4164 48.3949 26.6312 48.3949 26.8977C48.3949 27.1555 48.1801 27.3703 47.9223 27.3703H37.3605C37.0941 27.3703 36.8879 27.1555 36.8879 26.8891C36.8879 26.6312 37.1027 26.4164 37.3605 26.4164Z" fill="white"/>
<path d="M54.7893 28.2211C54.8925 28.2211 54.9956 28.1867 55.0729 28.1094L58.1151 25.3594H60.8565C61.037 25.9266 61.5698 26.3477 62.1972 26.3477C62.9706 26.3477 63.6065 25.7117 63.6065 24.9383C63.6065 24.1649 62.9792 23.5289 62.1972 23.5289C61.5698 23.5289 61.037 23.95 60.8565 24.5172H57.9518C57.8487 24.5172 57.7456 24.5602 57.6682 24.6289L54.5057 27.4906C54.2222 27.7399 54.4198 28.2383 54.7893 28.2211ZM62.1972 24.3711C62.5065 24.3711 62.7643 24.6289 62.7643 24.9383C62.7643 25.2477 62.5065 25.5055 62.1972 25.5055C61.8878 25.5055 61.63 25.2477 61.63 24.9383C61.63 24.6289 61.8878 24.3711 62.1972 24.3711Z" fill="white"/>
<path d="M54.7889 36.1532H56.9545C57.1865 36.1532 57.3756 35.9641 57.3756 35.7321V31.1172L59.799 29.1149H63.9584C64.1389 29.6821 64.6717 30.1032 65.299 30.1032C66.0725 30.1032 66.7084 29.4672 66.7084 28.6938C66.7084 27.9204 66.0725 27.2844 65.299 27.2844C64.6717 27.2844 64.1389 27.7055 63.9584 28.2727H59.6443C59.5498 28.2727 59.4467 28.3071 59.3779 28.3672L56.6881 30.593C56.5936 30.6704 56.5334 30.7907 56.5334 30.9196V35.311H54.7889C54.2475 35.311 54.2475 36.1618 54.7889 36.1532ZM65.299 28.1352C65.6084 28.1352 65.8662 28.393 65.8662 28.7024C65.8662 29.0118 65.6084 29.2696 65.299 29.2696C64.9896 29.2696 64.7318 29.0118 64.7318 28.7024C64.7318 28.393 64.9896 28.1352 65.299 28.1352Z" fill="white"/>
<path d="M54.7898 40.5875H59.3444C59.5765 40.5875 59.7655 40.3984 59.7655 40.1664V33.6609H62.3437C62.5327 34.2195 63.0569 34.6234 63.6757 34.6234C64.4491 34.6234 65.0851 33.9875 65.0851 33.2141C65.0851 32.4406 64.4491 31.8047 63.6757 31.8047C63.0312 31.8047 62.4983 32.2344 62.3265 32.8273H59.3444C59.1124 32.8273 58.9233 33.0164 58.9233 33.2484V39.7539H54.7983C54.2483 39.7367 54.2483 40.5961 54.7898 40.5875ZM63.6757 32.6383C63.9851 32.6383 64.2429 32.8961 64.2429 33.2055C64.2429 33.5148 63.9851 33.7727 63.6757 33.7727C63.3663 33.7727 63.1085 33.5148 63.1085 33.2055C63.1085 32.8961 63.3663 32.6383 63.6757 32.6383Z" fill="white"/>
<path d="M54.7899 45.125H58.9149V51.6305C58.9149 51.8625 59.104 52.0515 59.336 52.0515H62.3181C62.4899 52.6359 63.0228 53.0742 63.6673 53.0742C64.4407 53.0742 65.0767 52.4383 65.0767 51.6648C65.0767 50.8914 64.4407 50.2555 63.6673 50.2555C63.0485 50.2555 62.5243 50.6594 62.3353 51.218H59.7571V44.7125C59.7571 44.4805 59.5681 44.2914 59.336 44.2914H54.7814C54.2485 44.2742 54.2485 45.1336 54.7899 45.125ZM63.6759 51.089C63.9853 51.089 64.2431 51.3469 64.2431 51.6562C64.2431 51.9656 63.9853 52.2234 63.6759 52.2234C63.3665 52.2234 63.1087 51.9656 63.1087 51.6562C63.1087 51.3469 63.3665 51.089 63.6759 51.089Z" fill="white"/>
<path d="M65.2996 54.7586C64.6723 54.7586 64.1395 55.1797 63.959 55.7469H59.7996L57.3762 53.7446V49.1383C57.3762 48.9063 57.1871 48.7172 56.9551 48.7172H54.7895C54.2395 48.7086 54.2395 49.568 54.7895 49.5594H56.534V53.9508C56.534 54.0797 56.5941 54.1914 56.6887 54.2774L59.3785 56.5032C59.4559 56.5633 59.5504 56.5977 59.6449 56.5977H63.959C64.1395 57.1649 64.6723 57.586 65.2996 57.586C66.073 57.586 66.709 56.95 66.709 56.1766C66.709 55.4032 66.073 54.7586 65.2996 54.7586ZM65.2996 56.7352C64.9902 56.7352 64.7324 56.4774 64.7324 56.168C64.7324 55.8586 64.9902 55.6008 65.2996 55.6008C65.609 55.6008 65.8668 55.8586 65.8668 56.168C65.8668 56.4774 65.609 56.7352 65.2996 56.7352Z" fill="white"/>
<path d="M62.1978 58.5226C61.5704 58.5226 61.0376 58.9437 60.8572 59.5109H58.1157L55.0736 56.7523C54.6782 56.3828 54.0939 57.0101 54.5064 57.3711L57.6689 60.2328C57.7462 60.3015 57.8493 60.3445 57.9525 60.3445H60.8572C61.0376 60.9203 61.5704 61.3414 62.1978 61.3414C62.9712 61.3414 63.6072 60.7054 63.6072 59.932C63.6072 59.15 62.9798 58.5226 62.1978 58.5226ZM62.1978 60.4992C61.8884 60.4992 61.6306 60.2414 61.6306 59.932C61.6306 59.6226 61.8884 59.3648 62.1978 59.3648C62.5072 59.3648 62.765 59.6226 62.765 59.932C62.765 60.2414 62.5072 60.4992 62.1978 60.4992Z" fill="white"/>
<path d="M54.7889 42.8649H61.2857C61.4662 43.4321 61.999 43.8532 62.6264 43.8532C63.3998 43.8532 64.0357 43.2172 64.0357 42.4438C64.0357 41.6704 63.3998 41.0344 62.6264 41.0344C61.999 41.0344 61.4662 41.4555 61.2857 42.0227H54.7889C54.2475 42.0227 54.2475 42.8735 54.7889 42.8649ZM62.6264 41.8766C62.9357 41.8766 63.1936 42.1344 63.1936 42.4438C63.1936 42.7618 62.9357 43.011 62.6264 43.011C62.317 43.011 62.0592 42.7532 62.0592 42.4438C62.0592 42.1344 62.317 41.8766 62.6264 41.8766Z" fill="white"/>
<path d="M30.5035 35.3195H28.759V30.9281C28.759 30.7992 28.6988 30.6875 28.6043 30.6016L25.9145 28.3758C25.8371 28.3156 25.7426 28.2812 25.648 28.2812H21.334C21.1535 27.7141 20.6207 27.293 19.9934 27.293C19.2199 27.293 18.584 27.9289 18.584 28.7023C18.584 29.4758 19.2199 30.1117 19.9934 30.1117C20.6207 30.1117 21.1535 29.6906 21.334 29.1234H25.4934L27.9168 31.1258V35.7406C27.9168 35.9727 28.1059 36.1617 28.3379 36.1617H30.5035C31.0449 36.1617 31.0449 35.3109 30.5035 35.3195ZM19.9934 29.2695C19.684 29.2695 19.4262 29.0117 19.4262 28.7023C19.4262 28.393 19.684 28.1352 19.9934 28.1352C20.3027 28.1352 20.5605 28.393 20.5605 28.7023C20.5605 29.0117 20.3027 29.2695 19.9934 29.2695Z" fill="white"/>
<path d="M30.5043 39.7454H26.3793V33.2399C26.3793 33.0079 26.1902 32.8188 25.9582 32.8188H22.9676C22.7957 32.2344 22.2629 31.7961 21.6184 31.7961C20.8449 31.7961 20.209 32.4321 20.209 33.2055C20.209 33.979 20.8449 34.6149 21.6184 34.6149C22.2371 34.6149 22.7613 34.211 22.9504 33.6524H25.5285V40.1579C25.5285 40.3899 25.7176 40.579 25.9496 40.579H30.5043C31.0457 40.5961 31.0457 39.7368 30.5043 39.7454ZM21.6184 33.7813C21.309 33.7813 21.0512 33.5235 21.0512 33.2141C21.0512 32.9047 21.309 32.6469 21.6184 32.6469C21.9277 32.6469 22.1855 32.9047 22.1855 33.2141C22.1855 33.5235 21.9277 33.7813 21.6184 33.7813Z" fill="white"/>
<path d="M23.0949 26.3477C23.7223 26.3477 24.2551 25.9266 24.4355 25.3594H27.177L30.2191 28.118C30.6145 28.4875 31.1988 27.8602 30.7863 27.4992L27.6238 24.6375C27.5465 24.5688 27.4434 24.5258 27.3402 24.5258H24.4355C24.2551 23.95 23.7223 23.5289 23.0949 23.5289C22.3215 23.5289 21.6855 24.1649 21.6855 24.9383C21.6855 25.7117 22.3129 26.3477 23.0949 26.3477ZM23.0949 24.3711C23.4043 24.3711 23.6621 24.6289 23.6621 24.9383C23.6621 25.2477 23.4043 25.5055 23.0949 25.5055C22.7855 25.5055 22.5277 25.2477 22.5277 24.9383C22.5277 24.6289 22.7855 24.3711 23.0949 24.3711Z" fill="white"/>
<path d="M30.2105 56.7524L27.177 59.511H24.4355C24.2551 58.9438 23.7223 58.5227 23.0949 58.5227C22.3215 58.5227 21.6855 59.1587 21.6855 59.9321C21.6855 60.7055 22.3215 61.3415 23.0949 61.3415C23.7223 61.3415 24.2551 60.9204 24.4355 60.3532H27.3402C27.4434 60.3532 27.5465 60.3102 27.6238 60.2415L30.7863 57.3797C31.1902 57.0188 30.6145 56.3829 30.2105 56.7524ZM23.0949 60.4993C22.7855 60.4993 22.5277 60.2415 22.5277 59.9321C22.5277 59.6227 22.7855 59.3649 23.0949 59.3649C23.4043 59.3649 23.6621 59.6227 23.6621 59.9321C23.6621 60.2415 23.4043 60.4993 23.0949 60.4993Z" fill="white"/>
<path d="M30.5035 48.7172H28.3379C28.1059 48.7172 27.9168 48.9063 27.9168 49.1383V53.7532L25.4934 55.7555H21.334C21.1535 55.1883 20.6207 54.7672 19.9934 54.7672C19.2199 54.7672 18.584 55.4032 18.584 56.1766C18.584 56.95 19.2199 57.586 19.9934 57.586C20.6207 57.586 21.1535 57.1649 21.334 56.5977H25.648C25.7426 56.5977 25.8457 56.5633 25.9145 56.5032L28.6043 54.2774C28.6988 54.2 28.759 54.0797 28.759 53.9508V49.5594H30.5035C31.0449 49.5594 31.0449 48.7086 30.5035 48.7172ZM19.9934 56.7352C19.684 56.7352 19.4262 56.4774 19.4262 56.168C19.4262 55.8586 19.684 55.6008 19.9934 55.6008C20.3027 55.6008 20.5605 55.8586 20.5605 56.168C20.5605 56.4774 20.3027 56.7352 19.9934 56.7352Z" fill="white"/>
<path d="M30.5043 44.2828H25.9496C25.7176 44.2828 25.5285 44.4718 25.5285 44.7039V51.2093H22.9504C22.7613 50.6507 22.2371 50.2468 21.6184 50.2468C20.8449 50.2468 20.209 50.8828 20.209 51.6562C20.209 52.4297 20.8449 53.0656 21.6184 53.0656C22.2629 53.0656 22.7957 52.6359 22.9676 52.0429H25.9496C26.1816 52.0429 26.3707 51.8539 26.3707 51.6218V45.1164H30.4957C31.0457 45.1336 31.0457 44.2742 30.5043 44.2828ZM21.6184 52.232C21.309 52.232 21.0512 51.9742 21.0512 51.6648C21.0512 51.3554 21.309 51.0976 21.6184 51.0976C21.9277 51.0976 22.1855 51.3554 22.1855 51.6648C22.1855 51.9742 21.9277 52.232 21.6184 52.232Z" fill="white"/>
<path d="M30.5027 42.0313H24.0059C23.8254 41.4641 23.2926 41.043 22.6652 41.043C21.8918 41.043 21.2559 41.6789 21.2559 42.4523C21.2559 43.2258 21.8918 43.8617 22.6652 43.8617C23.2926 43.8617 23.8254 43.4406 24.0059 42.8734H30.5027C31.0441 42.8734 31.0441 42.0227 30.5027 42.0313ZM22.6652 43.0195C22.3559 43.0195 22.098 42.7617 22.098 42.4523C22.098 42.1344 22.3559 41.8852 22.6652 41.8852C22.9746 41.8852 23.2324 42.143 23.2324 42.4523C23.2324 42.7617 22.9746 43.0195 22.6652 43.0195Z" fill="white"/>
<path d="M47.5109 35.2165C45.5086 34.7524 43.5148 35.629 42.6727 37.3477H42.6297C41.7875 35.629 39.7937 34.7524 37.7914 35.2165C36.2445 35.5774 34.5859 36.8579 34.5859 39.393C34.6289 43.7329 36.9062 46.7235 42.4578 49.7313C42.5867 49.8001 42.7328 49.8001 42.8617 49.7313C48.4133 46.7235 50.6906 43.7243 50.7336 39.3844C50.7164 36.8579 49.0578 35.5774 47.5109 35.2165ZM42.6469 48.8805C37.5508 46.079 35.4539 43.3118 35.4195 39.3844C35.4195 37.6571 36.3734 36.4024 37.9719 36.0329C39.4328 35.7235 41.0742 36.1618 41.8648 37.7172C42.1656 38.3188 43.1281 38.3188 43.4289 37.7172C44.2109 36.1274 45.9898 35.7235 47.3219 36.0329C48.9203 36.4024 49.8742 37.6571 49.8742 39.3758C49.8398 43.3204 47.743 46.079 42.6469 48.8805Z" fill="white"/>
<path d="M45.7145 40.7422H44.348V39.3758C44.348 39.1438 44.159 38.9547 43.927 38.9547H41.3746C41.1426 38.9547 40.9535 39.1438 40.9535 39.3758V40.7422H39.5871C39.3551 40.7422 39.166 40.9313 39.166 41.1633V43.7157C39.166 43.9477 39.3551 44.1367 39.5871 44.1367H40.9535V45.5031C40.9535 45.7352 41.1426 45.9242 41.3746 45.9242H43.927C44.159 45.9242 44.348 45.7352 44.348 45.5031V44.1367H45.7145C45.9465 44.1367 46.1355 43.9477 46.1355 43.7157V41.1633C46.1355 40.9313 45.9465 40.7422 45.7145 40.7422ZM45.2934 43.3031H43.927C43.6949 43.3031 43.5059 43.4922 43.5059 43.7242V45.0906H41.7871V43.7242C41.7871 43.4922 41.598 43.3031 41.366 43.3031H39.9996V41.5844H41.366C41.598 41.5844 41.7871 41.3953 41.7871 41.1633V39.7969H43.5059V41.1633C43.5059 41.3953 43.6949 41.5844 43.927 41.5844H45.2934V43.3031Z" fill="white"/>
<path d="M50.2941 47.0844C50.0621 47.0844 49.873 47.2734 49.873 47.5054V51.0633H45.559C45.009 51.0547 45.009 51.914 45.559 51.9054H50.2941C50.5262 51.9054 50.7152 51.7164 50.7152 51.4843V47.5054C50.7152 47.2734 50.5262 47.0844 50.2941 47.0844Z" fill="white"/>
<path d="M50.2949 31.7961H46.1098C45.5598 31.7875 45.5598 32.6469 46.1098 32.6383H49.8738V35.1047C49.8652 35.6461 50.7246 35.6461 50.716 35.1047V32.2172C50.716 31.9851 50.527 31.7961 50.2949 31.7961Z" fill="white"/>
<path d="M39.7423 51.0634H35.4282V47.5055C35.4368 46.9641 34.5774 46.9641 34.586 47.5055V51.4844C34.586 51.7165 34.7751 51.9055 35.0071 51.9055H39.7423C40.2923 51.9141 40.2923 51.0548 39.7423 51.0634Z" fill="white"/>
<path d="M35.007 35.5344C35.2391 35.5344 35.4281 35.3453 35.4281 35.1133V32.6383H39.1922C39.7422 32.6469 39.7422 31.7875 39.1922 31.7961H35.007C34.775 31.7961 34.5859 31.9851 34.5859 32.2172V35.1047C34.5859 35.3453 34.775 35.5344 35.007 35.5344Z" fill="white"/>
</svg>
