<svg width="85" height="85" viewBox="0 0 85 85" fill="none" xmlns="http://www.w3.org/2000/svg">
<path d="M0 19.5855C0 8.76875 8.76872 0 19.5855 0H65.285C76.1017 0 84.8705 8.76872 84.8705 19.5855V65.285C84.8705 76.1017 76.1017 84.8705 65.285 84.8705H19.5855C8.76875 84.8705 0 76.1017 0 65.285V19.5855Z" fill="#1389FD"/>
<path d="M37.2871 42.0134H47.0071V42.8572H37.2871V42.0134Z" fill="white"/>
<path d="M57.334 42.0134H53.1152V42.8572H57.334C58.0318 42.8572 58.5996 43.425 58.5996 44.1228V47.0759H55.6465V47.9197H58.5996V64.3728C58.5996 65.0706 58.0318 65.6384 57.334 65.6384H26.959C26.2612 65.6384 25.6934 65.0706 25.6934 64.3728V47.9197H28.6465V47.0759H25.6934V44.1228C25.6934 43.425 26.2612 42.8572 26.959 42.8572H31.1777V42.0134H26.959C25.7955 42.0134 24.8496 42.9593 24.8496 44.1228V64.3728C24.8496 65.5363 25.7955 66.4822 26.959 66.4822H57.334C58.4975 66.4822 59.4434 65.5363 59.4434 64.3728V44.1228C59.4434 42.9593 58.4975 42.0134 57.334 42.0134Z" fill="white"/>
<path d="M33.4086 42.1358L36.193 39.3598L35.5965 38.7616L32.8036 41.5477C32.5708 41.7923 32.4434 42.1079 32.4434 42.4353V43.9338C30.9735 44.4578 29.9121 45.8499 29.9121 47.4978C29.9121 49.5911 31.6156 51.2947 33.709 51.2947C35.8023 51.2947 37.5059 49.5911 37.5059 47.4978C37.5059 45.8499 36.4444 44.4586 34.9746 43.9338V42.9559L38.58 39.3581L37.9834 38.7616L34.254 42.4825C34.1756 42.5618 34.1309 42.669 34.1309 42.7812V43.7431C33.9908 43.7279 33.8533 43.7009 33.709 43.7009C33.5647 43.7009 33.4272 43.7279 33.2871 43.7439V42.4353C33.2871 42.3239 33.3335 42.2142 33.4086 42.1358ZM36.6621 47.4978C36.6621 49.1262 35.3374 50.4509 33.709 50.4509C32.0805 50.4509 30.7559 49.1262 30.7559 47.4978C30.7559 45.8693 32.0805 44.5447 33.709 44.5447C35.3374 44.5447 36.6621 45.8693 36.6621 47.4978Z" fill="white"/>
<path d="M33.709 49.6072C34.8725 49.6072 35.8184 48.6613 35.8184 47.4978C35.8184 46.3343 34.8725 45.3884 33.709 45.3884C32.5455 45.3884 31.5996 46.3343 31.5996 47.4978C31.5996 48.6613 32.5455 49.6072 33.709 49.6072ZM33.709 46.2322C34.4068 46.2322 34.9746 46.8 34.9746 47.4978C34.9746 48.1956 34.4068 48.7634 33.709 48.7634C33.0112 48.7634 32.4434 48.1956 32.4434 47.4978C32.4434 46.8 33.0112 46.2322 33.709 46.2322Z" fill="white"/>
<path d="M54.3807 47.4978C54.3807 45.8499 53.3193 44.4586 51.8495 43.9338V42.4353C51.8495 42.1079 51.7221 41.7923 51.4799 41.5375L48.6964 38.7616L48.0999 39.3598L50.8758 42.1256C50.9593 42.2142 51.0057 42.3239 51.0057 42.4353V43.7439C50.8657 43.7279 50.7281 43.7009 50.5839 43.7009C50.4396 43.7009 50.302 43.7279 50.162 43.7439V42.7821C50.162 42.6698 50.1173 42.5627 50.0388 42.4834L46.3094 38.7624L45.7129 39.359L49.3182 42.9567V43.9346C47.8484 44.4586 46.787 45.8508 46.787 47.4986C46.787 49.592 48.4905 51.2955 50.5839 51.2955C52.6772 51.2955 54.3807 49.5911 54.3807 47.4978ZM47.6307 47.4978C47.6307 45.8693 48.9554 44.5447 50.5839 44.5447C52.2123 44.5447 53.537 45.8693 53.537 47.4978C53.537 49.1262 52.2123 50.4509 50.5839 50.4509C48.9554 50.4509 47.6307 49.1262 47.6307 47.4978Z" fill="white"/>
<path d="M52.6934 47.4978C52.6934 46.3343 51.7475 45.3884 50.584 45.3884C49.4205 45.3884 48.4746 46.3343 48.4746 47.4978C48.4746 48.6613 49.4205 49.6072 50.584 49.6072C51.7475 49.6072 52.6934 48.6613 52.6934 47.4978ZM49.3184 47.4978C49.3184 46.8 49.8862 46.2322 50.584 46.2322C51.2818 46.2322 51.8496 46.8 51.8496 47.4978C51.8496 48.1956 51.2818 48.7634 50.584 48.7634C49.8862 48.7634 49.3184 48.1956 49.3184 47.4978Z" fill="white"/>
<path d="M41.3027 63.1072H42.9902C43.688 63.1072 44.2559 62.5393 44.2559 61.8416V58.0447H48.0527C48.7505 58.0447 49.3184 57.4768 49.3184 56.7791V55.0916C49.3184 54.3938 48.7505 53.8259 48.0527 53.8259H44.2559V50.0291C44.2559 49.3313 43.688 48.7634 42.9902 48.7634H41.3027C40.605 48.7634 40.0371 49.3313 40.0371 50.0291V53.8259H36.2402C35.5425 53.8259 34.9746 54.3938 34.9746 55.0916V56.7791C34.9746 57.4768 35.5425 58.0447 36.2402 58.0447H40.0371V61.8416C40.0371 62.5393 40.605 63.1072 41.3027 63.1072ZM36.2402 57.2009C36.0082 57.2009 35.8184 57.0111 35.8184 56.7791V55.0916C35.8184 54.8595 36.0082 54.6697 36.2402 54.6697H40.459C40.6919 54.6697 40.8809 54.4807 40.8809 54.2478V50.0291C40.8809 49.797 41.0707 49.6072 41.3027 49.6072H42.9902C43.2223 49.6072 43.4121 49.797 43.4121 50.0291V54.2478C43.4121 54.4807 43.6011 54.6697 43.834 54.6697H48.0527C48.2848 54.6697 48.4746 54.8595 48.4746 55.0916V56.7791C48.4746 57.0111 48.2848 57.2009 48.0527 57.2009H43.834C43.6011 57.2009 43.4121 57.3899 43.4121 57.6228V61.8416C43.4121 62.0736 43.2223 62.2634 42.9902 62.2634H41.3027C41.0707 62.2634 40.8809 62.0736 40.8809 61.8416V57.6228C40.8809 57.3899 40.6919 57.2009 40.459 57.2009H36.2402Z" fill="white"/>
<path d="M33.2871 35.6853C33.2871 36.8488 34.233 37.7947 35.3965 37.7947H41.7246V39.0603H42.5684V37.7947H48.8965C50.06 37.7947 51.0059 36.8488 51.0059 35.6853V33.5759H52.2715V32.7322H51.0059V29.3572H52.2715V28.5134H51.0059V25.1384H52.2715V24.2947H51.0059V22.1853C51.0059 21.0218 50.06 20.0759 48.8965 20.0759H46.7871V18.8103H45.9434V20.0759H42.5684V18.8103H41.7246V20.0759H38.3496V18.8103H37.5059V20.0759H35.3965C34.233 20.0759 33.2871 21.0218 33.2871 22.1853V24.2947H32.0215V25.1384H33.2871V28.5134H32.0215V29.3572H33.2871V32.7322H32.0215V33.5759H33.2871V35.6853ZM34.1309 22.1853C34.1309 21.4875 34.6987 20.9197 35.3965 20.9197H48.8965C49.5943 20.9197 50.1621 21.4875 50.1621 22.1853V35.6853C50.1621 36.3831 49.5943 36.9509 48.8965 36.9509H35.3965C34.6987 36.9509 34.1309 36.3831 34.1309 35.6853V22.1853Z" fill="white"/>
<path d="M35.3965 36.1072H48.8965C49.1294 36.1072 49.3184 35.9182 49.3184 35.6853V22.1853C49.3184 21.9524 49.1294 21.7634 48.8965 21.7634H35.3965C35.1636 21.7634 34.9746 21.9524 34.9746 22.1853V35.6853C34.9746 35.9182 35.1636 36.1072 35.3965 36.1072ZM35.8184 22.6072H48.4746V35.2634H35.8184V22.6072Z" fill="white"/>
<path d="M40.459 24.2947C38.8305 24.2947 37.5059 25.6194 37.5059 27.2478V32.3103C37.5059 33.0081 38.0737 33.5759 38.7715 33.5759C39.4693 33.5759 40.0371 33.0081 40.0371 32.3103V30.2009H40.8809V32.3103C40.8809 33.0081 41.4487 33.5759 42.1465 33.5759C42.8443 33.5759 43.4121 33.0081 43.4121 32.3103V27.2478C43.4121 25.6194 42.0874 24.2947 40.459 24.2947ZM42.5684 32.3103C42.5684 32.5423 42.3785 32.7322 42.1465 32.7322C41.9145 32.7322 41.7246 32.5423 41.7246 32.3103V29.7791C41.7246 29.5462 41.5356 29.3572 41.3027 29.3572H39.6152C39.3824 29.3572 39.1934 29.5462 39.1934 29.7791V32.3103C39.1934 32.5423 39.0035 32.7322 38.7715 32.7322C38.5395 32.7322 38.3496 32.5423 38.3496 32.3103V27.2478C38.3496 26.0843 39.2955 25.1384 40.459 25.1384C41.6225 25.1384 42.5684 26.0843 42.5684 27.2478V32.3103Z" fill="white"/>
<path d="M40.459 25.9822C39.7612 25.9822 39.1934 26.55 39.1934 27.2478V28.0916C39.1934 28.3244 39.3824 28.5134 39.6152 28.5134H41.3027C41.5356 28.5134 41.7246 28.3244 41.7246 28.0916V27.2478C41.7246 26.55 41.1568 25.9822 40.459 25.9822ZM40.8809 27.6697H40.0371V27.2478C40.0371 27.0158 40.227 26.8259 40.459 26.8259C40.691 26.8259 40.8809 27.0158 40.8809 27.2478V27.6697Z" fill="white"/>
<path d="M45.5215 24.2947C44.8237 24.2947 44.2559 24.8625 44.2559 25.5603V32.3103C44.2559 33.0081 44.8237 33.5759 45.5215 33.5759C46.2193 33.5759 46.7871 33.0081 46.7871 32.3103V25.5603C46.7871 24.8625 46.2193 24.2947 45.5215 24.2947ZM45.9434 32.3103C45.9434 32.5423 45.7535 32.7322 45.5215 32.7322C45.2895 32.7322 45.0996 32.5423 45.0996 32.3103V25.5603C45.0996 25.3283 45.2895 25.1384 45.5215 25.1384C45.7535 25.1384 45.9434 25.3283 45.9434 25.5603V32.3103Z" fill="white"/>
<path d="M38.7715 47.0759H45.5215V47.9197H38.7715V47.0759Z" fill="white"/>
</svg>
