<svg width="85" height="85" viewBox="0 0 85 85" fill="none" xmlns="http://www.w3.org/2000/svg">
<path d="M0 19.5855C0 8.76875 8.76872 0 19.5855 0H65.285C76.1017 0 84.8705 8.76872 84.8705 19.5855V65.285C84.8705 76.1017 76.1017 84.8705 65.285 84.8705H19.5855C8.76875 84.8705 0 76.1017 0 65.285V19.5855Z" fill="#1389FD"/>
<g clip-path="url(#clip0_1375_2644)">
<path d="M58.9542 46.1668H56.8294V44.042C56.8294 42.6725 55.715 41.558 54.3454 41.558C52.9759 41.558 51.8615 42.6725 51.8615 44.042V46.1668H49.7367C48.3671 46.1668 47.2527 47.2812 47.2527 48.6508C47.2527 50.0209 48.3671 51.1353 49.7367 51.1353H51.8615V53.2595C51.8615 54.6291 52.9759 55.7435 54.3454 55.7435C55.715 55.7435 56.8294 54.6291 56.8294 53.2595V51.1353H58.9542C62.2368 51.0311 62.2361 46.2706 58.9542 46.1668ZM58.9542 49.9768H56.2501C55.93 49.9768 55.6709 50.2359 55.6709 50.556V53.2595C55.6262 55.0045 53.066 55.0092 53.02 53.2595C53.02 53.2595 53.02 50.556 53.02 50.556C53.02 50.2359 52.7609 49.9768 52.4407 49.9768H49.7367C49.0058 49.9768 48.4113 49.3817 48.4113 48.6508C48.4113 47.9199 49.0058 47.3253 49.7367 47.3253H52.4407C52.7609 47.3253 53.02 47.0662 53.02 46.7461V44.042C53.0647 42.297 55.6249 42.2923 55.6709 44.0421C55.6709 44.042 55.6709 46.7461 55.6709 46.7461C55.6709 47.0662 55.93 47.3253 56.2501 47.3253H58.9542C60.6994 47.37 60.7036 49.9305 58.9542 49.9768ZM22.2918 41.7447C22.5078 41.969 22.8954 41.9694 23.1109 41.7444C23.1109 41.7444 24.9851 39.8689 24.9851 39.8689C26.5022 38.3065 24.5035 35.9388 22.7014 37.1097C20.9031 35.9416 18.9031 38.2971 20.4154 39.868C20.4154 39.868 22.2918 41.7447 22.2918 41.7447ZM21.2328 38.1449C21.5588 37.8132 22.0358 37.9558 22.2912 38.2948C22.5067 38.519 22.8944 38.5198 23.1104 38.2956C23.3628 37.9605 23.8438 37.8226 24.166 38.1429C24.1665 38.1429 24.1665 38.1432 24.1665 38.1432C24.4154 38.3828 24.4168 38.8096 24.1665 39.0492C24.1665 39.0492 22.7014 40.5157 22.7014 40.5157L21.2345 39.0489C20.9856 38.7997 20.9856 38.393 21.2328 38.1449ZM34.8254 31.4218H34.5639L34.0747 29.3709C33.9056 28.6653 33.3108 28.1637 32.6007 28.0975L31.2366 21.2005C31.1829 20.929 30.9447 20.7335 30.6681 20.7335H21.9218C21.6452 20.7335 21.407 20.929 21.3533 21.2005L19.9892 28.0975C19.2786 28.1637 18.6839 28.6656 18.5158 29.3712L18.0261 31.4218C16.5555 31.3017 15.2463 32.4395 15.254 33.933C15.2539 33.933 15.2539 50.9933 15.2539 50.9933C15.2463 52.4859 16.5555 53.6259 18.0261 53.5045L18.5158 55.5546C18.6838 56.2607 19.2786 56.7626 19.9891 56.8288L21.3533 63.7261C21.407 63.9971 21.6452 64.1928 21.9218 64.1928H30.6681C30.9447 64.1928 31.1829 63.9971 31.2366 63.7261L32.6008 56.8288C33.3108 56.7626 33.9056 56.2612 34.0747 55.5551L34.5639 53.5045C36.0346 53.6248 37.3436 52.4869 37.336 50.9933C37.336 50.9933 37.336 33.933 37.336 33.933C37.336 32.5484 36.2097 31.4218 34.8254 31.4218ZM22.3976 21.8921H30.1924L31.4171 28.0842H21.1728L22.3976 21.8921ZM19.6426 29.6402C19.6986 29.4063 19.9057 29.2428 20.1461 29.2428H32.4438C32.6848 29.2428 32.8919 29.4065 32.9479 29.6402L33.3727 31.4213H19.2172L19.6426 29.6402ZM30.1924 63.0342H22.3976L21.1728 56.8421H31.4171L30.1924 63.0342ZM32.9479 55.2859C32.8919 55.5201 32.6848 55.6835 32.4438 55.6835H20.1461C19.9057 55.6835 19.6986 55.5201 19.6426 55.2859L19.2172 53.505H33.3727L32.9479 55.2859ZM36.1775 50.9933C36.1775 51.7389 35.571 52.3459 34.8254 52.3459H17.7645C17.0189 52.3459 16.4125 51.7389 16.4125 50.9933V33.933C16.4125 33.1871 17.0189 32.5804 17.7645 32.5804H34.8254C35.571 32.5804 36.1775 33.1871 36.1775 33.933V50.9933ZM34.2133 33.9655H18.3766C18.0564 33.9655 17.7973 34.2249 17.7973 34.5448V50.3818C17.7973 50.702 18.0564 50.9611 18.3766 50.9611H34.2133C34.5335 50.9611 34.7926 50.702 34.7926 50.3818V34.5448C34.7926 34.2249 34.5335 33.9655 34.2133 33.9655ZM33.6341 49.8025H18.9559V47.2863H20.7582L21.5304 48.7481C21.7112 49.1181 22.2681 49.1623 22.5056 48.825C22.5056 48.825 23.6037 47.3598 23.6037 47.3598H25.109C25.3126 47.3598 25.5016 47.2529 25.6062 47.0781L26.9356 44.8572L28.9812 48.468C29.208 48.9104 29.9179 48.8261 30.0413 48.3447C30.0413 48.3447 30.6472 46.2726 30.6472 46.2726C30.9307 46.6543 31.1663 47.4147 31.6547 47.3847C31.6547 47.3847 33.6341 47.3847 33.6341 47.3847V49.8025ZM33.6341 46.2262H31.9788L30.951 44.554C30.8316 44.3588 30.611 44.2525 30.3807 44.283C30.1539 44.3136 29.9661 44.4748 29.9016 44.6948L29.3138 46.7048L27.4538 43.4209C27.2572 43.0381 26.6453 43.0371 26.4525 43.409C26.4525 43.409 24.7809 46.2013 24.7809 46.2013H23.314C23.1319 46.2013 22.9599 46.2873 22.8507 46.4332L22.1272 47.3983L21.6192 46.4366C21.5191 46.2465 21.3222 46.1278 21.1072 46.1278H18.9559V35.1241H33.6341V46.2262ZM66.9866 20.1101H41.7009C41.3807 20.1101 41.1217 20.3695 41.1217 20.6894V61.3484C41.1217 61.9967 41.6495 62.5245 42.2977 62.5245H66.3841C67.0358 62.5245 67.5658 61.9967 67.5658 61.3484V20.6894C67.5658 20.3695 67.3067 20.1101 66.9866 20.1101ZM66.4073 61.3484L66.3841 61.366L42.2802 61.3484V21.2687H66.4073V61.3484ZM68.0235 17.179H40.664C39.5524 17.179 38.6484 18.0781 38.6484 19.1832V65.676C38.6484 66.7876 39.5524 67.6916 40.664 67.6916H68.0235C69.1351 67.6916 70.0391 66.7876 70.0391 65.676V19.1832C70.0391 18.0781 69.1351 17.179 68.0235 17.179ZM68.8805 65.676C68.8805 66.1484 68.4958 66.5331 68.0235 66.5331H40.664C40.1916 66.5331 39.807 66.1484 39.807 65.676V19.1832C39.807 18.7089 40.1832 18.3375 40.664 18.3375H68.0235C68.5043 18.3375 68.8805 18.7089 68.8805 19.1832V65.676ZM28.48 37.5979C28.48 37.278 28.7391 37.0186 29.0593 37.0186H31.9539C32.2741 37.0186 32.5332 37.278 32.5332 37.5979C32.5332 37.9178 32.2741 38.1771 31.9539 38.1771H29.0593C28.7391 38.1771 28.48 37.9178 28.48 37.5979ZM28.48 40.2253C28.48 39.9053 28.7391 39.646 29.0593 39.646H31.9539C32.2741 39.646 32.5332 39.9053 32.5332 40.2253C32.5332 40.5452 32.2741 40.8045 31.9539 40.8045H29.0593C28.7391 40.8045 28.48 40.5452 28.48 40.2253ZM44.7314 31.727C44.5062 31.5002 44.5074 31.1333 44.7342 30.9079C49.8326 25.6353 58.8692 25.6339 63.9572 30.9086C64.4861 31.4443 63.6831 32.2631 63.1392 31.7293C58.4821 26.9016 50.2174 26.9035 45.5511 31.73C45.3237 31.9554 44.9576 31.954 44.7314 31.727ZM59.7281 35.1393C56.9042 32.1922 51.7827 32.1833 48.9736 35.1451C48.4425 35.6808 47.6173 34.8717 48.1499 34.3304C51.3889 30.9149 57.2912 30.9217 60.5472 34.3203C61.0776 34.8574 60.2687 35.6734 59.7281 35.1393ZM54.3454 36.5717C55.1667 36.4663 57.9807 37.4733 57.1333 38.5528C57.0206 38.6642 56.8735 38.7196 56.7265 38.7196C56.5771 38.7196 56.4272 38.6622 56.3141 38.5471C55.2857 37.4633 53.411 37.4661 52.374 38.55C52.1477 38.7762 51.7811 38.7762 51.5548 38.5499C50.7029 37.4843 53.5483 36.4604 54.3454 36.5717Z" fill="white"/>
</g>
<defs>
<clipPath id="clip0_1375_2644">
<rect width="55" height="55" fill="white" transform="translate(15.1465 14.9353)"/>
</clipPath>
</defs>
</svg>
