<svg width="85" height="85" viewBox="0 0 85 85" fill="none" xmlns="http://www.w3.org/2000/svg">
<path d="M0 19.5855C0 8.76875 8.76872 0 19.5855 0H65.285C76.1017 0 84.8705 8.76872 84.8705 19.5855V65.285C84.8705 76.1017 76.1017 84.8705 65.285 84.8705H19.5855C8.76875 84.8705 0 76.1017 0 65.285V19.5855Z" fill="#1389FD"/>
<g clip-path="url(#clip0_1375_2644)">
<path fill-rule="evenodd" clip-rule="evenodd" d="M69.502 25.2746H15.791C15.4354 25.2746 15.1465 24.9857 15.1465 24.6301V16.1534C15.1465 15.7979 15.4354 15.5089 15.791 15.5089H69.502C69.8575 15.5089 70.1465 15.7979 70.1465 16.1534V24.629C70.1465 24.9857 69.8575 25.2746 69.502 25.2746ZM16.4355 23.9856H68.8574V16.798H16.4355V23.9856Z" fill="white"/>
<path fill-rule="evenodd" clip-rule="evenodd" d="M24.0362 22.9425H19.6738C19.3183 22.9425 19.0293 22.6536 19.0293 22.298V18.4856C19.0293 18.13 19.3183 17.8411 19.6738 17.8411H24.0362C24.3918 17.8411 24.6808 18.13 24.6808 18.4856V22.298C24.6808 22.6536 24.3918 22.9425 24.0362 22.9425ZM20.3184 21.6535H23.3917V19.1301H20.3184V21.6535Z" fill="white"/>
<path fill-rule="evenodd" clip-rule="evenodd" d="M32.7608 22.9425H28.3984C28.0429 22.9425 27.7539 22.6536 27.7539 22.298V18.4856C27.7539 18.13 28.0429 17.8411 28.3984 17.8411H32.7608C33.1164 17.8411 33.4054 18.13 33.4054 18.4856V22.298C33.4054 22.6536 33.1164 22.9425 32.7608 22.9425ZM29.043 21.6535H32.1163V19.1301H29.043V21.6535Z" fill="white"/>
<path fill-rule="evenodd" clip-rule="evenodd" d="M41.4835 22.9425H37.1211C36.7655 22.9425 36.4766 22.6536 36.4766 22.298V18.4856C36.4766 18.13 36.7655 17.8411 37.1211 17.8411H41.4835C41.8391 17.8411 42.128 18.13 42.128 18.4856V22.298C42.128 22.6536 41.8391 22.9425 41.4835 22.9425ZM37.7656 21.6535H40.839V19.1301H37.7656V21.6535Z" fill="white"/>
<path fill-rule="evenodd" clip-rule="evenodd" d="M65.6182 21.0358H47.0879C46.7323 21.0358 46.4434 20.7479 46.4434 20.3912C46.4434 20.0357 46.7323 19.7467 47.0879 19.7467H65.6182C65.9737 19.7467 66.2627 20.0357 66.2627 20.3912C66.2627 20.7479 65.9737 21.0358 65.6182 21.0358Z" fill="white"/>
<path fill-rule="evenodd" clip-rule="evenodd" d="M69.502 69.3616H15.791C15.4354 69.3616 15.1465 69.0727 15.1465 68.7171V16.1534C15.1465 15.7979 15.4354 15.5089 15.791 15.5089H69.502C69.8575 15.5089 70.1465 15.7979 70.1465 16.1534V68.7171C70.1465 69.0727 69.8575 69.3616 69.502 69.3616ZM16.4355 68.0726H68.8574V16.798H16.4355V68.0726Z" fill="white"/>
<path fill-rule="evenodd" clip-rule="evenodd" d="M42.6491 67.2626C42.5245 67.2626 42.3999 67.2261 42.2914 67.1541L39.3104 65.1636C38.4586 64.5942 37.5724 64.0496 36.7162 63.5232C33.6085 61.6144 30.3955 59.6399 28.318 56.1799C27.1524 54.2388 26.5605 52.1021 26.5605 49.8302V35.1306C26.5605 34.8792 26.7066 34.6504 26.9354 34.5451L42.3752 27.4188C42.5471 27.3393 42.7447 27.3393 42.9155 27.4188L58.3563 34.5451C58.5852 34.6504 58.7312 34.8792 58.7312 35.1306V49.8302C58.7312 56.1648 54.3355 59.8387 50.507 62.3319C49.8174 62.781 49.1062 63.2128 48.4187 63.6317C47.612 64.1227 46.7773 64.6297 45.9856 65.1604L43.0068 67.1541C42.8994 67.2261 42.7737 67.2626 42.6491 67.2626ZM27.8496 35.5431V49.8302C27.8496 51.8658 28.3792 53.779 29.4233 55.5171C31.3387 58.7064 34.2788 60.5133 37.3908 62.4254C38.2577 62.9582 39.1547 63.5093 40.027 64.0915L42.6491 65.8425L45.2691 64.0883C46.0834 63.5426 46.931 63.028 47.7495 62.5307C48.4284 62.1171 49.131 61.6896 49.8034 61.2523C53.3602 58.9363 57.4422 55.5461 57.4422 49.8313V35.5431L42.6459 28.7143L27.8496 35.5431Z" fill="white"/>
<path fill-rule="evenodd" clip-rule="evenodd" d="M42.647 64.0324C42.5224 64.0324 42.3978 63.9959 42.2893 63.9228L40.8025 62.9302C40.0323 62.4157 39.2277 61.9259 38.377 61.407C35.44 59.6174 32.4043 57.7676 30.62 54.7973C29.708 53.2795 29.2461 51.608 29.2461 49.8302V36.8493C29.2461 36.5979 29.3922 36.3691 29.621 36.2638L42.3752 30.3771C42.5471 30.2976 42.7447 30.2976 42.9155 30.3771L55.6708 36.2638C55.8996 36.3691 56.0457 36.5969 56.0457 36.8493V49.8302C56.0457 54.8446 52.5051 57.8266 49.0418 60.0814C48.3479 60.5337 47.6324 60.9687 46.9417 61.3887C46.1285 61.884 45.2885 62.3942 44.4914 62.9281L43.0058 63.9228C42.8973 63.9959 42.7727 64.0324 42.647 64.0324ZM30.5352 37.2607V49.8302C30.5352 51.3717 30.9358 52.8186 31.7254 54.1335C33.3453 56.8319 36.2446 58.5979 39.0473 60.3059C39.8733 60.8097 40.7263 61.3286 41.518 61.8582L42.647 62.6123L43.7749 61.8571C44.5956 61.3082 45.4475 60.7893 46.2714 60.2877C46.9546 59.8719 47.6614 59.4423 48.3382 59.0008C51.5125 56.935 54.7566 54.2291 54.7566 49.8302V37.2607L42.6459 31.6716L30.5352 37.2607Z" fill="white"/>
<path fill-rule="evenodd" clip-rule="evenodd" d="M22.6719 62.0334C22.3163 62.0334 22.0273 61.7444 22.0273 61.3888V43.7083C22.0273 43.3527 22.3163 43.0637 22.6719 43.0637C23.0285 43.0637 23.3164 43.3527 23.3164 43.7083V61.3888C23.3164 61.7444 23.0285 62.0334 22.6719 62.0334Z" fill="white"/>
<path fill-rule="evenodd" clip-rule="evenodd" d="M19.7637 62.0334C19.4081 62.0334 19.1191 61.7444 19.1191 61.3888V43.7083C19.1191 43.3527 19.4081 43.0637 19.7637 43.0637C20.1192 43.0637 20.4082 43.3527 20.4082 43.7083V61.3888C20.4082 61.7444 20.1192 62.0334 19.7637 62.0334Z" fill="white"/>
<path fill-rule="evenodd" clip-rule="evenodd" d="M65.5293 62.0334C65.1737 62.0334 64.8848 61.7444 64.8848 61.3888V43.7083C64.8848 43.3527 65.1737 43.0637 65.5293 43.0637C65.8849 43.0637 66.1738 43.3527 66.1738 43.7083V61.3888C66.1738 61.7444 65.8849 62.0334 65.5293 62.0334Z" fill="white"/>
<path fill-rule="evenodd" clip-rule="evenodd" d="M62.6211 62.0334C62.2645 62.0334 61.9766 61.7444 61.9766 61.3888V43.7083C61.9766 43.3527 62.2645 43.0637 62.6211 43.0637C62.9767 43.0637 63.2656 43.3527 63.2656 43.7083V61.3888C63.2656 61.7444 62.9767 62.0334 62.6211 62.0334Z" fill="white"/>
<path d="M41.6364 51.2045V43.7045H42.9091V51.2045H41.6364ZM38.5227 48.0909V46.8182H46.0227V48.0909H38.5227Z" fill="white"/>
</g>
<defs>
<clipPath id="clip0_1375_2644">
<rect width="55" height="55" fill="white" transform="translate(15.1465 14.9353)"/>
</clipPath>
</defs>
</svg>
