<svg id="Layer_1" viewBox="0 0 512 512" xmlns="http://www.w3.org/2000/svg" data-name="Layer 1"><path d="m376.19 284.5c7.03-1.87 11.75-8.02 11.75-15.3v-28.57c0-7.28-4.72-13.43-11.74-15.3l-14.7-3.95c-1.87-5.91-4.28-11.73-7.19-17.35l7.59-13.16c3.65-6.3 2.64-13.99-2.51-19.14l-20.21-20.21c-5.15-5.15-12.84-6.16-19.13-2.51l-13.16 7.61c-5.52-2.88-11.34-5.29-17.36-7.2l-3.93-14.71c-1.92-7.02-8.07-11.74-15.32-11.74h-28.57c-7.28 0-13.43 4.73-15.3 11.77l-3.92 14.68c-6 1.9-11.82 4.32-17.38 7.21l-13.16-7.61c-6.27-3.63-13.95-2.63-19.15 2.51l-20.22 20.22c-5.09 5.14-6.1 12.81-2.49 19.12l7.62 13.17c-2.9 5.61-5.32 11.42-7.21 17.35l-14.67 3.95c-7.03 1.87-11.75 8.02-11.75 15.3v28.57c0 7.28 4.72 13.43 11.73 15.3l14.69 3.95c1.9 5.96 4.31 11.77 7.21 17.35l-7.63 13.19c-3.6 6.28-2.59 13.95 2.52 19.11l20.21 20.21c5.15 5.15 12.84 6.16 19.12 2.52l13.2-7.6c5.56 2.88 11.37 5.28 17.35 7.18l3.93 14.71c1.88 7.02 8.03 11.74 15.3 11.74h28.57c7.24 0 13.4-4.7 15.33-11.74l3.93-14.71c6-1.91 11.81-4.31 17.35-7.18l13.16 7.59c6.33 3.67 14.03 2.65 19.13-2.5l20.22-20.22c5.15-5.15 6.16-12.84 2.52-19.13l-7.6-13.17c2.89-5.58 5.31-11.39 7.21-17.36l14.67-3.95zm-25.24-2.63c-2.08 7.32-5.03 14.42-8.76 21.11-1.03 1.85-1.02 4.1.04 5.93l9.28 16.08c.91 1.56.67 3.33-.62 4.62l-20.22 20.22c-1.24 1.25-3.05 1.49-4.61.58l-16.07-9.27c-1.83-1.06-4.09-1.07-5.93-.04-6.62 3.7-13.72 6.64-21.11 8.74-2.04.58-3.62 2.19-4.16 4.23l-4.78 17.9c-.48 1.74-1.94 2.87-3.73 2.87h-28.57c-1.78 0-3.23-1.11-3.69-2.83l-4.79-17.94c-.55-2.05-2.13-3.65-4.17-4.23-7.36-2.08-14.46-5.02-21.1-8.73-.91-.51-1.92-.76-2.93-.76s-2.07.27-3 .8l-16.12 9.28c-1.56.91-3.33.67-4.61-.61l-20.19-20.19c-1.26-1.27-1.5-3.1-.62-4.64l9.3-16.07c1.06-1.83 1.08-4.09.04-5.94-3.73-6.69-6.68-13.79-8.76-21.11-.58-2.03-2.18-3.61-4.22-4.16l-17.93-4.82c-1.71-.46-2.82-1.9-2.82-3.69v-28.57c0-1.78 1.11-3.23 2.84-3.69l17.92-4.82c2.04-.55 3.64-2.13 4.22-4.16 2.06-7.26 5.01-14.37 8.77-21.11 1.03-1.85 1.01-4.1-.05-5.93l-9.28-16.05c-.89-1.56-.65-3.39.59-4.64l20.2-20.2c1.28-1.27 3.1-1.52 4.64-.63l16.07 9.3c1.83 1.06 4.1 1.08 5.95.04 6.64-3.72 13.75-6.67 21.12-8.76 2.04-.58 3.62-2.18 4.17-4.23l4.79-17.92c.46-1.73 1.91-2.85 3.69-2.85h28.57c1.81 0 3.24 1.11 3.72 2.86l4.79 17.92c.55 2.04 2.13 3.65 4.16 4.23 7.42 2.11 14.51 5.05 21.09 8.75 1.85 1.04 4.12 1.03 5.96-.04l16.08-9.3c1.54-.89 3.35-.65 4.61.61l20.21 20.21c1.28 1.28 1.52 3.05.6 4.63l-9.27 16.07c-1.05 1.83-1.07 4.08-.04 5.92 3.77 6.77 6.71 13.87 8.73 21.09.57 2.04 2.18 3.63 4.23 4.18l17.96 4.82c1.71.46 2.82 1.9 2.82 3.69v28.57c0 1.78-1.11 3.23-2.84 3.69l-17.92 4.82c-2.04.55-3.64 2.13-4.22 4.16zm-94.96-103.1c-41.98 0-76.14 34.16-76.14 76.14s34.16 76.14 76.14 76.14 76.14-34.16 76.14-76.14-34.16-76.14-76.14-76.14zm-44.68 122.06c.92-14.77 16.13-22.72 31.14-25.45 3.98 2.4 8.49 3.84 13.43 3.93h.11s.07 0 .11 0c4.95-.09 9.47-1.54 13.45-3.94 15 2.73 30.21 10.69 31.13 25.45-11.56 11.25-27.32 18.2-44.68 18.2s-33.13-6.95-44.68-18.2zm44.68-33.54c-11.25-.3-19.64-14.29-19.64-26.67s9.87-18.18 19.66-18.18c5.24 0 10.26 1.69 13.79 4.65 3.9 3.26 5.87 7.82 5.87 13.54 0 12.38-8.4 26.38-19.67 26.67zm54.14 21.9c-4.63-10.95-15.24-19.33-30.24-23.72 4.96-7.15 7.79-16.17 7.79-24.85 0-19.83-15.94-30.2-31.68-30.2s-31.68 10.37-31.68 30.2c0 8.68 2.82 17.7 7.78 24.85-15.01 4.39-25.63 12.77-30.26 23.73-6.31-9.92-9.98-21.68-9.98-34.28 0-35.36 28.76-64.12 64.12-64.12s64.12 28.76 64.12 64.12c0 12.6-3.67 24.36-9.98 34.28zm195.25 158.53-50.03-50.03c-1.72-1.72-4.31-2.23-6.55-1.3-2.25.93-3.71 3.12-3.71 5.55v24.49h-47.2c5.35-4.44 10.53-9.14 15.5-14.12 42.04-42.04 65.2-97.95 65.2-157.41 0-111.34-81.98-205.17-191.57-220.44v-24.46c0-2.43-1.46-4.62-3.71-5.55-2.24-.93-4.83-.42-6.55 1.3l-26.68 26.68c-57.8 1.5-111.92 24.95-152.61 66.23-41.31 41.91-64.07 97.4-64.07 156.25 0 66.54 29.89 129.41 80.73 171.52h-103.26c-3.32 0-6.01 2.69-6.01 6.01v39.06c0 3.32 2.69 6.01 6.01 6.01h434.21v24.49c0 2.43 1.46 4.62 3.71 5.55.74.31 1.52.46 2.3.46 1.56 0 3.1-.61 4.25-1.76l50.03-50.03c2.35-2.35 2.35-6.15 0-8.5zm-459.95-192.81c0-109.17 84.76-200.19 191.9-209.72l-10.59 10.59c-2.35 2.35-2.35 6.15 0 8.5l8.29 8.29c-42.34 4.81-81.47 24.11-111.32 55.15-33.03 34.35-51.23 79.52-51.23 127.19 0 78.21 49.17 145.14 118.22 171.52h-56.86c-55.38-39.52-88.4-103.49-88.4-171.52zm210.56 171.52c-94.56 0-171.5-76.95-171.5-171.52s70.79-166.08 161.65-171.22l30.63 30.64c1.72 1.72 4.31 2.24 6.55 1.3 2.25-.93 3.71-3.12 3.71-5.55v-23.87c80.57 14.74 140.48 86.06 140.48 168.69 0 94.58-76.95 171.52-171.52 171.52zm-239.1 39.06v-27.04h239.44c101.05-.19 183.2-82.45 183.2-183.54 0-44.5-16.13-87.42-45.42-120.85-29.01-33.12-68.88-54.73-112.26-60.85-1.72-.24-3.47.27-4.78 1.41s-2.07 2.8-2.07 4.54v16.41l-35.52-35.54 35.52-35.52v15.26c0 3.05 2.29 5.62 5.32 5.97 106.18 12.23 186.24 102.15 186.24 209.18 0 116.12-94.47 210.59-210.58 210.59h-239.1zm440.22 22v-15.99c0-3.32-2.69-6.01-6.01-6.01h-122.65c18.95-6.5 36.95-15.58 53.58-27.04h69.07c3.32 0 6.01-2.69 6.01-6.01v-15.99l35.52 35.52z"/></svg>