<?xml version="1.0"?>
<svg xmlns="http://www.w3.org/2000/svg" viewBox="0 0 64 64"><g id="Icons"><path d="M56,1.25H8A2.7528,2.7528,0,0,0,5.25,4V36A2.7528,2.7528,0,0,0,8,38.75H18.25V46A2.7528,2.7528,0,0,0,21,48.75h1.25v3.5H19a.75.75,0,0,0,0,1.5h3.25v3.5H21A2.7528,2.7528,0,0,0,18.25,60v2a.75.75,0,0,0,1.5,0V60A1.25116,1.25116,0,0,1,21,58.75h1.25V60A2.7528,2.7528,0,0,0,25,62.75H39A2.7528,2.7528,0,0,0,41.75,60V58.75H43A1.25116,1.25116,0,0,1,44.25,60v2a.75.75,0,0,0,1.5,0V60A2.7528,2.7528,0,0,0,43,57.25H41.75v-3.5H45a.75.75,0,0,0,0-1.5H41.75v-3.5H43A2.7528,2.7528,0,0,0,45.75,46V38.75H56A2.7528,2.7528,0,0,0,58.75,36V4A2.7528,2.7528,0,0,0,56,1.25ZM22.25,46v1.25H21A1.25116,1.25116,0,0,1,19.75,46V38.75h11.5v4.5h-3.5V42a.75.75,0,0,0-1.5,0v1.25H25A2.7528,2.7528,0,0,0,22.25,46Zm18,14A1.25116,1.25116,0,0,1,39,61.25H25A1.25116,1.25116,0,0,1,23.75,60V46A1.25116,1.25116,0,0,1,25,44.75H39A1.25116,1.25116,0,0,1,40.25,46Zm4-14A1.25116,1.25116,0,0,1,43,47.25H41.75V46A2.7528,2.7528,0,0,0,39,43.25H37.75V42a.75.75,0,0,0-1.5,0v1.25h-3.5v-4.5h11.5Zm13-10A1.25116,1.25116,0,0,1,56,37.25H8A1.25116,1.25116,0,0,1,6.75,36V4A1.25116,1.25116,0,0,1,8,2.75H56A1.25116,1.25116,0,0,1,57.25,4ZM31.75,17a.7502.7502,0,0,1-.75.75H11a.75.75,0,0,1,0-1.5h1.25V13a.75.75,0,0,1,1.5,0v3.25h2.5V11a.75.75,0,0,1,1.5,0v5.25h2.5V8a.75.75,0,0,1,1.5,0v8.25h2.5V9a.75.75,0,0,1,1.5,0v7.25h2.5V7a.75.75,0,0,1,1.5,0v9.25H31A.7502.7502,0,0,1,31.75,17ZM31,20.25H11a.7502.7502,0,0,0-.75.75v4a.7502.7502,0,0,0,.75.75H31a.7502.7502,0,0,0,.75-.75V21A.7502.7502,0,0,0,31,20.25Zm-.75,4H11.75v-2.5h18.5ZM10.25,29a.7502.7502,0,0,1,.75-.75h8a.75.75,0,0,1,0,1.5H11A.7502.7502,0,0,1,10.25,29Zm21.5,4a.7502.7502,0,0,1-.75.75H11a.75.75,0,0,1,0-1.5H31A.7502.7502,0,0,1,31.75,33ZM47,5.25A6.75,6.75,0,1,0,53.75,12,6.75769,6.75769,0,0,0,47,5.25Zm-.75,1.57587V11.25H41.82587A5.23008,5.23008,0,0,1,46.25,6.82587ZM47,17.25a5.242,5.242,0,0,1-5.17413-4.5h4.86358l3.44031,3.43988A5.19992,5.19992,0,0,1,47,17.25Zm4.19031-2.12067L47.75,11.68945V6.82587a5.20385,5.20385,0,0,1,3.44031,8.30346Zm-9.66052,7.3404A.74858.74858,0,0,1,41.75,23a.71769.71769,0,0,1-.06006.29.64331.64331,0,0,1-.16015.24023.6295.6295,0,0,1-.23975.15918.72493.72493,0,0,1-.58008,0,.63108.63108,0,0,1-.24023-.15918.74327.74327,0,0,1-.15967-.82031.73324.73324,0,0,1,.3999-.40039A.75272.75272,0,0,1,41.52979,22.46973Zm3,0a.75158.75158,0,1,1-1.21973.24023.74635.74635,0,0,1,1.21973-.24023Zm3,0a.74856.74856,0,0,1,0,1.06054.6295.6295,0,0,1-.23975.15918A.71985.71985,0,0,1,47,23.75a.751.751,0,0,1-.53027-.21973.63612.63612,0,0,1-.15967-.24023A.71769.71769,0,0,1,46.25,23a.74808.74808,0,0,1,.21973-.53027A.77332.77332,0,0,1,47.52979,22.46973Zm3.16015.24023a.7425.7425,0,0,1-.16015.82031.6295.6295,0,0,1-.23975.15918.72493.72493,0,0,1-.58008,0,.63108.63108,0,0,1-.24023-.15918.74327.74327,0,0,1-.15967-.82031.77656.77656,0,0,1,.15967-.24023.75332.75332,0,0,1,.82031-.16016.77031.77031,0,0,1,.23975.16016A.64331.64331,0,0,1,50.68994,22.71Zm2.83985-.24023a.74856.74856,0,0,1,0,1.06054.6295.6295,0,0,1-.23975.15918.72493.72493,0,0,1-.58008,0,.63108.63108,0,0,1-.24023-.15918.74327.74327,0,0,1-.15967-.82031.73324.73324,0,0,1,.3999-.40039A.75272.75272,0,0,1,53.52979,22.46973ZM37.75,49.30566V57a.75.75,0,0,1-1.5,0V49.30566a.75.75,0,0,1,1.5,0Zm-7.21973-.83593a.74972.74972,0,0,0-1.06054,0l-2.41407,2.41406A2.73171,2.73171,0,0,0,26.25,52.82812V57a.75.75,0,0,0,1.5,0V54.75h4.5V57a.75.75,0,0,0,1.5,0V52.82812a2.73171,2.73171,0,0,0-.80566-1.94433ZM32.25,53.25h-4.5v-.42188a1.257,1.257,0,0,1,.36621-.88378L30,50.06055l1.88379,1.88379a1.257,1.257,0,0,1,.36621.88378Z"/></g></svg>
