<svg id="Layer_1" enable-background="new 0 0 512 499" viewBox="0 0 512 499" xmlns="http://www.w3.org/2000/svg" xmlns:xlink="http://www.w3.org/1999/xlink"><linearGradient id="lg1"><stop offset="0" stop-color="#7b7da1"/><stop offset=".3104" stop-color="#6d6f93"/><stop offset=".8987" stop-color="#494c6d"/><stop offset="1" stop-color="#424566"/></linearGradient><linearGradient id="SVGID_1_" gradientUnits="userSpaceOnUse" x1="12.518" x2="518.05" xlink:href="#lg1" y1="-1.818" y2="96.225"/><linearGradient id="lg2"><stop offset="0" stop-color="#32365c"/><stop offset="1" stop-color="#32365c" stop-opacity="0"/></linearGradient><linearGradient id="SVGID_2_" gradientUnits="userSpaceOnUse" x1="256.004" x2="256.004" xlink:href="#lg2" y1="91.484" y2="57.574"/><linearGradient id="SVGID_3_" gradientTransform="matrix(-1 0 0 1 5594.347 0)" gradientUnits="userSpaceOnUse" x1="5080.631" x2="5110.319" xlink:href="#lg2" y1="42.711" y2="42.711"/><linearGradient id="lg3"><stop offset="0" stop-color="#a1a4c7"/><stop offset="1" stop-color="#a1a4c7" stop-opacity="0"/></linearGradient><linearGradient id="SVGID_4_" gradientUnits="userSpaceOnUse" x1="256.004" x2="256.004" xlink:href="#lg3" y1="-1.963" y2="24.59"/><linearGradient id="SVGID_5_" gradientUnits="userSpaceOnUse" x1="-1.708" x2="27.979" xlink:href="#lg3" y1="42.711" y2="42.711"/><linearGradient id="SVGID_6_" gradientUnits="userSpaceOnUse" x1="57.288" x2="468.914" y1="64.829" y2="476.455"><stop offset="0" stop-color="#e9edff"/><stop offset="1" stop-color="#c4cbff"/></linearGradient><linearGradient id="lg4"><stop offset=".00000187801" stop-color="#a1b3ff"/><stop offset="1" stop-color="#a1b3ff" stop-opacity="0"/></linearGradient><linearGradient id="SVGID_7_" gradientTransform="matrix(-1 0 0 1 5524.389 0)" gradientUnits="userSpaceOnUse" x1="5011.368" x2="5042.159" xlink:href="#lg4" y1="272.552" y2="272.552"/><linearGradient id="SVGID_8_" gradientUnits="userSpaceOnUse" x1="255.997" x2="255.997" xlink:href="#lg4" y1="459.144" y2="431.527"/><linearGradient id="lg5"><stop offset=".00000211276" stop-color="#fff"/><stop offset="1" stop-color="#fff" stop-opacity="0"/></linearGradient><linearGradient id="SVGID_9_" gradientUnits="userSpaceOnUse" x1="255.997" x2="255.997" xlink:href="#lg5" y1="84.846" y2="114.242"/><linearGradient id="SVGID_10_" gradientUnits="userSpaceOnUse" x1="-1.027" x2="29.764" xlink:href="#lg5" y1="272.552" y2="272.552"/><linearGradient id="lg6"><stop offset="0" stop-color="#ff7f5c"/><stop offset=".1532" stop-color="#ff7957"/><stop offset=".3599" stop-color="#ff6849"/><stop offset=".5972" stop-color="#ff4b33"/><stop offset=".8552" stop-color="#ff2414"/><stop offset=".9959" stop-color="#ff0c00"/></linearGradient><linearGradient id="SVGID_11_" gradientUnits="userSpaceOnUse" x1="46.394" x2="72.95" xlink:href="#lg6" y1="31.329" y2="57.884"/><radialGradient id="SVGID_12_" cx="60.275" cy="45.143" gradientUnits="userSpaceOnUse" r="19.024"><stop offset=".8186" stop-color="#ffb7a3" stop-opacity="0"/><stop offset="1" stop-color="#ffb7a3"/></radialGradient><radialGradient id="SVGID_13_" cx="58.472" cy="43.34" gradientUnits="userSpaceOnUse" r="19.024"><stop offset=".8186" stop-color="#e00a00" stop-opacity="0"/><stop offset="1" stop-color="#e00a00"/></radialGradient><linearGradient id="SVGID_14_" gradientUnits="userSpaceOnUse" x1="113.041" x2="141.484" y1="29.69" y2="58.133"><stop offset="0" stop-color="#ffd945"/><stop offset="1" stop-color="#ff941f"/></linearGradient><radialGradient id="SVGID_15_" cx="128.561" cy="45.143" gradientUnits="userSpaceOnUse" r="19.024"><stop offset=".8186" stop-color="#fff2bf" stop-opacity="0"/><stop offset="1" stop-color="#fff2bf"/></radialGradient><radialGradient id="SVGID_16_" cx="126.758" cy="43.34" gradientUnits="userSpaceOnUse" r="19.024"><stop offset=".8186" stop-color="#f27f00" stop-opacity="0"/><stop offset="1" stop-color="#f27f00"/></radialGradient><linearGradient id="lg7"><stop offset="0" stop-color="#cfe958"/><stop offset=".5848" stop-color="#80b35d"/><stop offset="1" stop-color="#4c9060"/></linearGradient><linearGradient id="SVGID_17_" gradientUnits="userSpaceOnUse" x1="182.966" x2="209.522" xlink:href="#lg7" y1="31.329" y2="57.884"/><radialGradient id="SVGID_18_" cx="196.847" cy="45.143" gradientUnits="userSpaceOnUse" r="19.024"><stop offset=".8186" stop-color="#e6ff75" stop-opacity="0"/><stop offset="1" stop-color="#e6ff75"/></radialGradient><radialGradient id="SVGID_19_" cx="195.044" cy="43.34" gradientUnits="userSpaceOnUse" r="19.024"><stop offset=".8186" stop-color="#3e8252" stop-opacity="0"/><stop offset="1" stop-color="#3e8252"/></radialGradient><linearGradient id="SVGID_20_" gradientUnits="userSpaceOnUse" x1="313.899" x2="313.899" xlink:href="#lg4" y1="234.308" y2="352.27"/><linearGradient id="SVGID_21_" gradientUnits="userSpaceOnUse" x1="116.277" x2="188.916" xlink:href="#lg6" y1="354.9" y2="505.021"/><linearGradient id="lg8"><stop offset="0" stop-color="#b80024"/><stop offset="1" stop-color="#b80024" stop-opacity="0"/></linearGradient><linearGradient id="SVGID_22_" gradientUnits="userSpaceOnUse" x1="189.4" x2="165.559" xlink:href="#lg8" y1="422.186" y2="422.186"/><linearGradient id="SVGID_23_" gradientUnits="userSpaceOnUse" x1="150.852" x2="150.852" xlink:href="#lg8" y1="502.394" y2="472.496"/><linearGradient id="lg9"><stop offset="0" stop-color="#ff8585"/><stop offset="1" stop-color="#ff8585" stop-opacity="0"/></linearGradient><linearGradient id="SVGID_24_" gradientUnits="userSpaceOnUse" x1="113.06" x2="131.233" xlink:href="#lg9" y1="422.186" y2="422.186"/><linearGradient id="SVGID_25_" gradientUnits="userSpaceOnUse" x1="150.852" x2="150.852" xlink:href="#lg9" y1="350.479" y2="368.567"/><linearGradient id="SVGID_26_" gradientUnits="userSpaceOnUse" x1="177.858" x2="268.84" y1="315.379" y2="503.408"><stop offset="0" stop-color="#ffd945"/><stop offset=".2503" stop-color="#ffcd3e"/><stop offset=".7038" stop-color="#ffad2d"/><stop offset="1" stop-color="#ff941f"/></linearGradient><linearGradient id="lg10"><stop offset="0" stop-color="#f78100"/><stop offset="1" stop-color="#f78100" stop-opacity="0"/></linearGradient><linearGradient id="SVGID_27_" gradientUnits="userSpaceOnUse" x1="260.635" x2="237.768" xlink:href="#lg10" y1="400.268" y2="400.268"/><linearGradient id="SVGID_28_" gradientUnits="userSpaceOnUse" x1="220.951" x2="220.951" xlink:href="#lg10" y1="494.564" y2="469.522"/><linearGradient id="lg11"><stop offset="0" stop-color="#ffeda6"/><stop offset="1" stop-color="#ffeda6" stop-opacity="0"/></linearGradient><linearGradient id="SVGID_29_" gradientUnits="userSpaceOnUse" x1="184.549" x2="203.99" xlink:href="#lg11" y1="400.268" y2="400.268"/><linearGradient id="SVGID_30_" gradientUnits="userSpaceOnUse" x1="220.951" x2="220.951" xlink:href="#lg11" y1="306.5" y2="321.494"/><linearGradient id="lg12"><stop offset="0" stop-color="#a1ddff"/><stop offset="1" stop-color="#1c83ff"/></linearGradient><linearGradient id="SVGID_31_" gradientUnits="userSpaceOnUse" x1="255.204" x2="318.523" xlink:href="#lg12" y1="390.155" y2="485.815"/><linearGradient id="lg13"><stop offset=".00000211276" stop-color="#0047e0"/><stop offset="1" stop-color="#0047e0" stop-opacity="0"/></linearGradient><linearGradient id="SVGID_32_" gradientUnits="userSpaceOnUse" x1="328.039" x2="305.631" xlink:href="#lg13" y1="440.526" y2="440.526"/><linearGradient id="SVGID_33_" gradientUnits="userSpaceOnUse" x1="291.049" x2="291.049" xlink:href="#lg13" y1="494.734" y2="472.167"/><linearGradient id="lg14"><stop offset=".00000137427" stop-color="#c9ecff"/><stop offset="1" stop-color="#c9ecff" stop-opacity="0"/></linearGradient><linearGradient id="SVGID_34_" gradientUnits="userSpaceOnUse" x1="255.273" x2="275.119" xlink:href="#lg14" y1="440.526" y2="440.526"/><linearGradient id="SVGID_35_" gradientUnits="userSpaceOnUse" x1="291.049" x2="291.049" xlink:href="#lg14" y1="386.351" y2="406.13"/><linearGradient id="SVGID_36_" gradientUnits="userSpaceOnUse" x1="279.495" x2="431.773" y1="210.992" y2="525.699"><stop offset="0" stop-color="#cfe958"/><stop offset=".1381" stop-color="#c8e458"/><stop offset=".3389" stop-color="#b5d75a"/><stop offset=".578" stop-color="#95c15c"/><stop offset=".8445" stop-color="#69a45e"/><stop offset="1" stop-color="#4c9060"/></linearGradient><linearGradient id="SVGID_37_" gradientUnits="userSpaceOnUse" x1="399.898" x2="361.541" y1="375.572" y2="375.572"><stop offset=".1194" stop-color="#4c9060"/><stop offset=".7191" stop-color="#4c9060" stop-opacity="0"/></linearGradient><linearGradient id="SVGID_38_" gradientUnits="userSpaceOnUse" x1="361.148" x2="361.148" y1="495.059" y2="460.859"><stop offset=".004102736" stop-color="#4c9060"/><stop offset=".7276" stop-color="#4c9060" stop-opacity="0"/></linearGradient><linearGradient id="lg15"><stop offset="0" stop-color="#dae995"/><stop offset=".8469" stop-color="#dae995" stop-opacity="0"/></linearGradient><linearGradient id="SVGID_39_" gradientUnits="userSpaceOnUse" x1="322.416" x2="360.693" xlink:href="#lg15" y1="375.572" y2="375.572"/><linearGradient id="SVGID_40_" gradientUnits="userSpaceOnUse" x1="361.148" x2="361.148" xlink:href="#lg15" y1="256.831" y2="279.059"/><linearGradient id="SVGID_41_" gradientUnits="userSpaceOnUse" x1="256" x2="256" xlink:href="#lg1" y1="488.606" y2="501.668"/><linearGradient id="SVGID_42_" gradientUnits="userSpaceOnUse" x1="285.194" x2="285.194" xlink:href="#lg4" y1="91.33" y2="236.492"/><linearGradient id="SVGID_43_" gradientUnits="userSpaceOnUse" x1="160.982" x2="314.422" xlink:href="#lg1" y1="140.8" y2="294.24"/><linearGradient id="SVGID_44_" gradientUnits="userSpaceOnUse" x1="120.821" x2="149.509" xlink:href="#lg6" y1="280.778" y2="309.466"/><radialGradient id="SVGID_45_" cx="132.593" cy="291.966" gradientUnits="userSpaceOnUse" r="20.551"><stop offset=".7947" stop-color="#e00a00" stop-opacity="0"/><stop offset="1" stop-color="#e00a00"/></radialGradient><radialGradient id="SVGID_46_" cx="135.902" cy="295.701" gradientUnits="userSpaceOnUse" r="20.551"><stop offset=".6606" stop-color="#ffb7a3" stop-opacity="0"/><stop offset="1" stop-color="#ffb7a3"/></radialGradient><linearGradient id="SVGID_47_" gradientUnits="userSpaceOnUse" x1="213.055" x2="241.742" y1="176.868" y2="205.555"><stop offset="0" stop-color="#ffed81"/><stop offset=".2348" stop-color="#ffd968"/><stop offset=".7302" stop-color="#ffa629"/><stop offset="1" stop-color="#ff8804"/></linearGradient><radialGradient id="SVGID_48_" cx="227.625" cy="191.535" gradientUnits="userSpaceOnUse" r="20.551"><stop offset=".6759" stop-color="#fffcf0" stop-opacity="0"/><stop offset="1" stop-color="#fffcf0"/></radialGradient><radialGradient id="SVGID_49_" cx="225.337" cy="189.077" gradientUnits="userSpaceOnUse" r="21.804"><stop offset=".7484" stop-color="#ff6b06" stop-opacity="0"/><stop offset=".9622" stop-color="#ff6b06"/></radialGradient><linearGradient id="SVGID_50_" gradientUnits="userSpaceOnUse" x1="277.076" x2="305.764" xlink:href="#lg12" y1="256.351" y2="285.038"/><radialGradient id="SVGID_51_" cx="289.358" cy="268.56" gradientUnits="userSpaceOnUse" r="21.804"><stop offset=".7353" stop-color="#0047e0" stop-opacity="0"/><stop offset="1" stop-color="#0047e0"/></radialGradient><radialGradient id="SVGID_52_" cx="293.263" cy="272.72" gradientTransform="matrix(.707 .707 -.677 .677 270.607 -119.361)" gradientUnits="userSpaceOnUse" r="22.7"><stop offset=".6929" stop-color="#c9ecff" stop-opacity="0"/><stop offset="1" stop-color="#c9ecff"/></radialGradient><linearGradient id="SVGID_53_" gradientUnits="userSpaceOnUse" x1="363.372" x2="392.059" xlink:href="#lg7" y1="163.265" y2="191.953"/><radialGradient id="SVGID_54_" cx="375.654" cy="175.474" gradientUnits="userSpaceOnUse" r="21.804"><stop offset=".7319" stop-color="#3e8252" stop-opacity="0"/><stop offset="1" stop-color="#3e8252"/></radialGradient><radialGradient id="SVGID_55_" cx="379.559" cy="179.635" gradientTransform="matrix(.707 .707 -.677 .677 232.836 -210.42)" gradientUnits="userSpaceOnUse" r="22.7"><stop offset=".7673" stop-color="#e6ff75" stop-opacity="0"/><stop offset="1" stop-color="#e6ff75"/></radialGradient><linearGradient id="SVGID_56_" gradientUnits="userSpaceOnUse" x1="73.206" x2="119.189" xlink:href="#lg1" y1="128.746" y2="174.729"/><g><g><g><path d="m512 30.8v54.7h-512v-54.7c0-17 13.8-30.8 30.8-30.8h450.5c16.9 0 30.7 13.8 30.7 30.8z" fill="url(#SVGID_1_)"/><g><path d="m0 56h512v29.4h-512z" fill="url(#SVGID_2_)"/><path d="m479.3 0h1.9c17 0 30.8 13.8 30.8 30.8v54.7h-32.7z" fill="url(#SVGID_3_)"/><path d="m512 30.7c0-17-13.8-30.7-30.8-30.7h-450.4c-17 0-30.8 13.7-30.8 30.7z" fill="url(#SVGID_4_)"/><path d="m32.7 0h-1.9c-17 0-30.8 13.8-30.8 30.8v54.7h32.7z" fill="url(#SVGID_5_)"/></g></g><g><path d="m0 85.4v343.5c0 17 13.8 30.8 30.8 30.8h450.5c17 0 30.8-13.8 30.8-30.8v-343.5z" fill="url(#SVGID_6_)"/><g><path d="m479.3 85.4h32.7v343.5c0 17-13.8 30.8-30.8 30.8h-1.9z" fill="url(#SVGID_7_)"/><path d="m0 424.4v4.5c0 17 13.8 30.8 30.8 30.8h450.5c17 0 30.8-13.8 30.8-30.8v-4.5z" fill="url(#SVGID_8_)"/><path d="m0 85.4h512v32.6h-512z" fill="url(#SVGID_9_)"/><path d="m32.7 85.4h-32.7v343.5c0 17 13.8 30.8 30.8 30.8h1.9z" fill="url(#SVGID_10_)"/></g></g><g><g><circle cx="59.3" cy="44.3" fill="url(#SVGID_11_)" r="17.6"/><circle cx="59.3" cy="44.3" fill="url(#SVGID_12_)" r="17.6"/><circle cx="59.3" cy="44.3" fill="url(#SVGID_13_)" r="17.6"/></g><g><circle cx="127.6" cy="44.3" fill="url(#SVGID_14_)" r="17.6"/><circle cx="127.6" cy="44.3" fill="url(#SVGID_15_)" r="17.6"/><circle cx="127.6" cy="44.3" fill="url(#SVGID_16_)" r="17.6"/></g><g><circle cx="195.9" cy="44.3" fill="url(#SVGID_17_)" r="17.6"/><circle cx="195.9" cy="44.3" fill="url(#SVGID_18_)" r="17.6"/><circle cx="195.9" cy="44.3" fill="url(#SVGID_19_)" r="17.6"/></g></g></g><g><g><path d="m394.1 261.5c-2-2.7-5.1-4.4-8.7-4.4h-48.4c-6 0-10.8 4.9-10.8 10.8v115c-.4-.5-71.4-71.4-72.2-72.1-2-2.7-5.1-4.4-8.7-4.4h-48.5c-6 0-10.8 4.9-10.8 10.8v39.5c-.6-.8-1.3-1.5-2.1-2.1-2-2.7-5.1-4.4-8.7-4.4h-48.5c-6 0-10.8 4.9-10.8 10.8v98.5h365.4c17 0 30.8-13.8 30.8-30.8v-49.6c-32.4-32.1-117.3-117.1-118-117.6z" fill="url(#SVGID_20_)"/><g><g><path d="m185.9 494h-70.1v-132.8c0-6 4.8-10.8 10.8-10.8h48.4c6 0 10.8 4.8 10.8 10.8v132.8z" fill="url(#SVGID_21_)"/><g><path d="m175.1 350.3h-14.1v143.7h24.9v-132.8c0-6-4.8-10.9-10.8-10.9z" fill="url(#SVGID_22_)"/><path d="m115.8 467.3h70.1v26.7h-70.1z" fill="url(#SVGID_23_)"/><path d="m144.5 350.3h-17.9c-6 0-10.8 4.8-10.8 10.8v132.9h28.7z" fill="url(#SVGID_24_)"/><path d="m185.9 372.1v-11c0-6-4.8-10.8-10.8-10.8h-48.4c-6 0-10.8 4.8-10.8 10.8v11z" fill="url(#SVGID_25_)"/></g></g><g><path d="m256 494h-70.1v-176.7c0-6 4.8-10.8 10.8-10.8h48.4c6 0 10.8 4.8 10.8 10.8v176.7z" fill="url(#SVGID_26_)"/><g><path d="m245.2 306.5h-14.1v187.5h24.9v-176.7c0-6-4.8-10.8-10.8-10.8z" fill="url(#SVGID_27_)"/><path d="m185.9 467.3h70.1v26.7h-70.1z" fill="url(#SVGID_28_)"/><path d="m214.6 306.5h-17.9c-6 0-10.8 4.8-10.8 10.8v176.7h28.7z" fill="url(#SVGID_29_)"/><path d="m256 328.3v-11c0-6-4.8-10.8-10.8-10.8h-48.4c-6 0-10.8 4.8-10.8 10.8v11z" fill="url(#SVGID_30_)"/></g></g><g><path d="m326.1 494h-70.1v-96.2c0-6 4.8-10.8 10.8-10.8h48.4c6 0 10.8 4.8 10.8 10.8v96.2z" fill="url(#SVGID_31_)"/><g><path d="m315.3 387h-14.1v107h24.9v-96.2c0-5.9-4.8-10.8-10.8-10.8z" fill="url(#SVGID_32_)"/><path d="m256 467.3h70.1v26.7h-70.1z" fill="url(#SVGID_33_)"/><path d="m284.7 387h-17.9c-6 0-10.8 4.8-10.8 10.8v96.2h28.7z" fill="url(#SVGID_34_)"/><path d="m326.1 408.8v-11c0-6-4.8-10.8-10.8-10.8h-48.4c-6 0-10.8 4.8-10.8 10.8v11z" fill="url(#SVGID_35_)"/></g></g><g><path d="m396.2 494h-70.1v-226.1c0-6 4.8-10.8 10.8-10.8h48.4c6 0 10.8 4.8 10.8 10.8v226.1z" fill="url(#SVGID_36_)"/><g><path d="m385.4 257.1h-14.1v236.9h24.9v-226.1c0-5.9-4.8-10.8-10.8-10.8z" fill="url(#SVGID_37_)"/><path d="m326.1 467.3h70.1v26.7h-70.1z" fill="url(#SVGID_38_)"/><path d="m354.8 257.1h-17.9c-6 0-10.8 4.8-10.8 10.8v226.1h28.7z" fill="url(#SVGID_39_)"/><path d="m396.2 278.9v-11c0-6-4.8-10.8-10.8-10.8h-48.4c-6 0-10.8 4.8-10.8 10.8v11z" fill="url(#SVGID_40_)"/></g></g><path d="m403.6 499h-295.2c-2.8 0-5-2.2-5-5s2.2-5 5-5h295.2c2.8 0 5 2.2 5 5s-2.2 5-5 5z" fill="url(#SVGID_41_)"/></g></g><g><path d="m392.4 165.7c-3.5-4.5-8.9-7.4-15-7.4-10.5 0-19 8.5-19 19 0 3.8 1.1 7.3 3 10.3l-52.6 58.4s-.1-.1-.2-.1c-1-1.3-65.2-65.5-66.5-66.5-3.5-4.5-8.9-7.4-15-7.4-9.2 0-16.9 6.6-18.6 15.4-.2-.1-40.9-41.7-42.6-42.2-.6-2.1-2.5-3.7-4.8-3.7h-97.7c-2.8 0-5 2.2-5 5 0 2.3 1.6 4.2 3.7 4.8.5 1.7 31.9 32.6 32.2 33h-30.9c-2.8 0-5 2.2-5 5 0 2.3 1.6 4.2 3.7 4.8.5 1.7 81.1 82 81.6 82.5l-.9 1.1c-2.4-1.1-5.1-1.8-8-1.8-10.5 0-19 8.5-19 19 0 6.1 2.9 11.6 7.4 15.1.7.9 90.8 91.1 149.7 149.9h208.3c17 0 30.8-13.8 30.8-30.8v-143.9c-30.1-30.3-118.5-118.7-119.6-119.5z" fill="url(#SVGID_42_)"/><g><path d="m134.8 299.5c-1.2 0-2.3-.4-3.3-1.2-2.1-1.8-2.3-5-.5-7.1l92.2-107.6c1-1.2 2.5-1.8 4-1.7s2.9.8 3.8 2l60.4 81.2 82.2-91.3c1.8-2.1 5-2.2 7.1-.4s2.2 5 .4 7.1l-86.3 95.8c-1 1.1-2.5 1.7-3.9 1.6-1.5-.1-2.9-.8-3.8-2l-60.3-80.9-88.2 102.8c-1 1.1-2.4 1.7-3.8 1.7z" fill="url(#SVGID_43_)"/><g><circle cx="134.8" cy="294.8" fill="url(#SVGID_44_)" r="19"/><circle cx="134.8" cy="294.8" fill="url(#SVGID_45_)" r="19"/><circle cx="134.8" cy="294.8" fill="url(#SVGID_46_)" r="19"/></g><g><circle cx="227" cy="190.8" fill="url(#SVGID_47_)" r="19"/><circle cx="227" cy="190.8" fill="url(#SVGID_48_)" r="19"/><circle cx="227" cy="190.8" fill="url(#SVGID_49_)" r="19"/></g><g><circle cx="291" cy="270.3" fill="url(#SVGID_50_)" r="19"/><circle cx="291" cy="270.3" fill="url(#SVGID_51_)" r="19"/><circle cx="291" cy="270.3" fill="url(#SVGID_52_)" r="19"/></g><g><circle cx="377.3" cy="177.2" fill="url(#SVGID_53_)" r="19"/><circle cx="377.3" cy="177.2" fill="url(#SVGID_54_)" r="19"/><circle cx="377.3" cy="177.2" fill="url(#SVGID_55_)" r="19"/></g></g><path d="m161 151.3h-97.6c-2.8 0-5-2.2-5-5s2.2-5 5-5h97.6c2.8 0 5 2.2 5 5s-2.3 5-5 5zm-33.8 37.8c0-2.8-2.2-5-5-5h-58.8c-2.8 0-5 2.2-5 5s2.2 5 5 5h58.8c2.8 0 5-2.2 5-5z" fill="url(#SVGID_56_)"/></g></g></g></svg>