<svg id="Layer_1" height="512" viewBox="0 0 48 48" width="512" xmlns="http://www.w3.org/2000/svg" xmlns:xlink="http://www.w3.org/1999/xlink" data-name="Layer 1"><linearGradient id="linear-gradient" gradientUnits="userSpaceOnUse" x1="18.565" x2="27.96" y1="37.871" y2="42.415"><stop offset="0" stop-color="#2b50d2"/><stop offset="1" stop-color="#182ea5"/></linearGradient><linearGradient id="linear-gradient-2" gradientUnits="userSpaceOnUse" x1="9.965" x2="39.967" y1="42.043" y2="47.722"><stop offset="0" stop-color="#4793eb"/><stop offset="1" stop-color="#2367ec"/></linearGradient><linearGradient id="linear-gradient-3" x1="5.024" x2="43.355" xlink:href="#linear-gradient-2" y1="11.287" y2="37.977"/><linearGradient id="linear-gradient-4" gradientUnits="userSpaceOnUse" x1="22.946" x2="24.984" y1="34.946" y2="36.984"><stop offset="0" stop-color="#edf1f2"/><stop offset="1" stop-color="#c6cbcc"/></linearGradient><linearGradient id="linear-gradient-5" gradientUnits="userSpaceOnUse" x1="7.466" x2="41.047" y1="13.878" y2="32.405"><stop offset="0" stop-color="#6fc6fc"/><stop offset="1" stop-color="#50a7f6"/></linearGradient><linearGradient id="linear-gradient-6" x1="9.833" x2="39.331" xlink:href="#linear-gradient-2" y1="26.888" y2="29.204"/><linearGradient id="linear-gradient-7" gradientUnits="userSpaceOnUse" x1="31.156" x2="38.332" y1="16.045" y2="18.564"><stop offset="0" stop-color="#edf1f2"/><stop offset=".329" stop-color="#e9edee"/><stop offset=".637" stop-color="#dee2e3"/><stop offset=".937" stop-color="#cbd0d1"/><stop offset="1" stop-color="#c6cbcc"/></linearGradient><linearGradient id="linear-gradient-8" gradientUnits="userSpaceOnUse" x1="34.051" x2="36.883" y1="7.67" y2="8.744"><stop offset="0" stop-color="#c6cbcc"/><stop offset="1" stop-color="#9fa5a6"/></linearGradient><linearGradient id="linear-gradient-9" x1="32.287" x2="35.119" xlink:href="#linear-gradient-8" y1="12.322" y2="13.396"/><linearGradient id="linear-gradient-10" x1="30.523" x2="33.355" xlink:href="#linear-gradient-8" y1="16.973" y2="18.047"/><linearGradient id="linear-gradient-11" x1="28.759" x2="31.59" xlink:href="#linear-gradient-8" y1="21.624" y2="22.698"/><linearGradient id="linear-gradient-12" x1="26.994" x2="29.826" xlink:href="#linear-gradient-8" y1="26.275" y2="27.35"/><linearGradient id="linear-gradient-13" x1="11.677" x2="17.83" xlink:href="#linear-gradient-7" y1="23.307" y2="21.588"/><linearGradient id="linear-gradient-14" gradientUnits="userSpaceOnUse" x1="11.081" x2="17.398" y1="21.083" y2="19.325"><stop offset="0" stop-color="#c6cbcc"/><stop offset=".329" stop-color="#c2c7c8"/><stop offset=".637" stop-color="#b7bcbd"/><stop offset=".937" stop-color="#a4aaab"/><stop offset="1" stop-color="#9fa5a6"/></linearGradient><linearGradient id="linear-gradient-15" gradientUnits="userSpaceOnUse" x1="7.512" x2="14.66" y1="10.984" y2="8.541"><stop offset="0" stop-color="#c2763e"/><stop offset="1" stop-color="#8a552e"/></linearGradient><linearGradient id="linear-gradient-16" gradientUnits="userSpaceOnUse" x1="20" x2="28" y1="15" y2="15"><stop offset="0" stop-color="#fed200"/><stop offset=".272" stop-color="#fdce01"/><stop offset=".528" stop-color="#fcc305"/><stop offset=".776" stop-color="#f9b00c"/><stop offset="1" stop-color="#f59815"/></linearGradient><linearGradient id="linear-gradient-17" gradientUnits="userSpaceOnUse" x1="20.029" x2="27.971" y1="6.045" y2="6.045"><stop offset="0" stop-color="#faeae1"/><stop offset=".256" stop-color="#f8e4d8"/><stop offset=".671" stop-color="#f2d3c0"/><stop offset="1" stop-color="#edc2a8"/></linearGradient><linearGradient id="linear-gradient-18" gradientUnits="userSpaceOnUse" x1="21.346" x2="25.961" y1="3.545" y2="3.545"><stop offset="0" stop-color="#3e4154"/><stop offset="1" stop-color="#1b2129"/></linearGradient><path d="m19 37h10v7h-10z" fill="url(#linear-gradient)"/><path d="m36.333 42h-24.666a3.667 3.667 0 0 0 -3.667 3.667 1.333 1.333 0 0 0 1.333 1.333h29.334a1.333 1.333 0 0 0 1.333-1.333 3.667 3.667 0 0 0 -3.667-3.667z" fill="url(#linear-gradient-2)"/><rect fill="url(#linear-gradient-3)" height="29" rx="5" width="42" x="3" y="10"/><circle cx="24" cy="36" fill="url(#linear-gradient-4)" r="1.5"/><rect fill="url(#linear-gradient-5)" height="20" rx="2" width="36" x="6" y="13"/><path d="m38 29h-28a1 1 0 0 1 0-2h28a1 1 0 0 1 0 2z" fill="url(#linear-gradient-6)" opacity=".5"/><path d="m41.463 5.583-5.8-1.553a1 1 0 0 0 -1.224.707l-6.498 24.263h8.282l5.947-22.193a1 1 0 0 0 -.707-1.224z" fill="url(#linear-gradient-7)"/><path d="m35.339 9.118-1.932-.518.518-1.931 1.932.517a1 1 0 0 1 .707 1.225 1 1 0 0 1 -1.225.707z" fill="url(#linear-gradient-8)" opacity=".5"/><path d="m34.045 13.948-1.932-.518.518-1.932 1.932.518a1 1 0 0 1 .707 1.225 1 1 0 0 1 -1.225.707z" fill="url(#linear-gradient-9)" opacity=".5"/><path d="m32.751 18.777-1.932-.517.518-1.932 1.932.517a1 1 0 0 1 .707 1.225 1 1 0 0 1 -1.225.707z" fill="url(#linear-gradient-10)" opacity=".5"/><path d="m31.457 23.607-1.932-.518.518-1.932 1.931.518a1 1 0 0 1 .708 1.225 1 1 0 0 1 -1.225.707z" fill="url(#linear-gradient-11)" opacity=".5"/><path d="m30.163 28.437-1.932-.518.518-1.932 1.931.518a1 1 0 0 1 .707 1.224 1 1 0 0 1 -1.224.708z" fill="url(#linear-gradient-12)" opacity=".5"/><path d="m13.5 29h6.265l-2.65-11.473c-.006-.024-.013-.049-.02-.073l-.009-.031a3.4 3.4 0 1 0 -6.542 1.861z" fill="url(#linear-gradient-13)"/><path d="m11.372 22.007 6.382-1.71-.45-1.95-6.514 1.746z" fill="url(#linear-gradient-14)" opacity=".5"/><path d="m12.062 15.565a4.071 4.071 0 0 1 -3.9-3.037 8.925 8.925 0 0 1 .166-4.65 5.485 5.485 0 0 0 .215-2.619 1 1 0 0 1 1.378-1.17c.2.09 4.863 2.244 5.968 6.369a4.043 4.043 0 0 1 -2.808 4.973 3.915 3.915 0 0 1 -1.019.134z" fill="url(#linear-gradient-15)"/><path d="m20 29v-17.916a6.012 6.012 0 0 1 .365-2.062l2.7-7.366a1 1 0 0 1 1.878 0l2.7 7.366a6.012 6.012 0 0 1 .357 2.062v17.916z" fill="url(#linear-gradient-16)"/><path d="m27.635 9.022-2.7-7.366a1 1 0 0 0 -1.878 0l-2.7 7.366a6 6 0 0 0 -.336 1.73 5.918 5.918 0 0 0 3.979-.01 5.918 5.918 0 0 0 3.971.01 6 6 0 0 0 -.336-1.73z" fill="url(#linear-gradient-17)"/><path d="m24 6.09a8.982 8.982 0 0 0 2.436-.343l-1.5-4.091a1 1 0 0 0 -1.878 0l-1.5 4.091a8.982 8.982 0 0 0 2.442.343z" fill="url(#linear-gradient-18)"/></svg>