<?xml version="1.0" encoding="iso-8859-1"?>
<!-- Generator: Adobe Illustrator 19.0.0, SVG Export Plug-In . SVG Version: 6.00 Build 0)  -->
<svg version="1.1" id="Capa_1" xmlns="http://www.w3.org/2000/svg" xmlns:xlink="http://www.w3.org/1999/xlink" x="0px" y="0px"
	 viewBox="0 0 512 512" style="enable-background:new 0 0 512 512;" xml:space="preserve">
<path style="fill:#C3D9DF;" d="M477.555,416.29H34.445c-19.022,0-34.442-15.42-34.442-34.442V96.267
	c0-19.022,15.42-34.442,34.442-34.442h443.11c19.022,0,34.442,15.42,34.442,34.442v285.581
	C511.997,400.87,496.577,416.29,477.555,416.29z"/>
<path style="fill:#A7CBD3;" d="M512,97.34V380.78c0,19.606-15.905,35.511-35.521,35.511h-54.106
	c19.606,0,35.511-15.906,35.511-35.511V97.34c0-19.617-15.905-35.511-35.511-35.511h54.107C496.095,61.828,512,77.723,512,97.34z"/>
<path style="fill:#21CBF9;" d="M469.579,339.266H42.421c-2.76,0-4.998-2.238-4.998-4.998V130.055c0-2.76,2.238-4.998,4.998-4.998
	h427.158c2.76,0,4.998,2.238,4.998,4.998v204.212C474.577,337.029,472.34,339.266,469.579,339.266z"/>
<path style="fill:#1CAFE8;" d="M469.579,339.266h-37.105V125.057h37.105c2.76,0,4.998,2.238,4.998,4.998v204.212
	C474.577,337.029,472.34,339.266,469.579,339.266z"/>
<path style="fill:#C3D9DF;" d="M356.144,511.575H155.856c-2.76,0-4.998-2.238-4.998-4.998v-26.853c0-2.76,2.238-4.998,4.998-4.998
	h200.288c2.76,0,4.998,2.238,4.998,4.998v26.853C361.142,509.336,358.904,511.575,356.144,511.575z"/>
<path style="fill:#A7CBD3;" d="M356.144,511.575h-23.231v-36.85h23.231c2.76,0,4.998,2.238,4.998,4.998v26.853
	C361.142,509.336,358.904,511.575,356.144,511.575z"/>
<rect x="220.918" y="416.754" style="fill:#C3D9DF;" width="70.167" height="57.971"/>
<rect x="262.474" y="416.754" style="fill:#A7CBD3;" width="28.61" height="57.971"/>
<path style="fill:#648093;" d="M512,379.192v1.587c0,19.606-15.905,35.511-35.521,35.511H35.521C15.905,416.291,0,400.385,0,380.779
	v-1.587L512,379.192L512,379.192z"/>
<path style="fill:#586F7F;" d="M512,379.192v1.587c0,19.606-15.905,35.511-35.521,35.511h-54.354
	c19.617,0,35.521-15.906,35.521-35.511v-1.587H512z"/>
<g>
	<path style="fill:#648093;" d="M56.395,106.549c-0.49,0-0.98-0.05-1.46-0.15c-0.48-0.09-0.95-0.24-1.41-0.43
		c-0.45-0.18-0.88-0.41-1.29-0.69c-0.41-0.27-0.79-0.58-1.14-0.93c-1.4-1.39-2.199-3.319-2.199-5.298c0-0.49,0.05-0.98,0.15-1.471
		c0.1-0.47,0.24-0.949,0.43-1.399c0.19-0.45,0.42-0.89,0.69-1.29c0.27-0.41,0.59-0.8,0.93-1.14c0.35-0.351,0.73-0.66,1.14-0.94
		c0.41-0.27,0.84-0.5,1.29-0.69c0.46-0.18,0.93-0.329,1.41-0.42c2.429-0.5,5.028,0.301,6.768,2.05
		c1.39,1.39,2.189,3.318,2.189,5.298c0,1.969-0.8,3.909-2.189,5.298C60.303,105.749,58.375,106.549,56.395,106.549z"/>
	<path style="fill:#648093;" d="M85.056,106.549c-0.49,0-0.98-0.05-1.47-0.15c-0.47-0.09-0.95-0.24-1.4-0.43
		c-0.45-0.18-0.89-0.41-1.29-0.69c-0.41-0.27-0.8-0.58-1.14-0.93c-1.4-1.39-2.199-3.319-2.199-5.298c0-1.979,0.8-3.909,2.199-5.298
		c0.34-0.351,0.73-0.66,1.14-0.94c0.4-0.27,0.84-0.5,1.29-0.69c0.45-0.18,0.93-0.329,1.4-0.42c2.439-0.5,5.028,0.301,6.768,2.05
		c1.4,1.39,2.199,3.328,2.199,5.298c0,1.969-0.8,3.909-2.199,5.298C88.964,105.749,87.036,106.549,85.056,106.549z"/>
	<path style="fill:#648093;" d="M113.717,106.549c-1.979,0-3.909-0.8-5.308-2.199c-1.39-1.39-2.189-3.329-2.189-5.298
		c0-1.97,0.8-3.909,2.189-5.298c1.739-1.749,4.329-2.55,6.768-2.05c0.48,0.091,0.95,0.24,1.4,0.42c0.46,0.19,0.89,0.421,1.3,0.69
		c0.41,0.28,0.79,0.59,1.14,0.94c1.4,1.39,2.199,3.318,2.199,5.298c0,1.978-0.8,3.909-2.199,5.298c-0.35,0.35-0.73,0.66-1.14,0.93
		c-0.41,0.28-0.84,0.511-1.3,0.69c-0.45,0.189-0.92,0.34-1.4,0.43C114.697,106.499,114.206,106.549,113.717,106.549z"/>
</g>
<path style="fill:#FAFCFC;" d="M339.573,280.608c-0.234,0-0.466,0.012-0.699,0.018c-2.944-9.202-11.563-15.867-21.743-15.867
	c-2.438,0-4.785,0.386-6.988,1.094c0.002-0.124,0.009-0.246,0.009-0.371c0-12.607-10.22-22.828-22.828-22.828
	c-4.56,0-8.803,1.342-12.367,3.645c-4.098-6.098-11.059-10.111-18.959-10.111c-7.899,0-14.86,4.014-18.959,10.111
	c-3.565-2.303-7.808-3.645-12.367-3.645c-12.607,0-22.828,10.22-22.828,22.828c0,0.124,0.007,0.247,0.009,0.371
	c-2.202-0.708-4.55-1.094-6.988-1.094c-10.179,0-18.799,6.664-21.743,15.867c-0.233-0.006-0.465-0.018-0.699-0.018
	c-16.248,0-29.419,13.172-29.419,29.419s13.172,29.42,29.419,29.42c7.923,0,160.962,0,167.145,0
	c16.248,0,29.419-13.172,29.419-29.42C368.993,293.781,355.821,280.608,339.573,280.608z"/>
<path style="fill:#E1F0F4;" d="M368.997,310.033c0,10.895-5.917,20.399-14.72,25.482c1.875-3.959,2.917-8.38,2.917-13.05
	c0-2.967-0.427-5.933-1.276-8.777c-2.04-6.84-6.513-12.844-12.459-16.786c-2.992-1.983-6.331-3.434-9.825-4.261
	c-1.805-0.427-3.643-0.678-5.495-0.782c-0.835-0.047-1.666-0.102-2.316-0.71c-0.604-0.566-0.791-1.469-1.132-2.191
	c-0.593-1.258-1.297-2.463-2.1-3.598c-4.428-6.252-11.751-10.044-19.413-10.044c-2.07,0-4.079,0.525-6.132,0.638
	c-1.792,0.099-1.238-2.417-1.428-3.621c-0.211-1.335-0.536-2.651-0.971-3.931c-0.863-2.534-2.159-4.916-3.814-7.021
	c-4.482-5.699-11.453-9.094-18.704-9.094c-2.768,0-5.531,0.486-8.131,1.437c-1.299,0.475-2.46,1.157-3.707,1.732
	c-1.103,0.509-1.566-0.161-2.232-0.992c-0.625-0.78-1.301-1.52-2.018-2.214c-1.44-1.394-3.055-2.605-4.796-3.597
	c-3.566-2.029-7.638-3.098-11.739-3.098c-0.67,0-1.33,0.031-1.989,0.093c4.124-5.731,10.874-9.463,18.482-9.463
	c7.895,0,14.864,4.021,18.957,10.113c3.567-2.298,7.813-3.639,12.37-3.639c12.607,0,22.822,10.216,22.822,22.823v0.371
	c2.195-0.701,4.546-1.093,6.979-1.093c10.185,0,18.802,6.67,21.75,15.864c0.227,0,0.464-0.01,0.701-0.01
	C355.823,280.613,368.997,293.777,368.997,310.033z"/>
<g>
	<path style="fill:#ED4C32;" d="M195.984,137.039c0,0-19.076,19.434-21.712,54.786c-0.284,3.81,3.509,6.613,7.056,5.195
		l28.763-11.494C210.09,185.525,201.383,167.049,195.984,137.039z"/>
	<path style="fill:#ED4C32;" d="M316.473,137.039c0,0,19.076,19.434,21.712,54.786c0.284,3.81-3.509,6.613-7.056,5.195
		l-28.763-11.494C302.365,185.525,311.074,167.049,316.473,137.039z"/>
</g>
<path style="fill:#E1F0F4;" d="M312.071,58.223H199.93c0,0-21.805,74.245,17.652,141.738h76.838
	C333.876,132.467,312.071,58.223,312.071,58.223z"/>
<path style="fill:#C3D9DF;" d="M294.418,199.962h-17.404c39.459-67.497,17.657-141.736,17.657-141.736h17.404
	C312.076,58.228,333.877,132.465,294.418,199.962z"/>
<path style="fill:#ED4C32;" d="M252.201,2.08L199.93,58.223h56.071h56.071L259.8,2.08C257.747-0.125,254.254-0.125,252.201,2.08z"/>
<path style="fill:#E22B2B;" d="M312.076,58.228h-16.493L247.754,6.852l4.443-4.772c2.061-2.206,5.545-2.206,7.607,0L312.076,58.228z
	"/>
<circle style="fill:#B2EAF7;" cx="255.996" cy="107.025" r="27.001"/>
<path style="fill:#8FE2EF;" d="M282.997,107.026c0,14.916-12.091,26.997-26.996,26.997c-3.092,0-6.071-0.526-8.834-1.495
	c10.566-3.649,18.152-13.69,18.152-25.503c0-11.803-7.587-21.843-18.152-25.502c2.763-0.969,5.742-1.495,8.834-1.495
	C270.906,80.029,282.997,92.12,282.997,107.026z"/>
<path style="fill:#C3D9DF;" d="M237.044,246.297c-0.268-0.175-0.546-0.34-0.835-0.505c0.433-0.072,0.866-0.124,1.31-0.145
	C237.343,245.864,237.188,246.081,237.044,246.297z"/>
<path style="fill:#FFD527;" d="M288.347,199.96H256h-32.347c0,0-14.925,16.791-11.933,40.562c0.439,3.486,4.092,5.573,7.282,4.103
	l4.679-2.157c3.31-1.526,7.144,0.767,7.304,4.408c0.286,6.525,2.191,16.191,9.539,25.709c1.88,2.435,5.442,2.744,7.671,0.622
	l4.252-4.049c1.99-1.895,5.118-1.895,7.109,0l4.252,4.049c2.228,2.122,5.79,1.813,7.671-0.622
	c7.348-9.517,9.253-19.183,9.539-25.709c0.16-3.641,3.994-5.934,7.304-4.408l4.679,2.157c3.19,1.471,6.844-0.617,7.283-4.103
	C303.272,216.751,288.347,199.96,288.347,199.96z"/>
<path style="fill:#E08E22;" d="M300.283,240.525c-0.443,3.484-4.093,5.566-7.288,4.103l-4.679-2.164
	c-3.309-1.526-7.144,0.773-7.298,4.412c-0.289,6.525-2.195,16.194-9.545,25.709c-1.876,2.433-5.442,2.742-7.669,0.619l-4.247-4.051
	c-1.989-1.886-5.123-1.886-7.113,0l-4.247,4.051c-2.226,2.123-5.793,1.814-7.669-0.619c-3.402-4.392-5.628-8.813-7.072-12.947
	c0.227-0.144,0.443-0.319,0.65-0.516l4.258-4.051c1.989-1.896,5.112-1.896,7.103,0l4.257,4.051c2.226,2.113,5.783,1.814,7.67-0.629
	c7.35-9.514,9.246-19.184,9.535-25.709c0.165-3.639,4-5.927,7.309-4.402l4.679,2.154c3.185,1.474,6.834-0.619,7.278-4.103
	c1.32-10.453-0.835-19.555-3.66-26.471h5.814C288.347,199.962,303.273,216.755,300.283,240.525z"/>
<g>
</g>
<g>
</g>
<g>
</g>
<g>
</g>
<g>
</g>
<g>
</g>
<g>
</g>
<g>
</g>
<g>
</g>
<g>
</g>
<g>
</g>
<g>
</g>
<g>
</g>
<g>
</g>
<g>
</g>
</svg>
