<svg id="Layer_1" enable-background="new 0 0 512 512" viewBox="0 0 512 512" xmlns="http://www.w3.org/2000/svg"><g><g><path clip-rule="evenodd" d="m318.843 33.577c4.773 1.526 9.379 3.441 13.763 5.689l28.665-18.092 28.526 28.526-18.092 28.665c2.248 4.384 4.162 8.991 5.689 13.764l33.077 7.465v40.319l-33.077 7.492c-1.526 4.773-3.441 9.351-5.689 13.764l18.092 28.665-28.526 28.498-28.665-18.092c-4.384 2.248-8.991 4.162-13.763 5.716l-7.465 33.049h-40.318l-7.493-33.049c-4.773-1.554-9.351-3.469-13.736-5.716l-28.693 18.092-28.498-28.498 18.092-28.665c-2.275-4.412-4.19-8.991-5.716-13.791l-33.049-7.465v-40.321l33.049-7.465c1.526-4.773 3.441-9.379 5.716-13.764l-18.092-28.692 28.498-28.498 28.665 18.092c4.412-2.248 8.991-4.162 13.763-5.689l7.494-33.076h40.319z" fill="#ff5ba8" fill-rule="evenodd"/></g><g><path clip-rule="evenodd" d="m382.777 196.825-21.505 21.506-16.234-10.239c13.486-1.416 26.223-5.329 37.739-11.267zm-64.294 10.739-7.104 31.44h-40.319l-7.493-33.049c-4.773-1.554-9.351-3.469-13.736-5.716l-28.693 18.092-28.498-28.498 18.092-28.665c-2.275-4.412-4.19-8.991-5.716-13.791l-33.049-7.465v-40.32l33.049-7.465c1.526-4.773 3.441-9.379 5.716-13.764l-18.092-28.692 28.498-28.498 26.417 16.677c-13.153 17.815-20.923 39.82-20.923 63.657.001 53.972 39.904 98.648 91.851 106.057z" fill="#ed4593" fill-rule="evenodd"/></g><g><path clip-rule="evenodd" d="m291.205 56.858c34.742 0 62.908 28.165 62.908 62.907s-28.166 62.879-62.908 62.879-62.879-28.138-62.879-62.879 28.137-62.907 62.879-62.907z" fill="#e4e3ff" fill-rule="evenodd"/></g><g><path clip-rule="evenodd" d="m291.205 84.58c19.425 0 35.186 15.762 35.186 35.186s-15.761 35.158-35.186 35.158c-19.424 0-35.158-15.734-35.158-35.158s15.734-35.186 35.158-35.186z" fill="#5b5e8b" fill-rule="evenodd"/></g><g><path clip-rule="evenodd" d="m301.611 178.205c-34.742 0-62.907-28.165-62.907-62.907 0-23.92 13.375-44.732 33.049-55.359-25.224 8.186-43.427 31.884-43.427 59.827 0 34.742 28.137 62.879 62.879 62.879 10.822 0 20.979-2.719 29.886-7.52-6.133 1.998-12.681 3.08-19.48 3.08z" fill="#d0d0f7" fill-rule="evenodd"/></g><g><path clip-rule="evenodd" d="m301.14 150.678c-19.425 0-35.186-15.761-35.186-35.186 0-12.57 6.604-23.587 16.539-29.803-15.207 3.885-26.445 17.648-26.445 34.076 0 19.424 15.734 35.158 35.158 35.158 6.854 0 13.237-1.97 18.647-5.356-2.803.723-5.717 1.111-8.713 1.111z" fill="#41456b" fill-rule="evenodd"/></g><g><path clip-rule="evenodd" d="m419.933 253.6c3.052.971 5.966 2.192 8.769 3.635l18.231-11.516 18.148 18.148-11.516 18.231c1.443 2.803 2.664 5.716 3.635 8.769l21.034 4.745v25.64l-21.034 4.773c-.971 3.025-2.193 5.966-3.635 8.741l11.516 18.259-18.148 18.12-18.231-11.516c-2.803 1.443-5.716 2.664-8.769 3.635l-4.745 21.034h-25.668l-4.745-21.034c-3.052-.971-5.966-2.192-8.769-3.635l-18.231 11.516-18.148-18.12 11.516-18.259c-1.443-2.775-2.664-5.716-3.635-8.741l-21.034-4.773v-25.64l21.034-4.745c.971-3.052 2.192-5.966 3.635-8.769l-11.516-18.231 18.148-18.148 18.231 11.516c2.802-1.443 5.716-2.664 8.769-3.635l4.745-21.034h25.668z" fill="#3399fd" fill-rule="evenodd"/></g><g><path clip-rule="evenodd" d="m417.797 372.699-2.608 11.599h-25.669l-4.745-21.034c-3.052-.971-5.966-2.192-8.769-3.635l-18.231 11.516-18.148-18.12 11.516-18.259c-1.443-2.775-2.664-5.716-3.635-8.741l-21.034-4.773v-25.64l21.034-4.745c.971-3.052 2.192-5.966 3.635-8.769l-11.516-18.231 18.148-18.148 18.231 11.516c2.802-1.443 5.716-2.664 8.769-3.635l4.745-21.034h25.668l2.608 11.599c-29.276 6.743-51.086 32.966-51.086 64.267 0 31.329 21.811 57.552 51.087 64.267z" fill="#1f88f0" fill-rule="evenodd"/></g><g><path clip-rule="evenodd" d="m402.368 346.115c20.756 0 37.683-16.927 37.683-37.683s-16.927-37.683-37.683-37.683c-20.784 0-37.711 16.927-37.711 37.683s16.927 37.683 37.711 37.683z" fill="#deddff" fill-rule="evenodd"/></g><g><path clip-rule="evenodd" d="m402.368 270.749c1.554 0 3.08.083 4.579.277-18.647 2.275-33.105 18.148-33.105 37.406s14.457 35.158 33.105 37.406c-1.499.194-3.025.277-4.579.277-20.839 0-37.711-16.872-37.711-37.683 0-20.812 16.872-37.683 37.711-37.683z" fill="#d0d0f7" fill-rule="evenodd"/></g><g><path clip-rule="evenodd" d="m81.422 159.919c23.448-7.354 50.087-1.748 68.651 16.816 18.647 18.647 24.225 45.425 16.733 68.929l174.542 174.57c12.154 12.126 12.154 31.995 0 44.149-12.126 12.126-31.995 12.126-44.149 0l-174.542-174.57c-23.503 7.52-50.281 1.942-68.929-16.733-18.592-18.564-24.197-45.203-16.816-68.651l36.851 36.879 35.13-9.407 9.407-35.103z" fill="#e4e3ff" fill-rule="evenodd"/></g><g><path clip-rule="evenodd" d="m323.228 473.234c-9.241 1.165-18.952-1.776-26.029-8.852l-174.542-174.57c-23.503 7.52-50.281 1.942-68.929-16.733-17.288-17.26-23.337-41.54-18.176-63.712-.028 17.51 6.604 34.992 19.952 48.339 18.647 18.647 45.425 24.225 68.929 16.733z" fill="#d0d0f7" fill-rule="evenodd"/></g><path d="m331.185 429.231c-3.333-3.334-7.764-5.169-12.48-5.169-4.715 0-9.148 1.835-12.479 5.169 0 0 0 0-.001 0-6.88 6.882-6.88 18.079-.02 24.94 3.334 3.359 7.773 5.209 12.499 5.209h.001c4.726 0 9.166-1.85 12.481-5.189 6.879-6.881 6.879-18.079-.001-24.96z" fill="#5b5e8b"/><g><path clip-rule="evenodd" d="m116.719 409.272 18.092-18.092c2.83-26.917 6.271-53.195 14.152-75.061l20.59 20.618 60.52-60.521c5.716-5.744 15.096-5.744 20.812 0l2.469 2.47c5.716 5.716 5.716 15.068 0 20.812l3.941-3.94c5.716-5.744 15.095-5.744 20.812 0l2.47 2.47c5.716 5.716 5.716 15.095 0 20.812l-3.941 3.94c5.716-5.716 15.095-5.716 20.812 0l2.47 2.47c5.716 5.716 5.716 15.095 0 20.812l-9.129 9.13c5.716-5.716 15.095-5.716 20.812 0l2.47 2.47c5.716 5.716 5.716 15.095 0 20.812l-51.392 51.391c-26.805 15.956-57.773 26.722-92.238 33.132z" fill="#ffbfa8" fill-rule="evenodd"/></g><g><path d="m223.636 329.188c-2.636 2.636-6.909 2.636-9.546 0-2.608-2.636-2.608-6.882 0-9.518l40.097-40.098c4.884 5.772 4.606 14.485-.833 19.924z" fill="#faa07f"/></g><g><path d="m280.577 318.838-3.941 3.94-29.719 29.692c-2.636 2.636-6.882 2.636-9.518 0s-2.636-6.882 0-9.518l44.01-44.038c4.885 5.772 4.607 14.485-.832 19.924z" fill="#faa07f"/></g><g><path d="m299.918 346.06-9.129 9.13-20.229 20.229c-2.608 2.608-6.882 2.608-9.518 0-2.636-2.636-2.636-6.909 0-9.546l39.709-39.737c4.884 5.772 4.606 14.485-.833 19.924z" fill="#faa07f"/></g><g><path clip-rule="evenodd" d="m105.999 403.353h48.191v106.741h-48.191z" fill="#3399fd" fill-rule="evenodd" transform="matrix(.707 -.707 .707 .707 -284.848 225.761)"/></g><g><path clip-rule="evenodd" d="m128.876 393.876h21.388v106.741h-21.388z" fill="#1f88f0" fill-rule="evenodd" transform="matrix(.707 -.707 .707 .707 -275.369 229.68)"/></g></g></svg>