<svg id="Layer_1" enable-background="new 0 0 68 68" viewBox="0 0 68 68" xmlns="http://www.w3.org/2000/svg" width="300" height="300" version="1.1" xmlns:xlink="http://www.w3.org/1999/xlink" xmlns:svgjs="http://svgjs.dev/svgjs"><g width="100%" height="100%" transform="matrix(1,0,0,1,0,0)"><g><g><path d="m34.8027611 24.7760887 20.3307037-11.7379379.0791779 27.9288254c.008049 2.8387413-1.9872513 6.3014107-4.4635315 7.7310905l-28.904934 16.6882706c-2.4704704 1.4263306-4.4846611.2785416-4.4927082-2.5602036l-.0791779-27.9288216 3.6449032-2.1043892c.4976788-.2873344.901268-.9864521.8996468-1.5582085l-.0045795-1.6154785c-.0024509-.864275.6031036-1.9130802 1.3493919-2.3439503l8.4701653-4.8902531c.5265636-.3040104 1.0020008-.2255764 1.2290821.1893406l1.1243744 2.0743828c.1513786.2788469.4703293.3277646.8174858.1273328z" fill="#ffffff" fill-opacity="1" data-original-color="#ffffffff" stroke="none" stroke-opacity="1"/></g><g><path d="m55.2175789 40.9674492c0 2.8427696-1.988903 6.2982788-4.470005 7.7347145l-28.8996887 16.684845c-2.4710484 1.426445-4.4901161.2812958-4.5001717-2.5614777l-.0100555-3.8874359c8.3977871 1.5871353 18.1716232-1.2254715 25.7556992-8.2670746 10.6576843-9.874321 13.3396378-24.6606369 6.830452-34.6153336l5.2133331-3.0135221z" fill="#e9edf4" fill-opacity="1" data-original-color="#e9edf4ff" stroke="none" stroke-opacity="1"/></g><g><path d="m18.6636772 65.69841-4.4800625-2.6016426c-.8036547-.4620972-1.2958536-1.4565468-1.3059082-2.8728752l-.0804395-27.9253464 4.4700079 2.6016998.0804386 27.9252853c.0100555 1.406334.5022545 2.4007875 1.3159637 2.8728791z" fill="#108aff" fill-opacity="1" data-original-color="#e8b72dff" stroke="none" stroke-opacity="1"/></g><g><path d="m50.6258316 5.2126355c2.476284-1.4296825 4.4904671-.2818823 4.4985352 2.5635104l.0149078 5.2586641-20.3364983 11.7412825c-.3471642.2004356-.6661072.1515102-.8174973-.127327l-1.1243744-2.0743771c-.2270775-.4149208-.7025223-.4933643-1.2290726-.1893597l-8.4701786 4.8902607c-.7462749.4308624-1.3518314 1.479681-1.3493824 2.3439484l.0045815 1.6154823c.0016212.5717525-.4019794 1.2708836-.8996525 1.5582142l-3.6448975 2.1043816-.0149078-5.2586632c-.0007572-.2667484.0160789-.5389557.0494099-.8144569.3217888-2.6628876 2.1757488-5.6309795 4.4199104-6.9266453z" fill="#ffffff" fill-opacity="1" data-original-color="#ffffffff" stroke="none" stroke-opacity="1"/></g><g><path d="m13.5405931 23.7401886c-.2209625.4821434-.3916502.984396-.5123091 1.4765949-.0301647.1205368-.0603294.2511272-.0804386.371664-.019865.0402184-.019865.0904312-.0299196.1305904-.0201101.0904312-.0301647.1808033-.0402193.2611809-.0201101.0803776-.0301647.1607552-.0402193.2410717-.0301647.281292-.0502748.5524673-.0502748.8237038l.0100546 5.2535515 4.4700079 2.6016998-.0100555-5.263607c0-.2611809.0201111-.5324173.0502739-.8136482.0201111-.1707478.0502758-.3315029.0804405-.5022526 0 0 0 0 0-.0100555.0301647-.1506996.0603294-.3013401.1003036-.4620953.0402184-.1808033.0904942-.3616066.1508217-.5424118.0502758-.1707478.1106052-.3415585.1807442-.5123081.0917187-.2468338.2099247-.4942837.3244534-.7406273l-4.4751577-2.5945892c-.0441438.0927639-.0917198.1835632-.1285059.281538z" fill="#0073e0" fill-opacity="1" data-original-color="#f4c531ff" stroke="none" stroke-opacity="1"/></g><g><path d="m49.341362 2.3039804c-.8137093-.4720888-1.9388771-.4118209-3.1844559.3113947l-28.8996868 16.6848473h-.0098095c-.0102997.0100555-.0201092.0201092-.0304089.0201092-.2709923.1607571-.5321732.3415604-.7833004.5424747l-.3918953.3314419c-.4519787.4018288-.8737936.8638611-1.2455788 1.3761711-.1003036.1406441-.2008524.2712364-.2913465.4118805-.0902481.140646-.1807423.2812309-.2709913.4218769-.0904932.140646-.1709328.2912846-.2511263.4319305-.0904942.1506996-.1608782.3013401-.2312622.4419861-.0313911.058857-.0541983.121088-.0824013.1805573l4.4751577 2.5945892c.0485573-.1044731.0868149-.2123795.1375809-.3140926.0804386-.140646.1508217-.281292.2310162-.4118824.0804386-.1606941.1809883-.3113937.281292-.4720879.0904942-.1507015.1910419-.3013401.3014011-.4520416.1106033-.1606941.2209606-.3113937.351675-.4620342.1003036-.140646.210907-.2712364.3313198-.4018269.1005497-.1205349.2008533-.2310162.3114567-.3415585.1606331-.1606941.3215103-.3213882.4821434-.4620342.2410717-.2109699.4821434-.4018288.7332706-.5725765.1307144-.0904331.2511272-.1707497.3818398-.2410717.0100555-.0100555.0201111-.0100555.0301647-.0201111h.0100555l28.8996869-16.6848469c1.2453346-.7232771 2.3704987-.7935996 3.1842117-.3214498z" fill="#0073de" fill-opacity="1" data-original-color="#ffd63cff" stroke="none" stroke-opacity="1"/></g><g><path d="m19.8369026 66.4019928c-.496582 0-.9584961-.1171875-1.3696289-.3535156-.9731445-.5605469-1.5117188-1.7041016-1.515625-3.2216797l-.0791016-27.9287109c-.0004883-.1435547.0756836-.2753906.199707-.3476563l3.6445313-2.1044922c.3740234-.2158203.7011719-.78125.7001953-1.2099609l-.0043945-1.6162109c-.0029297-1.0058594.6777344-2.1884766 1.5488281-2.6914063l8.4702148-4.8896484c.3876953-.2236328.7724609-.2919922 1.1157227-.1962891.284668.0800781.5146484.2666016.6645508.5400391l1.125 2.0761719c.0727539.0449219.1542969.0341797.2661133-.0292969l20.3300781-11.7382813c.1240234-.0703125.2758789-.0703125.3999023 0 .1235352.0712891.199707.203125.2001953.3457031l.0795898 27.9296875c.0083008 2.9648438-2.0839844 6.5888672-4.6635742 8.078125l-28.9047851 16.6884766c-.7705078.4443359-1.5214843.6689453-2.2075195.6689453zm-2.1635742-31.2744141.078125 27.6972656c.003418 1.2197266.3994141 2.1181641 1.1147461 2.5302734.7216797.4130859 1.7089844.3027344 2.777832-.3154297l28.9047852-16.6884766c2.3588867-1.3613281 4.2714844-4.6728516 4.2641602-7.3828125l-.0776367-27.2392578-19.732422 11.3935548c-.0004883 0-.0004883 0-.0004883 0-.2905273.1660156-.581543.2158203-.8466797.1425781-.2216797-.0625-.4067383-.2138672-.5219727-.4248047l-1.1245117-2.0751953c-.0444336-.0810547-.1030273-.1318359-.1777344-.1523438-.1274414-.0341797-.3085938.0078125-.4995117.1181641l-8.4702148 4.890625c-.625.3603516-1.1513672 1.2744141-1.1494141 1.9960938l.0043945 1.6162109c.0019531.7119141-.4814453 1.5488281-1.1000977 1.9052734zm17.1293945-10.3515625h.0097656z" fill="#000000" fill-opacity="1" data-original-color="#000000ff" stroke="none" stroke-opacity="1"/></g><g><path d="m18.6630745 66.0992584c-.0678711 0-.137207-.0175781-.2001953-.0546875l-4.4799814-2.6025391c-.9594727-.5507813-1.4946289-1.6933594-1.5048828-3.2148438l-.0805664-27.9277344c-.0004883-.1435547.0756836-.2753906.2001953-.3476563.1230469-.0712891.2768555-.0712891.4008789.0009766l4.4697275 2.6015625c.1225586.0712891.1982422.2021484.1987305.3447266l.0805664 27.9257813c.0087891 1.2148438.4047852 2.1132813 1.1147461 2.5273438l.0019531.0009766h.0004883c.190918.1103516.2558594.3554688.1445313.546875-.0742189.1279297-.2080079.1992187-.3461915.1992187zm-5.4638681-33.1035156.0786133 27.2275391c.0083008 1.2236328.4008789 2.1210938 1.1049805 2.5263672l2.7983408 1.625c-.1499023-.4541016-.2294922-.9736328-.2333984-1.5458984l-.0800781-27.6982422z" fill="#000000" fill-opacity="1" data-original-color="#000000ff" stroke="none" stroke-opacity="1"/></g><g><path d="m17.2724495 35.2975006c-.0688477 0-.1376953-.0185547-.199707-.0537109-.1235352-.0712891-.199707-.203125-.2001953-.3457031l-.0151367-5.2587891c-.0004883-.2832031.0170898-.5712891.0522461-.8632813.3432617-2.8398438 2.284668-5.8789063 4.6166992-7.2255859l28.899414-16.6845708c1.3295898-.7675781 2.6020508-.8818359 3.5820313-.3173828.9736328.5605469 1.512207 1.7060547 1.5166016 3.2265625l.0146484 5.2587895c.0004883.1435547-.0756836.2753906-.199707.3476563l-20.3364259 11.7412109c-.2910156.1660156-.5820313.2158203-.847168.1425781-.2216797-.0625-.4067383-.2138672-.5219727-.4248047l-1.1245117-2.0751953c-.0444336-.0810547-.1030273-.1318359-.1777344-.1523438-.1274414-.0341797-.3085938.0078125-.4995117.1181641l-8.4702148 4.890625c-.625.3603516-1.1513672 1.2744141-1.1494141 1.9960938l.0043945 1.6162109c.0019531.7119141-.4814453 1.5488281-1.1000977 1.9052734l-3.644043 2.1044922c-.0620249.0351563-.1313475.053711-.2001951.053711zm35.3637695-30.3017583c-.5458984 0-1.1625977.1894531-1.8100586.5634766l-28.899414 16.6845708c-2.097168 1.2109375-3.9125977 4.0605469-4.2231445 6.6279297-.03125.2587891-.046875.515625-.0463867.765625l.0131836 4.5683594 3.0463867-1.7597656c.3740234-.2158203.7011719-.78125.7001953-1.2099609l-.0043945-1.6162109c-.0029297-1.0058594.6777344-2.1884766 1.5488281-2.6914063l8.4702148-4.8896484c.3876953-.2236328.7724609-.2919922 1.1157227-.1962891.284668.0800781.5146484.2666016.6645508.5400391l1.125 2.0761719c.0727539.0449219.1542969.0341797.2661133-.0292969l20.1352539-11.625-.0136719-5.0273442c-.0039063-1.2226563-.3999023-2.1230469-1.1157227-2.5351563-.2861328-.1640626-.6142578-.2460939-.9726563-.2460939zm-2.0102539.2167969h.0097656z" fill="#000000" fill-opacity="1" data-original-color="#000000ff" stroke="none" stroke-opacity="1"/></g><g><path d="m17.2670784 35.3004303c-.0693359 0-.1391602-.0185547-.2011719-.0546875l-4.4697275-2.6015625c-.1230469-.0712891-.1987305-.203125-.1987305-.3447266l-.0102539-5.2539063c0-.2851563.0205078-.5712891.0527344-.8671875.0141602-.1123047.0268555-.2050781.050293-.2978516.003418-.0546875.015625-.1513672.0371094-.2480469.0073242-.0449219.0151367-.0957031.0327148-.1503906.0214844-.1181641.0507813-.2451172.0800781-.3623047.1293945-.5283203.3085938-1.0449219.53125-1.5341797.0307617-.0800781.0673828-.15625.1044922-.2324219.0483398-.1005859.1533203-.2099609.2597532-.2421875.106946-.0332031.2382936-.0537109.3339968.0019531l4.4750986 2.5947266c.1787109.1035156.2490234.3261719.1621094.5136719-.1347656.2900391-.2338867.5019531-.3120117.7119141-.0698242.1699219-.1254883.328125-.171875.4863281-.0605469.1806641-.1069336.3476563-.144043.515625-.0410156.1640625-.0698242.3085938-.0981445.453125-.0356445.2099609-.0595703.3417969-.0756836.4814453-.0283203.2626953-.0478516.5195313-.0478516.7666016l.0097656 5.2626953c.0004883.1435547-.0761719.2763672-.2001953.3476563-.0620117.0351563-.1308593.053711-.199707.053711zm-4.0703135-3.2324219 3.6689463 2.1357422-.0083008-4.5664063c0-.2753906.0205078-.5615234.0522461-.8574219.019043-.1591797.0449219-.3066406.0722656-.4599609.0449219-.2441406.0766602-.4003906.1181641-.5683594.0405273-.1835938.0947266-.3779297.159668-.5722656.0498047-.1699219.1142578-.3535156.1899414-.5380859.0512695-.1367188.112793-.2802734.1782227-.4248047l-3.7773447-2.1904297c-.1796875.4111328-.3251953.8427734-.4335938 1.2851563-.0283203.1132813-.0561523.2333984-.074707.3427734-.0063477.0380859-.0180664.0751953-.0351563.1103516-.0141602.1113281-.0219727.1826172-.0297852.2451172-.0273438.1298828-.0336914.1904297-.0415039.25-.0292969.2714844-.0488281.5283203-.0488281.7851563z" fill="#000000" fill-opacity="1" data-original-color="#000000ff" stroke="none" stroke-opacity="1"/></g><g><g><g enable-background="new"><g><path d="m43.4617882 13.5887413c.5674362-.32761 1.0235634-.0566397 1.0253906.5879507.0018501.6522293-.4512749 1.4407053-1.0187111 1.7683153-.5642014.3257408-1.0266914.0658951-1.0285378-.5863342-.0018272-.6445913.4576569-1.44419 1.0218583-1.7699318z" fill="#000000" fill-opacity="1" data-original-color="#000000ff" stroke="none" stroke-opacity="1"/></g></g></g><g><g enable-background="new"><g><path d="m47.2741928 11.3876476c.5674362-.3276091 1.0235634-.0566397 1.0253906.5879517.0018501.6522284-.4512749 1.4407043-1.0187111 1.7683144-.5641975.3257408-1.0266876.0658951-1.0285378-.5863342-.0018271-.6445914.457657-1.4441901 1.0218583-1.7699319z" fill="#000000" fill-opacity="1" data-original-color="#000000ff" stroke="none" stroke-opacity="1"/></g></g></g><g><g enable-background="new"><g><path d="m51.0865974 9.1865549c.56744-.32761 1.0235634-.0566406 1.0253906.5879507.0018501.6522293-.4512711 1.4407043-1.0187073 1.7683144-.5642014.3257418-1.0266914.0658951-1.0285416-.5863342-.0018271-.6445914.4576608-1.4441901 1.0218583-1.7699309z" fill="#000000" fill-opacity="1" data-original-color="#000000ff" stroke="none" stroke-opacity="1"/></g></g></g></g><g><path d="m18.1440315 26.4537506c-.0698242 0-.1391602-.0185547-.2006836-.0546875l-4.4750986-2.5947266c-.1801758-.1044922-.25-.3291016-.1606445-.5175781.0463867-.1054688.0668945-.1523438.0908203-.1972656.097168-.1962891.1625977-.328125.2421875-.4599609l.0556641-.0996094c.0639648-.1142578.1298828-.2314453.2011719-.3417969l.2709961-.421875c.0683594-.1064453.1420898-.2080078.2172852-.3115234l.0854492-.1171875c.3828125-.5273438.8212891-1.0117188 1.3046875-1.4423828l.399415-.3378906c.2724609-.2177734.5512695-.4111328.8369141-.5810547.0048828-.0029297.0092773-.0048828.0136719-.0078125.0229492-.0146484.046875-.0273438.0722656-.0380859l28.8583983-16.6611334c1.3290863-.7714843 2.6020508-.8818358 3.5859375-.3105468l4.4697266 2.5908203c.190918.1103516.2563477.3554688.1455078.5458984-.1113281.1904297-.3540039.2578125-.546875.1455078-.7182617-.4150391-1.7080078-.3027344-2.7827148.3222656l-28.9003907 16.6855474c-.0126953.0068359-.0253906.0136719-.0380859.0185547-.0043945.0029297-.0083008.0048828-.0126953.0078125-.1181641.0634766-.2265625.1357422-.3442383.2167969-.2402344.1640625-.46875.3447266-.6967773.5449219-.1542969.1347656-.3085938.2890625-.4628906.4433594-.1020508.1025391-.1943359.2041016-.2871094.3154297-.1220703.1328125-.2226563.2509766-.3129883.3779297-.1445313.1689453-.2460938.3085938-.3476563.4560547-.1103515.1503905-.2041015.291992-.2890625.432617l-.0693359.1103516c-.0703125.1123047-.1396484.2197266-.1967773.3339844-.0605469.1015625-.1010742.1767578-.1425781.2529297l-.0986328.1787109c-.0136719.0283203-.0336914.078125-.0546875.1279297l-.0678711.15625c-.0473633.1025391-.1352539.1787109-.2426758.2128906-.0390626.0117188-.0795899.0185547-.119629.0185547zm-3.9555673-3.15625 3.7758799 2.1894531.0600586-.109375c.0483398-.0888672.0957031-.1757813.1469727-.2597656.0527344-.1074219.1342773-.2382813.2192383-.3720703l.0634766-.1015625c.0942383-.15625.2016602-.3173828.3193359-.4775391.1118164-.1630859.230957-.3261719.3720703-.4882813.0859375-.1240234.2070313-.2675781.3393555-.4101563.0942383-.1152344.203125-.234375.3222656-.3535156.1665039-.1669922.3344727-.3330078.5014648-.4794922.253418-.2216797.5073242-.4238281.7724609-.6035156.1337891-.0917969.2602539-.1757813.3959961-.25.0024414-.0019531.0048828-.0039063.0078125-.0048828.027832-.0205078.0581055-.0361328.090332-.0488281l28.8515625-16.657227c.5161133-.2998047 1.0234375-.5 1.5078125-.6015625l-2.7939453-1.6191406s0 0-.0004883 0c-.7236328-.4208984-1.7124023-.3085938-2.7822266.3115234l-28.9003906 16.6855474c-.0151367.0078125-.0302734.015625-.0458984.0224609-.2519531.1503906-.4941406.3183594-.7280273.5058594l-.3833008.3242188c-.4331064.3857422-.8325205.8271484-1.1801767 1.3056641l-.0883789.1210938c-.065918.0908203-.1303711.1787109-.1904297.2714844l-.2709961.421875c-.0625.0976563-.1196289.2011719-.1757813.3007813l-.0639648.1142578c-.0556642.0917967-.100586.1787107-.1420899.2626951z" fill="#000000" fill-opacity="1" data-original-color="#000000ff" stroke="none" stroke-opacity="1"/></g><g><g><g><g><path d="m42.6397896 36.3824959c.2693405-.100956.4653358.0564766.4662209.3680305l.0052414 1.8496819c.000885.3115387-.1973877.6944389-.4664154.9065018l-1.1161385.8670082c-.1913071.1519241-.3540192.3964424-.4235802.6460953-.0225334.08284-.046917.1667519-.0752182.2529297-.0808792.2540016-.0594215.4816628.0548782.6033401l.6533203.6942635c.1562538.1672783.1325531.5301208-.0582466.8606911l-1.1357803 1.967289c-.1074486.186142-.2505569.331974-.3951797.4154739-.1121216.0647392-.2251701.0919266-.3232079.0713158l-.9330216-.2119867c-.0954666-.0210304-.206768.004509-.3189888.0693016-.0775604.0447845-.1555786.108326-.2291222.1882324-.0606003.0655441-.1173019.1266556-.1779137.1878357-.1856422.1879272-.3158569.448597-.351326.6916618l-.195385 1.402504c-.0465584.3323975-.2790985.6957932-.5502396.8523445l-2.0798607 1.2008476-.0347252-.220005-.2510414-1.4393425c-.0328255-.2036362-.1679955-.3110809-.3501854-.2866325-.0607605.0088959-.1215286.0156097-.1823044.0201454-.0736504.0050697-.1514664.0315094-.2285156.0759926-.111496.0643768-.2214508.1665993-.3153534.2969475l-.9363785 1.2913284c-.0976105.1335907-.2097206.2363815-.3211212.3007011-.1434898.0828476-.2857208.1017532-.3938732.0401001l-1.1432056-.6514702c-.1958561-.1073227-.2215347-.441658-.0668373-.7884712l.6152267-1.3677673.0321407-.0752945c.1132317-.2530441.133337-.5025215.0512848-.6624565-.0248871-.0554657-.0516186-.1098633-.0765171-.1696815-.0707455-.168644-.2322521-.2259674-.4257469-.1557159l-1.1173973.4225693c-.2693481.0987778-.4654427-.0564232-.4663258-.3679657l-.0052433-1.8496819c-.000885-.3115501.1936836-.6944885.462719-.9043732l1.1179771-.8724365c.1894684-.146492.3483906-.3822746.4179554-.6297569.0263119-.0959358.0544815-.1885643.0864582-.2855911.0753384-.2442665.0499897-.4653168-.0604954-.5870056l-.6552696-.6909599c-.1561623-.1695251-.1286449-.530201.062149-.8651314l1.1319904-1.9607277c.1094017-.1870995.2519951-.3333321.3957901-.4163513.1118126-.0645561.224453-.0908661.3226051-.0682602l.9368134.2054329c.0956726.021965.2083168-.0035439.3215637-.0689316.0756035-.0436516.1514664-.105072.2227516-.1820564.0605011-.0633049.1172981-.1266441.1779099-.1878242.1284866-.250946.2304459-.4494858.3550224-.6981621l.1935463-1.3970833c.0485001-.3356934.2810555-.6947365.5521965-.851284l1.6057663-.927124c.2711449-.1565514.5049667-.0667801.5552139.2118988l.2007179 1.169445c.0367393.2035599.1718063.311058.3541031.2865486.0645714-.0089111.1252327-.017746.1860123-.0201073.0714874-.0054474.1471405-.0315094.222641-.0750999.1130447-.0652695.2256699-.169838.3232727-.3033791l.9268303-1.2814484c.0976944-.1356888.2108383-.2397308.3231621-.3045845.1444206-.0833817.2875786-.1021271.3956261-.0405922l1.1431923.6471062c.1920624.1138802.2177277.4438515.0629349.7929153l-.6472473 1.4473572c-.1112938.2475548-.1353149.4971161-.0551262.6537628.028717.0619774.0573235.12183.0840759.182766.0707436.1664734.2341843.2161293.4201584.1458511z" fill="#0073de" fill-opacity="1" data-original-color="#ffd63cff" stroke="none" stroke-opacity="1"/></g></g><g><g><path d="m43.1057854 36.7514c0-.3118057-.1960335-.4692078-.4661636-.3682289l-1.1225624.4216805c-.1870461.0682945-.3503113.0207901-.4216499-.1455078-.02668-.0623703-.0533562-.1217651-.0830803-.1841164-.0801849-.1573982-.0564041-.4068375.0564003-.6533241l.6472664-1.446209c.1544189-.3504143.1277428-.6800385-.0652504-.7958603l-1.1432953-.6444206c-.1068611-.0623512-.2493935-.0445328-.3949699.0386047-.1128082.0653419-.2256165.1692734-.3236313.3058815l-.3028984.4187088c.8582344 1.4016762 1.3541222 3.0557632 1.3541222 4.8286285 0 5.0572891-4.0295944 9.1553802-9.0035534 9.1553802-.1722565 0-.344511-.0059471-.5138664-.014843l-.5551929 1.2383308c-.1544209.3444672-.13064.6800385.0652485.7869606l1.1432972.6533012c.1099091.0593987.2493935.0415802.3949699-.0415611.1099091-.0653381.2227135-.1662979.3207321-.2999344l.9353714-1.2918015c.0949745-.1306648.2048798-.2316208.3147888-.2969627.077137-.0445328.1573219-.0712662.2286606-.0771942.0623474-.0029716.1216507-.0089188.1839981-.0178185.1812477-.0267334.3178329.0831413.3504562.2850723l.2495384 1.4402847.0355263.2197495 2.0786667-1.1997452c.2731743-.1573792.504879-.5226364.5522919-.8552551l.1931343-1.4016571c.0356712-.2435112.1661682-.5018692.3533592-.6919289.0593033-.0593948.1158524-.1217461.1781998-.187088.0711937-.0801697.1513748-.1425362.2285118-.187088.1129532-.0653229.2227173-.0920601.3178329-.07127l.9324722.2138252c.0978737.0207901.2108269-.0089188.3236313-.07127.1454315-.0831566.2881088-.2316399.3949699-.4157562l1.137352-1.9688683c.1899452-.3296242.213726-.6919289.0564041-.8611984l-.6533546-.6919136c-.1128044-.1217651-.1336861-.3504143-.0533562-.6028404.02668-.086113.0533562-.172245.0742378-.2553864.0711937-.2494583.2315598-.4929504.4245491-.6444054l1.1166191-.8671455c.2672272-.2138062.4661636-.5968819.4661636-.905735z" fill="#0073e0" fill-opacity="1" data-original-color="#f4c531ff" stroke="none" stroke-opacity="1"/></g></g><g><path d="m32.1191292 50.7818756c-.1206055 0-.2368164-.0292969-.3408203-.0888672l-1.1430664-.6513672c-.3823242-.2099609-.480957-.7451172-.234375-1.2998047l.6157227-1.3681641c.1064453-.2421875.1040039-.3632813.0917969-.3925781l-.0507813-.1132813-1.0708008.4033203c-.2490234.0908203-.4995117.0673828-.6904297-.0664063-.2041016-.1416016-.3164063-.3808594-.3173828-.6748047l-.0053711-1.8496094c-.0009766-.4345703.2529297-.9365234.6166992-1.2207031l1.1181641-.8730469c.125-.0966797.2338867-.2617188.2788086-.4228516.0268555-.0996094.0576172-.1992188.0922852-.3037109.0356445-.1162109.0200195-.1904297.0136719-.203125l-.640625-.6728516c-.2822266-.3056641-.2788086-.8417969.0053711-1.3378906l1.1323242-1.9628906c.1425781-.2441406.3349609-.4433594.5429688-.5634766.2045898-.1181641.4140625-.1591797.6118164-.1113281l.9331055.2050781c.0664063-.0419922.1108398-.0732422.1645508-.1318359l.1411133-.1484375.2983398-.5869141.1850586-1.3310547c.0654297-.4570313.3730469-.9257813.7475586-1.1425781l1.605957-.9277344c.2563477-.1474609.5214844-.1699219.7475586-.0654297.2094727.0976563.355957.2998047.4013672.5537109l.1928711 1.1191406c.0483398-.0068359.0917969-.0107422.1357422-.0126953.0795898-.0439453.1572266-.0986328.2426758-.2158203l.9248047-1.2792969c.1293945-.1777344.2841797-.3222656.4482422-.4160156.2714844-.1582031.5605469-.1738281.7929688-.0419922l1.1420898.6474609c.3857422.2265625.4765625.7490234.2314453 1.3027344l-.6479492 1.4482422c-.0722656.1611328-.0732422.28125-.0625.3105469l.0532227.1152344 1.0756836-.4023438c0-.0009766.0004883-.0009766.0009766-.0009766.2441406-.0898438.4951172-.0673828.6870117.0654297.2045898.1416016.3178711.3818359.3188477.6767578l.0053711 1.8496094c.0014648.4306641-.2529297.9335938-.6186523 1.2216797l-1.1181641.8681641c-.125.0996094-.237793.2724609-.2841797.4384766-.0234375.0859375-.0498047.1757813-.0800781.2695313-.0405273.1269531-.0288086.2041016-.0214844.2216797l.6411133.6767578c.2836914.3056641.2817383.8408203-.003418 1.3359375l-1.1362305 1.9667969c-.1381836.2402344-.3300781.4394531-.5400391.5615234-.2041016.1171875-.4135742.1552734-.6064453.1171875l-.9394531-.2138672c-.0737305.0507813-.1206055.0898438-.1660156.1386719l-.1865234.1972656c-.1230469.125-.2172852.3085938-.2402344.46875l-.1953125 1.3994141c-.0639648.4580078-.3710938.9277344-.746582 1.1445313l-2.0795902 1.201172c-.1147461.0654297-.2539063.0703125-.3725586.0146484-.1191406-.0576172-.2021484-.1689453-.2226563-.2988281l-.2753906-1.6005859c-.0380859.0039063-.0771484.0078125-.1162109.0107422-.0966797.0439453-.1708984.0966797-.2509766.2080078l-.9370117 1.2919922c-.1279297.1757813-.2817383.3183594-.4448242.4121094-.1494141.086914-.3041993.1308593-.4511719.1308593zm-1.0029297-4.7363281c.2827148 0 .5258789.1552734.6411133.4287109l.0449219.1015625c.1572266.3115234.1420898.6796875-.0234375 1.0498047l-.6479492 1.4433594c-.0737305.1650391-.0708008.2890625-.0581055.3203125l1.1015625.6083984c.0341797-.0605469.1108398-.1152344.1938477-.2285156l.9360352-1.2910156c.125-.1738281.2768555-.3154297.4384766-.4082031.1342773-.0771484.269043-.1201172.4023438-.1289063.046875-.0039063.0991211-.0097656.1518555-.0166016.4023438-.0546875.734375.1992188.8022461.6181641l.1899414 1.0888672 1.5805664-.9130859c.1625977-.09375.324707-.3505859.3544922-.5615234l.1953125-1.4023438c.0478516-.3300781.2207031-.671875.4628906-.9169922l.1689453-.1787109c.1025391-.1113281.2124023-.2001953.3251953-.2636719.1992188-.1171875.409668-.15625.6040039-.1123047l.9335938.2128906c.1225586-.0791016.215332-.1796875.2832031-.296875l1.1362305-1.9677734c.1186523-.2060547.1147461-.3710938.1000977-.4052734l-.6401367-.6757813c-.2158203-.2294922-.2705078-.6025391-.1450195-.9980469.0273438-.0830078.0498047-.1611328.0708008-.2373047.0917969-.3291016.3012695-.6474609.5605469-.8535156l1.1196289-.8701172c.171875-.1357422.3125-.4003906.3120117-.5898438l-.0053711-1.8164063-1.0488285.3935548c-.3920898.1523438-.7744141-.0009766-.9287109-.3642578l-.0415039-.0898438c-.1669922-.3320313-.1503906-.6962891.015625-1.0664063l.6469727-1.4462891c.0834961-.1884766.0678711-.3046875.059082-.3251953l-1.097168-.6044922c-.0639648.0771484-.1362305.1474609-.1977539.2314453l-.9262695 1.2822266c-.1308594.1777344-.284668.3203125-.4467773.4140625-.1308594.0761719-.2641602.1191406-.3959961.1289063-.0527344.0019531-.0966797.0087891-.1430664.015625-.4160309.0507813-.7436523-.1972656-.8178711-.6113281l-.1865234-1.0830078-1.581543.9052734c-.1655273.0957031-.3256836.3476563-.3564453.5615234l-.1938478 1.3955079c-.0058594.0439453-.019043.0859375-.0385742.125l-.3564453.7011719c-.019043.0371094-.0439453.0712891-.0732422.1005859l-.1015625.1064453c-.0009766.0009766-.0683594.0732422-.0693359.0742188-.0952148.1025391-.2021484.1894531-.3149414.2529297-.2006989.1181641-.4106445.15625-.6064453.1123047l-.9350586-.2060547c-.1235352.0742188-.2167969.1757813-.2871094.2958984l-1.1313477 1.9599609c-.1206055.2109375-.1176758.3740234-.1025391.4091797l.6401367.6708984c.2143555.2373047.269043.6015625.1523438.9804688-.0327148.0976563-.0585938.1835938-.0825195.2714844-.0927734.3291016-.3012695.6425781-.5595703.8417969l-1.1166992.8720703c-.1708984.1328125-.309082.3974609-.309082.5878906l.0053711 1.8144531 1.0424805-.3925781c.1005859-.0371094.2001952-.0546875.2949218-.0546875zm-.0976563.7363281c.0004883.0009766.0009766.0019531.0014648.0019531zm11.7597657-10.0302734c.0063477 0 .0126953.0029297.019043 0l-.1577148-.3691406zm-1.3168946-.2587891.0009766.0029297c-.0004883-.0009766-.0009766-.0019531-.0009766-.0029297z" fill="#000000" fill-opacity="1" data-original-color="#000000ff" stroke="none" stroke-opacity="1"/></g><g><g><path d="m36.2446785 45.0023232c1.6210175-.9360733 2.9325829-3.2041817 2.9273033-5.067215-.0052948-1.8670845-1.3254089-2.6155052-2.9464264-1.6794319-1.6228333.9371262-2.9343948 3.2052383-2.9291039 5.072319.0052796 1.8630333 1.3253937 2.6114502 2.948227 1.6743279" fill="#ffffff" fill-opacity="1" data-original-color="#ffffffff" stroke="none" stroke-opacity="1"/></g><g><path d="m36.2446785 45.0023232c1.6210175-.9360733 2.9325829-3.2041817 2.9273033-5.067215-.0052948-1.8670845-1.3254089-2.6155052-2.9464264-1.6794319-1.6228333.9371262-2.9343948 3.2052383-2.9291039 5.072319.0052796 1.8630333 1.3253937 2.6114502 2.948227 1.6743279" fill="#ffffff" fill-opacity="1" data-original-color="#ffffffff" stroke="none" stroke-opacity="1"/></g><g><path d="m39.1712875 39.9350662c.0064926 1.8626328-1.3062553 4.130928-2.9264069 5.066597-1.3083839.7568359-2.4227676.4165916-2.8043785-.7219276.0240631.0109138.0502548.0218163.0742111.0305367 1.7946663.6892242 3.8553085-.32061 4.5989418-2.2552071.5909424-1.5420113.1679115-3.2039795-.9332695-4.1680183 1.155697-.2115556 1.9865342.5649032 1.990902 2.0480193z" fill="#e9edf4" fill-opacity="1" data-original-color="#e9edf4ff" stroke="none" stroke-opacity="1"/></g><g><path d="m34.9233284 45.8082428c-.3491211 0-.675293-.0830078-.9658203-.2509766-.6811523-.3916016-1.0581055-1.1835938-1.0610352-2.2285156-.0058594-2.0224609 1.3686523-4.4023438 3.1289063-5.4199219.9160156-.5292969 1.7978516-.6025391 2.4848633-.2080078.6816406.3925781 1.0585938 1.1855469 1.0615234 2.2333984.0058594 2.0195313-1.3676758 4.3984375-3.1269531 5.4150391-.5292969.3046875-1.0463867.4589844-1.5214844.4589844zm2.6186523-7.5566406c-.3325195 0-.7133789.1171875-1.1166992.3505859-1.5097656.8720703-2.7338867 2.9912109-2.7290039 4.7246094.0024414.7480469.2368164 1.2939453.6601563 1.5371094.4287109.2480469 1.0292969.1738281 1.6879883-.2080078 1.5087891-.8710938 2.7324219-2.9882813 2.7275391-4.7197266-.0024414-.75-.2368164-1.2978516-.6611328-1.5419922-.1660157-.0957031-.3579103-.1425781-.5688478-.1425781zm-1.2973632 6.7509765h.0097656z" fill="#000000" fill-opacity="1" data-original-color="#000000ff" stroke="none" stroke-opacity="1"/></g></g></g><g><g><g><path d="m47.6621094 23.5277214c.1925049-.1112175.3850365-.1196938.5059128.0160007l3.3860207 3.7780533c.2753944.3064423-.0146027 1.1053276-.5036507 1.3878708l-1.187027.6857929c-.2149162.1241665-.3878708.4239349-.3871765.6688137l.0235023 10.1647129c.0010986.3877068-.2701111.8577957-.6073074 1.0526085l-2.366188 1.3670387c-.3371964.1948128-.6121597.0402679-.6132584-.3474388l-.0235023-10.164711c-.0006943-.2448807-.1727982-.345295-.3877144-.2211285l-1.187027.6857929c-.4909744.2836533-.7826195-.1791954-.5098572-.8023281l3.3516579-7.6706772c.1206779-.2752494.3131065-.4891814.5056152-.6004008z" fill="#ffffff" fill-opacity="1" data-original-color="#ffffffff" stroke="none" stroke-opacity="1"/></g><g><g><g><path d="m51.051693 28.7100334-1.188446.6859798c-.2158089.1241798-.3872261.422821-.3872261.6682396l.0236015 10.1654758c0 .3873405-.269001.8574638-.60606 1.0526199l-2.3679466 1.3660431c-.2661133.153759-.4937592.0916595-.5765419-.1330605 1.7560387-1.8095627 2.9238472-6.8982124 2.9238472-10.5705547 0-2.9035835-.730278-5.5262661-1.9038582-7.3920078l.1862144-.4257813c.1211815-.2749805.3133888-.4878788.5055199-.6002216.1951637-.109417.3872948-.1182785.5084801.0177402l3.3849792 3.7758255c.27499.3075201-.0147248 1.1058409-.5025635 1.389702z" fill="#e9edf4" fill-opacity="1" data-original-color="#e9edf4ff" stroke="none" stroke-opacity="1"/></g></g><g><path d="m46.2499886 43.1324615c-.1274414 0-.2495117-.03125-.3583984-.09375-.2397461-.1376953-.3774414-.40625-.378418-.7363281l-.0229492-9.9179688-.9750977.5634766c-.3452148.1982422-.6992188.1845703-.9492188-.0400391-.3027344-.2705078-.3515625-.7568359-.1279297-1.2695313l3.3520508-7.6699219c.1484375-.3388672.3935547-.6259766.671875-.7871094.3686523-.2138672.7631836-.1757813 1.0048828.0966797l3.3852539 3.7773438c.175293.1943359.2436523.4814453.1918945.8056641-.0776367.4853516-.3964844.9658203-.7939453 1.1953125l-1.1865234.6855469c-.0898438.0517578-.1875.2197266-.1875.3212891l.0234375 10.1650391c.0019531.5302734-.3447266 1.1318359-.8061523 1.3994141l-2.3666992 1.3681641c-.1586915.0908202-.3217774.1367186-.4765625.1367186zm-.572754-11.6708984c.1049805 0 .206543.0263672.2983398.0791016.1987305.1142578.3129883.3310547.3139648.59375l.0234375 10.1660156 2.3793945-1.3652344c.2138672-.1240234.4082031-.4599609.4072266-.7041016l-.0234375-10.1660156c-.0009766-.3925781.2460938-.8193359.5869141-1.0166016l1.1870117-.6855469c.3105316-.1787109.4580078-.6689453.4008789-.78125l-3.3808594-3.7714844-.0078125.0644531c-.1020508.0585938-.2446289.1982422-.3393555.4140625l-3.3515625 7.6699219c-.0961914.21875-.0712891.3457031-.0595703.3681641l1.1899414-.7578125c.1235353-.071289.2519533-.1074218.3754884-.1074218z" fill="#000000" fill-opacity="1" data-original-color="#000000ff" stroke="none" stroke-opacity="1"/></g></g></g><g><g><path d="m24.786274 36.7350922c.1925068-.1112213.3850365-.1196938.5059147.0159988l3.3860207 3.7780533c.2753944.3064423-.0146008 1.1053276-.5036507 1.3878708l-1.1870251.685791c-.21492.1241684-.3878727.4239349-.3871784.6688156l.0235043 7.164711c.0010967.3877106-.2701149.8577995-.6073074 1.0526085l-2.36619 1.3670425c-.3371944.194809-.6121578.0402679-.6132565-.3474388l-.0235023-7.1647148c-.0006943-.2448769-.1727982-.345295-.3877182-.2211266l-1.1870251.685791c-.4909744.2836571-.7826176-.1791916-.5098572-.8023262l3.3516579-7.6706772c.1206779-.2752494.3131084-.4891814.5056133-.6003989z" fill="#ffffff" fill-opacity="1" data-original-color="#ffffffff" stroke="none" stroke-opacity="1"/></g><g><g><g><path d="m28.1758614 41.9174004-1.1884499.6859818c-.2158051.1241798-.3872223.422821-.3872223.6682396l.0236015 7.1654778c0 .3873405-.269001.85746-.6060619 1.0526199l-2.3679485 1.3660393c-.2661114.1537628-.4937553.0916634-.57654-.1330566 1.7560406-1.8095627 2.9238453-3.8982124 2.9238453-7.5705566 0-2.9035835-.7302742-5.526268-1.9038563-7.3920097l.1862144-.4257774c.1211834-.2749825.3133888-.4878807.5055199-.6002235.1951637-.109417.3872967-.1182785.5084801.0177422l3.3849792 3.7758217c.2749901.3075214-.0147247 1.1058422-.5025615 1.3897015z" fill="#e9edf4" fill-opacity="1" data-original-color="#e9edf4ff" stroke="none" stroke-opacity="1"/></g></g><g><path d="m23.374012 53.3394928c-.1274414 0-.2495117-.03125-.3583984-.09375-.2397461-.1376953-.3774414-.40625-.378418-.7363281l-.0229492-6.9179688-.9750977.5634766c-.3442383.1972656-.6992187.1845703-.9492187-.0390625-.3027344-.2705078-.3515625-.7578125-.1269531-1.2695313l3.3510742-7.6708984c.1484375-.3388672.3935547-.6259766.671875-.7871094.3696289-.2128906.7626953-.1757813 1.0039063.0957031l3.3862305 3.7783203c.175293.1943359.2431641.4804688.1918945.8046875-.0771484.4863281-.3959961.9667969-.7929688 1.1962891l-1.1875.6865234c-.0898438.0517578-.1875.2197266-.1870117.3203125l.0234375 7.1650391c.0014648.5322266-.3457031 1.1337891-.8076172 1.4003906l-2.3657227 1.3671875c-.1586914.0908204-.3217774.1367188-.4765625.1367188zm-.5732422-8.6699219c.1049805 0 .2070313.0263672.2988281.0791016.1982422.1132813.3129883.3300781.3139648.5927734l.0234375 7.1660156 2.3793945-1.3652344c.2138672-.1230469.4082031-.4589844.4077148-.7050781l-.0234375-7.1640625c-.0014648-.3916016.2451172-.8193359.5864258-1.0166016l1.1875-.6865234c.3100586-.1787109.4575195-.6689453.4003906-.78125l-3.5888672-4.0537109.2001953.3466797c-.1020508.0585938-.2446289.1982422-.3393555.4140625l-3.3510742 7.6708984c-.0961914.21875-.0717773.3457031-.0600586.3681641l1.1899414-.7587891c.1235354-.071289.2519533-.1064453.3750002-.1064453z" fill="#000000" fill-opacity="1" data-original-color="#000000ff" stroke="none" stroke-opacity="1"/></g></g></g></g></g></g></g></svg>