<svg id="Layer_1" viewBox="0 0 512 512" xmlns="http://www.w3.org/2000/svg" data-name="Layer 1"><path d="m186.833 152.486c0-3.866 3.134-7 7-7h123.45c3.866 0 7 3.134 7 7s-3.134 7-7 7h-123.45c-3.866 0-7-3.134-7-7zm7 48.099h123.45c3.866 0 7-3.134 7-7s-3.134-7-7-7h-123.45c-3.866 0-7 3.134-7 7s3.134 7 7 7zm-98.251-72.799h61.501c7.995 0 14.499 6.504 14.499 14.499v61.501c0 7.994-6.504 14.498-14.499 14.498h-61.501c-7.995 0-14.499-6.504-14.499-14.498v-61.501c0-7.995 6.504-14.499 14.499-14.499zm61.501 14h-61.501c-.262 0-.499.238-.499.499v61.501c0 .256.242.498.499.498h61.501c.257 0 .499-.242.499-.498v-61.501c0-.261-.237-.499-.499-.499zm-45.447 47.794c1.088 1.885 2.991 3.156 5.148 3.44.306.04.61.06.914.06 1.844 0 3.629-.729 4.949-2.05l26.091-26.09c2.734-2.733 2.734-7.166 0-9.899-2.73-2.732-7.164-2.734-9.898 0l-19.641 19.64-4.26-7.379c-1.934-3.349-6.214-4.497-9.562-2.562-3.348 1.933-4.495 6.214-2.562 9.562l8.821 15.28zm59.946 59.582v61.502c0 7.995-6.504 14.499-14.499 14.499h-61.501c-7.995 0-14.499-6.504-14.499-14.499v-61.502c0-7.995 6.504-14.499 14.499-14.499h61.501c7.995 0 14.499 6.504 14.499 14.499zm-14 0c0-.256-.242-.499-.499-.499h-61.501c-.257 0-.499.242-.499.499v61.502c0 .256.242.499.499.499h61.501c.257 0 .499-.242.499-.499zm14 106.877v61.501c0 7.995-6.504 14.499-14.499 14.499h-61.501c-7.995 0-14.499-6.504-14.499-14.499v-61.501c0-7.995 6.504-14.499 14.499-14.499h61.501c7.995 0 14.499 6.504 14.499 14.499zm-14 0c0-.261-.237-.499-.499-.499h-61.501c-.262 0-.499.237-.499.499v61.501c0 .261.237.499.499.499h61.501c.262 0 .499-.238.499-.499zm-18.742-94.122-19.641 19.64-4.26-7.379c-1.934-3.348-6.214-4.495-9.562-2.562s-4.495 6.214-2.562 9.562l8.821 15.28c1.089 1.884 2.991 3.156 5.148 3.44.306.04.61.06.914.06 1.844 0 3.629-.729 4.949-2.05l26.091-26.09c2.734-2.733 2.734-7.166 0-9.899-2.73-2.732-7.164-2.734-9.898 0zm0 106.877-19.641 19.64-4.26-7.379c-1.934-3.348-6.214-4.497-9.562-2.562-3.348 1.933-4.495 6.214-2.562 9.562l8.821 15.28c1.088 1.885 2.991 3.156 5.148 3.44.306.04.61.06.914.06 1.844 0 3.629-.729 4.949-2.05l26.091-26.09c2.734-2.733 2.734-7.166 0-9.899-2.73-2.732-7.164-2.733-9.898 0zm360.436-37.473c0 74.47-44.177 141.68-112.546 171.225l-11.285 4.878c-.887.383-1.832.575-2.777.575s-1.891-.191-2.777-.575l-.364-.157c-2.328.482-4.705.732-7.098.732h-314.692c-19.306 0-35.012-15.706-35.012-35.012v-386.148c0-19.306 15.706-35.012 35.012-35.012h66.668c1.295-4.178 3.76-7.902 7.26-10.842 5.438-4.568 12.013-6.334 19.004-5.114l24.64 4.307c1.906-20.267 19.017-36.178 39.773-36.178s37.867 15.912 39.774 36.178l24.639-4.307c7.001-1.222 13.569.547 19.006 5.116 3.558 2.989 6.01 6.667 7.285 10.84h66.641c19.306 0 35.012 15.706 35.012 35.012v155.414c30.665 4.051 59.667 15.626 84.98 34.081l9.272 6.76c1.463 1.067 2.456 2.66 2.771 4.444l1.987 11.301c1.874 10.654 2.825 21.583 2.825 32.484zm-136.848-265.494h-65.616v14.18h65.448c3.866 0 7 3.134 7 7v153.65c1.134-.02 2.27-.033 3.407-.033 3.607 0 7.198.105 10.772.307v-154.092c0-11.586-9.426-21.012-21.012-21.012zm-235.075 21.46h155.459v-28.461c0-2.917-1.085-5.247-3.317-7.122-2.232-1.877-4.717-2.547-7.589-2.043l-32.667 5.71c-2.032.353-4.126-.207-5.708-1.537-1.583-1.33-2.497-3.292-2.497-5.359v-4.526c0-14.31-11.642-25.951-25.951-25.951s-25.95 11.642-25.95 25.951v4.526c0 2.067-.914 4.029-2.497 5.359s-3.673 1.89-5.708 1.537l-32.668-5.71c-2.87-.501-5.354.165-7.587 2.042-2.234 1.877-3.319 4.207-3.319 7.123v28.461zm-7 14c-3.866 0-7-3.134-7-7v-.28h-58.447v371.812h248.421c-15.494-14.887-28.271-32.317-37.795-51.479h-71.699c-3.866 0-7-3.134-7-7s3.134-7 7-7h65.445c-3.488-8.76-6.323-17.816-8.46-27.099h-56.985c-3.866 0-7-3.134-7-7s3.134-7 7-7h54.318c-1.38-9.148-2.094-18.474-2.094-27.918 0-7.975.515-15.967 1.524-23.86h-53.748c-3.866 0-7-3.134-7-7s3.134-7 7-7h55.997l1.042-5.926c.313-1.784 1.307-3.376 2.77-4.443l9.272-6.76c4.918-3.586 9.976-6.909 15.158-9.971h-84.239c-3.866 0-7-3.134-7-7s3.134-7 7-7h113.517c15.337-5.739 31.409-9.416 47.91-10.935v-147.421h-58.448v.28c0 3.866-3.134 7-7 7zm-72.616 392.713h293.598c-7.59-4.253-14.817-8.994-21.645-14.181h-271.785c-3.866 0-7-3.134-7-7v-385.812c0-3.866 3.134-7 7-7h65.447v-14.18h-65.615c-11.587 0-21.013 9.426-21.013 21.012v386.149c0 11.586 9.427 21.012 21.013 21.012zm437.538-162.677c0-10.089-.879-20.202-2.613-30.059l-1.499-8.521-6.99-5.097c-29.634-21.604-64.733-33.022-101.506-33.022-21.131 0-41.707 3.778-61.013 11.085-.308.143-.627.267-.957.365-13.941 5.373-27.212 12.589-39.535 21.573l-6.991 5.097-1.5 8.521c-1.734 9.861-2.613 19.975-2.613 30.059 0 68.881 40.861 131.046 104.099 158.374l8.511 3.678 8.509-3.678c63.238-27.328 104.1-89.493 104.1-158.374zm-16.848-27.554c1.59 9.033 2.396 18.303 2.396 27.554 0 63.111-37.438 120.069-95.38 145.107-.886.383-1.831.574-2.776.574s-1.891-.191-2.776-.574c-57.941-25.039-95.38-81.997-95.38-145.107 0-9.251.806-18.521 2.396-27.554.313-1.784 1.307-3.376 2.77-4.443 27.143-19.789 59.299-30.249 92.991-30.249s65.848 10.46 92.991 30.249c1.463 1.067 2.456 2.66 2.77 4.443zm-11.604 27.554c0-7.487-.578-14.987-1.72-22.333-24.238-16.962-52.68-25.913-82.437-25.913s-58.199 8.951-82.437 25.913c-1.142 7.347-1.72 14.846-1.72 22.333 0 56.506 32.931 107.602 84.156 131.021 51.226-23.42 84.156-74.515 84.156-131.021zm-19.537-1.897c.615 5.544-.965 10.996-4.449 15.352l-54.599 68.25c-.232.291-.483.559-.75.802-.977 1.095-2.066 2.086-3.253 2.954-3.606 2.642-7.869 4.027-12.26 4.027-1.068 0-2.145-.082-3.221-.248-5.498-.848-10.336-3.787-13.622-8.274l-24.759-33.655s-.005-.007-.008-.011c-3.288-4.487-4.631-9.986-3.782-15.484s3.787-10.335 8.274-13.623 9.989-4.629 15.483-3.782c5.498.849 10.336 3.788 13.622 8.275l8.624 11.722 37.637-47.045c3.483-4.356 8.456-7.094 14-7.71 5.547-.618 10.997.964 15.352 4.448s7.094 8.457 7.71 14zm-13.915 1.546c-.202-1.827-1.104-3.466-2.541-4.614-1.435-1.149-3.23-1.669-5.06-1.466-1.827.203-3.466 1.105-4.613 2.541l-43.336 54.168c-1.359 1.699-3.457 2.677-5.607 2.626-2.176-.044-4.207-1.098-5.497-2.851l-14.038-19.082c-1.085-1.482-2.671-2.445-4.473-2.723-1.805-.281-3.604.162-5.074 1.239-1.471 1.078-2.434 2.664-2.712 4.465-.278 1.8.161 3.601 1.236 5.07l24.762 33.659c1.085 1.482 2.671 2.445 4.473 2.723 1.798.279 3.604-.161 5.074-1.239.488-.357.925-.775 1.3-1.243.188-.234.387-.453.597-.657l54.044-67.556c1.148-1.436 1.669-3.233 1.466-5.061zm-218.289-298.578c-5.618 0-10.2 4.582-10.2 10.2s4.582 10.2 10.2 10.2 10.2-4.582 10.2-10.2-4.582-10.2-10.2-10.2z" fill-rule="evenodd"/></svg>