<svg id="Layer_1" enable-background="new 0 0 492 492" viewBox="0 0 492 492" xmlns="http://www.w3.org/2000/svg"><g><g><path d="m345.71 466.78h-198.9c-17.441 0-31.631-14.189-31.631-31.631v-376.818c0-17.441 14.189-31.631 31.631-31.631h198.9c17.441 0 31.631 14.189 31.631 31.631v376.818c0 17.442-14.19 31.631-31.631 31.631zm-198.9-430.08c-11.927 0-21.631 9.704-21.631 21.631v376.818c0 11.928 9.704 21.631 21.631 21.631h198.9c11.928 0 21.631-9.703 21.631-21.631v-376.818c0-11.927-9.703-21.631-21.631-21.631z"/></g><g><g><path d="m372.341 99.042h-252.162c-2.761 0-5-2.239-5-5s2.239-5 5-5h252.162c2.762 0 5 2.239 5 5s-2.238 5-5 5z"/></g><g><path d="m372.341 404.438h-252.162c-2.761 0-5-2.238-5-5s2.239-5 5-5h252.162c2.762 0 5 2.238 5 5s-2.238 5-5 5z"/></g></g><g><path d="m271.911 76.78h-51.302c-7.669 0-13.909-6.239-13.909-13.909s6.239-13.909 13.909-13.909h51.302c7.67 0 13.909 6.24 13.909 13.909s-6.239 13.909-13.909 13.909zm-51.302-17.818c-2.155 0-3.909 1.753-3.909 3.909 0 2.155 1.753 3.909 3.909 3.909h51.302c2.155 0 3.909-1.753 3.909-3.909s-1.754-3.909-3.909-3.909z"/></g><g><path d="m178.716 76.78c-7.669 0-13.909-6.239-13.909-13.909s6.239-13.909 13.909-13.909 13.909 6.24 13.909 13.909-6.24 13.909-13.909 13.909zm0-17.818c-2.155 0-3.909 1.753-3.909 3.909 0 2.155 1.753 3.909 3.909 3.909s3.909-1.753 3.909-3.909-1.753-3.909-3.909-3.909z"/></g><g><path d="m269.244 435.609h-45.969c-2.761 0-5-2.238-5-5s2.239-5 5-5h45.969c2.762 0 5 2.238 5 5s-2.238 5-5 5z"/></g><g><path d="m181.51 435.609h-24c-2.761 0-5-2.238-5-5s2.239-5 5-5h24c2.761 0 5 2.238 5 5s-2.239 5-5 5z"/></g><g><path d="m335.011 435.609h-24.001c-2.762 0-5-2.238-5-5s2.238-5 5-5h24.001c2.762 0 5 2.238 5 5s-2.239 5-5 5z"/></g></g><g><g><path d="m268.26 314.74h-44c-2.761 0-5-2.238-5-5v-36h-36c-2.761 0-5-2.238-5-5v-44c0-2.761 2.239-5 5-5h36v-36c0-2.761 2.239-5 5-5h44c2.762 0 5 2.239 5 5v36h36c2.762 0 5 2.239 5 5v44c0 2.762-2.238 5-5 5h-36v36c0 2.762-2.239 5-5 5zm-39-10h34v-36c0-2.762 2.238-5 5-5h36v-34h-36c-2.762 0-5-2.239-5-5v-36h-34v36c0 2.761-2.239 5-5 5h-36v34h36c2.761 0 5 2.238 5 5z"/></g><g><g><path d="m186.931 209.998h-19.29c-2.761 0-5-2.239-5-5v-12.974h-12.974c-2.761 0-5-2.239-5-5v-19.29c0-2.761 2.239-5 5-5h12.974v-12.974c0-2.761 2.239-5 5-5h19.29c2.761 0 5 2.239 5 5v12.974h12.974c2.761 0 5 2.239 5 5v19.29c0 2.761-2.239 5-5 5h-12.974v12.974c0 2.761-2.239 5-5 5zm-14.289-10h9.29v-12.974c0-2.761 2.239-5 5-5h12.974v-9.29h-12.974c-2.761 0-5-2.239-5-5v-12.974h-9.29v12.974c0 2.761-2.239 5-5 5h-12.974v9.29h12.974c2.761 0 5 2.239 5 5z"/></g><g><g><path d="m324.879 209.998h-19.29c-2.762 0-5-2.239-5-5v-12.974h-12.974c-2.762 0-5-2.239-5-5v-19.29c0-2.761 2.238-5 5-5h12.974v-12.974c0-2.761 2.238-5 5-5h19.29c2.762 0 5 2.239 5 5v12.974h12.974c2.762 0 5 2.239 5 5v19.29c0 2.761-2.238 5-5 5h-12.974v12.974c0 2.761-2.238 5-5 5zm-14.29-10h9.29v-12.974c0-2.761 2.238-5 5-5h12.974v-9.29h-12.974c-2.762 0-5-2.239-5-5v-12.974h-9.29v12.974c0 2.761-2.238 5-5 5h-12.974v9.29h12.974c2.762 0 5 2.239 5 5z"/></g><g><g><path d="m186.931 348.72h-19.29c-2.761 0-5-2.238-5-5v-12.974h-12.974c-2.761 0-5-2.238-5-5v-19.29c0-2.762 2.239-5 5-5h12.974v-12.974c0-2.762 2.239-5 5-5h19.29c2.761 0 5 2.238 5 5v12.974h12.974c2.761 0 5 2.238 5 5v19.29c0 2.762-2.239 5-5 5h-12.974v12.974c0 2.761-2.239 5-5 5zm-14.289-10h9.29v-12.974c0-2.762 2.239-5 5-5h12.974v-9.29h-12.974c-2.761 0-5-2.238-5-5v-12.974h-9.29v12.974c0 2.762-2.239 5-5 5h-12.974v9.29h12.974c2.761 0 5 2.238 5 5z"/></g><g><path d="m324.879 348.72h-19.29c-2.762 0-5-2.238-5-5v-12.974h-12.974c-2.762 0-5-2.238-5-5v-19.29c0-2.762 2.238-5 5-5h12.974v-12.974c0-2.762 2.238-5 5-5h19.29c2.762 0 5 2.238 5 5v12.974h12.974c2.762 0 5 2.238 5 5v19.29c0 2.762-2.238 5-5 5h-12.974v12.974c0 2.761-2.238 5-5 5zm-14.29-10h9.29v-12.974c0-2.762 2.238-5 5-5h12.974v-9.29h-12.974c-2.762 0-5-2.238-5-5v-12.974h-9.29v12.974c0 2.762-2.238 5-5 5h-12.974v9.29h12.974c2.762 0 5 2.238 5 5z"/></g></g></g></g></g></svg>