<?xml version="1.0"?>
<svg xmlns="http://www.w3.org/2000/svg" id="Layer_1" data-name="Layer 1" viewBox="0 0 128 128"><title/><path d="M66,5.99988V1.99994a2,2,0,0,0-4,0V5.99988a2,2,0,0,0,4,0Z"/><path d="M108,43.999h-4a2,2,0,1,0,0,3.99994h4a2,2,0,1,0,0-3.99994Z"/><path d="M18,45.999a2.00009,2.00009,0,0,0,2,1.99994h4A2,2,0,1,0,24,43.999H20A2.0001,2.0001,0,0,0,18,45.999Z"/><path d="M93.69824,19.12946l2.82813-2.82855a1.99976,1.99976,0,1,0-2.82812-2.82806l-2.82812,2.82855a1.99976,1.99976,0,1,0,2.82813,2.82806Z"/><path d="M34.30176,72.86841l-2.82812,2.82806a1.99976,1.99976,0,1,0,2.82812,2.82806l2.82813-2.82806a1.99976,1.99976,0,0,0-2.82812-2.82806Z"/><path d="M95.1123,79.11047a2,2,0,0,0,1.41406-3.414l-2.82812-2.82806a1.99976,1.99976,0,0,0-2.82812,2.82806l2.82813,2.82806A1.99352,1.99352,0,0,0,95.1123,79.11047Z"/><path d="M35.71582,19.71533a1.99966,1.99966,0,0,0,1.41406-3.41394l-2.82812-2.82855a1.99976,1.99976,0,1,0-2.82812,2.82806l2.82812,2.82855A1.99371,1.99371,0,0,0,35.71582,19.71533Z"/><path d="M79.62793,11.17993a2.00019,2.00019,0,0,0,1.8418-1.21875L83.0332,6.27911A1.99992,1.99992,0,0,0,79.35156,4.7157L77.78809,8.39777a2.00147,2.00147,0,0,0,1.83984,2.78217Z"/><path d="M100.03906,63.46875l3.68164,1.56293a1.99969,1.99969,0,1,0,1.5625-3.68152l-3.68164-1.563a1.99971,1.99971,0,1,0-1.5625,3.68158Z"/><path d="M27.96094,28.52911,24.2793,26.96619a1.99969,1.99969,0,1,0-1.5625,3.68152l3.68164,1.563a1.99971,1.99971,0,1,0,1.5625-3.68158Z"/><path d="M104.04688,27.66193l-3.709,1.49854a2,2,0,1,0,1.498,3.70886l3.709-1.49847a2,2,0,1,0-1.498-3.70892Z"/><path d="M23.20508,64.48193a1.99308,1.99308,0,0,0,.748-.146l3.709-1.49854a2,2,0,1,0-1.498-3.70886l-3.709,1.49847a2.0003,2.0003,0,0,0,.75,3.85492Z"/><path d="M49.0166,10.91284a2.001,2.001,0,0,0,1.85352-2.74945L49.37207,4.455a2,2,0,1,0-3.709,1.498l1.498,3.70837A2.00021,2.00021,0,0,0,49.0166,10.91284Z"/><path d="M45.66962,60.19507,49.80347,64.329a4.00008,4.00008,0,0,0,5.32727.295L56.46826,63.554q.22083.09485.444.184l.18921,1.70233A3.99993,3.99993,0,0,0,61.077,68.99841H66.9231a4,4,0,0,0,3.97552-3.55817l.18915-1.70233q.22321-.08917.444-.184L72.86932,64.624a4.00018,4.00018,0,0,0,5.32721-.295l4.13391-4.13385a4,4,0,0,0,.295-5.32709l-1.07007-1.33746q.09485-.22092.1839-.444l1.70245-.18915A3.99988,3.99988,0,0,0,87,48.92194V43.076a3.99992,3.99992,0,0,0-3.55823-3.97546l-1.70239-.18915q-.08917-.223-.184-.444l1.07007-1.33746a4,4,0,0,0-.295-5.32709l-4.13391-4.13385a4,4,0,0,0-5.32721-.295l-1.33752,1.07q-.22092-.09476-.444-.1839l-.18915-1.70239a4,4,0,0,0-3.97552-3.55817H61.077a3.99993,3.99993,0,0,0-3.97552,3.55817L56.91223,28.26q-.22321.08917-.444.1839l-1.33759-1.07a4,4,0,0,0-5.32721.295L45.66962,31.8028a3.99989,3.99989,0,0,0-.295,5.327l1.07,1.33752q-.09476.22083-.1839.444l-1.70239.18915A3.99993,3.99993,0,0,0,41,43.076v5.84595a3.99988,3.99988,0,0,0,3.55829,3.97546l1.70239.18915q.08917.22321.184.444L45.37457,54.868A3.99989,3.99989,0,0,0,45.66962,60.19507ZM45,48.92194V43.076l4.28638-.47626a15.00779,15.00779,0,0,1,1.90588-4.60083l-2.69415-3.36774,4.13379-4.13385,3.3678,2.69415a15.01236,15.01236,0,0,1,4.601-1.90582l.47632-4.28625H66.9231l.47626,4.28625a15.01111,15.01111,0,0,1,4.601,1.90582l3.3678-2.69415L79.502,34.63116,76.80774,37.9989a15.00791,15.00791,0,0,1,1.90594,4.60083L83,43.076v5.84595l-4.28632.47626a15.01013,15.01013,0,0,1-1.90594,4.60089L79.502,57.36676,75.3681,61.50061l-3.3678-2.69421a15.0081,15.0081,0,0,1-4.601,1.90582l-.47626,4.28625H61.077l-.47632-4.28625a15.00935,15.00935,0,0,1-4.601-1.90582l-3.3678,2.69421-4.13379-4.13385,2.69421-3.36768a15.00863,15.00863,0,0,1-1.90594-4.60089Z"/><path d="M64,55.99872A9.99979,9.99979,0,1,0,54,45.999,10.01121,10.01121,0,0,0,64,55.99872Zm0-15.99963A5.99985,5.99985,0,1,1,58,45.999,5.99992,5.99992,0,0,1,64,39.99908Z"/><path d="M78.94824,105.01221A11.12389,11.12389,0,0,1,79.471,107.902l22.8913-11.75677a1.3508,1.3508,0,0,1,1.32715.05371,1.81521,1.81521,0,0,1,.80957,1.48529,1.86063,1.86063,0,0,1-.67285,1.55273L66.79492,123.36823a3.74965,3.74965,0,0,1-2.85254.54688l-23.42383-8.8396c-.03613-.01367-.07324-.02637-.11035-.03809a14.09125,14.09125,0,0,0-1.93793-.45355,9.91443,9.91443,0,0,1-1.04706,3.90228,10.10889,10.10889,0,0,1,1.73987.35291l23.49316,8.866a2.13371,2.13371,0,0,0,.23242.07227,7.7019,7.7019,0,0,0,6.09082-1.05762l37.08887-24.16937c.03223-.02148.06445-.04395.0957-.06641a5.92225,5.92225,0,0,0-.3623-9.68237,5.376,5.376,0,0,0-5.26758-.21387L78.51147,103.89807A11.13842,11.13842,0,0,1,78.94824,105.01221Z"/><path d="M69.00586,110.87341l-17.3457-7.5213a2.00011,2.00011,0,1,0-1.5918,3.66986l17.34473,7.5213a5.48525,5.48525,0,0,0,2.18652.46,5.79862,5.79862,0,0,0,5.06348-3.17865,7.10742,7.10742,0,0,0,.48438-5.56921,6.22193,6.22193,0,0,0-3.21777-3.76752L53.085,93.54962a5.60657,5.60657,0,0,0-3.6748-.41309L37.571,95.81519a9.91936,9.91936,0,0,1,.91437,3.89459l11.80756-2.672a1.65879,1.65879,0,0,1,1.07813.126l18.84375,8.93732a2.27369,2.27369,0,0,1,1.12988,1.3974,3.13054,3.13054,0,0,1-.19922,2.42188A1.67858,1.67858,0,0,1,69.00586,110.87341Z"/><path d="M26.5,93.99786a6.00644,6.00644,0,0,0-6,5.99982v13.99969a6.0065,6.0065,0,0,0,6,5.99988h2a6.0065,6.0065,0,0,0,6-5.99988V99.99768a6.00644,6.00644,0,0,0-6-5.99982Zm4,5.99982v13.99969a2.00255,2.00255,0,0,1-2,1.99994h-2a2.00255,2.00255,0,0,1-2-1.99994V99.99768a2.00259,2.00259,0,0,1,2-1.99994h2A2.00259,2.00259,0,0,1,30.5,99.99768Z"/><path d="M34.2334,62.62939c.835,1.66895,1.791,3.37494,2.92383,5.21765.73926,1.2002,1.63867,2.54877,2.58984,3.9765,3.01733,4.52747,6.93561,10.40906,9.60022,17.264a9.54979,9.54979,0,0,1,4.42255.43732c-2.80054-8.07227-7.29547-14.82007-10.69366-19.919-.93164-1.39746-1.81152-2.71771-2.51172-3.85541-1.07031-1.74066-1.97168-3.34711-2.75391-4.90906A31.93111,31.93111,0,0,1,34,46.53357c0-16.83649,13.18457-30.53394,29.39063-30.53394h1.21875C80.81543,15.99963,94,29.69708,94,46.53357a31.90238,31.90238,0,0,1-3.80957,14.30585c-.78809,1.57269-1.68848,3.17914-2.75391,4.91-.70215,1.13965-1.583,2.46088-2.51465,3.86029-3.874,5.81323-9.175,13.77069-11.76239,23.38812H66V78.99817h4a1.99994,1.99994,0,1,0,0-3.99988H58a1.99994,1.99994,0,1,0,0,3.99988h4V92.99786h-.74481l8.43256,3.99988h2.92792c-.03467.41467-.06824.87-.1015,1.3407l1.12842.53528a9.87371,9.87371,0,0,1,2.72388,1.92236,44.00033,44.00033,0,0,1,.63647-6.69183C79.41309,85.08984,84.52051,77.424,88.25,71.82745c.95313-1.42871,1.85254-2.77924,2.59277-3.98138,1.12793-1.832,2.084-3.538,2.9248-5.21814A35.77752,35.77752,0,0,0,98,46.53357c0-19.04205-14.97852-34.53387-33.39062-34.53387H63.39063C44.97852,11.99969,30,27.49152,30,46.53357A35.79455,35.79455,0,0,0,34.2334,62.62939Z"/></svg>
