<svg id="Layer_1" enable-background="new 0 0 500 500" viewBox="0 0 500 500" xmlns="http://www.w3.org/2000/svg"><g><g><g><path d="m440.997 74.281h-381.997c-2.761 0-5-2.239-5-5v-64.281c0-1.326.527-2.598 1.464-3.536.938-.937 2.21-1.464 3.536-1.464h381.996c2.761 0 5 2.239 5 5l.001 64.28c0 1.326-.527 2.598-1.464 3.536-.938.938-2.21 1.465-3.536 1.465zm-376.997-10.001h371.997l-.001-54.279h-371.996z"/></g><g id="XMLID_1286_"><g><g><path d="m319.873 170.369h-202.536c-2.761 0-5-2.239-5-5v-56.084c0-2.761 2.239-5 5-5h202.536c2.761 0 5 2.239 5 5v56.084c0 2.761-2.239 5-5 5zm-197.536-10.001h192.536v-46.083h-192.536z"/></g><g><path d="m382.663 170.369h-40.79c-2.761 0-5-2.239-5-5s2.239-5 5-5h35.79v-46.083h-35.877c-2.761 0-5-2.239-5-5s2.239-5 5-5h40.877c2.761 0 5 2.239 5 5v56.084c0 2.76-2.239 4.999-5 4.999z"/></g></g></g></g><g><path d="m351.233 335.233c20.31-12.44 20.309-42.875 0-55.317-8.316-5.094-12.373-14.888-10.094-24.371 5.565-23.159-15.958-44.674-39.113-39.114-9.482 2.281-19.276-1.778-24.37-10.095-12.44-20.31-42.872-20.311-55.313 0-5.094 8.317-14.888 12.375-24.371 10.095-23.153-5.56-44.677 15.955-39.112 39.114 2.279 9.483-1.778 19.278-10.094 24.372-20.309 12.439-20.31 42.876 0 55.316 8.316 5.094 12.373 14.888 10.094 24.372-3.396 14.134 3.255 29.078 16.008 36.053l-28.27 77.676c-1.281 3.52 1.788 7.235 5.485 6.648l30.287-4.827 20.098 23.166c2.446 2.819 7.199 1.941 8.475-1.567l27.185-74.693c7.578 2.974 16.166 2.976 23.745.002l27.184 74.691c1.276 3.506 6.027 4.388 8.475 1.567l20.098-23.166 30.287 4.827c3.697.586 6.766-3.128 5.485-6.648l-28.265-77.66c12.743-6.991 19.398-21.935 16.002-36.069-2.279-9.484 1.778-19.278 10.094-24.372zm-146.78 150.117-16.35-18.845c-1.107-1.277-2.895-1.928-4.564-1.661l-24.638 3.926 25.37-69.706c4.492.859 9.15.751 13.702-.345 9.483-2.274 19.276 1.779 24.371 10.096 1.917 3.129 4.266 5.846 7.011 8.115zm112.008-20.507c-1.706-.272-3.431.355-4.564 1.661l-16.35 18.845-24.902-68.42c2.746-2.269 5.095-4.986 7.011-8.115 5.094-8.316 14.89-12.372 24.37-10.096 4.552 1.095 9.21 1.205 13.703.345l25.37 69.706zm14.955-102.901c3.847 16.012-11.042 30.902-27.053 27.053-13.709-3.295-27.869 2.571-35.234 14.596-8.601 14.042-29.656 14.043-38.258 0-7.276-11.878-21.686-17.855-35.235-14.596-16.01 3.85-30.899-11.042-27.052-27.053 3.294-13.711-2.571-27.872-14.595-35.237-14.042-8.602-14.04-29.658 0-38.26 12.024-7.365 17.889-21.525 14.595-35.236-3.847-16.011 11.041-30.904 27.052-27.054 13.712 3.292 27.87-2.572 35.234-14.596 8.601-14.042 29.656-14.043 38.258 0 7.365 12.025 21.525 17.89 35.235 14.596 16.01-3.849 30.9 11.041 27.052 27.054-3.294 13.71 2.571 27.871 14.595 35.237 14.041 8.601 14.042 29.658 0 38.259-12.024 7.365-17.889 21.526-14.594 35.237z"/><g><path d="m113.917 353.925h-54.913c-2.761 0-5-2.238-5-5l-.004-254.642c0-2.761 2.238-5 5-5 2.761 0 5 2.238 5 5l.003 249.642h49.914c2.761 0 5 2.238 5 5s-2.238 5-5 5z"/></g><g><path d="m441 353.925h-52.917c-2.761 0-5-2.238-5-5s2.239-5 5-5h47.917l-.003-250.642c0-2.761 2.239-5 5-5s5 2.239 5 5l.003 255.642c0 1.326-.527 2.598-1.464 3.535-.938.939-2.21 1.465-3.536 1.465z"/></g><g><path d="m250 377.29c-38.439 0-69.711-31.273-69.711-69.714s31.272-69.716 69.711-69.716 69.711 31.274 69.711 69.715-31.272 69.715-69.711 69.715zm0-129.429c-32.925 0-59.711 26.788-59.711 59.715 0 32.926 26.786 59.714 59.711 59.714s59.711-26.788 59.711-59.714c0-32.927-26.786-59.715-59.711-59.715z"/></g></g><g><circle cx="363.268" cy="348.925" r="6.5"/></g><g><circle cx="136.268" cy="348.925" r="6.5"/></g><g id="XMLID_1287_"><g id="XMLID_1291_"><path d="m158.008 140.38-4.256-15.665h-6.093l-3.814 15.52-4.092-15.52h-6.832l7.413 27.293h6.168l3.843-15.717 4.232 15.717h6.246l7.253-27.293h-6.015z"/></g><g id="XMLID_1290_"><path d="m198.945 140.38-4.257-15.665h-6.093l-3.813 15.52-4.093-15.52h-6.831l7.413 27.293h6.167l3.843-15.717 4.232 15.717h6.246l7.254-27.293h-6.016z"/></g><g id="XMLID_1289_"><path d="m239.881 140.38-4.256-15.665h-6.093l-3.814 15.52-4.092-15.52h-6.831l7.412 27.293h6.168l3.843-15.717 4.232 15.717h6.246l7.254-27.293h-6.017z"/></g><g id="XMLID_1288_"><path d="m256.513 145.193h6.496v6.815h-6.496z"/></g></g><g><ellipse cx="384.125" cy="37.738" rx="7.835" ry="7.846"/></g><g><ellipse cx="354.149" cy="37.738" rx="7.835" ry="7.846"/></g><g><ellipse cx="412.102" cy="37.738" rx="7.835" ry="7.846"/></g><g><path d="m271.012 344.912c-.796 0-1.594-.189-2.326-.574l-18.686-9.825-18.686 9.824c-3.598 1.893-7.941-1.272-7.255-5.272l3.569-20.807-15.117-14.737c-2.913-2.838-1.244-7.944 2.771-8.529l20.892-3.036 9.343-18.931c1.798-3.642 7.169-3.644 8.968 0l9.343 18.931 20.892 3.036c4.013.585 5.685 5.689 2.771 8.529l-15.117 14.737 3.569 20.807c.513 3.005-1.877 5.847-4.931 5.847zm-18.685-20.474 12.046 6.333-2.301-13.411c-.278-1.623.26-3.278 1.438-4.427l9.744-9.499-13.466-1.957c-1.629-.237-3.037-1.26-3.765-2.736l-6.023-12.205-6.023 12.204c-.728 1.476-2.136 2.499-3.765 2.736l-13.466 1.957 9.744 9.499c1.179 1.149 1.717 2.805 1.438 4.427l-2.301 13.411 12.046-6.333c1.28-.671 3.374-.671 4.654.001z"/></g></g><g/><g/><g/><g/><g/><g/><g/><g/><g/><g/><g/><g/><g/><g/><g/></svg>