<svg id="Layer_1" enable-background="new 0 0 512 512" viewBox="0 0 512 512" xmlns="http://www.w3.org/2000/svg"><path d="m481.97 324.01-29.21-11.83c-3.07-1.24-6.57.24-7.81 3.31l-5.92 14.61c-30.35 74.95-102.21 123.38-183.08 123.38-108.86 0-197.43-88.57-197.43-197.43 0-33.78 8.66-66.97 25.04-96.25 1.29.07 2.59.11 3.9.11 39.95 0 72.46-32.5 72.46-72.46 0-1.29-.04-2.58-.1-3.85 29.26-16.34 62.4-24.98 96.14-24.98 27.16 0 53.36 5.38 77.97 15.99l-6.05 8.61c-1.23 1.75-1.44 4.03-.53 5.98.9 1.94 2.77 3.26 4.91 3.45l67.21 5.99c.18.02.36.02.53.02 1.94 0 3.78-.94 4.91-2.55 1.23-1.75 1.44-4.03.53-5.98l-28.42-61.2c-.9-1.94-2.77-3.26-4.91-3.45-2.13-.19-4.21.77-5.44 2.53l-7.29 10.37c-32.43-15.45-67.21-23.27-103.43-23.27-38.94 0-77.44 9.47-111.71 27.42-13.29-16.76-33.79-27.53-56.78-27.53-39.96 0-72.46 32.5-72.46 72.46 0 22.97 10.76 43.47 27.49 56.75-18 34.3-27.49 72.85-27.49 111.84 0 64.36 25.06 124.86 70.57 170.37 45.51 45.52 106.02 70.58 170.38 70.58 48.21 0 94.81-14.25 134.78-41.21 39.92-26.93 70.57-64.74 88.64-109.36l5.91-14.61c1.24-3.07-.24-6.56-3.31-7.81zm-226.02-296.9c35.26 0 69.08 7.8 100.52 23.19l2.25 1.1c2.65 1.3 5.85.48 7.55-1.94l4.25-6.05 19.66 42.35-46.51-4.15 4.24-6.03c1.02-1.45 1.34-3.27.89-4.98s-1.63-3.13-3.23-3.89c-28.11-13.33-58.26-20.09-89.62-20.09-34.24 0-67.92 8.38-97.96 24.29-1.52-6.49-3.91-12.65-7.05-18.35 32.27-16.66 68.43-25.45 105.01-25.45zm-228.95 60.35c0-33.34 27.12-60.46 60.46-60.46s60.46 27.12 60.46 60.46-27.12 60.46-60.46 60.46-60.46-27.13-60.46-60.46zm441.24 254.47c-35.19 86.91-118.52 143.07-212.29 143.07-126.24 0-228.95-102.71-228.95-228.95 0-36.62 8.81-72.84 25.53-105.14 5.69 3.15 11.85 5.54 18.34 7.06-15.95 30.07-24.35 63.79-24.35 98.08 0 55.94 21.78 108.53 61.34 148.09s92.15 61.34 148.09 61.34c41.91 0 82.42-12.38 117.15-35.82 34.7-23.41 61.34-56.28 77.05-95.06l3.66-9.05 18.09 7.33zm-170.21 94.28c3.31 0 6-2.69 6-6v-123.42c0-17.14-11.11-31.7-27.64-36.24l-29.38-8.05c8.3-9.62 13.33-22.13 13.33-35.8 0-30.27-24.63-54.9-54.9-54.9s-54.9 24.63-54.9 54.9c0 13.67 5.03 26.18 13.33 35.8l-29.38 8.05c-16.53 4.53-27.64 19.1-27.64 36.24v57.09c0 3.31 2.69 6 6 6s6-2.69 6-6v-57.09c0-11.67 7.56-21.58 18.81-24.66l36.84-10.1c8.81 6.03 19.47 9.57 30.93 9.57s22.12-3.54 30.93-9.57l36.84 10.1c11.25 3.08 18.81 13 18.81 24.66v123.42c.02 3.31 2.7 6 6.02 6zm-135.49-209.51c0-23.66 19.25-42.9 42.9-42.9 23.66 0 42.9 19.25 42.9 42.9s-19.25 42.9-42.9 42.9-42.9-19.25-42.9-42.9zm300.23-43.83h-22.05v-22.05c0-18.87-15.35-34.23-34.23-34.23h-.81c-18.87 0-34.23 15.35-34.23 34.23v22.05h-22.04c-18.87 0-34.23 15.35-34.23 34.23v.81c0 18.87 15.35 34.23 34.23 34.23h22.04v22.05c0 18.87 15.35 34.23 34.23 34.23h.81c18.87 0 34.23-15.35 34.23-34.23v-22.05h22.05c18.87 0 34.23-15.35 34.23-34.23v-.81c0-18.87-15.35-34.23-34.23-34.23zm22.23 35.03c0 12.26-9.97 22.23-22.23 22.23h-28.05c-3.31 0-6 2.69-6 6v28.05c0 12.25-9.97 22.23-22.23 22.23h-.81c-12.25 0-22.23-9.97-22.23-22.23v-28.05c0-3.31-2.69-6-6-6h-28.04c-12.25 0-22.23-9.97-22.23-22.23v-.81c0-12.26 9.97-22.23 22.23-22.23h28.04c3.31 0 6-2.69 6-6v-28.05c0-12.25 9.97-22.23 22.23-22.23h.81c12.25 0 22.23 9.97 22.23 22.23v28.05c0 3.31 2.69 6 6 6h28.05c12.25 0 22.23 9.97 22.23 22.23zm-411.26-92.04c3.53 3.23 6.86 6.29 9.42 8.9 1.13 1.15 2.67 1.79 4.28 1.79h.03c1.62-.01 3.17-.67 4.29-1.84 2.63-2.73 6.16-5.97 9.89-9.4 15.2-13.97 34.12-31.36 34.51-49.92.16-7.66-2.85-14.63-8.95-20.73-5.86-5.86-13.67-9.08-21.99-9.08-.01 0-.02 0-.02 0-6.45 0-12.59 1.95-17.76 5.55-12.13-8.44-28.97-7.26-39.77 3.54-6.09 6.09-9.09 13.06-8.92 20.72.4 18.73 19.58 36.33 34.99 50.47zm-17.58-62.71c3.72-3.72 8.61-5.58 13.51-5.58s9.8 1.87 13.54 5.6c1.12 1.12 2.65 1.76 4.24 1.76s3.12-.63 4.24-1.76c3.6-3.6 8.4-5.58 13.52-5.58h.01c5.12 0 9.91 1.98 13.5 5.57 3.75 3.75 5.53 7.67 5.44 12-.28 13.45-17.83 29.57-30.63 41.34-2.13 1.96-4.21 3.87-6.12 5.68-1.75-1.65-3.63-3.37-5.56-5.14-13.01-11.93-30.82-28.28-31.11-41.89-.09-4.35 1.68-8.27 5.42-12z"/></svg>