<svg clip-rule="evenodd" fill-rule="evenodd" stroke-linejoin="round" stroke-miterlimit="2" viewBox="0 0 510 510" xmlns="http://www.w3.org/2000/svg"><path d="m202.02 489.231v5.769c0 3.866-3.134 7-7 7h-143.34c-3.866 0-7-3.134-7-7v-26.493h-29.68c-3.866 0-7-3.134-7-7v-108.747c0-10.948 4.347-21.448 12.085-29.189 7.74-7.743 18.236-12.092 29.181-12.092h146.895c3.131-5.543 9.078-9.297 15.88-9.297h91.35c-8.269-14.756-29.678-19.571-43.358-5.891-6.717 6.717-17.613 6.717-24.328.002l-21.996-21.978c-6.714-6.713-6.714-17.634 0-24.348 17.241-17.241 5.016-46.781-19.376-46.781-9.502 0-17.208-7.706-17.208-17.208v-31.081c0-9.502 7.706-17.208 17.208-17.208 24.392 0 36.617-29.54 19.376-46.781-6.717-6.717-6.717-17.613 0-24.33l21.994-21.994c6.717-6.717 17.613-6.717 24.33 0 17.241 17.241 46.781 5.016 46.781-19.376 0-9.502 7.706-17.208 17.208-17.208h31.081c9.502 0 17.208 7.706 17.208 17.208 0 24.392 29.54 36.617 46.781 19.376 6.714-6.714 17.635-6.714 24.348 0l21.976 21.994c6.717 6.717 6.717 17.613 0 24.33-17.241 17.241-5.001 46.781 19.376 46.781 9.533 0 17.208 7.706 17.208 17.208v31.081c0 9.502-7.675 17.208-17.208 17.208-24.377 0-36.617 29.54-19.376 46.781 6.714 6.714 6.714 17.635 0 24.348l-21.976 21.976c-6.713 6.714-17.634 6.714-24.348 0-13.664-13.664-35.069-8.843-43.348 5.891h108.033c10.042 0 18.223 8.181 18.223 18.223v153.615c0 10.043-8.181 18.223-18.223 18.223h-271.736c-3.698 0-7.144-1.109-10.021-3.012zm36.68-125.926v67.816c9.905 4.065 17.132 13.319 18.294 24.381h181.83c1.461-13.917 12.518-24.973 26.434-26.435v-63.709c-13.916-1.461-24.973-12.518-26.434-26.434h-181.83c-1.162 11.062-8.389 20.315-18.294 24.381zm85.583 57.534h-18.322c-3.866 0-7-3.134-7-7v-33.252c0-3.866 3.134-7 7-7h18.322v-18.322c0-3.866 3.134-7 7-7h33.252c3.866 0 7 3.134 7 7v18.322h18.322c3.866 0 7 3.134 7 7v33.252c0 3.866-3.134 7-7 7h-18.322v18.322c0 3.866-3.134 7-7 7h-33.252c-3.866 0-7-3.134-7-7zm14-7v18.322h19.252v-18.322c0-3.866 3.134-7 7-7h18.322v-19.252h-18.322c-3.866 0-7-3.134-7-7v-18.322h-19.252v18.322c0 3.866-3.134 7-7 7h-18.322v19.252h18.322c3.866 0 7 3.134 7 7zm-121.719-97.657c3.672 1.922 7.066 4.403 10.05 7.389 6.403 6.405 10.484 14.698 11.702 23.571 2.985-2.865 4.842-6.896 4.842-11.361v-3.857c0-3.866 3.134-7 7-7h195.502c3.866 0 7 3.134 7 7v3.857c0 8.694 7.047 15.741 15.741 15.741h3.857c3.866 0 7 3.134 7 7v77.381c0 3.866-3.134 7-7 7h-3.857c-8.694 0-15.741 7.047-15.741 15.742v3.857c0 3.866-3.134 7-7 7h-195.502c-3.866 0-7-3.134-7-7v-3.857c0-4.27-1.699-8.144-4.458-10.981v13.843c0 3.866-3.134 7-7 7h-23.882v5.513c0 2.328 1.896 4.223 4.223 4.223h271.736c2.327 0 4.223-1.895 4.223-4.223v-153.615c0-2.327-1.896-4.223-4.223-4.223zm143.924-14c9.259-27.402 45.88-38.414 68.504-15.79 1.254 1.254 3.295 1.254 4.549 0l21.976-21.976c1.254-1.254 1.254-3.295 0-4.549-26.05-26.05-7.556-70.681 29.275-70.681 1.777 0 3.208-1.436 3.208-3.208v-31.081c0-1.772-1.431-3.208-3.208-3.208-36.831 0-55.325-44.631-29.275-70.681 1.251-1.251 1.251-3.28 0-4.531l-21.976-21.994c-1.255-1.254-3.295-1.254-4.549 0-26.05 26.05-70.681 7.578-70.681-29.275 0-1.771-1.436-3.208-3.208-3.208h-31.081c-1.772 0-3.208 1.437-3.208 3.208 0 36.853-44.631 55.325-70.681 29.275-1.251-1.251-3.28-1.251-4.531 0l-21.994 21.994c-1.251 1.251-1.251 3.28 0 4.531 26.05 26.05 7.578 70.681-29.275 70.681-1.771 0-3.208 1.436-3.208 3.208v31.081c0 1.772 1.437 3.208 3.208 3.208 36.853 0 55.325 44.631 29.275 70.681-1.254 1.254-1.254 3.294 0 4.549l21.994 21.976c1.251 1.251 3.28 1.251 4.531 0 22.647-22.647 59.26-11.645 68.509 15.79zm-20.916-50.05c-44.999 0-81.685-36.706-81.685-81.685 0-44.999 36.686-81.685 81.685-81.685 44.979 0 81.685 36.686 81.685 81.685 0 44.979-36.706 81.685-81.685 81.685zm0-14c37.27 0 67.685-30.415 67.685-67.685 0-37.287-30.415-67.685-67.685-67.685-37.287 0-67.685 30.398-67.685 67.685 0 37.27 30.398 67.685 67.685 67.685zm-226.324 109.243c-1.6-.335-3.09-1.227-4.151-2.633l-14.541-19.263h-45.29c-7.231 0-14.166 2.874-19.279 7.989-5.114 5.117-7.987 12.056-7.987 19.292v101.747h22.68v-78.594c0-3.863 3.136-7 7-7 3.863 0 7 3.137 7 7v112.087h129.34v-112.087c0-3.863 3.136-7 7-7 3.863 0 7 3.137 7 7v78.594h22.68v-101.747c0-7.236-2.873-14.175-7.987-19.292-4.449-4.451-10.277-7.205-16.479-7.845-.926-.096-1.861-.144-2.8-.144h-45.29l-14.541 19.263c-1.061 1.406-2.552 2.298-4.151 2.633-.04.279-.092.555-.154.826 1.776 1.155 3.01 3.099 3.172 5.374l6.796 95.401c.099 1.394-.221 2.786-.919 3.996l-12.934 22.413c-1.251 2.166-3.562 3.501-6.063 3.501s-4.813-1.335-6.063-3.501l-12.934-22.413c-.69-1.196-1.011-2.57-.923-3.948l6.174-95.911c.16-2.489 1.606-4.593 3.649-5.704-.002-.011-.003-.023-.005-.034zm13.258-11.17c.831-1.1 8.097-10.726 8.097-10.726h-22.506l8.097 10.726c.994-.323 2.055-.498 3.156-.498s2.162.175 3.156.498zm-3.457 25.987-5.511 85.617 5.812 10.072 5.799-10.049zm.301-174.955c33.283 0 60.307 27.032 60.307 60.331 0 33.298-27.024 60.331-60.307 60.331-33.284 0-60.307-27.033-60.307-60.331 0-33.299 27.023-60.331 60.307-60.331zm0 14c-25.559 0-46.307 20.761-46.307 46.331s20.748 46.331 46.307 46.331c25.558 0 46.307-20.761 46.307-46.331s-20.749-46.331-46.307-46.331z"/></svg>