<svg id="Layer_1" viewBox="0 0 512 512" xmlns="http://www.w3.org/2000/svg" data-name="Layer 1"><path d="m136.139 11.006h239.714a26.792 26.792 0 0 1 26.73 26.73v122.226h16.3c5.165-27.492 39.311-38.316 59.324-18.3a35.1 35.1 0 0 1 0 49.643c-20.023 20.022-54.16 9.184-59.324-18.3h-16.3v76.476h16.3c5.011-27.253 39.183-38.44 59.32-18.3a35.155 35.155 0 0 1 -24.846 59.946v-.027a34.975 34.975 0 0 1 -34.431-28.578h-16.343v76.478h16.295c5.135-27.437 39.291-38.339 59.327-18.3a35.1 35.1 0 0 1 0 49.645c-20.014 20.015-54.159 9.187-59.324-18.3h-16.3v122.218a26.793 26.793 0 0 1 -26.73 26.731h-239.712a26.792 26.792 0 0 1 -26.73-26.731v-122.225h-16.3c-5.165 27.491-39.31 38.316-59.324 18.3a35.1 35.1 0 0 1 0-49.645c20.036-20.037 54.192-9.135 59.327 18.3h16.3v-76.473h-16.347a34.976 34.976 0 0 1 -34.432 28.58v.025a35.1 35.1 0 1 1 34.474-41.644h16.3v-76.481h-16.3c-5.164 27.483-39.3 38.321-59.323 18.3a35.1 35.1 0 0 1 0-49.643c20.015-20.015 54.16-9.187 59.324 18.3h16.3v-122.221a26.792 26.792 0 0 1 26.73-26.73zm45.339 257.1h53.046l13.576-24.554a6.51 6.51 0 0 1 11.893 1.112l13.309 34.4 5.176-7.969a6.494 6.494 0 0 1 5.451-2.96v-.021h46.588c9.13-18.563 11.95-40.908-3.6-56.456a37.61 37.61 0 0 0 -26.673-11.058c-17.092 0-25.842 7.379-34.346 21.971a11.445 11.445 0 0 1 -19.8 0c-8.5-14.591-17.254-21.971-34.346-21.971a37.741 37.741 0 0 0 -37.728 37.727c0 10.3 2.714 20.141 7.457 29.783zm141.382 13.046h-35.417l-10.165 15.648a6.508 6.508 0 0 1 -11.513-1.2l-13-33.589-8.517 15.408a6.521 6.521 0 0 1 -5.894 3.728h-49.22c14.548 21.475 39.155 43.852 61.046 65.167a8.389 8.389 0 0 0 11.633 0c21.894-21.321 46.492-43.683 61.047-65.167zm-66.86-67.367c-10.589-17.2-23.346-26.227-44.247-26.227a50.787 50.787 0 0 0 -50.769 50.769c0 39.987 32.278 71.123 69.666 107.187 3.51 3.386 7.068 6.818 10.466 10.127a21.3 21.3 0 0 0 29.768 0c3.4-3.311 6.958-6.742 10.468-10.128 37.388-36.064 69.665-67.2 69.665-107.186a50.788 50.788 0 0 0 -50.769-50.769c-20.9 0-33.658 9.026-44.248 26.227zm-111.018 35.694a6.521 6.521 0 0 1 0 13.041h-22.532v76.48h37.281l11.346-11.046a6.5 6.5 0 1 1 9.068 9.322l-13.256 12.9a6.48 6.48 0 0 1 -4.534 1.841v.019h-39.9v122.227a13.745 13.745 0 0 0 13.689 13.689h239.709a13.746 13.746 0 0 0 13.689-13.689v-122.225h-39.9v-.019a6.476 6.476 0 0 1 -4.533-1.841l-13.256-12.9a6.5 6.5 0 1 1 9.068-9.322l11.34 11.044h37.281v-76.48h-22.531a6.521 6.521 0 1 1 0-13.041h22.531v-76.479h-37.283l-11.351 11.04a6.5 6.5 0 0 1 -9.068-9.322l12.92-12.563a6.5 6.5 0 0 1 4.877-2.193h39.9v-122.226a13.746 13.746 0 0 0 -13.689-13.688h-41.602l-37.337 29.974a43.259 43.259 0 0 1 -27.877 9.983h-31.86c-11.92 0-22.121-4.308-30.83-12.562l-28.9-27.395h-41.3a13.745 13.745 0 0 0 -13.692 13.688v122.226h39.9a6.507 6.507 0 0 1 4.878 2.193l12.92 12.563a6.5 6.5 0 1 1 -9.068 9.322l-11.347-11.04h-37.283v76.476zm-64.3 6.781c-.15-7.017-2.528-12.984-8.406-17.621-14.243-11.239-35.73-1.206-35.73 17.361a22.047 22.047 0 0 0 22.087 22.082v.025a22.071 22.071 0 0 0 22.048-21.847zm-22.072-111.843c-19.594 0-29.467 23.8-15.6 37.664s37.667 3.993 37.667-15.6a22.063 22.063 0 0 0 -22.067-22.064zm0 179.036c-19.6 0-29.464 23.805-15.6 37.667s37.667 4 37.667-15.6a22.065 22.065 0 0 0 -22.067-22.067zm372.7-67.744a21.988 21.988 0 0 0 22.048 22.4v-.025a22.048 22.048 0 0 0 22.089-22.084c0-18.568-21.488-28.6-35.729-17.361a21.808 21.808 0 0 0 -8.407 17.07zm37.675-104.829c-13.861-13.862-37.668-4-37.668 15.6s23.8 29.47 37.667 15.6a22.061 22.061 0 0 0 0-31.2zm0 179.035c-13.841-13.842-37.668-4.02-37.668 15.6 0 19.6 23.806 29.465 37.668 15.6a22.067 22.067 0 0 0 0-31.2zm-232.932 129.594h39.886a6.521 6.521 0 1 0 0-13.041h-39.886a6.521 6.521 0 1 0 0 13.041zm-39.706-435.461 18.961 17.971c6.257 5.93 13.3 8.945 21.864 8.945h31.86a29.754 29.754 0 0 0 19.726-7.08l24.709-19.836z" fill-rule="evenodd"/></svg>