<svg id="Layer_1" enable-background="new 0 0 512 512" viewBox="0 0 512 512" xmlns="http://www.w3.org/2000/svg"><path d="m239.83 95.34h-40.63c-3.31 0-6 2.69-6 6v40.63c0 3.31 2.69 6 6 6h40.63c3.31 0 6-2.69 6-6v-40.63c0-3.32-2.69-6-6-6zm-6 40.63h-28.63v-28.63h28.63zm37.04-14.32c0-3.31 2.69-6 6-6h62.17c3.31 0 6 2.69 6 6s-2.69 6-6 6h-62.17c-3.32 0-6-2.68-6-6zm-31.04 46.51h-40.63c-3.31 0-6 2.69-6 6v40.63c0 3.31 2.69 6 6 6h40.63c3.31 0 6-2.69 6-6v-40.63c0-3.32-2.69-6-6-6zm-6 40.63h-28.63v-28.63h28.63zm37.04-14.32c0-3.31 2.69-6 6-6h64.65c3.31 0 6 2.69 6 6s-2.69 6-6 6h-64.65c-3.32 0-6-2.68-6-6zm127.63 72.82c0 3.31-2.69 6-6 6h-115.63c-3.31 0-6-2.69-6-6s2.69-6 6-6h115.63c3.32 0 6 2.69 6 6zm0 72.82c0 3.31-2.69 6-6 6h-115.63c-3.31 0-6-2.69-6-6s2.69-6 6-6h115.63c3.32 0 6 2.69 6 6zm-250.96 106.52v-14.65c0-3.31-2.69-6-6-6h-97.99c-3.31 0-6 2.69-6 6v14.65c-12.66 1.36-22.55 12.1-22.55 25.11v19.26c0 3.31 2.69 6 6 6h143.09c3.31 0 6-2.69 6-6v-19.26c0-13.01-9.89-23.75-22.55-25.11zm-12-8.65v8.51h-85.99v-8.51zm22.55 47.02h-131.09v-13.26c0-7.31 5.95-13.26 13.26-13.26h104.57c7.31 0 13.26 5.95 13.26 13.26zm301.57-352-44.83 50.85c-1.14 1.29-2.78 2.03-4.5 2.03-.04 0-.09 0-.13 0-1.77-.04-3.43-.86-4.54-2.24l-18.04-22.42c-2.08-2.58-1.67-6.36.91-8.44s6.36-1.67 8.44.91l13.58 16.87 40.12-45.51c2.19-2.49 5.98-2.72 8.47-.53 2.47 2.2 2.71 6 .52 8.48zm37.34 21.46c0-19.57-7.62-37.98-21.46-51.82-6.96-6.96-15.07-12.34-23.9-15.98v-32.39c0-9.84-8-17.84-17.84-17.84h-78.95v-15.43c0-3.31-2.69-6-6-6h-106c-3.31 0-6 2.69-6 6v15.43h-78.95c-9.83 0-17.84 8-17.84 17.84v141.02c-1.16.48-2.24 1.19-3.18 2.13l-10.63 10.63c-3.88 3.88-3.88 10.19 0 14.06l1.39 1.39-83.64 83.65-1.39-1.39c-3.88-3.88-10.18-3.88-14.06 0l-10.63 10.63c-3.88 3.88-3.88 10.19 0 14.06l64.38 64.38c1.94 1.94 4.49 2.91 7.03 2.91 2.55 0 5.09-.97 7.03-2.91l10.63-10.63c3.88-3.88 3.88-10.19 0-14.06l-1.39-1.39 26.58-26.58 7.89 7.89v57.45c0 9.83 8 17.84 17.84 17.84h57.45l69.91 69.91c1.17 1.17 2.71 1.76 4.24 1.76s3.07-.59 4.24-1.76l20.57-20.57c2.34-2.34 2.34-6.14 0-8.48l-40.85-40.85h160.33c9.84 0 17.84-8 17.84-17.84v-185.32c26.59-11 45.36-37.22 45.36-67.74zm-248.15-127.46h94v30.86h-94zm-104.94 180.36 61.47 61.47-7.73 7.73-61.47-61.47zm71.41 54.44-8.83-8.83h27.34v28.63h-24.26l5.75-5.75c1.88-1.88 2.91-4.37 2.91-7.03 0-2.65-1.04-5.14-2.91-7.02zm-126 123.1-61.47-61.47 7.73-7.73 61.47 61.47zm-36.84-69.27 83.64-83.63 44.63 44.63-83.64 83.64zm105.42 97.71c-3.22 0-5.84-2.62-5.84-5.84v-45.45l51.28 51.28h-45.44zm131.59 69.17-148.83-148.83 12.09-12.09 148.83 148.84zm150.15-75.01c0 3.22-2.62 5.84-5.84 5.84h-172.34l-46.91-46.91h25.28c3.31 0 6-2.69 6-6v-40.63c0-1.59-.63-3.12-1.76-4.24-1.12-1.13-2.65-1.76-4.24-1.76h-40.63c-3.31 0-6 2.69-6 6v25.28l-31.96-31.96 28-28 1.39 1.39c.79.79 1.68 1.41 2.63 1.88.38 2.95 2.89 5.24 5.95 5.24h40.63c3.31 0 6-2.69 6-6v-40.63c0-1.59-.63-3.12-1.76-4.24-1.12-1.12-2.65-1.76-4.24-1.76h-40.63c-1.33 0-2.55.44-3.54 1.16l-43.59-43.59v-144.3c0-3.22 2.62-5.84 5.84-5.84h78.95v15.43c0 3.31 2.69 6 6 6h106c3.31 0 6-2.69 6-6v-15.43h78.95c3.22 0 5.84 2.62 5.84 5.84v28.65c-5.17-1.14-10.5-1.75-15.92-1.75-40.41 0-73.28 32.88-73.28 73.28 0 40.41 32.88 73.28 73.28 73.28 5.47 0 10.79-.62 15.92-1.76v181.53zm-234.44-53.07v-28.63h28.63v28.63zm218.52-138.69c-33.79 0-61.28-27.49-61.28-61.28s27.49-61.28 61.28-61.28c16.37 0 31.76 6.37 43.33 17.95 11.57 11.57 17.95 26.96 17.95 43.33 0 33.79-27.49 61.28-61.28 61.28z"/></svg>