<svg id="Layer_1" enable-background="new 0 0 512 512" height="512" viewBox="0 0 512 512" width="512" xmlns="http://www.w3.org/2000/svg"><path d="m501.154 328.042c-3.493-10.285-11.819-17.75-23.445-21.019-12.49-3.512-28.725-2.38-48.25 3.364l-88.676 26.087c-4.579-9.274-12.974-16.606-23.728-19.479l-63.086-16.854c-46.111-32.256-70.805-22.958-107.11-5.171-20.104 9.848-40.433 19.501-61.138 29.282l-1.63-3.706c-4.778-10.863-17.507-15.821-28.378-11.056l-33.793 14.825c-5.297 2.323-9.362 6.549-11.447 11.897-2.084 5.35-1.949 11.212.38 16.508l60.444 137.41c3.545 8.06 11.465 12.87 19.756 12.87 2.885 0 5.815-.583 8.621-1.814l33.794-14.824c5.297-2.323 9.362-6.549 11.447-11.897 2.084-5.351 1.949-11.213-.38-16.509l-5.898-13.409 30.157-14.69c8.082-3.938 16.21-4.636 24.846-2.136l70.905 20.53c5.217 1.511 10.605 2.157 16.071 2.157 18.877 0 38.659-7.715 55.286-14.199 1.464-.571 2.9-1.132 4.305-1.674l133.005-51.367c21.589-8.338 34.907-34.613 27.942-55.126zm-369.284 141.34c-.726 1.862-2.155 3.34-4.025 4.16 0 0 0 0-.001 0l-33.794 14.824c-3.804 1.672-8.264-.067-9.938-3.872l-60.444-137.41c-.822-1.87-.875-3.926-.149-5.788s2.155-3.34 4.026-4.16l33.793-14.825c.983-.431 2.009-.635 3.02-.635 2.903 0 5.678 1.685 6.92 4.507l60.444 137.41c.821 1.87.874 3.926.148 5.789zm336.299-99.275-133.005 51.367c-1.419.549-2.87 1.114-4.349 1.69-19.472 7.595-43.707 17.045-62.376 11.639l-70.905-20.53c-11.953-3.461-23.685-2.451-34.871 2.997l-29.668 14.452-41.635-94.65c20.872-9.859 41.363-19.588 61.658-29.53 33.859-16.589 53.413-23.909 93.896 4.753.678.48 1.436.836 2.238 1.05l64.289 17.176c12.341 3.297 19.698 16.02 16.401 28.36-1.589 5.945-5.425 10.933-10.802 14.042-5.379 3.11-11.614 3.947-17.559 2.359l-85.438-22.825c-3.732-1-7.571 1.22-8.569 4.956-.998 3.735 1.221 7.571 4.956 8.569l85.438 22.825c9.559 2.554 19.567 1.218 28.181-3.766 8.614-4.981 14.765-12.989 17.318-22.548 1.121-4.197 1.475-8.423 1.146-12.524l88.895-26.15c29.331-8.632 49.702-5.368 54.487 8.724 4.539 13.36-5.234 31.968-19.726 37.564zm5.818-134.56c-2.733-2.733-2.733-7.166.001-9.899 2.733-2.733 7.166-2.732 9.899.001l17.049 17.05c2.733 2.733 2.733 7.165 0 9.899l-17.049 17.049c-1.367 1.366-3.159 2.05-4.95 2.05s-3.583-.684-4.95-2.05c-2.733-2.734-2.733-7.166 0-9.9l5.1-5.099h-153.132c-3.866 0-7-3.134-7-7s3.134-7 7-7h153.133zm-465.001 12.1c0-3.866 3.134-7 7-7h240c56.017 0 101.589-45.572 101.589-101.589 0-52.819-40.523-96.353-92.111-101.149l2.612 2.611c2.733 2.734 2.733 7.166 0 9.9-2.734 2.732-7.166 2.732-9.9 0l-12.437-12.438c-51.225 5.151-91.341 48.516-91.341 101.075 0 32.968 16.104 64.018 43.076 83.057 3.158 2.229 3.911 6.597 1.682 9.756-2.229 3.158-6.598 3.911-9.756 1.682-30.684-21.659-49.002-56.984-49.002-94.494 0-60.121 46.135-109.669 104.864-115.095l12.913-12.914c2.734-2.734 7.167-2.733 9.899-.001 2.734 2.733 2.734 7.166.001 9.899l-2.885 2.886c59.451 4.703 106.384 54.586 106.384 115.225 0 63.736-51.853 115.589-115.589 115.589h-240c-3.865 0-6.999-3.133-6.999-7zm297.399-139.104c0-27.79-22.608-50.398-50.398-50.398-27.789 0-50.397 22.608-50.397 50.398 0 14.089 4.595 21.195 9.037 28.068 4.126 6.384 8.376 12.969 10.267 27.501-4.215 2.459-7.061 7.019-7.061 12.241v15.484c0 7.815 6.359 14.174 14.175 14.174h.375v.193c0 7.592 6.176 13.769 13.768 13.769h19.674c7.592 0 13.769-6.177 13.769-13.769v-.193h.375c7.816 0 14.175-6.358 14.175-14.174v-15.484c0-5.222-2.846-9.782-7.061-12.241 1.89-14.532 6.139-21.117 10.266-27.5 4.441-6.873 9.036-13.979 9.036-28.069zm-26.243 83.295c0 .08-.095.174-.175.174h-7.375c-3.866 0-7 3.134-7 7v6.962h-19.21v-6.962c0-3.866-3.134-7-7-7h-7.375c-.08 0-.175-.094-.175-.174v-15.484c0-.08.095-.175.175-.175h47.96c.08 0 .175.095.175.175zm5.448-62.826c-4.527 7.002-10.044 15.548-12.371 33.167h-10.233v-41.518l15.11-8.723c3.348-1.934 4.495-6.214 2.562-9.562-1.934-3.349-6.213-4.494-9.562-2.562l-15.11 8.724-15.109-8.724c-3.349-1.932-7.629-.786-9.562 2.562s-.785 7.629 2.562 9.562l15.109 8.723v41.518h-10.232c-2.327-17.619-7.844-26.165-12.371-33.167-3.944-6.103-6.794-10.511-6.794-20.469 0-20.07 16.328-36.398 36.397-36.398 20.07 0 36.398 16.328 36.398 36.398.001 9.958-2.849 14.367-6.794 20.469z"/></svg>