<svg id="Layer_1" height="512" viewBox="0 0 64 64" width="512" xmlns="http://www.w3.org/2000/svg"><path d="m34.07 6.08-.15 2c.64.05 1.27.12 1.91.23l.33-1.97c-.7-.12-1.39-.2-2.09-.25z"/><path d="m6 32c0 7.15 2.97 14 8.17 18.91-.1.35-.17.71-.17 1.09 0 2.21 1.79 4 4 4s4-1.79 4-4-1.79-4-4-4c-1.09 0-2.07.44-2.79 1.14-4.59-4.51-7.21-10.69-7.21-17.14 0-13.23 10.77-24 24-24v-2c-14.34 0-26 11.66-26 26zm12 18c1.1 0 2 .9 2 2s-.9 2-2 2-2-.9-2-2 .9-2 2-2z"/><path d="m29.93 57.92.15-1.99c-.64-.05-1.28-.12-1.91-.23l-.33 1.97c.69.11 1.39.2 2.09.25z"/><path d="m46 8c-2.21 0-4 1.79-4 4s1.79 4 4 4c1.09 0 2.07-.44 2.79-1.14 4.59 4.51 7.21 10.69 7.21 17.14 0 13.23-10.77 24-24 24v2c14.34 0 26-11.66 26-26 0-7.15-2.97-14-8.17-18.91.1-.35.17-.71.17-1.09 0-2.21-1.79-4-4-4zm0 6c-1.1 0-2-.9-2-2s.9-2 2-2 2 .9 2 2-.9 2-2 2z"/><path d="m17 20v24c0 1.65 1.35 3 3 3h24c1.65 0 3-1.35 3-3v-24c0-1.65-1.35-3-3-3h-24c-1.65 0-3 1.35-3 3zm15 20c-.55 0-1 .45-1 1v4h-11c-.55 0-1-.45-1-1v-11h3.17c.41 1.16 1.52 2 2.83 2s2.42-.84 2.83-2h3.17v4c0 .55.45 1 1 1s1 .45 1 1-.45 1-1 1zm13 4c0 .55-.45 1-1 1h-11v-3.17c1.16-.41 2-1.52 2-2.83s-.84-2.42-2-2.83v-3.17h3.17c.41 1.16 1.52 2 2.83 2s2.42-.84 2.83-2h3.17zm-12-25h11c.55 0 1 .45 1 1v11h-4c-.55 0-1 .45-1 1s-.45 1-1 1-1-.45-1-1-.45-1-1-1h-4v-3.17c1.16-.41 2-1.52 2-2.83s-.84-2.42-2-2.83zm-1 5c.55 0 1 .45 1 1s-.45 1-1 1-1 .45-1 1v4h-4c-.55 0-1 .45-1 1s-.45 1-1 1-1-.45-1-1-.45-1-1-1h-4v-11c0-.55.45-1 1-1h11v4c0 .55.45 1 1 1z"/></svg>