<svg id="Capa_1" enable-background="new 0 0 512 512" height="512" viewBox="0 0 512 512" width="512" xmlns="http://www.w3.org/2000/svg"><g><path d="m127.339 80.281-24.775 48.932c-2.658 5.251-4.063 11.137-4.063 17.021v12.896c0 18.11 12.904 33.261 30 36.745v218.625c0 20.678 16.822 37.5 37.5 37.5h180c20.678 0 37.5-16.822 37.5-37.5v-15.37c0-4.142-3.357-7.5-7.5-7.5s-7.5 3.358-7.5 7.5v15.37c0 12.407-10.094 22.5-22.5 22.5h-180.001c-12.406 0-22.5-10.093-22.5-22.5v-218.609c9.277-1.828 17.229-6.985 22.608-14.251 15.297 20.315 45.448 19.656 60 0 15.266 20.273 45.42 19.693 60 0 15.107 20.062 44.911 19.945 59.892-.145 5.412 7.258 13.359 12.482 22.5 14.36v173.275c0 4.142 3.357 7.5 7.5 7.5s7.5-3.358 7.5-7.5v-173.255c17.096-3.484 30-18.636 30-36.745v-12.896c0-5.886-1.405-11.772-4.063-17.022l-24.777-48.931c-6.334-12.51-18.979-20.281-33.001-20.281h-191.318c-14.022 0-26.667 7.771-33.002 20.281zm91.161 78.573c0 14.794-11.593 22.776-22.5 22.776-12.406 0-22.5-10.217-22.5-22.776v-12.324h45zm120 0c0 12.559-10.094 22.776-22.5 22.776s-22.5-10.217-22.5-22.776v-12.324h45zm13.159-83.854c8.336 0 15.854 4.62 19.618 12.057l24.776 48.932c1.601 3.16 2.446 6.703 2.446 10.246v12.896c0 12.406-10.094 22.5-22.5 22.5s-22.5-10.217-22.5-22.776v-12.324h12.501c4.143 0 7.5-3.358 7.5-7.5s-3.357-7.5-7.5-7.5h-14.615l-19.082-56.531zm-35.188 0 19.082 56.529h-43.213l-9.54-56.529zm-72.058 0h23.175l9.541 56.529h-42.256zm-10.913 71.529h45v12.324c0 14.794-11.593 22.776-22.5 22.776-12.406 0-22.5-10.217-22.5-22.776zm-4.3-71.529-9.541 56.529h-43.212l19.082-56.529zm-68.585 56.529h-14.615c-4.143 0-7.5 3.358-7.5 7.5s3.357 7.5 7.5 7.5h12.5v12.324c0 14.794-11.593 22.776-22.5 22.776-12.406 0-22.5-10.093-22.5-22.5v-12.896c0-3.542.846-7.085 2.446-10.246l24.775-48.931c3.766-7.436 11.284-12.056 19.62-12.056h19.356z"/><path d="m376 0h-240c-37.22 0-67.5 30.28-67.5 67.5v75.528c0 4.142 3.357 7.5 7.5 7.5s7.5-3.358 7.5-7.5v-75.528c0-28.949 23.552-52.5 52.5-52.5h240c28.948 0 52.5 23.551 52.5 52.5v377c0 28.949-23.552 52.5-52.5 52.5h-240c-28.948 0-52.5-23.551-52.5-52.5v-271.472c0-4.142-3.357-7.5-7.5-7.5s-7.5 3.358-7.5 7.5v271.472c0 37.22 30.28 67.5 67.5 67.5h240c37.22 0 67.5-30.28 67.5-67.5v-377c0-37.22-30.28-67.5-67.5-67.5z"/><circle cx="256" cy="37.5" r="7.5"/><path d="m336.29 237c-24.327-24.315-63.617-24.219-87.85.012l-71.744 71.745c-24.436 24.437-24.115 63.704.021 87.841 24.426 24.426 63.735 24.126 87.842.021l71.743-71.745c24.179-24.176 24.383-63.48 0-87.861-.004-.005-.008-.009-.012-.013zm-82.337 149.012c-18.174 18.171-47.999 18.62-66.634-.016-18.312-18.312-18.549-48.098-.015-66.633l33.067-33.068c16.722 3.514 31.633 11.802 43.242 23.407 11.592 11.588 19.893 26.483 23.415 43.235zm71.743-71.745-26.386 26.386c-4.905-15.784-13.569-30.023-25.093-41.556-11.357-11.366-25.491-20.105-41.555-25.095l26.384-26.384c18.376-18.373 48.176-18.462 66.64-.009.003.003.006.006.009.01 18.49 18.487 18.35 48.301.001 66.648z"/></g></svg>