<svg id="Layer_1" enable-background="new 0 0 66 66" viewBox="0 0 66 66" xmlns="http://www.w3.org/2000/svg"><g><path d="m53.11 6.51c.12 0 .25-.05.34-.14l1.81-1.81c.19-.19.19-.5 0-.69s-.5-.19-.69 0l-1.81 1.81c-.19.19-.19.5 0 .69.1.09.23.14.35.14z"/><path d="m54.11 7.5c0 .27.22.48.48.48h2.56c.27 0 .48-.22.48-.48 0-.27-.22-.48-.48-.48h-2.56c-.27 0-.48.21-.48.48z"/><path d="m51.63 5.03c.27 0 .48-.22.48-.48v-2.56c0-.27-.22-.48-.48-.48-.27 0-.48.22-.48.48v2.56c0 .26.22.48.48.48z"/><path d="m56.16 3.46c.12 0 .25-.05.34-.14l.42-.42c.19-.19.19-.5 0-.69s-.5-.19-.69 0l-.42.42c-.19.19-.19.5 0 .69.1.09.23.14.35.14z"/><path d="m29.26 57.23h2.52c.47 0 .91-.18 1.23-.51.33-.33.51-.77.51-1.23 0-.96-.78-1.74-1.74-1.74h-2.52c-.47 0-.91.18-1.23.51-.33.33-.51.77-.51 1.23 0 .96.78 1.74 1.74 1.74zm-.55-2.29c.15-.15.34-.23.55-.23h2.52c.43 0 .77.35.77.77 0 .21-.08.4-.23.55s-.34.23-.55.23h-2.52c-.43 0-.77-.35-.77-.77.01-.21.09-.41.23-.55z"/><path d="m21.98 57.23h2.52c.47 0 .91-.18 1.23-.51.33-.33.51-.77.51-1.23 0-.96-.78-1.74-1.74-1.74h-2.52c-.47 0-.91.18-1.23.51-.33.33-.51.77-.51 1.23 0 .96.78 1.74 1.74 1.74zm-.55-2.29c.15-.15.34-.23.55-.23h2.52c.43 0 .77.35.77.77 0 .21-.08.4-.23.55s-.34.23-.55.23h-2.52c-.43 0-.77-.35-.77-.77.01-.21.09-.41.23-.55z"/><path d="m36.64 57.23h2.52c.47 0 .91-.18 1.23-.51.33-.33.51-.77.51-1.23 0-.96-.78-1.74-1.74-1.74h-2.52c-.47 0-.91.18-1.23.51-.33.33-.51.77-.51 1.23-.01.96.78 1.74 1.74 1.74zm-.55-2.29c.15-.15.34-.23.55-.23h2.52c.43 0 .77.35.77.77 0 .21-.08.4-.23.55s-.34.23-.55.23h-2.52c-.43 0-.77-.35-.77-.77 0-.21.08-.41.23-.55z"/><path d="m20.47 16.98c-.27 0-.48.22-.48.48v.7c0 .27.22.48.48.48s.48-.22.48-.48v-.7c.01-.26-.21-.48-.48-.48z"/><path d="m22.12 15.89c-.27 0-.48.22-.48.48v1.79c0 .27.22.48.48.48.27 0 .48-.22.48-.48v-1.79c0-.26-.22-.48-.48-.48z"/><path d="m23.76 14.8c-.27 0-.48.22-.48.48v2.88c0 .27.22.48.48.48.27 0 .48-.22.48-.48v-2.88c0-.26-.21-.48-.48-.48z"/><path d="m35.89 29.06c.27 0 .48-.22.48-.48v-2.56c0-.27-.22-.48-.48-.48-.27 0-.48.22-.48.48v2.56c-.01.27.21.48.48.48z"/><path d="m37.98 29.06c.12 0 .25-.05.34-.14l1.81-1.81c.19-.19.19-.5 0-.69s-.5-.19-.69 0l-1.81 1.81c-.19.19-.19.5 0 .69.1.1.22.14.35.14z"/><path d="m33.45 28.92c.09.09.22.14.34.14s.25-.05.34-.14c.19-.19.19-.5 0-.69l-1.81-1.81c-.19-.19-.5-.19-.69 0s-.19.5 0 .69z"/><path d="m35.89 24.75c.27 0 .48-.22.48-.48v-.59c0-.27-.22-.48-.48-.48-.27 0-.48.22-.48.48v.59c-.01.27.21.48.48.48z"/><path d="m8.41 6.37v8.95c0 .8.65 1.45 1.45 1.45h1.74c.27 0 .48-.22.48-.48 0-.27-.22-.48-.48-.48h-1.74c-.27 0-.48-.22-.48-.48v-8.96c1.12-.23 1.97-1.22 1.97-2.41 0-1.36-1.1-2.46-2.46-2.46s-2.45 1.1-2.45 2.46c0 1.19.85 2.19 1.97 2.41zm.49-3.9c.82 0 1.49.67 1.49 1.49s-.67 1.49-1.49 1.49-1.49-.67-1.49-1.49.66-1.49 1.49-1.49z"/><path d="m37.51 42.62h2.55v2.55c0 .27.22.48.48.48h3.44c.27 0 .48-.22.48-.48v-2.55h2.56c.27 0 .48-.22.48-.48v-3.44c0-.27-.22-.48-.48-.48h-2.56v-2.56c0-.27-.22-.48-.48-.48h-3.44c-.27 0-.48.22-.48.48v2.56h-2.55c-.27 0-.48.22-.48.48v3.44c0 .27.21.48.48.48zm.49-3.44h2.55c.27 0 .48-.22.48-.48v-2.56h2.47v2.56c0 .27.22.48.48.48h2.56v2.47h-2.56c-.27 0-.48.22-.48.48v2.55h-2.47v-2.55c0-.27-.22-.48-.48-.48h-2.55z"/><path d="m27.21 29.26c0-.27-.22-.48-.48-.48h-5.01c-.18 0-.34.09-.42.25l-1.56 2.77-1.34-5.87c-.05-.2-.22-.35-.42-.37s-.4.09-.49.28l-1.97 4.28h-3.69c-.27 0-.48.22-.48.48 0 .27.22.48.48.48h4c.19 0 .36-.11.44-.28l1.5-3.26 1.3 5.71c.04.2.2.34.4.37h.07c.17 0 .34-.09.42-.25l2.04-3.62h4.73c.27 0 .48-.22.48-.49z"/><path d="m64.01 63.53h-11.94c.54-.56.87-1.33.87-2.17v-12.36h.55c1.07 0 1.94-.87 1.94-1.94v-6.28h5.64c.8 0 1.45-.65 1.45-1.45v-7.68c1.12-.23 1.97-1.22 1.97-2.41 0-1.36-1.1-2.46-2.46-2.46s-2.46 1.1-2.46 2.46c0 1.19.85 2.18 1.97 2.41v7.68c0 .27-.22.48-.48.48h-5.64v-6.65c0-1.07-.87-1.94-1.94-1.94h-.55v-20.37c0-1.73-1.41-3.13-3.13-3.13h-5.19-.01-28.07c-1.73 0-3.14 1.4-3.14 3.13v9.68h-2.53-3.21c-1.07 0-1.94.87-1.94 1.94v13.9c0 1.07.87 1.94 1.94 1.94h3.22 2.53v5.08h-4.04c-.27 0-.48.22-.48.48v3.27c0 .27.22.48.48.48h.47v.68c0 1.07-.39 2.09-1.11 2.89-.88.97-1.36 2.23-1.36 3.54v7.41c0 .52.17.99.46 1.38h-5.83c-.27 0-.48.22-.48.48 0 .27.22.48.48.48h62.03c.27 0 .48-.22.48-.48 0-.25-.22-.47-.49-.47zm-3.46-34.3c0-.82.67-1.49 1.49-1.49s1.49.67 1.49 1.49-.67 1.49-1.49 1.49c-.82.01-1.49-.66-1.49-1.49zm-49.69 8.11c-.53 0-.97-.43-.97-.97v-13.9c0-.53.43-.97.97-.97h16.84c.53 0 .97.43.97.97v13.9c0 .53-.43.97-.97.97h-1.96c-.27 0-.48.22-.48.48v1.2c0 .3-.23.42-.3.45s-.32.11-.53-.11l-1.89-1.89c-.09-.09-.21-.14-.34-.14h-11.34zm11.14.97 1.75 1.74c.28.28.64.43 1.02.43.19 0 .38-.04.56-.11.55-.23.9-.74.9-1.34v-.72h1.47c1.07 0 1.94-.87 1.94-1.94v-13.9c0-1.07-.87-1.94-1.94-1.94h-9.36v-7.03c0-.46.38-.84.84-.84h4.83c.3 0 .58.16.73.41l.56.97c.32.55.92.89 1.56.89h7.42c.64 0 1.24-.34 1.57-.9l.56-.97c.15-.26.43-.42.73-.42h4.83c.46 0 .84.38.84.84v17.72h-9.37c-1.07 0-1.94.87-1.94 1.94v13.9c0 1.07.87 1.94 1.94 1.94h1.47v.72c0 .6.34 1.11.9 1.34.19.08.38.11.57.11.37 0 .74-.15 1.02-.43l1.74-1.72h3.67v9.72c0 .46-.38.84-.84.84h-22.79c-.46 0-.84-.38-.84-.84v-3.82s0 0 0 0v-16.59zm28.28-6.12c.53 0 .97.43.97.97v13.9c0 .53-.43.97-.97.97h-11.34c-.13 0-.25.05-.34.14l-1.89 1.89c-.21.21-.46.13-.53.11-.07-.03-.3-.15-.3-.45v-1.2c0-.27-.22-.48-.48-.48h-1.96c-.53 0-.97-.43-.97-.97v-13.9c0-.53.43-.97.97-.97h16.84zm-32.91 28.25h-5.09v-5.05h5.09zm.96 1.71v-1.22-.01-.01-.6c.25.14.54.22.84.22h22.79c1 0 1.81-.81 1.81-1.81v-9.72h3v12.37c0 1.19-.97 2.16-2.16 2.16h-26.73c.28-.39.45-.86.45-1.38zm33.64-.79c0 1.19-.97 2.16-2.16 2.16-.56 0-1.13 0-1.69 0-.41 0-.83 0-1.24 0 .06 0 .23-.27.27-.32.09-.12.17-.25.24-.39.14-.26.24-.55.3-.84 0-.01 0-.01 0-.02.04-.19.06-.39.06-.6v-12.35h2.53 1.7v12.36zm2.49-28.2v13.9c0 .53-.43.97-.97.97h-1.03s0 0 0 0h-.51c.17-.29.27-.61.27-.97v-13.9c0-.35-.1-.68-.27-.97h1.55c.53 0 .96.43.96.97zm-4.65-24.47c1.19 0 2.16.97 2.16 2.17v20.37h-1.7-2.52v-20.38c0-.84-.33-1.6-.87-2.17h2.93zm-35.45 2.16c0-1.19.97-2.16 2.17-2.16h28.09.01c1.19 0 2.16.97 2.16 2.16v20.37h-3v-17.72c0-1-.81-1.81-1.81-1.81h-4.83c-.64 0-1.24.34-1.56.9l-.56.97c-.15.26-.43.42-.73.42h-7.42c-.3 0-.57-.16-.72-.41l-.56-.97c-.32-.55-.92-.89-1.57-.89h-4.83c-1 0-1.81.81-1.81 1.81v7.03h-3v-9.7zm-7.68 25.52v-13.9c0-.53.43-.97.97-.97h1.55c-.17.29-.27.61-.27.97v13.9c0 .35.1.68.27.97h-1.55c-.54 0-.97-.43-.97-.97zm7.68 1.94h3v13.39c-.12-.17-.25-.34-.39-.5-.72-.79-1.11-1.82-1.11-2.89v-.68h.47c.27 0 .48-.22.48-.48v-3.27c0-.27-.22-.48-.48-.48h-1.97zm-4.52 6.05h6.01v2.3h-6.01zm-1.52 10.38c0-1.07.39-2.09 1.11-2.89.88-.97 1.36-2.23 1.36-3.54v-.68h4.09v.68c0 1.31.48 2.57 1.36 3.54.64.71 1.03 1.61 1.1 2.56h-5.56c-.27 0-.48.22-.48.48v6.02c0 .27.22.48.48.48h5.57v.74c0 .76-.62 1.38-1.38 1.38h-6.26c-.76 0-1.38-.62-1.38-1.38v-7.39z"/></g></svg>