<svg width="55" height="62" viewBox="0 0 55 62" fill="none" xmlns="http://www.w3.org/2000/svg">
<path d="M54.9998 39.0459C49.0319 39.4121 43.4039 41.9481 39.176 46.176C34.9481 50.4039 32.4121 56.0319 32.0459 61.9998H31.9539C31.5883 56.0317 29.0525 50.4033 24.8245 46.1753C20.5965 41.9473 14.9681 39.4115 9 39.0459V38.9539C14.9681 38.5883 20.5965 36.0525 24.8245 31.8245C29.0525 27.5965 31.5883 21.9681 31.9539 16H32.0459C32.4121 21.9679 34.9481 27.5959 39.176 31.8238C43.4039 36.0517 49.0319 38.5877 54.9998 38.9539V39.0459Z" fill="url(#paint0_linear_725_1553)"/>
<path d="M23.4893 19.523C20.4418 19.706 17.5679 20.9741 15.409 23.088C13.2501 25.202 11.9551 28.016 11.7681 30.9999H11.7211C11.5345 28.0159 10.2396 25.2017 8.0806 23.0877C5.92162 20.9736 3.04756 19.7058 0 19.523V19.4769C3.04756 19.2941 5.92162 18.0262 8.0806 15.9123C10.2396 13.7983 11.5345 10.9841 11.7211 8H11.7681C11.9551 10.984 13.2501 13.7979 15.409 15.9119C17.5679 18.0259 20.4418 19.2938 23.4893 19.4769V19.523Z" fill="url(#paint1_linear_725_1553)"/>
<path d="M32 7.515C30.0539 7.63441 28.2187 8.46137 26.84 9.84004C25.4614 11.2187 24.6344 13.0539 24.515 15H24.485C24.3658 13.0539 23.5389 11.2185 22.1602 9.83981C20.7815 8.46111 18.9461 7.63422 17 7.515V7.485C18.9461 7.36578 20.7815 6.53889 22.1602 5.16019C23.5389 3.78148 24.3658 1.94614 24.485 0H24.515C24.6344 1.94607 25.4614 3.78129 26.84 5.15996C28.2187 6.53863 30.0539 7.36559 32 7.485V7.515Z" fill="url(#paint2_linear_725_1553)"/>
<defs>
<linearGradient id="paint0_linear_725_1553" x1="10.3127" y1="20.2299" x2="40.3207" y2="60.9397" gradientUnits="userSpaceOnUse">
<stop stop-color="#0048FF"/>
<stop offset="0.5" stop-color="#3393F3"/>
<stop offset="1" stop-color="#0080FF"/>
</linearGradient>
<linearGradient id="paint1_linear_725_1553" x1="0.670311" y1="10.1149" x2="15.5781" y2="30.7697" gradientUnits="userSpaceOnUse">
<stop stop-color="#0048FF"/>
<stop offset="0.5" stop-color="#3393F3"/>
<stop offset="1" stop-color="#0080FF"/>
</linearGradient>
<linearGradient id="paint2_linear_725_1553" x1="17.4281" y1="1.37931" x2="27.2133" y2="14.6543" gradientUnits="userSpaceOnUse">
<stop stop-color="#0048FF"/>
<stop offset="0.5" stop-color="#3393F3"/>
<stop offset="1" stop-color="#0080FF"/>
</linearGradient>
</defs>
</svg>
