<svg width="32" height="32" viewBox="0 0 32 32" fill="none" xmlns="http://www.w3.org/2000/svg">
<path d="M0 16C0 7.16344 7.16344 0 16 0C24.8366 0 32 7.16344 32 16C32 24.8366 24.8366 32 16 32C7.16344 32 0 24.8366 0 16Z" fill="#D9ECFF"/>
<path d="M20.9514 10.2542L16.0528 14.102L11.0422 10.2542V10.2552L11.0483 10.2604V15.6484L15.9964 19.5793L20.9514 15.8002V10.2542Z" fill="#EA4335"/>
<path d="M22.2375 9.3182L20.951 10.2541V15.8002L24.9991 12.672V10.7876C24.9991 10.7876 24.5077 8.09626 22.2375 9.3182Z" fill="#FBBC05"/>
<path d="M20.951 15.8001V22.9934H24.0536C24.0536 22.9934 24.9365 22.9019 25 21.889V12.672L20.951 15.8001Z" fill="#34A853"/>
<path d="M11.042 10.255L9.76259 9.32427C7.49238 8.10233 7 10.7927 7 10.7927V12.677L11.042 15.643V10.255Z" fill="#C5221F"/>
<path d="M7 12.6785V21.8955C7.06256 22.9095 7.94643 23 7.94643 23H11.049L11.042 15.6434L7 12.6785Z" fill="#4285F4"/>
</svg>
