<svg width="299" height="222" viewBox="0 0 299 222" fill="none" xmlns="http://www.w3.org/2000/svg">
<path d="M0 67.5V0H298.5V221.5C277 220.5 266 197 253 175.5C240 154 241 151.5 204.5 143.5C168 135.5 128 138 101.5 98C75 58 27.8333 66.3333 0 67.5Z" fill="url(#paint0_radial_657_198)"/>
<path fill-rule="evenodd" clip-rule="evenodd" d="M170.959 84.9053C201.313 116.333 251.991 116.63 284.153 85.5678C289.927 79.9915 294.711 73.7835 298.5 67.1687V0H155.095C143.547 28.4294 148.687 61.8443 170.959 84.9053Z" fill="url(#paint1_linear_657_198)"/>
<defs>
<radialGradient id="paint0_radial_657_198" cx="0" cy="0" r="1" gradientUnits="userSpaceOnUse" gradientTransform="translate(149.25 110.75) rotate(90) scale(110.75 149.25)">
<stop stop-color="#108AFF"/>
<stop offset="1" stop-color="#0A5399"/>
</radialGradient>
<linearGradient id="paint1_linear_657_198" x1="219.537" y1="1.50809e-06" x2="165.5" y2="87" gradientUnits="userSpaceOnUse">
<stop stop-color="#108AFF"/>
<stop offset="1" stop-color="#0A5399"/>
</linearGradient>
</defs>
</svg>
