<svg width="637" height="637" viewBox="0 0 637 637" fill="none" xmlns="http://www.w3.org/2000/svg">
<path d="M318.502 637.003C142.876 637.003 0 494.121 0 318.502C0 142.882 142.879 0 318.502 0C494.125 0 637 142.879 637 318.502C637 494.124 494.121 637.003 318.502 637.003ZM318.502 19.5537C153.659 19.5537 19.5538 153.659 19.5538 318.502C19.5538 483.341 153.659 617.446 318.502 617.446C483.341 617.446 617.449 483.341 617.449 318.502C617.449 153.659 483.341 19.5537 318.502 19.5537Z" fill="#F6C2D3" fill-opacity="0.09"/>
<path d="M318.503 567.5C181.205 567.5 69.5077 455.8 69.5077 318.502C69.5077 181.203 181.205 69.5032 318.503 69.5032C455.798 69.5032 567.499 181.203 567.499 318.502C567.499 455.8 455.798 567.5 318.503 567.5ZM318.503 89.0569C191.985 89.0569 89.0584 191.984 89.0584 318.499C89.0584 445.013 191.985 547.94 318.503 547.94C445.018 547.94 547.948 445.013 547.948 318.499C547.945 191.984 445.015 89.0569 318.503 89.0569Z" fill="#F6C2D3" fill-opacity="0.09"/>
<path d="M318.501 496.412C220.401 496.412 140.587 416.602 140.587 318.498C140.587 220.395 220.397 140.585 318.501 140.585C416.605 140.585 496.412 220.398 496.412 318.498C496.412 416.599 416.602 496.412 318.501 496.412ZM318.501 160.142C231.178 160.142 160.141 231.178 160.141 318.498C160.141 405.818 231.181 476.855 318.501 476.855C405.821 476.855 476.858 405.818 476.858 318.498C476.858 231.178 405.818 160.142 318.501 160.142Z" fill="#F6C2D3" fill-opacity="0.09"/>
<path d="M318.501 430.07C256.982 430.07 206.933 380.021 206.933 318.502C206.933 256.983 256.982 206.934 318.501 206.934C380.02 206.934 430.066 256.983 430.066 318.502C430.066 380.021 380.017 430.07 318.501 430.07ZM318.501 226.487C267.765 226.487 226.486 267.766 226.486 318.502C226.486 369.237 267.765 410.516 318.501 410.516C369.236 410.516 410.515 369.237 410.515 318.502C410.515 267.766 369.236 226.487 318.501 226.487Z" fill="#F6C2D3" fill-opacity="0.09"/>
</svg>
