<svg width="50" height="45" viewBox="0 0 50 45" fill="none" xmlns="http://www.w3.org/2000/svg">
<g clip-path="url(#clip0_554_9)">
<path d="M25.0879 17.6626C22.443 17.6626 20.2988 19.8068 20.2988 22.4517C20.2988 25.0967 22.443 27.2408 25.0879 27.2408C27.7329 27.2408 29.877 25.0967 29.877 22.4517C29.877 19.8068 27.7329 17.6626 25.0879 17.6626Z" fill="#58C4DC"/>
<path d="M49.9965 22.4951C49.9965 18.7353 46.5147 15.4377 40.9711 13.2676C41.0452 12.7789 41.1122 12.2954 41.1599 11.8208C41.7066 6.41841 40.405 2.51921 37.4965 0.839556C34.2423 -1.03947 29.6458 0.324367 24.9982 4.0436C20.3506 0.324367 15.7542 -1.03947 12.5 0.839556C9.59151 2.51921 8.28983 6.41841 8.8366 11.8208C8.88422 12.2954 8.94948 12.7806 9.02533 13.2711C8.56321 13.4476 8.10992 13.6346 7.67426 13.8304C2.72506 16.0553 0 19.1358 0 22.4951C0 26.2549 3.48173 29.5525 9.02533 31.7226C8.94948 32.2114 8.88422 32.6948 8.8366 33.1694C8.28983 38.5718 9.59151 42.471 12.5 44.1507C13.5 44.7177 14.6331 45.0076 15.7824 44.9905C18.5375 44.9905 21.7546 43.5402 24.9982 40.9466C28.2401 43.5402 31.459 44.9905 34.2176 44.9905C35.3669 45.0074 36.4999 44.7175 37.5 44.1507C40.4085 42.471 41.7102 38.5718 41.1634 33.1694C41.1158 32.6948 41.0488 32.2114 40.9747 31.7226C46.5183 29.556 50 26.2532 50 22.4951M34.1964 2.38159C34.9354 2.36376 35.6659 2.54278 36.313 2.90031C38.3325 4.06654 39.2391 7.23001 38.7982 11.5791C38.7682 11.8755 38.7329 12.1755 38.6906 12.4772C36.3855 11.7828 34.0251 11.2875 31.6354 10.9969C30.1867 9.07066 28.5758 7.2721 26.8202 5.62093C29.577 3.4896 32.1645 2.38159 34.1946 2.38159M33.2475 27.2588C32.3554 28.8076 31.3841 30.3093 30.3372 31.7579C28.5628 31.9402 26.7802 32.0309 24.9965 32.0296C23.2133 32.0309 21.4313 31.9402 19.6575 31.7579C18.6134 30.3093 17.645 28.8076 16.756 27.2588C15.864 25.7143 15.0533 24.1243 14.3273 22.4951C15.0533 20.866 15.864 19.2759 16.756 17.7314C17.6436 16.1889 18.6091 14.6925 19.6487 13.2482C21.4257 13.0613 23.2114 12.9683 24.9982 12.9694C26.7814 12.9683 28.5634 13.059 30.3372 13.2411C31.3804 14.6877 32.3494 16.1864 33.2404 17.7314C34.1318 19.2762 34.9424 20.8663 35.6692 22.4951C34.9424 24.1239 34.1318 25.714 33.2404 27.2588M36.8827 25.4945C37.4425 27.0214 37.902 28.5832 38.2584 30.17C36.7117 30.6523 35.135 31.0325 33.5385 31.308C34.1453 30.3929 34.7332 29.4407 35.3023 28.4515C35.865 27.4741 36.3923 26.4878 36.8897 25.5016M21.6488 34.3039C22.7459 34.3709 23.8659 34.4097 25 34.4097C26.1341 34.4097 27.2612 34.3709 28.36 34.3039C27.3182 35.5521 26.1958 36.7309 25 37.8326C23.8068 36.7311 22.6873 35.5523 21.6488 34.3039ZM16.4597 31.3045C14.8627 31.0302 13.2854 30.6512 11.738 30.17C12.093 28.5857 12.5508 27.0263 13.1085 25.5016C13.5988 26.4878 14.1245 27.4741 14.6959 28.4515C15.2674 29.429 15.8583 30.3923 16.4597 31.308M13.1085 19.4869C12.5528 17.9678 12.0962 16.4143 11.7416 14.8361C13.2851 14.3543 14.8581 13.973 16.4509 13.6946C15.8477 14.6067 15.2568 15.5524 14.6871 16.5387C14.1174 17.525 13.5971 18.4989 13.0997 19.4869M28.3494 10.6846C27.2524 10.6175 26.1324 10.5787 24.9894 10.5787C23.8559 10.5787 22.7388 10.614 21.6382 10.6846C22.6768 9.43616 23.7962 8.25739 24.9894 7.15591C26.1856 8.2571 27.3081 9.43588 28.3494 10.6846ZM35.2988 16.5387C34.7273 15.5483 34.1364 14.5956 33.5262 13.6804C35.1269 13.956 36.7078 14.3367 38.2584 14.8202C37.9026 16.4043 37.4449 17.9637 36.888 19.4887C36.3976 18.5024 35.8703 17.5161 35.3006 16.5405M11.2054 11.5809C10.7591 7.23354 11.671 4.0683 13.6888 2.90207C14.3361 2.5451 15.0664 2.36612 15.8053 2.38336C17.8355 2.38336 20.423 3.49136 23.1798 5.62269C21.423 7.27503 19.8109 9.07476 18.3611 11.0022C15.972 11.2942 13.6119 11.7876 11.3059 12.4772C11.2653 12.1755 11.2283 11.8773 11.2001 11.5809M8.6514 16.0023C8.92303 15.8847 9.19994 15.7671 9.48215 15.6495C10.037 17.9908 10.7893 20.2809 11.731 22.4951C10.7875 24.7136 10.0346 27.0085 9.48039 29.3549C4.98624 27.5111 2.38112 24.9564 2.38112 22.4951C2.38112 20.1626 4.67405 17.7967 8.6514 16.0023ZM13.6888 42.0881C11.671 40.9219 10.7591 37.7567 11.2054 33.4093C11.2336 33.1129 11.2706 32.8148 11.3112 32.5113C13.6163 33.2055 15.9767 33.7007 18.3664 33.9916C19.8155 35.9185 21.4264 37.7182 23.1815 39.3711C19.3382 42.3404 15.8265 43.3197 13.6941 42.0881M38.7964 33.4093C39.2373 37.7584 38.3307 40.9219 36.3112 42.0881C34.1805 43.3232 30.6671 42.3404 26.8255 39.3711C28.5801 37.7182 30.1904 35.9185 31.6389 33.9916C34.0286 33.7009 36.389 33.2057 38.6941 32.5113C38.7364 32.8148 38.7717 33.1129 38.8017 33.4093M40.5267 29.3513C39.9709 27.0064 39.2174 24.7127 38.2743 22.4951C39.217 20.2763 39.9699 17.9815 40.5249 15.6353C45.0102 17.4791 47.6224 20.0339 47.6224 22.4951C47.6224 24.9564 45.0173 27.5111 40.5231 29.3549" fill="#58C4DC"/>
</g>
<defs>
<clipPath id="clip0_554_9">
<rect width="50" height="44.9912" fill="white"/>
</clipPath>
</defs>
</svg>
