<svg width="50" height="40" viewBox="0 0 50 40" fill="none" xmlns="http://www.w3.org/2000/svg">
<g clip-path="url(#clip0_554_54)">
<path d="M5.51572 5.20703C5.42139 2.49805 7.53203 0 10.385 0H39.6187C42.4716 0 44.5822 2.49805 44.4879 5.20703C44.3973 7.80928 44.5149 11.1802 45.3633 13.9287C46.2144 16.6857 47.6495 18.4284 50 18.6523V21.1914C47.6495 21.4153 46.2144 23.158 45.3633 25.915C44.5149 28.6636 44.3973 32.0345 44.4879 34.6368C44.5822 37.3457 42.4716 39.8438 39.6187 39.8438H10.385C7.53203 39.8438 5.42139 37.3457 5.51582 34.6368C5.60635 32.0345 5.48867 28.6636 4.64023 25.915C3.78926 23.158 2.35059 21.4153 0 21.1914V18.6523C2.35049 18.4284 3.78926 16.6857 4.64023 13.9287C5.48867 11.1802 5.60635 7.80928 5.51572 5.20703Z" fill="url(#paint0_linear_554_54)"/>
<g filter="url(#filter0_d_554_54)">
<path d="M26.0842 30.5134C30.703 30.5134 33.4863 28.2519 33.4863 24.5217C33.4863 21.7021 31.5004 19.6608 28.5516 19.3376V19.2202C30.7181 18.8677 32.4182 16.8558 32.4182 14.6089C32.4182 11.4075 29.8906 9.32202 26.0391 9.32202H17.373V30.5134H26.0842ZM20.7432 12.0095H25.2267C27.664 12.0095 29.048 13.0962 29.048 15.0641C29.048 17.1642 27.4383 18.339 24.5195 18.339H20.7432V12.0095ZM20.7432 27.826V20.8503H25.1965C28.386 20.8503 30.041 22.0251 30.041 24.3162C30.041 26.6071 28.4312 27.826 25.3921 27.826H20.7432Z" fill="url(#paint1_linear_554_54)"/>
<path d="M26.0842 30.5134C30.703 30.5134 33.4863 28.2519 33.4863 24.5217C33.4863 21.7021 31.5004 19.6608 28.5516 19.3376V19.2202C30.7181 18.8677 32.4182 16.8558 32.4182 14.6089C32.4182 11.4075 29.8906 9.32202 26.0391 9.32202H17.373V30.5134H26.0842ZM20.7432 12.0095H25.2267C27.664 12.0095 29.048 13.0962 29.048 15.0641C29.048 17.1642 27.4383 18.339 24.5195 18.339H20.7432V12.0095ZM20.7432 27.826V20.8503H25.1965C28.386 20.8503 30.041 22.0251 30.041 24.3162C30.041 26.6071 28.4312 27.826 25.3921 27.826H20.7432Z" stroke="white"/>
</g>
</g>
<defs>
<filter id="filter0_d_554_54" x="0.873047" y="-3.17798" width="49.1133" height="54.1914" filterUnits="userSpaceOnUse" color-interpolation-filters="sRGB">
<feFlood flood-opacity="0" result="BackgroundImageFix"/>
<feColorMatrix in="SourceAlpha" type="matrix" values="0 0 0 0 0 0 0 0 0 0 0 0 0 0 0 0 0 0 127 0" result="hardAlpha"/>
<feOffset dy="4"/>
<feGaussianBlur stdDeviation="8"/>
<feColorMatrix type="matrix" values="0 0 0 0 0 0 0 0 0 0 0 0 0 0 0 0 0 0 0.15 0"/>
<feBlend mode="normal" in2="BackgroundImageFix" result="effect1_dropShadow_554_54"/>
<feBlend mode="normal" in="SourceGraphic" in2="effect1_dropShadow_554_54" result="shape"/>
</filter>
<linearGradient id="paint0_linear_554_54" x1="7.42959" y1="1.05449" x2="51.1211" y2="35.7368" gradientUnits="userSpaceOnUse">
<stop stop-color="#9013FE"/>
<stop offset="1" stop-color="#6610F2"/>
</linearGradient>
<linearGradient id="paint1_linear_554_54" x1="18.8972" y1="10.7168" x2="28.6634" y2="27.2336" gradientUnits="userSpaceOnUse">
<stop stop-color="white"/>
<stop offset="1" stop-color="#F1E5FC"/>
</linearGradient>
<clipPath id="clip0_554_54">
<rect width="50" height="39.8438" fill="white"/>
</clipPath>
</defs>
</svg>
