<svg width="25" height="25" viewBox="0 0 25 25" fill="none" xmlns="http://www.w3.org/2000/svg">
<path d="M24.6982 3.14375C24.698 3.14224 24.6977 3.14077 24.6975 3.13926C24.6217 2.41694 24.01 1.85205 23.2688 1.85205H4.54219C3.74893 1.85205 3.10352 2.49746 3.10352 3.29072V11.0915C3.10352 11.2458 3.22861 11.371 3.38306 11.371C3.53745 11.371 3.6626 11.2459 3.6626 11.0915V6.55615H6.45371C6.53105 6.55615 6.60493 6.52412 6.65781 6.46763C7.14189 6.00518 7.25083 5.68408 7.62905 5.68408H11.0562C11.4578 5.68408 11.559 6.04067 11.9525 6.45488C12.0056 6.51904 12.0845 6.55615 12.1678 6.55615H24.1466V17.4741C24.1466 17.9591 23.7528 18.3537 23.2688 18.3537H7.70273C7.54834 18.3537 7.42319 18.4788 7.42319 18.6333C7.42319 18.7876 7.54829 18.9128 7.70273 18.9128H23.2688C24.0611 18.9128 24.7056 18.2674 24.7056 17.4741C24.7056 3.38384 24.7102 3.26191 24.6982 3.14375ZM12.2993 5.99712C12.0363 5.74565 11.7852 5.12505 11.0562 5.12505H7.62905C6.93677 5.12505 6.67769 5.69346 6.33247 5.99712H3.66338V3.29053C3.66338 2.8061 4.05757 2.41191 4.54199 2.41191H23.2679C23.7164 2.41191 24.0832 2.75093 24.1359 3.1854C24.1582 3.36885 24.1395 2.95596 24.1466 5.99717L12.2993 5.99712Z" fill="#108AFF"/>
<path d="M16.7201 3.32861C16.2024 3.32861 15.7812 3.7498 15.7812 4.26748C15.7812 4.78516 16.2024 5.20635 16.7201 5.20635C17.2378 5.20635 17.659 4.78516 17.659 4.26748C17.659 3.7498 17.2378 3.32861 16.7201 3.32861ZM16.7201 4.64727C16.5106 4.64727 16.3403 4.4769 16.3403 4.26748C16.3403 4.05801 16.5107 3.8877 16.7201 3.8877C16.9296 3.8877 17.0999 4.05806 17.0999 4.26748C17.0999 4.4769 16.9296 4.64727 16.7201 4.64727Z" fill="#108AFF"/>
<path d="M19.2943 3.26562C18.7767 3.26562 18.3555 3.68682 18.3555 4.20449C18.3555 4.72217 18.7767 5.14326 19.2943 5.14326C19.812 5.14326 20.2332 4.72217 20.2332 4.20449C20.2332 3.68682 19.812 3.26562 19.2943 3.26562ZM19.2943 4.58418C19.0849 4.58418 18.9145 4.41382 18.9145 4.20444C18.9145 3.99497 19.0849 3.82466 19.2943 3.82466C19.5038 3.82466 19.6741 3.99502 19.6741 4.20444C19.6742 4.41387 19.5038 4.58418 19.2943 4.58418Z" fill="#108AFF"/>
<path d="M21.8686 3.20312C21.3509 3.20312 20.9297 3.62432 20.9297 4.14199C20.9297 4.65967 21.3509 5.08076 21.8686 5.08076C22.3862 5.08076 22.8074 4.65967 22.8074 4.14199C22.8074 3.62432 22.3862 3.20312 21.8686 3.20312ZM21.8686 4.52168C21.6591 4.52168 21.4888 4.35132 21.4888 4.14194C21.4888 3.93247 21.6591 3.76216 21.8686 3.76216C22.078 3.76216 22.2483 3.93252 22.2483 4.14194C22.2484 4.35137 22.078 4.52168 21.8686 4.52168Z" fill="#108AFF"/>
<path d="M1.64445 20.3945C2.15553 20.9057 2.94835 20.9663 3.52814 20.5728L5.77091 22.8156C6.21417 23.2589 6.93156 23.2589 7.37477 22.8157C7.81803 22.3724 7.81813 21.655 7.37477 21.2118L5.18019 19.0173C6.51539 18.2039 8.0087 17.5216 9.6256 16.9887C9.95431 17.1052 10.2875 17.0126 10.5076 16.7925C10.8376 16.4625 10.8376 15.9254 10.5076 15.5953L9.04991 14.1376C9.53873 13.5627 9.51368 12.6956 8.97198 12.1517C8.42726 11.607 7.56207 11.5787 6.98561 12.0733L5.5276 10.6153C5.19684 10.2846 4.66114 10.2844 4.33038 10.6153C4.09127 10.8544 4.02789 11.2014 4.13512 11.5003C3.61896 13.2094 2.90836 14.7516 2.02111 16.085L0.72843 17.3777C0.147913 17.958 0.147717 18.8979 0.72843 19.4784L1.64445 20.3945ZM6.97936 22.4203C6.76227 22.6374 6.38356 22.6376 6.16622 22.4203L3.94274 20.1969L4.75592 19.3837L6.97941 21.6073C7.20406 21.8317 7.20436 22.1955 6.97936 22.4203ZM4.90328 18.5288L2.59889 16.2244C3.40016 14.9847 4.05655 13.579 4.55441 12.0367L9.09469 16.5769C7.57941 17.1022 6.17228 17.7575 4.90328 18.5288ZM8.57618 12.5467C8.90026 12.8721 8.92238 13.3831 8.6504 13.7382L7.38483 12.4726C7.75597 12.1847 8.26017 12.2306 8.57618 12.5467ZM4.72574 11.0106C4.83776 10.8984 5.01989 10.8982 5.13214 11.0106H5.13224L10.1122 15.9906C10.2243 16.1027 10.2243 16.2851 10.1123 16.3972C10.0004 16.5094 9.81793 16.5096 9.70568 16.3972L4.7257 11.4173C4.61354 11.3052 4.61354 11.1227 4.72574 11.0106ZM1.12369 17.7731L2.2403 16.6565L4.46642 18.8826L3.34982 19.9992C2.98859 20.3602 2.40104 20.3604 2.03981 19.9992L1.12379 19.0832C0.762512 18.722 0.762512 18.1343 1.12369 17.7731Z" fill="#108AFF"/>
<path d="M10.4219 12.1187C10.4582 12.2692 10.6098 12.3611 10.7592 12.3248L12.3602 11.9386C12.5102 11.9023 12.6025 11.7514 12.5663 11.6013C12.5301 11.4513 12.38 11.3587 12.2289 11.3952L10.628 11.7814C10.478 11.8177 10.3857 11.9686 10.4219 12.1187Z" fill="#108AFF"/>
<path d="M10.677 10.0497L9.68345 11.0433C9.57427 11.1525 9.57427 11.3295 9.68345 11.4386C9.79253 11.5477 9.96963 11.5479 10.0787 11.4386L11.0723 10.4449C11.1814 10.3357 11.1814 10.1587 11.0723 10.0497C10.9631 9.94048 10.786 9.94048 10.677 10.0497Z" fill="#108AFF"/>
<path d="M9.52247 8.55586C9.37188 8.51919 9.2213 8.61192 9.18517 8.76197L8.79889 10.3629C8.76266 10.513 8.85494 10.664 9.00499 10.7002C9.15426 10.7364 9.30597 10.6448 9.34229 10.4941L9.72857 8.89317C9.76476 8.74302 9.67252 8.59209 9.52247 8.55586Z" fill="#108AFF"/>
<path d="M14.7679 14.3428H21.6816C22.3119 14.3428 22.8245 13.8301 22.8245 13.1999V8.28789C22.8245 7.65767 22.3119 7.14502 21.6816 7.14502H14.7679C14.1376 7.14502 13.625 7.65767 13.625 8.28789V13.1999C13.625 13.8301 14.1376 14.3428 14.7679 14.3428ZM14.1841 8.28789C14.1841 7.96597 14.4459 7.7041 14.7679 7.7041H21.6816C22.0036 7.7041 22.2654 7.96597 22.2654 8.28789V13.1999C22.2654 13.5218 22.0036 13.7837 21.6816 13.7837H14.7679C14.4459 13.7837 14.1841 13.5218 14.1841 13.1999V8.28789Z" fill="#108AFF"/>
<path d="M13.9045 15.707H22.1702C22.3246 15.707 22.4497 15.5819 22.4497 15.4275C22.4497 15.273 22.3246 15.1479 22.1702 15.1479H13.9045C13.7501 15.1479 13.625 15.273 13.625 15.4275C13.625 15.5819 13.7501 15.707 13.9045 15.707Z" fill="#108AFF"/>
<path d="M22.1714 16.8843H16.7209C16.5666 16.8843 16.4414 17.0094 16.4414 17.1638C16.4414 17.3182 16.5665 17.4434 16.7209 17.4434H22.1714C22.3258 17.4434 22.451 17.3183 22.451 17.1638C22.451 17.0094 22.3259 16.8843 22.1714 16.8843Z" fill="#108AFF"/>
<path d="M15.1303 12.7254C15.2738 12.7833 15.4364 12.7137 15.4941 12.5704L15.9425 11.4559H17.1565L17.5323 12.5564C17.5818 12.7012 17.7395 12.7808 17.8872 12.7306C18.0332 12.6807 18.1112 12.5218 18.0613 12.3757L16.8852 8.93191C16.8474 8.82136 16.7449 8.74592 16.6281 8.74285C16.5103 8.73874 16.4049 8.80954 16.3613 8.91789C15.8564 10.1726 15.5762 10.8688 14.9754 12.3617C14.9177 12.505 14.9871 12.6677 15.1303 12.7254ZM16.5991 9.82429L16.9655 10.8969H16.1675L16.5991 9.82429Z" fill="#108AFF"/>
<path d="M18.6682 12.7458H19.4951C20.5987 12.7458 21.4966 11.8479 21.4966 10.7442C21.4966 9.64058 20.5987 8.74268 19.4951 8.74268H18.6682C18.5138 8.74268 18.3887 8.86777 18.3887 9.02222V12.4663C18.3887 12.6207 18.5138 12.7458 18.6682 12.7458ZM18.9478 9.30171H19.4951C20.2904 9.30171 20.9376 9.94883 20.9376 10.7442C20.9376 11.5396 20.2904 12.1868 19.4951 12.1868H18.9478V9.30171Z" fill="#108AFF"/>
</svg>
