<svg width="25" height="25" viewBox="0 0 25 25" fill="none" xmlns="http://www.w3.org/2000/svg">
<path d="M10.5629 21.5596H6.93359C6.82999 21.5596 6.73064 21.6007 6.65738 21.674C6.58412 21.7472 6.54297 21.8466 6.54297 21.9502C6.54297 22.0538 6.58412 22.1532 6.65738 22.2264C6.73064 22.2997 6.82999 22.3408 6.93359 22.3408H10.5629C10.6665 22.3408 10.7658 22.2997 10.8391 22.2264C10.9124 22.1532 10.9535 22.0538 10.9535 21.9502C10.9535 21.8466 10.9124 21.7472 10.8391 21.674C10.7658 21.6007 10.6665 21.5596 10.5629 21.5596Z" fill="#108AFF"/>
<path d="M5.41016 3.35205H9.94648C10.0501 3.35205 10.1494 3.3109 10.2227 3.23764C10.296 3.16438 10.3371 3.06503 10.3371 2.96143C10.3371 2.85783 10.296 2.75847 10.2227 2.68521C10.1494 2.61196 10.0501 2.5708 9.94648 2.5708H5.41016C5.30656 2.5708 5.2072 2.61196 5.13394 2.68521C5.06069 2.75847 5.01953 2.85783 5.01953 2.96143C5.01953 3.06503 5.06069 3.16438 5.13394 3.23764C5.2072 3.3109 5.30656 3.35205 5.41016 3.35205Z" fill="#108AFF"/>
<path d="M11.457 3.35205H12.0871C12.1907 3.35205 12.2901 3.3109 12.3633 3.23764C12.4366 3.16438 12.4777 3.06503 12.4777 2.96143C12.4777 2.85783 12.4366 2.75847 12.3633 2.68521C12.2901 2.61196 12.1907 2.5708 12.0871 2.5708H11.457C11.3534 2.5708 11.2541 2.61196 11.1808 2.68521C11.1076 2.75847 11.0664 2.85783 11.0664 2.96143C11.0664 3.06503 11.1076 3.16438 11.1808 3.23764C11.2541 3.3109 11.3534 3.35205 11.457 3.35205Z" fill="#108AFF"/>
<path d="M8.74961 17.3343C9.87336 17.334 10.9718 17.0006 11.9061 16.3761C12.8403 15.7516 13.5684 14.8641 13.9983 13.8259C14.4282 12.7876 14.5405 11.6451 14.3211 10.543C14.1018 9.44089 13.5605 8.42856 12.7658 7.63403C11.9711 6.8395 10.9587 6.29846 9.85652 6.07931C8.75434 5.86016 7.61193 5.97275 6.57375 6.40285C5.53556 6.83294 4.64822 7.56122 4.02392 8.4956C3.39962 9.42998 3.06641 10.5285 3.06641 11.6522C3.06806 13.1589 3.66739 14.6034 4.73288 15.6686C5.79836 16.7339 7.24295 17.3329 8.74961 17.3343ZM4.03711 12.9874C4.83356 13.4117 5.70005 13.6888 6.59492 13.8054C6.71155 14.7004 6.98878 15.567 7.41328 16.3636C6.60999 16.1341 5.87844 15.7037 5.28771 15.113C4.69698 14.5222 4.26657 13.7907 4.03711 12.9874ZM8.74961 6.75186C9.20039 6.75186 9.79531 7.7378 10.0969 9.39717C9.65195 9.35459 9.19844 9.33076 8.74961 9.33076C8.30078 9.33076 7.84766 9.35459 7.40273 9.39717C7.70273 7.7378 8.29766 6.75186 8.74961 6.75186ZM8.74961 10.1112C9.23804 10.1106 9.72614 10.1367 10.2117 10.1894C10.2642 10.6748 10.2903 11.1628 10.2898 11.6511C10.2903 12.1394 10.2642 12.6273 10.2117 13.1128C9.72614 13.1655 9.23804 13.1915 8.74961 13.1909C8.26131 13.1915 7.77334 13.1655 7.28789 13.1128C7.1832 12.1411 7.1832 11.161 7.28789 10.1894C7.77337 10.1372 8.26133 10.1113 8.74961 10.112V10.1112ZM11.0047 10.3065C12.6645 10.6081 13.6504 11.203 13.6504 11.6534C13.6504 12.1038 12.6645 12.6991 11.0047 13.0003C11.0477 12.5554 11.0715 12.1019 11.0715 11.6534C11.0715 11.205 11.0461 10.7503 11.0031 10.3054L11.0047 10.3065ZM8.74961 16.553C8.29922 16.553 7.7043 15.5667 7.40273 13.9073C7.84766 13.9499 8.30117 13.9737 8.74961 13.9737C9.19805 13.9737 9.65195 13.9499 10.0969 13.9073C9.79375 15.5667 9.19883 16.553 8.74961 16.553ZM6.49492 12.9983C4.83516 12.6972 3.84922 12.1019 3.84922 11.6515C3.84922 11.2011 4.83516 10.6062 6.49492 10.3046C6.45195 10.7495 6.42813 11.203 6.42813 11.6515C6.42813 12.0999 6.45039 12.5542 6.49336 12.9991L6.49492 12.9983ZM10.0848 16.3628C10.5093 15.5663 10.7865 14.6996 10.9031 13.8046C11.798 13.688 12.6645 13.4109 13.4609 12.9866C13.2315 13.7903 12.8009 14.5221 12.2099 15.113C11.6189 15.7039 10.8869 16.1343 10.0832 16.3636L10.0848 16.3628ZM13.4609 10.3163C12.6644 9.89195 11.7977 9.61485 10.9027 9.49834C10.7864 8.60355 10.5093 7.73715 10.0848 6.94092C10.8879 7.17041 11.6192 7.60086 12.2097 8.1916C12.8001 8.78235 13.2303 9.51388 13.4594 10.3171L13.4609 10.3163ZM7.41328 6.9417C6.98894 7.738 6.71184 8.60437 6.59531 9.49912C5.70042 9.61558 4.83391 9.89269 4.0375 10.3171C4.26677 9.51386 4.69709 8.78236 5.28778 8.19173C5.87847 7.60111 6.61002 7.17088 7.41328 6.9417Z" fill="#108AFF"/>
<path d="M23.3621 13.1758C23.4485 13.1562 23.5257 13.1078 23.581 13.0386C23.6363 12.9694 23.6664 12.8835 23.6664 12.7949V10.5098C23.6664 10.4212 23.6363 10.3352 23.581 10.266C23.5257 10.1968 23.4485 10.1485 23.3621 10.1289C22.9555 10.038 22.5922 9.81063 22.3326 9.48468C22.073 9.15873 21.9328 8.75379 21.9352 8.33711C21.9333 7.99391 22.0307 7.6575 22.2156 7.36836C22.2557 7.30374 22.2768 7.22916 22.2766 7.15313C22.2765 7.04953 22.2354 6.95019 22.1621 6.87695L20.5469 5.26367C20.4845 5.20125 20.4028 5.16178 20.3151 5.15171C20.2275 5.14164 20.139 5.16155 20.0641 5.2082C19.8158 5.36431 19.5338 5.45867 19.2415 5.48339C18.9493 5.50811 18.6554 5.46246 18.3845 5.35028C18.1135 5.23809 17.8734 5.06263 17.6841 4.83858C17.4949 4.61453 17.3621 4.34841 17.2969 4.0625C17.2773 3.97611 17.2289 3.89894 17.1597 3.84365C17.0905 3.78836 17.0046 3.75823 16.916 3.7582H16.1641V1.94922C16.1637 1.63958 16.0405 1.34274 15.8215 1.1238C15.6026 0.90485 15.3057 0.781663 14.9961 0.78125H2.5C2.19036 0.781663 1.89353 0.90485 1.67458 1.1238C1.45563 1.34274 1.33244 1.63958 1.33203 1.94922V23.0508C1.33244 23.3604 1.45563 23.6573 1.67458 23.8762C1.89353 24.0952 2.19036 24.2183 2.5 24.2188H14.9961C15.3057 24.2183 15.6026 24.0952 15.8215 23.8762C16.0405 23.6573 16.1637 23.3604 16.1641 23.0508V19.5457H16.916C17.0046 19.5457 17.0905 19.5155 17.1597 19.4603C17.2289 19.405 17.2773 19.3278 17.2969 19.2414C17.3622 18.9554 17.495 18.6892 17.6844 18.4651C17.8737 18.241 18.114 18.0655 18.3851 17.9534C18.6562 17.8413 18.9503 17.7957 19.2426 17.8206C19.5349 17.8455 19.817 17.9401 20.0652 18.0965C20.1401 18.1433 20.2286 18.1634 20.3164 18.1535C20.4041 18.1436 20.4859 18.1042 20.5484 18.0418L22.1621 16.4281C22.2247 16.3656 22.2642 16.2838 22.2742 16.196C22.2842 16.1081 22.2641 16.0195 22.2172 15.9445C22.0608 15.6963 21.9661 15.4141 21.9412 15.1218C21.9162 14.8294 21.9617 14.5353 22.0738 14.2642C22.186 13.993 22.3615 13.7527 22.5856 13.5633C22.8098 13.3739 23.076 13.241 23.3621 13.1758ZM16.1641 8.28477C16.9899 8.38072 17.7517 8.77679 18.3046 9.39767C18.8575 10.0185 19.163 10.821 19.163 11.6523C19.163 12.4837 18.8575 13.2861 18.3046 13.907C17.7517 14.5279 16.9899 14.924 16.1641 15.0199V8.28477ZM2.5 1.5625H14.9961C15.0986 1.5626 15.1969 1.60338 15.2694 1.67588C15.3419 1.74838 15.3827 1.84669 15.3828 1.94922V19.9531H2.11484V1.94922C2.11495 1.84696 2.15551 1.74889 2.22767 1.67643C2.29984 1.60397 2.39774 1.56302 2.5 1.5625ZM14.9961 23.4375H2.5C2.39747 23.4374 2.29916 23.3966 2.22666 23.3241C2.15416 23.2516 2.11338 23.1533 2.11328 23.0508V20.7344H15.3828V23.0508C15.3827 23.1533 15.3419 23.2516 15.2694 23.3241C15.1969 23.3966 15.0986 23.4374 14.9961 23.4375ZM21.1539 14.968C21.1542 15.353 21.2394 15.7333 21.4035 16.0816L20.2027 17.2828C19.8728 17.1271 19.514 17.0422 19.1493 17.0333C18.7846 17.0245 18.4221 17.092 18.085 17.2315C17.748 17.371 17.4438 17.5795 17.192 17.8435C16.9403 18.1075 16.7464 18.4212 16.623 18.7645H16.1641V15.8039C17.1978 15.7066 18.158 15.2271 18.8569 14.4593C19.5558 13.6915 19.9431 12.6906 19.9431 11.6523C19.9431 10.6141 19.5558 9.61316 18.8569 8.84536C18.158 8.07755 17.1978 7.5981 16.1641 7.50078V4.54062H16.623C16.7465 4.88383 16.9403 5.19745 17.1921 5.46136C17.4438 5.72527 17.748 5.93364 18.085 6.07311C18.422 6.21258 18.7845 6.28007 19.1491 6.27124C19.5137 6.26242 19.8725 6.17748 20.2023 6.02188L21.4063 7.22422C21.2504 7.55395 21.1652 7.91264 21.1562 8.27725C21.1472 8.64185 21.2146 9.0043 21.3541 9.34131C21.4935 9.67833 21.7019 9.98244 21.9658 10.2341C22.2298 10.4858 22.5435 10.6795 22.8867 10.8027V12.502C22.3777 12.6824 21.9375 13.0167 21.627 13.4586C21.3165 13.9004 21.1512 14.4279 21.1539 14.968Z" fill="#108AFF"/>
</svg>
