<svg width="25" height="25" viewBox="0 0 25 25" fill="none" xmlns="http://www.w3.org/2000/svg">
<path d="M23.0742 17.0562C22.9782 16.7681 22.8243 16.5026 22.6219 16.2762C22.4196 16.0497 22.1731 15.867 21.8976 15.7393C21.6221 15.6115 21.3234 15.5414 21.0199 15.5333C20.7163 15.5251 20.4143 15.5791 20.1323 15.6919L14.0459 18.126C14.0331 17.7047 13.8782 17.3002 13.6063 16.9782C13.3344 16.6562 12.9615 16.4357 12.5483 16.3525L5.6792 14.9795C5.66489 14.9788 5.65054 14.9788 5.63623 14.9795C5.61924 14.9747 5.60195 14.9712 5.58447 14.9688H2.29443C2.23098 14.9687 2.16814 14.9813 2.10952 15.0056C2.0509 15.0299 1.99764 15.0655 1.95279 15.1104C1.90794 15.1553 1.87238 15.2086 1.84814 15.2672C1.8239 15.3258 1.81146 15.3887 1.81152 15.4521V20.9351C1.81146 20.9985 1.8239 21.0614 1.84814 21.12C1.87238 21.1787 1.90794 21.2319 1.95279 21.2768C1.99764 21.3217 2.0509 21.3574 2.10952 21.3817C2.16814 21.406 2.23098 21.4185 2.29443 21.4185H5.51074L11.5386 23.2739C12.3121 23.5117 13.1447 23.4701 13.8906 23.1562L21.8257 19.8149C22.3413 19.5948 22.7557 19.1893 22.9868 18.6785C23.218 18.1677 23.2492 17.5888 23.0742 17.0562ZM2.77832 15.9365H5.10107V20.4517H2.77832V15.9365ZM21.4492 18.9238L13.5161 22.2656C12.9794 22.4914 12.3803 22.5213 11.8237 22.3501L6.06787 20.5781V16.043L12.3564 17.3003C12.472 17.3247 12.5817 17.3716 12.6791 17.4383C12.7766 17.505 12.8599 17.5903 12.9244 17.6893C12.9889 17.7882 13.0333 17.8989 13.055 18.015C13.0768 18.1311 13.0754 18.2504 13.051 18.366C13.0267 18.4815 12.9798 18.5912 12.913 18.6887C12.8463 18.7861 12.761 18.8695 12.662 18.934C12.5631 18.9985 12.4524 19.0428 12.3363 19.0646C12.2202 19.0863 12.1009 19.0849 11.9854 19.0605L8.43018 18.2705C8.30655 18.2465 8.17843 18.2717 8.07308 18.3407C7.96774 18.4097 7.89348 18.5171 7.86612 18.64C7.83876 18.7629 7.86046 18.8917 7.92659 18.9989C7.99272 19.1061 8.09807 19.1832 8.22021 19.2139L11.7754 20.0039C12.1426 20.0852 12.5257 20.0539 12.8749 19.9141C13.224 19.7743 13.5228 19.5325 13.7324 19.2202C13.8182 19.2332 13.9058 19.2231 13.9863 19.1909L20.4912 16.5894C20.6508 16.5255 20.8218 16.495 20.9937 16.4996C21.1656 16.5042 21.3347 16.5439 21.4906 16.6162C21.6466 16.6886 21.7861 16.792 21.9007 16.9202C22.0152 17.0484 22.1024 17.1987 22.1567 17.3618C22.2554 17.6635 22.2375 17.9912 22.1066 18.2803C21.9756 18.5695 21.7411 18.799 21.4492 18.9238Z" fill="#308CE3"/>
<path d="M4.44298 14.143H20.5563C20.9283 14.144 21.2884 14.0114 21.5709 13.7693C21.8535 13.5272 22.0397 13.1917 22.0958 12.8238C22.1518 12.456 22.074 12.0803 21.8764 11.765C21.6788 11.4497 21.3746 11.2158 21.0192 11.1059C20.8214 6.92087 17.6056 3.51706 13.4996 3.03512C13.563 2.87232 13.5858 2.6965 13.5659 2.52291C13.546 2.34933 13.484 2.18322 13.3854 2.03898C13.2868 1.89475 13.1545 1.77675 13 1.69521C12.8454 1.61366 12.6734 1.57104 12.4986 1.57104C12.3239 1.57104 12.1518 1.61366 11.9973 1.69521C11.8428 1.77675 11.7105 1.89475 11.6119 2.03898C11.5133 2.18322 11.4513 2.34933 11.4314 2.52291C11.4115 2.6965 11.4343 2.87232 11.4977 3.03512C7.39464 3.51559 4.17882 6.92087 3.98106 11.1059C3.62568 11.2158 3.32154 11.4496 3.12395 11.7648C2.92636 12.08 2.84845 12.4556 2.90438 12.8234C2.96031 13.1911 3.14638 13.5266 3.42873 13.7688C3.71109 14.011 4.07099 14.1438 4.44298 14.143ZM11.9625 2.64889C11.9625 2.50644 12.0191 2.36983 12.1198 2.2691C12.2206 2.16837 12.3572 2.11179 12.4996 2.11179C12.6421 2.11179 12.7787 2.16837 12.8794 2.2691C12.9801 2.36983 13.0367 2.50644 13.0367 2.64889C13.0348 2.77497 12.9879 2.8962 12.9044 2.99069C12.7691 2.98434 12.6363 2.97018 12.4996 2.97018C12.3629 2.97018 12.2306 2.98434 12.0953 2.99069C12.0117 2.89625 11.9646 2.77502 11.9625 2.64889ZM12.4996 3.93796C16.5133 3.93796 19.8077 7.07663 20.0577 11.0278H4.94249C5.19249 7.07663 8.48692 3.93796 12.4996 3.93796ZM4.44298 11.9946H20.5563C20.713 11.9946 20.8632 12.0568 20.974 12.1676C21.0848 12.2784 21.1471 12.4287 21.1471 12.5854C21.1471 12.7421 21.0848 12.8924 20.974 13.0032C20.8632 13.114 20.713 13.1762 20.5563 13.1762H4.44298C4.28628 13.1762 4.13601 13.114 4.0252 13.0032C3.9144 12.8924 3.85216 12.7421 3.85216 12.5854C3.85216 12.4287 3.9144 12.2784 4.0252 12.1676C4.13601 12.0568 4.28628 11.9946 4.44298 11.9946Z" fill="#308CE3"/>
<path d="M12.5 5.11963C12.3047 5.11963 12.1112 5.12842 11.9195 5.146C11.7956 5.15717 11.6808 5.21568 11.5989 5.30936C11.517 5.40303 11.4744 5.52467 11.48 5.64895C11.4855 5.77323 11.5387 5.8906 11.6286 5.97663C11.7185 6.06266 11.838 6.11073 11.9625 6.11084H12.0069C12.1695 6.09619 12.334 6.08838 12.5 6.08838C12.6283 6.08838 12.7512 6.03745 12.8419 5.94679C12.9325 5.85614 12.9834 5.73319 12.9834 5.60498C12.9834 5.47678 12.9325 5.35382 12.8419 5.26317C12.7512 5.17251 12.6283 5.12158 12.5 5.12158V5.11963Z" fill="#308CE3"/>
<path d="M9.83847 5.70115C8.73985 6.20611 7.80646 7.01153 7.14609 8.02439C7.07596 8.13174 7.05136 8.26256 7.07768 8.38806C7.10401 8.51355 7.17911 8.62345 7.28647 8.69358C7.39382 8.7637 7.52464 8.78831 7.65014 8.76198C7.77563 8.73565 7.88553 8.66055 7.95566 8.5532C8.5166 7.69294 9.30928 7.00876 10.2423 6.57956C10.3 6.55305 10.3519 6.51543 10.3951 6.46885C10.4383 6.42227 10.4718 6.36764 10.4939 6.30808C10.5159 6.24853 10.5261 6.18521 10.5236 6.12175C10.5212 6.05828 10.5063 5.99592 10.4798 5.93821C10.4533 5.8805 10.4157 5.82857 10.3691 5.7854C10.3225 5.74223 10.2679 5.70866 10.2083 5.6866C10.0881 5.64205 9.95502 5.64711 9.83847 5.70066V5.70115Z" fill="#308CE3"/>
</svg>
