<svg width="24" height="25" viewBox="0 0 24 25" fill="none" xmlns="http://www.w3.org/2000/svg">
<path d="M21 24.5006H19V19.4576C18.9992 18.6736 18.6874 17.9219 18.133 17.3676C17.5787 16.8132 16.827 16.5014 16.043 16.5006H7.957C7.173 16.5014 6.42134 16.8132 5.86696 17.3676C5.31259 17.9219 5.00079 18.6736 5 19.4576V24.5006H3V19.4576C3.00159 18.1434 3.52435 16.8835 4.45363 15.9542C5.3829 15.025 6.64281 14.5022 7.957 14.5006H16.043C17.3572 14.5022 18.6171 15.025 19.5464 15.9542C20.4756 16.8835 20.9984 18.1434 21 19.4576V24.5006Z" stroke="#108AFF" stroke-width="0.8"/>
<path d="M11.9999 12.4999C10.8133 12.4999 9.65322 12.148 8.66652 11.4888C7.67983 10.8295 6.91079 9.89239 6.45666 8.79604C6.00254 7.69968 5.88372 6.49328 6.11523 5.3294C6.34674 4.16551 6.91819 3.09641 7.7573 2.2573C8.59642 1.41818 9.66551 0.846737 10.8294 0.615226C11.9933 0.383714 13.1997 0.502534 14.296 0.95666C15.3924 1.41079 16.3295 2.17982 16.9888 3.16652C17.648 4.15321 17.9999 5.31325 17.9999 6.49994C17.9984 8.09075 17.3657 9.61595 16.2408 10.7408C15.116 11.8657 13.5908 12.4983 11.9999 12.4999V12.4999ZM11.9999 2.49994C11.2088 2.49994 10.4355 2.73453 9.77766 3.17406C9.11987 3.61358 8.60717 4.2383 8.30442 4.9692C8.00167 5.70011 7.92246 6.50437 8.0768 7.2803C8.23114 8.05622 8.6121 8.76895 9.17151 9.32836C9.73092 9.88777 10.4437 10.2687 11.2196 10.4231C11.9955 10.5774 12.7998 10.4982 13.5307 10.1955C14.2616 9.89271 14.8863 9.38001 15.3258 8.72222C15.7653 8.06442 15.9999 7.29106 15.9999 6.49994C15.9999 5.43907 15.5785 4.42166 14.8284 3.67151C14.0782 2.92136 13.0608 2.49994 11.9999 2.49994Z" stroke="#108AFF" stroke-width="0.8"/>
</svg>
