<svg width="25" height="25" viewBox="0 0 25 25" fill="none" xmlns="http://www.w3.org/2000/svg">
<g clip-path="url(#clip0_1368_2936)">
<path d="M24.3159 6.96915H23.3876C24.2579 5.17315 23.9499 2.94517 22.4612 1.45645C21.5544 0.549664 20.3447 0.0504943 19.0543 0.0504943C19.0533 0.0504943 19.0521 0.0504943 19.0511 0.0504943C17.7611 0.0513244 16.5518 0.550641 15.6459 1.45645L15.134 1.96832L14.6223 1.45655C12.7433 -0.422406 9.68598 -0.422357 7.80693 1.45665C6.31826 2.94532 6.0103 5.1732 6.88051 6.96915H5.95254C5.73681 6.96915 5.56191 7.14405 5.56191 7.35977C5.56191 7.57549 5.73681 7.7504 5.95254 7.7504H7.35595C7.49204 7.93214 7.64179 8.10679 7.80693 8.27188L14.858 15.3229C14.9312 15.3961 15.0306 15.4373 15.1342 15.4373C15.2378 15.4373 15.3372 15.3961 15.4104 15.3229L22.4613 8.27178C22.6264 8.1067 22.7762 7.93209 22.9123 7.7504H24.3159C24.5316 7.7504 24.7065 7.57549 24.7065 7.35977C24.7065 7.14405 24.5316 6.96915 24.3159 6.96915ZM8.35937 2.00904C9.14668 1.22173 10.1806 0.82818 11.2147 0.82818C12.2486 0.82818 13.2828 1.22183 14.0699 2.00894L14.8579 2.79698C14.9311 2.87022 15.0305 2.91138 15.1341 2.91138C15.2377 2.91138 15.3371 2.87022 15.4103 2.79698L16.1984 2.00889C16.9568 1.25049 17.9702 0.832428 19.0517 0.831744H19.0544C20.136 0.831744 21.1497 1.24976 21.9088 2.00889C22.6681 2.76812 23.0862 3.78214 23.0863 4.86417C23.0863 5.62042 22.8814 6.34312 22.4992 6.9692H19.6323C19.5103 6.9692 19.3953 7.02623 19.3214 7.12335L18.3642 8.3817L16.8741 5.31964C16.8092 5.18633 16.6745 5.10123 16.5263 5.09996C16.3775 5.09693 16.2418 5.1814 16.1747 5.31358L14.7684 8.08023L13.3888 3.96832C13.3346 3.80665 13.1809 3.69952 13.0112 3.70201C12.8407 3.70518 12.692 3.81861 12.6438 3.98218L11.4852 7.91544L10.6797 7.08741C10.6061 7.01182 10.5051 6.9692 10.3997 6.9692H7.76948C6.81982 5.41475 7.01582 3.35259 8.35937 2.00904ZM15.1342 14.4943L8.39028 7.7504H10.2347L11.3911 8.93907C11.4878 9.03858 11.6302 9.07921 11.7649 9.04586C11.8996 9.01251 12.0065 8.91021 12.0457 8.77706L13.0426 5.39273L14.3241 9.21202C14.3741 9.36124 14.5088 9.46583 14.6658 9.47735C14.8229 9.48887 14.9713 9.40504 15.0426 9.26475L16.5152 6.36758L17.9394 9.29434C17.9988 9.41631 18.1172 9.49879 18.2522 9.51212C18.2651 9.51338 18.2779 9.51402 18.2907 9.51402C18.412 9.51402 18.5273 9.45753 18.6016 9.35987L19.8259 7.7504H21.8779L15.1342 14.4943ZM22.2077 14.3692C21.6826 14.2285 21.1356 14.2999 20.6677 14.5701L15.2275 17.7108C15.1479 16.8183 14.5247 16.0262 13.6107 15.7774L7.50117 14.1146C7.48432 14.11 7.46718 14.1065 7.44985 14.1043C6.53398 13.9831 5.69775 14.2062 4.9646 14.7678L3.30522 16.0386L3.22836 15.7517C3.12109 15.3513 2.70805 15.1129 2.30776 15.2201L0.854049 15.6096C0.453756 15.7169 0.215328 16.1299 0.322554 16.5303L2.43007 24.3957C2.48193 24.5893 2.60644 24.7512 2.78056 24.8518C2.89668 24.9188 3.02544 24.953 3.15571 24.953C3.2208 24.953 3.28627 24.9445 3.35073 24.9272L4.80444 24.5377C5.20478 24.4304 5.44321 24.0173 5.33588 23.617L5.25097 23.3002C6.12812 22.6386 6.9333 22.4518 7.91059 22.6758L11.41 23.4781C11.7187 23.5489 12.0156 23.5844 12.3025 23.5844C12.8877 23.5844 13.4311 23.4365 13.9465 23.1389L22.6978 18.0864C23.6671 17.5268 24.0004 16.2828 23.4408 15.3133C23.1707 14.8452 22.7327 14.51 22.2077 14.3692ZM3.177 24.1648L1.08476 16.3565L2.48134 15.9823L4.57358 23.7907L3.177 24.1648ZM22.3072 17.4098L13.5559 22.4623C12.9667 22.8024 12.3219 22.8856 11.5846 22.7166L8.0851 21.9143C6.97114 21.659 6.01206 21.8376 5.0351 22.4946L3.52397 16.855L5.43964 15.388C6.00351 14.9561 6.61948 14.7883 7.32207 14.8755L13.4055 16.5313C14.1626 16.7374 14.6109 17.5211 14.4048 18.2781C14.1988 19.0352 13.4151 19.4835 12.6581 19.2774L9.39458 18.3892C9.18637 18.3324 8.97172 18.4553 8.91508 18.6635C8.85844 18.8716 8.98125 19.0863 9.1894 19.143L12.4529 20.0313C12.646 20.0838 12.8401 20.1088 13.0312 20.1088C13.9301 20.1088 14.761 19.5537 15.0901 18.6923L21.0583 15.2467C21.3456 15.0808 21.6819 15.0371 22.0054 15.1239C22.3289 15.2106 22.5983 15.4166 22.7642 15.7038C23.1084 16.3002 22.9034 17.0656 22.3072 17.4098Z" fill="#108AFF"/>
</g>
<defs>
<clipPath id="clip0_1368_2936">
<rect width="25" height="25" fill="white"/>
</clipPath>
</defs>
</svg>
