<svg width="26" height="25" viewBox="0 0 26 25" fill="none" xmlns="http://www.w3.org/2000/svg">
<path d="M18 0.5C17.7348 0.5 17.4804 0.605357 17.2929 0.792893C17.1054 0.98043 17 1.23478 17 1.5C17 4.449 14.417 5.5 12 5.5H5C3.93913 5.5 2.92172 5.92143 2.17157 6.67157C1.42143 7.42172 1 8.43913 1 9.5L1 11.5C1.00218 12.0987 1.13946 12.6893 1.4016 13.2276C1.66374 13.7659 2.04399 14.2381 2.514 14.609L6.086 22.581C6.34004 23.1521 6.75417 23.6373 7.27827 23.9779C7.80237 24.3185 8.41396 24.4998 9.039 24.5C9.53631 24.4997 10.0256 24.375 10.4625 24.1373C10.8993 23.8996 11.2697 23.5564 11.54 23.139C11.8104 22.7215 11.972 22.2431 12.0103 21.7473C12.0485 21.2515 11.9621 20.7539 11.759 20.3L9.559 15.5H12C14.417 15.5 17 16.551 17 19.5C17 19.7652 17.1054 20.0196 17.2929 20.2071C17.4804 20.3946 17.7348 20.5 18 20.5C18.2652 20.5 18.5196 20.3946 18.7071 20.2071C18.8946 20.0196 19 19.7652 19 19.5V1.5C19 1.23478 18.8946 0.98043 18.7071 0.792893C18.5196 0.605357 18.2652 0.5 18 0.5V0.5ZM9.937 21.119C10.0032 21.2686 10.0311 21.4323 10.018 21.5954C10.005 21.7585 9.95145 21.9157 9.86227 22.0529C9.77309 22.19 9.65109 22.3027 9.50733 22.3808C9.36357 22.4589 9.20259 22.4999 9.039 22.5C8.80039 22.4998 8.56697 22.4304 8.36709 22.3001C8.1672 22.1698 8.00945 21.9842 7.913 21.766L5.105 15.5H7.359L9.937 21.119ZM17 15.1C15.5713 13.9992 13.8024 13.4331 12 13.5H5C4.46957 13.5 3.96086 13.2893 3.58579 12.9142C3.21071 12.5391 3 12.0304 3 11.5V9.5C3 8.96957 3.21071 8.46086 3.58579 8.08579C3.96086 7.71071 4.46957 7.5 5 7.5H12C13.8018 7.5683 15.5706 7.00403 17 5.905V15.1ZM24.9 15.952C24.8413 16.0696 24.7601 16.1744 24.6609 16.2606C24.5617 16.3467 24.4465 16.4125 24.3218 16.4541C24.1972 16.4957 24.0656 16.5123 23.9345 16.5031C23.8035 16.4938 23.6755 16.4588 23.558 16.4L21.558 15.4C21.3206 15.2814 21.1401 15.0735 21.0561 14.8218C20.972 14.5701 20.9915 14.2954 21.11 14.058C21.2286 13.8206 21.4365 13.6401 21.6882 13.5561C21.9399 13.472 22.2146 13.4914 22.452 13.61L24.452 14.61C24.6881 14.7285 24.8678 14.9356 24.9518 15.1861C25.0357 15.4366 25.0171 15.7102 24.9 15.947V15.952ZM21.11 6.952C21.0512 6.83448 21.0162 6.70653 21.0069 6.57546C20.9977 6.4444 21.0143 6.31279 21.0559 6.18816C21.0975 6.06353 21.1633 5.94832 21.2494 5.84912C21.3356 5.74991 21.4404 5.66866 21.558 5.61L23.558 4.61C23.7954 4.49145 24.0701 4.47205 24.3218 4.55606C24.5735 4.64008 24.7815 4.82063 24.9 5.058C25.0186 5.29537 25.038 5.57011 24.9539 5.82178C24.8699 6.07346 24.6894 6.28145 24.452 6.4L22.452 7.4C22.3345 7.45876 22.2065 7.49378 22.0755 7.50306C21.9444 7.51234 21.8128 7.49571 21.6882 7.4541C21.5635 7.4125 21.4483 7.34674 21.3491 7.26058C21.2499 7.17443 21.1687 7.06957 21.11 6.952V6.952ZM21 10.5C21 10.2348 21.1054 9.98043 21.2929 9.79289C21.4804 9.60536 21.7348 9.5 22 9.5H24C24.2652 9.5 24.5196 9.60536 24.7071 9.79289C24.8946 9.98043 25 10.2348 25 10.5C25 10.7652 24.8946 11.0196 24.7071 11.2071C24.5196 11.3946 24.2652 11.5 24 11.5H22C21.7348 11.5 21.4804 11.3946 21.2929 11.2071C21.1054 11.0196 21 10.7652 21 10.5Z" stroke="#108AFF" stroke-width="0.8"/>
</svg>
