<svg width="26" height="25" viewBox="0 0 26 25" fill="none" xmlns="http://www.w3.org/2000/svg">
<path d="M5 13.5H8V15.5H5V13.5ZM10 15.5H13V13.5H10V15.5ZM5 19.5H8V17.5H5V19.5ZM10 19.5H13V17.5H10V19.5ZM5 7.5H8V5.5H5V7.5ZM10 7.5H13V5.5H10V7.5ZM5 11.5H8V9.5H5V11.5ZM10 11.5H13V9.5H10V11.5ZM25 8.5V24.5H1V3.5C1 2.70435 1.31607 1.94129 1.87868 1.37868C2.44129 0.81607 3.20435 0.5 4 0.5L14 0.5C14.7956 0.5 15.5587 0.81607 16.1213 1.37868C16.6839 1.94129 17 2.70435 17 3.5V5.5H22C22.7956 5.5 23.5587 5.81607 24.1213 6.37868C24.6839 6.94129 25 7.70435 25 8.5ZM15 3.5C15 3.23478 14.8946 2.98043 14.7071 2.79289C14.5196 2.60536 14.2652 2.5 14 2.5H4C3.73478 2.5 3.48043 2.60536 3.29289 2.79289C3.10536 2.98043 3 3.23478 3 3.5V22.5H15V3.5ZM23 8.5C23 8.23478 22.8946 7.98043 22.7071 7.79289C22.5196 7.60536 22.2652 7.5 22 7.5H17V22.5H23V8.5ZM19 15.5H21V13.5H19V15.5ZM19 19.5H21V17.5H19V19.5ZM19 11.5H21V9.5H19V11.5Z" stroke="#108AFF" stroke-width="0.8"/>
</svg>
