<svg width="510" height="510" viewBox="0 0 510 510" fill="none" xmlns="http://www.w3.org/2000/svg">
<path fill-rule="evenodd" clip-rule="evenodd" d="M135.546 387.616H101.341C99.071 387.616 96.907 386.651 95.39 384.962C93.873 383.273 93.144 381.019 93.387 378.762C100.648 311.143 149.342 255.923 213.566 239.033C186.97 224.341 168.893 195.987 168.893 163.553C168.893 116.116 207.563 77.405 255 77.405C302.482 77.405 341.148 116.117 341.148 163.553C341.148 195.988 323.071 224.344 296.459 239.035C360.705 255.927 409.388 311.149 416.614 378.766C416.855 381.023 416.126 383.276 414.609 384.964C413.092 386.652 410.929 387.616 408.659 387.616H374.454C374.183 396.212 370.392 403.194 364.524 408.91V478.682C364.524 492.032 353.587 503 340.206 503H169.794C156.413 503 145.476 492.032 145.476 478.682V408.91C139.608 403.194 135.817 396.212 135.546 387.616ZM255 249.702C182.476 249.702 122.255 302.409 110.52 371.616H135.53V346.836C135.53 337.823 142.887 330.488 151.899 330.488H203.472V321.035C203.472 307.025 214.937 295.56 228.946 295.56H281.054C295.063 295.56 306.528 307.025 306.528 321.035V330.488H358.101C367.113 330.488 374.47 337.823 374.47 346.836V371.616H399.485C387.786 302.408 327.561 249.702 255 249.702ZM255 233.702C293.663 233.702 325.148 202.179 325.148 163.553C325.148 124.927 293.663 93.405 255 93.405C216.375 93.405 184.893 124.928 184.893 163.553C184.893 202.178 216.375 233.702 255 233.702ZM348.524 419.483C333.531 426.011 309.575 430.361 283.201 432.117C281.067 445.777 269.263 456.213 255 456.213C240.743 456.213 228.943 445.786 226.802 432.134C200.453 430.394 176.505 426.053 161.476 419.491V478.682C161.476 483.248 165.217 487 169.794 487H340.206C344.783 487 348.524 483.248 348.524 478.682V419.483ZM281.155 416.223C309.432 414.481 334.82 410.027 347.173 402.217C348.672 401.265 350.104 400.264 351.426 399.17C351.434 399.164 351.441 399.158 351.448 399.153C355.424 395.889 358.47 391.966 358.47 386.621V346.836C358.47 346.638 358.298 346.488 358.101 346.488H321.206V365.677C321.206 375.841 312.897 384.149 302.734 384.149H207.266C197.103 384.149 188.794 375.841 188.794 365.677V346.488H151.899C151.702 346.488 151.53 346.638 151.53 346.836V386.621C151.53 391.966 154.576 395.889 158.552 399.153C158.559 399.158 158.566 399.164 158.574 399.17C159.897 400.264 161.329 401.265 162.829 402.218C175.241 410.075 200.607 414.515 228.838 416.239C233.24 406.18 243.276 399.124 255 399.124C266.718 399.124 276.749 406.173 281.155 416.223ZM305.206 346.488H204.794V365.677C204.794 367.037 205.906 368.149 207.266 368.149H302.734C304.094 368.149 305.206 367.037 305.206 365.677V346.488ZM290.528 330.488V321.035C290.528 315.824 286.264 311.56 281.054 311.56H228.946C223.736 311.56 219.472 315.824 219.472 321.035V330.488H290.528ZM242.456 427.668C242.456 434.602 248.067 440.213 255 440.213C261.933 440.213 267.544 434.602 267.544 427.668C267.544 420.76 261.946 415.124 255 415.124C248.054 415.124 242.456 420.76 242.456 427.668ZM95.058 11.698L95.066 11.707C116.857 38.175 138.649 64.674 160.441 91.142C163.654 94.98 164.358 100.095 162.307 104.736C162.3 104.752 162.292 104.768 162.285 104.784C160.163 109.501 155.812 112.327 150.669 112.327H128.178V268.255C128.178 278.134 120.259 286.052 110.684 286.052H59.776C50.208 286.052 42.251 278.127 42.251 268.255V112.327H19.761C14.694 112.327 10.321 109.526 8.187 104.811C6.06 100.151 6.8 95.008 9.964 91.173C31.778 64.678 53.592 38.152 75.393 11.672C77.953 8.527 81.337 7 85.215 7C89.186 7 92.56 8.568 95.058 11.698ZM26.445 96.327H50.251C54.67 96.327 58.251 99.909 58.251 104.327V268.255C58.251 269.187 58.873 270.052 59.776 270.052H110.684C111.581 270.052 112.178 269.18 112.178 268.255V104.327C112.178 99.909 115.76 96.327 120.178 96.327H143.985C124.395 72.53 104.805 48.711 85.215 24.915C65.625 48.711 46.035 72.53 26.445 96.327ZM434.613 11.698L434.62 11.707C456.412 38.175 478.204 64.674 499.996 91.142C503.209 94.98 503.913 100.095 501.861 104.736C501.854 104.752 501.847 104.768 501.84 104.784C499.718 109.501 495.366 112.327 490.224 112.327H467.733V268.255C467.733 278.134 459.813 286.052 450.239 286.052H399.331C389.763 286.052 381.806 278.127 381.806 268.255V112.327H359.316C354.249 112.327 349.876 109.526 347.742 104.811C345.615 100.151 346.355 95.008 349.519 91.173C371.333 64.678 393.147 38.152 414.948 11.672C417.507 8.527 420.892 7 424.77 7C428.74 7 432.115 8.568 434.613 11.698ZM366 96.327H389.806C394.224 96.327 397.806 99.909 397.806 104.327V268.255C397.806 269.187 398.428 270.052 399.331 270.052H450.239C451.136 270.052 451.733 269.18 451.733 268.255V104.327C451.733 99.909 455.315 96.327 459.733 96.327H483.54C463.95 72.53 444.36 48.711 424.77 24.915C405.18 48.711 385.59 72.53 366 96.327Z" fill="#1075FF"/>
</svg>
