<svg width="26" height="25" viewBox="0 0 26 25" fill="none" xmlns="http://www.w3.org/2000/svg">
<path d="M20.7538 15.068C20.4159 15.068 20.0888 15.1119 19.7737 15.187L19.7439 15.1399L15.8279 8.95738C16.6964 8.17463 17.2462 7.04076 17.2462 5.77485C17.2462 3.41392 15.3451 1.5 13 1.5C10.6549 1.5 8.75385 3.41392 8.75385 5.77485C8.75385 7.04076 9.3036 8.17463 10.1721 8.95738L6.25609 15.1399L6.22628 15.187C5.91116 15.1119 5.58407 15.068 5.24615 15.068C2.90108 15.068 1 16.9819 1 19.3428C1 21.7037 2.90108 23.6176 5.24615 23.6176C7.59125 23.6176 9.4923 21.7037 9.4923 19.3428C9.4923 17.7253 8.59958 16.3182 7.28346 15.5921L11.0868 9.58746C11.6623 9.88077 12.3109 10.0497 13 10.0497C13.6891 10.0497 14.3378 9.88077 14.9132 9.58746L18.7165 15.5921C17.4004 16.3182 16.5077 17.7253 16.5077 19.3428C16.5077 21.7037 18.4087 23.6176 20.7538 23.6176C23.0989 23.6176 25 21.7037 25 19.3428C25 16.9819 23.0989 15.068 20.7538 15.068ZM5.23529 21.3615C4.14222 21.3615 3.25612 20.4754 3.25612 19.3824C3.25612 18.2893 4.14222 17.4032 5.23529 17.4032C6.32837 17.4032 7.21447 18.2893 7.21447 19.3824C7.21447 20.4754 6.32837 21.3615 5.23529 21.3615Z" stroke="#108AFF" stroke-width="0.8"/>
</svg>
