<svg width="26" height="25" viewBox="0 0 26 25" fill="none" xmlns="http://www.w3.org/2000/svg">
<path d="M15 16.4998H13V12.4998C12.9994 11.4263 12.7108 10.3727 12.1643 9.44874C11.6178 8.52479 10.8334 7.76438 9.893 7.24679C10.4339 6.6803 10.7966 5.96746 10.9361 5.19672C11.0755 4.42598 10.9857 3.63126 10.6776 2.91113C10.3695 2.191 9.8568 1.57717 9.20304 1.14579C8.54928 0.714399 7.78326 0.484442 7 0.484442C6.21674 0.484442 5.45072 0.714399 4.79696 1.14579C4.1432 1.57717 3.63048 2.191 3.32241 2.91113C3.01433 3.63126 2.92445 4.42598 3.06393 5.19672C3.2034 5.96746 3.56609 6.6803 4.107 7.24679C3.16656 7.76438 2.3822 8.52479 1.83571 9.44874C1.28922 10.3727 1.00062 11.4263 1 12.4998L1 24.4998H3V18.4998H23V24.4998H25V8.49979H15V16.4998ZM5 4.49979C5 4.10422 5.1173 3.71754 5.33706 3.38865C5.55682 3.05975 5.86918 2.8034 6.23463 2.65203C6.60009 2.50065 7.00222 2.46105 7.39018 2.53822C7.77814 2.61539 8.13451 2.80587 8.41421 3.08557C8.69392 3.36528 8.8844 3.72164 8.96157 4.10961C9.03874 4.49757 8.99913 4.8997 8.84776 5.26515C8.69638 5.63061 8.44004 5.94296 8.11114 6.16273C7.78224 6.38249 7.39556 6.49979 7 6.49979C6.46957 6.49979 5.96086 6.28907 5.58579 5.914C5.21071 5.53893 5 5.03022 5 4.49979V4.49979ZM3 12.4998C3 11.4389 3.42143 10.4215 4.17157 9.67136C4.92172 8.92122 5.93913 8.49979 7 8.49979C8.06087 8.49979 9.07828 8.92122 9.82843 9.67136C10.5786 10.4215 11 11.4389 11 12.4998V16.4998H3V12.4998ZM19 10.4998V12.4998H21V10.4998H23V16.4998H17V10.4998H19Z" stroke="#108AFF" stroke-width="0.8"/>
</svg>
