<svg width="26" height="24" viewBox="0 0 26 24" fill="none" xmlns="http://www.w3.org/2000/svg">
<path d="M18.8813 7.38049L20.8788 3.48987C20.9105 3.43658 20.9322 3.37653 20.9426 3.31342C20.9529 3.25031 20.9516 3.18549 20.9387 3.12298C20.9258 3.06046 20.9017 3.00158 20.8678 2.94999C20.8339 2.8984 20.7909 2.85518 20.7415 2.82303C20.6922 2.79088 20.6375 2.77047 20.5808 2.76306C20.5242 2.75566 20.4668 2.76142 20.4122 2.77999C20.3576 2.79856 20.307 2.82955 20.2634 2.87102C20.2199 2.9125 20.1844 2.96358 20.1592 3.02112V3.02112L18.1367 6.9619C16.5211 6.14676 14.7706 5.72534 13 5.72534C11.2294 5.72534 9.47887 6.14676 7.86333 6.9619L5.84083 3.02112C5.81558 2.96358 5.78009 2.9125 5.73657 2.87102C5.69305 2.82955 5.64242 2.79856 5.58783 2.77999C5.53323 2.76142 5.47583 2.75566 5.41917 2.76306C5.36251 2.77047 5.30781 2.79088 5.25845 2.82303C5.20909 2.85518 5.16613 2.8984 5.13222 2.94999C5.09831 3.00158 5.07417 3.06046 5.06131 3.12298C5.04845 3.18549 5.04713 3.25031 5.05744 3.31342C5.06775 3.37653 5.08947 3.43658 5.12125 3.48987L7.11875 7.38049C3.68875 9.47909 1.34333 13.3852 1 18H25C24.6567 13.3852 22.3108 9.47909 18.8813 7.38049M18.5229 14.153C18.3251 14.153 18.1318 14.087 17.9673 13.9634C17.8029 13.8398 17.6747 13.6641 17.599 13.4585C17.5234 13.2529 17.5035 13.0267 17.5421 12.8085C17.5807 12.5903 17.676 12.3898 17.8158 12.2325C17.9557 12.0752 18.1338 11.968 18.3278 11.9246C18.5218 11.8812 18.7229 11.9035 18.9056 11.9886C19.0883 12.0738 19.2445 12.218 19.3544 12.403C19.4643 12.588 19.5229 12.8055 19.5229 13.028C19.5229 13.3264 19.4176 13.6125 19.23 13.8235C19.0425 14.0345 18.7881 14.153 18.5229 14.153ZM7.47708 14.153C7.2793 14.153 7.08596 14.087 6.92151 13.9634C6.75706 13.8398 6.62889 13.6641 6.5532 13.4585C6.47752 13.2529 6.45771 13.0267 6.4963 12.8085C6.53488 12.5903 6.63012 12.3898 6.76998 12.2325C6.90983 12.0752 7.08801 11.968 7.28199 11.9246C7.47597 11.8812 7.67704 11.9035 7.85977 11.9886C8.04249 12.0738 8.19867 12.218 8.30855 12.403C8.41843 12.588 8.47708 12.8055 8.47708 13.028C8.47708 13.3264 8.37173 13.6125 8.18419 13.8235C7.99665 14.0345 7.7423 14.153 7.47708 14.153Z" stroke="#108AFF" stroke-width="0.8"/>
</svg>
