<svg width="26" height="25" viewBox="0 0 26 25" fill="none" xmlns="http://www.w3.org/2000/svg">
<path d="M13 10.5C12.4067 10.5 11.8266 10.3241 11.3333 9.99441C10.8399 9.66476 10.4554 9.19623 10.2284 8.64805C10.0013 8.09987 9.94189 7.49667 10.0576 6.91473C10.1734 6.33279 10.4591 5.79824 10.8787 5.37868C11.2982 4.95912 11.8328 4.6734 12.4147 4.55764C12.9967 4.44189 13.5999 4.5013 14.1481 4.72836C14.6962 4.95542 15.1648 5.33994 15.4944 5.83329C15.8241 6.32664 16 6.90666 16 7.5C16 8.29565 15.6839 9.05871 15.1213 9.62132C14.5587 10.1839 13.7956 10.5 13 10.5V10.5ZM18 14.5C18 13.7044 17.6839 12.9413 17.1213 12.3787C16.5587 11.8161 15.7956 11.5 15 11.5H11C10.2044 11.5 9.44129 11.8161 8.87868 12.3787C8.31607 12.9413 8 13.7044 8 14.5V16.5H10V14.5C10 14.2348 10.1054 13.9804 10.2929 13.7929C10.4804 13.6054 10.7348 13.5 11 13.5H15C15.2652 13.5 15.5196 13.6054 15.7071 13.7929C15.8946 13.9804 16 14.2348 16 14.5V16.5H18V14.5ZM13.009 24.165C12.5156 24.1653 12.0394 23.9841 11.671 23.656L7.923 20.5H1V3.5C1 2.70435 1.31607 1.94129 1.87868 1.37868C2.44129 0.81607 3.20435 0.5 4 0.5L22 0.5C22.7956 0.5 23.5587 0.81607 24.1213 1.37868C24.6839 1.94129 25 2.70435 25 3.5V20.5H18.147L14.3 23.68C13.9436 23.9943 13.4842 24.1669 13.009 24.165V24.165ZM3 18.5H8.654L12.979 22.145L17.429 18.5H23V3.5C23 3.23478 22.8946 2.98043 22.7071 2.79289C22.5196 2.60536 22.2652 2.5 22 2.5H4C3.73478 2.5 3.48043 2.60536 3.29289 2.79289C3.10536 2.98043 3 3.23478 3 3.5V18.5Z" stroke="#108AFF" stroke-width="0.8"/>
</svg>
