<svg width="26" height="25" viewBox="0 0 26 25" fill="none" xmlns="http://www.w3.org/2000/svg">
<path d="M13 24.5C10.6266 24.5 8.30655 23.7962 6.33316 22.4776C4.35977 21.1591 2.8217 19.2849 1.91345 17.0922C1.0052 14.8995 0.767559 12.4867 1.23058 10.1589C1.6936 7.83114 2.83649 5.69295 4.51472 4.01472C6.19295 2.33649 8.33115 1.1936 10.6589 0.730577C12.9867 0.267554 15.3995 0.505194 17.5922 1.41345C19.7849 2.3217 21.6591 3.85977 22.9776 5.83316C24.2962 7.80655 25 10.1266 25 12.5C24.9966 15.6815 23.7312 18.7318 21.4815 20.9815C19.2318 23.2312 16.1815 24.4966 13 24.5V24.5ZM13 2.5C11.0222 2.5 9.08879 3.08649 7.4443 4.1853C5.79981 5.28412 4.51809 6.8459 3.76121 8.67317C3.00433 10.5004 2.8063 12.5111 3.19215 14.4509C3.578 16.3907 4.53041 18.1725 5.92894 19.5711C7.32746 20.9696 9.10929 21.922 11.0491 22.3079C12.9889 22.6937 14.9996 22.4957 16.8268 21.7388C18.6541 20.9819 20.2159 19.7002 21.3147 18.0557C22.4135 16.4112 23 14.4778 23 12.5C22.9971 9.84873 21.9426 7.30688 20.0679 5.43215C18.1931 3.55741 15.6513 2.50291 13 2.5V2.5Z" stroke="#108AFF" stroke-width="0.8"/>
<path d="M14.9998 19.5003H12.9998V12.5003H10.9998V10.5003H12.9998C13.5302 10.5003 14.039 10.711 14.414 11.0861C14.7891 11.4612 14.9998 11.9699 14.9998 12.5003V19.5003Z" stroke="#108AFF" stroke-width="0.8"/>
<path d="M13 8.49969C13.8284 8.49969 14.5 7.82811 14.5 6.99969C14.5 6.17126 13.8284 5.49969 13 5.49969C12.1716 5.49969 11.5 6.17126 11.5 6.99969C11.5 7.82811 12.1716 8.49969 13 8.49969Z" stroke="#108AFF" stroke-width="0.8"/>
</svg>
