<svg width="24" height="25" viewBox="0 0 24 25" fill="none" xmlns="http://www.w3.org/2000/svg">
<path d="M16 17.4997C16.2652 17.4997 16.5196 17.605 16.7071 17.7926C16.8946 17.9801 17 18.2344 17 18.4997C17 18.7649 16.8946 19.0192 16.7071 19.2068C16.5196 19.3943 16.2652 19.4997 16 19.4997H15C14.7348 19.4997 14.4804 19.3943 14.2929 19.2068C14.1054 19.0192 14 18.7649 14 18.4997C14 18.2344 14.1054 17.9801 14.2929 17.7926C14.4804 17.605 14.7348 17.4997 15 17.4997H16ZM14 15.4997C13.7348 15.4997 13.4804 15.3943 13.2929 15.2068C13.1054 15.0192 13 14.7649 13 14.4997V13.4997H11V14.4997C11 14.7649 10.8946 15.0192 10.7071 15.2068C10.5196 15.3943 10.2652 15.4997 10 15.4997C9.73478 15.4997 9.48043 15.3943 9.29289 15.2068C9.10536 15.0192 9 14.7649 9 14.4997V10.4997C9 9.70401 9.31607 8.94095 9.87868 8.37834C10.4413 7.81573 11.2044 7.49966 12 7.49966C12.7956 7.49966 13.5587 7.81573 14.1213 8.37834C14.6839 8.94095 15 9.70401 15 10.4997V14.4997C15 14.7649 14.8946 15.0192 14.7071 15.2068C14.5196 15.3943 14.2652 15.4997 14 15.4997ZM13 11.4997V10.4997C13 10.2344 12.8946 9.98009 12.7071 9.79255C12.5196 9.60501 12.2652 9.49966 12 9.49966C11.7348 9.49966 11.4804 9.60501 11.2929 9.79255C11.1054 9.98009 11 10.2344 11 10.4997V11.4997H13ZM11.289 16.7997L9.677 18.4297C9.63185 18.4751 9.571 18.5014 9.50699 18.5033C9.44299 18.5051 9.38071 18.4824 9.333 18.4397L8.717 17.7997C8.53135 17.6095 8.27776 17.5009 8.01202 17.4977C7.74628 17.4945 7.49016 17.597 7.3 17.7827C7.10984 17.9683 7.00122 18.2219 6.99803 18.4876C6.99484 18.7534 7.09735 19.0095 7.283 19.1997L7.909 19.8437C8.33177 20.2656 8.90468 20.5026 9.502 20.5026C10.0993 20.5026 10.6722 20.2656 11.095 19.8437L12.711 18.1997C12.8764 18.0074 12.9627 17.7595 12.9522 17.5061C12.9417 17.2527 12.8354 17.0127 12.6546 16.8348C12.4739 16.6568 12.2323 16.5542 11.9787 16.5477C11.7252 16.5412 11.4786 16.6312 11.289 16.7997ZM21 7.15666V19.4997C20.9984 20.8253 20.4711 22.0961 19.5338 23.0334C18.5964 23.9708 17.3256 24.4981 16 24.4997H8C6.6744 24.4981 5.40356 23.9708 4.46622 23.0334C3.52888 22.0961 3.00159 20.8253 3 19.4997V5.49966C3.00159 4.17406 3.52888 2.90322 4.46622 1.96588C5.40356 1.02854 6.6744 0.501246 8 0.499658H14.343C15 0.497968 15.6508 0.626576 16.2577 0.87804C16.8647 1.12951 17.4157 1.49883 17.879 1.96466L19.535 3.62066C20.0008 4.08394 20.3702 4.635 20.6216 5.24194C20.8731 5.84889 21.0017 6.49968 21 7.15666V7.15666ZM16.465 3.37866C16.3229 3.23731 16.1671 3.11036 16 2.99966V5.49966H18.5C18.389 5.3325 18.2617 5.17674 18.12 5.03466L16.465 3.37866ZM19 7.49966H16C15.4696 7.49966 14.9609 7.28894 14.5858 6.91387C14.2107 6.5388 14 6.03009 14 5.49966V2.49966H8C7.20435 2.49966 6.44129 2.81573 5.87868 3.37834C5.31607 3.94095 5 4.70401 5 5.49966V19.4997C5 20.2953 5.31607 21.0584 5.87868 21.621C6.44129 22.1836 7.20435 22.4997 8 22.4997H16C16.7956 22.4997 17.5587 22.1836 18.1213 21.621C18.6839 21.0584 19 20.2953 19 19.4997V7.49966Z" stroke="#108AFF" stroke-width="0.8"/>
</svg>
