<svg width="24" height="25" viewBox="0 0 24 25" fill="none" xmlns="http://www.w3.org/2000/svg">
<path d="M11.9481 24.5096L11.5941 24.3526C11.2001 24.1796 2.00012 20.0246 2.00012 12.5006V5.97656C2.00047 5.34873 2.19891 4.73702 2.56716 4.22853C2.93542 3.72005 3.45472 3.34072 4.05112 3.14456L12.0001 0.509558L19.9491 3.14456C20.5455 3.34072 21.0648 3.72005 21.4331 4.22853C21.8013 4.73702 21.9998 5.34873 22.0001 5.97656V12.5006C22.0001 21.0776 12.7121 24.2556 12.3161 24.3876L11.9481 24.5096ZM12.0001 2.60656L4.68412 5.03256C4.48507 5.09757 4.31169 5.22391 4.18883 5.39348C4.06596 5.56305 3.99991 5.76715 4.00012 5.97656V12.5006C4.00012 17.9946 10.4401 21.5586 12.0471 22.3616C13.6511 21.7166 20.0001 18.7636 20.0001 12.5006V5.97656C20.0003 5.76715 19.9343 5.56305 19.8114 5.39348C19.6886 5.22391 19.5152 5.09757 19.3161 5.03256L12.0001 2.60656Z" stroke="#108AFF" stroke-width="0.8"/>
<path d="M11.1112 15.042H11.0782C10.8251 15.0381 10.5754 14.983 10.3443 14.8798C10.1131 14.7767 9.90522 14.6278 9.73324 14.442L7.42725 12.042L8.86824 10.66L11.1122 13L16.2932 7.81899L17.7072 9.23299L12.4462 14.494C12.271 14.6691 12.0628 14.8077 11.8336 14.9017C11.6045 14.9958 11.3589 15.0435 11.1112 15.042Z" stroke="#108AFF" stroke-width="0.8"/>
</svg>
