<svg width="64" height="64" viewBox="0 0 64 64" fill="none" xmlns="http://www.w3.org/2000/svg">
<path d="M4.12 13.26H10.27L12.3 21.25C12.3 21.25 12.31 21.32 12.32 21.36L16.47 37.66L11.86 42.44C10.29 44.05 9.85 46.43 10.73 48.51C11.61 50.58 13.63 51.91 15.88 51.91H17.91C17.57 52.5 17.36 53.17 17.36 53.9C17.36 56.1 19.15 57.89 21.35 57.89C23.55 57.89 25.34 56.1 25.34 53.9C25.34 53.17 25.13 52.5 24.79 51.91H32.31C31.97 52.5 31.76 53.17 31.76 53.9C31.76 56.1 33.55 57.89 35.75 57.89C37.95 57.89 39.74 56.1 39.74 53.9C39.74 53.17 39.53 52.5 39.19 51.91H41.22C42.94 51.91 44.34 50.51 44.34 48.79C44.34 47.07 42.94 45.67 41.22 45.67H17.39L21.23 41.69H46.15C47.59 41.69 48.83 40.72 49.17 39.34L50.2 35.26C54.72 34.68 58.59 32.04 60.86 28.31C60.91 28.24 60.97 28.17 61 28.08C62.26 25.92 63 23.41 63 20.73C63 18.05 62.26 15.52 60.99 13.36C60.97 13.32 60.94 13.28 60.92 13.24C58.36 8.96 53.69 6.07 48.34 6.07C42.99 6.07 38.36 8.93 35.79 13.19C35.75 13.25 35.71 13.3 35.69 13.36C34.96 14.6 34.41 15.96 34.08 17.4H17.77L15.72 9.36C15.38 7.97 14.14 7 12.71 7H4.12C2.4 7 1 8.4 1 10.12C1 11.84 2.4 13.24 4.12 13.24V13.26ZM23.35 53.91C23.35 55.01 22.46 55.9 21.36 55.9C20.26 55.9 19.37 55.01 19.37 53.91C19.37 52.81 20.26 51.92 21.36 51.92C22.46 51.92 23.35 52.81 23.35 53.91ZM37.75 53.91C37.75 55.01 36.86 55.9 35.76 55.9C34.66 55.9 33.77 55.01 33.77 53.91C33.77 52.81 34.66 51.92 35.76 51.92C36.86 51.92 37.75 52.81 37.75 53.91ZM14.92 45.37C14.51 45.77 14.4 46.34 14.63 46.89C14.74 47.13 15.08 47.69 15.88 47.69H41.22C41.84 47.69 42.34 48.19 42.34 48.81C42.34 49.43 41.85 49.93 41.22 49.93H15.88C14.43 49.93 13.13 49.07 12.57 47.75C12.01 46.41 12.29 44.88 13.3 43.85L17.09 39.91C17.09 39.91 17.14 40 17.17 40.04C17.23 40.15 17.29 40.26 17.36 40.36C17.4 40.42 17.44 40.47 17.48 40.52C17.55 40.61 17.62 40.7 17.7 40.78C17.75 40.83 17.8 40.88 17.86 40.92C17.94 40.99 18.03 41.06 18.12 41.13L18.3 41.25C18.39 41.31 18.49 41.36 18.58 41.4C18.62 41.42 18.65 41.44 18.69 41.46L14.91 45.37H14.92ZM48.34 8.09C49.37 8.09 50.63 9.77 51.5 12.75H45.18C46.05 9.77 47.31 8.09 48.34 8.09ZM51.98 14.75C52.26 16.21 52.45 17.89 52.5 19.75H44.18C44.23 17.88 44.42 16.21 44.7 14.75H51.98ZM60.95 19.75H54.5C54.45 18.05 54.28 16.35 53.99 14.75H59.48C60.3 16.26 60.8 17.95 60.95 19.75ZM59.49 26.75H53.99C54.28 25.15 54.45 23.45 54.5 21.75H60.95C60.81 23.54 60.3 25.24 59.49 26.75ZM42.18 21.75C42.23 23.45 42.4 25.15 42.69 26.75H37.19C36.44 25.36 35.94 23.81 35.76 22.17C35.76 22.1 35.74 22.04 35.74 21.97C35.74 21.9 35.74 21.83 35.73 21.76H42.18V21.75ZM43.12 28.75C43.54 30.35 44.09 31.78 44.78 32.9C42.3 32.17 40.13 30.71 38.53 28.75H43.12ZM48.34 33.42C47.31 33.42 46.05 31.73 45.18 28.75H51.5C50.63 31.73 49.37 33.42 48.34 33.42ZM44.7 26.75C44.42 25.29 44.23 23.62 44.18 21.75H52.5C52.45 23.61 52.26 25.28 51.98 26.75H44.7ZM42.18 19.75H35.73C35.73 19.66 35.73 19.57 35.74 19.48C35.74 19.44 35.75 19.4 35.76 19.36C35.94 17.71 36.44 16.15 37.2 14.75H42.69C42.4 16.35 42.23 18.05 42.18 19.75ZM35.67 28.1C35.71 28.2 35.77 28.29 35.84 28.38C37.67 31.37 40.53 33.66 43.93 34.74L43.74 35.48H22.35L19.35 23.66H33.98C34.3 25.25 34.89 26.74 35.68 28.1H35.67ZM51.9 32.9C52.58 31.78 53.14 30.36 53.56 28.75H58.15C56.55 30.7 54.39 32.17 51.9 32.9ZM58.14 12.75H53.55C53.13 11.15 52.58 9.73 51.9 8.61C54.38 9.34 56.54 10.8 58.14 12.75ZM44.78 8.61C44.1 9.73 43.54 11.15 43.13 12.75H38.54C40.14 10.8 42.3 9.34 44.78 8.61ZM4.12 9.03H12.7C13.21 9.03 13.65 9.37 13.77 9.87L16.01 18.67C16.12 19.11 16.52 19.42 16.98 19.42H33.73C33.69 19.85 33.67 20.3 33.67 20.75C33.67 21.06 33.67 21.36 33.7 21.65H18.05C17.74 21.65 17.45 21.79 17.26 22.04C17.07 22.29 17 22.6 17.08 22.9L20.59 36.72C20.7 37.16 21.1 37.47 21.56 37.47H44.51C44.97 37.47 45.37 37.16 45.48 36.72L45.87 35.2C46.11 35.24 46.36 35.27 46.6 35.3C46.7 35.31 46.8 35.33 46.9 35.34C47.3 35.38 47.7 35.4 48.1 35.41L47.22 38.87C47.1 39.36 46.65 39.71 46.14 39.71H19.91C19.4 39.71 18.95 39.37 18.83 38.86L18.77 38.61L14.25 20.86C14.25 20.86 14.24 20.79 14.23 20.77L12.01 12.01C11.9 11.57 11.5 11.26 11.04 11.26H4.11C3.49 11.26 2.99 10.76 2.99 10.14C2.99 9.52 3.49 9.02 4.11 9.02L4.12 9.03Z" fill="#108AFF"/>
</svg>
