<svg width="24" height="25" viewBox="0 0 24 25" fill="none" xmlns="http://www.w3.org/2000/svg">
<path d="M12.0075 24.515C11.6884 24.5144 11.3752 24.429 11.1 24.2675L8.20197 22.5275C7.76997 22.283 7.98147 22.1945 8.12397 22.145C8.58415 22.0014 9.02419 21.7997 9.43347 21.545C9.46808 21.5288 9.50628 21.5218 9.54438 21.5247C9.58249 21.5276 9.6192 21.5403 9.65097 21.5615L11.8755 22.9025C11.9169 22.9251 11.9633 22.9369 12.0105 22.9369C12.0576 22.9369 12.1041 22.9251 12.1455 22.9025L20.8215 17.8205C20.862 17.7954 20.8955 17.7602 20.9186 17.7185C20.9417 17.6767 20.9537 17.6297 20.9535 17.582V7.412C20.9536 7.36351 20.9414 7.31578 20.9181 7.27327C20.8947 7.23077 20.861 7.1949 20.82 7.169L12.15 2.0915C12.1093 2.06821 12.0633 2.05596 12.0165 2.05596C11.9696 2.05596 11.9236 2.06821 11.883 2.0915L3.20697 7.172C3.16533 7.19708 3.13089 7.23249 3.10697 7.2748C3.08305 7.31712 3.07048 7.36489 3.07047 7.4135V17.579C3.07032 17.6268 3.08289 17.6738 3.10687 17.7152C3.13085 17.7566 3.1654 17.7909 3.20697 17.8145L5.58447 19.208C6.87447 19.862 7.66347 19.091 7.66347 18.317V8.2805C7.66327 8.24728 7.66964 8.21435 7.68222 8.1836C7.69479 8.15285 7.71333 8.1249 7.73675 8.10134C7.76017 8.07778 7.78801 8.05908 7.81868 8.04632C7.84936 8.03357 7.88225 8.027 7.91547 8.027H9.01497C9.04806 8.0272 9.08079 8.03391 9.11129 8.04675C9.14179 8.0596 9.16946 8.07833 9.19272 8.10187C9.21598 8.12541 9.23438 8.1533 9.24686 8.18395C9.25934 8.2146 9.26567 8.24741 9.26547 8.2805V18.3155C9.31443 18.6724 9.28326 19.0358 9.17421 19.3792C9.06517 19.7226 8.88099 20.0374 8.63507 20.3007C8.38914 20.564 8.08764 20.7692 7.75249 20.9014C7.41733 21.0336 7.05693 21.0895 6.69747 21.065C5.99174 21.0772 5.29746 20.8856 4.69797 20.513L2.42247 19.184C2.14438 19.0182 1.9142 18.7829 1.75457 18.5013C1.59493 18.2196 1.51133 17.9013 1.51197 17.5775V7.412C1.51114 7.08841 1.59468 6.77019 1.75435 6.48874C1.91402 6.20728 2.14429 5.97231 2.42247 5.807L11.1 0.718999C11.3789 0.563742 11.6928 0.482254 12.012 0.482254C12.3312 0.482254 12.6451 0.563742 12.924 0.718999L21.6 5.807C21.8782 5.97235 22.1086 6.20729 22.2685 6.48871C22.4285 6.77013 22.5123 7.08832 22.512 7.412V17.576C22.512 17.8998 22.428 18.2181 22.2681 18.4997C22.1083 18.7813 21.878 19.0166 21.6 19.1825L12.924 24.2675C12.647 24.43 12.3316 24.5155 12.0105 24.515H12.0075ZM14.688 17.5115C10.89 17.5115 10.095 15.7415 10.095 14.258C10.0939 14.2241 10.0998 14.1903 10.1122 14.1588C10.1247 14.1272 10.1433 14.0985 10.1672 14.0744C10.191 14.0502 10.2195 14.0312 10.2509 14.0184C10.2824 14.0056 10.3161 13.9994 10.35 14H11.4675C11.528 14.0001 11.5865 14.022 11.6322 14.0616C11.6779 14.1013 11.7078 14.1561 11.7165 14.216C11.886 15.3755 12.39 15.9605 14.6865 15.9605C16.5135 15.9605 17.292 15.5405 17.292 14.5565C17.292 13.988 17.073 13.568 14.2305 13.2845C11.8575 13.046 10.3875 12.5135 10.3875 10.5845C10.3875 8.807 11.8635 7.748 14.337 7.748C17.1165 7.748 18.492 8.7275 18.666 10.829C18.6689 10.8643 18.6645 10.8998 18.6531 10.9333C18.6418 10.9669 18.6237 10.9977 18.6 11.024C18.5766 11.0498 18.5482 11.0705 18.5164 11.0847C18.4846 11.0989 18.4503 11.1063 18.4155 11.1065H17.2905C17.2333 11.106 17.178 11.0859 17.1338 11.0496C17.0896 11.0133 17.0591 10.963 17.0475 10.907C16.7775 9.6875 16.119 9.2975 14.3385 9.2975C12.342 9.2975 12.111 10.0025 12.111 10.532C12.111 11.174 12.3855 11.36 15.0795 11.7215C17.7465 12.0785 19.014 12.5855 19.014 14.4875C19.014 16.3895 17.439 17.5055 14.6895 17.5055L14.688 17.5115Z" stroke="#108AFF" stroke-width="0.5"/>
</svg>
