<svg width="24" height="25" viewBox="0 0 24 25" fill="none" xmlns="http://www.w3.org/2000/svg">
<path d="M3 3.5H21V21.5H3V3.5ZM7.73 18.54C8.13 19.39 8.92 20.09 10.27 20.09C11.77 20.09 12.8 19.29 12.8 17.54V11.76H11.1V17.5C11.1 18.36 10.75 18.58 10.2 18.58C9.62 18.58 9.38 18.18 9.11 17.71L7.73 18.54ZM13.71 18.36C14.21 19.34 15.22 20.09 16.8 20.09C18.4 20.09 19.6 19.26 19.6 17.73C19.6 16.32 18.79 15.69 17.35 15.07L16.93 14.89C16.2 14.58 15.89 14.37 15.89 13.87C15.89 13.46 16.2 13.14 16.7 13.14C17.18 13.14 17.5 13.35 17.79 13.87L19.1 13C18.55 12.04 17.77 11.67 16.7 11.67C15.19 11.67 14.22 12.63 14.22 13.9C14.22 15.28 15.03 15.93 16.25 16.45L16.67 16.63C17.45 16.97 17.91 17.18 17.91 17.76C17.91 18.24 17.46 18.59 16.76 18.59C15.93 18.59 15.45 18.16 15.09 17.56L13.71 18.36Z" stroke="#108AFF" stroke-width="0.8"/>
</svg>
