<svg width="25" height="25" viewBox="0 0 25 25" fill="none" xmlns="http://www.w3.org/2000/svg">
<path fill-rule="evenodd" clip-rule="evenodd" d="M6.76432 22.4232C6.80883 22.5301 6.85334 22.637 6.89785 22.744L6.898 22.7443C6.99589 22.9811 6.99609 23.2196 6.89937 23.4577L6.89878 23.4592C6.80094 23.694 6.63226 23.8634 6.39472 23.9634L6.39383 23.9638L5.01295 24.5363C4.53927 24.734 3.99084 24.5071 3.79437 24.0338C3.01535 22.1618 2.23516 20.2899 1.45614 18.4179C1.35624 18.1815 1.35589 17.9416 1.45437 17.7035C1.55256 17.4661 1.72226 17.2965 1.95815 17.1982L3.34055 16.6245C3.81388 16.428 4.36055 16.6528 4.55893 17.1265L4.55913 17.1269C4.59663 17.2171 4.63418 17.3072 4.67173 17.3974C5.3404 17.0813 6.0081 16.7629 6.6728 16.4378C7.5928 15.9877 8.31849 15.6905 9.16324 15.8047C9.71354 15.879 10.3198 16.1286 11.0648 16.6494L13.6109 17.3315C14.045 17.4477 14.3883 17.7385 14.5858 18.1082L18.1344 17.0672C19.6879 16.6115 20.546 16.9491 20.9237 17.4596C21.1769 17.8018 21.2435 18.2449 21.1487 18.683C21.0159 19.2969 20.5624 19.8926 19.9445 20.131L14.5522 22.2089C13.6415 22.5593 12.4243 23.0473 11.447 22.7636L8.57427 21.9302L8.57373 21.9301C8.24099 21.8329 7.92173 21.8599 7.60967 22.0119L6.76432 22.4232ZM6.26374 23.0068C6.1782 22.8013 4.00883 17.5912 3.9256 17.3912C3.87315 17.2662 3.72878 17.2065 3.60369 17.2585L2.22187 17.8319C2.15952 17.858 2.11467 17.903 2.08869 17.9658C2.06315 18.0276 2.06256 18.0899 2.08908 18.1523L2.08952 18.1534C2.86869 20.0256 3.64898 21.8978 4.4282 23.7702L4.42824 23.7704C4.47996 23.895 4.62418 23.9549 4.74937 23.9025L6.12981 23.3302L6.13075 23.3298C6.1932 23.3031 6.23834 23.2586 6.26511 23.1953C6.28981 23.1326 6.28962 23.0695 6.26374 23.0068ZM6.50006 21.7884L7.30913 21.3948C7.7807 21.1651 8.2632 21.1243 8.76555 21.271L11.6383 22.1043C12.0374 22.2202 12.4838 22.163 12.9239 22.0503C13.4123 21.9251 13.8929 21.7271 14.3055 21.5683L19.6974 19.4906C20.1015 19.3347 20.391 18.9393 20.4778 18.5378C20.5295 18.299 20.51 18.0545 20.3719 17.8679C20.2541 17.7087 20.0538 17.6006 19.7679 17.5566C19.4089 17.5014 18.9357 17.5475 18.3276 17.7259L14.7698 18.7696C14.7777 18.9274 14.7616 19.0889 14.7186 19.2491C14.4959 20.0809 13.6322 20.5798 12.801 20.3558L9.33883 19.4287C9.15584 19.3797 9.04707 19.1914 9.09609 19.0084C9.14506 18.8254 9.33339 18.7166 9.51638 18.7656L12.9786 19.6927L12.9791 19.6928C13.4459 19.8187 13.9306 19.5384 14.0556 19.0716C14.1807 18.6045 13.9004 18.1196 13.4333 17.9945L10.8282 17.2967C10.7888 17.2862 10.7517 17.2687 10.7184 17.2451C10.0676 16.7832 9.54795 16.5493 9.07133 16.4849C8.35702 16.3884 7.75236 16.6738 6.97442 17.0544C6.29726 17.3856 5.61702 17.7098 4.93579 18.0318C5.45707 19.284 5.97874 20.5361 6.50006 21.7884ZM20.5038 9.98474C19.6941 9.98474 19.2876 10.9659 19.8602 11.5385C20.1392 11.8174 20.1392 12.2712 19.8602 12.5501L19.0597 13.3507C18.7807 13.6296 18.327 13.6296 18.048 13.3507C17.4754 12.7781 16.4943 13.1846 16.4943 13.9942C16.4943 14.3903 16.1741 14.7092 15.7793 14.7092H14.647C14.2522 14.7092 13.932 14.3903 13.932 13.9942C13.932 13.1836 12.9513 12.7776 12.3782 13.3507C12.0991 13.6298 11.6464 13.6298 11.3674 13.3508L10.566 12.5501C10.2871 12.2712 10.2871 11.8174 10.566 11.5385C11.1387 10.9659 10.7327 9.98474 9.92251 9.98474C9.52771 9.98474 9.20751 9.66454 9.20751 9.26979V8.13748C9.20751 7.74268 9.52771 7.42248 9.92251 7.42248C10.7327 7.42248 11.1387 6.44135 10.566 5.86871C10.2869 5.58959 10.2869 5.13684 10.566 4.85778L11.3673 4.0565C11.6464 3.77743 12.0991 3.77743 12.3782 4.0565C12.9508 4.62915 13.932 4.22312 13.932 3.41297C13.932 3.01817 14.2522 2.69797 14.647 2.69797H15.7793C16.1741 2.69797 16.4943 3.01817 16.4943 3.41297C16.4943 4.22312 17.4754 4.62915 18.048 4.0565C18.327 3.77758 18.7807 3.77758 19.0597 4.0565L19.8602 4.85778C20.1393 5.13684 20.1393 5.58959 19.8602 5.86871C19.2876 6.44135 19.6941 7.42248 20.5038 7.42248C20.8999 7.42248 21.2187 7.74268 21.2187 8.13748V9.26979C21.2187 9.66454 20.8999 9.98474 20.5038 9.98474ZM20.5038 9.29846C20.5197 9.29846 20.5325 9.28562 20.5325 9.26979V8.13748C20.5325 8.1216 20.5197 8.10876 20.5038 8.10876C19.0836 8.10876 18.3705 6.38787 19.375 5.38346C19.3861 5.37229 19.3861 5.3542 19.375 5.34302L18.5744 4.5418C18.563 4.53047 18.5446 4.53047 18.5333 4.5418C17.5289 5.54621 15.808 4.834 15.808 3.41297C15.808 3.39714 15.7952 3.38425 15.7793 3.38425H14.647C14.6311 3.38425 14.6182 3.39714 14.6182 3.41297C14.6182 4.834 12.8974 5.54621 11.893 4.5418C11.8818 4.53062 11.8637 4.53062 11.8526 4.5418L11.0513 5.34302C11.0402 5.3542 11.0402 5.37229 11.0513 5.38346C12.0557 6.38787 11.3435 8.10876 9.92251 8.10876C9.90663 8.10876 9.89378 8.1216 9.89378 8.13748V9.26979C9.89378 9.28562 9.90663 9.29846 9.92251 9.29846C11.3435 9.29846 12.0557 11.0193 11.0513 12.0238C11.04 12.0351 11.04 12.0536 11.0513 12.0649L11.8526 12.8654C11.8637 12.8766 11.8818 12.8766 11.893 12.8654C12.8982 11.8602 14.6182 12.5724 14.6182 13.9942C14.6182 14.0102 14.6311 14.023 14.647 14.023H15.7793C15.7952 14.023 15.808 14.0102 15.808 13.9942C15.808 12.5741 17.5289 11.861 18.5333 12.8654C18.5446 12.8767 18.563 12.8767 18.5744 12.8654L19.375 12.0649C19.3863 12.0536 19.3863 12.0351 19.375 12.0238C18.3705 11.0193 19.0836 9.29846 20.5038 9.29846ZM15.2134 12.1284C13.327 12.1284 11.789 10.5896 11.789 8.70395C11.789 6.81748 13.327 5.27949 15.2134 5.27949C17.0991 5.27949 18.6379 6.81748 18.6379 8.70395C18.6379 10.5896 17.0991 12.1284 15.2134 12.1284ZM15.2134 11.4421C16.7212 11.4421 17.9516 10.2117 17.9516 8.70395C17.9516 7.19552 16.7212 5.96577 15.2134 5.96577C13.7051 5.96577 12.4753 7.19552 12.4753 8.70395C12.4753 10.2117 13.7051 11.4421 15.2134 11.4421ZM16.4332 9.66949C16.2746 9.77307 16.0618 9.72846 15.9582 9.56993C15.8547 9.41135 15.8993 9.19856 16.0578 9.09498L16.6568 8.70361L16.0578 8.31224C15.8993 8.20866 15.8547 7.99586 15.9582 7.83733C16.0618 7.67876 16.2746 7.63415 16.4332 7.73773L17.4719 8.41635C17.5688 8.47974 17.6273 8.58778 17.6273 8.70361C17.6273 8.81949 17.5688 8.92748 17.4719 8.99086L16.4332 9.66949ZM15.33 9.59327C15.281 9.77621 15.0927 9.88493 14.9097 9.83591C14.7268 9.78689 14.6181 9.59856 14.6671 9.41562L15.0963 7.81395C15.1453 7.63106 15.3336 7.52233 15.5165 7.57135C15.6995 7.62032 15.8082 7.80866 15.7592 7.9916L15.33 9.59327ZM14.3684 9.09498C14.527 9.19856 14.5716 9.41135 14.468 9.56993C14.3644 9.72846 14.1516 9.77307 13.9931 9.66949L12.9544 8.99086C12.8574 8.92748 12.7989 8.81949 12.7989 8.70361C12.7989 8.58778 12.8574 8.47974 12.9544 8.41635L13.9931 7.73773C14.1516 7.63415 14.3644 7.67876 14.468 7.83733C14.5716 7.99586 14.527 8.20866 14.3684 8.31224L13.7694 8.70361L14.3684 9.09498ZM8.12746 11.5246C9.24996 14.3384 12.0009 16.3289 15.2131 16.3289C18.8448 16.3289 21.8871 13.7845 22.6526 10.3826C22.6942 10.1979 22.8779 10.0816 23.0627 10.1232C23.2475 10.1648 23.3637 10.3486 23.3222 10.5333C22.4877 14.2415 19.1718 17.0151 15.2131 17.0151C11.7314 17.0151 8.74692 14.8696 7.5106 11.8298L7.44849 12.136C7.41079 12.3215 7.22952 12.4416 7.04393 12.404C6.85834 12.3663 6.73824 12.185 6.77589 11.9994L7.10261 10.3897C7.12697 10.2696 7.21359 10.1716 7.32981 10.1326C7.44609 10.0937 7.57427 10.1197 7.66609 10.2009L8.89682 11.2887C9.03873 11.414 9.05212 11.6311 8.92668 11.773C8.80128 11.9149 8.58422 11.9283 8.44231 11.8029L8.12746 11.5246ZM22.8935 5.52341L22.9384 5.27199C22.9717 5.08552 23.1501 4.96121 23.3365 4.99449C23.5229 5.02782 23.6473 5.20621 23.614 5.39263L23.3252 7.00959C23.3036 7.13028 23.2193 7.23028 23.104 7.27194C22.9887 7.31361 22.86 7.29062 22.7662 7.2116L21.5104 6.15302C21.3655 6.03101 21.3471 5.81434 21.4691 5.66954C21.5911 5.52474 21.8078 5.50626 21.9526 5.62832L22.3209 5.93871C21.2128 3.09532 18.4466 1.07836 15.2131 1.07836C11.5814 1.07836 8.53923 3.62268 7.77364 7.02459C7.73207 7.20934 7.54829 7.32557 7.36354 7.284C7.17878 7.24243 7.06251 7.05866 7.10408 6.8739C7.93859 3.16572 11.2545 0.39209 15.2131 0.39209C18.6742 0.39209 21.6439 2.51224 22.8935 5.52341Z" fill="#108AFF"/>
</svg>
