<svg width="25" height="25" viewBox="0 0 25 25" fill="none" xmlns="http://www.w3.org/2000/svg">
<g clip-path="url(#clip0_163_108)">
<path d="M20.6422 5.4959V5.0769C20.6422 4.09229 20.2923 3.13628 19.6569 2.38491C19.0167 1.62783 18.1265 1.12559 17.1503 0.970557C16.4603 0.861035 15.7352 0.779639 14.964 0.725635C14.1929 0.671631 13.3757 0.64502 12.5018 0.64502C11.6278 0.64502 10.8106 0.671631 10.0395 0.725684C9.26836 0.779736 8.54321 0.861084 7.85317 0.970605C6.87705 1.12563 5.98682 1.62788 5.34663 2.38496C4.71123 3.13628 4.36133 4.09229 4.36133 5.0769V6.4811V7.8853C4.36133 8.86992 4.71123 9.82593 5.34663 10.5773C5.98682 11.3344 6.87705 11.8366 7.85317 11.9917C8.54321 12.1012 9.26836 12.1826 10.0395 12.2366C10.8106 12.2906 11.6278 12.3172 12.5018 12.3172C13.3757 12.3172 14.1929 12.2906 14.964 12.2366C15.7352 12.1826 16.4603 12.1012 17.1503 11.9917C18.1265 11.8366 19.0167 11.3344 19.6569 10.5773C20.2923 9.82593 20.6422 8.86992 20.6422 7.8853V7.22905" stroke="#108AFF" stroke-width="0.8" stroke-miterlimit="10" stroke-linecap="round" stroke-linejoin="round"/>
<path d="M6.07031 6.4811V7.8853C6.07031 9.08457 6.93667 10.1157 8.12114 10.3038C8.84966 10.4194 9.60781 10.4997 10.4102 10.5486C11.0743 10.5891 11.7687 10.6082 12.5018 10.6082C13.2348 10.6082 13.9292 10.5891 14.5933 10.5486C15.3957 10.4996 16.1539 10.4194 16.8824 10.3038C18.0668 10.1157 18.9332 9.08457 18.9332 7.8853V6.4811V5.0769C18.9332 3.87764 18.0668 2.84648 16.8824 2.65845C16.1539 2.54277 15.3957 2.46255 14.5933 2.41362C13.9292 2.3731 13.2348 2.354 12.5018 2.354C11.7687 2.354 11.0743 2.3731 10.4102 2.41362C9.60781 2.46255 8.84966 2.54282 8.12114 2.65845C6.93667 2.84648 6.07031 3.87764 6.07031 5.0769V6.4811Z" stroke="#108AFF" stroke-width="0.8" stroke-miterlimit="10" stroke-linecap="round" stroke-linejoin="round"/>
<path d="M12.5016 24.3552C14.0762 24.3552 15.3527 23.0787 15.3527 21.504C15.3527 19.9293 14.0762 18.6528 12.5016 18.6528C10.9269 18.6528 9.65039 19.9293 9.65039 21.504C9.65039 23.0787 10.9269 24.3552 12.5016 24.3552Z" stroke="#108AFF" stroke-width="0.8" stroke-miterlimit="10" stroke-linecap="round" stroke-linejoin="round"/>
<path d="M12.5001 22.7033C13.1625 22.7033 13.6994 22.1664 13.6994 21.504C13.6994 20.8416 13.1625 20.3047 12.5001 20.3047C11.8377 20.3047 11.3008 20.8416 11.3008 21.504C11.3008 22.1664 11.8377 22.7033 12.5001 22.7033Z" stroke="#108AFF" stroke-width="0.8" stroke-miterlimit="10" stroke-linecap="round" stroke-linejoin="round"/>
<path d="M3.21836 24.3552C4.79302 24.3552 6.06953 23.0787 6.06953 21.504C6.06953 19.9293 4.79302 18.6528 3.21836 18.6528C1.6437 18.6528 0.367188 19.9293 0.367188 21.504C0.367188 23.0787 1.6437 24.3552 3.21836 24.3552Z" stroke="#108AFF" stroke-width="0.8" stroke-miterlimit="10" stroke-linecap="round" stroke-linejoin="round"/>
<path d="M3.21885 22.7033C3.88121 22.7033 4.41816 22.1664 4.41816 21.504C4.41816 20.8416 3.88121 20.3047 3.21885 20.3047C2.55648 20.3047 2.01953 20.8416 2.01953 21.504C2.01953 22.1664 2.55648 22.7033 3.21885 22.7033Z" stroke="#108AFF" stroke-width="0.8" stroke-miterlimit="10" stroke-linecap="round" stroke-linejoin="round"/>
<path d="M21.7828 24.3552C23.3575 24.3552 24.634 23.0787 24.634 21.504C24.634 19.9293 23.3575 18.6528 21.7828 18.6528C20.2082 18.6528 18.9316 19.9293 18.9316 21.504C18.9316 23.0787 20.2082 24.3552 21.7828 24.3552Z" stroke="#108AFF" stroke-width="0.8" stroke-miterlimit="10" stroke-linecap="round" stroke-linejoin="round"/>
<path d="M21.7833 22.7033C22.4457 22.7033 22.9826 22.1664 22.9826 21.504C22.9826 20.8416 22.4457 20.3047 21.7833 20.3047C21.1209 20.3047 20.584 20.8416 20.584 21.504C20.584 22.1664 21.1209 22.7033 21.7833 22.7033Z" stroke="#108AFF" stroke-width="0.8" stroke-miterlimit="10" stroke-linecap="round" stroke-linejoin="round"/>
<path d="M11.5248 12.3057V14.5085H4.83838C3.40684 14.5085 2.24219 15.6732 2.24219 17.1048V18.8245" stroke="#108AFF" stroke-width="0.8" stroke-miterlimit="10" stroke-linecap="round" stroke-linejoin="round"/>
<path d="M22.7591 18.8245V17.1048C22.7591 15.6732 21.5945 14.5085 20.1629 14.5085H13.4766V12.3057" stroke="#108AFF" stroke-width="0.8" stroke-miterlimit="10" stroke-linecap="round" stroke-linejoin="round"/>
<path d="M13.4766 18.8243V16.4614H20.163C20.5176 16.4614 20.8061 16.7499 20.8061 17.1045V18.8243" stroke="#108AFF" stroke-width="0.8" stroke-miterlimit="10" stroke-linecap="round" stroke-linejoin="round"/>
<path d="M7.21875 16.4614H11.5239V18.8243" stroke="#108AFF" stroke-width="0.8" stroke-miterlimit="10" stroke-linecap="round" stroke-linejoin="round"/>
<path d="M4.19531 18.8243V17.1045C4.19531 16.7499 4.48379 16.4614 4.83838 16.4614H5.46958" stroke="#108AFF" stroke-width="0.8" stroke-miterlimit="10" stroke-linecap="round" stroke-linejoin="round"/>
<path d="M13.6576 6.50923C13.6576 5.79424 13.1396 5.72705 12.5007 5.72705C11.8617 5.72705 11.3438 5.79424 11.3438 6.50923C11.3438 7.22422 11.8617 7.80381 12.5007 7.80381C13.1396 7.80381 13.6576 7.22417 13.6576 6.50923Z" stroke="#108AFF" stroke-width="0.8" stroke-miterlimit="10" stroke-linecap="round" stroke-linejoin="round"/>
<path d="M8.85156 5.43701V6.02295" stroke="#108AFF" stroke-width="0.8" stroke-miterlimit="10" stroke-linecap="round" stroke-linejoin="round"/>
<path d="M16.1504 5.43701V6.02295" stroke="#108AFF" stroke-width="0.8" stroke-miterlimit="10" stroke-linecap="round" stroke-linejoin="round"/>
</g>
<defs>
<clipPath id="clip0_163_108">
<rect width="25" height="25" fill="white"/>
</clipPath>
</defs>
</svg>
