<svg width="52" height="52" viewBox="0 0 52 52" fill="none" xmlns="http://www.w3.org/2000/svg">
<path d="M11.2666 32.9333V33.8H14.7333V32.9333V30.3333H11.2666V32.9333Z" fill="white"/>
<path d="M14.7333 38.1333H11.2666V41.6H14.7333V38.1333Z" fill="white"/>
<path d="M19.9331 32.9333V33.8H23.3998V32.9333V30.3333H19.9331V32.9333Z" fill="white"/>
<path d="M23.3998 38.1333H19.9331V41.6H23.3998V38.1333Z" fill="white"/>
<path d="M28.6001 32.9333V33.8H32.0668V32.9333V30.3333H28.6001V32.9333Z" fill="white"/>
<path d="M32.0668 38.1333H28.6001V41.6H32.0668V38.1333Z" fill="white"/>
<path d="M40.7333 30.3333H37.2666V33.8H40.7333V30.3333Z" fill="white"/>
<path d="M40.7333 38.1333H37.2666V41.6H40.7333V38.1333Z" fill="white"/>
<path d="M48.0198 8.66667L33.8 22.7175V8.66667H30.0598L16.4667 22.4539V0H0V52H52V8.66667H48.0198ZM48.5333 48.5333H3.46667V3.46667H13V26.8667H16.9843L30.3333 13.327V26.8667H34.5328L48.5333 13.0325V48.5333Z" fill="white"/>
</svg>
