<svg xmlns="http://www.w3.org/2000/svg" width="53" height="53" fill="#fff" xmlns:v="https://vecta.io/nano"><path d="M48.757 29.361c.302-1.538.462-3.126.462-4.751C49.219 11.04 38.18 0 24.61 0S0 11.04 0 24.61s11.04 24.61 24.61 24.61a24.61 24.61 0 0 0 5.184-.551 13.5 13.5 0 0 0 9.663 4.067C46.925 52.735 53 46.66 53 39.192c0-3.869-1.633-7.361-4.243-9.831zm-9.3 20.327a10.51 10.51 0 0 1-10.496-10.496 10.51 10.51 0 0 1 10.496-10.496 10.51 10.51 0 0 1 10.496 10.496 10.51 10.51 0 0 1-10.496 10.496zM3.107 26.133h7.672a28.96 28.96 0 0 0 1.612 8.124H5.334c-1.244-2.476-2.024-5.221-2.227-8.124zm2.227-11.171h7.109c-.943 2.612-1.513 5.35-1.665 8.124H3.107a21.39 21.39 0 0 1 2.227-8.124zM24.621 3.503a25.94 25.94 0 0 1 7.522 8.412H17.181c1.842-3.259 4.37-6.155 7.441-8.412zm8.974 11.459a25.9 25.9 0 0 1 1.8 8.124H13.827a25.65 25.65 0 0 1 1.875-8.124h17.894zm12.517 8.124h-7.669a28.96 28.96 0 0 0-1.594-8.124h7.035a21.4 21.4 0 0 1 2.228 8.124zm-32.286 3.047H35.39l-.011.144c-3.903 1.235-7.043 4.195-8.53 7.98H15.647a25.9 25.9 0 0 1-1.821-8.124zm12.222 11.171a13.51 13.51 0 0 0-.134 1.888 13.47 13.47 0 0 0 .88 4.797 25.68 25.68 0 0 1-2.102 1.73c-3.166-2.25-5.734-5.133-7.583-8.415h8.938zm16.989-11.171h3.075a21.67 21.67 0 0 1-.119 1.203c-.925-.512-1.916-.918-2.956-1.203zm-1.013-14.218h-6.446a28.91 28.91 0 0 0-6.06-8.298 21.61 21.61 0 0 1 12.506 8.298zM19.81 3.592a30.08 30.08 0 0 0-6.069 8.323H7.194c3.019-4.131 7.47-7.149 12.616-8.323zM7.194 37.304h6.475a28.89 28.89 0 0 0 6.12 8.319c-5.138-1.178-9.58-4.193-12.596-8.319zm34.183 2.028c.534-.451.881-1.118.881-1.872a2.46 2.46 0 1 0-4.92 0c0 .754.347 1.421.881 1.872L37 43.185h5.597l-1.22-3.853z"/></svg>