<svg width="1515" height="78" viewBox="0 0 1515 78" fill="none" xmlns="http://www.w3.org/2000/svg">
<path d="M28.3408 3.52539L33.3408 6.41214V0.638639L28.3408 3.52539ZM1500 3.52539L1495 0.638639V6.41214L1500 3.52539ZM32.8408 3.52539V4.02539H36.339V3.52539V3.02539H32.8408V3.52539ZM52.3353 3.52539V4.02539H68.3317V3.52539V3.02539H52.3353V3.52539ZM84.328 3.52539V4.02539H100.324V3.52539V3.02539H84.328V3.52539ZM116.321 3.52539V4.02539H132.317V3.52539V3.02539H116.321V3.52539ZM148.313 3.52539V4.02539H164.31V3.52539V3.02539H148.313V3.52539ZM180.306 3.52539V4.02539H196.302V3.52539V3.02539H180.306V3.52539ZM212.299 3.52539V4.02539H228.295V3.52539V3.02539H212.299V3.52539ZM244.291 3.52539V4.02539H260.288V3.52539V3.02539H244.291V3.52539ZM276.284 3.52539V4.02539H292.28V3.52539V3.02539H276.284V3.52539ZM308.277 3.52539V4.02539H324.273V3.52539V3.02539H308.277V3.52539ZM340.269 3.52539V4.02539H356.266V3.52539V3.02539H340.269V3.52539ZM372.262 3.52539V4.02539H388.258V3.52539V3.02539H372.262V3.52539ZM404.255 3.52539V4.02539H420.251V3.52539V3.02539H404.255V3.52539ZM436.247 3.52539V4.02539H452.244V3.52539V3.02539H436.247V3.52539ZM468.24 3.52539V4.02539H484.236V3.52539V3.02539H468.24V3.52539ZM500.233 3.52539V4.02539H516.229V3.52539V3.02539H500.233V3.52539ZM532.226 3.52539V4.02539H548.222V3.52539V3.02539H532.226V3.52539ZM564.218 3.52539V4.02539H580.215V3.52539V3.02539H564.218V3.52539ZM596.211 3.52539V4.02539H612.207V3.52539V3.02539H596.211V3.52539ZM628.204 3.52539V4.02539H644.2V3.52539V3.02539H628.204V3.52539ZM660.196 3.52539V4.02539H676.193V3.52539V3.02539H660.196V3.52539ZM692.189 3.52539V4.02539H708.185V3.52539V3.02539H692.189V3.52539ZM724.182 3.52539V4.02539H740.178V3.52539V3.02539H724.182V3.52539ZM756.174 3.52539V4.02539H772.171V3.52539V3.02539H756.174V3.52539ZM788.167 3.52539V4.02539H804.163V3.52539V3.02539H788.167V3.52539ZM820.16 3.52539V4.02539H836.156V3.52539V3.02539H820.16V3.52539ZM852.152 3.52539V4.02539H868.149V3.52539V3.02539H852.152V3.52539ZM884.145 3.52539V4.02539H900.141V3.52539V3.02539H884.145V3.52539ZM916.138 3.52539V4.02539H932.134V3.52539V3.02539H916.138V3.52539ZM948.13 3.52539V4.02539H964.127V3.52539V3.02539H948.13V3.52539ZM980.123 3.52539V4.02539H996.119V3.52539V3.02539H980.123V3.52539ZM1012.12 3.52539V4.02539H1028.11V3.52539V3.02539H1012.12V3.52539ZM1044.11 3.52539V4.02539H1060.1V3.52539V3.02539H1044.11V3.52539ZM1076.1 3.52539V4.02539H1092.1V3.52539V3.02539H1076.1V3.52539ZM1108.09 3.52539V4.02539H1124.09V3.52539V3.02539H1108.09V3.52539ZM1140.09 3.52539V4.02539H1156.08V3.52539V3.02539H1140.09V3.52539ZM1172.08 3.52539V4.02539H1188.08V3.52539V3.02539H1172.08V3.52539ZM1204.07 3.52539V4.02539H1220.07V3.52539V3.02539H1204.07V3.52539ZM1236.06 3.52539V4.02539H1252.06V3.52539V3.02539H1236.06V3.52539ZM1268.06 3.52539V4.02539H1284.05V3.52539V3.02539H1268.06V3.52539ZM1300.05 3.52539V4.02539H1316.05V3.52539V3.02539H1300.05V3.52539ZM1332.04 3.52539V4.02539H1348.04V3.52539V3.02539H1332.04V3.52539ZM1364.04 3.52539V4.02539H1380.03V3.52539V3.02539H1364.04V3.52539ZM1396.03 3.52539V4.02539H1412.02V3.52539V3.02539H1396.03V3.52539ZM1428.02 3.52539V4.02539H1444.02V3.52539V3.02539H1428.02V3.52539ZM1460.01 3.52539V4.02539H1476.01V3.52539V3.02539H1460.01V3.52539ZM1492.01 3.52539V4.02539H1495.5V3.52539V3.02539H1492.01V3.52539Z" fill="black"/>
<path d="M0 39L5 41.8868V36.1132L0 39ZM1515 39L1510 36.1132V41.8868L1515 39ZM4.5 39V39.5H8.05851V39V38.5H4.5V39ZM24.1755 39V39.5H40.2926V39V38.5H24.1755V39ZM56.4096 39V39.5H72.5266V39V38.5H56.4096V39ZM88.6436 39V39.5H104.761V39V38.5H88.6436V39ZM120.878 39V39.5H136.995V39V38.5H120.878V39ZM153.112 39V39.5H169.229V39V38.5H153.112V39ZM185.346 39V39.5H201.463V39V38.5H185.346V39ZM217.58 39V39.5H233.697V39V38.5H217.58V39ZM249.814 39V39.5H265.931V39V38.5H249.814V39ZM282.048 39V39.5H298.165V39V38.5H282.048V39ZM314.282 39V39.5H330.399V39V38.5H314.282V39ZM346.516 39V39.5H362.633V39V38.5H346.516V39ZM378.75 39V39.5H394.867V39V38.5H378.75V39ZM410.984 39V39.5H427.101V39V38.5H410.984V39ZM443.218 39V39.5H459.335V39V38.5H443.218V39ZM475.452 39V39.5H491.569V39V38.5H475.452V39ZM507.686 39V39.5H523.803V39V38.5H507.686V39ZM539.92 39V39.5H556.037V39V38.5H539.92V39ZM572.154 39V39.5H588.271V39V38.5H572.154V39ZM604.388 39V39.5H620.505V39V38.5H604.388V39ZM636.622 39V39.5H652.739V39V38.5H636.622V39ZM668.856 39V39.5H684.973V39V38.5H668.856V39ZM701.09 39V39.5H717.207V39V38.5H701.09V39ZM733.324 39V39.5H749.441V39V38.5H733.324V39ZM765.558 39V39.5H781.675V39V38.5H765.558V39ZM797.792 39V39.5H813.91V39V38.5H797.792V39ZM830.026 39V39.5H846.143V39V38.5H830.026V39ZM862.26 39V39.5H878.378V39V38.5H862.26V39ZM894.495 39V39.5H910.612V39V38.5H894.495V39ZM926.728 39V39.5H942.846V39V38.5H926.728V39ZM958.963 39V39.5H975.08V39V38.5H958.963V39ZM991.197 39V39.5H1007.31V39V38.5H991.197V39ZM1023.43 39V39.5H1039.55V39V38.5H1023.43V39ZM1055.66 39V39.5H1071.78V39V38.5H1055.66V39ZM1087.9 39V39.5H1104.02V39V38.5H1087.9V39ZM1120.13 39V39.5H1136.25V39V38.5H1120.13V39ZM1152.37 39V39.5H1168.48V39V38.5H1152.37V39ZM1184.6 39V39.5H1200.72V39V38.5H1184.6V39ZM1216.84 39V39.5H1232.95V39V38.5H1216.84V39ZM1249.07 39V39.5H1265.19V39V38.5H1249.07V39ZM1281.3 39V39.5H1297.42V39V38.5H1281.3V39ZM1313.54 39V39.5H1329.65V39V38.5H1313.54V39ZM1345.77 39V39.5H1361.89V39V38.5H1345.77V39ZM1378.01 39V39.5H1394.12V39V38.5H1378.01V39ZM1410.24 39V39.5H1426.36V39V38.5H1410.24V39ZM1442.47 39V39.5H1458.59V39V38.5H1442.47V39ZM1474.71 39V39.5H1490.83V39V38.5H1474.71V39ZM1506.94 39V39.5H1510.5V39V38.5H1506.94V39Z" fill="black"/>
<path d="M27.9795 74.5L32.9795 77.3868V71.6132L27.9795 74.5ZM1500.02 74.5L1495.02 71.6132V77.3868L1500.02 74.5ZM32.4795 74.5V75H35.9797V74.5V74H32.4795V74.5ZM51.9802 74.5V75H67.9806V74.5V74H51.9802V74.5ZM83.9811 74.5V75H99.9815V74.5V74H83.9811V74.5ZM115.982 74.5V75H131.982V74.5V74H115.982V74.5ZM147.983 74.5V75H163.983V74.5V74H147.983V74.5ZM179.984 74.5V75H195.984V74.5V74H179.984V74.5ZM211.985 74.5V75H227.985V74.5V74H211.985V74.5ZM243.985 74.5V75H259.986V74.5V74H243.985V74.5ZM275.986 74.5V75H291.987V74.5V74H275.986V74.5ZM307.987 74.5V75H323.988V74.5V74H307.987V74.5ZM339.988 74.5V75H355.989V74.5V74H339.988V74.5ZM371.989 74.5V75H387.99V74.5V74H371.989V74.5ZM403.99 74.5V75H419.99V74.5V74H403.99V74.5ZM435.991 74.5V75H451.991V74.5V74H435.991V74.5ZM467.992 74.5V75H483.992V74.5V74H467.992V74.5ZM499.993 74.5V75H515.993V74.5V74H499.993V74.5ZM531.994 74.5V75H547.994V74.5V74H531.994V74.5ZM563.995 74.5V75H579.995V74.5V74H563.995V74.5ZM595.995 74.5V75H611.996V74.5V74H595.995V74.5ZM627.996 74.5V75H643.997V74.5V74H627.996V74.5ZM659.997 74.5V75H675.998V74.5V74H659.997V74.5ZM691.998 74.5V75H707.998V74.5V74H691.998V74.5ZM723.999 74.5V75H739.999V74.5V74H723.999V74.5ZM756 74.5V75H772V74.5V74H756V74.5ZM788 74.5V75H804.001V74.5V74H788V74.5ZM820.001 74.5V75H836.002V74.5V74H820.001V74.5ZM852.002 74.5V75H868.003V74.5V74H852.002V74.5ZM884.003 74.5V75H900.003V74.5V74H884.003V74.5ZM916.004 74.5V75H932.004V74.5V74H916.004V74.5ZM948.005 74.5V75H964.005V74.5V74H948.005V74.5ZM980.006 74.5V75H996.006V74.5V74H980.006V74.5ZM1012.01 74.5V75H1028.01V74.5V74H1012.01V74.5ZM1044.01 74.5V75H1060.01V74.5V74H1044.01V74.5ZM1076.01 74.5V75H1092.01V74.5V74H1076.01V74.5ZM1108.01 74.5V75H1124.01V74.5V74H1108.01V74.5ZM1140.01 74.5V75H1156.01V74.5V74H1140.01V74.5ZM1172.01 74.5V75H1188.01V74.5V74H1172.01V74.5ZM1204.01 74.5V75H1220.01V74.5V74H1204.01V74.5ZM1236.01 74.5V75H1252.01V74.5V74H1236.01V74.5ZM1268.01 74.5V75H1284.01V74.5V74H1268.01V74.5ZM1300.02 74.5V75H1316.02V74.5V74H1300.02V74.5ZM1332.02 74.5V75H1348.02V74.5V74H1332.02V74.5ZM1364.02 74.5V75H1380.02V74.5V74H1364.02V74.5ZM1396.02 74.5V75H1412.02V74.5V74H1396.02V74.5ZM1428.02 74.5V75H1444.02V74.5V74H1428.02V74.5ZM1460.02 74.5V75H1476.02V74.5V74H1460.02V74.5ZM1492.02 74.5V75H1495.52V74.5V74H1492.02V74.5Z" fill="black"/>
</svg>
