<svg xmlns="http://www.w3.org/2000/svg" width="500" zoomAndPan="magnify" viewBox="0 0 375 375" height="500" preserveAspectRatio="xMidYMid meet" xmlns:v="https://vecta.io/nano"><path d="M92.559 108.898v-.152c0 .078-.012.133-.035.188.023-.012.035-.035.035-.035zm78.508 40.531c0-.023-.012-.043-.012-.043v.043zm14.297 127.473c-3.086-.547-6.918-.066-10.082-.066-3.781 0-7.656-.328-11.371.469-1.676.348-3.152 1.152-4.738 1.543-1.762.457-3.52.512-5.27 1.164-.031 0-.055 0-.086.023-.445.414-1.066.641-1.914.543-4.605-.543-9.473-.988-13.543 1.656-1.012.652-2.012.543-2.75.031-.121-.023-.227-.031-.359-.078-3.105-.988-8.625-.824-10.84 1.938-.785 1.012-1.793 1.145-2.652.785-.172 0-.359-.023-.543-.055-4.086-.926-9.906-1.316-12.863 2.25-.348.426-.758.676-1.172.816a2.27 2.27 0 0 1-.676.207c-3.234.543-7.887 1.145-9.395 4.484-.488 1.066-1.324 1.48-2.172 1.457-6.441 1.359-13.613 4.527-18.055 9.75 2.691.324 5.344.641 8.137.281 3.855-.469 7.637-1.098 11.523-.707 1.457.129 2.434.992 2.695 2.23 2.922-.434 5.789-1.262 8.723-1.676 1.793-.262 3.52.719 3.555 2.719-.012-1.629-.805-.77 1.086-1.141a46.7 46.7 0 0 0 1.594-.359l2.805-.75c.988-.238 1.793 0 2.402.488 2.563-.488 5.18-.762 7.742-1.273.902-.16 1.664.055 2.25.492 2.695.488 6.215-2.645 8.473-3.637 1.273-.562 2.488-.172 3.293.609 3.301-.348 6.777-1.695 9.234-3.762 1.563-1.309 3.531-.602 4.41.672.043.023.074.055.098.078.5-.164.969-.371 1.422-.633 1.328-.75 2.598-1.598 3.813-2.5 1.938-1.414 3.75-2.992 5.641-4.461.762-.578 1.508-.676 2.172-.426 2.16-.391 2.055 1.98 4.465 1.098 1.391-.52 2.586-1.684 3.727-2.598 1.477-1.187 2.738-2.535 4.043-3.898 1.855-1.914 4.117-3.242 6.082-4.992-2.902.531-5.629 1.633-8.453 2.23-.117.023-.227.055-.324.078l-8.855 1.891c-5.965 1.371-11.449 2.363-16.336 3.383l-13.102 2.504-10.105 2.023c-5.832 1.219-9.992 1.555-12.633 1.609-2.641-.055-3.781-.195-3.781-.402 0-.531 4.531-.27 15.992-3.152 2.879-.676 6.191-1.559 10.082-2.363 3.91-.73 8.18-1.762 13.047-2.773l16.219-3.527c2.789-.652 5.527-1.422 8.254-2.133 3.055-.805 6.141-.848 9.094-2.141zm-4.508-7.086c2.141.512 5.02 2.887 7.148 2.125-2.02-1.352-4.25-2.48-6.324-3.711-1.703-1.035-3.234-2.176-4.875-3.285-2.477-1.645-4.738-3.352-7.172-5.094-2.5-1.816-5.375-3.242-8.516-3.262-.73 0-1.273-.305-1.629-.719-.152-.109-.305-.242-.437-.414-2.953-3.742-5.418-8.465-10.383-9.727a2.07 2.07 0 0 1-1.316-.937.93.93 0 0 0-.141-.109c-2.891-2.609-6.465-6.395-10.766-5.211-1.012.285-1.988-.172-2.543-1.031-2.02-3.113-5.766-4.07-9.289-4.203-.855-.008-1.453-.445-1.812-1.031-1.91-1.773-4.02-3.906-6.77-3.93-.793.652-1.953.828-2.832-.207-1.719-2.043-5.758-6.223-8.66-4.352-1.129.73-2.195.305-2.793-.52-1.996-1.133-9.68-5.027-10.047-4.094-.566 1.316-1.934 2.121-3.312 1.34-2.195-1.262-9.898-6.43-11.887-3.449-.445.652-1.086.945-1.715.988-.512.176-1.086.098-1.672-.359-1.012-.75-2.207-1.379-3.391-1.836-.684-.262-1.379-.523-2.109-.652-.172-.035-.281-.035-.355-.035-.773.785-1.871.762-2.719.262a2.61 2.61 0 0 1-.629-.227c-8.309-4.559-17.73-4.484-27.008-4.289 5.293 4.289 11.484 7.422 17.414 10.75 1.316.742 4.141 1.762 4.629 3.492.152.523.238 1.406.043 1.926-.207.547 4.801 3.449 5.629 3.918.098.043.152.121.25.176 1.043.02 2.008.879 2.227 1.914 1.359.574 2.758 1.074 4.074 1.816.727.414 1.086 1.176 1.086 1.969 2.203 1.023 4.477 1.98 6.789 2.809 1.262.445 1.684 1.609 1.5 2.641 2.227 1.633 5.484 2.211 8.027 2.668 1.164.195 1.652 1.043 1.609 1.945 2.434 1.168 4.965 2.035 7.582 2.734 1.117.305 1.586 1.164 1.586 2.066 2.586 1.066 5.148 2.34 7.961 2.23 2.055-.098 2.641 2.152 1.773 3.504 1.91.488 4.16.184 6.082.109.469-.34 1.086-.469 1.805-.262 3.582 1.055 7.332 1.469 10.926 2.512 1.043.305 1.641 1.219 1.641 2.176 2.066.598 4.758.707 6.965 1.098.488.09.848.285 1.086.535 5.539 3.121 12.633.785 18.684 1.969.48.086.992.488 1.285.938.141.16 4.16 1.172 4.777 1.434 1.684.742 3.52 1.035 5.238 1.656 2.336.824 4.758 1.293 7.191 1.738 2.379.457 4.813.906 7.18 1.035-3.812-1.992-8.008-3.078-12.18-3.918-4.91-.988-9.863-3.035-14.523-4.797l-3.562-1.273c-1.172-.414-2.258-.988-3.379-1.48l-6.441-2.926c-4.215-1.859-8.082-3.863-11.809-5.656-7.465-3.582-13.883-7.227-19.574-10.348l-7.996-4.406c-2.488-1.371-4.812-2.613-6.996-3.68-2.172-1.109-4.195-2.133-6.086-2.937-1.891-.828-3.594-1.676-5.18-2.305l-4.348-1.676c-1.293-.5-2.441-.949-3.477-1.23-4.105-1.273-5.863-1.937-5.801-2.145.035-.184 1.871.121 6.117 1.09 1.066.207 2.25.566 3.574 1.012l4.488 1.48c1.648.563 3.387 1.359 5.344 2.141 1.953.754 4.02 1.719 6.246 2.797 2.25 1 4.605 2.211 7.125 3.516 2.566 1.293 5.25 2.742 8.105 4.277 5.746 3.055 12.145 6.582 19.598 10.063 3.703 1.762 7.582 3.73 11.777 5.547l6.418 2.875c1.098.469 2.184 1.043 3.324 1.445l3.52 1.254c4.684 1.738 9.734 3.348 15.035 5.035a123.85 123.85 0 0 0 9.594 2.719zm6.668-6.559c.652 1.34 1.535 2.457 2.285 3.711-.152-3.797-1.707-7.324-2.098-11.055-.25-2.273-1.012-4.309-2-6.355-1.543-3.133-3.41-6.059-5.02-9.129-.562-1.109-1.422-6.484-3.074-6.266-.934.141-1.684-.262-2.184-.84a2.02 2.02 0 0 1-.977-1.793c.02-2.023.043-4.07-.152-6.094-.109-1.086-.219-2.176-.555-3.23-.055-.219-.172-.695-.336-.914-1.336.086-2.02-.828-2.117-1.859-.133-.242-.23-.547-.262-.859-.262-2.473-.469-4.965-.988-7.391-.078-.336-.285-1.555-.512-2.152-.074.043-.164.074-.281.129-.316.188-.621.383-.914.566-1.184.73-2.301.23-2.898-.676-.195-.227-.316-.512-.383-.879-.008-.055-.031-.078-.031-.098-.414-2.906-.434-5.887-1.086-8.75-.078-.336-.133-.859-.305-1.238l-1.715-.316c-1.273-.227-1.73-1.195-1.598-2.199-.426-1.871-.707-3.762-1.281-5.602-.305-.957-.641-1.926-1.262-2.742-.293-.391-.207-.262-.672 0-.84.488-1.633.379-2.25-.012-.859-.227-1.609-.902-1.609-2.078 0-2.492-1.477-4.328-2.562-6.449-.359-.711-.695-1.687-1.27-2.277-.023-.008-.023-.031-.035-.055-.043.047-.074.078-.152.121-.258.184-.562.348-.867.445-1.977.852-3.758-1.121-3.402-2.645-.203-2.586-.727-5.395-1.867-7.754-.25-.523-.52-1.066-.824-1.578-.641.117-1.328-.035-1.859-.414-.727-.141-1.402-.598-1.738-1.437-1.172-2.906-1.641-6.168-3.496-8.734-.598-.852-1.238-1.656-1.969-2.363-.258-.281-.562-.609-.879-.848-1.086 1.031-2.879.336-3.465-.992a2.7 2.7 0 0 1-.336-.664c-.555-1.793-1.641-3.797-2.781-5.535-.512-.797-1.086-1.547-1.781-2.176-.785 1.293-2.25 1.195-3.207.41-.5-.25-.91-.66-1.117-1.348-1.043-3.809-3.91-6.527-6.105-9.715-.805-1.176-1.609-2.211-2.52-3.297-.523-.621-1.055-1.426-1.652-1.426-1.066 0-2.934.176-3.551-1.176-.152-.207-.285-.773-.359-1.031-.523-1.687-1.891-3.602-3.141-5.008-.695-.77-1.422-1.598-2.355-2.066a.95.95 0 0 0-.285-.086c-.02.031-.055.086-.129.184-1.219 1.535-3.055.566-3.555-.914-.922-1.184-1.801-2.371-2.789-3.469-.621-.699-1.316-1.523-2.141-2.07-1.086.395-2.434.023-2.859-1.117-3.691-4.613-6.797-9.469-11.078-13.57-2.129-2.023-4.77-5.59-7.637-7.832 2.879 11.336 7.746 23.109 12.328 33.566.828 1.891 2.219 4.285 1.621 6.449-.195.688-.762 1.156-1.219 1.645-1.445 1.48 2.781 4.176 4.074 5.539l.227.27c1.25.773 1.633 2.742.469 3.68 1.707 4.633 3.836 8.996 6.094 13.383.926 1.793 2.324 3.816 1.75 5.938-.977 3.527 5.387 5.008 6.375 8.793.035.152.055.305.078.434.098.152.164.316.238.504 1.574 4.633 6.148 6.688 7.758 10.934.543 1.457.348 2 .031 3.559-.5 2.535 2.867 4.828 4.344 6.43 1.664 1.785 3.273 3.785 1.902 6.297.336-.617 10.539 7.965 10.809 8.195.75.609.883 1.383.652 2.055 1.531 2.613 3.629 4.484 6.137 6.137 1.926 1.23 3.684 2.523 4.793 4.594.465.859.336 1.902-.281 2.598 1.727 1.383 3.617 2.59 5.07 4.297.133.133.23.273.293.426 1.828 1.523 10.809 5.809 10.508 8.813-.641 6.355 10.516 10.969 15.098 13.688 2.227 1.297 5.25 2.809 6.953 4.754 1.672 1.938 3.031 4.441 4.66 6.484 1.621 2.07 3.324 4.32 5.105 6.27-1.727-2.961-2.531-6.43-4.375-9.305-1.687-2.621-3.914-4.645-5.227-7.441-1.652-3.48-4.117-6.637-6.184-9.879l-5.082-7.996c-3.367-5.102-7.062-9.715-10.102-14.516-3.109-4.852-5.75-9.289-8.387-13.59-1.238-2.176-2.738-4.078-4.066-6.047l-3.965-5.672c-2.605-3.633-5.203-6.949-7.582-10.117l-12.633-16.602c-1.793-2.406-3.422-4.668-4.844-6.77-1.445-2.121-2.848-3.992-3.934-5.809l-3-4.918-1.227-2.078c-.379-.652-.664-1.305-.957-1.914-2.324-4.777-3.203-6.879-3.031-6.953.633-.316 3.793 8.379 18.578 27.242 3.586 4.777 8.039 10.078 12.895 16.363l7.734 10.098 4.043 5.68c1.367 1.969 2.887 3.895 4.172 6.094l8.438 13.512c3 4.637 6.684 9.238 10.168 14.449l5.129 8.043 5.41 8.422c.879 1.5 1.664 3.055 2.52 4.613l2.566 4.547a172.02 172.02 0 0 1 5.113 9.824zm5.5 85.984c11.57-2.023 6.57-37.566 5.465-44.879-1.023-6.703.391-18.051-4.172-23.992a1.93 1.93 0 0 1-.445-.055c1.996 22.285 4.582 47.199-.848 68.926zm63.875-198.312c.23-.066.316-.227 0 0zm39.543-41.996c0-.055-.012-.109-.012-.187 0 .055 0 .098-.02.152.02 0 .031.023.031.035zm9.215 195.344c2.191.109 4.32-.176 6.473-.437-4.477-5.23-11.645-8.41-18.078-9.77-.867.023-1.684-.391-2.172-1.457-1.52-3.34-6.16-3.941-9.395-4.484-.262-.031-.492-.109-.695-.207-.414-.141-.805-.391-1.164-.816-2.953-3.566-8.789-3.176-12.875-2.25-.184.031-.348.055-.52.055-.879.359-1.867.227-2.672-.785-2.215-2.762-7.734-2.926-10.844-1.937-.105.047-.215.055-.336.078-.75.512-1.738.621-2.746-.031-4.086-2.645-8.965-2.223-13.57-1.656-.824.098-1.465-.152-1.91-.566-.023-.008-.055-.031-.09-.031-5.223-1.969-11.437-1.195-16.957-1.195-2.508 0-4.965-.383-7.375-1.09-1.129-.336-2.281-.676-3.391-1.109-.566-.23-2.465-.5-2.746-.75 4.613 3.785 10.773 3.73 16.359 5.059l16.219 3.809 13.066 2.773c3.867.805 7.203 1.688 10.07 2.363 11.453 2.883 15.98 2.621 15.98 3.164 0 .195-1.117.336-3.777.391-2.621-.055-6.801-.391-12.637-1.609l-10.09-2.023c-3.816-.598-8.215-1.555-13.102-2.504l-16.34-3.383c-3.172-.727-6.605-1.195-9.648-2.34-3.172-1.195-5.863-3.414-9.285-3.895 1.629 3.328 5.105 3.742 7.996 5.266 3.422 1.797 6.766 4.961 9.668 7.531.598-.371 1.293-.5 1.965-.371.641-.25 1.402-.152 2.152.426 1.91 1.469 3.703 3.055 5.637 4.461 1.227.879 2.488 1.781 3.813 2.5.469.242.926.5 1.422.652.047-.043.055-.055.102-.098.898-1.273 2.855-1.98 4.41-.672 2.477 2.066 5.93 3.414 9.23 3.762.828-.781 2.043-1.172 3.316-.609 2.258.992 5.777 4.125 8.473 3.637.574-.437 1.348-.652 2.25-.492 2.563.512 5.16.785 7.742 1.273.598-.488 1.402-.727 2.383-.488.953.25 1.867.543 2.824.75.781.195 1.629.434 2.453.469.184-.035.316-.035.445-.035.512-1.25 1.891-1.859 3.336-1.652 2.934.414 5.777 1.242 8.723 1.676.238-1.238 1.227-2.102 2.695-2.23 4.484-.457 8.734.652 13.211.883zm46.43-92.418c-9.277-.164-18.719-.207-27.008 4.352-.219.109-.422.262-.629.293-.848.512-1.969-.117-2.738-.117-.184 0-.512-.078-.676-.023-.672.164-1.324.219-1.941.5-1.133.512-2.25 1.035-3.227 1.762-.598.457-1.176.535-1.684.359-.609-.043-1.25-.336-1.695-.988-1.988-2.98-9.703 2.188-11.906 3.449-1.371.781-2.75-.023-3.293-1.34-.391-.934-8.07 2.961-10.047 4.094-.621.824-1.684 1.25-2.816.52-2.879-1.871-6.941 2.309-8.645 4.352-.883 1.035-2.043.859-2.824.207-2.75.023-4.879 2.156-6.77 3.93-.359.586-.957 1.023-1.824 1.031-3.52.133-7.258 1.09-9.301 4.203-.543.859-1.508 1.316-2.52 1.031-4.312-1.184-7.887 2.602-10.766 5.211-.055.035-.109.078-.164.109-.25.438-.672.773-1.293.938-4.965 1.262-7.43 5.984-10.395 9.727-.141.172-.273.305-.426.414-.355.414-.898.719-1.629.719-7.148.031-13.664 7.449-18.531 12.109a20.84 20.84 0 0 0-1.074 1.043l1.246-.391c2.859-.84 5.648-1.406 8.215-2.254 5.277-1.687 10.352-3.297 15.035-5.035l3.496-1.254c1.164-.402 2.25-.977 3.348-1.445l6.418-2.875c4.195-1.816 8.051-3.785 11.777-5.547 7.43-3.48 13.852-7.008 19.586-10.062l8.094-4.277c2.52-1.305 4.898-2.516 7.148-3.516 2.227-1.078 4.281-2.043 6.227-2.797 1.953-.781 3.715-1.578 5.355-2.141l4.473-1.48c1.328-.445 2.531-.805 3.598-1.012 4.246-.969 6.082-1.273 6.117-1.066 0 .207-1.762.859-5.824 2.121-1.02.281-2.16.73-3.453 1.23l-4.348 1.676c-1.586.629-3.289 1.477-5.18 2.305-1.914.805-3.91 1.828-6.086 2.938-2.191 1.066-4.527 2.309-7.016 3.68-2.488 1.324-5.148 2.828-7.996 4.406-5.691 3.121-12.09 6.766-19.555 10.348-3.727 1.793-7.605 3.797-11.809 5.656l-6.465 2.926c-1.098.492-2.184 1.066-3.367 1.48l-3.551 1.273c-3.891 1.426-7.715 2-11.699 3.004-3.324.816-7.801 1.531-10.082 4.383 2.172-.719 4.41-1.207 6.605-1.883 2.691-.816 5.258-1.227 8.039-1.512 1.129-.109 2.289-.129 3.379-.434 1.043-.273 1.434-.969 2.234-1.371 1.859-.895 4.402-.676 6.445-.609 4.375.063 9.145.598 13.078-1.785.176-.109.359-.184.531-.238.141-.055.316-.121.5-.145 2.359-.402 4.402-.5 6.887-1.207-.031-.922.438-1.781 1.445-2.066 3.586-1.043 7.313-1.457 10.906-2.512.73-.207 1.328-.078 1.805.262 1.922.074 4.148.379 6.074-.09-.859-1.371-.285-3.621 1.781-3.523 2.801.109 5.355-1.164 7.941-2.199 0-.934.477-1.793 1.586-2.098 2.641-.699 5.16-1.566 7.594-2.734-.035-.902.453-1.75 1.617-1.945 2.543-.457 5.801-1.035 8.027-2.668-.195-1.031.219-2.195 1.477-2.641 2.316-.828 4.586-1.785 6.813-2.809-.02-.793.336-1.555 1.086-1.969 1.305-.742 2.695-1.242 4.074-1.816.207-1.035 1.184-1.895 2.227-1.914.078-.055.152-.133.25-.176.816-.469 5.836-3.371 5.629-3.918-.207-.52-.109-1.402.043-1.926.469-1.73 3.313-2.75 4.617-3.492 5.93-3.316 12.133-6.43 17.426-10.738zm5.539-4.437c2.063 0 2.617 2.262 1.762 3.578a2.64 2.64 0 0 1-.492.73c-6.211 6.43-14.273 10.422-21.965 14.754-.793.434-1.555.879-2.324 1.324v.133c0 .977-.707 1.762-1.195 2.535-1.422 2.207-4.062 3.828-6.367 5.102-.105.609-.445 1.176-1.031 1.492-1.324.672-2.715 1.184-4.074 1.762 0 .793-.355 1.621-1.074 1.992-2.445 1.25-4.953 2.328-7.516 3.297-.035.457-.242.922-.598 1.348-2.176 2.438-5.695 3.645-8.965 4.352-.195.414-.457.773-.867.992-2.75 1.531-5.629 2.684-8.625 3.578-.09.902-.578 1.652-1.566 1.945-2.66.828-5.137 2.125-7.789 2.723.293 1-.207 1.992-1.031 2.535-3.141 2.043-7.117 1.445-10.648 1.402a2.64 2.64 0 0 1-.855-.184c-2.457.629-4.965 1.066-7.43 1.609a2.13 2.13 0 0 1-1.035 1.391c-3.129 1.777-6.453 1.949-9.906 2.504-5.984 3.625-12.48 1.469-18.934 2.406-.23.215-.469.414-.75.543-.238.164-.543.316-.902.391-7.203 1.559-17.012-.598-23.258 4.07 3.289.578 7.246.227 10.59.164 2.336-.035 4.684-.395 7.02-.469 4.27-.129 8.406-.543 12.633-.762 4.063-.23 8.258.129 11.906 2.102 4.434-1.418 11.484-.926 15.23 2.414 5.641-1.055 12.668-.848 16.699 3.578 4.301.762 9.406 2.133 11.883 6.039 8.941 2.004 18.805 7.313 23.203 15.668.805 1.578.078 3.059-1.086 3.766-.445.434-1.043.727-1.812.793-4.293.219-8.16 1.25-12.484.707-2.824-.336-5.613-.773-8.418-.828.012 1.535-1.055 2.363-2.293 2.48-.293.09-.605.145-.988.133-3.496-.152-6.863-1.055-10.277-1.707-1.977 2.121-6.246 1.348-9.48.563-.676.469-1.555.609-2.336.406-2.762-.676-5.586-.992-8.379-1.461a.33.33 0 0 1-.129.055c-3.758 1.559-7.57-.879-11.004-2.805-.371.152-.762.258-1.121.258-4.344.035-8.852-1.402-12.555-3.785-2.359 1.633-5.75.207-8.105-1.273-1.848-1.141-3.598-2.437-5.289-3.785-.793-.621-1.555-1.262-2.328-1.895-.043-.02-.098-.074-.172-.129-.219.164-.445.359-.707.477-.848.48-1.836.492-2.641.102-.379-.133-.727-.359-1.062-.699-2.586-2.566-5.727-4.602-8.52-6.953-2.605-2.176-5.223-4.254-8.047-6.09.695 2.176 1.105 4.504 1.445 6.844 1.172 7.898 1.977 16.121 2.617 24.066.77 9.648 4.086 41.727-12.895 40.137-.883-.098-1.5-.59-1.836-1.219-.914-.391-1.609-1.316-1.25-2.566 5.777-21 3.367-45.719 1.359-67.711-3.086 1.949-5.945 4.18-8.734 6.539s-5.934 4.387-8.52 6.953c-.336.34-.695.566-1.062.699-.828.391-1.816.379-2.664-.102-.238-.117-.465-.312-.695-.477-.215.184-.422.359-.5.414a73.26 73.26 0 0 1-1.996 1.609c-1.707 1.328-3.434 2.676-5.281 3.785-2.41 1.449-5.77 2.93-8.105 1.273-3.723 2.383-8.211 3.82-12.555 3.785-.359 0-.75-.105-1.133-.258-3.441 1.926-7.234 4.363-11.016 2.805-.043-.012-.074-.031-.117-.055-2.805.469-5.605.785-8.367 1.461-.781.203-1.684.063-2.355-.406-3.215.785-7.484 1.559-9.473-.562-3.422.652-6.77 1.555-10.289 1.707-.359.012-.695-.043-.977-.133-1.227-.117-2.305-.945-2.281-2.457-3.391.109-6.68.805-10.102.98-3.707.16-7.129-.699-10.801-.883-.793-.066-1.367-.359-1.812-.793-1.164-.707-1.914-2.187-1.086-3.766 4.398-8.355 14.25-13.664 23.203-15.668 2.453-3.906 7.563-5.277 11.883-6.039 4.02-4.426 11.051-4.633 16.699-3.578 3.738-3.34 10.777-3.832 15.23-2.414 4.629-2.504 9.961-2.43 15.102-1.82.195-.141.41-.27.66-.359 4.617-1.727 9.711-1.555 14.656-1.422-.023-.078-.023-.152-.043-.23-3.859-.359-7.727-.445-11.504-1.273-.664-.152-1.09-.488-1.348-.934-6.465-.937-13.09 1.195-19.055-2.363-3.5-.598-6.91-.75-10.07-2.547a2.17 2.17 0 0 1-1.043-1.391c-2.477-.543-4.965-.98-7.422-1.609a2.76 2.76 0 0 1-.855.184c-3.543.043-7.508.641-10.648-1.402-.824-.543-1.336-1.535-1.031-2.535-2.66-.598-5.148-1.895-7.789-2.723-1.012-.293-1.477-1.043-1.562-1.945-3-.895-5.902-2.047-8.648-3.578-.402-.219-.664-.578-.848-.992-3.27-.707-6.789-1.914-8.961-4.352a2.41 2.41 0 0 1-.621-1.348c-2.543-.969-5.074-2.047-7.508-3.297-.703-.371-1.086-1.199-1.062-1.992-1.371-.578-2.77-1.09-4.074-1.762-.609-.316-.945-.895-1.055-1.516-2.922-1.664-5.387-3.598-7.246-6.484-.727-1.129-.652-1.469.176-.988-1.555-.926-3.109-1.785-4.684-2.645-7.117-3.926-14.395-7.824-20.098-13.707-.207-.242-.379-.492-.465-.73-.883-1.316-.305-3.578 1.758-3.578 11.734-.035 23.434-1.035 34.059 4.461 2.539-1.047 6.398.598 8.82 2.098 4.117-3.09 10.438.152 14.871 2.676 3.781-2.652 10.949 1.211 14.633 3.473 4.117-1.402 8.691 1.59 11.645 4.668.109-.023.23-.035.34-.035 4.063-.195 7.223 2.449 10.027 5.082 4.258.34 8.254 1.773 11.004 4.996 5.398-.652 9.734 3.133 13.633 6.656.012.035.055.078.066.109 5.453 1.676 8.297 6.246 11.664 10.523 9.922.629 16.523 9.562 23.715 16.699-2.812-4.352-6.082-8.605-9.449-11.566-5.77-5.102-12.84-8.215-19.176-12.48-3.574-2.402-7.125-5.492-8.395-9.684-1.066-3.457-6.27-5.371-9.094-8.07-.207-.187-.336-.395-.457-.578-2.074-2.273-4.879-3.645-6.887-5.984-.824-.957-.891-2.547.184-3.34-1.355-1.176-3.117-1.957-4.508-3.121-2.02-1.687-3.781-3.754-5.074-6.02-.258-.465-.348-.922-.293-1.336-3.781-3.035-9.242-5.941-11.363-10.348-.367-.762-.41-1.512 0-2.262.359-.676-3.781-4.559-4.27-5.18-1.148-1.48-1.738-2.645-2.387-4.363-.848-2.254 1.531-2.621-1.012-5.168-2.922-2.895-5.129-5.746-6.477-9.684-.043-.133-.062-.25-.098-.391-.074-.164-.16-.34-.207-.547-1.094-4.211-8.754-3.98-7.113-9.934.848-3.066-2.129-6.613-3.531-9.551-1.652-3.492-3.105-6.996-4.324-10.652-.129-.391-.109-.805 0-1.176-2.02-2.09-4.453-4.785-4.453-7.562 0-3.523 1.477-3.242-.281-7.363-5.02-11.73-10.484-25.004-13.047-37.484-.055-.227-.055-.434-.055-.621-.035-1.348 1.086-2.828 2.801-2.457 5.098 1.066 8.715 6.484 12.266 9.879 4.563 4.387 7.918 9.238 11.809 14.156a1.87 1.87 0 0 1 .262.012c1.16.281 2.172.922 3.086 1.672 1.691 1.383 3.039 3.113 4.344 4.832 3.758-.957 8.234 4.594 10.246 8.453 4.516.547 11.297 11.023 13.992 16.18 1.801-.359 3.855.773 5.203 2.469 1.605 2.035 3.031 4.332 4.039 6.77 1.859.273 3.855 1.914 4.996 3.266 1.012 1.195 2.195 2.512 2.848 3.957.934 2.004 1.531 4.102 2.25 6.18.293-.02.617-.031.965.023 1.293.164 2.359 1.859 2.945 2.871 1.609 2.785 2.543 5.941 3.031 9.117a4.23 4.23 0 0 1 1.305.078c1.496.328 2.703 1.938 3.387 3.188 1.316 2.438 2.867 4.82 3.543 7.484 4.629-.379 6.215 7.105 7.113 11.242 1.512.402 2.73 1.074 3.324 2.816.902 2.566 1.035 5.32 1.273 8.02 1.574-.316 3.105.043 4.051 1.871 1.621 3.188 1.902 7.051 2.227 10.629 3.652 1.578 3.664 8.922 3.586 12.969 3.391 1.156 4.867 5.668 5.824 9.074.77 2.82 1.031 7.563 3.313 9.672.281-1.566-.207-3.449-.238-5.078-.066-2.645.41-5.168-.285-7.781-.641-2.414-2.074-4.395-2.996-6.703-.629-1.598-1.293-3.176-1.738-4.84-.305-1.066-.078-4.516-.598-5.211-3.629-4.723-9.137-16.191-5.172-21.793-2.562-3.699-4.484-7.594-4.484-12.242 0-.152.074-.262.086-.414-3.293-3.906-2.629-10.051-1.566-14.719a2.2 2.2 0 0 1 .391-.84c.098-.379.34-.727.75-.988-.152-2.578-1.855-5.051-2.355-7.508-.621-3.016-.457-6.105-.414-9.16 0-.152.055-.242.078-.383-.023-.934.445-1.848 1.398-2.164-.051-.262-.105-.543-.184-.805-.152-.535-.359-1.078-.434-1.621-.445-2.699-.414-5.375-.391-8.094v-.055c-.23-1.109.238-2.285 1.422-2.492.055-2.285-.824-4.594-.922-6.898-.133-2.754.25-5.254 1.215-7.758-1.141-2.121-1.098-4.996-.988-7.234.098-1.523.207-3.047.641-4.504.426-1.48 1.664-2.625 2.465-3.918-.312-3.406-.488-12.949 3.238-14.625.359-3.914.621-7.18 3.055-10.824.152-.23.313-.402.488-.535-.281-3.969-.281-7.961 2.172-11.336.262-.379.609-.641.988-.848-.129-3.449.371-6.57.957-10.141 1.738-11.707 2.922-25.133 7.332-36.121.457-1.133 1.5-1.566 2.465-1.492.98-.074 2.031.359 2.5 1.492 4.41 10.988 5.594 24.414 7.313 36.09.586 3.602 1.105 6.723.953 10.172.391.207.75.469 1.012.848 2.434 3.375 2.457 7.367 2.152 11.336a1.86 1.86 0 0 1 .508.535c2.434 3.645 2.695 6.91 3.055 10.824 3.738 1.676 3.551 11.273 3.215 14.645.934 1.516 2.324 2.785 2.672 4.594.262 1.238.391 2.523.434 3.809.078 2.285.164 5.113-.977 7.211.977 2.473 1.52 5.113 1.219 7.781-.242 2.23-1.012 4.613-.914 6.898 1.164.207 1.629 1.383 1.402 2.492 0 .02.02.031.02.055.023 2.664.219 5.449-.391 8.094-.172.695-.402 1.391-.562 2.098-.023.098-.047.207-.055.328.965.316 1.434 1.25 1.398 2.188.023.129.078.238.078.391.02 2.961.414 6.246-.414 9.129-.641 2.219-2.074 4.789-2.324 7.223 1.316.469 1.707 1.57 1.164 2.418 1.031 4.625 1.594 10.586-1.633 14.414.023.152.078.262.078.414.023 4.648-1.914 8.543-4.465 12.242 3.965 5.582-1.543 17.047-5.172 21.793.281 3.602-.52 6.191-2.355 9.434-1.762 3.109-2.336 6.277-2.141 9.813.227 3.852-.164 8.324-.684 12.176-.23 1.621-.285 3.219-.285 4.906.023-2.359.934-5.059 1.328-7.387l1.477-8.195c.715-3.449 2.148-8.617 5.918-9.879-.062-4.059-.043-11.414 3.609-12.969.172-1.633.359-3.273.617-4.883.305-1.883.523-4.125 1.609-5.746 1.129-1.719 2.531-2.133 4.031-1.871.215-2.906.293-5.984 1.508-8.562.664-1.426 1.781-1.969 3.109-2.285.898-4.145 2.484-11.59 7.094-11.23.672-2.848 2.281-5.625 3.832-7.953.902-1.328 1.934-2.457 3.566-2.805.293-.078.574-.078.836-.043.488-3.32 1.445-6.691 3.281-9.445.672-1.012 1.586-2.34 2.91-2.535.281-.031.543-.012.813 0 1.383-3.797 2.469-7.379 5.402-10.512 1.141-1.219 2.941-2.598 4.625-2.871.988-2.414 2.414-4.797 4.063-6.77 1.359-1.641 3.402-2.805 5.207-2.469 2.691-5.168 9.449-15.633 13.992-16.18 2.008-3.84 6.473-9.41 10.219-8.453 1.328-1.719 2.676-3.449 4.359-4.832.922-.75 2.117-1.555 3.355-1.684 4.246-5.344 8.008-10.469 12.973-15.266 3.27-3.145 6.375-7.77 11.078-8.77 1.738-.371 2.836 1.109 2.805 2.457.02.188 0 .395-.035.621-1.543 7.477-4.57 14.223-7.297 21.305-2.043 5.309-3.336 11.043-5.75 16.18-1.934 4.066-.281 3.859-.281 7.363 0 2.777-2.434 5.473-4.453 7.563.109.371.129.785 0 1.176-1.445 4.332-3.227 8.508-5.301 12.578-.414.805-3.5 5.777-3.141 6.43.316.598.617 1.086.652 1.797.336 5.668-6.062 5.023-7.18 9.332-.055.207-.145.383-.23.547-.02.141-.031.258-.098.391-.812 2.457-1.824 4.602-3.531 6.625-.953 1.145-4.582 3.875-4.246 5.473.684 3.449-.848 6.051-3.238 8.586-1.086 1.141-3.355 2.523-2.891 4.23.305 1.09-.367 2.047-.812 2.961-1.75 3.621-7.527 6.582-10.766 9.129a2.31 2.31 0 0 1-.305 1.336c-1.305 2.266-3.062 4.332-5.062 6.02-1.414 1.164-3.152 1.945-4.52 3.121 1.074.793.988 2.383.195 3.34-2.031 2.34-4.832 3.711-6.91 5.984-.098.184-.25.391-.434.578-2.824 2.699-8.027 4.613-9.094 8.07-1.27 4.191-4.832 7.281-8.406 9.684-6.137 4.113-14.035 7.043-19.176 12.48-3.105 3.297-6.203 7.082-8.93 11.055 6.996-7.039 13.516-15.57 23.207-16.187 3.367-4.277 6.211-8.848 11.645-10.523.031-.031.055-.074.086-.109 3.902-3.523 8.234-7.309 13.613-6.656 2.746-3.223 6.766-4.656 11.004-4.996 2.824-2.633 5.965-5.277 10.047-5.082a1.38 1.38 0 0 1 .316.035c2.977-3.078 7.527-6.07 11.645-4.668 3.707-2.262 10.875-6.125 14.656-3.473 4.434-2.523 10.742-5.766 14.852-2.676 2.434-1.5 6.289-3.145 8.82-2.098 10.637-5.496 22.348-4.496 34.078-4.461zm-132.348-9.336c.203 0-.34 1.688-.402 2.078-.426 2.633-.555 5.285-.934 7.91v.055c-.09.41-.219.695-.395.922-.598.906-1.715 1.406-2.898.676a16.94 16.94 0 0 0-1.219-.695c-.227.586-.434 1.738-.508 2.152-.48 2.438-.762 4.918-1.023 7.391-.043.313-.195.617-.324.859-.066 1.031-.316 1.945-2.184 1.859 0 .426-.262.883-.379 1.348-.262 1.09-.297 2.176-.371 3.297-.129 1.863-.129 3.734-.129 5.594 0 .859-.414 1.438-.957 1.793-.512.578-1.25.98-2.184.84-2.098-.273-4.258 11.98-4.598 13.688-.684 3.395-1.551 6.746-2.52 10.086a63.03 63.03 0 0 1 2.316-4.504l2.574-4.547 2.496-4.613c1.805-2.941 3.672-5.734 5.434-8.422l5.129-8.043c3.465-5.211 7.168-9.812 10.156-14.449 2.965-4.559 5.77-9.234 8.441-13.512 1.281-2.199 2.813-4.125 4.18-6.094l4.043-5.68c2.652-3.633 5.313-6.93 7.723-10.098l12.895-16.363c14.785-18.863 17.949-27.559 18.59-27.242.172.074-.707 2.176-3.031 6.953-.305.609-.586 1.262-.957 1.914l-1.25 2.078-2.977 4.918c-1.105 1.816-2.508 3.688-3.93 5.809-1.445 2.102-3.055 4.363-4.848 6.77-3.496 4.875-7.863 10.27-12.656 16.602L251 189.531l-3.941 5.672c-1.336 1.969-2.824 3.895-4.086 6.047l-8.363 13.59c-3.066 4.801-6.738 9.414-10.125 14.516l-5.074 7.996-5.355 8.367c-1.098 1.797-1.902 3.766-3.195 5.43-1.215 1.609-2.586 3.133-3.594 4.895-1.48 2.516-3.316 5.113-4.02 7.945 1.246-1.461 2.105-3.242 3.422-4.668 1.391-1.492 3.086-2.656 4.508-4.125 1.781-1.84 3.313-3.918 5.125-5.691 1.816-1.785 4.117-3.102 6.336-4.371 5.965-3.43 11.09-6.41 12.895-12.949.891-3.242 8.105-6.148 10.395-8.215.098-.152.195-.293.305-.426 1.477-1.707 3.348-2.914 5.074-4.297-.598-.695-.727-1.738-.262-2.598 1.086-2.047 2.859-3.375 4.793-4.594 2.508-1.621 4.605-3.547 6.137-6.137-.227-.672-.098-1.445.629-2.055 1.086-.926 10.766-7.953 10.605-8.738-.543-2.457.238-4.016 2.129-5.754 2.246-2.078 4.758-4.496 4.02-7.855-.187-.852.055-1.98.586-2.676 2.641-3.57 6.027-5.984 7.516-10.391.066-.187.152-.352.25-.504.023-.129.035-.281.078-.434.52-2.023 1.793-3.32 3.531-4.437.586-.383 4.008-2.309 3.43-3.223-.355-.586-.605-1.023-.66-1.73-.207-2.59 1.703-5.09 2.824-7.289 1.91-3.754 3.648-7.496 5.094-11.434-1.16-.926-.805-2.906.469-3.68.074-.086.129-.184.227-.27 1.891-1.973 5.801-3.734 3.422-6.191-.391-.437-.672-1.012-.652-1.59.109-2.797 1.379-4.949 2.469-7.484 4.223-9.879 8.742-20.977 11.492-31.664-1.031 1.004-1.965 2.145-2.957 3.113l-5.746 5.57c-3.801 3.809-6.605 8.27-9.937 12.449-.437 1.141-1.781 1.512-2.871 1.117-.836.547-1.531 1.371-2.148 2.07-.969 1.121-1.848 2.285-2.77 3.469-.5 1.48-2.336 2.449-3.555.914-.098-.109-.129-.172-.152-.207a5.25 5.25 0 0 0-.543.262c-.891.598-1.66 1.402-2.355 2.23-1.121 1.348-2.391 3.113-2.859 4.691-.098.258-.207.488-.355.684-.621 1.34-2.48 2.035-3.543.871-.141.109-.293.219-.426.348-.434.457-.844.902-1.238 1.395-.898 1.109-1.738 2.281-2.539 3.469-2.176 3.199-5.043 5.973-6.105 9.781-.187.707-.621 1.164-1.121 1.383-.945.816-2.398.926-3.184-.371-.695.652-1.27 1.395-1.781 2.199-1.117 1.762-2.246 3.73-2.801 5.535a2.07 2.07 0 0 1-.328.664c-.598 1.328-2.367 2.023-3.453.992-.055.043-.098.055-.152.129-.391.359-.77.719-1.109 1.09-.648.75-1.293 1.523-1.836 2.34-1.66 2.512-2.129 5.613-3.246 8.387-.359.84-1.012 1.297-1.75 1.438-.52.379-1.215.531-1.848.414-.055.117-.129.207-.184.305-.27.488-.543.988-.75 1.488-1.008 2.371-1.551 4.996-1.758 7.539.355 1.523-1.445 3.496-3.414 2.645-.367-.152-.672-.359-1.008-.566-.012.023-.012.047-.055.055-.523.688-.859 1.523-1.25 2.277-1.129 2.078-2.586 3.969-2.562 6.449 0 1.176-.75 1.852-1.629 2.078-.598.391-1.414.5-2.23.012-.453-.262-.41-.391-.695 0a10.19 10.19 0 0 0-1.238 2.742c-.562 1.859-.879 3.73-1.289 5.602.129 1.004-.34 1.973-1.59 2.199-.434.086-1.387.074-1.789.316zM210.188 95.41c-1.328.238-2.379-1.035-2.512-2.277-.391-3.609-.336-6.594-2.051-9.727-1.031-.098-1.957-.781-1.836-2.141.258-3.035.652-6.18-.469-8.977-1.652.336-3.031-.859-2.738-2.711.73-4.352-.098-7.855-.77-12.078-.012-.105-.012-.184-.012-.281-1.367-9.5-2.508-20.031-5.324-29.441-2.801 9.41-3.922 19.941-5.289 29.441 0 .098 0 .176-.023.281-.672 4.223-1.496 7.727-.781 12.078.316 1.852-1.086 3.047-2.715 2.711-1.141 2.797-.727 5.941-.469 8.977.109 1.359-.801 2.043-1.836 2.141-1.715 3.133-1.66 6.117-2.074 9.727-.109 1.145-1.031 2.328-2.227 2.285a3.63 3.63 0 0 1-.207.395 11.28 11.28 0 0 0-.336 1.598c-.207 1.328-.305 2.676-.316 4.016-.043 1.555-.062 3.121.133 4.68.086.77-.176 1.316-.598 1.672-1.109 1.949-2.402 3.18-2.531 5.563-.078 1.371-.578 4.766.445 5.852.738.785.75 1.719.402 2.473 0 .336-.066.672-.207 1.031-2.359 5.418 1.152 10.762-.402 16.18-.141.523-.555 1.023-1.066 1.348-.051 1.84-.105 3.734.359 5.453.305 1.086.641 2.176.75 3.297.164 1.633-.391 3.004-1.531 3.754-.023 3.297.074 6.277 1.227 9.496 1.012 2.742 1.781 5.027 1.348 7.934-.086.598-.543.914-1.098 1.066-.805 3.566-1.684 8.734 1.457 11.379 1.055.883.879 2.047.207 2.828.098 4.094 2.172 7.391 4.508 10.598.563.762.52 1.516.172 2.102-.074.598-.355 1.176-.977 1.609-1.555 1.098.109 6.496.695 7.91 1.27 3.121 2.227 6.387 4.453 9.008.133.176.23.34.316.512.359.359.566.859.488 1.559-.391 3.969 1.988 6.375 2.879 9.91 1.293 5.113 1.129 11.336 1.074 16.613-.043 3.484-.02 6.93.242 10.414.203 2.742.105 5.59 1.887 7.855.055-5.691-.801-11.578-.746-17.398l.098-21.379.074-36.949.609-52.543.695-28.059c.207-5.789.41-8.281.617-8.281.188.023.359 2.516.469 8.324l.207 28.039v52.52l.074 36.949-.043 21.402c0 4.645-.707 10.051 1.465 14.328 3.324-6.039 2.469-10.574 1.816-17.191-.391-3.863-1.402-7.465-.543-11.25 1.195-5.309 5.258-6.66 4.605-13.305-.074-.699.129-1.199.488-1.559.066-.172.184-.336.316-.512 2.246-2.652 3.684-6.297 4.66-9.605.414-1.359 1.977-6.246.465-7.312-.594-.434-.898-1.012-.953-1.609-.359-.586-.391-1.34.152-2.102 2.355-3.207 4.43-6.504 4.508-10.598-.676-.781-.828-1.945.207-2.828 3.137-2.645 2.281-7.812 1.453-11.379-.543-.152-1.008-.469-1.086-1.066-.422-2.906.336-4.984 1.336-7.727 1.195-3.254 1.25-6.352 1.23-9.727-1.273-.836-1.773-2.492-1.457-4.309.184-1.055.598-2.023.77-3.059.273-1.707.273-3.402.242-5.133-.492-.316-.883-.805-1.035-1.328-1.562-5.418 1.969-10.762-.391-16.18-.152-.359-.215-.695-.207-1.031-.367-.754-.348-1.687.391-2.473 1.012-1.066.547-4.504.457-5.852-.195-2.395-1.422-3.602-2.531-5.562-.434-.355-.695-.902-.598-1.672.207-1.852.207-3.766.098-5.605-.074-1.305-.129-2.645-.434-3.918-.293-1.172-.543-1.066-.129-1.172"/></svg>