<svg xmlns="http://www.w3.org/2000/svg" width="500" zoomAndPan="magnify" viewBox="0 0 375 375" height="500" preserveAspectRatio="xMidYMid meet" xmlns:v="https://vecta.io/nano"><defs><clipPath id="A"><path d="M29 19h331.238v335H29zm0 0" clip-rule="nonzero"/></clipPath></defs><g clip-path="url(#A)"><path fill="#00bf63" d="M92.617 108.844v-.152a.44.44 0 0 1-.035.184c.023-.008.035-.031.035-.031zm78.582 40.504c0-.023-.012-.043-.012-.043v.043zm14.309 127.391c-3.09-.543-6.926-.062-10.09-.062-3.785 0-7.668-.328-11.387.465-1.672.352-3.152 1.156-4.738 1.547-1.762.457-3.523.512-5.273 1.164-.035 0-.055 0-.09.02-.445.414-1.062.641-1.914.543-4.609-.543-9.48-.988-13.559 1.652-1.012.652-2.012.547-2.75.035-.121-.023-.227-.035-.359-.078-3.109-.988-8.633-.824-10.852 1.938-.781 1.012-1.793 1.141-2.652.781a2.91 2.91 0 0 1-.543-.055c-4.09-.922-9.918-1.316-12.875 2.25-.348.426-.762.676-1.176.816a2.28 2.28 0 0 1-.672.207c-3.242.543-7.895 1.141-9.406 4.48-.488 1.066-1.328 1.48-2.176 1.457-6.445 1.359-13.625 4.523-18.07 9.742 2.695.328 5.348.641 8.145.281 3.859-.465 7.645-1.098 11.535-.703 1.457.129 2.438.988 2.699 2.227 2.922-.434 5.793-1.262 8.73-1.676 1.793-.258 3.523.719 3.555 2.719-.012-1.629-.805-.77 1.086-1.141.523-.109 1.078-.227 1.602-.359l2.805-.75c.988-.238 1.793 0 2.402.488 2.566-.488 5.188-.758 7.754-1.27.902-.164 1.664.055 2.25.488 2.695.488 6.219-2.641 8.48-3.633 1.273-.562 2.488-.172 3.293.609 3.309-.348 6.785-1.695 9.246-3.762 1.563-1.305 3.531-.598 4.414.676.043.02.074.055.098.074.5-.164.965-.371 1.422-.629a36.68 36.68 0 0 0 3.816-2.504c1.938-1.41 3.754-2.988 5.645-4.457.762-.574 1.512-.672 2.176-.422 2.164-.395 2.055 1.977 4.469 1.098 1.391-.523 2.586-1.687 3.73-2.602 1.477-1.184 2.738-2.531 4.043-3.891 1.859-1.914 4.121-3.242 6.09-4.992-2.902.535-5.633 1.633-8.461 2.23-.117.02-.227.055-.324.074l-8.863 1.895c-5.969 1.367-11.461 2.359-16.352 3.379l-13.113 2.504-10.113 2.02c-5.84 1.219-10.004 1.555-12.645 1.609-2.645-.055-3.785-.195-3.785-.402 0-.531 4.535-.27 16.004-3.152 2.883-.672 6.199-1.555 10.094-2.359 3.914-.727 8.188-1.762 13.059-2.773l16.234-3.523c2.793-.652 5.531-1.422 8.262-2.129 3.055-.805 6.145-.848 9.102-2.145zm-4.512-7.078c2.141.512 5.023 2.883 7.152 2.121-2.02-1.348-4.25-2.48-6.328-3.707-1.707-1.031-3.238-2.176-4.883-3.285-2.477-1.641-4.738-3.348-7.176-5.086-2.5-1.816-5.383-3.242-8.523-3.266-.73 0-1.273-.301-1.633-.715-.152-.109-.305-.238-.434-.414-2.957-3.742-5.426-8.461-10.395-9.723-.641-.16-1.043-.5-1.316-.934a.93.93 0 0 0-.141-.109c-2.895-2.609-6.469-6.395-10.777-5.207-1.008.281-1.988-.176-2.543-1.035-2.023-3.109-5.773-4.066-9.297-4.195a2.08 2.08 0 0 1-1.816-1.031c-1.914-1.773-4.023-3.906-6.773-3.926-.793.652-1.957.824-2.84-.207-1.715-2.047-5.762-6.219-8.664-4.352-1.133.73-2.195.305-2.793-.52-2.004-1.133-9.691-5.023-10.059-4.09-.566 1.316-1.937 2.121-3.316 1.336-2.199-1.258-9.906-6.426-11.895-3.445a2.23 2.23 0 0 1-1.719.988c-.512.176-1.09.098-1.676-.355-1.012-.754-2.207-1.383-3.391-1.84-.687-.262-1.383-.523-2.109-.652-.176-.031-.285-.031-.359-.031-.773.781-1.871.762-2.719.262a2.77 2.77 0 0 1-.633-.23c-8.316-4.555-17.746-4.48-27.031-4.285 5.297 4.285 11.496 7.418 17.43 10.746 1.316.738 4.145 1.758 4.633 3.488.152.523.238 1.402.043 1.926-.207.543 4.809 3.445 5.633 3.914.098.043.152.117.25.172 1.043.023 2.012.883 2.23 1.914 1.359.578 2.762 1.078 4.078 1.816.727.414 1.086 1.176 1.086 1.969 2.207 1.023 4.48 1.98 6.797 2.805 1.262.445 1.684 1.609 1.5 2.645 2.23 1.629 5.492 2.207 8.035 2.664 1.164.195 1.652 1.043 1.609 1.945 2.438 1.164 4.969 2.031 7.59 2.73 1.121.301 1.586 1.16 1.586 2.063 2.59 1.066 5.156 2.34 7.973 2.23 2.055-.098 2.641 2.152 1.773 3.5 1.91.492 4.164.188 6.086.109.469-.336 1.09-.469 1.805-.262 3.59 1.055 7.34 1.469 10.941 2.512 1.043.305 1.641 1.219 1.641 2.176 2.066.598 4.762.707 6.969 1.098.492.09.848.285 1.09.535 5.543 3.121 12.645.781 18.699 1.965.48.09.992.492 1.285.938.141.164 4.164 1.176 4.785 1.434 1.684.742 3.523 1.035 5.238 1.652 2.34.828 4.766 1.297 7.199 1.742 2.383.457 4.816.902 7.188 1.031-3.816-1.988-8.012-3.078-12.187-3.914-4.918-.988-9.875-3.031-14.539-4.793l-3.566-1.273c-1.176-.414-2.262-.988-3.383-1.48l-6.445-2.922c-4.219-1.859-8.09-3.863-11.82-5.656-7.469-3.578-13.898-7.219-19.594-10.34l-8.004-4.402c-2.488-1.371-4.816-2.613-7.004-3.676-2.172-1.109-4.195-2.133-6.086-2.937-1.895-.824-3.602-1.676-5.187-2.305l-4.352-1.676c-1.293-.5-2.445-.945-3.477-1.227-4.113-1.273-5.871-1.937-5.809-2.145.035-.184 1.871.121 6.121 1.09 1.066.207 2.254.563 3.578 1.012l4.492 1.477c1.652.566 3.391 1.359 5.348 2.145 1.957.75 4.023 1.715 6.254 2.793 2.25 1 4.609 2.207 7.133 3.512 2.566 1.293 5.25 2.738 8.113 4.273 5.75 3.055 12.156 6.578 19.613 10.059 3.707 1.762 7.59 3.73 11.789 5.543l6.426 2.871c1.098.469 2.184 1.047 3.324 1.449l3.523 1.25c4.688 1.738 9.742 3.348 15.051 5.031a124.04 124.04 0 0 0 9.602 2.719zm6.676-6.555c.652 1.336 1.531 2.457 2.281 3.707-.152-3.793-1.707-7.316-2.098-11.047-.25-2.273-1.012-4.305-2-6.352-1.543-3.129-3.414-6.055-5.023-9.121-.566-1.109-1.426-6.48-3.078-6.262-.934.141-1.684-.262-2.184-.84a2.02 2.02 0 0 1-.98-1.793c.023-2.023.043-4.066-.152-6.09-.109-1.086-.215-2.176-.555-3.23-.055-.215-.172-.695-.336-.91-1.336.086-2.023-.828-2.121-1.859a2.46 2.46 0 0 1-.262-.859c-.258-2.469-.465-4.961-.988-7.383-.074-.34-.281-1.559-.512-2.156-.074.047-.164.078-.281.133-.316.184-.621.379-.914.566-1.184.727-2.305.227-2.902-.676-.195-.227-.316-.512-.383-.883-.008-.051-.031-.074-.031-.098-.414-2.902-.434-5.879-1.086-8.742-.078-.336-.133-.855-.305-1.238l-1.719-.316c-1.273-.227-1.73-1.195-1.598-2.195-.426-1.871-.707-3.762-1.285-5.598-.305-.957-.641-1.926-1.262-2.742-.293-.391-.207-.262-.672 0-.84.488-1.633.379-2.25-.012-.859-.227-1.609-.902-1.609-2.074 0-2.492-1.48-4.328-2.566-6.449-.359-.707-.695-1.687-1.273-2.273-.023-.012-.023-.031-.031-.055-.043.043-.078.078-.152.121a3.34 3.34 0 0 1-.871.445c-1.98.848-3.762-1.121-3.402-2.641-.207-2.59-.73-5.395-1.871-7.754-.25-.523-.523-1.066-.828-1.578-.641.121-1.324-.031-1.859-.414-.727-.141-1.402-.598-1.738-1.434-1.176-2.902-1.641-6.164-3.5-8.73-.598-.848-1.242-1.652-1.969-2.359-.262-.285-.566-.609-.883-.848-1.086 1.031-2.879.336-3.469-.992a2.74 2.74 0 0 1-.336-.66c-.555-1.797-1.641-3.797-2.781-5.535-.512-.793-1.09-1.547-1.785-2.176-.781 1.293-2.25 1.195-3.207.414-.5-.25-.914-.664-1.121-1.348-1.043-3.809-3.914-6.527-6.109-9.711-.805-1.176-1.609-2.207-2.523-3.297-.523-.617-1.055-1.422-1.652-1.422-1.066 0-2.937.172-3.555-1.176-.152-.207-.285-.77-.359-1.031-.523-1.687-1.895-3.602-3.145-5.004-.695-.77-1.422-1.598-2.359-2.066a.89.89 0 0 0-.281-.086c-.023.031-.055.086-.129.184-1.219 1.535-3.059.566-3.559-.91-.922-1.187-1.805-2.371-2.793-3.469-.621-.699-1.316-1.523-2.141-2.066-1.09.391-2.437.02-2.863-1.121-3.695-4.609-6.805-9.461-11.09-13.559-2.129-2.023-4.773-5.59-7.645-7.828 2.883 11.328 7.754 23.094 12.344 33.543.824 1.891 2.219 4.285 1.617 6.449-.195.684-.758 1.152-1.215 1.641-1.449 1.48 2.781 4.176 4.078 5.535.074.086.148.184.227.273 1.25.77 1.633 2.738.469 3.672 1.707 4.633 3.836 8.992 6.098 13.375.926 1.793 2.328 3.816 1.75 5.938-.977 3.523 5.395 5.004 6.383 8.785.035.152.055.305.078.438.098.152.164.313.238.5 1.578 4.629 6.156 6.684 7.766 10.926.543 1.457.348 2 .031 3.555-.5 2.535 2.871 4.828 4.348 6.426 1.664 1.785 3.273 3.785 1.906 6.297.336-.621 10.547 7.961 10.816 8.188.75.609.883 1.383.652 2.055 1.535 2.609 3.633 4.48 6.145 6.133 1.926 1.23 3.688 2.523 4.797 4.59a2.28 2.28 0 0 1-.285 2.598c1.73 1.383 3.621 2.59 5.078 4.297.129.129.23.27.293.422 1.828 1.523 10.82 5.809 10.516 8.809-.641 6.352 10.527 10.961 15.113 13.68 2.23 1.293 5.254 2.805 6.961 4.75 1.672 1.938 3.031 4.438 4.664 6.48 1.621 2.066 3.328 4.316 5.109 6.266-1.727-2.961-2.531-6.43-4.383-9.297-1.684-2.621-3.914-4.645-5.23-7.437-1.652-3.48-4.121-6.633-6.184-9.875l-5.09-7.992c-3.371-5.098-7.066-9.711-10.113-14.504-3.109-4.852-5.75-9.285-8.395-13.582-1.238-2.176-2.738-4.078-4.066-6.047l-3.969-5.664c-2.609-3.633-5.207-6.949-7.59-10.113l-12.645-16.59c-1.793-2.402-3.426-4.664-4.852-6.766-1.445-2.121-2.848-3.988-3.934-5.805l-3.004-4.914-1.227-2.078c-.383-.652-.664-1.305-.957-1.914-2.328-4.773-3.207-6.871-3.035-6.949.633-.312 3.797 8.375 18.594 27.227 3.59 4.773 8.047 10.07 12.906 16.355l7.742 10.09 4.047 5.676c1.371 1.969 2.891 3.895 4.176 6.09l8.449 13.504c3 4.633 6.684 9.234 10.176 14.441l5.133 8.035 5.414 8.414c.883 1.504 1.664 3.059 2.523 4.613l2.566 4.543c1.781 3.152 3.543 6.547 5.121 9.82zm5.5 85.934c11.582-2.023 6.578-37.547 5.473-44.855-1.023-6.695.391-18.039-4.176-23.977a2.2 2.2 0 0 1-.449-.051c2.004 22.266 4.59 47.168-.848 68.883zm63.938-198.191c.227-.066.316-.227 0 0zm39.578-41.973c0-.055-.012-.109-.012-.184 0 .055 0 .098-.02.152.02 0 .031.023.031.031zm9.223 195.223c2.195.109 4.328-.176 6.48-.434-4.48-5.23-11.656-8.406-18.094-9.766-.871.023-1.687-.391-2.176-1.457-1.523-3.34-6.164-3.937-9.406-4.48-.262-.031-.488-.109-.695-.207-.414-.141-.805-.391-1.164-.816-2.957-3.566-8.797-3.172-12.883-2.25a2.74 2.74 0 0 1-.523.055c-.879.359-1.871.23-2.676-.781-2.219-2.762-7.742-2.926-10.852-1.937-.109.043-.215.055-.336.078-.75.512-1.738.617-2.75-.035-4.09-2.641-8.973-2.215-13.582-1.652-.824.098-1.469-.152-1.914-.562-.02-.012-.055-.035-.086-.035-5.23-1.969-11.449-1.195-16.973-1.195-2.512 0-4.969-.379-7.383-1.086-1.133-.34-2.285-.676-3.395-1.109-.566-.23-2.469-.5-2.75-.75 4.621 3.781 10.785 3.727 16.375 5.055l16.234 3.805 13.082 2.773c3.871.805 7.207 1.688 10.078 2.359 11.461 2.883 15.996 2.621 15.996 3.164 0 .195-1.121.336-3.785.391-2.621-.055-6.809-.391-12.645-1.609l-10.102-2.02c-3.816-.598-8.223-1.555-13.113-2.504l-16.355-3.379c-3.176-.73-6.609-1.195-9.656-2.34-3.176-1.195-5.871-3.414-9.297-3.891 1.633 3.328 5.113 3.738 8.004 5.262 3.426 1.793 6.773 4.957 9.676 7.523.602-.367 1.297-.5 1.969-.367.641-.25 1.402-.152 2.152.422 1.914 1.469 3.711 3.055 5.645 4.457 1.23.883 2.492 1.785 3.816 2.504.469.238.926.5 1.426.652l.098-.098c.902-1.273 2.859-1.98 4.414-.676 2.48 2.066 5.938 3.414 9.242 3.762.828-.781 2.043-1.172 3.316-.609 2.262.992 5.785 4.121 8.48 3.633.578-.434 1.348-.652 2.25-.488 2.566.512 5.168.781 7.754 1.27.598-.488 1.402-.727 2.383-.488.957.25 1.871.543 2.824.75.785.195 1.633.438 2.461.469.184-.031.313-.031.445-.031.512-1.254 1.891-1.859 3.336-1.656 2.938.414 5.785 1.242 8.734 1.676.238-1.238 1.227-2.098 2.695-2.227 4.488-.457 8.742.652 13.223.879zm46.473-92.359c-9.285-.164-18.734-.207-27.031 4.352-.219.105-.426.258-.633.293-.848.512-1.969-.121-2.738-.121-.184 0-.512-.074-.676-.02-.672.16-1.324.215-1.945.5-1.129.508-2.25 1.031-3.23 1.762-.598.453-1.172.531-1.684.355-.609-.043-1.25-.336-1.695-.988-1.992-2.98-9.711 2.188-11.918 3.445-1.371.785-2.754-.02-3.297-1.336-.391-.934-8.078 2.957-10.059 4.09-.617.824-1.684 1.25-2.812.52-2.883-1.867-6.949 2.305-8.656 4.352-.883 1.031-2.047.859-2.828.207-2.75.02-4.883 2.152-6.773 3.926-.359.586-.957 1.02-1.828 1.031-3.523.129-7.262 1.086-9.309 4.195-.543.859-1.508 1.316-2.52 1.035-4.316-1.187-7.895 2.598-10.777 5.207-.055.035-.109.078-.164.109-.25.434-.672.773-1.293.934-4.969 1.262-7.437 5.98-10.406 9.723a2.1 2.1 0 0 1-.422.414c-.359.414-.902.715-1.633.715-7.152.035-13.68 7.449-18.551 12.105a24.57 24.57 0 0 0-1.074 1.043l1.25-.391c2.859-.84 5.652-1.402 8.219-2.254 5.285-1.684 10.363-3.293 15.051-5.031l3.5-1.25c1.164-.402 2.25-.98 3.348-1.449l6.43-2.871c4.195-1.813 8.055-3.781 11.785-5.543 7.438-3.48 13.863-7.004 19.605-10.059l8.102-4.273c2.52-1.305 4.902-2.512 7.152-3.512 2.23-1.078 4.285-2.043 6.23-2.793 1.957-.785 3.719-1.578 5.359-2.145l4.48-1.477c1.328-.449 2.535-.805 3.602-1.012 4.25-.969 6.086-1.273 6.121-1.066 0 .207-1.762.859-5.828 2.121-1.023.281-2.164.727-3.457 1.227l-4.352 1.676c-1.586.629-3.293 1.48-5.187 2.305-1.91.805-3.914 1.828-6.086 2.938-2.199 1.063-4.535 2.305-7.027 3.676l-8 4.402c-5.699 3.121-12.102 6.762-19.574 10.34-3.73 1.793-7.609 3.797-11.82 5.656l-6.469 2.922c-1.098.492-2.184 1.066-3.371 1.48l-3.555 1.273c-3.891 1.422-7.719 2-11.711 3-3.328.816-7.805 1.531-10.09 4.383 2.176-.719 4.414-1.207 6.609-1.883 2.699-.816 5.266-1.227 8.047-1.512 1.133-.109 2.297-.129 3.383-.434 1.043-.273 1.434-.969 2.238-1.371 1.859-.891 4.406-.676 6.449-.609 4.383.066 9.156.598 13.09-1.781.176-.109.359-.187.535-.242.141-.051.316-.117.5-.141 2.359-.402 4.402-.5 6.895-1.207-.035-.922.434-1.781 1.445-2.066 3.59-1.043 7.316-1.457 10.918-2.512.727-.207 1.324-.074 1.805.262 1.922.078 4.152.383 6.078-.086-.859-1.371-.285-3.621 1.781-3.523 2.805.109 5.363-1.164 7.949-2.195 0-.937.48-1.797 1.59-2.098 2.641-.699 5.164-1.566 7.598-2.73-.031-.902.457-1.75 1.621-1.945 2.543-.457 5.805-1.035 8.035-2.664-.195-1.035.219-2.199 1.48-2.645 2.316-.824 4.586-1.781 6.816-2.805-.023-.793.336-1.555 1.086-1.969 1.305-.738 2.699-1.238 4.078-1.816.207-1.031 1.188-1.891 2.23-1.914.074-.055.152-.129.25-.172.816-.469 5.84-3.371 5.633-3.914-.207-.523-.109-1.402.043-1.926.469-1.73 3.316-2.75 4.621-3.488 5.938-3.316 12.145-6.43 17.441-10.734zm5.543-4.437c2.066 0 2.621 2.262 1.762 3.578a2.54 2.54 0 0 1-.488.73c-6.219 6.426-14.289 10.414-21.984 14.742-.797.438-1.555.883-2.328 1.328v.129c0 .98-.707 1.762-1.195 2.535-1.426 2.207-4.066 3.828-6.371 5.098-.109.609-.449 1.176-1.035 1.492-1.324.672-2.719 1.184-4.078 1.762 0 .793-.359 1.617-1.074 1.988-2.449 1.25-4.961 2.328-7.527 3.293-.031.457-.238.926-.598 1.352-2.172 2.434-5.695 3.641-8.969 4.348-.195.414-.457.773-.871.988-2.75 1.535-5.633 2.688-8.633 3.578-.086.902-.574 1.652-1.566 1.945-2.664.828-5.141 2.121-7.797 2.719.297 1-.207 1.992-1.031 2.535-3.145 2.043-7.121 1.445-10.656 1.402-.336-.023-.621-.086-.859-.184-2.457.629-4.969 1.066-7.437 1.609-.121.543-.457 1.055-1.031 1.391-3.133 1.773-6.461 1.945-9.918 2.5-5.992 3.621-12.492 1.469-18.953 2.402-.227.219-.465.414-.75.547-.238.16-.543.313-.902.391-7.207 1.555-17.027-.598-23.281 4.066 3.297.574 7.254.227 10.602.164 2.34-.035 4.688-.395 7.027-.469 4.273-.133 8.414-.543 12.645-.762 4.066-.227 8.266.129 11.918 2.098 4.438-1.414 11.492-.922 15.242 2.414 5.645-1.055 12.68-.848 16.715 3.578 4.305.762 9.414 2.133 11.895 6.035 8.949 2 18.82 7.309 23.227 15.656.805 1.578.074 3.059-1.09 3.762-.445.438-1.043.73-1.812.797-4.297.215-8.168 1.25-12.496.707-2.828-.34-5.621-.773-8.426-.828.012 1.535-1.055 2.359-2.293 2.48-.297.086-.609.141-.992.129-3.5-.152-6.871-1.055-10.285-1.707-1.98 2.121-6.254 1.348-9.492.566-.676.469-1.555.609-2.34.402-2.762-.676-5.586-.988-8.383-1.457a.4.4 0 0 1-.129.055c-3.762 1.555-7.578-.883-11.016-2.805-.371.152-.762.258-1.121.258-4.348.035-8.859-1.402-12.566-3.781-2.359 1.629-5.754.207-8.113-1.273-1.848-1.141-3.598-2.437-5.297-3.785-.793-.617-1.555-1.262-2.324-1.891-.043-.023-.098-.078-.176-.129-.219.16-.445.355-.707.477a2.84 2.84 0 0 1-2.641.098c-.383-.129-.73-.359-1.066-.695-2.586-2.566-5.73-4.602-8.523-6.949-2.609-2.176-5.23-4.25-8.059-6.09.695 2.176 1.109 4.504 1.445 6.84 1.176 7.895 1.98 16.117 2.621 24.055.773 9.645 4.09 41.699-12.906 40.109-.879-.098-1.5-.586-1.836-1.215-.914-.395-1.609-1.316-1.254-2.566 5.785-20.988 3.371-45.691 1.359-67.668-3.086 1.949-5.945 4.176-8.742 6.535s-5.934 4.383-8.523 6.949c-.336.336-.695.566-1.066.695-.824.391-1.816.383-2.664-.098-.238-.121-.465-.316-.695-.477l-.5.41c-.652.547-1.328 1.09-2 1.609-1.707 1.328-3.437 2.676-5.285 3.785-2.414 1.445-5.773 2.926-8.113 1.273-3.727 2.379-8.219 3.816-12.566 3.781-.359 0-.75-.105-1.133-.258-3.445 1.922-7.242 4.359-11.023 2.805-.047-.012-.078-.035-.121-.055-2.805.469-5.609.781-8.371 1.457-.785.207-1.687.066-2.359-.402-3.219.781-7.492 1.555-9.484-.566-3.426.652-6.773 1.555-10.297 1.707-.359.012-.695-.043-.977-.129-1.23-.121-2.305-.945-2.285-2.457-3.391.105-6.687.805-10.113.977-3.707.164-7.133-.695-10.809-.879-.793-.066-1.367-.359-1.812-.797-1.164-.703-1.914-2.184-1.09-3.762 4.406-8.348 14.266-13.656 23.227-15.656 2.457-3.902 7.566-5.273 11.895-6.035 4.023-4.426 11.059-4.633 16.715-3.578 3.738-3.336 10.785-3.828 15.242-2.414 4.633-2.5 9.973-2.422 15.113-1.816.199-.141.414-.27.664-.355 4.621-1.73 9.723-1.555 14.668-1.426-.02-.078-.02-.152-.043-.23-3.859-.355-7.73-.445-11.516-1.27-.66-.152-1.086-.488-1.348-.937-6.469-.934-13.102 1.199-19.07-2.359-3.504-.598-6.918-.75-10.082-2.543-.574-.336-.91-.848-1.043-1.391-2.477-.543-4.969-.98-7.426-1.609a2.93 2.93 0 0 1-.859.184c-3.543.043-7.512.641-10.656-1.402-.824-.543-1.336-1.535-1.031-2.535-2.664-.598-5.156-1.891-7.797-2.719-1.012-.293-1.48-1.043-1.566-1.945-3-.891-5.902-2.043-8.656-3.578-.402-.215-.664-.574-.848-.988-3.273-.707-6.797-1.914-8.969-4.348a2.42 2.42 0 0 1-.621-1.352c-2.543-.965-5.078-2.043-7.512-3.293-.707-.371-1.09-1.195-1.066-1.988-1.371-.578-2.773-1.09-4.078-1.762-.609-.316-.945-.895-1.055-1.512-2.926-1.664-5.395-3.602-7.254-6.48-.727-1.133-.652-1.469.176-.992-1.555-.922-3.109-1.781-4.687-2.641-7.121-3.926-14.406-7.816-20.117-13.699-.203-.242-.379-.492-.465-.73-.883-1.316-.305-3.578 1.762-3.578 11.742-.031 23.453-1.031 34.086 4.461 2.547-1.047 6.406.598 8.832 2.098 4.117-3.09 10.449.152 14.883 2.676 3.785-2.652 10.961 1.207 14.648 3.469 4.121-1.402 8.699 1.586 11.656 4.664.109-.023.227-.035.336-.035 4.066-.195 7.23 2.449 10.035 5.078 4.262.34 8.266 1.773 11.016 4.992 5.406-.652 9.742 3.133 13.648 6.656.008.031.051.074.063.105 5.461 1.676 8.309 6.242 11.68 10.516 9.926.633 16.539 9.559 23.734 16.691-2.816-4.348-6.086-8.602-9.457-11.559-5.773-5.098-12.855-8.211-19.191-12.473-3.578-2.402-7.133-5.488-8.406-9.676-1.066-3.457-6.273-5.371-9.102-8.07-.207-.184-.336-.391-.457-.574-2.078-2.273-4.883-3.645-6.895-5.98-.824-.957-.891-2.543.188-3.34-1.359-1.172-3.121-1.957-4.516-3.117-2.02-1.687-3.781-3.754-5.074-6.016-.262-.469-.352-.922-.297-1.336-3.781-3.035-9.25-5.937-11.371-10.34-.371-.762-.414-1.512 0-2.262.359-.676-3.785-4.559-4.273-5.176-1.152-1.48-1.742-2.645-2.395-4.363-.848-2.25 1.535-2.617-1.012-5.164-2.922-2.891-5.129-5.742-6.48-9.676-.043-.133-.062-.25-.098-.391-.074-.164-.16-.34-.203-.547-1.102-4.207-8.766-3.977-7.125-9.926.848-3.066-2.129-6.609-3.531-9.547-1.656-3.492-3.113-6.992-4.328-10.645-.133-.391-.109-.805 0-1.176-2.023-2.086-4.461-4.785-4.461-7.555 0-3.523 1.48-3.242-.281-7.363-5.023-11.723-10.492-24.988-13.059-37.457-.055-.23-.055-.437-.055-.621-.031-1.348 1.086-2.828 2.805-2.457 5.102 1.066 8.723 6.48 12.277 9.871 4.566 4.383 7.926 9.234 11.82 14.148.098 0 .172 0 .258.012 1.164.281 2.176.922 3.09 1.672 1.695 1.383 3.043 3.109 4.348 4.828 3.766-.957 8.242 4.59 10.254 8.449 4.523.543 11.309 11.016 14.008 16.168 1.805-.359 3.859.773 5.207 2.469 1.609 2.035 3.035 4.328 4.047 6.766 1.859.27 3.859 1.91 5 3.262 1.012 1.195 2.195 2.512 2.848 3.957.938 2 1.535 4.098 2.25 6.176.297-.023.621-.031.969.02 1.293.164 2.359 1.859 2.949 2.871 1.609 2.785 2.543 5.938 3.031 9.113.391-.031.828-.031 1.305.074 1.5.328 2.707 1.938 3.395 3.188 1.316 2.438 2.871 4.816 3.543 7.48 4.633-.379 6.219 7.102 7.121 11.234 1.512.402 2.73 1.074 3.328 2.816.902 2.566 1.035 5.316 1.273 8.012 1.578-.316 3.109.043 4.055 1.871 1.621 3.184 1.902 7.047 2.23 10.621 3.652 1.578 3.664 8.918 3.586 12.965 3.395 1.152 4.871 5.664 5.828 9.066.773 2.816 1.035 7.559 3.316 9.668.285-1.566-.203-3.449-.238-5.078-.066-2.645.414-5.164-.281-7.777-.641-2.414-2.078-4.391-3-6.695-.633-1.598-1.297-3.176-1.742-4.84-.305-1.066-.074-4.512-.598-5.207-3.633-4.719-9.145-16.18-5.176-21.781-2.566-3.695-4.492-7.59-4.492-12.23 0-.152.078-.262.09-.414-3.297-3.902-2.633-10.047-1.566-14.711.074-.34.219-.609.391-.84.098-.379.336-.727.75-.988-.152-2.578-1.859-5.047-2.359-7.504-.621-3.012-.457-6.098-.414-9.152 0-.152.055-.242.078-.383-.023-.934.445-1.848 1.402-2.164-.055-.262-.109-.543-.184-.805-.152-.531-.359-1.074-.437-1.621-.445-2.695-.414-5.371-.391-8.09v-.051c-.227-1.109.238-2.285 1.426-2.492.055-2.281-.828-4.59-.926-6.895-.129-2.75.25-5.25 1.219-7.75-1.141-2.121-1.098-4.992-.988-7.234.098-1.52.203-3.043.641-4.5.422-1.48 1.664-2.621 2.469-3.914-.316-3.402-.492-12.941 3.238-14.613.359-3.914.621-7.176 3.055-10.82a2.1 2.1 0 0 1 .492-.531c-.285-3.969-.285-7.961 2.172-11.332.262-.379.609-.641.992-.848-.133-3.445.367-6.566.957-10.133 1.738-11.699 2.922-25.117 7.336-36.102.457-1.129 1.504-1.566 2.469-1.488.98-.078 2.035.359 2.504 1.488 4.414 10.984 5.598 24.402 7.316 36.066.586 3.602 1.109 6.723.957 10.168.391.207.75.469 1.012.848 2.434 3.371 2.457 7.363 2.152 11.332.195.129.359.305.512.531 2.434 3.645 2.695 6.906 3.055 10.82 3.742 1.672 3.555 11.266 3.219 14.637.934 1.508 2.328 2.781 2.676 4.586.258 1.242.391 2.523.434 3.805.074 2.285.164 5.113-.98 7.211.98 2.469 1.523 5.109 1.219 7.773-.238 2.23-1.012 4.613-.914 6.895 1.164.207 1.633 1.383 1.406 2.492 0 .02.02.031.02.051.023 2.664.219 5.449-.391 8.09-.176.699-.402 1.395-.566 2.102-.02.098-.043.207-.055.324.969.316 1.438 1.25 1.402 2.188.023.129.078.238.078.391.02 2.957.414 6.242-.414 9.121-.641 2.219-2.078 4.785-2.328 7.223 1.316.465 1.707 1.563 1.164 2.414 1.035 4.621 1.598 10.578-1.629 14.406.02.152.074.262.074.414.023 4.641-1.914 8.535-4.469 12.23 3.969 5.578-1.543 17.039-5.176 21.781.281 3.598-.523 6.188-2.359 9.426-1.762 3.109-2.336 6.273-2.141 9.809.227 3.848-.164 8.316-.687 12.168-.227 1.617-.281 3.219-.281 4.902.02-2.359.934-5.055 1.324-7.383l1.48-8.187c.719-3.445 2.152-8.613 5.926-9.871-.066-4.059-.043-11.406 3.609-12.965.176-1.629.359-3.27.621-4.879.305-1.883.523-4.121 1.609-5.742 1.129-1.719 2.531-2.133 4.035-1.871.215-2.902.293-5.98 1.512-8.559.66-1.422 1.781-1.965 3.109-2.281.902-4.145 2.488-11.582 7.098-11.223.676-2.848 2.285-5.621 3.84-7.949.902-1.324 1.934-2.457 3.566-2.805.293-.074.578-.074.836-.043.492-3.316 1.449-6.687 3.285-9.437.676-1.012 1.586-2.34 2.914-2.535.281-.031.543-.008.816 0 1.379-3.793 2.469-7.371 5.402-10.504 1.141-1.215 2.949-2.598 4.633-2.867a26.16 26.16 0 0 1 4.066-6.766c1.359-1.641 3.402-2.805 5.207-2.469 2.699-5.164 9.461-15.625 14.008-16.168 2.012-3.84 6.48-9.406 10.23-8.449 1.328-1.719 2.676-3.445 4.359-4.828.926-.75 2.121-1.555 3.359-1.684 4.254-5.34 8.016-10.461 12.984-15.258 3.273-3.141 6.383-7.762 11.09-8.762 1.742-.371 2.84 1.109 2.805 2.457.023.184 0 .391-.031.621-1.543 7.469-4.578 14.211-7.305 21.289-2.047 5.305-3.34 11.035-5.754 16.168-1.934 4.066-.281 3.859-.281 7.363 0 2.77-2.437 5.469-4.461 7.555.109.371.133.785 0 1.176-1.445 4.328-3.227 8.504-5.305 12.57-.414.805-3.5 5.773-3.145 6.426.316.598.621 1.086.652 1.793.34 5.664-6.066 5.023-7.184 9.328-.055.207-.145.383-.23.547-.02.141-.031.258-.098.391-.816 2.457-1.828 4.598-3.535 6.621-.957 1.141-4.586 3.871-4.25 5.469.684 3.449-.848 6.047-3.242 8.578-1.086 1.145-3.359 2.523-2.891 4.23.305 1.09-.371 2.047-.816 2.957-1.75 3.621-7.535 6.578-10.773 9.125a2.31 2.31 0 0 1-.305 1.336c-1.305 2.262-3.066 4.328-5.066 6.016-1.414 1.16-3.156 1.945-4.523 3.117 1.074.797.988 2.383.195 3.34-2.035 2.336-4.84 3.707-6.918 5.98-.098.184-.25.391-.434.574-2.828 2.699-8.035 4.613-9.102 8.07-1.273 4.188-4.84 7.273-8.414 9.676-6.145 4.109-14.051 7.035-19.191 12.473-3.109 3.297-6.211 7.078-8.941 11.047 7.004-7.035 13.527-15.559 23.227-16.18 3.371-4.273 6.219-8.84 11.656-10.516.035-.031.055-.074.09-.105 3.902-3.523 8.242-7.309 13.621-6.656 2.754-3.219 6.777-4.652 11.016-4.992 2.828-2.629 5.969-5.273 10.059-5.078a1.38 1.38 0 0 1 .316.035c2.977-3.078 7.535-6.066 11.656-4.664 3.707-2.262 10.883-6.121 14.668-3.469 4.438-2.523 10.754-5.766 14.863-2.676 2.438-1.5 6.297-3.145 8.828-2.098 10.645-5.492 22.367-4.492 34.109-4.461zm-132.469-9.328c.207 0-.336 1.688-.402 2.078-.426 2.629-.555 5.285-.937 7.902v.055c-.086.414-.215.699-.391.926-.598.902-1.719 1.402-2.902.676-.391-.242-.805-.492-1.219-.699-.227.59-.434 1.742-.512 2.156-.477 2.434-.758 4.914-1.02 7.383-.043.313-.195.617-.328.859-.062 1.031-.312 1.945-2.184 1.859 0 .422-.262.879-.383 1.348-.258 1.086-.293 2.172-.367 3.293-.133 1.859-.133 3.73-.133 5.59 0 .859-.41 1.434-.957 1.793-.508.578-1.25.98-2.184.84-2.098-.273-4.262 11.969-4.602 13.676-.684 3.395-1.555 6.742-2.52 10.082a61.46 61.46 0 0 1 2.316-4.504l2.574-4.543 2.5-4.613c1.809-2.934 3.676-5.727 5.438-8.414l5.133-8.035c3.469-5.207 7.176-9.809 10.168-14.441 2.969-4.555 5.773-9.23 8.449-13.504 1.281-2.195 2.816-4.121 4.184-6.09l4.047-5.676c2.652-3.633 5.316-6.926 7.73-10.09l12.906-16.355c14.801-18.852 17.965-27.539 18.605-27.227.172.078-.707 2.176-3.035 6.949-.305.609-.586 1.262-.957 1.914l-1.25 2.078-2.98 4.914c-1.109 1.816-2.512 3.684-3.934 5.805-1.445 2.102-3.055 4.363-4.852 6.766-3.5 4.871-7.871 10.262-12.668 16.59l-7.59 10.113-3.945 5.664c-1.336 1.969-2.828 3.895-4.09 6.047l-8.371 13.582c-3.066 4.793-6.742 9.406-10.133 14.504l-5.078 7.992-5.363 8.363c-1.098 1.793-1.902 3.762-3.195 5.426-1.219 1.609-2.586 3.129-3.598 4.891-1.48 2.512-3.316 5.113-4.023 7.937 1.25-1.457 2.109-3.238 3.426-4.664 1.391-1.488 3.086-2.652 4.512-4.121 1.781-1.836 3.316-3.914 5.133-5.687 1.813-1.781 4.121-3.098 6.336-4.371 5.973-3.422 11.102-6.402 12.91-12.937.891-3.242 8.109-6.145 10.402-8.211.102-.152.199-.293.305-.422 1.48-1.707 3.352-2.914 5.078-4.297a2.31 2.31 0 0 1-.258-2.598c1.086-2.043 2.859-3.371 4.793-4.59 2.512-1.621 4.609-3.543 6.145-6.133-.23-.672-.098-1.445.629-2.055 1.09-.922 10.777-7.949 10.613-8.73-.543-2.457.238-4.012 2.133-5.754 2.25-2.074 4.762-4.488 4.023-7.848-.187-.848.055-1.98.586-2.676 2.641-3.566 6.035-5.98 7.523-10.383a2.39 2.39 0 0 1 .25-.5c.023-.133.035-.285.078-.437.52-2.023 1.793-3.316 3.531-4.437.59-.379 4.012-2.305 3.438-3.215-.359-.59-.609-1.023-.664-1.73-.207-2.59 1.707-5.09 2.828-7.285 1.914-3.75 3.652-7.492 5.098-11.43-1.16-.922-.805-2.902.469-3.672.078-.09.129-.187.23-.273 1.891-1.969 5.805-3.73 3.422-6.187-.391-.434-.672-1.012-.652-1.586.109-2.797 1.383-4.949 2.469-7.48 4.23-9.875 8.754-20.965 11.504-31.645-1.031 1-1.969 2.145-2.957 3.109l-5.75 5.57c-3.809 3.805-6.613 8.262-9.949 12.438-.437 1.141-1.785 1.512-2.871 1.121-.84.543-1.535 1.367-2.152 2.066-.969 1.117-1.852 2.281-2.773 3.469-.5 1.477-2.34 2.445-3.555.91-.098-.105-.133-.172-.152-.203-.187.074-.348.148-.547.258-.891.598-1.66 1.402-2.359 2.23-1.117 1.348-2.391 3.109-2.859 4.688-.098.262-.207.488-.359.684-.617 1.336-2.477 2.035-3.543.871-.141.109-.293.215-.426.348-.434.457-.848.902-1.238 1.391-.902 1.109-1.738 2.285-2.543 3.469-2.176 3.195-5.047 5.969-6.113 9.777-.184.703-.617 1.16-1.117 1.379-.949.816-2.406.926-3.187-.371-.695.652-1.273 1.395-1.781 2.199-1.121 1.762-2.254 3.727-2.809 5.535-.074.27-.195.477-.324.66-.598 1.328-2.371 2.023-3.457.992-.055.043-.098.055-.152.129-.395.359-.773.719-1.109 1.086-.652.75-1.293 1.523-1.84 2.34-1.664 2.512-2.129 5.609-3.25 8.383-.359.836-1.012 1.293-1.75 1.434a2.42 2.42 0 0 1-1.848.414c-.055.121-.133.207-.187.305-.27.488-.543.992-.75 1.492-1.012 2.367-1.555 4.988-1.762 7.535.359 1.52-1.445 3.488-3.414 2.641-.367-.152-.672-.359-1.012-.566-.008.023-.008.043-.051.055-.523.688-.859 1.523-1.254 2.273-1.129 2.078-2.586 3.969-2.566 6.449 0 1.172-.75 1.848-1.629 2.074-.598.391-1.414.5-2.23.012-.457-.262-.41-.391-.695 0-.566.871-.957 1.762-1.238 2.742-.566 1.859-.883 3.727-1.293 5.598.129 1-.34 1.969-1.59 2.195-.434.09-1.391.078-1.793.316zM210.352 95.359c-1.324.242-2.379-1.031-2.512-2.27-.391-3.613-.336-6.59-2.055-9.723-1.031-.098-1.957-.781-1.836-2.141.262-3.035.652-6.176-.469-8.973-1.652.336-3.031-.859-2.738-2.707.727-4.348-.098-7.852-.773-12.07-.012-.109-.012-.184-.012-.281-1.367-9.492-2.512-20.02-5.328-29.426-2.805 9.406-3.926 19.934-5.293 29.426 0 .098 0 .172-.023.281-.672 4.219-1.5 7.723-.781 12.07.313 1.848-1.09 3.043-2.719 2.707-1.141 2.797-.73 5.938-.469 8.973.109 1.359-.805 2.043-1.836 2.141-1.719 3.133-1.664 6.109-2.078 9.723-.109 1.141-1.031 2.324-2.23 2.281a2.72 2.72 0 0 1-.203.391c-.152.535-.262 1.055-.34 1.598a27.14 27.14 0 0 0-.312 4.016c-.047 1.555-.066 3.121.129 4.676.086.77-.176 1.313-.598 1.672-1.109 1.949-2.402 3.176-2.535 5.559-.074 1.367-.574 4.762.445 5.848a2.14 2.14 0 0 1 .402 2.469 2.73 2.73 0 0 1-.207 1.035c-2.359 5.414 1.156 10.754-.402 16.168-.141.52-.551 1.02-1.062 1.348-.055 1.836-.109 3.73.359 5.449.305 1.086.641 2.172.75 3.293.16 1.629-.395 3-1.535 3.75-.02 3.297.078 6.273 1.23 9.492 1.012 2.742 1.781 5.023 1.348 7.93-.086.598-.543.91-1.098 1.063-.805 3.566-1.687 8.734 1.457 11.375 1.055.883.879 2.043.207 2.828.098 4.086 2.172 7.383 4.512 10.59.566.762.52 1.512.172 2.098-.074.598-.359 1.176-.977 1.609-1.555 1.098.109 6.492.695 7.906 1.273 3.121 2.23 6.383 4.457 9.004.133.172.23.336.316.512.359.355.566.855.488 1.555-.391 3.969 1.992 6.371 2.883 9.902 1.293 5.113 1.129 11.332 1.074 16.605-.043 3.48-.02 6.926.242 10.406.207 2.738.109 5.59 1.891 7.852.055-5.687-.805-11.57-.75-17.387l.098-21.367.078-36.926.605-52.508.699-28.043c.203-5.785.41-8.273.617-8.273.188.02.359 2.512.469 8.316l.207 28.02v52.488l.074 36.926-.043 21.387c0 4.645-.707 10.047 1.469 14.32 3.328-6.035 2.469-10.566 1.816-17.18-.391-3.859-1.402-7.457-.543-11.242 1.195-5.305 5.262-6.656 4.609-13.297-.078-.699.129-1.199.488-1.555.066-.176.184-.34.316-.512 2.25-2.652 3.684-6.297 4.664-9.602.414-1.359 1.98-6.242.469-7.309-.598-.434-.902-1.012-.957-1.609-.359-.586-.391-1.336.152-2.098 2.359-3.207 4.434-6.504 4.512-10.59-.676-.785-.828-1.945.207-2.828 3.141-2.641 2.281-7.809 1.457-11.375-.543-.152-1.012-.465-1.09-1.062-.422-2.906.34-4.98 1.34-7.723 1.195-3.25 1.25-6.348 1.227-9.719-1.27-.84-1.77-2.492-1.457-4.309.188-1.055.598-2.02.773-3.055.273-1.707.273-3.402.238-5.133-.488-.312-.879-.805-1.031-1.324-1.566-5.414 1.969-10.754-.391-16.168-.152-.359-.219-.699-.207-1.035-.371-.75-.348-1.684.391-2.469 1.012-1.066.543-4.5.457-5.848-.195-2.395-1.426-3.602-2.535-5.559-.434-.359-.695-.902-.598-1.672.207-1.852.207-3.766.098-5.602-.074-1.305-.129-2.641-.434-3.914-.293-1.176-.543-1.066-.133-1.176"/></g></svg>