<svg xmlns="http://www.w3.org/2000/svg" xmlns:xlink="http://www.w3.org/1999/xlink" width="500" zoomAndPan="magnify" viewBox="0 0 375 374.999991" height="500" preserveAspectRatio="xMidYMid meet" version="1.0"><path fill="#0e2644" d="M 213.683594 284.195312 C 215.675781 287.03125 217.867188 289.726562 220.253906 292.261719 C 222.816406 294.972656 225.691406 297.25 228.742188 299.300781 C 235.316406 303.722656 242.726562 307.015625 249.035156 311.769531 C 250.539062 312.898438 252.671875 312.59375 253.804688 311.101562 C 254.933594 309.597656 254.632812 307.464844 253.136719 306.328125 C 246.722656 301.5 239.222656 298.140625 232.539062 293.648438 C 229.910156 291.882812 227.417969 289.933594 225.203125 287.585938 C 222.941406 285.175781 220.871094 282.613281 218.992188 279.914062 C 219.296875 279.660156 219.589844 279.410156 219.882812 279.15625 C 234.484375 266.605469 246.851562 251.164062 257.726562 234.5 C 265.234375 222.972656 275.039062 206.253906 277.441406 190.25 C 279.199219 178.550781 277.105469 167.226562 268.046875 158.207031 C 265.03125 155.203125 261.640625 153.019531 257.964844 151.5 C 254.386719 150.011719 250.523438 149.15625 246.445312 148.78125 C 233.691406 147.605469 223.765625 153.214844 216.273438 162.054688 C 205.980469 174.203125 200.40625 192.652344 198.308594 206.523438 C 196.132812 220.886719 196.363281 236.714844 199.730469 251.695312 C 201.851562 261.132812 205.21875 270.234375 210 278.445312 C 197.292969 288.304688 182.882812 295.894531 166.265625 300.128906 C 144.605469 305.632812 123.195312 305.183594 106.191406 297.808594 C 88.601562 290.167969 75.898438 275.011719 72.769531 251.5 C 71.746094 243.871094 72.082031 235.9375 73.285156 228.125 C 74.5 220.175781 76.617188 212.359375 79.140625 205.070312 C 82.988281 193.992188 87.179688 184.597656 92.3125 176.074219 C 97.671875 167.203125 104.050781 159.277344 112.113281 151.363281 C 113.464844 150.046875 113.480469 147.890625 112.164062 146.550781 C 110.847656 145.210938 108.691406 145.183594 107.351562 146.5 C 98.847656 154.84375 92.132812 163.199219 86.484375 172.5625 C 81.117188 181.460938 76.722656 191.261719 72.710938 202.839844 C 70.046875 210.503906 67.832031 218.738281 66.550781 227.089844 C 65.253906 235.550781 64.917969 244.140625 66.019531 252.398438 C 69.515625 278.671875 83.832031 295.519531 103.480469 304.050781 C 121.722656 311.972656 144.695312 312.644531 167.949219 306.722656 C 185.292969 302.308594 200.375 294.441406 213.683594 284.195312 Z M 215.34375 274.082031 L 215.449219 273.992188 C 229.566406 261.851562 241.511719 246.902344 252.023438 230.773438 C 259.09375 219.941406 268.445312 204.285156 270.710938 189.238281 C 272.140625 179.695312 270.644531 170.398438 263.242188 163.027344 C 260.882812 160.683594 258.234375 158.984375 255.359375 157.792969 C 252.390625 156.558594 249.191406 155.871094 245.824219 155.5625 C 235.496094 154.613281 227.53125 159.304688 221.46875 166.460938 C 211.96875 177.667969 206.976562 194.742188 205.039062 207.546875 C 202.980469 221.109375 203.191406 236.050781 206.371094 250.203125 C 208.257812 258.59375 211.191406 266.710938 215.34375 274.082031 Z M 215.34375 274.082031 " fill-opacity="1" fill-rule="evenodd"/><path fill="#507289" d="M 255.320312 302.027344 C 252.296875 303.648438 249.339844 307.789062 247.964844 310.808594 C 246.570312 313.859375 245.429688 316.816406 245.105469 320.179688 C 244.460938 326.949219 248.066406 333.914062 251.980469 339.195312 C 260.011719 350.039062 277 352.058594 288.628906 346.027344 C 303.730469 338.199219 303.140625 316.105469 291.339844 305.722656 C 281.121094 296.734375 271.011719 297.003906 266.597656 297.800781 C 262.363281 298.566406 259.082031 300.109375 255.320312 302.027344 Z M 255.320312 302.027344 " fill-opacity="1" fill-rule="evenodd"/><path fill="#0e2644" d="M 261.363281 312.03125 C 263.332031 306.058594 271.605469 304.488281 276.820312 306.578125 C 279.417969 307.621094 282.503906 308.769531 284.609375 310.65625 C 290.46875 315.898438 292.789062 323.859375 288.511719 330.710938 C 285.121094 336.144531 277.570312 337.644531 271.855469 335.308594 C 267.503906 333.53125 263.34375 329.15625 261.363281 324.953125 C 260.039062 322.136719 260.0625 315.980469 261.363281 312.03125 Z M 261.363281 312.03125 " fill-opacity="1" fill-rule="evenodd"/><path fill="#0e2644" d="M 121.34375 86.953125 C 122.164062 84.941406 123.3125 82.742188 124.5625 80.53125 C 126.445312 77.199219 128.5625 73.835938 130.222656 71.015625 C 134.503906 63.734375 138.402344 56.429688 142.957031 49.53125 C 145.941406 45.015625 149.207031 40.671875 153.0625 36.628906 C 154.648438 34.964844 156.222656 33.242188 157.984375 31.765625 C 159.085938 30.84375 160.265625 30.019531 161.582031 29.378906 C 163.777344 28.308594 166.472656 28.085938 169.136719 28.367188 C 171.902344 28.65625 174.636719 29.5 176.808594 30.617188 C 177.996094 31.230469 179.195312 31.914062 180.34375 32.667969 C 181.46875 33.410156 182.550781 34.21875 183.519531 35.101562 C 184.214844 35.730469 185.292969 35.679688 185.925781 34.984375 C 186.554688 34.289062 186.503906 33.210938 185.808594 32.578125 C 184.707031 31.582031 183.488281 30.664062 182.214844 29.824219 C 180.964844 29 179.660156 28.257812 178.367188 27.59375 C 175.855469 26.296875 172.691406 25.316406 169.492188 24.980469 C 166.175781 24.628906 162.828125 24.984375 160.089844 26.316406 C 158.523438 27.082031 157.113281 28.058594 155.800781 29.15625 C 153.9375 30.714844 152.273438 32.523438 150.597656 34.28125 C 146.601562 38.472656 143.210938 42.972656 140.117188 47.65625 C 135.527344 54.605469 131.597656 61.957031 127.289062 69.289062 C 125.621094 72.125 123.492188 75.507812 121.597656 78.855469 C 120.273438 81.199219 119.0625 83.53125 118.191406 85.664062 C 117.835938 86.53125 118.253906 87.527344 119.121094 87.882812 C 119.992188 88.238281 120.988281 87.820312 121.34375 86.953125 Z M 121.34375 86.953125 " fill-opacity="1" fill-rule="evenodd"/><path fill="#0e2644" d="M 170.253906 126.054688 C 172.101562 124.683594 174.058594 122.933594 176 121.066406 C 178.777344 118.398438 181.519531 115.496094 183.855469 113.175781 C 189.882812 107.175781 196.03125 101.542969 201.621094 95.371094 C 205.386719 91.210938 208.902344 86.808594 211.96875 81.898438 C 213.257812 79.835938 214.59375 77.773438 215.640625 75.585938 C 216.378906 74.039062 216.976562 72.429688 217.324219 70.722656 C 217.933594 67.742188 217.445312 64.410156 216.28125 61.28125 C 215.160156 58.269531 213.425781 55.449219 211.546875 53.335938 C 210.582031 52.246094 209.535156 51.171875 208.425781 50.164062 C 207.300781 49.136719 206.105469 48.183594 204.867188 47.367188 C 204.082031 46.851562 203.027344 47.066406 202.507812 47.851562 C 201.992188 48.636719 202.207031 49.695312 202.992188 50.210938 C 204.089844 50.933594 205.140625 51.777344 206.136719 52.683594 C 207.15625 53.609375 208.113281 54.597656 209.003906 55.597656 C 210.625 57.421875 212.121094 59.863281 213.089844 62.46875 C 214.023438 64.980469 214.480469 67.644531 213.988281 70.039062 C 213.695312 71.472656 213.1875 72.820312 212.570312 74.117188 C 211.578125 76.191406 210.300781 78.140625 209.082031 80.09375 C 206.125 84.832031 202.730469 89.074219 199.097656 93.085938 C 193.546875 99.214844 187.441406 104.804688 181.453125 110.761719 C 179.132812 113.070312 176.402344 115.957031 173.640625 118.609375 C 171.808594 120.371094 169.964844 122.027344 168.222656 123.324219 C 167.46875 123.886719 167.3125 124.953125 167.875 125.707031 C 168.433594 126.460938 169.5 126.617188 170.253906 126.054688 Z M 170.253906 126.054688 " fill-opacity="1" fill-rule="evenodd"/><path fill="#0e2644" d="M 126.359375 76.550781 C 127.21875 76.476562 127.972656 76.746094 128.539062 77.234375 C 129.164062 77.769531 129.574219 78.550781 129.710938 79.402344 C 130.59375 84.859375 131.023438 90.03125 133.105469 94.632812 C 134.496094 97.71875 136.605469 100.558594 140.015625 103.070312 C 142.671875 105.027344 145.476562 106.90625 148.539062 108.164062 C 150.652344 109.027344 152.890625 109.601562 155.277344 109.714844 C 159.851562 109.929688 163.417969 110.058594 166.941406 110.777344 C 170.242188 111.445312 173.5 112.644531 177.550781 114.921875 C 178.40625 115.402344 179.484375 115.097656 179.964844 114.246094 C 180.441406 113.394531 180.140625 112.3125 179.289062 111.835938 C 174.84375 109.339844 171.265625 108.039062 167.644531 107.304688 C 163.960938 106.554688 160.230469 106.402344 155.445312 106.175781 C 153.472656 106.082031 151.628906 105.597656 149.882812 104.882812 C 147.089844 103.738281 144.542969 102.003906 142.117188 100.21875 C 139.265625 98.117188 137.496094 95.75 136.332031 93.175781 C 134.375 88.847656 134.039062 83.96875 133.210938 78.835938 C 132.9375 77.144531 132.089844 75.609375 130.847656 74.542969 C 129.59375 73.472656 127.949219 72.855469 126.050781 73.019531 C 125.078125 73.105469 124.355469 73.964844 124.441406 74.941406 C 124.523438 75.914062 125.382812 76.636719 126.359375 76.550781 Z M 126.359375 76.550781 " fill-opacity="1" fill-rule="evenodd"/><path fill="#0e2644" d="M 183.671875 32.25 C 183.277344 32.285156 182.894531 32.453125 182.601562 32.761719 C 182.210938 33.164062 181.785156 33.648438 181.457031 34.171875 C 181.171875 34.628906 180.957031 35.121094 180.851562 35.617188 C 180.480469 37.386719 181.179688 39.148438 182.46875 40.40625 C 183.6875 41.601562 185.414062 42.300781 187.011719 42.171875 C 187.730469 42.113281 188.351562 41.90625 188.910156 41.597656 C 189.617188 41.199219 190.21875 40.621094 190.785156 39.949219 C 191.296875 39.34375 192.03125 38.464844 192.40625 37.578125 C 192.671875 36.960938 192.78125 36.328125 192.714844 35.730469 C 192.621094 34.90625 192.269531 34.226562 191.753906 33.667969 C 191.175781 33.042969 190.367188 32.582031 189.597656 32.261719 C 188.070312 31.625 186.453125 31.316406 185.035156 31.675781 C 184.5625 31.792969 184.105469 31.980469 183.671875 32.25 Z M 184.195312 36.273438 L 184.183594 36.316406 C 184.050781 36.941406 184.394531 37.527344 184.847656 37.972656 C 185.363281 38.476562 186.066406 38.832031 186.742188 38.777344 C 186.992188 38.757812 187.195312 38.667969 187.378906 38.542969 C 187.679688 38.335938 187.933594 38.050781 188.1875 37.75 C 188.40625 37.492188 188.691406 37.164062 188.945312 36.808594 C 189.050781 36.65625 189.152344 36.5 189.230469 36.339844 C 189.269531 36.261719 189.339844 36.191406 189.332031 36.113281 C 189.3125 35.960938 189.167969 35.886719 189.046875 35.800781 C 188.8125 35.636719 188.542969 35.511719 188.289062 35.40625 C 187.582031 35.109375 186.851562 34.878906 186.167969 34.929688 C 185.703125 34.964844 185.285156 35.183594 184.949219 35.667969 C 184.753906 35.949219 184.492188 36.152344 184.195312 36.273438 Z M 184.195312 36.273438 " fill-opacity="1" fill-rule="evenodd"/><path fill="#0e2644" d="M 183.824219 33.945312 C 183.300781 34.488281 182.679688 35.203125 182.519531 35.964844 C 182.015625 38.359375 184.601562 40.65625 186.875 40.476562 C 188.027344 40.382812 188.773438 39.691406 189.484375 38.851562 C 190.097656 38.125 191.140625 36.949219 191.023438 35.921875 C 190.898438 34.820312 189.859375 34.214844 188.945312 33.835938 C 187.003906 33.027344 184.898438 32.75 183.550781 34.699219 " fill-opacity="1" fill-rule="evenodd"/><path fill="#0e2644" d="M 205.71875 49.355469 C 205.871094 48.871094 205.9375 48.382812 205.933594 47.894531 C 205.925781 46.429688 205.226562 44.941406 204.230469 43.617188 C 203.730469 42.953125 203.082031 42.28125 202.332031 41.878906 C 201.664062 41.519531 200.917969 41.347656 200.097656 41.460938 C 199.5 41.542969 198.917969 41.808594 198.382812 42.21875 C 197.617188 42.804688 196.949219 43.730469 196.488281 44.378906 C 195.980469 45.09375 195.570312 45.820312 195.363281 46.605469 C 195.199219 47.222656 195.152344 47.875 195.273438 48.585938 C 195.550781 50.167969 196.65625 51.664062 198.117188 52.550781 C 199.652344 53.484375 201.53125 53.726562 203.15625 52.921875 C 203.613281 52.699219 204.03125 52.371094 204.40625 51.976562 C 204.832031 51.53125 205.195312 50.996094 205.488281 50.519531 C 205.710938 50.15625 205.78125 49.746094 205.71875 49.355469 Z M 201.6875 49.847656 C 201.730469 49.53125 201.863281 49.226562 202.089844 48.964844 C 202.472656 48.523438 202.582031 48.0625 202.5 47.605469 C 202.378906 46.929688 201.972656 46.277344 201.511719 45.667969 C 201.347656 45.445312 201.160156 45.21875 200.941406 45.03125 C 200.828125 44.9375 200.722656 44.8125 200.566406 44.835938 C 200.488281 44.84375 200.441406 44.929688 200.371094 44.988281 C 200.234375 45.105469 200.109375 45.242188 199.988281 45.382812 C 199.707031 45.714844 199.464844 46.070312 199.265625 46.351562 C 199.039062 46.671875 198.824219 46.984375 198.699219 47.328125 C 198.621094 47.535156 198.585938 47.757812 198.628906 48.007812 C 198.746094 48.671875 199.265625 49.265625 199.878906 49.640625 C 200.425781 49.96875 201.078125 50.152344 201.648438 49.871094 Z M 201.6875 49.847656 " fill-opacity="1" fill-rule="evenodd"/><path fill="#0e2644" d="M 204.039062 49.628906 C 203.640625 50.273438 203.101562 51.050781 202.402344 51.398438 C 200.210938 52.480469 197.34375 50.542969 196.953125 48.296875 C 196.753906 47.160156 197.238281 46.261719 197.878906 45.363281 C 198.429688 44.589844 199.304688 43.289062 200.332031 43.148438 C 201.429688 42.996094 202.273438 43.847656 202.871094 44.640625 C 204.136719 46.320312 204.925781 48.292969 203.375 50.082031 " fill-opacity="1" fill-rule="evenodd"/><path fill="#507289" d="M 112.835938 144.957031 C 109.238281 142.175781 106.933594 140.023438 105.496094 137.804688 C 103.78125 135.160156 103.417969 132.445312 103.222656 128.542969 C 103.015625 124.382812 105.355469 118.34375 108.273438 112.210938 C 113.542969 101.152344 121.015625 89.957031 122.242188 88.144531 C 123.292969 86.585938 122.886719 84.46875 121.332031 83.417969 C 119.773438 82.363281 117.65625 82.773438 116.601562 84.328125 C 115.332031 86.207031 107.589844 97.816406 102.128906 109.285156 C 98.640625 116.605469 96.175781 123.914062 96.421875 128.882812 C 96.691406 134.230469 97.433594 137.882812 99.78125 141.507812 C 101.542969 144.222656 104.273438 146.945312 108.675781 150.34375 C 110.164062 151.492188 112.304688 151.21875 113.453125 149.730469 C 114.601562 148.242188 114.324219 146.101562 112.835938 144.957031 Z M 112.835938 144.957031 " fill-opacity="1" fill-rule="evenodd"/><path fill="#507289" d="M 109.816406 151.226562 C 115.238281 155.070312 119.226562 157.21875 123.257812 158.09375 C 126.480469 158.792969 129.753906 158.710938 133.804688 157.882812 C 138.675781 156.890625 145.144531 152.683594 151.367188 147.488281 C 161.117188 139.347656 170.441406 128.960938 171.941406 127.261719 C 173.1875 125.855469 173.058594 123.703125 171.652344 122.457031 C 170.242188 121.214844 168.089844 121.34375 166.84375 122.75 C 165.394531 124.390625 156.410156 134.410156 147.003906 142.261719 C 141.792969 146.613281 136.523438 150.378906 132.441406 151.214844 C 128.710938 151.976562 125.882812 151.976562 122.894531 150.925781 C 120.183594 149.972656 117.371094 148.238281 113.753906 145.671875 C 112.21875 144.585938 110.09375 144.949219 109.007812 146.484375 C 107.921875 148.015625 108.285156 150.140625 109.816406 151.226562 Z M 109.816406 151.226562 " fill-opacity="1" fill-rule="evenodd"/></svg>