<svg xmlns="http://www.w3.org/2000/svg" xmlns:xlink="http://www.w3.org/1999/xlink" width="500" zoomAndPan="magnify" viewBox="0 0 375 374.999991" height="500" preserveAspectRatio="xMidYMid meet" version="1.0"><path fill="#0e2644" d="M 187.5 22.5 C 179.25 22.5 171.75 29.25 171.75 38.25 C 171.75 46.5 178.5 54 187.5 54 C 195.75 54 203.25 47.25 203.25 38.25 C 203.25 30 196.5 22.5 187.5 22.5 Z M 187.5 22.5 " fill-opacity="1" fill-rule="nonzero"/><path fill="#0e2644" d="M 192.75 55.5 L 182.25 55.5 C 180.75 55.5 180 56.25 180 57.75 C 180 59.25 180.75 60 182.25 60 L 192.75 60 C 194.25 60 195 59.25 195 57.75 C 195 56.25 194.25 55.5 192.75 55.5 Z M 192.75 55.5 " fill-opacity="1" fill-rule="nonzero"/><path fill="#0e2644" d="M 187.5 61.5 C 185.25 61.5 183.75 62.25 183.75 64.5 L 184.5 166.5 C 186 165.75 186.75 165 188.25 165 C 189 165 189 164.25 189.75 164.25 C 189.75 164.25 190.5 164.25 190.5 164.25 L 191.25 65.25 C 191.25 62.25 189.75 62.25 187.5 62.25 Z M 187.5 61.5 " fill-opacity="1" fill-rule="nonzero"/><path fill="#0e2644" d="M 185.25 220.5 C 186.75 219.75 189 219.75 190.5 219.75 L 190.5 209.25 C 189 209.25 186.75 210 185.25 210 L 185.25 221.25 Z M 185.25 220.5 " fill-opacity="1" fill-rule="nonzero"/><path fill="#0e2644" d="M 189 282 C 188.25 282.75 186.75 282.75 186 283.5 L 186 294 C 186 294 186 294 186.75 294 C 187.5 293.25 189 293.25 189.75 292.5 C 189.75 292.5 190.5 292.5 190.5 292.5 L 190.5 282 C 190.5 282 189.75 282 189.75 282 C 189.75 282 189 282 189 282 Z M 189 282 " fill-opacity="1" fill-rule="nonzero"/><path fill="#0e2644" d="M 185.25 307.5 L 185.25 318 C 185.25 318 186 318 186 318.75 C 186 318.75 186 318.75 186.75 319.5 C 188.25 318.75 189 318.75 189.75 318.75 L 189.75 306 C 189 306 188.25 306 188.25 306 C 187.5 306.75 186.75 307.5 185.25 308.25 Z M 185.25 307.5 " fill-opacity="1" fill-rule="nonzero"/><path fill="#0e2644" d="M 187.5 329.25 C 186.75 330 186 330 185.25 330.75 L 185.25 350.25 C 185.25 353.25 189.75 353.25 189.75 350.25 L 189.75 330 C 189 330 189 330 188.25 330 C 188.25 330 187.5 330 187.5 329.25 Z M 187.5 329.25 " fill-opacity="1" fill-rule="nonzero"/><path fill="#0e2644" d="M 189.75 257.25 C 189 257.25 189 256.5 188.25 256.5 C 187.5 256.5 186 257.25 185.25 257.25 L 185.25 269.25 C 186 269.25 186.75 270 186.75 270 C 187.5 270 189 269.25 189.75 269.25 L 189.75 257.25 C 189.75 257.25 189.75 257.25 189 257.25 Z M 189.75 257.25 " fill-opacity="1" fill-rule="nonzero"/><path fill="#0e2644" d="M 185.25 242.25 C 185.25 242.25 186 243 186 243 C 186 243 186 243 186 243.75 C 187.5 243 188.25 243 189.75 242.25 C 189.75 242.25 189.75 242.25 190.5 242.25 L 190.5 233.25 C 189 234 186.75 234 185.25 234.75 Z M 185.25 242.25 " fill-opacity="1" fill-rule="nonzero"/><path fill="#0e2644" d="M 185.25 186 L 185.25 195.75 C 186.75 195 188.25 195 189.75 194.25 C 189.75 194.25 190.5 194.25 190.5 194.25 L 190.5 184.5 C 189.75 184.5 189 184.5 188.25 184.5 C 186.75 185.25 186 185.25 184.5 186 Z M 185.25 186 " fill-opacity="1" fill-rule="nonzero"/><path fill="#0e2644" d="M 165.75 84 C 159.75 81 165 76.5 167.25 72.75 C 169.5 69 171.75 62.25 171 57.75 C 169.5 51.75 162.75 47.25 157.5 46.5 C 150 45 146.25 48 141 51.75 C 135 55.5 130.5 58.5 123.75 61.5 C 102 70.5 69 84.75 45 87 C 50.25 93.75 59.25 99.75 67.5 100.5 C 66.75 105 75 109.5 78 110.25 C 81.75 111.75 88.5 111.75 92.25 109.5 C 97.5 117.75 109.5 120.75 117.75 114 C 118.5 117.75 125.25 120 128.25 120.75 C 134.25 122.25 137.25 120 142.5 119.25 C 145.5 118.5 147 120.75 150.75 121.5 C 155.25 122.25 158.25 122.25 162 120 C 163.5 119.25 162.75 118.5 165 118.5 C 165.75 118.5 168 120 168.75 120 C 172.5 120.75 174.75 117.75 176.25 115.5 C 178.5 113.25 180 108 182.25 102 L 182.25 85.5 C 176.25 86.25 168.75 85.5 166.5 84.75 Z M 165.75 84 " fill-opacity="1" fill-rule="nonzero"/><path fill="#0e2644" d="M 234 51.75 C 228 48 224.25 45.75 217.5 46.5 C 211.5 47.25 204.75 51.75 204 57.75 C 203.25 62.25 205.5 69 207.75 72.75 C 210 76.5 215.25 81 209.25 84 C 207.75 84.75 199.5 85.5 194.25 84.75 L 194.25 102.75 C 196.5 108 198 112.5 200.25 114.75 C 202.5 117 204.75 120 207.75 119.25 C 209.25 119.25 210.75 117.75 211.5 117.75 C 213 117.75 213 117.75 214.5 119.25 C 218.25 120.75 221.25 121.5 225.75 120.75 C 229.5 120 231 117.75 234 118.5 C 239.25 120 242.25 121.5 248.25 120 C 251.25 119.25 258 117 258.75 113.25 C 266.25 120 279 117 284.25 108.75 C 288 111 294 111 298.5 109.5 C 301.5 108 309.75 104.25 309 99.75 C 317.25 99 326.25 93 331.5 86.25 C 307.5 84 274.5 69.75 252.75 60.75 C 246 57.75 241.5 54.75 235.5 51 Z M 234 51.75 " fill-opacity="1" fill-rule="nonzero"/><path fill="#0e2644" d="M 150 150.75 C 145.5 147.75 151.5 144 153.75 143.25 C 159.75 141 166.5 138.75 171.75 134.25 C 174 132.75 177 127.5 173.25 125.25 C 171 123.75 164.25 125.25 162 126 C 158.25 126.75 154.5 126.75 151.5 129 C 150 130.5 140.25 133.5 136.5 142.5 C 135 147 135.75 153 138.75 156.75 C 145.5 164.25 151.5 166.5 159 170.25 C 161.25 171 164.25 172.5 168 174 C 168.75 173.25 180 169.5 183.75 166.5 C 174 162.75 167.25 159.75 164.25 158.25 C 157.5 155.25 153 153 150 150.75 Z M 156.75 129.75 C 158.25 129.75 159 130.5 159 132 C 159 133.5 158.25 134.25 156.75 134.25 C 155.25 134.25 154.5 133.5 154.5 132 C 154.5 130.5 155.25 129.75 156.75 129.75 Z M 156.75 129.75 " fill-opacity="1" fill-rule="nonzero"/><path fill="#0e2644" d="M 191.25 325.5 C 190.5 326.25 189.75 327 189 327.75 C 189 327.75 189.75 328.5 190.5 329.25 C 196.5 336 192.75 340.5 193.5 340.5 C 193.5 340.5 195 339.75 195.75 337.5 C 196.5 335.25 195.75 330.75 193.5 327 C 193.5 326.25 192.75 325.5 192 324.75 Z M 191.25 325.5 " fill-opacity="1" fill-rule="nonzero"/><path fill="#0e2644" d="M 198 276.75 C 195.75 278.25 193.5 279.75 190.5 281.25 C 194.25 282.75 196.5 285 198 285 C 198.75 285 195.75 289.5 192.75 291.75 C 189.75 294 186.75 296.25 183.75 298.5 C 180.75 300.75 177.75 303 176.25 307.5 C 174 312 177 316.5 179.25 318.75 C 180.75 319.5 183 322.5 183.75 323.25 C 183.75 322.5 186 321.75 186 320.25 C 180 315 176.25 309 186.75 303 C 189.75 300.75 192.75 299.25 196.5 296.25 C 198 294.75 199.5 293.25 201.75 291.75 C 203.25 290.25 206.25 287.25 204 282.75 C 202.5 279 200.25 277.5 198 276 Z M 198 276.75 " fill-opacity="1" fill-rule="nonzero"/><path fill="#0e2644" d="M 206.25 228.75 C 205.5 228.75 196.5 232.5 192 234.75 C 194.25 235.5 195.75 236.25 198 236.25 C 199.5 236.25 200.25 237 201 237.75 C 201 237.75 200.25 238.5 200.25 238.5 C 198.75 240 197.25 240.75 195 241.5 C 190.5 243.75 186 246 181.5 248.25 C 177 251.25 172.5 251.25 167.25 258 C 164.25 261.75 166.5 267.75 168.75 269.25 C 171 271.5 173.25 273 174.75 274.5 C 175.5 275.25 176.25 275.25 177 276 C 179.25 273.75 182.25 273 184.5 271.5 C 182.25 270.75 180.75 269.25 178.5 267.75 C 174.75 265.5 172.5 261.75 173.25 261.75 C 174 260.25 180 257.25 183.75 255.75 C 188.25 253.5 192.75 252 197.25 249.75 C 199.5 249 202.5 247.5 204.75 245.25 C 207 243 211.5 239.25 208.5 232.5 C 207 230.25 205.5 228.75 204.75 228 Z M 206.25 228.75 " fill-opacity="1" fill-rule="nonzero"/><path fill="#0e2644" d="M 214.5 179.25 C 212.25 177.75 209.25 177 207 176.25 C 204 178.5 192.75 183 190.5 183.75 C 193.5 184.5 196.5 186 199.5 186.75 C 203.25 188.25 206.25 189 209.25 190.5 C 210 190.5 210.75 191.25 211.5 192 C 210 192.75 209.25 192.75 207.75 193.5 C 204 194.25 199.5 195.75 195 195.75 C 186.75 197.25 175.5 197.25 165.75 202.5 C 162.75 204 160.5 205.5 157.5 209.25 C 156 211.5 155.25 214.5 156.75 217.5 C 157.5 219.75 159 221.25 160.5 222.75 C 162.75 225 165.75 226.5 168 227.25 C 171 226.5 173.25 225 176.25 224.25 C 177 224.25 177.75 223.5 177.75 223.5 C 179.25 222.75 180.75 222 182.25 221.25 C 180.75 220.5 180 220.5 178.5 219.75 C 174 218.25 169.5 216 167.25 213.75 C 168 213 168.75 212.25 170.25 211.5 C 177.75 207.75 186.75 207.75 196.5 206.25 C 201 205.5 205.5 204.75 210.75 203.25 C 213 202.5 215.25 201.75 217.5 201 C 221.25 199.5 224.25 197.25 225.75 192.75 C 228 185.25 216 179.25 213.75 178.5 Z M 214.5 179.25 " fill-opacity="1" fill-rule="nonzero"/><path fill="#0e2644" d="M 193.5 300.75 C 192 302.25 189.75 303.75 189 304.5 C 203.25 312.75 185.25 320.25 182.25 327.75 C 180 331.5 179.25 335.25 180 338.25 C 180.75 340.5 182.25 341.25 182.25 341.25 C 183 341.25 179.25 336 185.25 330 C 187.5 327 192 324 196.5 319.5 C 198.75 317.25 201.75 312.75 199.5 308.25 C 198 305.25 195.75 303 193.5 300.75 Z M 193.5 300.75 " fill-opacity="1" fill-rule="nonzero"/><path fill="#0e2644" d="M 200.25 251.25 C 200.25 251.25 193.5 255 190.5 256.5 C 194.25 258 199.5 261 200.25 262.5 C 201.75 262.5 198.75 266.25 195 268.5 C 191.25 270.75 187.5 273 183.75 275.25 C 180 277.5 174 277.5 171.75 284.25 C 170.25 288.75 173.25 291 174 293.25 C 175.5 295.5 177 296.25 179.25 297.75 C 180 298.5 180.75 298.5 181.5 299.25 C 183.75 297.75 185.25 297 187.5 295.5 C 186 294.75 185.25 294 183.75 292.5 C 180.75 291 178.5 286.5 178.5 285.75 C 179.25 285 183 282.75 187.5 280.5 C 191.25 278.25 195.75 276.75 200.25 273.75 C 202.5 272.25 204.75 270.75 206.25 268.5 C 208.5 266.25 210.75 261 207.75 257.25 C 205.5 253.5 203.25 252 201 250.5 Z M 200.25 251.25 " fill-opacity="1" fill-rule="nonzero"/><path fill="#0e2644" d="M 213.75 204.75 C 210.75 206.25 198 208.5 195 209.25 C 198 210 201.75 210.75 204 212.25 C 205.5 213 206.25 213.75 207 214.5 C 204.75 216.75 200.25 219 195.75 220.5 C 191.25 222 186.75 223.5 181.5 225 C 179.25 225.75 176.25 226.5 174 227.25 C 171.75 228 168 228 165 233.25 C 161.25 239.25 166.5 243.75 168.75 246 C 171 247.5 173.25 249 174.75 249.75 C 178.5 248.25 182.25 246.75 185.25 245.25 C 185.25 245.25 186 245.25 186 244.5 C 183.75 243.75 181.5 242.25 180 241.5 C 177.75 240 176.25 239.25 174.75 238.5 C 174 238.5 174 237.75 174 237.75 C 174.75 237.75 175.5 237 177 236.25 C 179.25 235.5 181.5 234.75 184.5 234 C 189 232.5 194.25 231.75 199.5 229.5 C 204.75 228 209.25 225.75 214.5 222 C 216 220.5 217.5 219 218.25 216.75 C 219 214.5 219 210.75 217.5 208.5 C 216 207 215.25 205.5 213.75 204.75 Z M 213.75 204.75 " fill-opacity="1" fill-rule="nonzero"/><path fill="#0e2644" d="M 223.5 129 C 220.5 126.75 216 126.75 213 126 C 210.75 126 204 123.75 201.75 125.25 C 198.75 127.5 201.75 132.75 203.25 134.25 C 208.5 138.75 215.25 141 221.25 143.25 C 223.5 144 229.5 147 225 150.75 C 222 153 217.5 155.25 210.75 158.25 C 207 159.75 200.25 162.75 189.75 167.25 C 184.5 169.5 178.5 171.75 171.75 174 C 168.75 174.75 164.25 176.25 160.5 178.5 C 158.25 179.25 146.25 185.25 148.5 192.75 C 150 198 153 199.5 156.75 201 C 158.25 201.75 159.75 201.75 161.25 202.5 C 161.25 202.5 162 201.75 162 201.75 C 166.5 198.75 171 195.75 175.5 193.5 C 172.5 192.75 169.5 192 166.5 191.25 C 165 191.25 164.25 190.5 162.75 189.75 C 163.5 189 164.25 189 165 188.25 C 168 186.75 171 186 174.75 184.5 C 181.5 182.25 187.5 180 192.75 177.75 C 203.25 173.25 210.75 170.25 214.5 168.75 C 222 165 228.75 162.75 234.75 155.25 C 237.75 151.5 238.5 145.5 237 141 C 233.25 132 224.25 129 222 127.5 Z M 216.75 129.75 C 218.25 129.75 219 130.5 219 132 C 219 133.5 218.25 134.25 216.75 134.25 C 215.25 134.25 214.5 133.5 214.5 132 C 214.5 130.5 215.25 129.75 216.75 129.75 Z M 216.75 129.75 " fill-opacity="1" fill-rule="nonzero"/></svg>