<svg width="88" height="126" viewBox="0 0 88 126" fill="none" xmlns="http://www.w3.org/2000/svg">
<mask id="mask0_476_47" style="mask-type:luminance" maskUnits="userSpaceOnUse" x="0" y="0" width="86" height="126">
<path d="M85.0008 0H0V125.16H85.0008V0Z" fill="white"/>
</mask>
<g mask="url(#mask0_476_47)">
<path d="M-684.313 98.6294L-684.646 99.0024C-685.153 98.5496 -685.652 98.0914 -686.142 97.6274L-685.797 97.2642V97.2632C-686.289 96.7969 -686.771 96.3254 -687.243 95.8481V95.8491L-687.599 96.2007C-688.077 95.7168 -688.546 95.2277 -689.005 94.7329L-688.638 94.3931V94.3921C-689.098 93.8959 -689.547 93.3941 -689.985 92.8872V92.8882L-690.363 93.2153C-690.81 92.6992 -691.246 92.1778 -691.671 91.6509L-691.281 91.3374V91.3364C-691.705 90.8108 -692.117 90.2796 -692.518 89.7437L-692.519 89.7446L-692.919 90.0444C-693.328 89.498 -693.724 88.9461 -694.109 88.3892L-693.698 88.105V88.104C-694.083 87.5475 -694.455 86.986 -694.815 86.4194V86.4204L-695.237 86.689C-695.603 86.114 -695.955 85.5337 -696.295 84.9487L-695.863 84.6978L-695.862 84.6968C-696.202 84.1123 -696.529 83.5232 -696.842 82.9292V82.9302L-697.284 83.1636C-697.602 82.56 -697.907 81.9515 -698.198 81.3384L-697.746 81.1235V81.1226C-698.035 80.5136 -698.309 79.8997 -698.57 79.2817L-698.571 79.2827L-699.032 79.4771C-699.297 78.8489 -699.548 78.2157 -699.784 77.5786L-699.315 77.4048V77.4038C-699.55 76.7719 -699.77 76.1359 -699.975 75.4956V75.4966L-700.451 75.6479C-700.659 74.9994 -700.85 74.3466 -701.027 73.6899L-700.545 73.5601L-700.544 73.5591C-700.719 72.9089 -700.879 72.2549 -701.023 71.5972L-701.024 71.5981L-701.513 71.7056C-701.659 71.041 -701.789 70.3725 -701.903 69.7007L-701.41 69.6167L-701.409 69.6157C-701.522 68.9531 -701.619 68.2871 -701.7 67.6177V67.6187L-702.197 67.6792C-702.279 67.0038 -702.344 66.3249 -702.394 65.6431L-701.895 65.6069V65.606C-701.943 64.9377 -701.974 64.2664 -701.99 63.5923L-701.992 63.5933L-702.491 63.605C-702.499 63.264 -702.504 62.922 -702.504 62.5796L-702.491 61.5542L-701.992 61.5669H-701.99C-701.974 60.8925 -701.943 60.2208 -701.895 59.5522L-702.394 59.5161C-702.344 58.8346 -702.279 58.1561 -702.197 57.481L-701.7 57.5405C-701.619 56.8711 -701.522 56.2051 -701.409 55.5425H-701.41L-701.903 55.4595C-701.789 54.7877 -701.659 54.119 -701.513 53.4546L-701.024 53.562H-701.023C-700.879 52.9043 -700.72 52.2502 -700.545 51.6001L-701.027 51.4702C-700.85 50.8133 -700.659 50.1599 -700.451 49.5112L-699.975 49.6636C-699.77 49.023 -699.55 48.3866 -699.315 47.7544L-699.785 47.5806C-699.549 46.9434 -699.297 46.3103 -699.032 45.6821L-698.572 45.8774H-698.571C-698.31 45.2592 -698.036 44.6449 -697.747 44.0356L-698.198 43.8218C-697.907 43.2087 -697.602 42.6001 -697.284 41.9966L-696.842 42.229C-696.529 41.6354 -696.203 41.0465 -695.863 40.4624L-696.296 40.2104C-695.956 39.6254 -695.603 39.0452 -695.237 38.4702L-694.815 38.7388C-694.456 38.1726 -694.084 37.6113 -693.699 37.0552L-694.11 36.771C-693.725 36.2139 -693.328 35.6614 -692.919 35.1147L-692.519 35.4146C-692.118 34.8785 -691.705 34.3475 -691.281 33.8218H-691.282L-691.671 33.5083C-691.246 32.9815 -690.811 32.4599 -690.364 31.9438L-689.986 32.271C-689.548 31.7641 -689.097 31.2633 -688.638 30.7671L-688.639 30.7661L-689.005 30.4263C-688.546 29.9315 -688.077 29.4423 -687.599 28.9585L-687.243 29.3101C-686.771 28.833 -686.289 28.3612 -685.798 27.895L-686.142 27.5317C-685.652 27.0678 -685.153 26.6096 -684.646 26.1567L-684.313 26.5288C-683.814 26.0832 -683.304 25.644 -682.786 25.2095L-683.107 24.8267C-682.589 24.3917 -682.062 23.9622 -681.526 23.5386L-681.217 23.9302C-680.693 23.5156 -680.16 23.1071 -679.619 22.7036L-679.919 22.3032C-679.378 21.8992 -678.828 21.5005 -678.271 21.1079L-677.982 21.5171C-677.435 21.1314 -676.88 20.7509 -676.317 20.3765L-676.594 19.9595C-676.033 19.5862 -675.464 19.2188 -674.889 18.8569L-674.623 19.2798V19.2808C-674.054 18.9231 -673.478 18.5703 -672.896 18.2241L-673.15 17.7944C-672.572 17.451 -671.987 17.1136 -671.396 16.7817L-671.151 17.2173C-670.566 16.8887 -669.973 16.5665 -669.375 16.2495L-669.608 15.8071C-669.014 15.4921 -668.413 15.1829 -667.806 14.8794L-667.582 15.3257V15.3267C-666.982 15.0267 -666.376 14.7322 -665.765 14.4438L-665.978 13.9917C-665.367 13.704 -664.751 13.422 -664.13 13.146L-663.927 13.603C-663.315 13.3312 -662.697 13.0654 -662.074 12.8052V12.8042L-662.268 12.3433C-661.644 12.0828 -661.015 11.8283 -660.381 11.5796L-660.198 12.0444V12.0454C-659.576 11.8011 -658.948 11.5623 -658.315 11.3296V11.3286L-658.488 10.8599C-657.854 10.6264 -657.214 10.3989 -656.57 10.1772L-656.407 10.6499C-655.775 10.4323 -655.138 10.2211 -654.497 10.0151V10.0142L-654.649 9.53857C-654.006 9.33202 -653.359 9.13077 -652.707 8.93604L-652.564 9.41553C-651.923 9.22381 -651.277 9.03795 -650.627 8.85791L-650.76 8.37549C-650.109 8.19537 -649.455 8.02132 -648.797 7.85303L-648.673 8.3374C-648.024 8.17143 -647.371 8.01119 -646.714 7.85693L-646.828 7.37061C-646.171 7.21639 -645.511 7.06766 -644.847 6.92529L-644.743 7.41357C-644.087 7.27289 -643.428 7.13818 -642.765 7.00928L-642.859 6.51904C-642.198 6.39038 -641.533 6.26769 -640.864 6.15088L-640.778 6.64307C-640.117 6.5275 -639.453 6.41772 -638.785 6.31396L-638.862 5.81982C-638.196 5.71633 -637.527 5.61946 -636.855 5.52783L-636.787 6.02295C-636.122 5.93224 -635.454 5.84791 -634.783 5.76904V5.76807L-634.842 5.27197C-634.173 5.19329 -633.501 5.12003 -632.826 5.05322L-632.776 5.55127C-632.109 5.48515 -631.438 5.42391 -630.766 5.36963L-630.805 4.87158C-630.133 4.81741 -629.459 4.76933 -628.782 4.72705L-628.751 5.22607V5.22705C-628.081 5.18517 -627.408 5.14867 -626.733 5.11865L-626.756 4.61865C-626.083 4.58871 -625.407 4.56442 -624.729 4.54639L-624.716 5.04639C-624.045 5.02854 -623.372 5.01624 -622.697 5.01025L-622.701 4.51123C-622.362 4.50822 -622.023 4.50635 -621.683 4.50635H-620.681V5.00635H-618.677V4.50635H-616.673V5.00635H-614.669V4.50635H-612.665V5.00635H-610.661V4.50635H-608.657V5.00635H-606.654V4.50635H-604.65V5.00635H-602.646V4.50635H-600.643V5.00635H-598.639V4.50635H-596.635V5.00635H-594.631V4.50635H-592.627V5.00635H-590.623V4.50635H-588.62V5.00635H-586.616V4.50635H-584.612V5.00635H-582.608V4.50635H-580.604V5.00635H-578.601V4.50635H-576.597V5.00635H-574.593V4.50635H-572.589V5.00635H-570.586V4.50635H-568.582V5.00635H-566.578V4.50635H-564.574V5.00635H-562.57V4.50635H-560.566V5.00635H-558.562V4.50635H-556.559V5.00635H-554.556V4.50635H-552.552V5.00635H-550.548V4.50635H-548.544V5.00635H-546.54V4.50635H-544.536V5.00635H-542.532V4.50635H-540.528V5.00635H-538.524V4.50635H-536.521V5.00635H-534.518V4.50635H-532.514V5.00635H-530.51V4.50635H-528.506V5.00635H-526.502V4.50635H-524.498V5.00635H-522.494V4.50635H-520.49V5.00635H-518.486V4.50635H-516.483V5.00635H-514.479V4.50635H-512.476V5.00635H-510.472V4.50635H-508.468V5.00635H-506.464V4.50635H-504.46V5.00635H-502.456V4.50635H-500.452V5.00635H-498.449V4.50635H-496.445V5.00635H-494.441V4.50635H-492.438V5.00635H-490.434V4.50635H-488.43V5.00635H-486.426V4.50635H-484.422V5.00635H-482.418V4.50635H-480.415V5.00635H-478.411V4.50635H-476.407V5.00635H-474.403V4.50635H-472.399V5.00635H-470.396V4.50635H-468.392V5.00635H-466.388V4.50635H-464.384V5.00635H-462.381V4.50635H-460.377V5.00635H-458.373V4.50635H-456.369V5.00635H-454.365V4.50635H-452.361V5.00635H-450.357V4.50635H-448.354V5.00635H-446.35V4.50635H-444.347V5.00635H-442.343V4.50635H-440.339V5.00635H-438.335V4.50635H-436.331V5.00635H-434.327V4.50635H-432.323V5.00635H-430.319V4.50635H-428.315V5.00635H-426.312V4.50635H-424.309V5.00635H-422.305V4.50635H-420.301V5.00635H-418.297V4.50635H-416.293V5.00635H-414.289V4.50635H-412.285V5.00635H-410.281V4.50635H-408.277V5.00635H-406.274V4.50635H-404.271V5.00635H-402.267V4.50635H-400.263V5.00635H-398.259V4.50635H-396.255V5.00635H-394.251V4.50635H-392.247V5.00635H-390.243V4.50635H-388.24V5.00635H-386.236V4.50635H-384.232V5.00635H-382.229V4.50635H-380.225V5.00635H-378.221V4.50635H-376.217V5.00635H-374.213V4.50635H-372.209V5.00635H-370.206V4.50635H-368.202V5.00635H-366.198V4.50635H-364.194V5.00635H-362.19V4.50635H-360.187V5.00635H-358.183V4.50635H-356.179V5.00635H-354.176V4.50635H-352.172V5.00635H-350.168V4.50635H-348.164V5.00635H-346.16V4.50635H-344.156V5.00635H-342.152V4.50635H-340.148V5.00635H-338.146V4.50635H-336.142V5.00635H-334.138V4.50635H-332.134V5.00635H-330.13V4.50635H-328.126V5.00635H-326.122V4.50635H-324.118V5.00635H-322.115V4.50635H-320.111V5.00635H-318.107V4.50635H-316.104V5.00635H-314.1V4.50635H-312.096V5.00635H-310.092V4.50635H-308.088V5.00635H-306.085V4.50635H-304.081V5.00635H-302.077V4.50635H-300.073V5.00635H-298.069V4.50635H-296.065V5.00635H-294.062V4.50635H-292.058V5.00635H-290.054V4.50635H-288.051V5.00635H-286.047V4.50635H-284.043V5.00635H-282.039V4.50635H-280.035V5.00635H-278.031V4.50635H-276.027V5.00635H-274.024V4.50635H-272.021V5.00635H-270.017V4.50635H-268.013V5.00635H-266.009V4.50635H-264.005V5.00635H-262.001V4.50635H-259.997V5.00635H-257.993V4.50635H-255.99V5.00635H-253.986V4.50635H-251.982V5.00635H-249.979V4.50635H-247.975V5.00635H-245.971V4.50635H-243.967V5.00635H-241.964V4.50635H-239.96V5.00635H-237.956V4.50635H-235.952V5.00635H-233.948V4.50635H-231.944V5.00635H-229.94V4.50635H-227.937V5.00635H-225.933V4.50635H-223.93V5.00635H-221.926V4.50635H-219.922V5.00635H-217.918V4.50635H-215.914V5.00635H-213.91V4.50635H-211.906V5.00635H-209.903V4.50635H-207.899V5.00635H-205.896V4.50635H-203.892V5.00635H-201.888V4.50635H-199.884V5.00635H-197.88V4.50635H-195.876V5.00635H-193.872V4.50635H-191.869V5.00635H-189.865V4.50635H-187.861V5.00635H-185.857V4.50635H-183.854V5.00635H-181.85V4.50635H-179.846V5.00635H-177.843V4.50635H-175.839V5.00635H-173.835V4.50635H-171.831V5.00635H-169.827V4.50635H-167.823V5.00635H-165.819V4.50635H-163.815V5.00635H-161.812V4.50635H-159.809V5.00635H-157.805V4.50635H-155.801V5.00635H-153.797V4.50635H-151.793V5.00635H-149.789V4.50635H-147.785V5.00635H-145.782V4.50635H-143.778V5.00635H-141.774V4.50635H-139.771V5.00635H-137.767V4.50635H-135.763V5.00635H-133.759V4.50635H-131.755V5.00635H-129.751V4.50635H-127.748V5.00635H-125.744V4.50635H-123.74V5.00635H-121.736V4.50635H-119.732V5.00635H-117.729V4.50635H-115.725V5.00635H-113.721V4.50635H-111.718V5.00635H-109.714V4.50635H-107.71V5.00635H-105.706V4.50635H-103.702V5.00635H-101.698V4.50635H-99.6943V5.00635H-97.6914V4.50635H-95.6875V5.00635H-93.6836V4.50635H-91.6797V5.00635H-89.6758V4.50635H-87.6719V5.00635H-85.668V4.50635H-83.6641V5.00635H-81.6602V4.50635H-79.6572V5.00635H-77.6533V4.50635H-75.6494V5.00635H-73.6455V4.50635H-71.6416V5.00635H-69.6377V4.50635H-67.6338V5.00635H-65.6309V4.50635H-63.627V5.00635H-61.623V4.50635H-59.6191V5.00635H-57.6152V4.50635H-55.6113V5.00635H-53.6074V4.50635H-51.6035V5.00635H-49.5996V4.50635H-47.5967V5.00635H-45.5928V4.50635H-43.5889V5.00635H-41.585V4.50635H-39.5811V5.00635H-37.5771V4.50635H-35.5732V5.00635H-33.5703V4.50635H-31.5664V5.00635H-29.5625V4.50635H-27.5586V5.00635H-25.5547V4.50635H-23.5508V5.00635H-21.5469V4.50635H-19.543V5.00635H-17.5391V4.50635H-15.5361V5.00635H-13.5322V4.50635H-11.5283V5.00635H-9.52441V4.50635H-7.52051V5.00635H-5.5166V4.50635H-3.5127V5.00635H-1.50977V4.50635H0.494141V5.00635H2.49805V4.50635H4.50195V5.00635H6.50586V4.50635H7.51074C7.78176 4.50686 8.05236 4.51231 8.32227 4.52295L8.30273 5.02197C8.83363 5.0429 9.3617 5.08451 9.88477 5.14502H9.88574L9.94238 4.64795C10.4838 4.71059 11.0209 4.79455 11.5498 4.89795L11.4531 5.38818H11.4521C11.9755 5.49046 12.4915 5.61203 12.9971 5.75439L13.1328 5.27393C13.264 5.31086 13.3946 5.34961 13.5244 5.38916L13.9121 5.51123C14.3903 5.66816 14.8564 5.84235 15.3076 6.03271L15.1133 6.49365L15.1123 6.49463C16.0313 6.88229 16.8874 7.338 17.665 7.85498H17.666L17.9434 7.43896C18.3667 7.72048 18.7685 8.02007 19.1465 8.33643L19.9277 8.98486L19.6084 9.36963H19.6074L21.1699 10.6665L21.4893 10.2827L23.0518 11.5806L22.7324 11.9644H22.7314L24.293 13.2622L24.6143 12.8774L26.1758 14.1753L25.8555 14.5601L27.418 15.8579L27.7383 15.4731L29.3008 16.771L28.9805 17.1548L30.542 18.4526H30.543L30.8623 18.0679L32.4248 19.3657L32.1055 19.7505H32.1045L33.667 21.0474L33.9863 20.6636L35.5488 21.9614L35.2295 22.3452L36.79 23.6431L37.1113 23.2593L38.6729 24.5562L38.3525 24.9409L39.915 26.2388L40.2354 25.854L41.7979 27.1519L41.4775 27.5356L43.0391 28.8335H43.04L43.3594 28.4497L44.9219 29.7466L44.6025 30.1313H44.6016L46.1641 31.4282L46.4834 31.0444L48.0459 32.3423L47.7256 32.7271L49.2871 34.0239L49.6084 33.6401L51.1699 34.937L50.8496 35.3218L52.4121 36.6196H52.4131L52.7324 36.2349L54.2949 37.5327L53.9746 37.9165L55.5371 39.2144L55.8564 38.8306L57.4189 40.1274L57.0996 40.5122H57.0986L58.6602 41.8101L58.9805 41.4253L60.543 42.7231L60.2227 43.1079L61.7852 44.4048L62.1055 44.021L63.667 45.3188L63.3477 45.7026H63.3467L64.9092 47.0005H64.9102L65.2295 46.6157L66.792 47.9136L66.4717 48.2974L68.0342 49.5952L68.3535 49.2114L69.916 50.5093L69.5967 50.8931H69.5957L71.1572 52.1909L71.4775 51.8062L73.04 53.104L72.7197 53.4888L74.2822 54.7856L74.6025 54.4019L75.3828 55.0503L75.3848 55.0513C75.6594 55.281 75.9199 55.5187 76.167 55.7622L75.8164 56.1177L75.8145 56.1187C76.3138 56.6106 76.75 57.1298 77.124 57.6685L77.1279 57.6665L77.5391 57.3813C77.9566 57.9827 78.2989 58.6114 78.5625 59.2593L78.0996 59.4478L78.0967 59.4487C78.356 60.0862 78.534 60.7402 78.624 61.4048H78.626L79.1211 61.3384C79.1573 61.6062 79.1808 61.8755 79.1904 62.146L79.1953 62.4175C79.1961 62.7788 79.1728 63.1386 79.126 63.4956L78.6299 63.4312L78.6279 63.4302C78.5408 64.095 78.3659 64.7492 78.1094 65.3872L78.1123 65.3892L78.5762 65.5757C78.3154 66.2241 77.9755 66.8533 77.5605 67.4556L77.1484 67.1724L77.1455 67.1704C76.7737 67.71 76.3382 68.229 75.8408 68.7222L75.8428 68.7241L76.1953 69.0796C75.9492 69.3237 75.6888 69.5611 75.415 69.7915L75.4141 69.7925L74.6318 70.4458L74.3115 70.062L74.3105 70.061L72.748 71.3667L72.749 71.3677L73.0693 71.7515L71.5059 73.0571L71.1855 72.6733L71.1846 72.6724L69.6221 73.978L69.623 73.979L69.9434 74.3628L68.3799 75.6685L68.0596 75.2847L66.4961 76.5894L66.4971 76.5903L66.8174 76.9741L65.2549 78.2798L64.9336 77.896L63.3711 79.2017L63.6914 79.5854L62.1289 80.8911L61.8076 80.5083L61.8066 80.5073L60.2441 81.813L60.2451 81.814L60.5654 82.1978L59.0029 83.5034L58.6816 83.1196L58.6807 83.1187L57.1182 84.4243L57.1191 84.4253L57.4395 84.8091L55.877 86.1147L55.5566 85.731L55.5557 85.73L53.9932 87.0366L54.3135 87.4204L52.751 88.7261L52.4307 88.3423L52.4297 88.3413L50.8672 89.6479L51.1875 90.0317L49.625 91.3374L49.3047 90.9536L47.7402 92.2593L47.7412 92.2603L48.0625 92.6431L46.499 93.9497L46.1787 93.5659L46.1777 93.5649L44.6143 94.8706L44.6152 94.8716L44.9365 95.2554L43.373 96.561L43.0527 96.1772L43.0518 96.1763L41.4893 97.4829L41.8105 97.8667L40.2471 99.1724L39.9268 98.7886L38.3633 100.093L38.3643 100.094L38.6846 100.478L37.1211 101.784L36.8008 101.4L35.2383 102.706L35.5586 103.089L33.9951 104.395L33.6748 104.012L33.6738 104.011L32.1113 105.317L32.1123 105.318L32.4326 105.702L30.8701 107.007L30.5488 106.624L30.5479 106.623L28.9854 107.928L28.9863 107.929L29.3066 108.313L27.7441 109.619L27.4229 109.235L25.8604 110.541L26.1807 110.924L24.6182 112.23L24.2969 111.846L22.7344 113.152L23.0547 113.536L21.4922 114.841L21.1709 114.458L19.6074 115.763L19.6084 115.764L19.9287 116.147L19.1475 116.8C18.7694 117.118 18.3672 117.42 17.9434 117.703L17.665 117.287C16.8864 117.807 16.0288 118.266 15.1074 118.656L15.1084 118.657L15.3027 119.117C14.8507 119.308 14.3844 119.483 13.9053 119.641C13.6475 119.726 13.3863 119.806 13.123 119.88L12.9873 119.399C12.4804 119.542 11.9633 119.665 11.4385 119.768L11.5352 120.259C11.0047 120.363 10.4668 120.447 9.92383 120.51L9.86621 120.013L9.86523 120.012C9.34088 120.073 8.81156 120.115 8.2793 120.136L8.29883 120.636C8.02798 120.647 7.75635 120.652 7.48438 120.653H6.48145V120.153H4.47754V120.653H2.47363V120.153H0.469727V120.653H-1.53418V120.153H-3.53711V120.653H-5.54102V120.153H-7.54492V120.653H-9.54883V120.153H-11.5527V120.653H-13.5557V120.153H-15.5596V120.653H-17.5635V120.153H-19.5674V120.653H-21.5713V120.153H-23.5742V120.653H-25.5781V120.153H-27.582V120.653H-29.5859V120.153H-31.5898V120.653H-33.5928V120.153H-35.5967V120.653H-37.6006V120.153H-39.6045V120.653H-41.6084V120.153H-43.6113V120.653H-45.6152V120.153H-47.6191V120.653H-49.623V120.153H-51.627V120.653H-53.6299V120.153H-55.6338V120.653H-57.6377V120.153H-59.6416V120.653H-61.6455V120.153H-63.6484V120.653H-65.6523V120.153H-67.6562V120.653H-69.6602V120.153H-71.6641V120.653H-73.667V120.153H-75.6709V120.653H-77.6748V120.153H-79.6787V120.653H-81.6816V120.153H-83.6855V120.653H-85.6895V120.153H-87.6934V120.653H-89.6973V120.153H-91.7002V120.653H-93.7041V120.153H-95.708V120.653H-97.7119V120.153H-99.7158V120.653H-101.719V120.153H-103.723V120.653H-105.727V120.153H-107.73V120.653H-109.734V120.153H-111.737V120.653H-113.741V120.153H-115.745V120.653H-117.749V120.153H-119.753V120.653H-121.756V120.153H-123.76V120.653H-125.764V120.153H-127.768V120.653H-129.771V120.153H-131.774V120.653H-133.778V120.153H-135.782V120.653H-137.786V120.153H-139.79V120.653H-141.793V120.153H-143.797V120.653H-145.801V120.153H-147.805V120.653H-149.809V120.153H-151.812V120.653H-153.815V120.153H-155.819V120.653H-157.823V120.153H-159.827V120.653H-161.83V120.153H-163.834V120.653H-165.838V120.153H-167.842V120.653H-169.846V120.153H-171.849V120.653H-173.853V120.153H-175.856V120.653H-177.86V120.153H-179.864V120.653H-181.867V120.153H-183.871V120.653H-185.875V120.153H-187.879V120.653H-189.883V120.153H-191.886V120.653H-193.89V120.153H-195.894V120.653H-197.897V120.153H-199.901V120.653H-201.904V120.153H-203.908V120.653H-205.912V120.153H-207.916V120.653H-209.92V120.153H-211.923V120.653H-213.927V120.153H-215.931V120.653H-217.935V120.153H-219.938V120.653H-221.941V120.153H-223.945V120.653H-225.949V120.153H-227.953V120.653H-229.956V120.153H-231.96V120.653H-233.964V120.153H-235.968V120.653H-237.972V120.153H-239.975V120.653H-241.979V120.153H-243.982V120.653H-245.986V120.153H-247.99V120.653H-249.993V120.153H-251.997V120.653H-254.001V120.153H-256.005V120.653H-258.009V120.153H-260.012V120.653H-262.016V120.153H-264.02V120.653H-266.023V120.153H-268.027V120.653H-270.031V120.153H-272.034V120.653H-274.038V120.153H-276.042V120.653H-278.046V120.153H-280.05V120.653H-282.053V120.153H-284.057V120.653H-286.061V120.153H-288.064V120.653H-290.068V120.153H-292.072V120.653H-294.075V120.153H-296.079V120.653H-298.083V120.153H-300.087V120.653H-302.091V120.153H-304.094V120.653H-306.098V120.153H-308.102V120.653H-310.105V120.153H-312.109V120.653H-314.112V120.153H-316.116V120.653H-318.12V120.153H-320.124V120.653H-322.128V120.153H-324.132V120.653H-326.135V120.153H-328.139V120.653H-330.143V120.153H-332.146V120.653H-334.15V120.153H-336.153V120.653H-338.157V120.153H-340.161V120.653H-342.165V120.153H-344.169V120.653H-346.172V120.153H-348.176V120.653H-350.18V120.153H-352.184V120.653H-354.188V120.153H-356.19V120.653H-358.194V120.153H-360.198V120.653H-362.202V120.153H-364.206V120.653H-366.21V120.153H-368.213V120.653H-370.217V120.153H-372.221V120.653H-374.225V120.153H-376.229V120.653H-378.231V120.153H-380.235V120.653H-382.239V120.153H-384.243V120.653H-386.247V120.153H-388.25V120.653H-390.254V120.153H-392.258V120.653H-394.262V120.153H-396.266V120.653H-398.27V120.153H-400.272V120.653H-402.276V120.153H-404.28V120.653H-406.284V120.153H-408.288V120.653H-410.291V120.153H-412.295V120.653H-414.299V120.153H-416.303V120.653H-418.307V120.153H-420.31V120.653H-422.313V120.153H-424.317V120.653H-426.321V120.153H-428.325V120.653H-430.329V120.153H-432.332V120.653H-434.336V120.153H-436.34V120.653H-438.344V120.153H-440.348V120.653H-442.351V120.153H-444.354V120.653H-446.358V120.153H-448.362V120.653H-450.366V120.153H-452.369V120.653H-454.373V120.153H-456.377V120.653H-458.381V120.153H-460.385V120.653H-462.389V120.153H-464.392V120.653H-466.396V120.153H-468.399V120.653H-470.403V120.153H-472.407V120.653H-474.41V120.153H-476.414V120.653H-478.418V120.153H-480.422V120.653H-482.426V120.153H-484.429V120.653H-486.433V120.153H-488.437V120.653H-490.44V120.153H-492.444V120.653H-494.448V120.153H-496.451V120.653H-498.455V120.153H-500.459V120.653H-502.463V120.153H-504.467V120.653H-506.47V120.153H-508.474V120.653H-510.478V120.153H-512.481V120.653H-514.485V120.153H-516.488V120.653H-518.492V120.153H-520.496V120.653H-522.5V120.153H-524.504V120.653H-526.508V120.153H-528.511V120.653H-530.515V120.153H-532.519V120.653H-534.522V120.153H-536.526V120.653H-538.529V120.153H-540.533V120.653H-542.537V120.153H-544.541V120.653H-546.545V120.153H-548.548V120.653H-550.552V120.153H-552.556V120.653H-554.56V120.153H-556.563V120.653H-558.567V120.153H-560.57V120.653H-562.574V120.153H-564.578V120.653H-566.582V120.153H-568.586V120.653H-570.589V120.153H-572.593V120.653H-574.597V120.153H-576.601V120.653H-578.604V120.153H-580.607V120.653H-582.611V120.153H-584.615V120.653H-586.619V120.153H-588.623V120.653H-590.627V120.153H-592.63V120.653H-594.634V120.153H-596.638V120.653H-598.642V120.153H-600.646V120.653H-602.648V120.153H-604.652V120.653H-606.656V120.153H-608.66V120.653H-610.664V120.153H-612.667V120.653H-614.671V120.153H-616.675V120.653H-618.679V120.153H-620.683V120.653H-621.683C-622.023 120.653 -622.362 120.652 -622.701 120.649L-622.697 120.149C-623.372 120.143 -624.045 120.13 -624.716 120.112V120.113L-624.729 120.613C-625.407 120.595 -626.083 120.57 -626.756 120.541L-626.733 120.042V120.041C-627.408 120.011 -628.081 119.974 -628.751 119.932V119.933L-628.782 120.432C-629.459 120.39 -630.133 120.342 -630.805 120.288L-630.765 119.79V119.789C-631.438 119.734 -632.108 119.673 -632.776 119.607V119.609L-632.826 120.106C-633.501 120.039 -634.173 119.967 -634.842 119.888L-634.783 119.391V119.39C-635.454 119.311 -636.122 119.227 -636.787 119.136V119.137L-636.855 119.632C-637.527 119.541 -638.196 119.443 -638.862 119.339L-638.785 118.845V118.844C-639.453 118.74 -640.118 118.632 -640.779 118.516L-640.864 119.009C-641.533 118.892 -642.198 118.769 -642.859 118.64L-642.764 118.15V118.149C-643.427 118.02 -644.086 117.885 -644.742 117.745V117.746L-644.847 118.234C-645.51 118.092 -646.171 117.944 -646.827 117.79L-646.713 117.302V117.301C-647.37 117.147 -648.023 116.987 -648.673 116.821V116.822L-648.797 117.306C-649.455 117.138 -650.109 116.964 -650.76 116.784L-650.627 116.302V116.3C-651.277 116.12 -651.922 115.934 -652.563 115.743V115.745L-652.707 116.223C-653.359 116.028 -654.006 115.828 -654.649 115.622L-654.496 115.145V115.144C-655.138 114.938 -655.776 114.727 -656.408 114.509L-656.57 114.982C-657.214 114.76 -657.854 114.533 -658.488 114.299L-658.315 113.831V113.829C-658.948 113.596 -659.576 113.358 -660.198 113.114V113.115L-660.381 113.58C-661.015 113.331 -661.643 113.076 -662.267 112.816L-662.074 112.355V112.353C-662.697 112.093 -663.315 111.827 -663.927 111.555V111.556L-664.13 112.013C-664.751 111.737 -665.367 111.455 -665.978 111.167L-665.764 110.715H-665.765C-666.376 110.427 -666.981 110.132 -667.581 109.833V109.833L-667.805 110.281C-668.412 109.977 -669.013 109.667 -669.608 109.352L-669.374 108.911V108.909C-669.972 108.592 -670.565 108.269 -671.15 107.941V107.942L-671.396 108.377C-671.987 108.046 -672.572 107.708 -673.15 107.365L-672.895 106.935V106.933C-673.477 106.587 -674.053 106.236 -674.622 105.878V105.879L-674.889 106.302C-675.464 105.94 -676.033 105.573 -676.594 105.2L-676.316 104.783H-676.317C-676.88 104.408 -677.434 104.027 -677.981 103.641L-677.982 103.643L-678.271 104.051C-678.828 103.659 -679.377 103.26 -679.918 102.856L-679.619 102.456V102.455C-680.16 102.051 -680.692 101.642 -681.216 101.228V101.229L-681.526 101.621C-682.062 101.197 -682.589 100.768 -683.107 100.333L-682.786 99.9497V99.9487C-683.304 99.5142 -683.814 99.075 -684.313 98.6294Z" stroke="#08203E" stroke-dasharray="2 2"/>
</g>
</svg>
