<svg xmlns="http://www.w3.org/2000/svg" width="54" height="54" fill="none" xmlns:v="https://vecta.io/nano"><path d="M2.667 42.667h11.685l-3.405 6.808c-.157.313-.25.655-.274 1.004a2.67 2.67 0 0 0 .646 1.937c.23.265.509.481.823.638s.655.25 1.004.275a2.67 2.67 0 0 0 1.937-.647 2.67 2.67 0 0 0 .638-.823l4.595-9.192H24V48c0 .707.281 1.386.781 1.886s1.178.781 1.886.781 1.386-.281 1.886-.781.781-1.178.781-1.886v-5.333h3.685l4.595 9.192a2.67 2.67 0 0 0 1.542 1.339 2.67 2.67 0 0 0 1.033.131c.349-.025.691-.118 1.004-.275s.593-.373.823-.638.405-.572.516-.904a2.67 2.67 0 0 0-.144-2.037l-3.405-6.808h11.685c.707 0 1.386-.281 1.886-.781s.781-1.178.781-1.886V8c0-.707-.281-1.386-.781-1.886s-1.178-.781-1.886-.781H29.333V2.667c0-.707-.281-1.386-.781-1.886S27.374 0 26.667 0s-1.386.281-1.886.781S24 1.959 24 2.667v2.667H2.667c-.707 0-1.386.281-1.886.781S0 7.293 0 8v32c0 .707.281 1.386.781 1.886s1.178.781 1.886.781zm2.667-32H48v26.667H5.333V10.667zM18.667 24v5.333c0 .707-.281 1.386-.781 1.886S16.707 32 16 32s-1.386-.281-1.886-.781-.781-1.178-.781-1.886V24c0-.707.281-1.386.781-1.886s1.178-.781 1.886-.781 1.386.281 1.886.781.781 1.178.781 1.886zm10.667-2.667v8c0 .707-.281 1.386-.781 1.886S27.374 32 26.667 32s-1.386-.281-1.886-.781S24 30.041 24 29.333v-8c0-.707.281-1.386.781-1.886s1.178-.781 1.886-.781 1.386.281 1.886.781.781 1.178.781 1.886zM40 18.667v10.667c0 .707-.281 1.386-.781 1.886S38.041 32 37.333 32s-1.386-.281-1.886-.781-.781-1.178-.781-1.886V18.667c0-.707.281-1.386.781-1.886S36.626 16 37.333 16s1.386.281 1.886.781.781 1.178.781 1.886z" fill="#fff"/></svg>