<svg width="438" height="106" viewBox="0 0 438 106" fill="none" xmlns="http://www.w3.org/2000/svg">
<path d="M143.645 29.903V40.0374H129.886V81.8201H117.232V40.0374H103.473V29.903H143.645Z" fill="white"/>
<path d="M186.773 44.8079C189.637 47.9378 191.069 52.2429 191.069 57.7116V81.8201H178.497V59.4103C178.497 56.6527 177.787 54.5002 176.355 52.976C174.923 51.4517 173.002 50.6838 170.581 50.6838C168.16 50.6838 166.239 51.4517 164.807 52.976C163.376 54.5002 162.666 56.6527 162.666 59.4103V81.8201H150.012V27.0988H162.666V46.0994C163.946 44.2727 165.704 42.8183 167.915 41.7362C170.139 40.6541 172.63 40.1072 175.389 40.1072C180.115 40.1072 183.91 41.678 186.773 44.8079Z" fill="white"/>
<path d="M238.562 64.2157H209.938C210.136 66.7755 210.962 68.7419 212.417 70.0916C213.872 71.4529 215.665 72.1278 217.784 72.1278C220.938 72.1278 223.138 70.8013 224.372 68.1368H237.84C237.154 70.8479 235.908 73.2913 234.104 75.4555C232.299 77.6197 230.041 79.3301 227.329 80.5634C224.617 81.7968 221.579 82.4135 218.226 82.4135C214.187 82.4135 210.578 81.5524 207.424 79.8304C204.269 78.1084 201.801 75.6417 200.02 72.4303C198.251 69.2306 197.354 65.484 197.354 61.1905C197.354 56.897 198.228 53.1621 199.985 49.9507C201.731 46.751 204.188 44.2843 207.342 42.5622C210.497 40.8402 214.117 39.9792 218.214 39.9792C222.207 39.9792 225.757 40.8169 228.866 42.4924C231.974 44.1679 234.406 46.5532 236.153 49.6598C237.899 52.7665 238.783 56.3851 238.783 60.5273C238.783 61.7025 238.702 62.9358 238.562 64.2157ZM225.839 57.1879C225.839 55.0237 225.094 53.2901 223.616 52.0102C222.137 50.7303 220.286 50.0903 218.063 50.0903C215.944 50.0903 214.152 50.707 212.697 51.9404C211.242 53.1737 210.345 54.919 209.996 57.1879H225.839Z" fill="white"/>
<path d="M263.636 42.0736C265.859 40.7704 268.315 40.1188 271.039 40.1188V53.4995H267.559C264.404 53.4995 262.029 54.1744 260.458 55.5357C258.875 56.8971 258.095 59.2707 258.095 62.6682V81.8201H245.441V40.5493H258.095V47.4259C259.561 45.157 261.412 43.3767 263.636 42.0736Z" fill="white"/>
<path d="M276.988 49.9391C278.594 46.7394 280.771 44.2727 283.53 42.5506C286.288 40.8286 289.373 39.9676 292.772 39.9676C295.682 39.9676 298.232 40.561 300.432 41.7361C302.62 42.923 304.32 44.4705 305.495 46.3903V40.5493H318.149V81.8084H305.495V75.9675C304.262 77.8873 302.55 79.4464 300.35 80.6216C298.15 81.8084 295.601 82.4018 292.691 82.4018C289.338 82.4018 286.277 81.5292 283.518 79.7722C280.759 78.0269 278.571 75.537 276.976 72.3023C275.37 69.0793 274.566 65.3443 274.566 61.0974C274.578 56.8738 275.381 53.1505 276.988 49.9391ZM302.876 53.7206C301.13 51.8938 298.988 50.9863 296.474 50.9863C293.96 50.9863 291.829 51.8822 290.072 53.6857C288.326 55.4892 287.441 57.9675 287.441 61.1207C287.441 64.2739 288.314 66.7755 290.072 68.6255C291.818 70.4756 293.96 71.3947 296.474 71.3947C298.988 71.3947 301.119 70.4872 302.876 68.6604C304.622 66.8337 305.507 64.3437 305.507 61.1905C305.507 58.0257 304.634 55.5357 302.876 53.7206Z" fill="white"/>
<path d="M345.085 41.7361C347.25 40.5493 349.799 39.9676 352.709 39.9676C356.109 39.9676 359.193 40.8286 361.952 42.5506C364.711 44.2727 366.899 46.7394 368.494 49.9391C370.1 53.1505 370.892 56.8622 370.892 61.1091C370.892 65.356 370.089 69.0793 368.494 72.3139C366.888 75.5486 364.711 78.0386 361.952 79.7839C359.193 81.5292 356.109 82.4135 352.709 82.4135C349.846 82.4135 347.32 81.8201 345.131 80.6333C342.931 79.4464 341.22 77.9222 339.986 76.0489V101.484H327.333V40.5493H339.975V46.3903C341.209 44.4705 342.908 42.923 345.085 41.7361ZM355.398 53.674C353.652 51.8706 351.487 50.9746 348.926 50.9746C346.412 50.9746 344.282 51.8822 342.524 53.709C340.778 55.5357 339.893 58.0257 339.893 61.1789C339.893 64.3321 340.766 66.822 342.524 68.6488C344.27 70.4756 346.412 71.3831 348.926 71.3831C351.441 71.3831 353.583 70.4639 355.364 68.6139C357.145 66.7639 358.029 64.2623 358.029 61.1091C358.029 57.9559 357.156 55.4775 355.398 53.674Z" fill="white"/>
<path d="M378.482 34.3011C377.073 32.998 376.375 31.3806 376.375 29.4608C376.375 27.4944 377.073 25.8538 378.482 24.539C379.89 23.2359 381.695 22.5843 383.918 22.5843C386.083 22.5843 387.876 23.2359 389.284 24.539C390.693 25.8422 391.391 27.4828 391.391 29.4608C391.391 31.3806 390.693 32.998 389.284 34.3011C387.876 35.6043 386.095 36.2559 383.918 36.2559C381.695 36.2675 379.89 35.6159 378.482 34.3011ZM390.204 40.5493V81.8084H377.551V40.5493H390.204Z" fill="white"/>
<path d="M423.798 81.8085L415.883 70.3476L409.224 81.8085H395.535L409.143 60.7368L395.163 40.5494H409.364L417.28 51.9405L423.938 40.5494H437.627L423.798 61.3302L438 81.8085H423.798Z" fill="white"/>
<path d="M83.3465 88.4522V89.2202V91.0586V97.2602C83.3465 101.996 79.5051 105.847 74.7558 105.847H66.7121H65.9555V88.4522H83.3465ZM54.9552 88.4522V105.847H52.1614H23.8515H19.0556H8.59074C3.85303 105.847 0 102.007 0 97.2602V8.58692C0 3.85132 3.84139 0 8.59074 0H74.7558C79.4935 0 83.3465 3.83968 83.3465 8.58692V38.1641V58.4213V74.6876V77.4801H65.9555V60.0852H54.9668V77.4801H37.5641V88.4522H54.9552ZM13.0025 25.9935H63.7904V16.1616H13.0025V25.9935ZM13.0025 47.0768H44.921V37.2449H13.0025V47.0768ZM32.3142 58.3399H13.0025V68.1718H32.3142V58.3399Z" fill="white"/>
</svg>
