<svg xmlns="http://www.w3.org/2000/svg" xmlns:xlink="http://www.w3.org/1999/xlink" width="500" zoomAndPan="magnify" viewBox="0 0 375 374.999991" height="500" preserveAspectRatio="xMidYMid meet" version="1.0"><defs><clipPath id="876df59e0e"><path d="M 41 45.125 L 326 45.125 L 326 330 L 41 330 Z M 41 45.125 " clip-rule="nonzero"/></clipPath></defs><path fill="#d9d9d9" d="M 164.863281 324.398438 C 151.320312 324.398438 140.300781 315.15625 140.300781 303.78125 C 140.300781 298.707031 142.554688 293.949219 146.519531 290.191406 C 146.511719 290.179688 146.507812 290.167969 146.5 290.15625 C 146.488281 290.140625 146.480469 290.125 146.472656 290.105469 C 148.390625 293.421875 151.097656 295.746094 153.40625 297.445312 C 152.796875 298.890625 152.257812 300.800781 152.257812 301.898438 C 152.257812 307.289062 157.996094 311.664062 165.046875 311.664062 C 172.097656 311.664062 177.832031 307.289062 177.832031 301.898438 C 177.832031 300.875 177.246094 299.136719 176.621094 297.746094 C 179.671875 295.683594 183.679688 291.984375 183.480469 290.425781 C 187.285156 294.160156 189.429688 298.839844 189.429688 303.78125 C 189.429688 315.152344 178.410156 324.398438 164.863281 324.398438 Z M 164.863281 324.398438 " fill-opacity="1" fill-rule="nonzero"/><path fill="#d9d9d9" d="M 169.335938 283.015625 C 169.335938 285.507812 167.328125 287.53125 164.855469 287.53125 C 162.378906 287.53125 160.371094 285.507812 160.371094 283.015625 C 160.371094 280.519531 162.378906 278.496094 164.855469 278.496094 C 167.328125 278.496094 169.335938 280.519531 169.335938 283.015625 Z M 169.335938 283.015625 " fill-opacity="1" fill-rule="nonzero"/><g clip-path="url(#876df59e0e)"><path fill="#d9d9d9" d="M 325.410156 115.53125 C 323.496094 112.351562 316.082031 106.085938 316.082031 106.085938 C 314.375 105.214844 312.738281 105.535156 311.296875 106.378906 C 308.796875 104.589844 303.894531 100.710938 303.410156 100.304688 C 301.410156 90.78125 293.839844 77.257812 280.9375 60.457031 L 280.832031 60.320312 C 280.765625 60.234375 280.714844 60.167969 280.644531 60.078125 C 280.792969 59.722656 280.902344 59.375 280.929688 59.0625 C 281.261719 54.910156 273.527344 45.394531 271.59375 45.324219 C 268.972656 45.21875 262.753906 50.386719 262.269531 53.035156 C 261.792969 55.691406 271.636719 66.261719 273.03125 66.300781 C 273.761719 66.316406 274.785156 65.867188 275.828125 65.199219 C 278.730469 68.300781 292.023438 84.269531 296.484375 96.84375 C 291.445312 95.183594 272.785156 90.695312 242.859375 101.324219 C 237.199219 91.09375 219.441406 78 198.8125 73.375 C 178.078125 68.722656 140.050781 71.03125 101.089844 92.796875 C 61.714844 114.785156 53.105469 128.992188 44.460938 148.148438 C 37.511719 163.558594 42.007812 180.085938 56.488281 192.367188 C 64.417969 199.078125 76.539062 200.898438 87.089844 200.898438 C 95.925781 200.898438 103.582031 199.628906 106.828125 198.886719 C 116.964844 193.769531 133.382812 192.546875 134.761719 194.410156 L 135.339844 193.972656 L 134.847656 194.5 C 141.472656 200.824219 151.703125 207.351562 165.679688 207.351562 C 169.886719 207.351562 174.425781 206.757812 179.324219 205.394531 L 179.511719 205.339844 C 179.789062 205.261719 180.003906 205.199219 180.152344 205.167969 C 182.191406 204.726562 215.527344 188.699219 216.976562 186.21875 C 217.378906 185.527344 217.542969 184.714844 217.621094 183.867188 C 228.371094 178.269531 237.785156 172.734375 246.148438 167.339844 C 242.492188 210.164062 189.445312 261.527344 183.382812 267.226562 L 183.375 267.226562 C 183.171875 267.410156 183.003906 267.5625 182.871094 267.703125 C 182.863281 267.710938 182.855469 267.71875 182.84375 267.726562 L 182.835938 267.730469 C 182.828125 267.738281 182.824219 267.746094 182.820312 267.746094 L 182.824219 267.75 C 182.519531 268.074219 182.476562 268.273438 182.628906 268.605469 C 182.574219 268.75 182.539062 268.90625 182.589844 269.066406 C 182.644531 269.226562 182.628906 269.460938 182.609375 269.726562 C 182.5625 270.402344 182.570312 271.375 183.566406 272.359375 L 182.703125 273.074219 C 179.074219 267.863281 172.550781 264.332031 165.042969 264.332031 C 153.628906 264.332031 144.335938 272.40625 144.335938 282.3125 C 144.335938 284.464844 144.851562 286.511719 145.660156 288.421875 C 145.648438 288.40625 145.632812 288.386719 145.617188 288.371094 L 145.578125 288.464844 L 145.535156 288.421875 C 140.347656 293 137.492188 299.09375 137.492188 305.582031 C 137.492188 318.929688 149.757812 329.789062 164.84375 329.789062 C 179.925781 329.789062 192.195312 318.929688 192.195312 305.582031 C 192.195312 299.523438 188.929688 293.175781 184.304688 288.683594 L 184.308594 288.675781 C 185.207031 286.695312 185.742188 284.566406 185.742188 282.304688 C 185.742188 281.089844 185.597656 279.902344 185.328125 278.75 L 185.453125 278.917969 L 185.695312 278.734375 C 186.042969 278.472656 186.710938 277.964844 187.480469 277.382812 C 187.546875 277.453125 187.625 277.511719 187.691406 277.585938 C 188.25 278.183594 188.832031 278.679688 190.035156 278.679688 C 190.386719 278.679688 190.796875 278.640625 191.269531 278.550781 C 191.320312 278.539062 191.355469 278.507812 191.390625 278.472656 C 191.414062 278.453125 191.433594 278.429688 191.460938 278.414062 C 191.464844 278.414062 191.464844 278.417969 191.46875 278.417969 C 191.472656 278.421875 191.476562 278.425781 191.480469 278.425781 C 191.671875 278.425781 191.859375 278.34375 192 278.199219 C 235.523438 232.246094 257.164062 191.667969 256.519531 160.378906 L 256.519531 160.339844 C 256.519531 160.304688 256.710938 160.1875 256.90625 160.066406 C 257.101562 159.949219 257.296875 159.828125 257.285156 159.796875 C 290.265625 136.394531 301.285156 117.199219 303.519531 108.746094 C 304.933594 109.746094 306.382812 110.820312 307.199219 111.496094 C 306.675781 112.976562 306.582031 114.34375 307.238281 115.003906 C 307.8125 115.585938 308.605469 116.5625 309.515625 117.6875 C 312.023438 120.78125 315.417969 124.96875 317.523438 124.890625 C 319.976562 124.796875 327.320312 118.714844 325.410156 115.53125 Z M 145.660156 288.421875 C 145.683594 288.457031 145.707031 288.484375 145.730469 288.511719 C 145.75 288.535156 145.769531 288.558594 145.785156 288.585938 L 145.695312 288.53125 C 145.691406 288.511719 145.6875 288.492188 145.679688 288.472656 C 145.675781 288.453125 145.667969 288.4375 145.660156 288.421875 Z M 183.597656 290.125 L 183.671875 290 C 187.773438 294.214844 190.765625 300.140625 190.765625 305.582031 C 190.765625 318.132812 179.136719 328.34375 164.847656 328.34375 C 150.554688 328.34375 138.929688 318.132812 138.929688 305.582031 C 138.929688 299.632812 141.539062 294.046875 146.238281 289.785156 C 146.109375 289.601562 146.242188 289.484375 146.371094 289.378906 L 146.378906 289.371094 C 146.449219 289.472656 146.523438 289.566406 146.597656 289.660156 C 146.660156 289.738281 146.722656 289.820312 146.785156 289.90625 C 146.511719 289.832031 146.257812 289.769531 146.257812 289.769531 C 146.296875 289.839844 146.339844 289.902344 146.386719 289.96875 C 146.414062 290.007812 146.441406 290.050781 146.46875 290.09375 C 146.433594 290.046875 146.675781 290.066406 146.929688 290.09375 C 153.816406 299.265625 161.808594 300.414062 167.039062 299.847656 C 174.085938 299.085938 180.707031 294.785156 183.453125 290.367188 L 183.457031 290.371094 L 183.464844 290.382812 L 183.472656 290.390625 C 183.515625 290.308594 183.550781 290.226562 183.589844 290.148438 Z M 164.65625 294.625 C 155.363281 294.625 147.796875 288.25 147.796875 280.429688 C 147.796875 272.597656 155.363281 266.234375 164.65625 266.234375 C 173.953125 266.234375 181.519531 272.601562 181.519531 280.429688 C 181.519531 288.253906 173.949219 294.625 164.65625 294.625 Z M 186.746094 269.761719 L 184.671875 271.460938 C 184.011719 270.894531 184 270.429688 184.039062 269.824219 C 184.050781 269.644531 184.027344 269.445312 184.003906 269.246094 C 184 269.210938 183.996094 269.179688 183.992188 269.144531 C 183.992188 269.109375 183.988281 269.078125 183.984375 269.042969 C 184.6875 269.046875 185.65625 269.273438 186.746094 269.761719 Z M 184.898438 277.527344 C 184.535156 276.40625 184.0625 275.332031 183.46875 274.304688 L 188.125 270.492188 C 188.8125 270.933594 189.472656 271.457031 190.007812 272.097656 C 190.261719 272.40625 190.4375 272.714844 190.617188 273.039062 C 189.945312 273.707031 186.488281 276.339844 184.898438 277.527344 Z M 190.894531 277.148438 C 189.503906 277.417969 189.191406 277.089844 188.734375 276.601562 C 188.71875 276.589844 188.703125 276.574219 188.691406 276.5625 C 188.679688 276.554688 188.667969 276.542969 188.660156 276.535156 C 188.648438 276.523438 188.636719 276.515625 188.628906 276.503906 C 189.605469 275.753906 190.5625 274.992188 191.164062 274.484375 C 191.316406 275.324219 191.222656 276.222656 190.894531 277.148438 Z M 237.128906 105.03125 C 273.535156 90.25 294.636719 97.621094 297.078125 98.578125 C 297.539062 100.148438 297.792969 101.625 297.894531 103.027344 C 294.699219 101.070312 286.097656 96.808594 263.097656 101.226562 C 246.210938 104.46875 222.714844 114.527344 205.554688 121.878906 C 196.363281 125.816406 188.984375 128.96875 184.78125 130.21875 C 184.707031 128.980469 184.445312 127.707031 183.988281 126.601562 C 185.84375 125.847656 190.171875 124.089844 196.921875 121.351562 L 196.929688 121.347656 C 205.996094 117.667969 219.4375 112.21875 237.128906 105.03125 Z M 247.507812 107.246094 C 247.4375 107.117188 247.421875 107.089844 247.367188 106.972656 C 253.042969 105.121094 258.496094 103.570312 263.359375 102.628906 C 287.351562 98.03125 295.136719 102.980469 297.699219 104.605469 C 297.765625 104.652344 297.816406 104.683594 297.871094 104.714844 C 297.886719 104.722656 297.902344 104.730469 297.917969 104.742188 C 297.929688 104.75 297.945312 104.757812 297.960938 104.769531 C 297.90625 105.671875 297.75 106.511719 297.46875 107.289062 C 291.59375 123.539062 274.316406 140.121094 257.085938 153.058594 C 258.214844 142.109375 257.300781 125.824219 247.507812 107.246094 Z M 126.382812 172.390625 C 126.386719 172.441406 126.421875 172.8125 125.757812 173.714844 C 122.960938 177.515625 112.761719 184.121094 104.929688 185.136719 C 104.699219 185.179688 86.539062 188.734375 75.121094 187.828125 C 64.386719 186.992188 54.472656 173.679688 51.878906 165.640625 C 49.917969 159.558594 52.84375 138.632812 77.347656 118.980469 C 101.847656 99.332031 137.367188 86.90625 169.867188 82.746094 C 202.941406 78.492188 229.417969 96.898438 233.761719 104.828125 C 223.246094 109.105469 214.214844 112.785156 206.792969 115.808594 C 193.929688 121.054688 185.882812 124.332031 183.257812 125.335938 C 183.210938 125.28125 183.171875 125.21875 183.128906 125.160156 C 183.058594 125.058594 182.988281 124.957031 182.902344 124.871094 C 182.1875 124.167969 180.929688 123.492188 179.027344 124.207031 C 177.007812 124.972656 162.902344 130.664062 149.1875 137.4375 L 149.179688 137.441406 C 142.203125 140.890625 121.402344 151.171875 126.382812 172.390625 Z M 213.402344 176.328125 C 186.835938 189.589844 165.796875 194.046875 152.558594 189.207031 C 146.417969 186.964844 141.933594 182.691406 139.21875 176.503906 C 131.984375 159.984375 145.027344 152.171875 184.148438 134.054688 C 184.179688 133.953125 184.230469 133.824219 184.285156 133.679688 C 184.492188 133.128906 184.796875 132.3125 184.832031 131.699219 C 189.070312 130.492188 196.632812 127.261719 206.101562 123.203125 C 215.457031 119.203125 226.695312 114.414062 237.707031 110.339844 C 243.304688 117.722656 249.03125 134.917969 247.347656 160.007812 C 233.65625 169.28125 220.363281 176.265625 215.707031 177.535156 C 215.078125 176.78125 214.40625 176.253906 213.722656 176.253906 Z M 302.457031 106.941406 C 302.410156 107.277344 295.300781 141.597656 217.625 182.234375 C 217.46875 180.859375 217.023438 179.488281 216.40625 178.402344 C 216.40625 178.398438 216.398438 178.398438 216.398438 178.394531 C 228.273438 175.214844 286.648438 141.46875 298.820312 107.785156 C 303.199219 95.648438 281.566406 69.289062 277.003906 64.355469 C 278.089844 63.492188 279.125 62.460938 279.863281 61.429688 C 295.710938 82.082031 303.738281 98.246094 302.457031 106.941406 Z M 307.777344 110.136719 C 306.574219 109.15625 304.863281 107.921875 303.863281 107.21875 C 303.863281 107.203125 303.875 107.175781 303.878906 107.160156 C 304.082031 105.773438 304.007812 104.175781 303.792969 102.488281 C 305.597656 103.964844 308.609375 106.386719 309.992188 107.273438 C 309.085938 108.085938 308.339844 109.089844 307.777344 110.136719 Z M 307.777344 110.136719 " fill-opacity="1" fill-rule="evenodd"/></g></svg>