<svg width="88" height="126" viewBox="0 0 88 126" fill="none" xmlns="http://www.w3.org/2000/svg">
<mask id="mask0_476_46" style="mask-type:luminance" maskUnits="userSpaceOnUse" x="0" y="0" width="88" height="126">
<path d="M88 0.079834H0V125.08H88V0.079834Z" fill="white"/>
</mask>
<g mask="url(#mask0_476_46)">
<path d="M14.2533 125.08H-637.318C-683.26 125.08 -720.5 97.096 -720.5 62.5798C-720.5 28.0617 -683.26 0.079834 -637.318 0.079834H14.2807C16.5173 0.0842273 18.7255 0.447467 20.7503 1.14405C22.7751 1.84064 24.5673 2.85369 26.0012 4.11209L84.2407 54.8238C86.6654 56.9503 87.9963 59.6328 88.0018 62.4044C88.0074 65.1761 86.6872 67.8614 84.271 69.9931L26.0012 121.023C24.5671 122.288 22.7718 123.307 20.7419 124.008C18.712 124.709 16.497 125.075 14.2533 125.08Z" fill="white"/>
</g>
</svg>
